%TF.GenerationSoftware,KiCad,Pcbnew,4.1.0-alpha+201607051515+6967~46~ubuntu15.10.1-product*%
%TF.CreationDate,2016-07-07T14:30:01+02:00*%
%TF.ProjectId,robot1,726F626F74312E6B696361645F706362,rev?*%
%TF.FileFunction,Copper,L2,Bot,Signal*%
%FSLAX46Y46*%
G04 Gerber Fmt 4.6, Leading zero omitted, Abs format (unit mm)*
G04 Created by KiCad (PCBNEW 4.1.0-alpha+201607051515+6967~46~ubuntu15.10.1-product) date Thu Jul  7 14:30:01 2016*
%MOMM*%
%LPD*%
G01*
G04 APERTURE LIST*
%ADD10C,0.100000*%
%ADD11C,1.016000*%
%ADD12R,1.524000X2.199640*%
%ADD13O,1.524000X2.199640*%
%ADD14C,1.200000*%
%ADD15C,0.609600*%
%ADD16C,0.152400*%
%ADD17C,0.304800*%
%ADD18C,0.406400*%
%ADD19C,0.254000*%
G04 APERTURE END LIST*
D10*
D11*
X152654000Y-139700000D03*
X152654000Y-137160000D03*
D12*
X159766000Y-117602000D03*
D13*
X162306000Y-117602000D03*
X164846000Y-117602000D03*
X167386000Y-117602000D03*
D12*
X153670000Y-132080000D03*
D13*
X151130000Y-132080000D03*
X148590000Y-132080000D03*
D14*
X174115000Y-118745000D03*
X174115000Y-122145000D03*
X170815000Y-122145000D03*
X170815000Y-118745000D03*
X170815000Y-139065000D03*
X170815000Y-135665000D03*
X174115000Y-135665000D03*
X174115000Y-139065000D03*
D12*
X184150000Y-117475000D03*
D13*
X186690000Y-117475000D03*
X189230000Y-117475000D03*
X191770000Y-117475000D03*
X194310000Y-117475000D03*
D12*
X184150000Y-140335000D03*
D13*
X186690000Y-140335000D03*
X189230000Y-140335000D03*
X191770000Y-140335000D03*
X194310000Y-140335000D03*
D12*
X148590000Y-128905000D03*
D13*
X151130000Y-128905000D03*
D15*
X190637565Y-129741774D03*
X169011867Y-122758221D03*
X169391259Y-121085446D03*
X188270888Y-121011469D03*
X167640000Y-125730000D03*
X164846000Y-129540000D03*
X161775468Y-129781314D03*
X168148000Y-136144000D03*
X163830000Y-137160000D03*
X171196000Y-129794000D03*
X173228000Y-128524000D03*
X178054000Y-125730000D03*
X174752000Y-126492000D03*
X162814000Y-121412000D03*
X160830249Y-121537138D03*
X187705990Y-125476000D03*
X183896000Y-128778000D03*
X187198000Y-124206000D03*
X156464000Y-132842000D03*
X157734000Y-133604000D03*
X150495000Y-120015000D03*
X150495000Y-121920000D03*
X192792987Y-125180966D03*
X187537310Y-137747273D03*
X186817000Y-137033000D03*
X185865921Y-137730079D03*
X184912000Y-137414000D03*
X183769000Y-137541000D03*
X182499000Y-136271000D03*
X194945000Y-132461000D03*
X196977000Y-132461000D03*
X196977000Y-136017000D03*
X196977000Y-136906000D03*
X196977000Y-137795000D03*
X196215000Y-137795000D03*
X192786000Y-137668000D03*
X192786000Y-136652000D03*
X191897000Y-136652000D03*
X191897000Y-137668000D03*
X191008000Y-137668000D03*
X191008000Y-136652000D03*
X190119000Y-136652000D03*
X190119000Y-137668000D03*
X189230000Y-137668000D03*
X189230000Y-136652000D03*
X193421000Y-129921000D03*
X192786000Y-130175000D03*
X192151000Y-130175000D03*
X191532137Y-130159985D03*
X204089000Y-140970000D03*
X204072353Y-116797980D03*
X181229000Y-135128000D03*
X181229000Y-132461000D03*
X186354016Y-136291978D03*
X176408351Y-121512885D03*
X180306958Y-122559621D03*
X180645027Y-123622101D03*
X169468779Y-120142009D03*
X191262000Y-119888000D03*
X191135000Y-120904000D03*
X191389000Y-121920000D03*
X190373000Y-121920000D03*
X189484000Y-122301000D03*
X189484000Y-123825000D03*
X192786000Y-124333000D03*
X195199000Y-126238000D03*
X195580000Y-125603000D03*
X195580000Y-124587000D03*
X195580000Y-121793000D03*
X194056000Y-121793000D03*
X194056000Y-120777000D03*
X195580000Y-120777000D03*
X195580000Y-119761000D03*
X193929000Y-119761000D03*
X153924000Y-117856000D03*
X157988000Y-116078000D03*
X156972000Y-116078000D03*
X155448000Y-116332000D03*
X156718000Y-125730000D03*
X155448000Y-125476000D03*
X149098000Y-122174000D03*
X148336000Y-116840000D03*
X150622000Y-116332000D03*
X153416000Y-116078000D03*
X143510000Y-134874000D03*
X141732000Y-135128000D03*
X141732000Y-136906000D03*
X142240000Y-139192000D03*
X143510000Y-139954000D03*
X148336000Y-141478000D03*
X149606000Y-141732000D03*
X152400000Y-141732000D03*
X155956000Y-141732000D03*
X159766000Y-141732000D03*
X163576000Y-141732000D03*
X167386000Y-141732000D03*
X178054000Y-136398000D03*
X179070000Y-137414000D03*
X180340000Y-138938000D03*
X181864000Y-140208000D03*
X180594000Y-140208000D03*
X180848000Y-141732000D03*
X175260000Y-141478000D03*
X174244000Y-140970000D03*
X172466000Y-141478000D03*
X171196000Y-140716000D03*
X169418000Y-140970000D03*
X178562000Y-123952000D03*
X179324000Y-121920000D03*
X168706812Y-139700000D03*
X157734004Y-119126000D03*
X172466000Y-137668000D03*
X167741610Y-134874000D03*
X177661667Y-117678221D03*
X178562000Y-117678221D03*
X179578000Y-117678221D03*
X160274000Y-124206000D03*
X158496000Y-125476000D03*
X169418000Y-123444000D03*
X183464221Y-122171375D03*
X183388006Y-132080000D03*
X184658000Y-124180590D03*
X186436000Y-125476000D03*
X180594000Y-119634000D03*
X179578000Y-119634000D03*
X179578000Y-118618000D03*
X179832000Y-120650000D03*
X187960000Y-129540000D03*
X187198000Y-129540000D03*
X186436000Y-129540000D03*
X186436000Y-128778000D03*
X187198000Y-128778000D03*
X187960000Y-128778000D03*
X187960000Y-128016000D03*
X187198000Y-128016000D03*
X186436046Y-128016000D03*
X184150000Y-136398000D03*
X185166000Y-136398000D03*
X184912000Y-132334000D03*
X184404000Y-131572000D03*
X187198000Y-136144000D03*
X157480000Y-134874000D03*
X153670000Y-134620000D03*
X152146000Y-135636000D03*
X147320000Y-125095000D03*
X144780000Y-133350000D03*
X160655000Y-119380000D03*
X150114006Y-125984000D03*
X162282335Y-124017526D03*
X146050000Y-133350000D03*
X145415000Y-125730000D03*
X184434447Y-125782225D03*
X183896000Y-124180590D03*
X192675433Y-125933856D03*
X190659014Y-127435187D03*
X190754000Y-125984000D03*
X190541334Y-128188058D03*
X192913000Y-132715000D03*
X190680352Y-130684863D03*
X189738000Y-132842000D03*
X189865000Y-131318000D03*
X158242000Y-135000996D03*
X161037126Y-134772390D03*
X162560066Y-132542988D03*
X164260038Y-122659495D03*
X161135058Y-120015000D03*
X153162000Y-126238000D03*
X166451564Y-140131779D03*
X174243982Y-136906000D03*
X170434000Y-134116913D03*
X172729289Y-123545610D03*
X172466132Y-134934268D03*
X168706811Y-125945640D03*
X169164000Y-127939843D03*
X164094967Y-126527364D03*
X177800000Y-128524000D03*
X178308000Y-131318000D03*
X196850000Y-140462000D03*
X156972000Y-127254000D03*
X161544000Y-124206000D03*
X161544000Y-126746000D03*
X156972000Y-130302000D03*
X164571893Y-123723378D03*
X159666964Y-126852691D03*
X174119503Y-123659411D03*
X175260000Y-117678221D03*
X171218557Y-134311348D03*
X175395449Y-133781841D03*
X172469399Y-134172263D03*
X178308000Y-138684000D03*
X165552108Y-129851079D03*
X174752000Y-129540004D03*
X169974463Y-130916425D03*
X167661323Y-130735161D03*
X172810458Y-130319685D03*
X168401964Y-130556000D03*
X167760835Y-129659288D03*
X169804797Y-129652731D03*
X167894000Y-128524000D03*
X172186590Y-129215371D03*
X160608229Y-127481674D03*
X178877945Y-125478510D03*
X178369004Y-127862508D03*
X157352996Y-129522404D03*
X161028113Y-128117566D03*
X176784000Y-126715528D03*
X159885415Y-128303011D03*
X177689003Y-126998718D03*
X159902501Y-129369822D03*
X180763292Y-125899286D03*
X167640000Y-139953998D03*
X146469593Y-136398944D03*
X164343090Y-132334000D03*
X166390812Y-134010390D03*
X167386000Y-139192000D03*
X145542000Y-136906000D03*
X168367409Y-127926885D03*
X172238056Y-128454796D03*
X182075151Y-123845452D03*
X162773674Y-130299043D03*
X182823630Y-123988427D03*
X163533791Y-130352755D03*
X181276142Y-124104825D03*
X182626000Y-118110000D03*
X163028155Y-126747529D03*
X181087204Y-122831440D03*
X163068000Y-123952000D03*
X160756590Y-130048000D03*
X159766000Y-130484532D03*
X160267977Y-131077667D03*
X159583063Y-131551344D03*
X147531711Y-136948289D03*
D16*
X190332766Y-130046573D02*
X190637565Y-129741774D01*
X190305938Y-130073401D02*
X190332766Y-130046573D01*
X185191401Y-130073401D02*
X190305938Y-130073401D01*
X183896000Y-128778000D02*
X185191401Y-130073401D01*
X169391259Y-121516498D02*
X169391259Y-121085446D01*
X169011867Y-122758221D02*
X169391259Y-122378829D01*
X169391259Y-122378829D02*
X169391259Y-121516498D01*
X187966089Y-121316268D02*
X188270888Y-121011469D01*
X187198000Y-122682000D02*
X187198000Y-122084357D01*
X187198000Y-122084357D02*
X187966089Y-121316268D01*
X184605156Y-122682000D02*
X187198000Y-122682000D01*
X187198000Y-124206000D02*
X187198000Y-122682000D01*
X168389050Y-126479050D02*
X167944799Y-126034799D01*
X167944799Y-126034799D02*
X167640000Y-125730000D01*
X174752000Y-126492000D02*
X174320948Y-126492000D01*
X174307998Y-126479050D02*
X168389050Y-126479050D01*
X174320948Y-126492000D02*
X174307998Y-126479050D01*
X183896000Y-128778000D02*
X183362599Y-128244599D01*
X183362599Y-128244599D02*
X183362599Y-123924557D01*
X183362599Y-123924557D02*
X184605156Y-122682000D01*
D17*
X194310000Y-117137180D02*
X194310000Y-117475000D01*
X159766000Y-117264180D02*
X160959801Y-116070379D01*
X193243200Y-116070380D02*
X194310000Y-117137180D01*
X159766000Y-117602000D02*
X159766000Y-117264180D01*
X160959801Y-116070379D02*
X193243200Y-116070380D01*
D16*
X164592000Y-129540000D02*
X164846000Y-129540000D01*
X164592000Y-129540000D02*
X164566542Y-129514542D01*
X164566542Y-129514542D02*
X162473292Y-129514542D01*
X162206520Y-129781314D02*
X161775468Y-129781314D01*
X162473292Y-129514542D02*
X162206520Y-129781314D01*
X164846000Y-136144000D02*
X168148000Y-136144000D01*
X163830000Y-137160000D02*
X164846000Y-136144000D01*
X172720000Y-129794000D02*
X172720000Y-129032000D01*
X172720000Y-129032000D02*
X173228000Y-128524000D01*
X171196000Y-129794000D02*
X172720000Y-129794000D01*
X174752000Y-126492000D02*
X175514000Y-125730000D01*
X175514000Y-125730000D02*
X178054000Y-125730000D01*
X160830249Y-121537138D02*
X162688862Y-121537138D01*
X162688862Y-121537138D02*
X162814000Y-121412000D01*
X187198000Y-125476000D02*
X187705990Y-125476000D01*
X183896000Y-128778000D02*
X187198000Y-125476000D01*
X187198000Y-124206000D02*
X187705990Y-124713990D01*
X187705990Y-124713990D02*
X187705990Y-125476000D01*
X157734000Y-133604000D02*
X157226000Y-133604000D01*
X157226000Y-133604000D02*
X156464000Y-132842000D01*
X150495000Y-121920000D02*
X150495000Y-120015000D01*
X147320000Y-125095000D02*
X147193000Y-125222000D01*
X147193000Y-125222000D02*
X147193000Y-130048000D01*
X147193000Y-130048000D02*
X147828000Y-130683000D01*
X147828000Y-130683000D02*
X147828000Y-131318000D01*
X147828000Y-131318000D02*
X148590000Y-132080000D01*
X180594000Y-119634000D02*
X181102000Y-119126000D01*
X181102000Y-119126000D02*
X194945000Y-119126000D01*
X194945000Y-119126000D02*
X196968221Y-117102779D01*
X196968221Y-117102779D02*
X203767554Y-117102779D01*
X203767554Y-117102779D02*
X204072353Y-116797980D01*
X190839966Y-125180966D02*
X192361935Y-125180966D01*
X189484000Y-123825000D02*
X190839966Y-125180966D01*
X192361935Y-125180966D02*
X192792987Y-125180966D01*
X187531273Y-137747273D02*
X187537310Y-137747273D01*
X186817000Y-137033000D02*
X187531273Y-137747273D01*
X184912000Y-137414000D02*
X185549842Y-137414000D01*
X185549842Y-137414000D02*
X185865921Y-137730079D01*
X182499000Y-136271000D02*
X183769000Y-137541000D01*
X196977000Y-132461000D02*
X194945000Y-132461000D01*
X196977000Y-136906000D02*
X196977000Y-136017000D01*
X196215000Y-137795000D02*
X196977000Y-137795000D01*
X192786000Y-136652000D02*
X192786000Y-137668000D01*
X191897000Y-137668000D02*
X191897000Y-136652000D01*
X191008000Y-136652000D02*
X191008000Y-137668000D01*
X190119000Y-137668000D02*
X190119000Y-136652000D01*
X189230000Y-136652000D02*
X189230000Y-137668000D01*
X192151000Y-130175000D02*
X192786000Y-130175000D01*
X190581204Y-128778000D02*
X191532137Y-129728933D01*
X187960000Y-128778000D02*
X190581204Y-128778000D01*
X191532137Y-129728933D02*
X191532137Y-130159985D01*
X204089000Y-140970000D02*
X197131434Y-140970000D01*
X197131434Y-140970000D02*
X197106033Y-140995401D01*
X197106033Y-140995401D02*
X195884801Y-140995401D01*
X195884801Y-140995401D02*
X195224400Y-140335000D01*
X195224400Y-140335000D02*
X194310000Y-140335000D01*
X181229000Y-135128000D02*
X181229000Y-132461000D01*
X181229000Y-132461000D02*
X181610000Y-132080000D01*
X181610000Y-132080000D02*
X183388006Y-132080000D01*
X187198000Y-136144000D02*
X187800043Y-136144000D01*
X176839403Y-121512885D02*
X176408351Y-121512885D01*
X179324000Y-121920000D02*
X178916885Y-121512885D01*
X178916885Y-121512885D02*
X176839403Y-121512885D01*
X178562000Y-123952000D02*
X178891899Y-123622101D01*
X178891899Y-123622101D02*
X180213975Y-123622101D01*
X180213975Y-123622101D02*
X180645027Y-123622101D01*
X179324000Y-121920000D02*
X179963621Y-122559621D01*
X179963621Y-122559621D02*
X180306958Y-122559621D01*
X169418000Y-123444000D02*
X169976805Y-122885195D01*
X169976805Y-122885195D02*
X169976805Y-120650035D01*
X169976805Y-120650035D02*
X169773578Y-120446808D01*
X169773578Y-120446808D02*
X169468779Y-120142009D01*
X191262000Y-119888000D02*
X193802000Y-119888000D01*
X193802000Y-119888000D02*
X193929000Y-119761000D01*
X191389000Y-121920000D02*
X191389000Y-121158000D01*
X191389000Y-121158000D02*
X191135000Y-120904000D01*
X189484000Y-122301000D02*
X189992000Y-122301000D01*
X189992000Y-122301000D02*
X190373000Y-121920000D01*
X195199000Y-126238000D02*
X193294000Y-124333000D01*
X193294000Y-124333000D02*
X192786000Y-124333000D01*
X195580000Y-124587000D02*
X195580000Y-125603000D01*
X194056000Y-121793000D02*
X195580000Y-121793000D01*
X195580000Y-120777000D02*
X194056000Y-120777000D01*
X193929000Y-119761000D02*
X195580000Y-119761000D01*
X157988000Y-116078000D02*
X155702000Y-116078000D01*
X155702000Y-116078000D02*
X153924000Y-117856000D01*
X155448000Y-116332000D02*
X156718000Y-116332000D01*
X156718000Y-116332000D02*
X156972000Y-116078000D01*
X155448000Y-125476000D02*
X156464000Y-125476000D01*
X156464000Y-125476000D02*
X156718000Y-125730000D01*
X148336000Y-116840000D02*
X148336000Y-121412000D01*
X148336000Y-121412000D02*
X149098000Y-122174000D01*
X153416000Y-116078000D02*
X150876000Y-116078000D01*
X150876000Y-116078000D02*
X150622000Y-116332000D01*
X141732000Y-135128000D02*
X143256000Y-135128000D01*
X143256000Y-135128000D02*
X143510000Y-134874000D01*
X142240000Y-139192000D02*
X141732000Y-138684000D01*
X141732000Y-138684000D02*
X141732000Y-136906000D01*
X148336000Y-141478000D02*
X146812000Y-139954000D01*
X146812000Y-139954000D02*
X143510000Y-139954000D01*
X152400000Y-141732000D02*
X149606000Y-141732000D01*
X159766000Y-141732000D02*
X155956000Y-141732000D01*
X167386000Y-141732000D02*
X163576000Y-141732000D01*
X179070000Y-137414000D02*
X178054000Y-136398000D01*
X181864000Y-140208000D02*
X180594000Y-138938000D01*
X180594000Y-138938000D02*
X180340000Y-138938000D01*
X180848000Y-141732000D02*
X180848000Y-140462000D01*
X180848000Y-140462000D02*
X180594000Y-140208000D01*
X174244000Y-140970000D02*
X174752000Y-140970000D01*
X174752000Y-140970000D02*
X175260000Y-141478000D01*
X171196000Y-140716000D02*
X171704000Y-140716000D01*
X171704000Y-140716000D02*
X172466000Y-141478000D01*
X168706812Y-139700000D02*
X168706812Y-140258812D01*
X168706812Y-140258812D02*
X169418000Y-140970000D01*
X168706812Y-137921987D02*
X168706812Y-139700000D01*
X168960799Y-137668000D02*
X168706812Y-137921987D01*
X160655000Y-119380000D02*
X157988004Y-119380000D01*
X157988004Y-119380000D02*
X157734004Y-119126000D01*
X168960799Y-137668000D02*
X168960799Y-135913363D01*
X172466000Y-137668000D02*
X168960799Y-137668000D01*
X168960799Y-135913363D02*
X168226235Y-135178799D01*
X168226235Y-135178799D02*
X168046409Y-135178799D01*
X168046409Y-135178799D02*
X167741610Y-134874000D01*
X178562000Y-117678221D02*
X177661667Y-117678221D01*
X179578000Y-118618000D02*
X179578000Y-117678221D01*
X159004000Y-125476000D02*
X160274000Y-124206000D01*
X158496000Y-125476000D02*
X159004000Y-125476000D01*
X181353375Y-122171375D02*
X183464221Y-122171375D01*
X179832000Y-120650000D02*
X181353375Y-122171375D01*
X184404000Y-131572000D02*
X183896000Y-132080000D01*
X183896000Y-132080000D02*
X183388006Y-132080000D01*
X185953410Y-125476000D02*
X184658000Y-124180590D01*
X186436000Y-125476000D02*
X185953410Y-125476000D01*
X180594000Y-119634000D02*
X180594000Y-119888000D01*
X180594000Y-119888000D02*
X179832000Y-120650000D01*
X179578000Y-118618000D02*
X179578000Y-119634000D01*
X185166000Y-136398000D02*
X184150000Y-136398000D01*
X184912000Y-132334000D02*
X184912000Y-132080000D01*
X184912000Y-132080000D02*
X184404000Y-131572000D01*
X157480000Y-134874000D02*
X153924000Y-134874000D01*
X153924000Y-134874000D02*
X153670000Y-134620000D01*
X152146000Y-135636000D02*
X152654000Y-135636000D01*
X152654000Y-135636000D02*
X153670000Y-134620000D01*
X144780000Y-133350000D02*
X145313401Y-133883401D01*
X145313401Y-133883401D02*
X147124419Y-133883401D01*
X147124419Y-133883401D02*
X148590000Y-132417820D01*
X148590000Y-132417820D02*
X148590000Y-132080000D01*
X160655000Y-119380000D02*
X163405820Y-119380000D01*
X163405820Y-119380000D02*
X164846000Y-117939820D01*
X164846000Y-117939820D02*
X164846000Y-117602000D01*
X149885424Y-125755418D02*
X150114006Y-125984000D01*
X151231637Y-123367787D02*
X149885424Y-124714000D01*
X162282335Y-124017526D02*
X161632596Y-123367787D01*
X149885424Y-124714000D02*
X149885424Y-125755418D01*
X161632596Y-123367787D02*
X151231637Y-123367787D01*
D18*
X145415000Y-125730000D02*
X145415000Y-132715000D01*
X145415000Y-132715000D02*
X146050000Y-133350000D01*
D16*
X183896000Y-124180590D02*
X183896000Y-125243778D01*
X183896000Y-125243778D02*
X184434447Y-125782225D01*
X190659014Y-127435187D02*
X190659014Y-126840986D01*
X190659014Y-126840986D02*
X191261345Y-126238655D01*
X191261345Y-126238655D02*
X192370634Y-126238655D01*
X192370634Y-126238655D02*
X192675433Y-125933856D01*
X190754000Y-125984000D02*
X190119000Y-126619000D01*
X190119000Y-126619000D02*
X190119000Y-127765724D01*
X190119000Y-127765724D02*
X190541334Y-128188058D01*
X192913000Y-132715000D02*
X190882863Y-130684863D01*
X190882863Y-130684863D02*
X190680352Y-130684863D01*
X189738000Y-132842000D02*
X189738000Y-131445000D01*
X189738000Y-131445000D02*
X189865000Y-131318000D01*
X156082996Y-137160000D02*
X157937201Y-135305795D01*
X152654000Y-137160000D02*
X156082996Y-137160000D01*
X157937201Y-135305795D02*
X158242000Y-135000996D01*
X152654000Y-139700000D02*
X152654000Y-137160000D01*
X162560066Y-133249450D02*
X161037126Y-134772390D01*
X162560066Y-132542988D02*
X162560066Y-133249450D01*
X164260038Y-122068602D02*
X164260038Y-122659495D01*
X162206436Y-120015000D02*
X164260038Y-122068602D01*
X161135058Y-120015000D02*
X162206436Y-120015000D01*
X167386000Y-117602000D02*
X167386000Y-117939820D01*
D18*
X153162000Y-126238000D02*
X153162000Y-128156210D01*
X153162000Y-128156210D02*
X157085790Y-132080000D01*
X148590000Y-128905000D02*
X148590000Y-128567180D01*
X148590000Y-128567180D02*
X150919180Y-126238000D01*
X150919180Y-126238000D02*
X152730948Y-126238000D01*
X152730948Y-126238000D02*
X153162000Y-126238000D01*
D17*
X160387790Y-135382000D02*
X165137569Y-140131779D01*
X165137569Y-140131779D02*
X166451564Y-140131779D01*
X170716894Y-136906000D02*
X174243982Y-136906000D01*
X168910000Y-135099106D02*
X170716894Y-136906000D01*
X168910000Y-134112000D02*
X168910000Y-135099106D01*
X168914913Y-134116913D02*
X170434000Y-134116913D01*
X168910000Y-134112000D02*
X168914913Y-134116913D01*
X167386000Y-134112000D02*
X168910000Y-134112000D01*
X166878000Y-134620000D02*
X167386000Y-134112000D01*
X165232880Y-134620000D02*
X166878000Y-134620000D01*
X164470880Y-135382000D02*
X165232880Y-134620000D01*
X160387790Y-135382000D02*
X164470880Y-135382000D01*
X157085790Y-132080000D02*
X160387790Y-135382000D01*
X172729289Y-120130711D02*
X172729289Y-123545610D01*
X174115000Y-118745000D02*
X172729289Y-120130711D01*
X170815000Y-135665000D02*
X171545732Y-134934268D01*
X171545732Y-134934268D02*
X172466132Y-134934268D01*
D16*
X186027163Y-138396951D02*
X185994113Y-138430001D01*
X195630052Y-138811000D02*
X189875821Y-138811000D01*
X196850000Y-140030948D02*
X195630052Y-138811000D01*
X185994113Y-138430001D02*
X185811500Y-138430001D01*
X178308000Y-133096000D02*
X178308000Y-131318000D01*
X188568112Y-138473161D02*
X187429045Y-138473160D01*
X196850000Y-140462000D02*
X196850000Y-140030948D01*
X189875821Y-138811000D02*
X189766580Y-138701759D01*
X188796710Y-138701759D02*
X188568112Y-138473161D01*
X189766580Y-138701759D02*
X188796710Y-138701759D01*
X187429045Y-138473160D02*
X187352836Y-138396951D01*
X187352836Y-138396951D02*
X186027163Y-138396951D01*
X185811500Y-138430001D02*
X185473649Y-138092150D01*
X185473649Y-138092150D02*
X183304149Y-138092149D01*
X183304149Y-138092149D02*
X178308000Y-133096000D01*
X164094967Y-126527364D02*
X164399766Y-126222565D01*
X168402012Y-125640841D02*
X168706811Y-125945640D01*
X167383966Y-125196598D02*
X167957769Y-125196598D01*
X166357999Y-126222565D02*
X167383966Y-125196598D01*
X164399766Y-126222565D02*
X166357999Y-126222565D01*
X167957769Y-125196598D02*
X168402012Y-125640841D01*
X172529695Y-127970817D02*
X172473312Y-127914434D01*
X169595052Y-127939843D02*
X169164000Y-127939843D01*
X177800000Y-128524000D02*
X177246817Y-127970817D01*
X172473312Y-127914434D02*
X169620461Y-127914434D01*
X169620461Y-127914434D02*
X169595052Y-127939843D01*
X177246817Y-127970817D02*
X172529695Y-127970817D01*
X156972000Y-127254000D02*
X157276799Y-126949201D01*
X157276799Y-126949201D02*
X158800799Y-126949201D01*
X158800799Y-126949201D02*
X159283402Y-126466598D01*
X159283402Y-126466598D02*
X161544000Y-124206000D01*
X161112948Y-126746000D02*
X161544000Y-126746000D01*
X160528000Y-126746000D02*
X161112948Y-126746000D01*
X157096963Y-128989003D02*
X158284997Y-128989003D01*
X156667201Y-129418765D02*
X157096963Y-128989003D01*
X156667201Y-129997201D02*
X156667201Y-129418765D01*
X156972000Y-130302000D02*
X156667201Y-129997201D01*
X158284997Y-128989003D02*
X160528000Y-126746000D01*
X162976722Y-125318549D02*
X164571893Y-123723378D01*
X161201106Y-125318549D02*
X162976722Y-125318549D01*
X159666964Y-126852691D02*
X161201106Y-125318549D01*
D17*
X175260000Y-117678221D02*
X175006000Y-117932221D01*
X175019801Y-118310695D02*
X175019801Y-119179305D01*
X175019801Y-119179305D02*
X175006000Y-119193106D01*
X175006000Y-119193106D02*
X175006000Y-121696894D01*
X175019801Y-122579305D02*
X175006000Y-122593106D01*
X175006000Y-117932221D02*
X175006000Y-118296894D01*
X175006000Y-118296894D02*
X175019801Y-118310695D01*
X175006000Y-121696894D02*
X175019801Y-121710695D01*
X175019801Y-121710695D02*
X175019801Y-122579305D01*
X175006000Y-122593106D02*
X175006000Y-122772914D01*
X175006000Y-122772914D02*
X174119503Y-123659411D01*
X172027352Y-133502553D02*
X171218557Y-134311348D01*
X174685109Y-133502553D02*
X172027352Y-133502553D01*
X174964397Y-133781841D02*
X174685109Y-133502553D01*
X175395449Y-133781841D02*
X174964397Y-133781841D01*
X178308000Y-138684000D02*
X178308000Y-138252948D01*
X178308000Y-138252948D02*
X174227315Y-134172263D01*
X174227315Y-134172263D02*
X172469399Y-134172263D01*
D16*
X172101395Y-131157898D02*
X172058252Y-131114755D01*
X167291043Y-131590014D02*
X165552108Y-129851079D01*
X174752000Y-129971056D02*
X173565158Y-131157898D01*
X170356751Y-131754637D02*
X167949067Y-131754637D01*
X172058252Y-131114755D02*
X170996634Y-131114755D01*
X173565158Y-131157898D02*
X172101395Y-131157898D01*
X174752000Y-129540004D02*
X174752000Y-129971056D01*
X167949067Y-131754637D02*
X167784444Y-131590014D01*
X167784444Y-131590014D02*
X167291043Y-131590014D01*
X170996634Y-131114755D02*
X170356751Y-131754637D01*
X167791725Y-130735161D02*
X167661323Y-130735161D01*
X169974463Y-130916425D02*
X169543411Y-130916425D01*
X169543411Y-130916425D02*
X169370434Y-131089402D01*
X168145966Y-131089402D02*
X167791725Y-130735161D01*
X169370434Y-131089402D02*
X168145966Y-131089402D01*
X172379406Y-130319685D02*
X172810458Y-130319685D01*
X172371690Y-130327401D02*
X172379406Y-130319685D01*
X169061615Y-130327401D02*
X172371690Y-130327401D01*
X168401964Y-130556000D02*
X168833016Y-130556000D01*
X168833016Y-130556000D02*
X169061615Y-130327401D01*
X169804797Y-129652731D02*
X167767392Y-129652731D01*
X167767392Y-129652731D02*
X167760835Y-129659288D01*
X167894000Y-128524000D02*
X168148000Y-128778000D01*
X168148000Y-128778000D02*
X168656000Y-128778000D01*
X168656000Y-128778000D02*
X168775275Y-128897275D01*
X168775275Y-128897275D02*
X171868494Y-128897275D01*
X171868494Y-128897275D02*
X172186590Y-129215371D01*
X178877945Y-125478510D02*
X178291222Y-124891787D01*
X164407706Y-125425189D02*
X163561565Y-126271330D01*
X163375762Y-127481674D02*
X160608229Y-127481674D01*
X163561565Y-126271330D02*
X163561565Y-127295871D01*
X163561565Y-127295871D02*
X163375762Y-127481674D01*
X165965649Y-124891787D02*
X165432247Y-125425189D01*
X165432247Y-125425189D02*
X164407706Y-125425189D01*
X178291222Y-124891787D02*
X165965649Y-124891787D01*
X160158534Y-128836421D02*
X160277900Y-128955787D01*
X172655951Y-127666006D02*
X177741450Y-127666006D01*
X158960485Y-129522404D02*
X159646468Y-128836421D01*
X177937952Y-127862508D02*
X178369004Y-127862508D01*
X177741450Y-127666006D02*
X177937952Y-127862508D01*
X165772015Y-127393483D02*
X172383428Y-127393483D01*
X172383428Y-127393483D02*
X172655951Y-127666006D01*
X164260578Y-128904920D02*
X165772015Y-127393483D01*
X161431359Y-128904920D02*
X164260578Y-128904920D01*
X161380492Y-128955787D02*
X161431359Y-128904920D01*
X160277900Y-128955787D02*
X161380492Y-128955787D01*
X159646468Y-128836421D02*
X160158534Y-128836421D01*
X157352996Y-129522404D02*
X158960485Y-129522404D01*
X163294201Y-128117566D02*
X161459165Y-128117566D01*
X164627906Y-126783861D02*
X163294201Y-128117566D01*
X176474127Y-127025401D02*
X172877480Y-127025401D01*
X172635940Y-126783861D02*
X164627906Y-126783861D01*
X161459165Y-128117566D02*
X161028113Y-128117566D01*
X172877480Y-127025401D02*
X172635940Y-126783861D01*
X176784000Y-126715528D02*
X176474127Y-127025401D01*
X177689003Y-126998718D02*
X177357509Y-127330212D01*
X160316467Y-128303011D02*
X159885415Y-128303011D01*
X160664432Y-128650976D02*
X160316467Y-128303011D01*
X161305103Y-128600109D02*
X161254236Y-128650976D01*
X161254236Y-128650976D02*
X160664432Y-128650976D01*
X164134321Y-128600109D02*
X161305103Y-128600109D01*
X172751224Y-127330212D02*
X172509684Y-127088672D01*
X172509684Y-127088672D02*
X165645758Y-127088672D01*
X165645758Y-127088672D02*
X164134321Y-128600109D01*
X177357509Y-127330212D02*
X172751224Y-127330212D01*
X161397524Y-129369822D02*
X159902501Y-129369822D01*
X166085509Y-129595046D02*
X165497061Y-129006598D01*
X164386833Y-129209731D02*
X161557615Y-129209731D01*
X161557615Y-129209731D02*
X161397524Y-129369822D01*
X164589966Y-129006598D02*
X164386833Y-129209731D01*
X165497061Y-129006598D02*
X164589966Y-129006598D01*
X166085509Y-129948753D02*
X166085509Y-129595046D01*
X167894060Y-131268563D02*
X167405319Y-131268563D01*
X173343860Y-130575719D02*
X173066492Y-130853087D01*
X174578700Y-128828811D02*
X173343860Y-130063651D01*
X178036229Y-129057401D02*
X177546000Y-129057401D01*
X170230496Y-131449826D02*
X168075323Y-131449826D01*
X170870378Y-130809944D02*
X170230496Y-131449826D01*
X172227651Y-130853087D02*
X172184508Y-130809944D01*
X173343860Y-130063651D02*
X173343860Y-130575719D01*
X177546000Y-129057401D02*
X177317410Y-128828811D01*
X180763292Y-125899286D02*
X180763292Y-126330338D01*
X177317410Y-128828811D02*
X174578700Y-128828811D01*
X172184508Y-130809944D02*
X170870378Y-130809944D01*
X167405319Y-131268563D02*
X166085509Y-129948753D01*
X180763292Y-126330338D02*
X178036229Y-129057401D01*
X173066492Y-130853087D02*
X172227651Y-130853087D01*
X168075323Y-131449826D02*
X167894060Y-131268563D01*
X166928809Y-140665189D02*
X167640000Y-139953998D01*
X150304786Y-140665189D02*
X166928809Y-140665189D01*
X146469593Y-136829996D02*
X150304786Y-140665189D01*
X146469593Y-136398944D02*
X146469593Y-136829996D01*
X165714681Y-133705591D02*
X164343090Y-132334000D01*
X166086013Y-133705591D02*
X165714681Y-133705591D01*
X166390812Y-134010390D02*
X166086013Y-133705591D01*
X168173402Y-139548350D02*
X167817052Y-139192000D01*
X167667454Y-140970000D02*
X168173402Y-140464052D01*
X145542000Y-136906000D02*
X149606000Y-140970000D01*
X149606000Y-140970000D02*
X167667454Y-140970000D01*
X168173402Y-140464052D02*
X168173402Y-139548350D01*
X167817052Y-139192000D02*
X167386000Y-139192000D01*
X171788556Y-128473244D02*
X168913768Y-128473244D01*
X172238056Y-128454796D02*
X171807004Y-128454796D01*
X168672208Y-128231684D02*
X168367409Y-127926885D01*
X168913768Y-128473244D02*
X168672208Y-128231684D01*
X171807004Y-128454796D02*
X171788556Y-128473244D01*
X164793112Y-130276548D02*
X165230404Y-130276548D01*
X164335917Y-129819353D02*
X164793112Y-130276548D01*
X176081792Y-131462709D02*
X182075151Y-125469350D01*
X182075151Y-124276504D02*
X182075151Y-123845452D01*
X166848681Y-131894825D02*
X167658188Y-131894825D01*
X167658188Y-131894825D02*
X167822811Y-132059448D01*
X163253364Y-129819353D02*
X164335917Y-129819353D01*
X162773674Y-130299043D02*
X163253364Y-129819353D01*
X170483007Y-132059448D02*
X171079746Y-131462709D01*
X167822811Y-132059448D02*
X170483007Y-132059448D01*
X165230404Y-130276548D02*
X166848681Y-131894825D01*
X171079746Y-131462709D02*
X176081792Y-131462709D01*
X182075151Y-125469350D02*
X182075151Y-124276504D01*
X165104148Y-130581358D02*
X166722426Y-132199636D01*
X164193446Y-130581358D02*
X165104148Y-130581358D01*
X170609263Y-132364259D02*
X171206002Y-131767520D01*
X176208048Y-131767520D02*
X182823630Y-125151938D01*
X182823630Y-125151938D02*
X182823630Y-124419479D01*
X166722426Y-132199636D02*
X167531932Y-132199636D01*
X163533791Y-130352755D02*
X163964843Y-130352755D01*
X171206002Y-131767520D02*
X176208048Y-131767520D01*
X163964843Y-130352755D02*
X164193446Y-130581358D01*
X182823630Y-124419479D02*
X182823630Y-123988427D01*
X167696555Y-132364259D02*
X170609263Y-132364259D01*
X167531932Y-132199636D02*
X167696555Y-132364259D01*
X181225042Y-124586977D02*
X181276142Y-124535877D01*
X181276142Y-124535877D02*
X181276142Y-124104825D01*
X181101977Y-124586977D02*
X181225042Y-124586977D01*
X170815023Y-124586977D02*
X181101977Y-124586977D01*
X181101977Y-124586977D02*
X181102000Y-124587000D01*
X183159399Y-118567189D02*
X183083189Y-118567189D01*
X183083189Y-118567189D02*
X182626000Y-118110000D01*
X183205119Y-118803421D02*
X183159399Y-118757701D01*
X183159399Y-118757701D02*
X183159399Y-118567189D01*
X185094881Y-118803421D02*
X183205119Y-118803421D01*
X185140601Y-118757701D02*
X185094881Y-118803421D01*
X185140601Y-118109999D02*
X185140601Y-118757701D01*
X185775600Y-117475000D02*
X185140601Y-118109999D01*
X186690000Y-117475000D02*
X185775600Y-117475000D01*
X170053000Y-124586977D02*
X170815023Y-124586977D01*
X165839393Y-124586977D02*
X170053000Y-124586977D01*
X164947622Y-125120378D02*
X165305992Y-125120378D01*
X165305992Y-125120378D02*
X165839393Y-124586977D01*
X164224254Y-125120378D02*
X163028155Y-126316477D01*
X164947622Y-125120378D02*
X164224254Y-125120378D01*
X163028155Y-126316477D02*
X163028155Y-126747529D01*
X164315860Y-123189977D02*
X164845977Y-123189977D01*
X178621676Y-123102890D02*
X180360612Y-123102890D01*
X180360612Y-123102890D02*
X180374803Y-123088699D01*
X180374803Y-123088699D02*
X180829945Y-123088699D01*
X164845977Y-123189977D02*
X165938167Y-124282167D01*
X163553837Y-123952000D02*
X164315860Y-123189977D01*
X163068000Y-123952000D02*
X163553837Y-123952000D01*
X177442399Y-124282167D02*
X178621676Y-123102890D01*
X165938167Y-124282167D02*
X177442399Y-124282167D01*
X180829945Y-123088699D02*
X181087204Y-122831440D01*
X184150000Y-117475000D02*
X183235600Y-117475000D01*
X189640324Y-139006570D02*
X190968754Y-140335000D01*
X187302790Y-138777970D02*
X188441857Y-138777971D01*
X187226581Y-138701761D02*
X187302790Y-138777970D01*
X170860930Y-132669070D02*
X171457669Y-132072331D01*
X186153420Y-138701760D02*
X187226581Y-138701761D01*
X185685246Y-138734812D02*
X186120368Y-138734812D01*
X185347394Y-138396960D02*
X185685246Y-138734812D01*
X183177892Y-138396959D02*
X185347394Y-138396960D01*
X167405676Y-132504447D02*
X167570299Y-132669070D01*
X164977891Y-130886168D02*
X166596170Y-132504447D01*
X171457669Y-132072331D02*
X176853264Y-132072331D01*
X161594755Y-130886165D02*
X164718802Y-130886165D01*
X160756590Y-130048000D02*
X161594755Y-130886165D01*
X188441857Y-138777971D02*
X188670456Y-139006570D01*
X164718802Y-130886165D02*
X164977891Y-130886168D01*
X190968754Y-140335000D02*
X191770000Y-140335000D01*
X188670456Y-139006570D02*
X189640324Y-139006570D01*
X186120368Y-138734812D02*
X186153420Y-138701760D01*
X167570299Y-132669070D02*
X170860930Y-132669070D01*
X176853264Y-132072331D02*
X183177892Y-138396959D01*
X166596170Y-132504447D02*
X167405676Y-132504447D01*
X164851635Y-131190979D02*
X161162979Y-131190979D01*
X188315600Y-139082780D02*
X187176534Y-139082780D01*
X186279676Y-139006570D02*
X186246624Y-139039622D01*
X166469914Y-132809258D02*
X164851635Y-131190979D01*
X183051635Y-138701769D02*
X176861616Y-132511750D01*
X185221137Y-138701769D02*
X183051635Y-138701769D01*
X160553402Y-130581402D02*
X160500556Y-130581402D01*
X171617191Y-132511750D02*
X171155060Y-132973881D01*
X160500556Y-130581402D02*
X160403686Y-130484532D01*
X185558990Y-139039622D02*
X185221137Y-138701769D01*
X161162979Y-131190979D02*
X160553402Y-130581402D01*
X187100324Y-139006570D02*
X186279676Y-139006570D01*
X187176534Y-139082780D02*
X187100324Y-139006570D01*
X167279420Y-132809258D02*
X166469914Y-132809258D01*
X176861616Y-132511750D02*
X171617191Y-132511750D01*
X160197052Y-130484532D02*
X159766000Y-130484532D01*
X189230000Y-139997180D02*
X188315600Y-139082780D01*
X160403686Y-130484532D02*
X160197052Y-130484532D01*
X189230000Y-140335000D02*
X189230000Y-139997180D01*
X186246624Y-139039622D02*
X185558990Y-139039622D01*
X167444043Y-132973881D02*
X167279420Y-132809258D01*
X171155060Y-132973881D02*
X167444043Y-132973881D01*
X182617646Y-139006579D02*
X176427628Y-132816561D01*
X167317787Y-133278692D02*
X167153164Y-133114069D01*
X186690000Y-140335000D02*
X186423302Y-140335000D01*
X167153164Y-133114069D02*
X166343658Y-133114069D01*
X164725379Y-131495790D02*
X160686099Y-131495789D01*
X171281316Y-133278692D02*
X167317787Y-133278692D01*
X176427628Y-132816561D02*
X171743447Y-132816561D01*
X171743447Y-132816561D02*
X171281316Y-133278692D01*
X160572776Y-131382466D02*
X160267977Y-131077667D01*
X166343658Y-133114069D02*
X164725379Y-131495790D01*
X160686099Y-131495789D02*
X160572776Y-131382466D01*
X186423302Y-140335000D02*
X185094881Y-139006579D01*
X185094881Y-139006579D02*
X182617646Y-139006579D01*
X171869703Y-133121372D02*
X171407572Y-133583503D01*
X176021972Y-133121372D02*
X171869703Y-133121372D01*
X160670530Y-132638811D02*
X159583063Y-131551344D01*
X183235600Y-140335000D02*
X176021972Y-133121372D01*
X166217404Y-133418880D02*
X164599123Y-131800599D01*
X167026908Y-133418880D02*
X166217404Y-133418880D01*
X167191531Y-133583503D02*
X167026908Y-133418880D01*
X161683429Y-132638811D02*
X160670530Y-132638811D01*
X171407572Y-133583503D02*
X167191531Y-133583503D01*
X184150000Y-140335000D02*
X183235600Y-140335000D01*
X162521642Y-131800598D02*
X161683429Y-132638811D01*
X164599123Y-131800599D02*
X162521642Y-131800598D01*
D18*
X153670000Y-132080000D02*
X153670000Y-131742180D01*
X153670000Y-131742180D02*
X151130000Y-129202180D01*
X151130000Y-129202180D02*
X151130000Y-128905000D01*
X149139531Y-136948289D02*
X147531711Y-136948289D01*
X153670000Y-132080000D02*
X153670000Y-132417820D01*
X153670000Y-132417820D02*
X149139531Y-136948289D01*
D19*
G36*
X160162123Y-116113716D02*
X159004000Y-116113716D01*
X158855341Y-116143286D01*
X158729314Y-116227494D01*
X158645106Y-116353521D01*
X158615536Y-116502180D01*
X158615536Y-118701820D01*
X158645106Y-118850479D01*
X158729314Y-118976506D01*
X158855341Y-119060714D01*
X159004000Y-119090284D01*
X160528000Y-119090284D01*
X160676659Y-119060714D01*
X160802686Y-118976506D01*
X160886894Y-118850479D01*
X160916464Y-118701820D01*
X160916464Y-116868057D01*
X161180742Y-116603779D01*
X161379621Y-116603779D01*
X161250006Y-116797762D01*
X161163000Y-117235169D01*
X161163000Y-117968831D01*
X161250006Y-118406238D01*
X161497777Y-118777054D01*
X161868593Y-119024825D01*
X162306000Y-119111831D01*
X162743407Y-119024825D01*
X163114223Y-118777054D01*
X163361994Y-118406238D01*
X163449000Y-117968831D01*
X163449000Y-118066820D01*
X163603941Y-118591761D01*
X163947974Y-119017450D01*
X164428723Y-119279080D01*
X164502930Y-119294040D01*
X164719000Y-119171540D01*
X164719000Y-117729000D01*
X163449000Y-117729000D01*
X163449000Y-117475000D01*
X164719000Y-117475000D01*
X164719000Y-117455000D01*
X164973000Y-117455000D01*
X164973000Y-117475000D01*
X166243000Y-117475000D01*
X166243000Y-117729000D01*
X164973000Y-117729000D01*
X164973000Y-119171540D01*
X165189070Y-119294040D01*
X165263277Y-119279080D01*
X165744026Y-119017450D01*
X166088059Y-118591761D01*
X166243000Y-118066820D01*
X166243000Y-117968831D01*
X166330006Y-118406238D01*
X166577777Y-118777054D01*
X166948593Y-119024825D01*
X167386000Y-119111831D01*
X167823407Y-119024825D01*
X167951438Y-118939277D01*
X169833830Y-118939277D01*
X169982864Y-119299966D01*
X170258583Y-119576166D01*
X170619011Y-119725829D01*
X171009277Y-119726170D01*
X171369966Y-119577136D01*
X171646166Y-119301417D01*
X171795829Y-118940989D01*
X171796170Y-118550723D01*
X171647136Y-118190034D01*
X171371417Y-117913834D01*
X171010989Y-117764171D01*
X170620723Y-117763830D01*
X170260034Y-117912864D01*
X169983834Y-118188583D01*
X169834171Y-118549011D01*
X169833830Y-118939277D01*
X167951438Y-118939277D01*
X168194223Y-118777054D01*
X168441994Y-118406238D01*
X168529000Y-117968831D01*
X168529000Y-117235169D01*
X168441994Y-116797762D01*
X168312379Y-116603779D01*
X182999536Y-116603780D01*
X182999536Y-117093429D01*
X182912311Y-117151711D01*
X182813202Y-117300037D01*
X182786538Y-117434087D01*
X182763013Y-117424319D01*
X182490184Y-117424081D01*
X182238033Y-117528268D01*
X182044946Y-117721018D01*
X181940319Y-117972987D01*
X181940081Y-118245816D01*
X182044268Y-118497967D01*
X182237018Y-118691054D01*
X182488987Y-118795681D01*
X182665257Y-118795835D01*
X182720840Y-118851418D01*
X182737001Y-118932664D01*
X182836110Y-119080990D01*
X182881830Y-119126710D01*
X183030156Y-119225819D01*
X183205119Y-119260621D01*
X185094881Y-119260621D01*
X185269844Y-119225819D01*
X185418170Y-119126710D01*
X185463890Y-119080990D01*
X185562999Y-118932664D01*
X185597801Y-118757701D01*
X185597801Y-118299377D01*
X185631340Y-118265838D01*
X185634006Y-118279238D01*
X185881777Y-118650054D01*
X186252593Y-118897825D01*
X186690000Y-118984831D01*
X187127407Y-118897825D01*
X187498223Y-118650054D01*
X187745994Y-118279238D01*
X187833000Y-117841831D01*
X187833000Y-117108169D01*
X187745994Y-116670762D01*
X187701238Y-116603780D01*
X188218762Y-116603780D01*
X188174006Y-116670762D01*
X188087000Y-117108169D01*
X188087000Y-117841831D01*
X188174006Y-118279238D01*
X188421777Y-118650054D01*
X188792593Y-118897825D01*
X189230000Y-118984831D01*
X189667407Y-118897825D01*
X190038223Y-118650054D01*
X190285994Y-118279238D01*
X190373000Y-117841831D01*
X190373000Y-117108169D01*
X190285994Y-116670762D01*
X190241238Y-116603780D01*
X190758762Y-116603780D01*
X190714006Y-116670762D01*
X190627000Y-117108169D01*
X190627000Y-117841831D01*
X190714006Y-118279238D01*
X190961777Y-118650054D01*
X191332593Y-118897825D01*
X191770000Y-118984831D01*
X192207407Y-118897825D01*
X192578223Y-118650054D01*
X192825994Y-118279238D01*
X192913000Y-117841831D01*
X192913000Y-117108169D01*
X192825994Y-116670762D01*
X192781238Y-116603780D01*
X193022258Y-116603780D01*
X193226669Y-116808191D01*
X193167000Y-117108169D01*
X193167000Y-117841831D01*
X193254006Y-118279238D01*
X193501777Y-118650054D01*
X193872593Y-118897825D01*
X194310000Y-118984831D01*
X194747407Y-118897825D01*
X195118223Y-118650054D01*
X195365994Y-118279238D01*
X195453000Y-117841831D01*
X195453000Y-119380000D01*
X195462667Y-119428601D01*
X195490197Y-119469803D01*
X195531399Y-119497333D01*
X195580000Y-119507000D01*
X196215000Y-119507000D01*
X196215000Y-126746000D01*
X195580000Y-126746000D01*
X195531399Y-126755667D01*
X195490197Y-126783197D01*
X195462667Y-126824399D01*
X195453000Y-126873000D01*
X195453000Y-132080000D01*
X195462667Y-132128601D01*
X195490197Y-132169803D01*
X195531399Y-132197333D01*
X195580000Y-132207000D01*
X197231000Y-132207000D01*
X197231000Y-138049000D01*
X195580000Y-138049000D01*
X195531399Y-138058667D01*
X195490197Y-138086197D01*
X195462667Y-138127399D01*
X195453000Y-138176000D01*
X195453000Y-138353800D01*
X190052948Y-138353800D01*
X189941543Y-138279361D01*
X189766580Y-138244559D01*
X188986088Y-138244559D01*
X188891401Y-138149872D01*
X188743075Y-138050763D01*
X188568112Y-138015961D01*
X187589769Y-138015960D01*
X187527799Y-137974553D01*
X187352836Y-137939751D01*
X186027163Y-137939751D01*
X185977673Y-137949595D01*
X185796938Y-137768861D01*
X185648612Y-137669752D01*
X185473649Y-137634950D01*
X183493527Y-137634949D01*
X178765200Y-132906622D01*
X178765200Y-131830620D01*
X178889054Y-131706982D01*
X178993681Y-131455013D01*
X178993919Y-131182184D01*
X178889732Y-130930033D01*
X178696982Y-130736946D01*
X178445013Y-130632319D01*
X178172184Y-130632081D01*
X177920033Y-130736268D01*
X177726946Y-130929018D01*
X177622319Y-131180987D01*
X177622081Y-131453816D01*
X177726268Y-131705967D01*
X177850800Y-131830717D01*
X177850800Y-132423289D01*
X177176553Y-131749042D01*
X177028227Y-131649933D01*
X176981506Y-131640640D01*
X182905399Y-125716747D01*
X182905399Y-128244599D01*
X182940201Y-128419562D01*
X183039310Y-128567888D01*
X183210234Y-128738812D01*
X183210081Y-128913816D01*
X183314268Y-129165967D01*
X183507018Y-129359054D01*
X183758987Y-129463681D01*
X183935257Y-129463835D01*
X184868112Y-130396690D01*
X185016438Y-130495799D01*
X185191401Y-130530601D01*
X190001833Y-130530601D01*
X189994671Y-130547850D01*
X189994597Y-130632313D01*
X189729184Y-130632081D01*
X189477033Y-130736268D01*
X189283946Y-130929018D01*
X189179319Y-131180987D01*
X189179081Y-131453816D01*
X189280800Y-131699994D01*
X189280800Y-132329380D01*
X189156946Y-132453018D01*
X189052319Y-132704987D01*
X189052081Y-132977816D01*
X189156268Y-133229967D01*
X189349018Y-133423054D01*
X189600987Y-133527681D01*
X189873816Y-133527919D01*
X190125967Y-133423732D01*
X190319054Y-133230982D01*
X190423681Y-132979013D01*
X190423919Y-132706184D01*
X190319732Y-132454033D01*
X190195200Y-132329283D01*
X190195200Y-131923601D01*
X190252967Y-131899732D01*
X190446054Y-131706982D01*
X190550681Y-131455013D01*
X190550755Y-131370550D01*
X190816168Y-131370782D01*
X190891201Y-131339779D01*
X192227234Y-132675812D01*
X192227081Y-132850816D01*
X192331268Y-133102967D01*
X192524018Y-133296054D01*
X192775987Y-133400681D01*
X193048816Y-133400919D01*
X193300967Y-133296732D01*
X193494054Y-133103982D01*
X193598681Y-132852013D01*
X193598919Y-132579184D01*
X193494732Y-132327033D01*
X193301982Y-132133946D01*
X193050013Y-132029319D01*
X192873743Y-132029165D01*
X191347010Y-130502432D01*
X191262084Y-130296896D01*
X191157320Y-130191948D01*
X191218619Y-130130756D01*
X191323246Y-129878787D01*
X191323484Y-129605958D01*
X191219297Y-129353807D01*
X191026547Y-129160720D01*
X190774578Y-129056093D01*
X190501749Y-129055855D01*
X190249598Y-129160042D01*
X190056511Y-129352792D01*
X189951884Y-129604761D01*
X189951874Y-129616201D01*
X185380779Y-129616201D01*
X184581766Y-128817188D01*
X184581835Y-128738743D01*
X186701578Y-126619000D01*
X189661800Y-126619000D01*
X189661800Y-127765724D01*
X189696602Y-127940687D01*
X189795711Y-128089013D01*
X189855568Y-128148870D01*
X189855415Y-128323874D01*
X189959602Y-128576025D01*
X190152352Y-128769112D01*
X190404321Y-128873739D01*
X190677150Y-128873977D01*
X190929301Y-128769790D01*
X191122388Y-128577040D01*
X191227015Y-128325071D01*
X191227253Y-128052242D01*
X191164277Y-127899828D01*
X191240068Y-127824169D01*
X191344695Y-127572200D01*
X191344933Y-127299371D01*
X191240746Y-127047220D01*
X191170114Y-126976464D01*
X191450723Y-126695855D01*
X192370634Y-126695855D01*
X192545597Y-126661053D01*
X192607639Y-126619597D01*
X192811249Y-126619775D01*
X193063400Y-126515588D01*
X193256487Y-126322838D01*
X193361114Y-126070869D01*
X193361352Y-125798040D01*
X193257165Y-125545889D01*
X193064415Y-125352802D01*
X192812446Y-125248175D01*
X192539617Y-125247937D01*
X192287466Y-125352124D01*
X192094379Y-125544874D01*
X191996142Y-125781455D01*
X191412347Y-125781455D01*
X191335732Y-125596033D01*
X191142982Y-125402946D01*
X190891013Y-125298319D01*
X190618184Y-125298081D01*
X190366033Y-125402268D01*
X190172946Y-125595018D01*
X190068319Y-125846987D01*
X190068165Y-126023257D01*
X189795711Y-126295711D01*
X189696602Y-126444037D01*
X189661800Y-126619000D01*
X186701578Y-126619000D01*
X187290289Y-126030289D01*
X187317008Y-126057054D01*
X187568977Y-126161681D01*
X187841806Y-126161919D01*
X188093957Y-126057732D01*
X188287044Y-125864982D01*
X188391671Y-125613013D01*
X188391909Y-125340184D01*
X188287722Y-125088033D01*
X188163190Y-124963283D01*
X188163190Y-124713990D01*
X188128388Y-124539027D01*
X188029279Y-124390701D01*
X187883766Y-124245188D01*
X187883919Y-124070184D01*
X187779732Y-123818033D01*
X187655200Y-123693283D01*
X187655200Y-122273735D01*
X188231700Y-121697235D01*
X188406704Y-121697388D01*
X188658855Y-121593201D01*
X188851942Y-121400451D01*
X188956569Y-121148482D01*
X188956807Y-120875653D01*
X188852620Y-120623502D01*
X188659870Y-120430415D01*
X188407901Y-120325788D01*
X188135072Y-120325550D01*
X187882921Y-120429737D01*
X187689834Y-120622487D01*
X187585207Y-120874456D01*
X187585053Y-121050726D01*
X186874711Y-121761068D01*
X186775602Y-121909394D01*
X186740800Y-122084357D01*
X186740800Y-122224800D01*
X184605156Y-122224800D01*
X184430193Y-122259602D01*
X184281867Y-122358711D01*
X183222900Y-123417678D01*
X183212612Y-123407373D01*
X182960643Y-123302746D01*
X182687814Y-123302508D01*
X182556387Y-123356813D01*
X182464133Y-123264398D01*
X182212164Y-123159771D01*
X181939335Y-123159533D01*
X181687184Y-123263720D01*
X181496726Y-123453846D01*
X181436878Y-123428995D01*
X181475171Y-123413172D01*
X181668258Y-123220422D01*
X181772885Y-122968453D01*
X181773123Y-122695624D01*
X181668936Y-122443473D01*
X181476186Y-122250386D01*
X181224217Y-122145759D01*
X180951388Y-122145521D01*
X180699237Y-122249708D01*
X180506150Y-122442458D01*
X180427653Y-122631499D01*
X180374803Y-122631499D01*
X180303459Y-122645690D01*
X178621676Y-122645690D01*
X178446713Y-122680492D01*
X178298387Y-122779600D01*
X177253021Y-123824967D01*
X174793332Y-123824967D01*
X174805184Y-123796424D01*
X174805244Y-123728012D01*
X175383171Y-123150085D01*
X175498797Y-122977037D01*
X175539400Y-122772914D01*
X175539400Y-122648690D01*
X175553202Y-122579305D01*
X175553201Y-122579300D01*
X175553201Y-121710700D01*
X175553202Y-121710695D01*
X175539400Y-121641310D01*
X175539400Y-119248690D01*
X175553202Y-119179305D01*
X175553201Y-119179300D01*
X175553201Y-118310700D01*
X175553202Y-118310695D01*
X175551072Y-118299989D01*
X175647967Y-118259953D01*
X175841054Y-118067203D01*
X175945681Y-117815234D01*
X175945919Y-117542405D01*
X175841732Y-117290254D01*
X175648982Y-117097167D01*
X175397013Y-116992540D01*
X175124184Y-116992302D01*
X174872033Y-117096489D01*
X174678946Y-117289239D01*
X174574319Y-117541208D01*
X174574236Y-117636755D01*
X174513203Y-117728098D01*
X174491147Y-117838979D01*
X174310989Y-117764171D01*
X173920723Y-117763830D01*
X173560034Y-117912864D01*
X173283834Y-118188583D01*
X173134171Y-118549011D01*
X173133830Y-118939277D01*
X173143347Y-118962311D01*
X172352118Y-119753540D01*
X172236492Y-119926588D01*
X172195889Y-120130711D01*
X172195889Y-123109057D01*
X172148235Y-123156628D01*
X172043608Y-123408597D01*
X172043370Y-123681426D01*
X172102680Y-123824967D01*
X166127545Y-123824967D01*
X165196615Y-122894037D01*
X168325948Y-122894037D01*
X168430135Y-123146188D01*
X168622885Y-123339275D01*
X168874854Y-123443902D01*
X169147683Y-123444140D01*
X169399834Y-123339953D01*
X169592921Y-123147203D01*
X169697548Y-122895234D01*
X169697702Y-122718964D01*
X169714548Y-122702118D01*
X169813657Y-122553792D01*
X169816091Y-122541557D01*
X169848459Y-122378829D01*
X169848459Y-122374682D01*
X169982864Y-122699966D01*
X170258583Y-122976166D01*
X170619011Y-123125829D01*
X171009277Y-123126170D01*
X171369966Y-122977136D01*
X171646166Y-122701417D01*
X171795829Y-122340989D01*
X171796170Y-121950723D01*
X171647136Y-121590034D01*
X171371417Y-121313834D01*
X171010989Y-121164171D01*
X170620723Y-121163830D01*
X170260034Y-121312864D01*
X169983834Y-121588583D01*
X169848459Y-121914602D01*
X169848459Y-121598066D01*
X169972313Y-121474428D01*
X170076940Y-121222459D01*
X170077178Y-120949630D01*
X169972991Y-120697479D01*
X169780241Y-120504392D01*
X169528272Y-120399765D01*
X169255443Y-120399527D01*
X169003292Y-120503714D01*
X168810205Y-120696464D01*
X168705578Y-120948433D01*
X168705340Y-121221262D01*
X168809527Y-121473413D01*
X168934059Y-121598163D01*
X168934059Y-122072353D01*
X168876051Y-122072302D01*
X168623900Y-122176489D01*
X168430813Y-122369239D01*
X168326186Y-122621208D01*
X168325948Y-122894037D01*
X165196615Y-122894037D01*
X165169266Y-122866688D01*
X165020940Y-122767579D01*
X164945757Y-122752624D01*
X164945957Y-122523679D01*
X164841770Y-122271528D01*
X164717238Y-122146778D01*
X164717238Y-122068602D01*
X164682436Y-121893639D01*
X164583327Y-121745313D01*
X162529725Y-119691711D01*
X162381399Y-119592602D01*
X162206436Y-119557800D01*
X161647678Y-119557800D01*
X161524040Y-119433946D01*
X161272071Y-119329319D01*
X160999242Y-119329081D01*
X160747091Y-119433268D01*
X160554004Y-119626018D01*
X160449377Y-119877987D01*
X160449139Y-120150816D01*
X160553326Y-120402967D01*
X160746076Y-120596054D01*
X160998045Y-120700681D01*
X161270874Y-120700919D01*
X161523025Y-120596732D01*
X161647775Y-120472200D01*
X162017058Y-120472200D01*
X162400557Y-120855699D01*
X162232946Y-121023018D01*
X162209311Y-121079938D01*
X161342869Y-121079938D01*
X161219231Y-120956084D01*
X160967262Y-120851457D01*
X160694433Y-120851219D01*
X160442282Y-120955406D01*
X160249195Y-121148156D01*
X160144568Y-121400125D01*
X160144330Y-121672954D01*
X160248517Y-121925105D01*
X160441267Y-122118192D01*
X160693236Y-122222819D01*
X160966065Y-122223057D01*
X161218216Y-122118870D01*
X161342966Y-121994338D01*
X162428110Y-121994338D01*
X162676987Y-122097681D01*
X162949816Y-122097919D01*
X163201967Y-121993732D01*
X163370426Y-121825568D01*
X163747237Y-122202379D01*
X163678984Y-122270513D01*
X163574357Y-122522482D01*
X163574119Y-122795311D01*
X163678306Y-123047462D01*
X163744993Y-123114266D01*
X163472634Y-123386625D01*
X163456982Y-123370946D01*
X163205013Y-123266319D01*
X162932184Y-123266081D01*
X162680033Y-123370268D01*
X162630635Y-123419579D01*
X162419348Y-123331845D01*
X162243078Y-123331691D01*
X161955885Y-123044498D01*
X161807559Y-122945389D01*
X161632596Y-122910587D01*
X151231637Y-122910587D01*
X151056674Y-122945389D01*
X150908348Y-123044498D01*
X149562135Y-124390711D01*
X149463026Y-124539037D01*
X149428224Y-124714000D01*
X149428224Y-125755418D01*
X149440572Y-125817494D01*
X149428325Y-125846987D01*
X149428087Y-126119816D01*
X149532274Y-126371967D01*
X149725024Y-126565054D01*
X149753936Y-126577060D01*
X148914280Y-127416716D01*
X147828000Y-127416716D01*
X147679341Y-127446286D01*
X147553314Y-127530494D01*
X147469106Y-127656521D01*
X147439536Y-127805180D01*
X147439536Y-130004820D01*
X147469106Y-130153479D01*
X147553314Y-130279506D01*
X147679341Y-130363714D01*
X147828000Y-130393284D01*
X148220521Y-130393284D01*
X148172723Y-130402920D01*
X147691974Y-130664550D01*
X147347941Y-131090239D01*
X147193000Y-131615180D01*
X147193000Y-131953000D01*
X148463000Y-131953000D01*
X148463000Y-131933000D01*
X148717000Y-131933000D01*
X148717000Y-131953000D01*
X149987000Y-131953000D01*
X149987000Y-132207000D01*
X148717000Y-132207000D01*
X148717000Y-133649540D01*
X148933070Y-133772040D01*
X149007277Y-133757080D01*
X149488026Y-133495450D01*
X149832059Y-133069761D01*
X149987000Y-132544820D01*
X149987000Y-132446831D01*
X150074006Y-132884238D01*
X150321777Y-133255054D01*
X150692593Y-133502825D01*
X151130000Y-133589831D01*
X151567407Y-133502825D01*
X151938223Y-133255054D01*
X152185994Y-132884238D01*
X152273000Y-132446831D01*
X152273000Y-131713169D01*
X152185994Y-131275762D01*
X151938223Y-130904946D01*
X151567407Y-130657175D01*
X151130000Y-130570169D01*
X150692593Y-130657175D01*
X150321777Y-130904946D01*
X150074006Y-131275762D01*
X149987000Y-131713169D01*
X149987000Y-131615180D01*
X149832059Y-131090239D01*
X149488026Y-130664550D01*
X149007277Y-130402920D01*
X148959479Y-130393284D01*
X149352000Y-130393284D01*
X149500659Y-130363714D01*
X149626686Y-130279506D01*
X149710894Y-130153479D01*
X149740464Y-130004820D01*
X149740464Y-128242900D01*
X151161164Y-126822200D01*
X152577800Y-126822200D01*
X152577800Y-128156210D01*
X152622270Y-128379774D01*
X152707907Y-128507939D01*
X152748908Y-128569302D01*
X156335694Y-132156088D01*
X156328184Y-132156081D01*
X156076033Y-132260268D01*
X155882946Y-132453018D01*
X155778319Y-132704987D01*
X155778081Y-132977816D01*
X155882268Y-133229967D01*
X156075018Y-133423054D01*
X156326987Y-133527681D01*
X156503257Y-133527835D01*
X156902711Y-133927289D01*
X157051037Y-134026398D01*
X157220236Y-134060053D01*
X157345018Y-134185054D01*
X157596987Y-134289681D01*
X157869816Y-134289919D01*
X158121967Y-134185732D01*
X158279711Y-134028263D01*
X164459437Y-140207989D01*
X153403458Y-140207989D01*
X153407218Y-140204236D01*
X153542846Y-139877609D01*
X153543154Y-139523943D01*
X153408097Y-139197080D01*
X153158236Y-138946782D01*
X153111200Y-138927251D01*
X153111200Y-137932988D01*
X153156920Y-137914097D01*
X153407218Y-137664236D01*
X153426749Y-137617200D01*
X156082996Y-137617200D01*
X156257959Y-137582398D01*
X156406285Y-137483289D01*
X158202812Y-135686762D01*
X158377816Y-135686915D01*
X158629967Y-135582728D01*
X158823054Y-135389978D01*
X158927681Y-135138009D01*
X158927919Y-134865180D01*
X158823732Y-134613029D01*
X158630982Y-134419942D01*
X158379013Y-134315315D01*
X158106184Y-134315077D01*
X157854033Y-134419264D01*
X157660946Y-134612014D01*
X157556319Y-134863983D01*
X157556165Y-135040253D01*
X155893618Y-136702800D01*
X153426988Y-136702800D01*
X153408097Y-136657080D01*
X153158236Y-136406782D01*
X152831609Y-136271154D01*
X152477943Y-136270846D01*
X152151080Y-136405903D01*
X151900782Y-136655764D01*
X151765154Y-136982391D01*
X151764846Y-137336057D01*
X151899903Y-137662920D01*
X152149764Y-137913218D01*
X152196800Y-137932749D01*
X152196800Y-138927012D01*
X152151080Y-138945903D01*
X151900782Y-139195764D01*
X151765154Y-139522391D01*
X151764846Y-139876057D01*
X151899903Y-140202920D01*
X151904963Y-140207989D01*
X150494164Y-140207989D01*
X147846452Y-137560277D01*
X147913705Y-137532489D01*
X149139531Y-137532489D01*
X149363095Y-137488019D01*
X149552623Y-137361381D01*
X153345720Y-133568284D01*
X154432000Y-133568284D01*
X154580659Y-133538714D01*
X154706686Y-133454506D01*
X154790894Y-133328479D01*
X154820464Y-133179820D01*
X154820464Y-130980180D01*
X154790894Y-130831521D01*
X154706686Y-130705494D01*
X154580659Y-130621286D01*
X154432000Y-130591716D01*
X153345719Y-130591716D01*
X152231993Y-129477989D01*
X152273000Y-129271831D01*
X152273000Y-128538169D01*
X152185994Y-128100762D01*
X151938223Y-127729946D01*
X151567407Y-127482175D01*
X151130000Y-127395169D01*
X150692593Y-127482175D01*
X150321777Y-127729946D01*
X150074006Y-128100762D01*
X149987000Y-128538169D01*
X149987000Y-129271831D01*
X150074006Y-129709238D01*
X150321777Y-130080054D01*
X150692593Y-130327825D01*
X151130000Y-130414831D01*
X151452348Y-130350712D01*
X152519536Y-131417899D01*
X152519536Y-132742100D01*
X148897547Y-136364089D01*
X147913117Y-136364089D01*
X147668724Y-136262608D01*
X147395895Y-136262370D01*
X147155426Y-136361730D01*
X147155512Y-136263128D01*
X147051325Y-136010977D01*
X146858575Y-135817890D01*
X146606606Y-135713263D01*
X146333777Y-135713025D01*
X146081626Y-135817212D01*
X145888539Y-136009962D01*
X145783912Y-136261931D01*
X145783910Y-136263876D01*
X145679013Y-136220319D01*
X145406184Y-136220081D01*
X145154033Y-136324268D01*
X144960946Y-136517018D01*
X144856319Y-136768987D01*
X144856081Y-137041816D01*
X144960268Y-137293967D01*
X145153018Y-137487054D01*
X145404987Y-137591681D01*
X145581257Y-137591835D01*
X149282711Y-141293289D01*
X149431037Y-141392398D01*
X149606000Y-141427200D01*
X167667454Y-141427200D01*
X167842417Y-141392398D01*
X167990743Y-141293289D01*
X168496692Y-140787341D01*
X168595800Y-140639015D01*
X168630602Y-140464052D01*
X168630602Y-139548350D01*
X168595800Y-139373387D01*
X168519554Y-139259277D01*
X169833830Y-139259277D01*
X169982864Y-139619966D01*
X170258583Y-139896166D01*
X170619011Y-140045829D01*
X171009277Y-140046170D01*
X171369966Y-139897136D01*
X171646166Y-139621417D01*
X171795829Y-139260989D01*
X171795830Y-139259277D01*
X173133830Y-139259277D01*
X173282864Y-139619966D01*
X173558583Y-139896166D01*
X173919011Y-140045829D01*
X174309277Y-140046170D01*
X174669966Y-139897136D01*
X174946166Y-139621417D01*
X175095829Y-139260989D01*
X175096170Y-138870723D01*
X174947136Y-138510034D01*
X174671417Y-138233834D01*
X174310989Y-138084171D01*
X173920723Y-138083830D01*
X173560034Y-138232864D01*
X173283834Y-138508583D01*
X173134171Y-138869011D01*
X173133830Y-139259277D01*
X171795830Y-139259277D01*
X171796170Y-138870723D01*
X171647136Y-138510034D01*
X171371417Y-138233834D01*
X171010989Y-138084171D01*
X170620723Y-138083830D01*
X170260034Y-138232864D01*
X169983834Y-138508583D01*
X169834171Y-138869011D01*
X169833830Y-139259277D01*
X168519554Y-139259277D01*
X168496691Y-139225061D01*
X168140341Y-138868711D01*
X167992015Y-138769602D01*
X167918829Y-138755045D01*
X167774982Y-138610946D01*
X167523013Y-138506319D01*
X167250184Y-138506081D01*
X166998033Y-138610268D01*
X166804946Y-138803018D01*
X166700319Y-139054987D01*
X166700081Y-139327816D01*
X166782170Y-139526485D01*
X166588577Y-139446098D01*
X166315748Y-139445860D01*
X166063597Y-139550047D01*
X166015180Y-139598379D01*
X165358511Y-139598379D01*
X163543911Y-137783779D01*
X163692987Y-137845681D01*
X163965816Y-137845919D01*
X164217967Y-137741732D01*
X164411054Y-137548982D01*
X164515681Y-137297013D01*
X164515835Y-137120743D01*
X165035378Y-136601200D01*
X167635380Y-136601200D01*
X167759018Y-136725054D01*
X168010987Y-136829681D01*
X168283816Y-136829919D01*
X168535967Y-136725732D01*
X168729054Y-136532982D01*
X168833681Y-136281013D01*
X168833919Y-136008184D01*
X168729732Y-135756033D01*
X168536982Y-135562946D01*
X168285013Y-135458319D01*
X168012184Y-135458081D01*
X167760033Y-135562268D01*
X167635283Y-135686800D01*
X164920422Y-135686800D01*
X165453822Y-135153400D01*
X166878000Y-135153400D01*
X167082123Y-135112797D01*
X167255171Y-134997171D01*
X167606941Y-134645400D01*
X168376600Y-134645400D01*
X168376600Y-135099106D01*
X168417203Y-135303229D01*
X168532829Y-135476277D01*
X170339723Y-137283171D01*
X170512771Y-137398797D01*
X170716894Y-137439400D01*
X173807429Y-137439400D01*
X173855000Y-137487054D01*
X174106969Y-137591681D01*
X174379798Y-137591919D01*
X174631949Y-137487732D01*
X174825036Y-137294982D01*
X174929663Y-137043013D01*
X174929901Y-136770184D01*
X174825714Y-136518033D01*
X174737527Y-136429692D01*
X174946166Y-136221417D01*
X175095829Y-135860989D01*
X175095887Y-135795177D01*
X177688446Y-138387736D01*
X177622319Y-138546987D01*
X177622081Y-138819816D01*
X177726268Y-139071967D01*
X177919018Y-139265054D01*
X178170987Y-139369681D01*
X178443816Y-139369919D01*
X178695967Y-139265732D01*
X178889054Y-139072982D01*
X178993681Y-138821013D01*
X178993919Y-138548184D01*
X178889732Y-138296033D01*
X178840076Y-138246290D01*
X178800797Y-138048825D01*
X178685171Y-137875777D01*
X175276932Y-134467538D01*
X175531265Y-134467760D01*
X175783416Y-134363573D01*
X175976503Y-134170823D01*
X176081130Y-133918854D01*
X176081210Y-133827188D01*
X182912311Y-140658290D01*
X182999536Y-140716572D01*
X182999536Y-141434820D01*
X183029106Y-141583479D01*
X183113314Y-141709506D01*
X183224803Y-141784000D01*
X141426000Y-141784000D01*
X141426000Y-131027927D01*
X143741385Y-131027927D01*
X143859849Y-131314633D01*
X144079013Y-131534180D01*
X144365512Y-131653145D01*
X144675727Y-131653415D01*
X144830800Y-131589340D01*
X144830800Y-132715000D01*
X144875270Y-132938564D01*
X144977437Y-133091468D01*
X145001908Y-133128092D01*
X145367214Y-133493398D01*
X145468268Y-133737967D01*
X145661018Y-133931054D01*
X145912987Y-134035681D01*
X146185816Y-134035919D01*
X146437967Y-133931732D01*
X146631054Y-133738982D01*
X146735681Y-133487013D01*
X146735919Y-133214184D01*
X146631732Y-132962033D01*
X146438982Y-132768946D01*
X146192981Y-132666797D01*
X145999200Y-132473016D01*
X145999200Y-132207000D01*
X147193000Y-132207000D01*
X147193000Y-132544820D01*
X147347941Y-133069761D01*
X147691974Y-133495450D01*
X148172723Y-133757080D01*
X148246930Y-133772040D01*
X148463000Y-133649540D01*
X148463000Y-132207000D01*
X147193000Y-132207000D01*
X145999200Y-132207000D01*
X145999200Y-126111406D01*
X146100681Y-125867013D01*
X146100919Y-125594184D01*
X145996732Y-125342033D01*
X145803982Y-125148946D01*
X145552013Y-125044319D01*
X145279184Y-125044081D01*
X145027033Y-125148268D01*
X144833946Y-125341018D01*
X144729319Y-125592987D01*
X144729081Y-125865816D01*
X144830800Y-126111994D01*
X144830800Y-126359327D01*
X144679628Y-126296555D01*
X144369413Y-126296285D01*
X144082707Y-126414749D01*
X143863160Y-126633913D01*
X143744195Y-126920412D01*
X143743925Y-127230627D01*
X143862389Y-127517333D01*
X144081553Y-127736880D01*
X144368052Y-127855845D01*
X144678267Y-127856115D01*
X144830800Y-127793090D01*
X144830800Y-130157682D01*
X144677088Y-130093855D01*
X144366873Y-130093585D01*
X144080167Y-130212049D01*
X143860620Y-130431213D01*
X143741655Y-130717712D01*
X143741385Y-131027927D01*
X141426000Y-131027927D01*
X141426000Y-120150816D01*
X149809081Y-120150816D01*
X149913268Y-120402967D01*
X150037800Y-120527717D01*
X150037800Y-121407380D01*
X149913946Y-121531018D01*
X149809319Y-121782987D01*
X149809081Y-122055816D01*
X149913268Y-122307967D01*
X150106018Y-122501054D01*
X150357987Y-122605681D01*
X150630816Y-122605919D01*
X150882967Y-122501732D01*
X151076054Y-122308982D01*
X151180681Y-122057013D01*
X151180919Y-121784184D01*
X151076732Y-121532033D01*
X150952200Y-121407283D01*
X150952200Y-120527620D01*
X151076054Y-120403982D01*
X151180681Y-120152013D01*
X151180919Y-119879184D01*
X151076732Y-119627033D01*
X150883982Y-119433946D01*
X150632013Y-119329319D01*
X150359184Y-119329081D01*
X150107033Y-119433268D01*
X149913946Y-119626018D01*
X149809319Y-119877987D01*
X149809081Y-120150816D01*
X141426000Y-120150816D01*
X141426000Y-116026000D01*
X160249839Y-116026000D01*
X160162123Y-116113716D01*
X160162123Y-116113716D01*
G37*
X160162123Y-116113716D02*
X159004000Y-116113716D01*
X158855341Y-116143286D01*
X158729314Y-116227494D01*
X158645106Y-116353521D01*
X158615536Y-116502180D01*
X158615536Y-118701820D01*
X158645106Y-118850479D01*
X158729314Y-118976506D01*
X158855341Y-119060714D01*
X159004000Y-119090284D01*
X160528000Y-119090284D01*
X160676659Y-119060714D01*
X160802686Y-118976506D01*
X160886894Y-118850479D01*
X160916464Y-118701820D01*
X160916464Y-116868057D01*
X161180742Y-116603779D01*
X161379621Y-116603779D01*
X161250006Y-116797762D01*
X161163000Y-117235169D01*
X161163000Y-117968831D01*
X161250006Y-118406238D01*
X161497777Y-118777054D01*
X161868593Y-119024825D01*
X162306000Y-119111831D01*
X162743407Y-119024825D01*
X163114223Y-118777054D01*
X163361994Y-118406238D01*
X163449000Y-117968831D01*
X163449000Y-118066820D01*
X163603941Y-118591761D01*
X163947974Y-119017450D01*
X164428723Y-119279080D01*
X164502930Y-119294040D01*
X164719000Y-119171540D01*
X164719000Y-117729000D01*
X163449000Y-117729000D01*
X163449000Y-117475000D01*
X164719000Y-117475000D01*
X164719000Y-117455000D01*
X164973000Y-117455000D01*
X164973000Y-117475000D01*
X166243000Y-117475000D01*
X166243000Y-117729000D01*
X164973000Y-117729000D01*
X164973000Y-119171540D01*
X165189070Y-119294040D01*
X165263277Y-119279080D01*
X165744026Y-119017450D01*
X166088059Y-118591761D01*
X166243000Y-118066820D01*
X166243000Y-117968831D01*
X166330006Y-118406238D01*
X166577777Y-118777054D01*
X166948593Y-119024825D01*
X167386000Y-119111831D01*
X167823407Y-119024825D01*
X167951438Y-118939277D01*
X169833830Y-118939277D01*
X169982864Y-119299966D01*
X170258583Y-119576166D01*
X170619011Y-119725829D01*
X171009277Y-119726170D01*
X171369966Y-119577136D01*
X171646166Y-119301417D01*
X171795829Y-118940989D01*
X171796170Y-118550723D01*
X171647136Y-118190034D01*
X171371417Y-117913834D01*
X171010989Y-117764171D01*
X170620723Y-117763830D01*
X170260034Y-117912864D01*
X169983834Y-118188583D01*
X169834171Y-118549011D01*
X169833830Y-118939277D01*
X167951438Y-118939277D01*
X168194223Y-118777054D01*
X168441994Y-118406238D01*
X168529000Y-117968831D01*
X168529000Y-117235169D01*
X168441994Y-116797762D01*
X168312379Y-116603779D01*
X182999536Y-116603780D01*
X182999536Y-117093429D01*
X182912311Y-117151711D01*
X182813202Y-117300037D01*
X182786538Y-117434087D01*
X182763013Y-117424319D01*
X182490184Y-117424081D01*
X182238033Y-117528268D01*
X182044946Y-117721018D01*
X181940319Y-117972987D01*
X181940081Y-118245816D01*
X182044268Y-118497967D01*
X182237018Y-118691054D01*
X182488987Y-118795681D01*
X182665257Y-118795835D01*
X182720840Y-118851418D01*
X182737001Y-118932664D01*
X182836110Y-119080990D01*
X182881830Y-119126710D01*
X183030156Y-119225819D01*
X183205119Y-119260621D01*
X185094881Y-119260621D01*
X185269844Y-119225819D01*
X185418170Y-119126710D01*
X185463890Y-119080990D01*
X185562999Y-118932664D01*
X185597801Y-118757701D01*
X185597801Y-118299377D01*
X185631340Y-118265838D01*
X185634006Y-118279238D01*
X185881777Y-118650054D01*
X186252593Y-118897825D01*
X186690000Y-118984831D01*
X187127407Y-118897825D01*
X187498223Y-118650054D01*
X187745994Y-118279238D01*
X187833000Y-117841831D01*
X187833000Y-117108169D01*
X187745994Y-116670762D01*
X187701238Y-116603780D01*
X188218762Y-116603780D01*
X188174006Y-116670762D01*
X188087000Y-117108169D01*
X188087000Y-117841831D01*
X188174006Y-118279238D01*
X188421777Y-118650054D01*
X188792593Y-118897825D01*
X189230000Y-118984831D01*
X189667407Y-118897825D01*
X190038223Y-118650054D01*
X190285994Y-118279238D01*
X190373000Y-117841831D01*
X190373000Y-117108169D01*
X190285994Y-116670762D01*
X190241238Y-116603780D01*
X190758762Y-116603780D01*
X190714006Y-116670762D01*
X190627000Y-117108169D01*
X190627000Y-117841831D01*
X190714006Y-118279238D01*
X190961777Y-118650054D01*
X191332593Y-118897825D01*
X191770000Y-118984831D01*
X192207407Y-118897825D01*
X192578223Y-118650054D01*
X192825994Y-118279238D01*
X192913000Y-117841831D01*
X192913000Y-117108169D01*
X192825994Y-116670762D01*
X192781238Y-116603780D01*
X193022258Y-116603780D01*
X193226669Y-116808191D01*
X193167000Y-117108169D01*
X193167000Y-117841831D01*
X193254006Y-118279238D01*
X193501777Y-118650054D01*
X193872593Y-118897825D01*
X194310000Y-118984831D01*
X194747407Y-118897825D01*
X195118223Y-118650054D01*
X195365994Y-118279238D01*
X195453000Y-117841831D01*
X195453000Y-119380000D01*
X195462667Y-119428601D01*
X195490197Y-119469803D01*
X195531399Y-119497333D01*
X195580000Y-119507000D01*
X196215000Y-119507000D01*
X196215000Y-126746000D01*
X195580000Y-126746000D01*
X195531399Y-126755667D01*
X195490197Y-126783197D01*
X195462667Y-126824399D01*
X195453000Y-126873000D01*
X195453000Y-132080000D01*
X195462667Y-132128601D01*
X195490197Y-132169803D01*
X195531399Y-132197333D01*
X195580000Y-132207000D01*
X197231000Y-132207000D01*
X197231000Y-138049000D01*
X195580000Y-138049000D01*
X195531399Y-138058667D01*
X195490197Y-138086197D01*
X195462667Y-138127399D01*
X195453000Y-138176000D01*
X195453000Y-138353800D01*
X190052948Y-138353800D01*
X189941543Y-138279361D01*
X189766580Y-138244559D01*
X188986088Y-138244559D01*
X188891401Y-138149872D01*
X188743075Y-138050763D01*
X188568112Y-138015961D01*
X187589769Y-138015960D01*
X187527799Y-137974553D01*
X187352836Y-137939751D01*
X186027163Y-137939751D01*
X185977673Y-137949595D01*
X185796938Y-137768861D01*
X185648612Y-137669752D01*
X185473649Y-137634950D01*
X183493527Y-137634949D01*
X178765200Y-132906622D01*
X178765200Y-131830620D01*
X178889054Y-131706982D01*
X178993681Y-131455013D01*
X178993919Y-131182184D01*
X178889732Y-130930033D01*
X178696982Y-130736946D01*
X178445013Y-130632319D01*
X178172184Y-130632081D01*
X177920033Y-130736268D01*
X177726946Y-130929018D01*
X177622319Y-131180987D01*
X177622081Y-131453816D01*
X177726268Y-131705967D01*
X177850800Y-131830717D01*
X177850800Y-132423289D01*
X177176553Y-131749042D01*
X177028227Y-131649933D01*
X176981506Y-131640640D01*
X182905399Y-125716747D01*
X182905399Y-128244599D01*
X182940201Y-128419562D01*
X183039310Y-128567888D01*
X183210234Y-128738812D01*
X183210081Y-128913816D01*
X183314268Y-129165967D01*
X183507018Y-129359054D01*
X183758987Y-129463681D01*
X183935257Y-129463835D01*
X184868112Y-130396690D01*
X185016438Y-130495799D01*
X185191401Y-130530601D01*
X190001833Y-130530601D01*
X189994671Y-130547850D01*
X189994597Y-130632313D01*
X189729184Y-130632081D01*
X189477033Y-130736268D01*
X189283946Y-130929018D01*
X189179319Y-131180987D01*
X189179081Y-131453816D01*
X189280800Y-131699994D01*
X189280800Y-132329380D01*
X189156946Y-132453018D01*
X189052319Y-132704987D01*
X189052081Y-132977816D01*
X189156268Y-133229967D01*
X189349018Y-133423054D01*
X189600987Y-133527681D01*
X189873816Y-133527919D01*
X190125967Y-133423732D01*
X190319054Y-133230982D01*
X190423681Y-132979013D01*
X190423919Y-132706184D01*
X190319732Y-132454033D01*
X190195200Y-132329283D01*
X190195200Y-131923601D01*
X190252967Y-131899732D01*
X190446054Y-131706982D01*
X190550681Y-131455013D01*
X190550755Y-131370550D01*
X190816168Y-131370782D01*
X190891201Y-131339779D01*
X192227234Y-132675812D01*
X192227081Y-132850816D01*
X192331268Y-133102967D01*
X192524018Y-133296054D01*
X192775987Y-133400681D01*
X193048816Y-133400919D01*
X193300967Y-133296732D01*
X193494054Y-133103982D01*
X193598681Y-132852013D01*
X193598919Y-132579184D01*
X193494732Y-132327033D01*
X193301982Y-132133946D01*
X193050013Y-132029319D01*
X192873743Y-132029165D01*
X191347010Y-130502432D01*
X191262084Y-130296896D01*
X191157320Y-130191948D01*
X191218619Y-130130756D01*
X191323246Y-129878787D01*
X191323484Y-129605958D01*
X191219297Y-129353807D01*
X191026547Y-129160720D01*
X190774578Y-129056093D01*
X190501749Y-129055855D01*
X190249598Y-129160042D01*
X190056511Y-129352792D01*
X189951884Y-129604761D01*
X189951874Y-129616201D01*
X185380779Y-129616201D01*
X184581766Y-128817188D01*
X184581835Y-128738743D01*
X186701578Y-126619000D01*
X189661800Y-126619000D01*
X189661800Y-127765724D01*
X189696602Y-127940687D01*
X189795711Y-128089013D01*
X189855568Y-128148870D01*
X189855415Y-128323874D01*
X189959602Y-128576025D01*
X190152352Y-128769112D01*
X190404321Y-128873739D01*
X190677150Y-128873977D01*
X190929301Y-128769790D01*
X191122388Y-128577040D01*
X191227015Y-128325071D01*
X191227253Y-128052242D01*
X191164277Y-127899828D01*
X191240068Y-127824169D01*
X191344695Y-127572200D01*
X191344933Y-127299371D01*
X191240746Y-127047220D01*
X191170114Y-126976464D01*
X191450723Y-126695855D01*
X192370634Y-126695855D01*
X192545597Y-126661053D01*
X192607639Y-126619597D01*
X192811249Y-126619775D01*
X193063400Y-126515588D01*
X193256487Y-126322838D01*
X193361114Y-126070869D01*
X193361352Y-125798040D01*
X193257165Y-125545889D01*
X193064415Y-125352802D01*
X192812446Y-125248175D01*
X192539617Y-125247937D01*
X192287466Y-125352124D01*
X192094379Y-125544874D01*
X191996142Y-125781455D01*
X191412347Y-125781455D01*
X191335732Y-125596033D01*
X191142982Y-125402946D01*
X190891013Y-125298319D01*
X190618184Y-125298081D01*
X190366033Y-125402268D01*
X190172946Y-125595018D01*
X190068319Y-125846987D01*
X190068165Y-126023257D01*
X189795711Y-126295711D01*
X189696602Y-126444037D01*
X189661800Y-126619000D01*
X186701578Y-126619000D01*
X187290289Y-126030289D01*
X187317008Y-126057054D01*
X187568977Y-126161681D01*
X187841806Y-126161919D01*
X188093957Y-126057732D01*
X188287044Y-125864982D01*
X188391671Y-125613013D01*
X188391909Y-125340184D01*
X188287722Y-125088033D01*
X188163190Y-124963283D01*
X188163190Y-124713990D01*
X188128388Y-124539027D01*
X188029279Y-124390701D01*
X187883766Y-124245188D01*
X187883919Y-124070184D01*
X187779732Y-123818033D01*
X187655200Y-123693283D01*
X187655200Y-122273735D01*
X188231700Y-121697235D01*
X188406704Y-121697388D01*
X188658855Y-121593201D01*
X188851942Y-121400451D01*
X188956569Y-121148482D01*
X188956807Y-120875653D01*
X188852620Y-120623502D01*
X188659870Y-120430415D01*
X188407901Y-120325788D01*
X188135072Y-120325550D01*
X187882921Y-120429737D01*
X187689834Y-120622487D01*
X187585207Y-120874456D01*
X187585053Y-121050726D01*
X186874711Y-121761068D01*
X186775602Y-121909394D01*
X186740800Y-122084357D01*
X186740800Y-122224800D01*
X184605156Y-122224800D01*
X184430193Y-122259602D01*
X184281867Y-122358711D01*
X183222900Y-123417678D01*
X183212612Y-123407373D01*
X182960643Y-123302746D01*
X182687814Y-123302508D01*
X182556387Y-123356813D01*
X182464133Y-123264398D01*
X182212164Y-123159771D01*
X181939335Y-123159533D01*
X181687184Y-123263720D01*
X181496726Y-123453846D01*
X181436878Y-123428995D01*
X181475171Y-123413172D01*
X181668258Y-123220422D01*
X181772885Y-122968453D01*
X181773123Y-122695624D01*
X181668936Y-122443473D01*
X181476186Y-122250386D01*
X181224217Y-122145759D01*
X180951388Y-122145521D01*
X180699237Y-122249708D01*
X180506150Y-122442458D01*
X180427653Y-122631499D01*
X180374803Y-122631499D01*
X180303459Y-122645690D01*
X178621676Y-122645690D01*
X178446713Y-122680492D01*
X178298387Y-122779600D01*
X177253021Y-123824967D01*
X174793332Y-123824967D01*
X174805184Y-123796424D01*
X174805244Y-123728012D01*
X175383171Y-123150085D01*
X175498797Y-122977037D01*
X175539400Y-122772914D01*
X175539400Y-122648690D01*
X175553202Y-122579305D01*
X175553201Y-122579300D01*
X175553201Y-121710700D01*
X175553202Y-121710695D01*
X175539400Y-121641310D01*
X175539400Y-119248690D01*
X175553202Y-119179305D01*
X175553201Y-119179300D01*
X175553201Y-118310700D01*
X175553202Y-118310695D01*
X175551072Y-118299989D01*
X175647967Y-118259953D01*
X175841054Y-118067203D01*
X175945681Y-117815234D01*
X175945919Y-117542405D01*
X175841732Y-117290254D01*
X175648982Y-117097167D01*
X175397013Y-116992540D01*
X175124184Y-116992302D01*
X174872033Y-117096489D01*
X174678946Y-117289239D01*
X174574319Y-117541208D01*
X174574236Y-117636755D01*
X174513203Y-117728098D01*
X174491147Y-117838979D01*
X174310989Y-117764171D01*
X173920723Y-117763830D01*
X173560034Y-117912864D01*
X173283834Y-118188583D01*
X173134171Y-118549011D01*
X173133830Y-118939277D01*
X173143347Y-118962311D01*
X172352118Y-119753540D01*
X172236492Y-119926588D01*
X172195889Y-120130711D01*
X172195889Y-123109057D01*
X172148235Y-123156628D01*
X172043608Y-123408597D01*
X172043370Y-123681426D01*
X172102680Y-123824967D01*
X166127545Y-123824967D01*
X165196615Y-122894037D01*
X168325948Y-122894037D01*
X168430135Y-123146188D01*
X168622885Y-123339275D01*
X168874854Y-123443902D01*
X169147683Y-123444140D01*
X169399834Y-123339953D01*
X169592921Y-123147203D01*
X169697548Y-122895234D01*
X169697702Y-122718964D01*
X169714548Y-122702118D01*
X169813657Y-122553792D01*
X169816091Y-122541557D01*
X169848459Y-122378829D01*
X169848459Y-122374682D01*
X169982864Y-122699966D01*
X170258583Y-122976166D01*
X170619011Y-123125829D01*
X171009277Y-123126170D01*
X171369966Y-122977136D01*
X171646166Y-122701417D01*
X171795829Y-122340989D01*
X171796170Y-121950723D01*
X171647136Y-121590034D01*
X171371417Y-121313834D01*
X171010989Y-121164171D01*
X170620723Y-121163830D01*
X170260034Y-121312864D01*
X169983834Y-121588583D01*
X169848459Y-121914602D01*
X169848459Y-121598066D01*
X169972313Y-121474428D01*
X170076940Y-121222459D01*
X170077178Y-120949630D01*
X169972991Y-120697479D01*
X169780241Y-120504392D01*
X169528272Y-120399765D01*
X169255443Y-120399527D01*
X169003292Y-120503714D01*
X168810205Y-120696464D01*
X168705578Y-120948433D01*
X168705340Y-121221262D01*
X168809527Y-121473413D01*
X168934059Y-121598163D01*
X168934059Y-122072353D01*
X168876051Y-122072302D01*
X168623900Y-122176489D01*
X168430813Y-122369239D01*
X168326186Y-122621208D01*
X168325948Y-122894037D01*
X165196615Y-122894037D01*
X165169266Y-122866688D01*
X165020940Y-122767579D01*
X164945757Y-122752624D01*
X164945957Y-122523679D01*
X164841770Y-122271528D01*
X164717238Y-122146778D01*
X164717238Y-122068602D01*
X164682436Y-121893639D01*
X164583327Y-121745313D01*
X162529725Y-119691711D01*
X162381399Y-119592602D01*
X162206436Y-119557800D01*
X161647678Y-119557800D01*
X161524040Y-119433946D01*
X161272071Y-119329319D01*
X160999242Y-119329081D01*
X160747091Y-119433268D01*
X160554004Y-119626018D01*
X160449377Y-119877987D01*
X160449139Y-120150816D01*
X160553326Y-120402967D01*
X160746076Y-120596054D01*
X160998045Y-120700681D01*
X161270874Y-120700919D01*
X161523025Y-120596732D01*
X161647775Y-120472200D01*
X162017058Y-120472200D01*
X162400557Y-120855699D01*
X162232946Y-121023018D01*
X162209311Y-121079938D01*
X161342869Y-121079938D01*
X161219231Y-120956084D01*
X160967262Y-120851457D01*
X160694433Y-120851219D01*
X160442282Y-120955406D01*
X160249195Y-121148156D01*
X160144568Y-121400125D01*
X160144330Y-121672954D01*
X160248517Y-121925105D01*
X160441267Y-122118192D01*
X160693236Y-122222819D01*
X160966065Y-122223057D01*
X161218216Y-122118870D01*
X161342966Y-121994338D01*
X162428110Y-121994338D01*
X162676987Y-122097681D01*
X162949816Y-122097919D01*
X163201967Y-121993732D01*
X163370426Y-121825568D01*
X163747237Y-122202379D01*
X163678984Y-122270513D01*
X163574357Y-122522482D01*
X163574119Y-122795311D01*
X163678306Y-123047462D01*
X163744993Y-123114266D01*
X163472634Y-123386625D01*
X163456982Y-123370946D01*
X163205013Y-123266319D01*
X162932184Y-123266081D01*
X162680033Y-123370268D01*
X162630635Y-123419579D01*
X162419348Y-123331845D01*
X162243078Y-123331691D01*
X161955885Y-123044498D01*
X161807559Y-122945389D01*
X161632596Y-122910587D01*
X151231637Y-122910587D01*
X151056674Y-122945389D01*
X150908348Y-123044498D01*
X149562135Y-124390711D01*
X149463026Y-124539037D01*
X149428224Y-124714000D01*
X149428224Y-125755418D01*
X149440572Y-125817494D01*
X149428325Y-125846987D01*
X149428087Y-126119816D01*
X149532274Y-126371967D01*
X149725024Y-126565054D01*
X149753936Y-126577060D01*
X148914280Y-127416716D01*
X147828000Y-127416716D01*
X147679341Y-127446286D01*
X147553314Y-127530494D01*
X147469106Y-127656521D01*
X147439536Y-127805180D01*
X147439536Y-130004820D01*
X147469106Y-130153479D01*
X147553314Y-130279506D01*
X147679341Y-130363714D01*
X147828000Y-130393284D01*
X148220521Y-130393284D01*
X148172723Y-130402920D01*
X147691974Y-130664550D01*
X147347941Y-131090239D01*
X147193000Y-131615180D01*
X147193000Y-131953000D01*
X148463000Y-131953000D01*
X148463000Y-131933000D01*
X148717000Y-131933000D01*
X148717000Y-131953000D01*
X149987000Y-131953000D01*
X149987000Y-132207000D01*
X148717000Y-132207000D01*
X148717000Y-133649540D01*
X148933070Y-133772040D01*
X149007277Y-133757080D01*
X149488026Y-133495450D01*
X149832059Y-133069761D01*
X149987000Y-132544820D01*
X149987000Y-132446831D01*
X150074006Y-132884238D01*
X150321777Y-133255054D01*
X150692593Y-133502825D01*
X151130000Y-133589831D01*
X151567407Y-133502825D01*
X151938223Y-133255054D01*
X152185994Y-132884238D01*
X152273000Y-132446831D01*
X152273000Y-131713169D01*
X152185994Y-131275762D01*
X151938223Y-130904946D01*
X151567407Y-130657175D01*
X151130000Y-130570169D01*
X150692593Y-130657175D01*
X150321777Y-130904946D01*
X150074006Y-131275762D01*
X149987000Y-131713169D01*
X149987000Y-131615180D01*
X149832059Y-131090239D01*
X149488026Y-130664550D01*
X149007277Y-130402920D01*
X148959479Y-130393284D01*
X149352000Y-130393284D01*
X149500659Y-130363714D01*
X149626686Y-130279506D01*
X149710894Y-130153479D01*
X149740464Y-130004820D01*
X149740464Y-128242900D01*
X151161164Y-126822200D01*
X152577800Y-126822200D01*
X152577800Y-128156210D01*
X152622270Y-128379774D01*
X152707907Y-128507939D01*
X152748908Y-128569302D01*
X156335694Y-132156088D01*
X156328184Y-132156081D01*
X156076033Y-132260268D01*
X155882946Y-132453018D01*
X155778319Y-132704987D01*
X155778081Y-132977816D01*
X155882268Y-133229967D01*
X156075018Y-133423054D01*
X156326987Y-133527681D01*
X156503257Y-133527835D01*
X156902711Y-133927289D01*
X157051037Y-134026398D01*
X157220236Y-134060053D01*
X157345018Y-134185054D01*
X157596987Y-134289681D01*
X157869816Y-134289919D01*
X158121967Y-134185732D01*
X158279711Y-134028263D01*
X164459437Y-140207989D01*
X153403458Y-140207989D01*
X153407218Y-140204236D01*
X153542846Y-139877609D01*
X153543154Y-139523943D01*
X153408097Y-139197080D01*
X153158236Y-138946782D01*
X153111200Y-138927251D01*
X153111200Y-137932988D01*
X153156920Y-137914097D01*
X153407218Y-137664236D01*
X153426749Y-137617200D01*
X156082996Y-137617200D01*
X156257959Y-137582398D01*
X156406285Y-137483289D01*
X158202812Y-135686762D01*
X158377816Y-135686915D01*
X158629967Y-135582728D01*
X158823054Y-135389978D01*
X158927681Y-135138009D01*
X158927919Y-134865180D01*
X158823732Y-134613029D01*
X158630982Y-134419942D01*
X158379013Y-134315315D01*
X158106184Y-134315077D01*
X157854033Y-134419264D01*
X157660946Y-134612014D01*
X157556319Y-134863983D01*
X157556165Y-135040253D01*
X155893618Y-136702800D01*
X153426988Y-136702800D01*
X153408097Y-136657080D01*
X153158236Y-136406782D01*
X152831609Y-136271154D01*
X152477943Y-136270846D01*
X152151080Y-136405903D01*
X151900782Y-136655764D01*
X151765154Y-136982391D01*
X151764846Y-137336057D01*
X151899903Y-137662920D01*
X152149764Y-137913218D01*
X152196800Y-137932749D01*
X152196800Y-138927012D01*
X152151080Y-138945903D01*
X151900782Y-139195764D01*
X151765154Y-139522391D01*
X151764846Y-139876057D01*
X151899903Y-140202920D01*
X151904963Y-140207989D01*
X150494164Y-140207989D01*
X147846452Y-137560277D01*
X147913705Y-137532489D01*
X149139531Y-137532489D01*
X149363095Y-137488019D01*
X149552623Y-137361381D01*
X153345720Y-133568284D01*
X154432000Y-133568284D01*
X154580659Y-133538714D01*
X154706686Y-133454506D01*
X154790894Y-133328479D01*
X154820464Y-133179820D01*
X154820464Y-130980180D01*
X154790894Y-130831521D01*
X154706686Y-130705494D01*
X154580659Y-130621286D01*
X154432000Y-130591716D01*
X153345719Y-130591716D01*
X152231993Y-129477989D01*
X152273000Y-129271831D01*
X152273000Y-128538169D01*
X152185994Y-128100762D01*
X151938223Y-127729946D01*
X151567407Y-127482175D01*
X151130000Y-127395169D01*
X150692593Y-127482175D01*
X150321777Y-127729946D01*
X150074006Y-128100762D01*
X149987000Y-128538169D01*
X149987000Y-129271831D01*
X150074006Y-129709238D01*
X150321777Y-130080054D01*
X150692593Y-130327825D01*
X151130000Y-130414831D01*
X151452348Y-130350712D01*
X152519536Y-131417899D01*
X152519536Y-132742100D01*
X148897547Y-136364089D01*
X147913117Y-136364089D01*
X147668724Y-136262608D01*
X147395895Y-136262370D01*
X147155426Y-136361730D01*
X147155512Y-136263128D01*
X147051325Y-136010977D01*
X146858575Y-135817890D01*
X146606606Y-135713263D01*
X146333777Y-135713025D01*
X146081626Y-135817212D01*
X145888539Y-136009962D01*
X145783912Y-136261931D01*
X145783910Y-136263876D01*
X145679013Y-136220319D01*
X145406184Y-136220081D01*
X145154033Y-136324268D01*
X144960946Y-136517018D01*
X144856319Y-136768987D01*
X144856081Y-137041816D01*
X144960268Y-137293967D01*
X145153018Y-137487054D01*
X145404987Y-137591681D01*
X145581257Y-137591835D01*
X149282711Y-141293289D01*
X149431037Y-141392398D01*
X149606000Y-141427200D01*
X167667454Y-141427200D01*
X167842417Y-141392398D01*
X167990743Y-141293289D01*
X168496692Y-140787341D01*
X168595800Y-140639015D01*
X168630602Y-140464052D01*
X168630602Y-139548350D01*
X168595800Y-139373387D01*
X168519554Y-139259277D01*
X169833830Y-139259277D01*
X169982864Y-139619966D01*
X170258583Y-139896166D01*
X170619011Y-140045829D01*
X171009277Y-140046170D01*
X171369966Y-139897136D01*
X171646166Y-139621417D01*
X171795829Y-139260989D01*
X171795830Y-139259277D01*
X173133830Y-139259277D01*
X173282864Y-139619966D01*
X173558583Y-139896166D01*
X173919011Y-140045829D01*
X174309277Y-140046170D01*
X174669966Y-139897136D01*
X174946166Y-139621417D01*
X175095829Y-139260989D01*
X175096170Y-138870723D01*
X174947136Y-138510034D01*
X174671417Y-138233834D01*
X174310989Y-138084171D01*
X173920723Y-138083830D01*
X173560034Y-138232864D01*
X173283834Y-138508583D01*
X173134171Y-138869011D01*
X173133830Y-139259277D01*
X171795830Y-139259277D01*
X171796170Y-138870723D01*
X171647136Y-138510034D01*
X171371417Y-138233834D01*
X171010989Y-138084171D01*
X170620723Y-138083830D01*
X170260034Y-138232864D01*
X169983834Y-138508583D01*
X169834171Y-138869011D01*
X169833830Y-139259277D01*
X168519554Y-139259277D01*
X168496691Y-139225061D01*
X168140341Y-138868711D01*
X167992015Y-138769602D01*
X167918829Y-138755045D01*
X167774982Y-138610946D01*
X167523013Y-138506319D01*
X167250184Y-138506081D01*
X166998033Y-138610268D01*
X166804946Y-138803018D01*
X166700319Y-139054987D01*
X166700081Y-139327816D01*
X166782170Y-139526485D01*
X166588577Y-139446098D01*
X166315748Y-139445860D01*
X166063597Y-139550047D01*
X166015180Y-139598379D01*
X165358511Y-139598379D01*
X163543911Y-137783779D01*
X163692987Y-137845681D01*
X163965816Y-137845919D01*
X164217967Y-137741732D01*
X164411054Y-137548982D01*
X164515681Y-137297013D01*
X164515835Y-137120743D01*
X165035378Y-136601200D01*
X167635380Y-136601200D01*
X167759018Y-136725054D01*
X168010987Y-136829681D01*
X168283816Y-136829919D01*
X168535967Y-136725732D01*
X168729054Y-136532982D01*
X168833681Y-136281013D01*
X168833919Y-136008184D01*
X168729732Y-135756033D01*
X168536982Y-135562946D01*
X168285013Y-135458319D01*
X168012184Y-135458081D01*
X167760033Y-135562268D01*
X167635283Y-135686800D01*
X164920422Y-135686800D01*
X165453822Y-135153400D01*
X166878000Y-135153400D01*
X167082123Y-135112797D01*
X167255171Y-134997171D01*
X167606941Y-134645400D01*
X168376600Y-134645400D01*
X168376600Y-135099106D01*
X168417203Y-135303229D01*
X168532829Y-135476277D01*
X170339723Y-137283171D01*
X170512771Y-137398797D01*
X170716894Y-137439400D01*
X173807429Y-137439400D01*
X173855000Y-137487054D01*
X174106969Y-137591681D01*
X174379798Y-137591919D01*
X174631949Y-137487732D01*
X174825036Y-137294982D01*
X174929663Y-137043013D01*
X174929901Y-136770184D01*
X174825714Y-136518033D01*
X174737527Y-136429692D01*
X174946166Y-136221417D01*
X175095829Y-135860989D01*
X175095887Y-135795177D01*
X177688446Y-138387736D01*
X177622319Y-138546987D01*
X177622081Y-138819816D01*
X177726268Y-139071967D01*
X177919018Y-139265054D01*
X178170987Y-139369681D01*
X178443816Y-139369919D01*
X178695967Y-139265732D01*
X178889054Y-139072982D01*
X178993681Y-138821013D01*
X178993919Y-138548184D01*
X178889732Y-138296033D01*
X178840076Y-138246290D01*
X178800797Y-138048825D01*
X178685171Y-137875777D01*
X175276932Y-134467538D01*
X175531265Y-134467760D01*
X175783416Y-134363573D01*
X175976503Y-134170823D01*
X176081130Y-133918854D01*
X176081210Y-133827188D01*
X182912311Y-140658290D01*
X182999536Y-140716572D01*
X182999536Y-141434820D01*
X183029106Y-141583479D01*
X183113314Y-141709506D01*
X183224803Y-141784000D01*
X141426000Y-141784000D01*
X141426000Y-131027927D01*
X143741385Y-131027927D01*
X143859849Y-131314633D01*
X144079013Y-131534180D01*
X144365512Y-131653145D01*
X144675727Y-131653415D01*
X144830800Y-131589340D01*
X144830800Y-132715000D01*
X144875270Y-132938564D01*
X144977437Y-133091468D01*
X145001908Y-133128092D01*
X145367214Y-133493398D01*
X145468268Y-133737967D01*
X145661018Y-133931054D01*
X145912987Y-134035681D01*
X146185816Y-134035919D01*
X146437967Y-133931732D01*
X146631054Y-133738982D01*
X146735681Y-133487013D01*
X146735919Y-133214184D01*
X146631732Y-132962033D01*
X146438982Y-132768946D01*
X146192981Y-132666797D01*
X145999200Y-132473016D01*
X145999200Y-132207000D01*
X147193000Y-132207000D01*
X147193000Y-132544820D01*
X147347941Y-133069761D01*
X147691974Y-133495450D01*
X148172723Y-133757080D01*
X148246930Y-133772040D01*
X148463000Y-133649540D01*
X148463000Y-132207000D01*
X147193000Y-132207000D01*
X145999200Y-132207000D01*
X145999200Y-126111406D01*
X146100681Y-125867013D01*
X146100919Y-125594184D01*
X145996732Y-125342033D01*
X145803982Y-125148946D01*
X145552013Y-125044319D01*
X145279184Y-125044081D01*
X145027033Y-125148268D01*
X144833946Y-125341018D01*
X144729319Y-125592987D01*
X144729081Y-125865816D01*
X144830800Y-126111994D01*
X144830800Y-126359327D01*
X144679628Y-126296555D01*
X144369413Y-126296285D01*
X144082707Y-126414749D01*
X143863160Y-126633913D01*
X143744195Y-126920412D01*
X143743925Y-127230627D01*
X143862389Y-127517333D01*
X144081553Y-127736880D01*
X144368052Y-127855845D01*
X144678267Y-127856115D01*
X144830800Y-127793090D01*
X144830800Y-130157682D01*
X144677088Y-130093855D01*
X144366873Y-130093585D01*
X144080167Y-130212049D01*
X143860620Y-130431213D01*
X143741655Y-130717712D01*
X143741385Y-131027927D01*
X141426000Y-131027927D01*
X141426000Y-120150816D01*
X149809081Y-120150816D01*
X149913268Y-120402967D01*
X150037800Y-120527717D01*
X150037800Y-121407380D01*
X149913946Y-121531018D01*
X149809319Y-121782987D01*
X149809081Y-122055816D01*
X149913268Y-122307967D01*
X150106018Y-122501054D01*
X150357987Y-122605681D01*
X150630816Y-122605919D01*
X150882967Y-122501732D01*
X151076054Y-122308982D01*
X151180681Y-122057013D01*
X151180919Y-121784184D01*
X151076732Y-121532033D01*
X150952200Y-121407283D01*
X150952200Y-120527620D01*
X151076054Y-120403982D01*
X151180681Y-120152013D01*
X151180919Y-119879184D01*
X151076732Y-119627033D01*
X150883982Y-119433946D01*
X150632013Y-119329319D01*
X150359184Y-119329081D01*
X150107033Y-119433268D01*
X149913946Y-119626018D01*
X149809319Y-119877987D01*
X149809081Y-120150816D01*
X141426000Y-120150816D01*
X141426000Y-116026000D01*
X160249839Y-116026000D01*
X160162123Y-116113716D01*
G36*
X194437000Y-140208000D02*
X194457000Y-140208000D01*
X194457000Y-140462000D01*
X194437000Y-140462000D01*
X194437000Y-140482000D01*
X194183000Y-140482000D01*
X194183000Y-140462000D01*
X192913000Y-140462000D01*
X192913000Y-140208000D01*
X194183000Y-140208000D01*
X194183000Y-140188000D01*
X194437000Y-140188000D01*
X194437000Y-140208000D01*
X194437000Y-140208000D01*
G37*
X194437000Y-140208000D02*
X194457000Y-140208000D01*
X194457000Y-140462000D01*
X194437000Y-140462000D01*
X194437000Y-140482000D01*
X194183000Y-140482000D01*
X194183000Y-140462000D01*
X192913000Y-140462000D01*
X192913000Y-140208000D01*
X194183000Y-140208000D01*
X194183000Y-140188000D01*
X194437000Y-140188000D01*
X194437000Y-140208000D01*
G36*
X160858319Y-124068987D02*
X160858165Y-124245257D01*
X158611421Y-126492001D01*
X157276799Y-126492001D01*
X157101836Y-126526803D01*
X157039794Y-126568259D01*
X156836184Y-126568081D01*
X156584033Y-126672268D01*
X156390946Y-126865018D01*
X156286319Y-127116987D01*
X156286081Y-127389816D01*
X156390268Y-127641967D01*
X156583018Y-127835054D01*
X156834987Y-127939681D01*
X157107816Y-127939919D01*
X157359967Y-127835732D01*
X157553054Y-127642982D01*
X157651291Y-127406401D01*
X158800799Y-127406401D01*
X158975762Y-127371599D01*
X159119841Y-127275328D01*
X159235866Y-127391556D01*
X158095619Y-128531803D01*
X157096963Y-128531803D01*
X156922000Y-128566605D01*
X156773674Y-128665714D01*
X156343912Y-129095476D01*
X156244803Y-129243802D01*
X156210001Y-129418765D01*
X156210001Y-129997201D01*
X156244803Y-130172164D01*
X156286259Y-130234206D01*
X156286081Y-130437816D01*
X156297552Y-130465578D01*
X153746200Y-127914226D01*
X153746200Y-126619406D01*
X153847681Y-126375013D01*
X153847919Y-126102184D01*
X153743732Y-125850033D01*
X153550982Y-125656946D01*
X153299013Y-125552319D01*
X153026184Y-125552081D01*
X152780006Y-125653800D01*
X150919180Y-125653800D01*
X150734764Y-125690483D01*
X150695738Y-125596033D01*
X150502988Y-125402946D01*
X150342624Y-125336357D01*
X150342624Y-124903378D01*
X151421015Y-123824987D01*
X160959637Y-123824987D01*
X160858319Y-124068987D01*
X160858319Y-124068987D01*
G37*
X160858319Y-124068987D02*
X160858165Y-124245257D01*
X158611421Y-126492001D01*
X157276799Y-126492001D01*
X157101836Y-126526803D01*
X157039794Y-126568259D01*
X156836184Y-126568081D01*
X156584033Y-126672268D01*
X156390946Y-126865018D01*
X156286319Y-127116987D01*
X156286081Y-127389816D01*
X156390268Y-127641967D01*
X156583018Y-127835054D01*
X156834987Y-127939681D01*
X157107816Y-127939919D01*
X157359967Y-127835732D01*
X157553054Y-127642982D01*
X157651291Y-127406401D01*
X158800799Y-127406401D01*
X158975762Y-127371599D01*
X159119841Y-127275328D01*
X159235866Y-127391556D01*
X158095619Y-128531803D01*
X157096963Y-128531803D01*
X156922000Y-128566605D01*
X156773674Y-128665714D01*
X156343912Y-129095476D01*
X156244803Y-129243802D01*
X156210001Y-129418765D01*
X156210001Y-129997201D01*
X156244803Y-130172164D01*
X156286259Y-130234206D01*
X156286081Y-130437816D01*
X156297552Y-130465578D01*
X153746200Y-127914226D01*
X153746200Y-126619406D01*
X153847681Y-126375013D01*
X153847919Y-126102184D01*
X153743732Y-125850033D01*
X153550982Y-125656946D01*
X153299013Y-125552319D01*
X153026184Y-125552081D01*
X152780006Y-125653800D01*
X150919180Y-125653800D01*
X150734764Y-125690483D01*
X150695738Y-125596033D01*
X150502988Y-125402946D01*
X150342624Y-125336357D01*
X150342624Y-124903378D01*
X151421015Y-123824987D01*
X160959637Y-123824987D01*
X160858319Y-124068987D01*
G36*
X186740800Y-123693380D02*
X186616946Y-123817018D01*
X186512319Y-124068987D01*
X186512081Y-124341816D01*
X186616268Y-124593967D01*
X186809018Y-124787054D01*
X187060987Y-124891681D01*
X187237257Y-124891835D01*
X187248790Y-124903368D01*
X187248790Y-124963380D01*
X187192097Y-125019974D01*
X187023037Y-125053602D01*
X186874711Y-125152711D01*
X183935188Y-128092234D01*
X183856743Y-128092165D01*
X183819799Y-128055221D01*
X183819799Y-126090529D01*
X183852715Y-126170192D01*
X184045465Y-126363279D01*
X184297434Y-126467906D01*
X184570263Y-126468144D01*
X184822414Y-126363957D01*
X185015501Y-126171207D01*
X185120128Y-125919238D01*
X185120366Y-125646409D01*
X185016179Y-125394258D01*
X184823429Y-125201171D01*
X184571460Y-125096544D01*
X184395190Y-125096390D01*
X184353200Y-125054400D01*
X184353200Y-124693210D01*
X184477054Y-124569572D01*
X184581681Y-124317603D01*
X184581919Y-124044774D01*
X184477732Y-123792623D01*
X184309569Y-123624165D01*
X184794534Y-123139200D01*
X186740800Y-123139200D01*
X186740800Y-123693380D01*
X186740800Y-123693380D01*
G37*
X186740800Y-123693380D02*
X186616946Y-123817018D01*
X186512319Y-124068987D01*
X186512081Y-124341816D01*
X186616268Y-124593967D01*
X186809018Y-124787054D01*
X187060987Y-124891681D01*
X187237257Y-124891835D01*
X187248790Y-124903368D01*
X187248790Y-124963380D01*
X187192097Y-125019974D01*
X187023037Y-125053602D01*
X186874711Y-125152711D01*
X183935188Y-128092234D01*
X183856743Y-128092165D01*
X183819799Y-128055221D01*
X183819799Y-126090529D01*
X183852715Y-126170192D01*
X184045465Y-126363279D01*
X184297434Y-126467906D01*
X184570263Y-126468144D01*
X184822414Y-126363957D01*
X185015501Y-126171207D01*
X185120128Y-125919238D01*
X185120366Y-125646409D01*
X185016179Y-125394258D01*
X184823429Y-125201171D01*
X184571460Y-125096544D01*
X184395190Y-125096390D01*
X184353200Y-125054400D01*
X184353200Y-124693210D01*
X184477054Y-124569572D01*
X184581681Y-124317603D01*
X184581919Y-124044774D01*
X184477732Y-123792623D01*
X184309569Y-123624165D01*
X184794534Y-123139200D01*
X186740800Y-123139200D01*
X186740800Y-123693380D01*
G36*
X180695088Y-123715843D02*
X180590461Y-123967812D01*
X180590320Y-124129777D01*
X178241367Y-124129777D01*
X178811055Y-123560090D01*
X180360612Y-123560090D01*
X180431956Y-123545899D01*
X180829945Y-123545899D01*
X180874134Y-123537109D01*
X180695088Y-123715843D01*
X180695088Y-123715843D01*
G37*
X180695088Y-123715843D02*
X180590461Y-123967812D01*
X180590320Y-124129777D01*
X178241367Y-124129777D01*
X178811055Y-123560090D01*
X180360612Y-123560090D01*
X180431956Y-123545899D01*
X180829945Y-123545899D01*
X180874134Y-123537109D01*
X180695088Y-123715843D01*
M02*
