%TF.GenerationSoftware,KiCad,Pcbnew,4.1.0-alpha+201607051515+6967~46~ubuntu15.10.1-product*%
%TF.CreationDate,2016-07-07T14:30:01+02:00*%
%TF.ProjectId,robot1,726F626F74312E6B696361645F706362,rev?*%
%TF.FileFunction,Legend,Bot*%
%FSLAX46Y46*%
G04 Gerber Fmt 4.6, Leading zero omitted, Abs format (unit mm)*
G04 Created by KiCad (PCBNEW 4.1.0-alpha+201607051515+6967~46~ubuntu15.10.1-product) date Thu Jul  7 14:30:01 2016*
%MOMM*%
%LPD*%
G01*
G04 APERTURE LIST*
%ADD10C,0.100000*%
%ADD11C,0.050800*%
%ADD12C,1.416000*%
%ADD13R,1.924000X2.599640*%
%ADD14O,1.924000X2.599640*%
%ADD15C,1.600000*%
%ADD16C,1.197560*%
G04 APERTURE END LIST*
D10*
X172365000Y-126095000D02*
X172365000Y-126495000D01*
X172365000Y-126495000D02*
X172465000Y-126495000D01*
X172465000Y-126495000D02*
X172465000Y-126095000D01*
X172465000Y-126095000D02*
X172465000Y-126195000D01*
X172465000Y-126195000D02*
X172465000Y-126095000D01*
X172365000Y-114195000D02*
X172365000Y-113495000D01*
X172365000Y-113495000D02*
X172465000Y-113495000D01*
X172465000Y-113495000D02*
X172465000Y-114195000D01*
X175465000Y-115095000D02*
X177865000Y-115095000D01*
X177865000Y-114195000D02*
X177865000Y-115095000D01*
X177865000Y-114195000D02*
X175465000Y-114195000D01*
X169465000Y-114195000D02*
X167065000Y-114195000D01*
X167065000Y-114195000D02*
X167065000Y-115095000D01*
X167065000Y-115095000D02*
X169465000Y-115095000D01*
X169465000Y-114195000D02*
X175465000Y-114195000D01*
X169465000Y-115095000D02*
X175465000Y-115095000D01*
X169465000Y-115095000D02*
X169465000Y-126095000D01*
X169465000Y-126095000D02*
X175465000Y-126095000D01*
X175465000Y-115095000D02*
X175465000Y-126095000D01*
X170265000Y-121445000D02*
X174665000Y-121445000D01*
X170265000Y-119445000D02*
X174665000Y-119445000D01*
X170265000Y-122845000D02*
X174665000Y-122845000D01*
X170265000Y-118045000D02*
X170265000Y-122845000D01*
X174665000Y-118045000D02*
X174665000Y-122845000D01*
X170265000Y-118045000D02*
X174665000Y-118045000D01*
X172565000Y-131715000D02*
X172565000Y-131315000D01*
X172565000Y-131315000D02*
X172465000Y-131315000D01*
X172465000Y-131315000D02*
X172465000Y-131715000D01*
X172465000Y-131715000D02*
X172465000Y-131615000D01*
X172465000Y-131615000D02*
X172465000Y-131715000D01*
X172565000Y-143615000D02*
X172565000Y-144315000D01*
X172565000Y-144315000D02*
X172465000Y-144315000D01*
X172465000Y-144315000D02*
X172465000Y-143615000D01*
X169465000Y-142715000D02*
X167065000Y-142715000D01*
X167065000Y-143615000D02*
X167065000Y-142715000D01*
X167065000Y-143615000D02*
X169465000Y-143615000D01*
X175465000Y-143615000D02*
X177865000Y-143615000D01*
X177865000Y-143615000D02*
X177865000Y-142715000D01*
X177865000Y-142715000D02*
X175465000Y-142715000D01*
X175465000Y-143615000D02*
X169465000Y-143615000D01*
X175465000Y-142715000D02*
X169465000Y-142715000D01*
X175465000Y-142715000D02*
X175465000Y-131715000D01*
X175465000Y-131715000D02*
X169465000Y-131715000D01*
X169465000Y-142715000D02*
X169465000Y-131715000D01*
X174665000Y-136365000D02*
X170265000Y-136365000D01*
X174665000Y-138365000D02*
X170265000Y-138365000D01*
X174665000Y-134965000D02*
X170265000Y-134965000D01*
X174665000Y-139765000D02*
X174665000Y-134965000D01*
X170265000Y-139765000D02*
X170265000Y-134965000D01*
X174665000Y-139765000D02*
X170265000Y-139765000D01*
D11*
X181094809Y-114720047D02*
X180586809Y-114720047D01*
X180586809Y-114913571D01*
X180611000Y-114961952D01*
X180635190Y-114986142D01*
X180683571Y-115010333D01*
X180756142Y-115010333D01*
X180804523Y-114986142D01*
X180828714Y-114961952D01*
X180852904Y-114913571D01*
X180852904Y-114720047D01*
X180756142Y-115445761D02*
X181094809Y-115445761D01*
X180562619Y-115324809D02*
X180925476Y-115203857D01*
X180925476Y-115518333D01*
X172441809Y-141103047D02*
X171933809Y-141103047D01*
X171933809Y-141296571D01*
X171958000Y-141344952D01*
X171982190Y-141369142D01*
X172030571Y-141393333D01*
X172103142Y-141393333D01*
X172151523Y-141369142D01*
X172175714Y-141344952D01*
X172199904Y-141296571D01*
X172199904Y-141103047D01*
X171933809Y-141852952D02*
X171933809Y-141611047D01*
X172175714Y-141586857D01*
X172151523Y-141611047D01*
X172127333Y-141659428D01*
X172127333Y-141780380D01*
X172151523Y-141828761D01*
X172175714Y-141852952D01*
X172224095Y-141877142D01*
X172345047Y-141877142D01*
X172393428Y-141852952D01*
X172417619Y-141828761D01*
X172441809Y-141780380D01*
X172441809Y-141659428D01*
X172417619Y-141611047D01*
X172393428Y-141586857D01*
%LPC*%
D12*
X152654000Y-139700000D03*
X152654000Y-137160000D03*
D13*
X159766000Y-117602000D03*
D14*
X162306000Y-117602000D03*
X164846000Y-117602000D03*
X167386000Y-117602000D03*
D13*
X153670000Y-132080000D03*
D14*
X151130000Y-132080000D03*
X148590000Y-132080000D03*
D15*
X174115000Y-118745000D03*
X174115000Y-122145000D03*
X170815000Y-122145000D03*
X170815000Y-118745000D03*
X170815000Y-139065000D03*
X170815000Y-135665000D03*
X174115000Y-135665000D03*
X174115000Y-139065000D03*
D16*
X144521300Y-130873500D03*
X144523840Y-127076200D03*
D13*
X184150000Y-117475000D03*
D14*
X186690000Y-117475000D03*
X189230000Y-117475000D03*
X191770000Y-117475000D03*
X194310000Y-117475000D03*
D13*
X184150000Y-140335000D03*
D14*
X186690000Y-140335000D03*
X189230000Y-140335000D03*
X191770000Y-140335000D03*
X194310000Y-140335000D03*
D13*
X148590000Y-128905000D03*
D14*
X151130000Y-128905000D03*
M02*
