*
G04 Mass Parameters ***
*
G04 Image ***
*
%INC:\DOCUMENTS AND SETTINGS\PLACIDO DE-VITA\DESKTOP\LAVORO\GIT\BLUENRG\RF PCB\LAYOUT 2 LAYER\BLUENRG RF APP BOARD-2 LAYER.SMB*%
%ICAS*%
%MOIN*%
%IPPOS*%
%ASAXBY*%
G74*%FSLAN2X34Y34*%
*
G04 Aperture Definitions ***
*
%ADD10C,0.1200*%
%ADD11C,0.0580*%
%ADD12R,0.0220X0.0220*%
%ADD13R,0.0500X0.0500*%
%ADD14C,0.0350*%
%ADD15R,0.0350X0.0350*%
%ADD16R,0.2000X0.0500*%
%ADD17R,0.1500X0.0300*%
%ADD18R,0.0580X0.0580*%
%ADD19C,0.0620*%
%ADD20R,0.0620X0.0620*%
%ADD21R,0.0400X0.0720*%
%ADD22R,0.0550X0.0470*%
%ADD23R,0.0100X0.0430*%
%ADD24R,0.1420X0.1420*%
%ADD25R,0.0430X0.0100*%
%ADD26C,0.0640*%
%ADD27O,0.0940X0.0250*%
%ADD28R,0.0940X0.0250*%
%ADD29C,0.0100*%
%ADD30C,0.0010*%
%ADD31C,0.0120*%
%ADD32C,0.0200*%
%ADD33C,0.0190*%
%ADD34C,0.0100*%
%ADD35C,0.1200*%
%ADD36C,0.0580*%
%ADD37C,0.0350*%
%ADD38R,0.0350X0.0350*%
%ADD39R,0.2000X0.0500*%
%ADD40R,0.0580X0.0580*%
%ADD41C,0.0620*%
%ADD42R,0.0620X0.0620*%
%ADD43C,0.0640*%
%ADD44C,0.0100*%
%ADD45C,0.1050*%
%ADD46R,0.0220X0.0220*%
%ADD47R,0.0500X0.0500*%
%ADD48C,0.0500*%
%ADD49R,0.2500X0.1000*%
%ADD50R,0.1600X0.0350*%
%ADD51C,0.0780*%
%ADD52R,0.0780X0.0780*%
%ADD53R,0.0400X0.0720*%
%ADD54R,0.0550X0.0470*%
%ADD55R,0.0100X0.0430*%
%ADD56R,0.1420X0.1420*%
%ADD57R,0.0430X0.0100*%
%ADD58C,0.0690*%
%ADD59O,0.0940X0.0250*%
%ADD60R,0.0940X0.0250*%
%ADD61R,0.2100X0.0600*%
*
G04 Plot Data ***
*
G54D36*
X0010750Y0001970D03*
X0002000Y0003000D03*
X0003000Y0002000D03*
Y0003000D03*
X0004000Y0002000D03*
Y0003000D03*
X0005000Y0002000D03*
Y0003000D03*
X0006000Y0002000D03*
Y0003000D03*
X0002000Y0013000D03*
X0003000Y0012000D03*
Y0013000D03*
X0004000Y0012000D03*
Y0013000D03*
X0005000Y0012000D03*
Y0013000D03*
X0006000Y0012000D03*
Y0013000D03*
X0011870Y0001970D03*
X0012990D03*
G54D40*
X0002000Y0002000D03*
Y0012000D03*
G54D45*
X0015850Y0012630D03*
X0015840Y0002400D03*
G54D47*
X0007660Y0002000D03*
G54D48*
Y0002500D03*
X0008160Y0002000D03*
Y0002500D03*
X0008660Y0002000D03*
Y0002500D03*
X0009160Y0002000D03*
Y0002500D03*
X0009660Y0002000D03*
Y0002500D03*
G54D51*
X0008430Y0011950D03*
X0009430D03*
G54D52*
X0007430D03*
G54D58*
X0007420Y0013100D03*
X0008420D03*
G54D61*
X0016090Y0005590D03*
Y0008940D03*
M02*
