*
G04 Mass Parameters ***
*
G04 Image ***
*
%INC:\DOCUMENTS AND SETTINGS\PLACIDO DE-VITA\DESKTOP\LAVORO\GIT\BLUENRG\RF PCB\LAYOUT 2 LAYER\BLUENRG RF APP BOARD-2 LAYER.SPT*%
%ICAS*%
%MOIN*%
%IPPOS*%
%ASAXBY*%
G74*%FSLAN2X34Y34*%
*
G04 Aperture Definitions ***
*
%ADD10C,0.1200*%
%ADD11C,0.0580*%
%ADD12R,0.0220X0.0220*%
%ADD13R,0.0500X0.0500*%
%ADD14C,0.0350*%
%ADD15R,0.0350X0.0350*%
%ADD16R,0.2000X0.0500*%
%ADD17R,0.1500X0.0300*%
%ADD18R,0.0580X0.0580*%
%ADD19C,0.0620*%
%ADD20R,0.0620X0.0620*%
%ADD21R,0.0400X0.0720*%
%ADD22R,0.0550X0.0470*%
%ADD23R,0.0100X0.0430*%
%ADD24R,0.1420X0.1420*%
%ADD25R,0.0430X0.0100*%
%ADD26C,0.0640*%
%ADD27O,0.0940X0.0250*%
%ADD28R,0.0940X0.0250*%
%ADD29C,0.0100*%
%ADD30C,0.0010*%
%ADD31C,0.0120*%
%ADD32C,0.0200*%
%ADD33C,0.0190*%
%ADD34C,0.0100*%
%ADD35C,0.1200*%
%ADD36C,0.0580*%
%ADD37C,0.0350*%
%ADD38R,0.0350X0.0350*%
%ADD39R,0.2000X0.0500*%
%ADD40R,0.0580X0.0580*%
%ADD41C,0.0620*%
%ADD42R,0.0620X0.0620*%
%ADD43C,0.0640*%
%ADD44C,0.0100*%
%ADD45C,0.1050*%
%ADD46R,0.0220X0.0220*%
%ADD47R,0.0500X0.0500*%
%ADD48C,0.0500*%
%ADD49R,0.2500X0.1000*%
%ADD50R,0.1600X0.0350*%
%ADD51C,0.0780*%
%ADD52R,0.0780X0.0780*%
%ADD53R,0.0400X0.0720*%
%ADD54R,0.0550X0.0470*%
%ADD55R,0.0100X0.0430*%
%ADD56R,0.1420X0.1420*%
%ADD57R,0.0430X0.0100*%
%ADD58C,0.0690*%
%ADD59O,0.0940X0.0250*%
%ADD60R,0.0940X0.0250*%
%ADD61R,0.2100X0.0600*%
%ADD62R,0.1500X0.0300*%
%ADD63R,0.0500X0.0400*%
*
G04 Plot Data ***
*
G54D39*
X0016095Y0005595D03*
Y0008945D03*
G54D46*
X0000640Y0006900D03*
Y0007320D03*
X0003325Y0005280D03*
X0003745D03*
X0009160Y0003455D03*
Y0003875D03*
X0008660D03*
Y0003455D03*
X0008160Y0003875D03*
Y0003455D03*
X0007660Y0003875D03*
Y0003455D03*
X0006610Y0010500D03*
X0006190D03*
Y0010825D03*
X0006610D03*
X0011430Y0007080D03*
X0011850D03*
X0012270Y0007290D03*
X0012690D03*
X0011850Y0007890D03*
X0011430D03*
X0006385Y0007200D03*
X0006805D03*
X0006385Y0007495D03*
X0006805D03*
X0011840Y0005940D03*
X0011420D03*
X0011840Y0006320D03*
X0011420D03*
X0004920Y0006900D03*
Y0006480D03*
X0010570Y0009150D03*
Y0008730D03*
X0010170Y0009150D03*
Y0008730D03*
X0009250Y0004930D03*
X0008830D03*
X0009250Y0005310D03*
X0008830D03*
X0012240Y0005330D03*
Y0004910D03*
X0009985Y0004700D03*
Y0004280D03*
X0013070Y0006870D03*
Y0007290D03*
X0011850Y0006700D03*
X0011430D03*
X0013870Y0007290D03*
X0013450D03*
X0011030Y0007080D03*
Y0007500D03*
X0011850D03*
X0011430D03*
X0012235Y0007890D03*
X0012655D03*
X0012720Y0009370D03*
Y0008950D03*
X0011560Y0009600D03*
X0011140D03*
X0007500Y0009095D03*
X0007920D03*
X0007500Y0009480D03*
X0007920D03*
X0008770Y0009765D03*
Y0009345D03*
X0008385Y0009765D03*
Y0009345D03*
G54D47*
X0009430Y0010230D03*
Y0009390D03*
X0010270Y0010230D03*
G54D53*
X0011135Y0008950D03*
X0012140D03*
G54D55*
X0008230Y0006245D03*
X0008430D03*
X0008630D03*
X0008830D03*
X0009030D03*
X0009230D03*
X0009430D03*
X0009630D03*
Y0008355D03*
X0009430D03*
X0009230D03*
X0009030D03*
X0008830D03*
X0008630D03*
X0008430D03*
X0008230D03*
G54D56*
X0008930Y0007290D03*
G54D57*
X0007875Y0008000D03*
Y0007800D03*
Y0007600D03*
Y0007400D03*
Y0007200D03*
Y0007000D03*
X0007876Y0006800D03*
X0007875Y0006600D03*
X0009985D03*
Y0006800D03*
Y0007000D03*
Y0007200D03*
Y0007400D03*
Y0007600D03*
Y0007800D03*
Y0008000D03*
G54D59*
X0003745Y0006400D03*
Y0006900D03*
Y0007400D03*
X0001785D03*
Y0006900D03*
Y0006400D03*
Y0005900D03*
G54D60*
X0003745D03*
G54D62*
X0016350Y0007290D03*
G54D63*
X0010710Y0004700D03*
X0011570D03*
Y0005330D03*
X0010710D03*
M02*
