*
G04 Mass Parameters ***
*
G04 Image ***
*
%INC:\DOCUMENTS AND SETTINGS\PLACIDO DE-VITA\DESKTOP\LAVORO\GIT\BLUENRG\RF PCB\LAYOUT 2 LAYER\BLUENRG RF APP BOARD-2 LAYER.DRD*%
%ICAS*%
%MOIN*%
%IPPOS*%
%ASAXBY*%
G74*%FSLAN2X34Y34*%
*
G04 Aperture Definitions ***
*
%ADD10C,0.1200*%
%ADD11C,0.0580*%
%ADD12R,0.0220X0.0220*%
%ADD13R,0.0500X0.0500*%
%ADD14C,0.0350*%
%ADD15R,0.0350X0.0350*%
%ADD16R,0.2000X0.0500*%
%ADD17R,0.1500X0.0300*%
%ADD18R,0.0580X0.0580*%
%ADD19C,0.0620*%
%ADD20R,0.0620X0.0620*%
%ADD21R,0.0400X0.0720*%
%ADD22R,0.0550X0.0470*%
%ADD23R,0.0100X0.0430*%
%ADD24R,0.1420X0.1420*%
%ADD25R,0.0430X0.0100*%
%ADD26C,0.0640*%
%ADD27O,0.0940X0.0250*%
%ADD28R,0.0940X0.0250*%
%ADD29C,0.0100*%
%ADD30C,0.0010*%
%ADD31C,0.0120*%
%ADD32C,0.0200*%
%ADD33C,0.0190*%
%ADD34C,0.0100*%
%ADD35C,0.1200*%
%ADD36C,0.0580*%
%ADD37C,0.0350*%
%ADD38R,0.0350X0.0350*%
%ADD39R,0.2000X0.0500*%
%ADD40R,0.0580X0.0580*%
%ADD41C,0.0620*%
%ADD42R,0.0620X0.0620*%
%ADD43C,0.0640*%
%ADD44C,0.0100*%
%ADD45C,0.1050*%
%ADD46R,0.0220X0.0220*%
%ADD47R,0.0500X0.0500*%
%ADD48C,0.0500*%
%ADD49R,0.2500X0.1000*%
%ADD50R,0.1600X0.0350*%
%ADD51C,0.0780*%
%ADD52R,0.0780X0.0780*%
%ADD53R,0.0400X0.0720*%
%ADD54R,0.0550X0.0470*%
%ADD55R,0.0100X0.0430*%
%ADD56R,0.1420X0.1420*%
%ADD57R,0.0430X0.0100*%
%ADD58C,0.0690*%
%ADD59O,0.0940X0.0250*%
%ADD60R,0.0940X0.0250*%
%ADD61R,0.2100X0.0600*%
%ADD62R,0.1500X0.0300*%
%ADD63R,0.0500X0.0400*%
%ADD64C,0.0080*%
%ADD65C,0.0015*%
%ADD66C,0.0040*%
%ADD67C,0.0060*%
%ADD68C,0.0020*%
%ADD69C,0.0030*%
*
G04 Plot Data ***
*
G54D30*
G01Y0001070D02*
X0017200D01*
Y0013970D01*
X0000000D01*
Y0001070D01*
G54D34*
G01X0024125Y-0015333D02*
X0024625D01*
X0024708Y-0015500D01*
Y-0015667D01*
X0024625Y-0015833D01*
X0024125D01*
X0024042Y-0015667D01*
Y-0015500D01*
X0024375Y-0014833D01*
X0023758Y-0015833D02*
X0023425D01*
X0023592D02*
Y-0014833D01*
X0023425Y-0015000D01*
X0022308Y-0015667D02*
X0022475Y-0015833D01*
X0022808D01*
X0022975Y-0015667D01*
Y-0015500D01*
X0022642Y-0015167D01*
X0022975Y-0014833D01*
X0022308D01*
X0012312Y-0015833D02*
X0011729D01*
Y-0014833D01*
X0011446Y-0015500D02*
X0010779D01*
X0011446Y-0015833D02*
Y-0015333D01*
X0011196Y-0014833D01*
X0011029D01*
X0010779Y-0015333D01*
Y-0015833D01*
X0010162D02*
Y-0014833D01*
X0010496D02*
X0009829D01*
X0008962Y-0015833D02*
X0008879Y-0015667D01*
Y-0015000D01*
X0008962Y-0014833D01*
X0009462D01*
X0009546Y-0015000D01*
Y-0015667D01*
X0009462Y-0015833D01*
X0008962D01*
X0008262D02*
Y-0014833D01*
X0008596D02*
X0007929D01*
X0024708Y-0013972D02*
X0024264D01*
X0024708Y-0013528D01*
Y-0013417D01*
X0024653Y-0013306D01*
X0024319D01*
X0024264Y-0013417D01*
X0010814Y-0013972D02*
X0010703Y-0013861D01*
X0010647Y-0013750D01*
Y-0013528D01*
X0010703Y-0013417D01*
X0010814Y-0013306D01*
X0010925D01*
X0011036Y-0013417D01*
X0011092Y-0013528D01*
Y-0013750D01*
X0011036Y-0013861D01*
X0010925Y-0013972D01*
X0010814D01*
X0010392D02*
X0009947D01*
X0010392Y-0013528D01*
Y-0013417D01*
X0010336Y-0013306D01*
X0010003D01*
X0009947Y-0013417D01*
X0009692Y-0013972D02*
X0009469D01*
X0009580D02*
Y-0013306D01*
X0009469Y-0013417D01*
X0008992Y-0013972D02*
X0009103D01*
Y-0013861D01*
X0008992D01*
Y-0013972D01*
X0008347D02*
X0008236Y-0013861D01*
X0008181Y-0013750D01*
Y-0013528D01*
X0008236Y-0013417D01*
X0008347Y-0013306D01*
X0008458D01*
X0008569Y-0013417D01*
X0008625Y-0013528D01*
Y-0013750D01*
X0008569Y-0013861D01*
X0008458Y-0013972D01*
X0008347D01*
X0024708Y-0012472D02*
X0024264D01*
X0024708Y-0012028D01*
Y-0011917D01*
X0024653Y-0011806D01*
X0024319D01*
X0024264Y-0011917D01*
X0010814Y-0012472D02*
X0010703Y-0012361D01*
X0010647Y-0012250D01*
Y-0012028D01*
X0010703Y-0011917D01*
X0010814Y-0011806D01*
X0010925D01*
X0011036Y-0011917D01*
X0011092Y-0012028D01*
Y-0012250D01*
X0011036Y-0012361D01*
X0010925Y-0012472D01*
X0010814D01*
X0010392Y-0012250D02*
X0009947D01*
X0010169Y-0011806D01*
X0010280D01*
Y-0012472D01*
X0009414D02*
X0009303Y-0012361D01*
X0009247Y-0012250D01*
Y-0012028D01*
X0009303Y-0011917D01*
X0009414Y-0011806D01*
X0009525D01*
X0009636Y-0011917D01*
X0009692Y-0012028D01*
Y-0012250D01*
X0009636Y-0012361D01*
X0009525Y-0012472D01*
X0009414D01*
X0008881D02*
X0008992D01*
Y-0012361D01*
X0008881D01*
Y-0012472D01*
X0008236D02*
X0008125Y-0012361D01*
X0008069Y-0012250D01*
Y-0012028D01*
X0008125Y-0011917D01*
X0008236Y-0011806D01*
X0008347D01*
X0008458Y-0011917D01*
X0008514Y-0012028D01*
Y-0012250D01*
X0008458Y-0012361D01*
X0008347Y-0012472D01*
X0008236D01*
X0024264Y-0010861D02*
X0024375Y-0010972D01*
X0024597D01*
X0024708Y-0010861D01*
Y-0010750D01*
X0024486Y-0010528D01*
X0024708Y-0010306D01*
X0024264D01*
X0011036Y-0010639D02*
X0010703D01*
X0010647Y-0010528D01*
Y-0010417D01*
X0010703Y-0010306D01*
X0011036D01*
X0011092Y-0010417D01*
Y-0010528D01*
X0010869Y-0010972D01*
X0009947Y-0010861D02*
X0010058Y-0010972D01*
X0010280D01*
X0010392Y-0010861D01*
Y-0010750D01*
X0010169Y-0010528D01*
X0010392Y-0010306D01*
X0009947D01*
X0009414Y-0010972D02*
X0009303Y-0010861D01*
X0009247Y-0010750D01*
Y-0010528D01*
X0009303Y-0010417D01*
X0009414Y-0010306D01*
X0009525D01*
X0009636Y-0010417D01*
X0009692Y-0010528D01*
Y-0010750D01*
X0009636Y-0010861D01*
X0009525Y-0010972D01*
X0009414D01*
X0008881D02*
X0008992D01*
Y-0010861D01*
X0008881D01*
Y-0010972D01*
X0008236D02*
X0008125Y-0010861D01*
X0008069Y-0010750D01*
Y-0010528D01*
X0008125Y-0010417D01*
X0008236Y-0010306D01*
X0008347D01*
X0008458Y-0010417D01*
X0008514Y-0010528D01*
Y-0010750D01*
X0008458Y-0010861D01*
X0008347Y-0010972D01*
X0008236D01*
X0024264Y-0009361D02*
X0024375Y-0009472D01*
X0024597D01*
X0024708Y-0009361D01*
Y-0009250D01*
X0024486Y-0009028D01*
X0024708Y-0008806D01*
X0024264D01*
X0011036Y-0009139D02*
X0011092Y-0009028D01*
Y-0008917D01*
X0011036Y-0008806D01*
X0010703D01*
X0010647Y-0008917D01*
Y-0009028D01*
X0010703Y-0009139D01*
X0011036D01*
X0011092Y-0009250D01*
Y-0009361D01*
X0011036Y-0009472D01*
X0010703D01*
X0010647Y-0009361D01*
Y-0009250D01*
X0010703Y-0009139D01*
X0009947Y-0009361D02*
X0010058Y-0009472D01*
X0010280D01*
X0010392Y-0009361D01*
Y-0009250D01*
X0010169Y-0009028D01*
X0010392Y-0008806D01*
X0009947D01*
X0009414Y-0009472D02*
X0009303Y-0009361D01*
X0009247Y-0009250D01*
Y-0009028D01*
X0009303Y-0008917D01*
X0009414Y-0008806D01*
X0009525D01*
X0009636Y-0008917D01*
X0009692Y-0009028D01*
Y-0009250D01*
X0009636Y-0009361D01*
X0009525Y-0009472D01*
X0009414D01*
X0008881D02*
X0008992D01*
Y-0009361D01*
X0008881D01*
Y-0009472D01*
X0008236D02*
X0008125Y-0009361D01*
X0008069Y-0009250D01*
Y-0009028D01*
X0008125Y-0008917D01*
X0008236Y-0008806D01*
X0008347D01*
X0008458Y-0008917D01*
X0008514Y-0009028D01*
Y-0009250D01*
X0008458Y-0009361D01*
X0008347Y-0009472D01*
X0008236D01*
X0024430Y-0007972D02*
X0024319Y-0007861D01*
X0024264Y-0007750D01*
Y-0007528D01*
X0024319Y-0007417D01*
X0024430Y-0007306D01*
X0024542D01*
X0024653Y-0007417D01*
X0024708Y-0007528D01*
Y-0007750D01*
X0024653Y-0007861D01*
X0024542Y-0007972D01*
X0024430D01*
X0024008D02*
X0023564D01*
X0024008Y-0007528D01*
Y-0007417D01*
X0023953Y-0007306D01*
X0023619D01*
X0023564Y-0007417D01*
X0010758Y-0007972D02*
X0011092Y-0007306D01*
X0010647D01*
X0009947Y-0007861D02*
X0010058Y-0007972D01*
X0010280D01*
X0010392Y-0007861D01*
Y-0007750D01*
X0010169Y-0007528D01*
X0010392Y-0007306D01*
X0009947D01*
X0009414Y-0007972D02*
X0009303Y-0007861D01*
X0009247Y-0007750D01*
Y-0007528D01*
X0009303Y-0007417D01*
X0009414Y-0007306D01*
X0009525D01*
X0009636Y-0007417D01*
X0009692Y-0007528D01*
Y-0007750D01*
X0009636Y-0007861D01*
X0009525Y-0007972D01*
X0009414D01*
X0008881D02*
X0008992D01*
Y-0007861D01*
X0008881D01*
Y-0007972D01*
X0008236D02*
X0008125Y-0007861D01*
X0008069Y-0007750D01*
Y-0007528D01*
X0008125Y-0007417D01*
X0008236Y-0007306D01*
X0008347D01*
X0008458Y-0007417D01*
X0008514Y-0007528D01*
Y-0007750D01*
X0008458Y-0007861D01*
X0008347Y-0007972D01*
X0008236D01*
X0024430Y-0006472D02*
X0024319Y-0006361D01*
X0024264Y-0006250D01*
Y-0006028D01*
X0024319Y-0005917D01*
X0024430Y-0005806D01*
X0024542D01*
X0024653Y-0005917D01*
X0024708Y-0006028D01*
Y-0006250D01*
X0024653Y-0006361D01*
X0024542Y-0006472D01*
X0024430D01*
X0024008D02*
X0023786D01*
X0023897D02*
Y-0005806D01*
X0023786Y-0005917D01*
X0010814Y-0006472D02*
X0010703Y-0006361D01*
X0010647Y-0006250D01*
Y-0006028D01*
X0010703Y-0005917D01*
X0010814Y-0005806D01*
X0010925D01*
X0011036Y-0005917D01*
X0011092Y-0006028D01*
Y-0006250D01*
X0011036Y-0006361D01*
X0010925Y-0006472D01*
X0010814D01*
X0010392D02*
X0009947D01*
X0010392Y-0006028D01*
Y-0005917D01*
X0010336Y-0005806D01*
X0010003D01*
X0009947Y-0005917D01*
X0009414Y-0006472D02*
X0009303Y-0006361D01*
X0009247Y-0006250D01*
Y-0006028D01*
X0009303Y-0005917D01*
X0009414Y-0005806D01*
X0009525D01*
X0009636Y-0005917D01*
X0009692Y-0006028D01*
Y-0006250D01*
X0009636Y-0006361D01*
X0009525Y-0006472D01*
X0009414D01*
X0008881D02*
X0008992D01*
Y-0006361D01*
X0008881D01*
Y-0006472D01*
X0008236D02*
X0008125Y-0006361D01*
X0008069Y-0006250D01*
Y-0006028D01*
X0008125Y-0005917D01*
X0008236Y-0005806D01*
X0008347D01*
X0008458Y-0005917D01*
X0008514Y-0006028D01*
Y-0006250D01*
X0008458Y-0006361D01*
X0008347Y-0006472D01*
X0008236D01*
X0024319Y-0004639D02*
X0024653D01*
X0024708Y-0004750D01*
Y-0004861D01*
X0024653Y-0004972D01*
X0024319D01*
X0024264Y-0004861D01*
Y-0004750D01*
X0024486Y-0004306D01*
X0023675Y-0004972D02*
X0024008Y-0004306D01*
X0023564D01*
X0023308Y-0004972D02*
X0022864D01*
X0023308Y-0004528D01*
Y-0004417D01*
X0023253Y-0004306D01*
X0022919D01*
X0022864Y-0004417D01*
X0010814Y-0004972D02*
X0010703Y-0004861D01*
X0010647Y-0004750D01*
Y-0004528D01*
X0010703Y-0004417D01*
X0010814Y-0004306D01*
X0010925D01*
X0011036Y-0004417D01*
X0011092Y-0004528D01*
Y-0004750D01*
X0011036Y-0004861D01*
X0010925Y-0004972D01*
X0010814D01*
X0010392D02*
X0010169D01*
X0010280D02*
Y-0004306D01*
X0010169Y-0004417D01*
X0009525Y-0004972D02*
X0009414Y-0004861D01*
X0009358Y-0004750D01*
Y-0004528D01*
X0009414Y-0004417D01*
X0009525Y-0004306D01*
X0009636D01*
X0009747Y-0004417D01*
X0009803Y-0004528D01*
Y-0004750D01*
X0009747Y-0004861D01*
X0009636Y-0004972D01*
X0009525D01*
X0008992D02*
X0009103D01*
Y-0004861D01*
X0008992D01*
Y-0004972D01*
X0008347D02*
X0008236Y-0004861D01*
X0008181Y-0004750D01*
Y-0004528D01*
X0008236Y-0004417D01*
X0008347Y-0004306D01*
X0008458D01*
X0008569Y-0004417D01*
X0008625Y-0004528D01*
Y-0004750D01*
X0008569Y-0004861D01*
X0008458Y-0004972D01*
X0008347D01*
X0033112Y-0002833D02*
X0032612D01*
X0033279Y-0003333D02*
X0032612D01*
Y-0002333D01*
X0033279D01*
X0031996Y-0003333D02*
Y-0002333D01*
X0032329D02*
X0031662D01*
X0030796Y-0003333D02*
X0030712Y-0003167D01*
Y-0002500D01*
X0030796Y-0002333D01*
X0031296D01*
X0031379Y-0002500D01*
Y-0003167D01*
X0031296Y-0003333D01*
X0030796D01*
X0030429Y-0002333D02*
Y-0003333D01*
X0030262Y-0003167D01*
X0029929Y-0002500D01*
X0029762Y-0002333D01*
Y-0003333D01*
X0023925D02*
Y-0002833D01*
X0024258Y-0002333D02*
X0024008Y-0002833D01*
X0023842D01*
X0023592Y-0002333D01*
X0022975Y-0003333D02*
Y-0002333D01*
X0023308D02*
X0022642D01*
X0022025Y-0003000D02*
X0022358Y-0003333D01*
X0021692Y-0003167D02*
X0021775Y-0003333D01*
X0022108D01*
X0022192Y-0003167D01*
X0022358Y-0003000D01*
Y-0002500D01*
X0022275Y-0002333D01*
X0021775D01*
X0021692Y-0002500D01*
Y-0003167D01*
X0017408Y-0003333D02*
X0016825D01*
Y-0002333D01*
X0015958Y-0003333D02*
X0015875Y-0003167D01*
Y-0002500D01*
X0015958Y-0002333D01*
X0016458D01*
X0016542Y-0002500D01*
Y-0003167D01*
X0016458Y-0003333D01*
X0015958D01*
X0015258D02*
Y-0002333D01*
X0015592D02*
X0014925D01*
X0009587Y-0003333D02*
Y-0002333D01*
X0009421Y-0002500D01*
X0009254Y-0002833D01*
X0009087Y-0002500D01*
X0008921Y-0002333D01*
Y-0003333D01*
X0008637Y-0003000D02*
X0007971D01*
X0008637Y-0003333D02*
Y-0002833D01*
X0008387Y-0002333D01*
X0008221D01*
X0007971Y-0002833D01*
Y-0003333D01*
X0007687D02*
X0007354D01*
X0007521D02*
Y-0002333D01*
X0007687D02*
X0007354D01*
X0006321Y-0003333D02*
Y-0002333D01*
X0006237Y-0003333D02*
X0006737D01*
X0006904Y-0003000D01*
Y-0002667D01*
X0006737Y-0002333D01*
X0006237D01*
X0003150Y-0003333D02*
Y-0002333D01*
X0002983Y-0002500D01*
X0002817Y-0002833D01*
X0002650Y-0002500D01*
X0002483Y-0002333D01*
Y-0003333D01*
X0001867D02*
Y-0002833D01*
X0002200Y-0002333D02*
X0001950Y-0002833D01*
X0001783D01*
X0001533Y-0002333D01*
X0001250Y-0002500D02*
X0001167Y-0002333D01*
X0000667D01*
X0000583Y-0002500D01*
Y-0002667D01*
X0000667Y-0002833D01*
X0001167D01*
X0001250Y-0003000D01*
Y-0003167D01*
X0001167Y-0003333D01*
X0000667D01*
X0000583Y-0003167D01*
X0023437Y-0001333D02*
Y-0000333D01*
X0023771D02*
X0023104D01*
X0022571Y-0000833D02*
X0022821Y-0001333D01*
X0022154Y-0000833D02*
X0022654D01*
X0022821Y-0000667D01*
Y-0000500D01*
X0022654Y-0000333D01*
X0022154D01*
Y-0001333D01*
X0021871Y-0001000D02*
X0021204D01*
X0021871Y-0001333D02*
Y-0000833D01*
X0021621Y-0000333D01*
X0021454D01*
X0021204Y-0000833D01*
Y-0001333D01*
X0020921Y-0000833D02*
X0020254D01*
X0020921Y-0001333D02*
Y-0000333D01*
X0020254Y-0001333D02*
Y-0000333D01*
X0019971Y-0001167D02*
X0019887Y-0001333D01*
X0019387D01*
X0019304Y-0001167D01*
Y-0000500D01*
X0019387Y-0000333D01*
X0019887D01*
X0019971Y-0000500D01*
X0017696Y-0001333D02*
X0017112D01*
Y-0000333D01*
X0016829Y-0001333D02*
X0016246D01*
Y-0000333D01*
X0015962Y-0001333D02*
X0015629D01*
X0015796D02*
Y-0000333D01*
X0015962D02*
X0015629D01*
X0014929Y-0000833D02*
X0015179Y-0001333D01*
X0014512Y-0000833D02*
X0015012D01*
X0015179Y-0000667D01*
Y-0000500D01*
X0015012Y-0000333D01*
X0014512D01*
Y-0001333D01*
X0013646D02*
Y-0000333D01*
X0013562Y-0001333D02*
X0014062D01*
X0014229Y-0001000D01*
Y-0000667D01*
X0014062Y-0000333D01*
X0013562D01*
X0001575Y-0013500D02*
Y-0014000D01*
X0002075Y-0013500D02*
X0001575D01*
X0002075Y-0014000D02*
Y-0013500D01*
X0001575Y-0014000D02*
X0002075D01*
Y-0013500D02*
X0001575Y-0014000D01*
X0002075D02*
X0001575Y-0013500D01*
Y-0012000D02*
Y-0012500D01*
X0002075Y-0012000D02*
X0001575D01*
X0002075Y-0012500D02*
Y-0012000D01*
X0001575Y-0012500D02*
X0002075D01*
Y-0012250D02*
X0001575D01*
X0001825Y-0012000D02*
Y-0012500D01*
Y-0010500D02*
X0001575Y-0010750D01*
X0002075D02*
X0001825Y-0010500D01*
Y-0011000D02*
X0002075Y-0010750D01*
X0001575D02*
X0001825Y-0011000D01*
X0002075Y-0009250D02*
X0001575D01*
X0001825Y-0009000D02*
Y-0009500D01*
X0002075Y-0007500D02*
X0001575Y-0008000D01*
X0002075D02*
X0001575Y-0007500D01*
Y-0006150D02*
Y-0006350D01*
X0001725Y-0006000D02*
X0001575Y-0006150D01*
X0001925Y-0006000D02*
X0001725D01*
X0002075Y-0006150D02*
X0001925Y-0006000D01*
X0002075Y-0006350D02*
Y-0006150D01*
X0001925Y-0006500D02*
X0002075Y-0006350D01*
X0001725Y-0006500D02*
X0001925D01*
X0001575Y-0006350D02*
X0001725Y-0006500D01*
X0001575Y-0004500D02*
Y-0004750D01*
X0001825Y-0004500D02*
X0001575D01*
X0001825Y-0005000D02*
Y-0004500D01*
X0002075Y-0005000D02*
X0001825D01*
X0002075Y-0004750D02*
Y-0005000D01*
X0001575Y-0004750D02*
X0002075D01*
X0037300Y-0016550D02*
X-0000050D01*
X0037250Y-0016500D02*
X0000000D01*
X0037250Y-0014500D02*
X0000000D01*
X0037250Y-0013000D02*
X0000000D01*
X0037250Y-0011500D02*
X0000000D01*
X0037250Y-0010000D02*
X0000000D01*
X0037250Y-0008500D02*
X0000000D01*
X0037250Y-0007000D02*
X0000000D01*
X0037250Y-0005500D02*
X0000000D01*
X0037250Y-0004000D02*
X0000000D01*
X0037250Y-0003950D02*
X0000000D01*
X0037250Y-0002000D02*
X0000000D01*
X0037250Y-0001950D02*
X0000000D01*
X0037250Y0000000D02*
X0000000D01*
X0037300Y0000050D02*
X-0000050D01*
X0037300Y-0016500D02*
Y0000000D01*
X0037250Y-0016500D02*
Y0000000D01*
X0025708Y-0016500D02*
Y-0002000D01*
X0020158Y-0016500D02*
Y-0002000D01*
X0012092Y-0014500D02*
Y-0002000D01*
X0003700Y-0014500D02*
Y-0002000D01*
X0003650Y-0014500D02*
Y-0002000D01*
X-0000050Y-0016500D02*
Y0000000D01*
X0000000Y-0016500D02*
Y0000000D01*
X0001800Y0008145D02*
Y0007895D01*
X0002050Y0008145D02*
X0001800D01*
X0002050Y0007645D02*
Y0008145D01*
X0002300Y0007645D02*
X0002050D01*
X0002300Y0007895D02*
Y0007645D01*
X0001800Y0007895D02*
X0002300D01*
X0002880Y0008355D02*
Y0008105D01*
X0003130Y0008355D02*
X0002880D01*
X0003130Y0007855D02*
Y0008355D01*
X0003380Y0007855D02*
X0003130D01*
X0003380Y0008105D02*
Y0007855D01*
X0002880Y0008105D02*
X0003380D01*
X0000515Y0006490D02*
Y0006240D01*
X0000765Y0006490D02*
X0000515D01*
X0000765Y0005990D02*
Y0006490D01*
X0001015Y0005990D02*
X0000765D01*
X0001015Y0006240D02*
Y0005990D01*
X0000515Y0006240D02*
X0001015D01*
X0005020Y0009365D02*
Y0009115D01*
X0005270Y0009365D02*
X0005020D01*
X0005270Y0008865D02*
Y0009365D01*
X0005520Y0008865D02*
X0005270D01*
X0005520Y0009115D02*
Y0008865D01*
X0005020Y0009115D02*
X0005520D01*
X0003855Y0009365D02*
Y0009115D01*
X0004105Y0009365D02*
X0003855D01*
X0004105Y0008865D02*
Y0009365D01*
X0004355Y0008865D02*
X0004105D01*
X0004355Y0009115D02*
Y0008865D01*
X0003855Y0009115D02*
X0004355D01*
X0005685Y0004730D02*
Y0004480D01*
X0005935Y0004730D02*
X0005685D01*
X0005935Y0004230D02*
Y0004730D01*
X0006185Y0004230D02*
X0005935D01*
X0006185Y0004480D02*
Y0004230D01*
X0005685Y0004480D02*
X0006185D01*
X0001115Y0005780D02*
Y0005530D01*
X0001365Y0005780D02*
X0001115D01*
X0001365Y0005280D02*
Y0005780D01*
X0001615Y0005280D02*
X0001365D01*
X0001615Y0005530D02*
Y0005280D01*
X0001115Y0005530D02*
X0001615D01*
X0004165Y0005295D02*
Y0005045D01*
X0004415Y0005295D02*
X0004165D01*
X0004415Y0004795D02*
Y0005295D01*
X0004665Y0004795D02*
X0004415D01*
X0004665Y0005045D02*
Y0004795D01*
X0004165Y0005045D02*
X0004665D01*
X0002160Y0005205D02*
Y0004955D01*
X0002410Y0005205D02*
X0002160D01*
X0002410Y0004705D02*
Y0005205D01*
X0002660Y0004705D02*
X0002410D01*
X0002660Y0004955D02*
Y0004705D01*
X0002160Y0004955D02*
X0002660D01*
X0001535Y0008030D02*
Y0007780D01*
X0001785Y0008030D02*
X0001535D01*
X0001785Y0007530D02*
Y0008030D01*
X0002035Y0007530D02*
X0001785D01*
X0002035Y0007780D02*
Y0007530D01*
X0001535Y0007780D02*
X0002035D01*
X0003495Y0004285D02*
Y0004035D01*
X0003745Y0004285D02*
X0003495D01*
X0003745Y0003785D02*
Y0004285D01*
X0003995Y0003785D02*
X0003745D01*
X0003995Y0004035D02*
Y0003785D01*
X0003495Y0004035D02*
X0003995D01*
X0004660Y0008890D02*
Y0008640D01*
X0004910Y0008890D02*
X0004660D01*
X0004910Y0008390D02*
Y0008890D01*
X0005160Y0008390D02*
X0004910D01*
X0005160Y0008640D02*
Y0008390D01*
X0004660Y0008640D02*
X0005160D01*
X0004200Y0006650D02*
Y0006400D01*
X0004450Y0006650D02*
X0004200D01*
X0004450Y0006150D02*
Y0006650D01*
X0004700Y0006150D02*
X0004450D01*
X0004700Y0006400D02*
Y0006150D01*
X0004200Y0006400D02*
X0004700D01*
X0000875Y0007150D02*
Y0006900D01*
X0001125Y0007150D02*
X0000875D01*
X0001125Y0006650D02*
Y0007150D01*
X0001375Y0006650D02*
X0001125D01*
X0001375Y0006900D02*
Y0006650D01*
X0000875Y0006900D02*
X0001375D01*
X0002815Y0004060D02*
Y0003810D01*
X0003065Y0004060D02*
X0002815D01*
X0003065Y0003560D02*
Y0004060D01*
X0003315Y0003560D02*
X0003065D01*
X0003315Y0003810D02*
Y0003560D01*
X0002815Y0003810D02*
X0003315D01*
X0005380Y0009095D02*
Y0008845D01*
X0005630Y0009095D02*
X0005380D01*
X0005630Y0008595D02*
Y0009095D01*
X0005880Y0008595D02*
X0005630D01*
X0005880Y0008845D02*
Y0008595D01*
X0005380Y0008845D02*
X0005880D01*
X0006630Y0010540D02*
Y0010290D01*
X0006880Y0010540D02*
X0006630D01*
X0006880Y0010040D02*
Y0010540D01*
X0007130Y0010040D02*
X0006880D01*
X0007130Y0010290D02*
Y0010040D01*
X0006630Y0010290D02*
X0007130D01*
X0007475Y0010525D02*
Y0010275D01*
X0007725Y0010525D02*
X0007475D01*
X0007725Y0010025D02*
Y0010525D01*
X0007975Y0010025D02*
X0007725D01*
X0007975Y0010275D02*
Y0010025D01*
X0007475Y0010275D02*
X0007975D01*
X0007470Y0010990D02*
Y0010740D01*
X0007720Y0010990D02*
X0007470D01*
X0007720Y0010490D02*
Y0010990D01*
X0007970Y0010490D02*
X0007720D01*
X0007970Y0010740D02*
Y0010490D01*
X0007470Y0010740D02*
X0007970D01*
X0006665Y0010990D02*
Y0010740D01*
X0006915Y0010990D02*
X0006665D01*
X0006915Y0010490D02*
Y0010990D01*
X0007165Y0010490D02*
X0006915D01*
X0007165Y0010740D02*
Y0010490D01*
X0006665Y0010740D02*
X0007165D01*
X0005665Y0011225D02*
Y0010975D01*
X0005915Y0011225D02*
X0005665D01*
X0005915Y0010725D02*
Y0011225D01*
X0006165Y0010725D02*
X0005915D01*
X0006165Y0010975D02*
Y0010725D01*
X0005665Y0010975D02*
X0006165D01*
X0005500Y0011810D02*
Y0011560D01*
X0005750Y0011810D02*
X0005500D01*
X0005750Y0011310D02*
Y0011810D01*
X0006000Y0011310D02*
X0005750D01*
X0006000Y0011560D02*
Y0011310D01*
X0005500Y0011560D02*
X0006000D01*
X0005030Y0010685D02*
Y0010435D01*
X0005280Y0010685D02*
X0005030D01*
X0005280Y0010185D02*
Y0010685D01*
X0005530Y0010185D02*
X0005280D01*
X0005530Y0010435D02*
Y0010185D01*
X0005030Y0010435D02*
X0005530D01*
X0005495Y0010685D02*
Y0010435D01*
X0005745Y0010685D02*
X0005495D01*
X0005745Y0010185D02*
Y0010685D01*
X0005995Y0010185D02*
X0005745D01*
X0005995Y0010435D02*
Y0010185D01*
X0005495Y0010435D02*
X0005995D01*
X0006290Y0010075D02*
Y0009825D01*
X0006540Y0010075D02*
X0006290D01*
X0006540Y0009575D02*
Y0010075D01*
X0006790Y0009575D02*
X0006540D01*
X0006790Y0009825D02*
Y0009575D01*
X0006290Y0009825D02*
X0006790D01*
X0006590Y0009790D02*
Y0009540D01*
X0006840Y0009790D02*
X0006590D01*
X0006840Y0009290D02*
Y0009790D01*
X0007090Y0009290D02*
X0006840D01*
X0007090Y0009540D02*
Y0009290D01*
X0006590Y0009540D02*
X0007090D01*
X0006785Y0010075D02*
Y0009825D01*
X0007035Y0010075D02*
X0006785D01*
X0007035Y0009575D02*
Y0010075D01*
X0007285Y0009575D02*
X0007035D01*
X0007285Y0009825D02*
Y0009575D01*
X0006785Y0009825D02*
X0007285D01*
X0006985Y0009760D02*
Y0009510D01*
X0007235Y0009760D02*
X0006985D01*
X0007235Y0009260D02*
Y0009760D01*
X0007485Y0009260D02*
X0007235D01*
X0007485Y0009510D02*
Y0009260D01*
X0006985Y0009510D02*
X0007485D01*
X0006985Y0009405D02*
Y0009155D01*
X0007235Y0009405D02*
X0006985D01*
X0007235Y0008905D02*
Y0009405D01*
X0007485Y0008905D02*
X0007235D01*
X0007485Y0009155D02*
Y0008905D01*
X0006985Y0009155D02*
X0007485D01*
X0007320Y0010005D02*
Y0009755D01*
X0007570Y0010005D02*
X0007320D01*
X0007570Y0009505D02*
Y0010005D01*
X0007820Y0009505D02*
X0007570D01*
X0007820Y0009755D02*
Y0009505D01*
X0007320Y0009755D02*
X0007820D01*
X0000260Y0001950D02*
Y0001700D01*
X0000510Y0001950D02*
X0000260D01*
X0000510Y0001450D02*
Y0001950D01*
X0000760Y0001450D02*
X0000510D01*
X0000760Y0001700D02*
Y0001450D01*
X0000260Y0001700D02*
X0000760D01*
X0000235Y0005810D02*
Y0005560D01*
X0000485Y0005810D02*
X0000235D01*
X0000485Y0005310D02*
Y0005810D01*
X0000735Y0005310D02*
X0000485D01*
X0000735Y0005560D02*
Y0005310D01*
X0000235Y0005560D02*
X0000735D01*
X0000040Y0004375D02*
Y0004125D01*
X0000290Y0004375D02*
X0000040D01*
X0000290Y0003875D02*
Y0004375D01*
X0000540Y0003875D02*
X0000290D01*
X0000540Y0004125D02*
Y0003875D01*
X0000040Y0004125D02*
X0000540D01*
X0005850Y0001640D02*
Y0001390D01*
X0006100Y0001640D02*
X0005850D01*
X0006100Y0001140D02*
Y0001640D01*
X0006350Y0001140D02*
X0006100D01*
X0006350Y0001390D02*
Y0001140D01*
X0005850Y0001390D02*
X0006350D01*
X0014265Y0001665D02*
Y0001415D01*
X0014515Y0001665D02*
X0014265D01*
X0014515Y0001165D02*
Y0001665D01*
X0014765Y0001165D02*
X0014515D01*
X0014765Y0001415D02*
Y0001165D01*
X0014265Y0001415D02*
X0014765D01*
X0006865Y0001640D02*
Y0001390D01*
X0007115Y0001640D02*
X0006865D01*
X0007115Y0001140D02*
Y0001640D01*
X0007365Y0001140D02*
X0007115D01*
X0007365Y0001390D02*
Y0001140D01*
X0006865Y0001390D02*
X0007365D01*
X0010045Y0001855D02*
Y0001605D01*
X0010295Y0001855D02*
X0010045D01*
X0010295Y0001355D02*
Y0001855D01*
X0010545Y0001355D02*
X0010295D01*
X0010545Y0001605D02*
Y0001355D01*
X0010045Y0001605D02*
X0010545D01*
X0011080Y0001865D02*
Y0001615D01*
X0011330Y0001865D02*
X0011080D01*
X0011330Y0001365D02*
Y0001865D01*
X0011580Y0001365D02*
X0011330D01*
X0011580Y0001615D02*
Y0001365D01*
X0011080Y0001615D02*
X0011580D01*
X0013365Y0002330D02*
Y0002080D01*
X0013615Y0002330D02*
X0013365D01*
X0013615Y0001830D02*
Y0002330D01*
X0013865Y0001830D02*
X0013615D01*
X0013865Y0002080D02*
Y0001830D01*
X0013365Y0002080D02*
X0013865D01*
X0009330Y0003325D02*
Y0003075D01*
X0009580Y0003325D02*
X0009330D01*
X0009580Y0002825D02*
Y0003325D01*
X0009830Y0002825D02*
X0009580D01*
X0009830Y0003075D02*
Y0002825D01*
X0009330Y0003075D02*
X0009830D01*
X0010030Y0003320D02*
Y0003070D01*
X0010280Y0003320D02*
X0010030D01*
X0010280Y0002820D02*
Y0003320D01*
X0010530Y0002820D02*
X0010280D01*
X0010530Y0003070D02*
Y0002820D01*
X0010030Y0003070D02*
X0010530D01*
X0011070Y0003320D02*
Y0003070D01*
X0011320Y0003320D02*
X0011070D01*
X0011320Y0002820D02*
Y0003320D01*
X0011570Y0002820D02*
X0011320D01*
X0011570Y0003070D02*
Y0002820D01*
X0011070Y0003070D02*
X0011570D01*
X0012940Y0003320D02*
Y0003070D01*
X0013190Y0003320D02*
X0012940D01*
X0013190Y0002820D02*
Y0003320D01*
X0013440Y0002820D02*
X0013190D01*
X0013440Y0003070D02*
Y0002820D01*
X0012940Y0003070D02*
X0013440D01*
X0012275Y0004325D02*
Y0004075D01*
X0012525Y0004325D02*
X0012275D01*
X0012525Y0003825D02*
Y0004325D01*
X0012775Y0003825D02*
X0012525D01*
X0012775Y0004075D02*
Y0003825D01*
X0012275Y0004075D02*
X0012775D01*
X0013305Y0004325D02*
Y0004075D01*
X0013555Y0004325D02*
X0013305D01*
X0013555Y0003825D02*
Y0004325D01*
X0013805Y0003825D02*
X0013555D01*
X0013805Y0004075D02*
Y0003825D01*
X0013305Y0004075D02*
X0013805D01*
X0011500Y0008840D02*
Y0008590D01*
X0011750Y0008840D02*
X0011500D01*
X0011750Y0008340D02*
Y0008840D01*
X0012000Y0008340D02*
X0011750D01*
X0012000Y0008590D02*
Y0008340D01*
X0011500Y0008590D02*
X0012000D01*
X0006445Y0011875D02*
Y0011625D01*
X0006695Y0011875D02*
X0006445D01*
X0006695Y0011375D02*
Y0011875D01*
X0006945Y0011375D02*
X0006695D01*
X0006945Y0011625D02*
Y0011375D01*
X0006445Y0011625D02*
X0006945D01*
X0006445Y0012475D02*
Y0012225D01*
X0006695Y0012475D02*
X0006445D01*
X0006695Y0011975D02*
Y0012475D01*
X0006945Y0011975D02*
X0006695D01*
X0006945Y0012225D02*
Y0011975D01*
X0006445Y0012225D02*
X0006945D01*
X0005165Y0011030D02*
Y0010780D01*
X0005415Y0011030D02*
X0005165D01*
X0005415Y0010530D02*
Y0011030D01*
X0005665Y0010530D02*
X0005415D01*
X0005665Y0010780D02*
Y0010530D01*
X0005165Y0010780D02*
X0005665D01*
X0002005Y0008105D02*
Y0007855D01*
X0002255Y0008105D02*
X0002005D01*
X0002255Y0007605D02*
Y0008105D01*
X0002505Y0007605D02*
X0002255D01*
X0002505Y0007855D02*
Y0007605D01*
X0002005Y0007855D02*
X0002505D01*
X0001185Y0002725D02*
Y0002475D01*
X0001435Y0002725D02*
X0001185D01*
X0001435Y0002225D02*
Y0002725D01*
X0001685Y0002225D02*
X0001435D01*
X0001685Y0002475D02*
Y0002225D01*
X0001185Y0002475D02*
X0001685D01*
X0002010Y0003740D02*
Y0003490D01*
X0002260Y0003740D02*
X0002010D01*
X0002260Y0003240D02*
Y0003740D01*
X0002510Y0003240D02*
X0002260D01*
X0002510Y0003490D02*
Y0003240D01*
X0002010Y0003490D02*
X0002510D01*
X0001175Y0003835D02*
Y0003585D01*
X0001425Y0003835D02*
X0001175D01*
X0001425Y0003335D02*
Y0003835D01*
X0001675Y0003335D02*
X0001425D01*
X0001675Y0003585D02*
Y0003335D01*
X0001175Y0003585D02*
X0001675D01*
X0001205Y0004370D02*
Y0004120D01*
X0001455Y0004370D02*
X0001205D01*
X0001455Y0003870D02*
Y0004370D01*
X0001705Y0003870D02*
X0001455D01*
X0001705Y0004120D02*
Y0003870D01*
X0001205Y0004120D02*
X0001705D01*
X0002065Y0004330D02*
Y0004080D01*
X0002315Y0004330D02*
X0002065D01*
X0002315Y0003830D02*
Y0004330D01*
X0002565Y0003830D02*
X0002315D01*
X0002565Y0004080D02*
Y0003830D01*
X0002065Y0004080D02*
X0002565D01*
X0000665Y0005365D02*
Y0005115D01*
X0000915Y0005365D02*
X0000665D01*
X0000915Y0004865D02*
Y0005365D01*
X0001165Y0004865D02*
X0000915D01*
X0001165Y0005115D02*
Y0004865D01*
X0000665Y0005115D02*
X0001165D01*
X0003190Y0004055D02*
Y0003805D01*
X0003440Y0004055D02*
X0003190D01*
X0003440Y0003555D02*
Y0004055D01*
X0003690Y0003555D02*
X0003440D01*
X0003690Y0003805D02*
Y0003555D01*
X0003190Y0003805D02*
X0003690D01*
X0003740Y0003835D02*
Y0003585D01*
X0003990Y0003835D02*
X0003740D01*
X0003990Y0003335D02*
Y0003835D01*
X0004240Y0003335D02*
X0003990D01*
X0004240Y0003585D02*
Y0003335D01*
X0003740Y0003585D02*
X0004240D01*
X0003250Y0005195D02*
Y0004945D01*
X0003500Y0005195D02*
X0003250D01*
X0003500Y0004695D02*
Y0005195D01*
X0003750Y0004695D02*
X0003500D01*
X0003750Y0004945D02*
Y0004695D01*
X0003250Y0004945D02*
X0003750D01*
X0004675Y0005615D02*
Y0005365D01*
X0004925Y0005615D02*
X0004675D01*
X0004925Y0005115D02*
Y0005615D01*
X0005175Y0005115D02*
X0004925D01*
X0005175Y0005365D02*
Y0005115D01*
X0004675Y0005365D02*
X0005175D01*
X0003915Y0005660D02*
Y0005410D01*
X0004165Y0005660D02*
X0003915D01*
X0004165Y0005160D02*
Y0005660D01*
X0004415Y0005160D02*
X0004165D01*
X0004415Y0005410D02*
Y0005160D01*
X0003915Y0005410D02*
X0004415D01*
X0004245Y0006060D02*
Y0005810D01*
X0004495Y0006060D02*
X0004245D01*
X0004495Y0005560D02*
Y0006060D01*
X0004745Y0005560D02*
X0004495D01*
X0004745Y0005810D02*
Y0005560D01*
X0004245Y0005810D02*
X0004745D01*
X0002835Y0006775D02*
Y0006525D01*
X0003085Y0006775D02*
X0002835D01*
X0003085Y0006275D02*
Y0006775D01*
X0003335Y0006275D02*
X0003085D01*
X0003335Y0006525D02*
Y0006275D01*
X0002835Y0006525D02*
X0003335D01*
X0002925Y0007475D02*
Y0007225D01*
X0003175Y0007475D02*
X0002925D01*
X0003175Y0006975D02*
Y0007475D01*
X0003425Y0006975D02*
X0003175D01*
X0003425Y0007225D02*
Y0006975D01*
X0002925Y0007225D02*
X0003425D01*
X0003875Y0008110D02*
Y0007860D01*
X0004125Y0008110D02*
X0003875D01*
X0004125Y0007610D02*
Y0008110D01*
X0004375Y0007610D02*
X0004125D01*
X0004375Y0007860D02*
Y0007610D01*
X0003875Y0007860D02*
X0004375D01*
X0005190Y0006230D02*
Y0005980D01*
X0005440Y0006230D02*
X0005190D01*
X0005440Y0005730D02*
Y0006230D01*
X0005690Y0005730D02*
X0005440D01*
X0005690Y0005980D02*
Y0005730D01*
X0005190Y0005980D02*
X0005690D01*
X0005185Y0007110D02*
Y0006860D01*
X0005435Y0007110D02*
X0005185D01*
X0005435Y0006610D02*
Y0007110D01*
X0005685Y0006610D02*
X0005435D01*
X0005685Y0006860D02*
Y0006610D01*
X0005185Y0006860D02*
X0005685D01*
X0004830Y0007475D02*
Y0007225D01*
X0005080Y0007475D02*
X0004830D01*
X0005080Y0006975D02*
Y0007475D01*
X0005330Y0006975D02*
X0005080D01*
X0005330Y0007225D02*
Y0006975D01*
X0004830Y0007225D02*
X0005330D01*
X0005195Y0007705D02*
Y0007455D01*
X0005445Y0007705D02*
X0005195D01*
X0005445Y0007205D02*
Y0007705D01*
X0005695Y0007205D02*
X0005445D01*
X0005695Y0007455D02*
Y0007205D01*
X0005195Y0007455D02*
X0005695D01*
X0004825Y0008075D02*
Y0007825D01*
X0005075Y0008075D02*
X0004825D01*
X0005075Y0007575D02*
Y0008075D01*
X0005325Y0007575D02*
X0005075D01*
X0005325Y0007825D02*
Y0007575D01*
X0004825Y0007825D02*
X0005325D01*
X0005575Y0004070D02*
Y0003820D01*
X0005825Y0004070D02*
X0005575D01*
X0005825Y0003570D02*
Y0004070D01*
X0006075Y0003570D02*
X0005825D01*
X0006075Y0003820D02*
Y0003570D01*
X0005575Y0003820D02*
X0006075D01*
X0006250Y0004435D02*
Y0004185D01*
X0006500Y0004435D02*
X0006250D01*
X0006500Y0003935D02*
Y0004435D01*
X0006750Y0003935D02*
X0006500D01*
X0006750Y0004185D02*
Y0003935D01*
X0006250Y0004185D02*
X0006750D01*
X0006275Y0006990D02*
Y0006740D01*
X0006525Y0006990D02*
X0006275D01*
X0006525Y0006490D02*
Y0006990D01*
X0006775Y0006490D02*
X0006525D01*
X0006775Y0006740D02*
Y0006490D01*
X0006275Y0006740D02*
X0006775D01*
X0005740Y0006990D02*
Y0006740D01*
X0005990Y0006990D02*
X0005740D01*
X0005990Y0006490D02*
Y0006990D01*
X0006240Y0006490D02*
X0005990D01*
X0006240Y0006740D02*
Y0006490D01*
X0005740Y0006740D02*
X0006240D01*
X0005735Y0007770D02*
Y0007520D01*
X0005985Y0007770D02*
X0005735D01*
X0005985Y0007270D02*
Y0007770D01*
X0006235Y0007270D02*
X0005985D01*
X0006235Y0007520D02*
Y0007270D01*
X0005735Y0007520D02*
X0006235D01*
X0005570Y0005600D02*
Y0005350D01*
X0005820Y0005600D02*
X0005570D01*
X0005820Y0005100D02*
Y0005600D01*
X0006070Y0005100D02*
X0005820D01*
X0006070Y0005350D02*
Y0005100D01*
X0005570Y0005350D02*
X0006070D01*
X0006255Y0003655D02*
Y0003405D01*
X0006505Y0003655D02*
X0006255D01*
X0006505Y0003155D02*
Y0003655D01*
X0006755Y0003155D02*
X0006505D01*
X0006755Y0003405D02*
Y0003155D01*
X0006255Y0003405D02*
X0006755D01*
X0004350Y0004360D02*
Y0004110D01*
X0004600Y0004360D02*
X0004350D01*
X0004600Y0003860D02*
Y0004360D01*
X0004850Y0003860D02*
X0004600D01*
X0004850Y0004110D02*
Y0003860D01*
X0004350Y0004110D02*
X0004850D01*
X0004950Y0003915D02*
Y0003665D01*
X0005200Y0003915D02*
X0004950D01*
X0005200Y0003415D02*
Y0003915D01*
X0005450Y0003415D02*
X0005200D01*
X0005450Y0003665D02*
Y0003415D01*
X0004950Y0003665D02*
X0005450D01*
X0004880Y0004915D02*
Y0004665D01*
X0005130Y0004915D02*
X0004880D01*
X0005130Y0004415D02*
Y0004915D01*
X0005380Y0004415D02*
X0005130D01*
X0005380Y0004665D02*
Y0004415D01*
X0004880Y0004665D02*
X0005380D01*
X0006845Y0003420D02*
Y0003170D01*
X0007095Y0003420D02*
X0006845D01*
X0007095Y0002920D02*
Y0003420D01*
X0007345Y0002920D02*
X0007095D01*
X0007345Y0003170D02*
Y0002920D01*
X0006845Y0003170D02*
X0007345D01*
X0006845Y0003975D02*
Y0003725D01*
X0007095Y0003975D02*
X0006845D01*
X0007095Y0003475D02*
Y0003975D01*
X0007345Y0003475D02*
X0007095D01*
X0007345Y0003725D02*
Y0003475D01*
X0006845Y0003725D02*
X0007345D01*
X0006845Y0004495D02*
Y0004245D01*
X0007095Y0004495D02*
X0006845D01*
X0007095Y0003995D02*
Y0004495D01*
X0007345Y0003995D02*
X0007095D01*
X0007345Y0004245D02*
Y0003995D01*
X0006845Y0004245D02*
X0007345D01*
X0006845Y0004950D02*
Y0004700D01*
X0007095Y0004950D02*
X0006845D01*
X0007095Y0004450D02*
Y0004950D01*
X0007345Y0004450D02*
X0007095D01*
X0007345Y0004700D02*
Y0004450D01*
X0006845Y0004700D02*
X0007345D01*
X0007185Y0005495D02*
Y0005245D01*
X0007435Y0005495D02*
X0007185D01*
X0007435Y0004995D02*
Y0005495D01*
X0007685Y0004995D02*
X0007435D01*
X0007685Y0005245D02*
Y0004995D01*
X0007185Y0005245D02*
X0007685D01*
X0007185Y0005820D02*
Y0005570D01*
X0007435Y0005820D02*
X0007185D01*
X0007435Y0005320D02*
Y0005820D01*
X0007685Y0005320D02*
X0007435D01*
X0007685Y0005570D02*
Y0005320D01*
X0007185Y0005570D02*
X0007685D01*
X0006845Y0005495D02*
Y0005245D01*
X0007095Y0005495D02*
X0006845D01*
X0007095Y0004995D02*
Y0005495D01*
X0007345Y0004995D02*
X0007095D01*
X0007345Y0005245D02*
Y0004995D01*
X0006845Y0005245D02*
X0007345D01*
X0006845Y0005820D02*
Y0005570D01*
X0007095Y0005820D02*
X0006845D01*
X0007095Y0005320D02*
Y0005820D01*
X0007345Y0005320D02*
X0007095D01*
X0007345Y0005570D02*
Y0005320D01*
X0006845Y0005570D02*
X0007345D01*
X0007195Y0006210D02*
Y0005960D01*
X0007445Y0006210D02*
X0007195D01*
X0007445Y0005710D02*
Y0006210D01*
X0007695Y0005710D02*
X0007445D01*
X0007695Y0005960D02*
Y0005710D01*
X0007195Y0005960D02*
X0007695D01*
X0007435Y0005965D02*
Y0005715D01*
X0007685Y0005965D02*
X0007435D01*
X0007685Y0005465D02*
Y0005965D01*
X0007935Y0005465D02*
X0007685D01*
X0007935Y0005715D02*
Y0005465D01*
X0007435Y0005715D02*
X0007935D01*
X0006845Y0006165D02*
Y0005915D01*
X0007095Y0006165D02*
X0006845D01*
X0007095Y0005665D02*
Y0006165D01*
X0007345Y0005665D02*
X0007095D01*
X0007345Y0005915D02*
Y0005665D01*
X0006845Y0005915D02*
X0007345D01*
X0006845Y0006510D02*
Y0006260D01*
X0007095Y0006510D02*
X0006845D01*
X0007095Y0006010D02*
Y0006510D01*
X0007345Y0006010D02*
X0007095D01*
X0007345Y0006260D02*
Y0006010D01*
X0006845Y0006260D02*
X0007345D01*
X0007745Y0006355D02*
Y0006105D01*
X0007995Y0006355D02*
X0007745D01*
X0007995Y0005855D02*
Y0006355D01*
X0008245Y0005855D02*
X0007995D01*
X0008245Y0006105D02*
Y0005855D01*
X0007745Y0006105D02*
X0008245D01*
X0007475Y0006625D02*
Y0006375D01*
X0007725Y0006625D02*
X0007475D01*
X0007725Y0006125D02*
Y0006625D01*
X0007975Y0006125D02*
X0007725D01*
X0007975Y0006375D02*
Y0006125D01*
X0007475Y0006375D02*
X0007975D01*
X0007080Y0006935D02*
Y0006685D01*
X0007330Y0006935D02*
X0007080D01*
X0007330Y0006435D02*
Y0006935D01*
X0007580Y0006435D02*
X0007330D01*
X0007580Y0006685D02*
Y0006435D01*
X0007080Y0006685D02*
X0007580D01*
X0006840Y0006850D02*
Y0006600D01*
X0007090Y0006850D02*
X0006840D01*
X0007090Y0006350D02*
Y0006850D01*
X0007340Y0006350D02*
X0007090D01*
X0007340Y0006600D02*
Y0006350D01*
X0006840Y0006600D02*
X0007340D01*
X0007235Y0007235D02*
Y0006985D01*
X0007485Y0007235D02*
X0007235D01*
X0007485Y0006735D02*
Y0007235D01*
X0007735Y0006735D02*
X0007485D01*
X0007735Y0006985D02*
Y0006735D01*
X0007235Y0006985D02*
X0007735D01*
X0009345Y0007215D02*
Y0006965D01*
X0009595Y0007215D02*
X0009345D01*
X0009595Y0006715D02*
Y0007215D01*
X0009845Y0006715D02*
X0009595D01*
X0009845Y0006965D02*
Y0006715D01*
X0009345Y0006965D02*
X0009845D01*
X0008995Y0007215D02*
Y0006965D01*
X0009245Y0007215D02*
X0008995D01*
X0009245Y0006715D02*
Y0007215D01*
X0009495Y0006715D02*
X0009245D01*
X0009495Y0006965D02*
Y0006715D01*
X0008995Y0006965D02*
X0009495D01*
X0008340Y0007215D02*
Y0006965D01*
X0008590Y0007215D02*
X0008340D01*
X0008590Y0006715D02*
Y0007215D01*
X0008840Y0006715D02*
X0008590D01*
X0008840Y0006965D02*
Y0006715D01*
X0008340Y0006965D02*
X0008840D01*
X0008010Y0007215D02*
Y0006965D01*
X0008260Y0007215D02*
X0008010D01*
X0008260Y0006715D02*
Y0007215D01*
X0008510Y0006715D02*
X0008260D01*
X0008510Y0006965D02*
Y0006715D01*
X0008010Y0006965D02*
X0008510D01*
X0008675Y0007215D02*
Y0006965D01*
X0008925Y0007215D02*
X0008675D01*
X0008925Y0006715D02*
Y0007215D01*
X0009175Y0006715D02*
X0008925D01*
X0009175Y0006965D02*
Y0006715D01*
X0008675Y0006965D02*
X0009175D01*
X0008335Y0006885D02*
Y0006635D01*
X0008585Y0006885D02*
X0008335D01*
X0008585Y0006385D02*
Y0006885D01*
X0008835Y0006385D02*
X0008585D01*
X0008835Y0006635D02*
Y0006385D01*
X0008335Y0006635D02*
X0008835D01*
X0009015Y0006885D02*
Y0006635D01*
X0009265Y0006885D02*
X0009015D01*
X0009265Y0006385D02*
Y0006885D01*
X0009515Y0006385D02*
X0009265D01*
X0009515Y0006635D02*
Y0006385D01*
X0009015Y0006635D02*
X0009515D01*
X0009015Y0007550D02*
Y0007300D01*
X0009265Y0007550D02*
X0009015D01*
X0009265Y0007050D02*
Y0007550D01*
X0009515Y0007050D02*
X0009265D01*
X0009515Y0007300D02*
Y0007050D01*
X0009015Y0007300D02*
X0009515D01*
X0009015Y0007885D02*
Y0007635D01*
X0009265Y0007885D02*
X0009015D01*
X0009265Y0007385D02*
Y0007885D01*
X0009515Y0007385D02*
X0009265D01*
X0009515Y0007635D02*
Y0007385D01*
X0009015Y0007635D02*
X0009515D01*
X0009010Y0008215D02*
Y0007965D01*
X0009260Y0008215D02*
X0009010D01*
X0009260Y0007715D02*
Y0008215D01*
X0009510Y0007715D02*
X0009260D01*
X0009510Y0007965D02*
Y0007715D01*
X0009010Y0007965D02*
X0009510D01*
X0008330Y0007885D02*
Y0007635D01*
X0008580Y0007885D02*
X0008330D01*
X0008580Y0007385D02*
Y0007885D01*
X0008830Y0007385D02*
X0008580D01*
X0008830Y0007635D02*
Y0007385D01*
X0008330Y0007635D02*
X0008830D01*
X0008335Y0008215D02*
Y0007965D01*
X0008585Y0008215D02*
X0008335D01*
X0008585Y0007715D02*
Y0008215D01*
X0008835Y0007715D02*
X0008585D01*
X0008835Y0007965D02*
Y0007715D01*
X0008335Y0007965D02*
X0008835D01*
X0008330Y0007550D02*
Y0007300D01*
X0008580Y0007550D02*
X0008330D01*
X0008580Y0007050D02*
Y0007550D01*
X0008830Y0007050D02*
X0008580D01*
X0008830Y0007300D02*
Y0007050D01*
X0008330Y0007300D02*
X0008830D01*
X0008010Y0007885D02*
Y0007635D01*
X0008260Y0007885D02*
X0008010D01*
X0008260Y0007385D02*
Y0007885D01*
X0008510Y0007385D02*
X0008260D01*
X0008510Y0007635D02*
Y0007385D01*
X0008010Y0007635D02*
X0008510D01*
X0009340Y0007885D02*
Y0007635D01*
X0009590Y0007885D02*
X0009340D01*
X0009590Y0007385D02*
Y0007885D01*
X0009840Y0007385D02*
X0009590D01*
X0009840Y0007635D02*
Y0007385D01*
X0009340Y0007635D02*
X0009840D01*
X0008675Y0007885D02*
Y0007635D01*
X0008925Y0007885D02*
X0008675D01*
X0008925Y0007385D02*
Y0007885D01*
X0009175Y0007385D02*
X0008925D01*
X0009175Y0007635D02*
Y0007385D01*
X0008675Y0007635D02*
X0009175D01*
X0009340Y0007550D02*
Y0007300D01*
X0009590Y0007550D02*
X0009340D01*
X0009590Y0007050D02*
Y0007550D01*
X0009840Y0007050D02*
X0009590D01*
X0009840Y0007300D02*
Y0007050D01*
X0009340Y0007300D02*
X0009840D01*
X0009340Y0008215D02*
Y0007965D01*
X0009590Y0008215D02*
X0009340D01*
X0009590Y0007715D02*
Y0008215D01*
X0009840Y0007715D02*
X0009590D01*
X0009840Y0007965D02*
Y0007715D01*
X0009340Y0007965D02*
X0009840D01*
X0008010Y0007550D02*
Y0007300D01*
X0008260Y0007550D02*
X0008010D01*
X0008260Y0007050D02*
Y0007550D01*
X0008510Y0007050D02*
X0008260D01*
X0008510Y0007300D02*
Y0007050D01*
X0008010Y0007300D02*
X0008510D01*
X0008675Y0007550D02*
Y0007300D01*
X0008925Y0007550D02*
X0008675D01*
X0008925Y0007050D02*
Y0007550D01*
X0009175Y0007050D02*
X0008925D01*
X0009175Y0007300D02*
Y0007050D01*
X0008675Y0007300D02*
X0009175D01*
X0009345Y0006885D02*
Y0006635D01*
X0009595Y0006885D02*
X0009345D01*
X0009595Y0006385D02*
Y0006885D01*
X0009845Y0006385D02*
X0009595D01*
X0009845Y0006635D02*
Y0006385D01*
X0009345Y0006635D02*
X0009845D01*
X0008675Y0006885D02*
Y0006635D01*
X0008925Y0006885D02*
X0008675D01*
X0008925Y0006385D02*
Y0006885D01*
X0009175Y0006385D02*
X0008925D01*
X0009175Y0006635D02*
Y0006385D01*
X0008675Y0006635D02*
X0009175D01*
X0008010Y0006885D02*
Y0006635D01*
X0008260Y0006885D02*
X0008010D01*
X0008260Y0006385D02*
Y0006885D01*
X0008510Y0006385D02*
X0008260D01*
X0008510Y0006635D02*
Y0006385D01*
X0008010Y0006635D02*
X0008510D01*
X0008010Y0008215D02*
Y0007965D01*
X0008260Y0008215D02*
X0008010D01*
X0008260Y0007715D02*
Y0008215D01*
X0008510Y0007715D02*
X0008260D01*
X0008510Y0007965D02*
Y0007715D01*
X0008010Y0007965D02*
X0008510D01*
X0008675Y0008215D02*
Y0007965D01*
X0008925Y0008215D02*
X0008675D01*
X0008925Y0007715D02*
Y0008215D01*
X0009175Y0007715D02*
X0008925D01*
X0009175Y0007965D02*
Y0007715D01*
X0008675Y0007965D02*
X0009175D01*
X0009785Y0009810D02*
Y0009560D01*
X0010035Y0009810D02*
X0009785D01*
X0010035Y0009310D02*
Y0009810D01*
X0010285Y0009310D02*
X0010035D01*
X0010285Y0009560D02*
Y0009310D01*
X0009785Y0009560D02*
X0010285D01*
X0008205Y0010970D02*
Y0010720D01*
X0008455Y0010970D02*
X0008205D01*
X0008455Y0010470D02*
Y0010970D01*
X0008705Y0010470D02*
X0008455D01*
X0008705Y0010720D02*
Y0010470D01*
X0008205Y0010720D02*
X0008705D01*
X0009285Y0010895D02*
Y0010645D01*
X0009535Y0010895D02*
X0009285D01*
X0009535Y0010395D02*
Y0010895D01*
X0009785Y0010395D02*
X0009535D01*
X0009785Y0010645D02*
Y0010395D01*
X0009285Y0010645D02*
X0009785D01*
X0008800Y0010895D02*
Y0010645D01*
X0009050Y0010895D02*
X0008800D01*
X0009050Y0010395D02*
Y0010895D01*
X0009300Y0010395D02*
X0009050D01*
X0009300Y0010645D02*
Y0010395D01*
X0008800Y0010645D02*
X0009300D01*
X0008490Y0010700D02*
Y0010450D01*
X0008740Y0010700D02*
X0008490D01*
X0008740Y0010200D02*
Y0010700D01*
X0008990Y0010200D02*
X0008740D01*
X0008990Y0010450D02*
Y0010200D01*
X0008490Y0010450D02*
X0008990D01*
X0008785Y0011220D02*
Y0010970D01*
X0009035Y0011220D02*
X0008785D01*
X0009035Y0010720D02*
Y0011220D01*
X0009285Y0010720D02*
X0009035D01*
X0009285Y0010970D02*
Y0010720D01*
X0008785Y0010970D02*
X0009285D01*
X0007985Y0011220D02*
Y0010970D01*
X0008235Y0011220D02*
X0007985D01*
X0008235Y0010720D02*
Y0011220D01*
X0008485Y0010720D02*
X0008235D01*
X0008485Y0010970D02*
Y0010720D01*
X0007985Y0010970D02*
X0008485D01*
X0009555Y0011220D02*
Y0010970D01*
X0009805Y0011220D02*
X0009555D01*
X0009805Y0010720D02*
Y0011220D01*
X0010055Y0010720D02*
X0009805D01*
X0010055Y0010970D02*
Y0010720D01*
X0009555Y0010970D02*
X0010055D01*
X0009760Y0010895D02*
Y0010645D01*
X0010010Y0010895D02*
X0009760D01*
X0010010Y0010395D02*
Y0010895D01*
X0010260Y0010395D02*
X0010010D01*
X0010260Y0010645D02*
Y0010395D01*
X0009760Y0010645D02*
X0010260D01*
Y0009560D02*
Y0009310D01*
X0010510Y0009560D02*
X0010260D01*
X0010510Y0009060D02*
Y0009560D01*
X0010760Y0009060D02*
X0010510D01*
X0010760Y0009310D02*
Y0009060D01*
X0010260Y0009310D02*
X0010760D01*
X0010265Y0010065D02*
Y0009815D01*
X0010515Y0010065D02*
X0010265D01*
X0010515Y0009565D02*
Y0010065D01*
X0010765Y0009565D02*
X0010515D01*
X0010765Y0009815D02*
Y0009565D01*
X0010265Y0009815D02*
X0010765D01*
X0009120Y0010065D02*
Y0009815D01*
X0009370Y0010065D02*
X0009120D01*
X0009370Y0009565D02*
Y0010065D01*
X0009620Y0009565D02*
X0009370D01*
X0009620Y0009815D02*
Y0009565D01*
X0009120Y0009815D02*
X0009620D01*
X0009630Y0010065D02*
Y0009815D01*
X0009880Y0010065D02*
X0009630D01*
X0009880Y0009565D02*
Y0010065D01*
X0010130Y0009565D02*
X0009880D01*
X0010130Y0009815D02*
Y0009565D01*
X0009630Y0009815D02*
X0010130D01*
X0009605Y0008745D02*
Y0008495D01*
X0009855Y0008745D02*
X0009605D01*
X0009855Y0008245D02*
Y0008745D01*
X0010105Y0008245D02*
X0009855D01*
X0010105Y0008495D02*
Y0008245D01*
X0009605Y0008495D02*
X0010105D01*
X0009610Y0009585D02*
Y0009335D01*
X0009860Y0009585D02*
X0009610D01*
X0009860Y0009085D02*
Y0009585D01*
X0010110Y0009085D02*
X0009860D01*
X0010110Y0009335D02*
Y0009085D01*
X0009610Y0009335D02*
X0010110D01*
X0009690Y0009240D02*
Y0008990D01*
X0009940Y0009240D02*
X0009690D01*
X0009940Y0008740D02*
Y0009240D01*
X0010190Y0008740D02*
X0009940D01*
X0010190Y0008990D02*
Y0008740D01*
X0009690Y0008990D02*
X0010190D01*
X0010605Y0009745D02*
Y0009495D01*
X0010855Y0009745D02*
X0010605D01*
X0010855Y0009245D02*
Y0009745D01*
X0011105Y0009245D02*
X0010855D01*
X0011105Y0009495D02*
Y0009245D01*
X0010605Y0009495D02*
X0011105D01*
X0011280Y0010170D02*
Y0009920D01*
X0011530Y0010170D02*
X0011280D01*
X0011530Y0009670D02*
Y0010170D01*
X0011780Y0009670D02*
X0011530D01*
X0011780Y0009920D02*
Y0009670D01*
X0011280Y0009920D02*
X0011780D01*
X0011515Y0009845D02*
Y0009595D01*
X0011765Y0009845D02*
X0011515D01*
X0011765Y0009345D02*
Y0009845D01*
X0012015Y0009345D02*
X0011765D01*
X0012015Y0009595D02*
Y0009345D01*
X0011515Y0009595D02*
X0012015D01*
X0011955Y0009845D02*
Y0009595D01*
X0012205Y0009845D02*
X0011955D01*
X0012205Y0009345D02*
Y0009845D01*
X0012455Y0009345D02*
X0012205D01*
X0012455Y0009595D02*
Y0009345D01*
X0011955Y0009595D02*
X0012455D01*
X0012470Y0009845D02*
Y0009595D01*
X0012720Y0009845D02*
X0012470D01*
X0012720Y0009345D02*
Y0009845D01*
X0012970Y0009345D02*
X0012720D01*
X0012970Y0009595D02*
Y0009345D01*
X0012470Y0009595D02*
X0012970D01*
X0012785Y0009455D02*
Y0009205D01*
X0013035Y0009455D02*
X0012785D01*
X0013035Y0008955D02*
Y0009455D01*
X0013285Y0008955D02*
X0013035D01*
X0013285Y0009205D02*
Y0008955D01*
X0012785Y0009205D02*
X0013285D01*
X0012785Y0008920D02*
Y0008670D01*
X0013035Y0008920D02*
X0012785D01*
X0013035Y0008420D02*
Y0008920D01*
X0013285Y0008420D02*
X0013035D01*
X0013285Y0008670D02*
Y0008420D01*
X0012785Y0008670D02*
X0013285D01*
X0012335Y0008920D02*
Y0008670D01*
X0012585Y0008920D02*
X0012335D01*
X0012585Y0008420D02*
Y0008920D01*
X0012835Y0008420D02*
X0012585D01*
X0012835Y0008670D02*
Y0008420D01*
X0012335Y0008670D02*
X0012835D01*
X0012115Y0008405D02*
Y0008155D01*
X0012365Y0008405D02*
X0012115D01*
X0012365Y0007905D02*
Y0008405D01*
X0012615Y0007905D02*
X0012365D01*
X0012615Y0008155D02*
Y0007905D01*
X0012115Y0008155D02*
X0012615D01*
X0012115Y0008670D02*
Y0008420D01*
X0012365Y0008670D02*
X0012115D01*
X0012365Y0008170D02*
Y0008670D01*
X0012615Y0008170D02*
X0012365D01*
X0012615Y0008420D02*
Y0008170D01*
X0012115Y0008420D02*
X0012615D01*
X0011720Y0008395D02*
Y0008145D01*
X0011970Y0008395D02*
X0011720D01*
X0011970Y0007895D02*
Y0008395D01*
X0012220Y0007895D02*
X0011970D01*
X0012220Y0008145D02*
Y0007895D01*
X0011720Y0008145D02*
X0012220D01*
X0011395Y0008395D02*
Y0008145D01*
X0011645Y0008395D02*
X0011395D01*
X0011645Y0007895D02*
Y0008395D01*
X0011895Y0007895D02*
X0011645D01*
X0011895Y0008145D02*
Y0007895D01*
X0011395Y0008145D02*
X0011895D01*
X0011070Y0008395D02*
Y0008145D01*
X0011320Y0008395D02*
X0011070D01*
X0011320Y0007895D02*
Y0008395D01*
X0011570Y0007895D02*
X0011320D01*
X0011570Y0008145D02*
Y0007895D01*
X0011070Y0008145D02*
X0011570D01*
X0009125Y0004865D02*
Y0004615D01*
X0009375Y0004865D02*
X0009125D01*
X0009375Y0004365D02*
Y0004865D01*
X0009625Y0004365D02*
X0009375D01*
X0009625Y0004615D02*
Y0004365D01*
X0009125Y0004615D02*
X0009625D01*
X0008860Y0005155D02*
Y0004905D01*
X0009110Y0005155D02*
X0008860D01*
X0009110Y0004655D02*
Y0005155D01*
X0009360Y0004655D02*
X0009110D01*
X0009360Y0004905D02*
Y0004655D01*
X0008860Y0004905D02*
X0009360D01*
X0008860Y0005535D02*
Y0005285D01*
X0009110Y0005535D02*
X0008860D01*
X0009110Y0005035D02*
Y0005535D01*
X0009360Y0005035D02*
X0009110D01*
X0009360Y0005285D02*
Y0005035D01*
X0008860Y0005285D02*
X0009360D01*
X0010500Y0005390D02*
Y0005140D01*
X0010750Y0005390D02*
X0010500D01*
X0010750Y0004890D02*
Y0005390D01*
X0011000Y0004890D02*
X0010750D01*
X0011000Y0005140D02*
Y0004890D01*
X0010500Y0005140D02*
X0011000D01*
X0009345Y0005050D02*
Y0004800D01*
X0009595Y0005050D02*
X0009345D01*
X0009595Y0004550D02*
Y0005050D01*
X0009845Y0004550D02*
X0009595D01*
X0009845Y0004800D02*
Y0004550D01*
X0009345Y0004800D02*
X0009845D01*
X0009405Y0004725D02*
Y0004475D01*
X0009655Y0004725D02*
X0009405D01*
X0009655Y0004225D02*
Y0004725D01*
X0009905Y0004225D02*
X0009655D01*
X0009905Y0004475D02*
Y0004225D01*
X0009405Y0004475D02*
X0009905D01*
X0009465Y0004515D02*
Y0004265D01*
X0009715Y0004515D02*
X0009465D01*
X0009715Y0004015D02*
Y0004515D01*
X0009965Y0004015D02*
X0009715D01*
X0009965Y0004265D02*
Y0004015D01*
X0009465Y0004265D02*
X0009965D01*
X0009930Y0004360D02*
Y0004110D01*
X0010180Y0004360D02*
X0009930D01*
X0010180Y0003860D02*
Y0004360D01*
X0010430Y0003860D02*
X0010180D01*
X0010430Y0004110D02*
Y0003860D01*
X0009930Y0004110D02*
X0010430D01*
X0010255Y0006010D02*
Y0005760D01*
X0010505Y0006010D02*
X0010255D01*
X0010505Y0005510D02*
Y0006010D01*
X0010755Y0005510D02*
X0010505D01*
X0010755Y0005760D02*
Y0005510D01*
X0010255Y0005760D02*
X0010755D01*
X0010645Y0006085D02*
Y0005835D01*
X0010895Y0006085D02*
X0010645D01*
X0010895Y0005585D02*
Y0006085D01*
X0011145Y0005585D02*
X0010895D01*
X0011145Y0005835D02*
Y0005585D01*
X0010645Y0005835D02*
X0011145D01*
X0010340Y0006400D02*
Y0006150D01*
X0010590Y0006400D02*
X0010340D01*
X0010590Y0005900D02*
Y0006400D01*
X0010840Y0005900D02*
X0010590D01*
X0010840Y0006150D02*
Y0005900D01*
X0010340Y0006150D02*
X0010840D01*
X0009950Y0005915D02*
Y0005665D01*
X0010200Y0005915D02*
X0009950D01*
X0010200Y0005415D02*
Y0005915D01*
X0010450Y0005415D02*
X0010200D01*
X0010450Y0005665D02*
Y0005415D01*
X0009950Y0005665D02*
X0010450D01*
X0009950Y0006205D02*
Y0005955D01*
X0010200Y0006205D02*
X0009950D01*
X0010200Y0005705D02*
Y0006205D01*
X0010450Y0005705D02*
X0010200D01*
X0010450Y0005955D02*
Y0005705D01*
X0009950Y0005955D02*
X0010450D01*
X0009950Y0006615D02*
Y0006365D01*
X0010200Y0006615D02*
X0009950D01*
X0010200Y0006115D02*
Y0006615D01*
X0010450Y0006115D02*
X0010200D01*
X0010450Y0006365D02*
Y0006115D01*
X0009950Y0006365D02*
X0010450D01*
X0010825Y0005390D02*
Y0005140D01*
X0011075Y0005390D02*
X0010825D01*
X0011075Y0004890D02*
Y0005390D01*
X0011325Y0004890D02*
X0011075D01*
X0011325Y0005140D02*
Y0004890D01*
X0010825Y0005140D02*
X0011325D01*
X0010945Y0005130D02*
Y0004880D01*
X0011195Y0005130D02*
X0010945D01*
X0011195Y0004630D02*
Y0005130D01*
X0011445Y0004630D02*
X0011195D01*
X0011445Y0004880D02*
Y0004630D01*
X0010945Y0004880D02*
X0011445D01*
X0011765Y0005305D02*
Y0005055D01*
X0012015Y0005305D02*
X0011765D01*
X0012015Y0004805D02*
Y0005305D01*
X0012265Y0004805D02*
X0012015D01*
X0012265Y0005055D02*
Y0004805D01*
X0011765Y0005055D02*
X0012265D01*
X0012295Y0005850D02*
Y0005600D01*
X0012545Y0005850D02*
X0012295D01*
X0012545Y0005350D02*
Y0005850D01*
X0012795Y0005350D02*
X0012545D01*
X0012795Y0005600D02*
Y0005350D01*
X0012295Y0005600D02*
X0012795D01*
X0011855Y0006190D02*
Y0005940D01*
X0012105Y0006190D02*
X0011855D01*
X0012105Y0005690D02*
Y0006190D01*
X0012355Y0005690D02*
X0012105D01*
X0012355Y0005940D02*
Y0005690D01*
X0011855Y0005940D02*
X0012355D01*
X0011855Y0006590D02*
Y0006340D01*
X0012105Y0006590D02*
X0011855D01*
X0012105Y0006090D02*
Y0006590D01*
X0012355Y0006090D02*
X0012105D01*
X0012355Y0006340D02*
Y0006090D01*
X0011855Y0006340D02*
X0012355D01*
X0011855Y0006950D02*
Y0006700D01*
X0012105Y0006950D02*
X0011855D01*
X0012105Y0006450D02*
Y0006950D01*
X0012355Y0006450D02*
X0012105D01*
X0012355Y0006700D02*
Y0006450D01*
X0011855Y0006700D02*
X0012355D01*
X0012330Y0007255D02*
Y0007005D01*
X0012580Y0007255D02*
X0012330D01*
X0012580Y0006755D02*
Y0007255D01*
X0012830Y0006755D02*
X0012580D01*
X0012830Y0007005D02*
Y0006755D01*
X0012330Y0007005D02*
X0012830D01*
X0011885Y0007255D02*
Y0007005D01*
X0012135Y0007255D02*
X0011885D01*
X0012135Y0006755D02*
Y0007255D01*
X0012385Y0006755D02*
X0012135D01*
X0012385Y0007005D02*
Y0006755D01*
X0011885Y0007005D02*
X0012385D01*
X0012600Y0006885D02*
Y0006635D01*
X0012850Y0006885D02*
X0012600D01*
X0012850Y0006385D02*
Y0006885D01*
X0013100Y0006385D02*
X0012850D01*
X0013100Y0006635D02*
Y0006385D01*
X0012600Y0006635D02*
X0013100D01*
X0013045Y0006885D02*
Y0006635D01*
X0013295Y0006885D02*
X0013045D01*
X0013295Y0006385D02*
Y0006885D01*
X0013545Y0006385D02*
X0013295D01*
X0013545Y0006635D02*
Y0006385D01*
X0013045Y0006635D02*
X0013545D01*
X0013245Y0007260D02*
Y0007010D01*
X0013495Y0007260D02*
X0013245D01*
X0013495Y0006760D02*
Y0007260D01*
X0013745Y0006760D02*
X0013495D01*
X0013745Y0007010D02*
Y0006760D01*
X0013245Y0007010D02*
X0013745D01*
Y0007255D02*
Y0007005D01*
X0013995Y0007255D02*
X0013745D01*
X0013995Y0006755D02*
Y0007255D01*
X0014245Y0006755D02*
X0013995D01*
X0014245Y0007005D02*
Y0006755D01*
X0013745Y0007005D02*
X0014245D01*
X0014240Y0007280D02*
Y0007030D01*
X0014490Y0007280D02*
X0014240D01*
X0014490Y0006780D02*
Y0007280D01*
X0014740Y0006780D02*
X0014490D01*
X0014740Y0007030D02*
Y0006780D01*
X0014240Y0007030D02*
X0014740D01*
X0014750Y0007270D02*
Y0007020D01*
X0015000Y0007270D02*
X0014750D01*
X0015000Y0006770D02*
Y0007270D01*
X0015250Y0006770D02*
X0015000D01*
X0015250Y0007020D02*
Y0006770D01*
X0014750Y0007020D02*
X0015250D01*
X0015255Y0007225D02*
Y0006975D01*
X0015505Y0007225D02*
X0015255D01*
X0015505Y0006725D02*
Y0007225D01*
X0015755Y0006725D02*
X0015505D01*
X0015755Y0006975D02*
Y0006725D01*
X0015255Y0006975D02*
X0015755D01*
X0015750Y0007225D02*
Y0006975D01*
X0016000Y0007225D02*
X0015750D01*
X0016000Y0006725D02*
Y0007225D01*
X0016250Y0006725D02*
X0016000D01*
X0016250Y0006975D02*
Y0006725D01*
X0015750Y0006975D02*
X0016250D01*
X0016215Y0007225D02*
Y0006975D01*
X0016465Y0007225D02*
X0016215D01*
X0016465Y0006725D02*
Y0007225D01*
X0016715Y0006725D02*
X0016465D01*
X0016715Y0006975D02*
Y0006725D01*
X0016215Y0006975D02*
X0016715D01*
X0016745Y0007225D02*
Y0006975D01*
X0016995Y0007225D02*
X0016745D01*
X0016995Y0006725D02*
Y0007225D01*
X0017245Y0006725D02*
X0016995D01*
X0017245Y0006975D02*
Y0006725D01*
X0016745Y0006975D02*
X0017245D01*
X0011895Y0007845D02*
Y0007595D01*
X0012145Y0007845D02*
X0011895D01*
X0012145Y0007345D02*
Y0007845D01*
X0012395Y0007345D02*
X0012145D01*
X0012395Y0007595D02*
Y0007345D01*
X0011895Y0007595D02*
X0012395D01*
X0012290Y0007820D02*
Y0007570D01*
X0012540Y0007820D02*
X0012290D01*
X0012540Y0007320D02*
Y0007820D01*
X0012790Y0007320D02*
X0012540D01*
X0012790Y0007570D02*
Y0007320D01*
X0012290Y0007570D02*
X0012790D01*
X0013245Y0007840D02*
Y0007590D01*
X0013495Y0007840D02*
X0013245D01*
X0013495Y0007340D02*
Y0007840D01*
X0013745Y0007340D02*
X0013495D01*
X0013745Y0007590D02*
Y0007340D01*
X0013245Y0007590D02*
X0013745D01*
X0014240Y0007805D02*
Y0007555D01*
X0014490Y0007805D02*
X0014240D01*
X0014490Y0007305D02*
Y0007805D01*
X0014740Y0007305D02*
X0014490D01*
X0014740Y0007555D02*
Y0007305D01*
X0014240Y0007555D02*
X0014740D01*
X0015255Y0007860D02*
Y0007610D01*
X0015505Y0007860D02*
X0015255D01*
X0015505Y0007360D02*
Y0007860D01*
X0015755Y0007360D02*
X0015505D01*
X0015755Y0007610D02*
Y0007360D01*
X0015255Y0007610D02*
X0015755D01*
X0016215Y0007870D02*
Y0007620D01*
X0016465Y0007870D02*
X0016215D01*
X0016465Y0007370D02*
Y0007870D01*
X0016715Y0007370D02*
X0016465D01*
X0016715Y0007620D02*
Y0007370D01*
X0016215Y0007620D02*
X0016715D01*
X0012750Y0007820D02*
Y0007570D01*
X0013000Y0007820D02*
X0012750D01*
X0013000Y0007320D02*
Y0007820D01*
X0013250Y0007320D02*
X0013000D01*
X0013250Y0007570D02*
Y0007320D01*
X0012750Y0007570D02*
X0013250D01*
X0013750Y0007840D02*
Y0007590D01*
X0014000Y0007840D02*
X0013750D01*
X0014000Y0007340D02*
Y0007840D01*
X0014250Y0007340D02*
X0014000D01*
X0014250Y0007590D02*
Y0007340D01*
X0013750Y0007590D02*
X0014250D01*
X0014750Y0007805D02*
Y0007555D01*
X0015000Y0007805D02*
X0014750D01*
X0015000Y0007305D02*
Y0007805D01*
X0015250Y0007305D02*
X0015000D01*
X0015250Y0007555D02*
Y0007305D01*
X0014750Y0007555D02*
X0015250D01*
X0015750Y0007860D02*
Y0007610D01*
X0016000Y0007860D02*
X0015750D01*
X0016000Y0007360D02*
Y0007860D01*
X0016250Y0007360D02*
X0016000D01*
X0016250Y0007610D02*
Y0007360D01*
X0015750Y0007610D02*
X0016250D01*
X0016750Y0007870D02*
Y0007620D01*
X0017000Y0007870D02*
X0016750D01*
X0017000Y0007370D02*
Y0007870D01*
X0017250Y0007370D02*
X0017000D01*
X0017250Y0007620D02*
Y0007370D01*
X0016750Y0007620D02*
X0017250D01*
X0014250Y0013325D02*
Y0013075D01*
X0014500Y0013325D02*
X0014250D01*
X0014500Y0012825D02*
Y0013325D01*
X0014750Y0012825D02*
X0014500D01*
X0014750Y0013075D02*
Y0012825D01*
X0014250Y0013075D02*
X0014750D01*
X0013250Y0013325D02*
Y0013075D01*
X0013500Y0013325D02*
X0013250D01*
X0013500Y0012825D02*
Y0013325D01*
X0013750Y0012825D02*
X0013500D01*
X0013750Y0013075D02*
Y0012825D01*
X0013250Y0013075D02*
X0013750D01*
X0012250Y0013325D02*
Y0013075D01*
X0012500Y0013325D02*
X0012250D01*
X0012500Y0012825D02*
Y0013325D01*
X0012750Y0012825D02*
X0012500D01*
X0012750Y0013075D02*
Y0012825D01*
X0012250Y0013075D02*
X0012750D01*
X0011250Y0013325D02*
Y0013075D01*
X0011500Y0013325D02*
X0011250D01*
X0011500Y0012825D02*
Y0013325D01*
X0011750Y0012825D02*
X0011500D01*
X0011750Y0013075D02*
Y0012825D01*
X0011250Y0013075D02*
X0011750D01*
X0010250Y0013325D02*
Y0013075D01*
X0010500Y0013325D02*
X0010250D01*
X0010500Y0012825D02*
Y0013325D01*
X0010750Y0012825D02*
X0010500D01*
X0010750Y0013075D02*
Y0012825D01*
X0010250Y0013075D02*
X0010750D01*
X0000250Y0013325D02*
Y0013075D01*
X0000500Y0013325D02*
X0000250D01*
X0000500Y0012825D02*
Y0013325D01*
X0000750Y0012825D02*
X0000500D01*
X0000750Y0013075D02*
Y0012825D01*
X0000250Y0013075D02*
X0000750D01*
X0016750Y0012325D02*
Y0012075D01*
X0017000Y0012325D02*
X0016750D01*
X0017000Y0011825D02*
Y0012325D01*
X0017250Y0011825D02*
X0017000D01*
X0017250Y0012075D02*
Y0011825D01*
X0016750Y0012075D02*
X0017250D01*
X0014750Y0012325D02*
Y0012075D01*
X0015000Y0012325D02*
X0014750D01*
X0015000Y0011825D02*
Y0012325D01*
X0015250Y0011825D02*
X0015000D01*
X0015250Y0012075D02*
Y0011825D01*
X0014750Y0012075D02*
X0015250D01*
X0013750Y0012325D02*
Y0012075D01*
X0014000Y0012325D02*
X0013750D01*
X0014000Y0011825D02*
Y0012325D01*
X0014250Y0011825D02*
X0014000D01*
X0014250Y0012075D02*
Y0011825D01*
X0013750Y0012075D02*
X0014250D01*
X0012750Y0012325D02*
Y0012075D01*
X0013000Y0012325D02*
X0012750D01*
X0013000Y0011825D02*
Y0012325D01*
X0013250Y0011825D02*
X0013000D01*
X0013250Y0012075D02*
Y0011825D01*
X0012750Y0012075D02*
X0013250D01*
X0011750Y0012325D02*
Y0012075D01*
X0012000Y0012325D02*
X0011750D01*
X0012000Y0011825D02*
Y0012325D01*
X0012250Y0011825D02*
X0012000D01*
X0012250Y0012075D02*
Y0011825D01*
X0011750Y0012075D02*
X0012250D01*
X0010750Y0012325D02*
Y0012075D01*
X0011000Y0012325D02*
X0010750D01*
X0011000Y0011825D02*
Y0012325D01*
X0011250Y0011825D02*
X0011000D01*
X0011250Y0012075D02*
Y0011825D01*
X0010750Y0012075D02*
X0011250D01*
X0009750Y0012325D02*
Y0012075D01*
X0010000Y0012325D02*
X0009750D01*
X0010000Y0011825D02*
Y0012325D01*
X0010250Y0011825D02*
X0010000D01*
X0010250Y0012075D02*
Y0011825D01*
X0009750Y0012075D02*
X0010250D01*
X0000750Y0012325D02*
Y0012075D01*
X0001000Y0012325D02*
X0000750D01*
X0001000Y0011825D02*
Y0012325D01*
X0001250Y0011825D02*
X0001000D01*
X0001250Y0012075D02*
Y0011825D01*
X0000750Y0012075D02*
X0001250D01*
X0016250Y0011325D02*
Y0011075D01*
X0016500Y0011325D02*
X0016250D01*
X0016500Y0010825D02*
Y0011325D01*
X0016750Y0010825D02*
X0016500D01*
X0016750Y0011075D02*
Y0010825D01*
X0016250Y0011075D02*
X0016750D01*
X0015250Y0011325D02*
Y0011075D01*
X0015500Y0011325D02*
X0015250D01*
X0015500Y0010825D02*
Y0011325D01*
X0015750Y0010825D02*
X0015500D01*
X0015750Y0011075D02*
Y0010825D01*
X0015250Y0011075D02*
X0015750D01*
X0014250Y0011325D02*
Y0011075D01*
X0014500Y0011325D02*
X0014250D01*
X0014500Y0010825D02*
Y0011325D01*
X0014750Y0010825D02*
X0014500D01*
X0014750Y0011075D02*
Y0010825D01*
X0014250Y0011075D02*
X0014750D01*
X0013250Y0011325D02*
Y0011075D01*
X0013500Y0011325D02*
X0013250D01*
X0013500Y0010825D02*
Y0011325D01*
X0013750Y0010825D02*
X0013500D01*
X0013750Y0011075D02*
Y0010825D01*
X0013250Y0011075D02*
X0013750D01*
X0012250Y0011325D02*
Y0011075D01*
X0012500Y0011325D02*
X0012250D01*
X0012500Y0010825D02*
Y0011325D01*
X0012750Y0010825D02*
X0012500D01*
X0012750Y0011075D02*
Y0010825D01*
X0012250Y0011075D02*
X0012750D01*
X0011250Y0011325D02*
Y0011075D01*
X0011500Y0011325D02*
X0011250D01*
X0011500Y0010825D02*
Y0011325D01*
X0011750Y0010825D02*
X0011500D01*
X0011750Y0011075D02*
Y0010825D01*
X0011250Y0011075D02*
X0011750D01*
X0004250Y0011325D02*
Y0011075D01*
X0004500Y0011325D02*
X0004250D01*
X0004500Y0010825D02*
Y0011325D01*
X0004750Y0010825D02*
X0004500D01*
X0004750Y0011075D02*
Y0010825D01*
X0004250Y0011075D02*
X0004750D01*
X0002250Y0011325D02*
Y0011075D01*
X0002500Y0011325D02*
X0002250D01*
X0002500Y0010825D02*
Y0011325D01*
X0002750Y0010825D02*
X0002500D01*
X0002750Y0011075D02*
Y0010825D01*
X0002250Y0011075D02*
X0002750D01*
X0000250Y0011325D02*
Y0011075D01*
X0000500Y0011325D02*
X0000250D01*
X0000500Y0010825D02*
Y0011325D01*
X0000750Y0010825D02*
X0000500D01*
X0000750Y0011075D02*
Y0010825D01*
X0000250Y0011075D02*
X0000750D01*
X0016750Y0010325D02*
Y0010075D01*
X0017000Y0010325D02*
X0016750D01*
X0017000Y0009825D02*
Y0010325D01*
X0017250Y0009825D02*
X0017000D01*
X0017250Y0010075D02*
Y0009825D01*
X0016750Y0010075D02*
X0017250D01*
X0015750Y0010325D02*
Y0010075D01*
X0016000Y0010325D02*
X0015750D01*
X0016000Y0009825D02*
Y0010325D01*
X0016250Y0009825D02*
X0016000D01*
X0016250Y0010075D02*
Y0009825D01*
X0015750Y0010075D02*
X0016250D01*
X0014750Y0010325D02*
Y0010075D01*
X0015000Y0010325D02*
X0014750D01*
X0015000Y0009825D02*
Y0010325D01*
X0015250Y0009825D02*
X0015000D01*
X0015250Y0010075D02*
Y0009825D01*
X0014750Y0010075D02*
X0015250D01*
X0013750Y0010325D02*
Y0010075D01*
X0014000Y0010325D02*
X0013750D01*
X0014000Y0009825D02*
Y0010325D01*
X0014250Y0009825D02*
X0014000D01*
X0014250Y0010075D02*
Y0009825D01*
X0013750Y0010075D02*
X0014250D01*
X0012750Y0010325D02*
Y0010075D01*
X0013000Y0010325D02*
X0012750D01*
X0013000Y0009825D02*
Y0010325D01*
X0013250Y0009825D02*
X0013000D01*
X0013250Y0010075D02*
Y0009825D01*
X0012750Y0010075D02*
X0013250D01*
X0011750Y0010325D02*
Y0010075D01*
X0012000Y0010325D02*
X0011750D01*
X0012000Y0009825D02*
Y0010325D01*
X0012250Y0009825D02*
X0012000D01*
X0012250Y0010075D02*
Y0009825D01*
X0011750Y0010075D02*
X0012250D01*
X0010750Y0010325D02*
Y0010075D01*
X0011000Y0010325D02*
X0010750D01*
X0011000Y0009825D02*
Y0010325D01*
X0011250Y0009825D02*
X0011000D01*
X0011250Y0010075D02*
Y0009825D01*
X0010750Y0010075D02*
X0011250D01*
X0003750Y0010325D02*
Y0010075D01*
X0004000Y0010325D02*
X0003750D01*
X0004000Y0009825D02*
Y0010325D01*
X0004250Y0009825D02*
X0004000D01*
X0004250Y0010075D02*
Y0009825D01*
X0003750Y0010075D02*
X0004250D01*
X0002750Y0010325D02*
Y0010075D01*
X0003000Y0010325D02*
X0002750D01*
X0003000Y0009825D02*
Y0010325D01*
X0003250Y0009825D02*
X0003000D01*
X0003250Y0010075D02*
Y0009825D01*
X0002750Y0010075D02*
X0003250D01*
X0001750Y0010325D02*
Y0010075D01*
X0002000Y0010325D02*
X0001750D01*
X0002000Y0009825D02*
Y0010325D01*
X0002250Y0009825D02*
X0002000D01*
X0002250Y0010075D02*
Y0009825D01*
X0001750Y0010075D02*
X0002250D01*
X0000750Y0010325D02*
Y0010075D01*
X0001000Y0010325D02*
X0000750D01*
X0001000Y0009825D02*
Y0010325D01*
X0001250Y0009825D02*
X0001000D01*
X0001250Y0010075D02*
Y0009825D01*
X0000750Y0010075D02*
X0001250D01*
X0014250Y0009325D02*
Y0009075D01*
X0014500Y0009325D02*
X0014250D01*
X0014500Y0008825D02*
Y0009325D01*
X0014750Y0008825D02*
X0014500D01*
X0014750Y0009075D02*
Y0008825D01*
X0014250Y0009075D02*
X0014750D01*
X0013250Y0009325D02*
Y0009075D01*
X0013500Y0009325D02*
X0013250D01*
X0013500Y0008825D02*
Y0009325D01*
X0013750Y0008825D02*
X0013500D01*
X0013750Y0009075D02*
Y0008825D01*
X0013250Y0009075D02*
X0013750D01*
X0011250Y0009325D02*
Y0009075D01*
X0011500Y0009325D02*
X0011250D01*
X0011500Y0008825D02*
Y0009325D01*
X0011750Y0008825D02*
X0011500D01*
X0011750Y0009075D02*
Y0008825D01*
X0011250Y0009075D02*
X0011750D01*
X0002250Y0009325D02*
Y0009075D01*
X0002500Y0009325D02*
X0002250D01*
X0002500Y0008825D02*
Y0009325D01*
X0002750Y0008825D02*
X0002500D01*
X0002750Y0009075D02*
Y0008825D01*
X0002250Y0009075D02*
X0002750D01*
X0000250Y0009325D02*
Y0009075D01*
X0000500Y0009325D02*
X0000250D01*
X0000500Y0008825D02*
Y0009325D01*
X0000750Y0008825D02*
X0000500D01*
X0000750Y0009075D02*
Y0008825D01*
X0000250Y0009075D02*
X0000750D01*
X0016750Y0008325D02*
Y0008075D01*
X0017000Y0008325D02*
X0016750D01*
X0017000Y0007825D02*
Y0008325D01*
X0017250Y0007825D02*
X0017000D01*
X0017250Y0008075D02*
Y0007825D01*
X0016750Y0008075D02*
X0017250D01*
X0015750Y0008325D02*
Y0008075D01*
X0016000Y0008325D02*
X0015750D01*
X0016000Y0007825D02*
Y0008325D01*
X0016250Y0007825D02*
X0016000D01*
X0016250Y0008075D02*
Y0007825D01*
X0015750Y0008075D02*
X0016250D01*
X0014750Y0008325D02*
Y0008075D01*
X0015000Y0008325D02*
X0014750D01*
X0015000Y0007825D02*
Y0008325D01*
X0015250Y0007825D02*
X0015000D01*
X0015250Y0008075D02*
Y0007825D01*
X0014750Y0008075D02*
X0015250D01*
X0013750Y0008325D02*
Y0008075D01*
X0014000Y0008325D02*
X0013750D01*
X0014000Y0007825D02*
Y0008325D01*
X0014250Y0007825D02*
X0014000D01*
X0014250Y0008075D02*
Y0007825D01*
X0013750Y0008075D02*
X0014250D01*
X0012750Y0008325D02*
Y0008075D01*
X0013000Y0008325D02*
X0012750D01*
X0013000Y0007825D02*
Y0008325D01*
X0013250Y0007825D02*
X0013000D01*
X0013250Y0008075D02*
Y0007825D01*
X0012750Y0008075D02*
X0013250D01*
X0000750Y0008325D02*
Y0008075D01*
X0001000Y0008325D02*
X0000750D01*
X0001000Y0007825D02*
Y0008325D01*
X0001250Y0007825D02*
X0001000D01*
X0001250Y0008075D02*
Y0007825D01*
X0000750Y0008075D02*
X0001250D01*
X0016750Y0006325D02*
Y0006075D01*
X0017000Y0006325D02*
X0016750D01*
X0017000Y0005825D02*
Y0006325D01*
X0017250Y0005825D02*
X0017000D01*
X0017250Y0006075D02*
Y0005825D01*
X0016750Y0006075D02*
X0017250D01*
X0015750Y0006325D02*
Y0006075D01*
X0016000Y0006325D02*
X0015750D01*
X0016000Y0005825D02*
Y0006325D01*
X0016250Y0005825D02*
X0016000D01*
X0016250Y0006075D02*
Y0005825D01*
X0015750Y0006075D02*
X0016250D01*
X0014750Y0006325D02*
Y0006075D01*
X0015000Y0006325D02*
X0014750D01*
X0015000Y0005825D02*
Y0006325D01*
X0015250Y0005825D02*
X0015000D01*
X0015250Y0006075D02*
Y0005825D01*
X0014750Y0006075D02*
X0015250D01*
X0013750Y0006325D02*
Y0006075D01*
X0014000Y0006325D02*
X0013750D01*
X0014000Y0005825D02*
Y0006325D01*
X0014250Y0005825D02*
X0014000D01*
X0014250Y0006075D02*
Y0005825D01*
X0013750Y0006075D02*
X0014250D01*
X0012750Y0006325D02*
Y0006075D01*
X0013000Y0006325D02*
X0012750D01*
X0013000Y0005825D02*
Y0006325D01*
X0013250Y0005825D02*
X0013000D01*
X0013250Y0006075D02*
Y0005825D01*
X0012750Y0006075D02*
X0013250D01*
X0005750Y0006325D02*
Y0006075D01*
X0006000Y0006325D02*
X0005750D01*
X0006000Y0005825D02*
Y0006325D01*
X0006250Y0005825D02*
X0006000D01*
X0006250Y0006075D02*
Y0005825D01*
X0005750Y0006075D02*
X0006250D01*
X0016250Y0005325D02*
Y0005075D01*
X0016500Y0005325D02*
X0016250D01*
X0016500Y0004825D02*
Y0005325D01*
X0016750Y0004825D02*
X0016500D01*
X0016750Y0005075D02*
Y0004825D01*
X0016250Y0005075D02*
X0016750D01*
X0015250Y0005325D02*
Y0005075D01*
X0015500Y0005325D02*
X0015250D01*
X0015500Y0004825D02*
Y0005325D01*
X0015750Y0004825D02*
X0015500D01*
X0015750Y0005075D02*
Y0004825D01*
X0015250Y0005075D02*
X0015750D01*
X0014250Y0005325D02*
Y0005075D01*
X0014500Y0005325D02*
X0014250D01*
X0014500Y0004825D02*
Y0005325D01*
X0014750Y0004825D02*
X0014500D01*
X0014750Y0005075D02*
Y0004825D01*
X0014250Y0005075D02*
X0014750D01*
X0006250Y0005325D02*
Y0005075D01*
X0006500Y0005325D02*
X0006250D01*
X0006500Y0004825D02*
Y0005325D01*
X0006750Y0004825D02*
X0006500D01*
X0006750Y0005075D02*
Y0004825D01*
X0006250Y0005075D02*
X0006750D01*
X0016750Y0004325D02*
Y0004075D01*
X0017000Y0004325D02*
X0016750D01*
X0017000Y0003825D02*
Y0004325D01*
X0017250Y0003825D02*
X0017000D01*
X0017250Y0004075D02*
Y0003825D01*
X0016750Y0004075D02*
X0017250D01*
X0015750Y0004325D02*
Y0004075D01*
X0016000Y0004325D02*
X0015750D01*
X0016000Y0003825D02*
Y0004325D01*
X0016250Y0003825D02*
X0016000D01*
X0016250Y0004075D02*
Y0003825D01*
X0015750Y0004075D02*
X0016250D01*
X0014750Y0004325D02*
Y0004075D01*
X0015000Y0004325D02*
X0014750D01*
X0015000Y0003825D02*
Y0004325D01*
X0015250Y0003825D02*
X0015000D01*
X0015250Y0004075D02*
Y0003825D01*
X0014750Y0004075D02*
X0015250D01*
X0014250Y0003325D02*
Y0003075D01*
X0014500Y0003325D02*
X0014250D01*
X0014500Y0002825D02*
Y0003325D01*
X0014750Y0002825D02*
X0014500D01*
X0014750Y0003075D02*
Y0002825D01*
X0014250Y0003075D02*
X0014750D01*
X0000250Y0003325D02*
Y0003075D01*
X0000500Y0003325D02*
X0000250D01*
X0000500Y0002825D02*
Y0003325D01*
X0000750Y0002825D02*
X0000500D01*
X0000750Y0003075D02*
Y0002825D01*
X0000250Y0003075D02*
X0000750D01*
X0016750Y0002325D02*
Y0002075D01*
X0017000Y0002325D02*
X0016750D01*
X0017000Y0001825D02*
Y0002325D01*
X0017250Y0001825D02*
X0017000D01*
X0017250Y0002075D02*
Y0001825D01*
X0016750Y0002075D02*
X0017250D01*
X0014750Y0002325D02*
Y0002075D01*
X0015000Y0002325D02*
X0014750D01*
X0015000Y0001825D02*
Y0002325D01*
X0015250Y0001825D02*
X0015000D01*
X0015250Y0002075D02*
Y0001825D01*
X0014750Y0002075D02*
X0015250D01*
X0011170Y0006380D02*
Y0006130D01*
X0011420Y0006380D02*
X0011170D01*
X0011420Y0005880D02*
Y0006380D01*
X0011670Y0005880D02*
X0011420D01*
X0011670Y0006130D02*
Y0005880D01*
X0011170Y0006130D02*
X0011670D01*
X0004740Y0009910D02*
Y0009660D01*
X0004990Y0009910D02*
X0004740D01*
X0004990Y0009410D02*
Y0009910D01*
X0005240Y0009410D02*
X0004990D01*
X0005240Y0009660D02*
Y0009410D01*
X0004740Y0009660D02*
X0005240D01*
X0002800Y0006295D02*
Y0006045D01*
X0003050Y0006295D02*
X0002800D01*
X0003050Y0005795D02*
Y0006295D01*
X0003300Y0005795D02*
X0003050D01*
X0003300Y0006045D02*
Y0005795D01*
X0002800Y0006045D02*
X0003300D01*
X0002505Y0006910D02*
Y0006660D01*
X0002755Y0006910D02*
X0002505D01*
X0002755Y0006410D02*
Y0006910D01*
X0003005Y0006410D02*
X0002755D01*
X0003005Y0006660D02*
Y0006410D01*
X0002505Y0006660D02*
X0003005D01*
X0007110Y0006640D02*
Y0006390D01*
X0007360Y0006640D02*
X0007110D01*
X0007360Y0006140D02*
Y0006640D01*
X0007610Y0006140D02*
X0007360D01*
X0007610Y0006390D02*
Y0006140D01*
X0007110Y0006390D02*
X0007610D01*
X0005440Y0008035D02*
Y0007785D01*
X0005690Y0008035D02*
X0005440D01*
X0005690Y0007535D02*
Y0008035D01*
X0005940Y0007535D02*
X0005690D01*
X0005940Y0007785D02*
Y0007535D01*
X0005440Y0007785D02*
X0005940D01*
X0007050Y0007450D02*
Y0007200D01*
X0007300Y0007450D02*
X0007050D01*
X0007300Y0006950D02*
Y0007450D01*
X0007550Y0006950D02*
X0007300D01*
X0007550Y0007200D02*
Y0006950D01*
X0007050Y0007200D02*
X0007550D01*
X0010020Y0011160D02*
Y0010910D01*
X0010270Y0011160D02*
X0010020D01*
X0010270Y0010660D02*
Y0011160D01*
X0010520Y0010660D02*
X0010270D01*
X0010520Y0010910D02*
Y0010660D01*
X0010020Y0010910D02*
X0010520D01*
X0006730Y0010750D02*
Y0010500D01*
X0006980Y0010750D02*
X0006730D01*
X0006980Y0010250D02*
Y0010750D01*
X0007230Y0010250D02*
X0006980D01*
X0007230Y0010500D02*
Y0010250D01*
X0006730Y0010500D02*
X0007230D01*
X0007400Y0005250D02*
Y0005000D01*
X0007650Y0005250D02*
X0007400D01*
X0007650Y0004750D02*
Y0005250D01*
X0007900Y0004750D02*
X0007650D01*
X0007900Y0005000D02*
Y0004750D01*
X0007400Y0005000D02*
X0007900D01*
X0008180Y0005840D02*
Y0005590D01*
X0008430Y0005840D02*
X0008180D01*
X0008430Y0005340D02*
Y0005840D01*
X0008680Y0005340D02*
X0008430D01*
X0008680Y0005590D02*
Y0005340D01*
X0008180Y0005590D02*
X0008680D01*
X0008380Y0006110D02*
Y0005860D01*
X0008630Y0006110D02*
X0008380D01*
X0008630Y0005610D02*
Y0006110D01*
X0008880Y0005610D02*
X0008630D01*
X0008880Y0005860D02*
Y0005610D01*
X0008380Y0005860D02*
X0008880D01*
X0009465Y0006075D02*
Y0005825D01*
X0009715Y0006075D02*
X0009465D01*
X0009715Y0005575D02*
Y0006075D01*
X0009965Y0005575D02*
X0009715D01*
X0009965Y0005825D02*
Y0005575D01*
X0009465Y0005825D02*
X0009965D01*
X0009180Y0005945D02*
Y0005695D01*
X0009430Y0005945D02*
X0009180D01*
X0009430Y0005445D02*
Y0005945D01*
X0009680Y0005445D02*
X0009430D01*
X0009680Y0005695D02*
Y0005445D01*
X0009180Y0005695D02*
X0009680D01*
X0008780Y0005945D02*
Y0005695D01*
X0009030Y0005945D02*
X0008780D01*
X0009030Y0005445D02*
Y0005945D01*
X0009280Y0005445D02*
X0009030D01*
X0009280Y0005695D02*
Y0005445D01*
X0008780Y0005695D02*
X0009280D01*
X0009480Y0009025D02*
Y0008775D01*
X0009730Y0009025D02*
X0009480D01*
X0009730Y0008525D02*
Y0009025D01*
X0009980Y0008525D02*
X0009730D01*
X0009980Y0008775D02*
Y0008525D01*
X0009480Y0008775D02*
X0009980D01*
X0008980Y0009025D02*
Y0008775D01*
X0009230Y0009025D02*
X0008980D01*
X0009230Y0008525D02*
Y0009025D01*
X0009480Y0008525D02*
X0009230D01*
X0009480Y0008775D02*
Y0008525D01*
X0008980Y0008775D02*
X0009480D01*
X0008380Y0008960D02*
Y0008710D01*
X0008630Y0008960D02*
X0008380D01*
X0008630Y0008460D02*
Y0008960D01*
X0008880Y0008460D02*
X0008630D01*
X0008880Y0008710D02*
Y0008460D01*
X0008380Y0008710D02*
X0008880D01*
X0009935Y0008625D02*
Y0008375D01*
X0010185Y0008625D02*
X0009935D01*
X0010185Y0008125D02*
Y0008625D01*
X0010435Y0008125D02*
X0010185D01*
X0010435Y0008375D02*
Y0008125D01*
X0009935Y0008375D02*
X0010435D01*
X0007170Y0013350D02*
Y0012850D01*
X0007670Y0013350D02*
X0007170D01*
X0007670Y0012850D02*
Y0013350D01*
X0007170Y0012850D02*
X0007670D01*
Y0013100D02*
X0007170D01*
X0007420Y0013350D02*
Y0012850D01*
X0008170Y0013350D02*
Y0012850D01*
X0008670Y0013350D02*
X0008170D01*
X0008670Y0012850D02*
Y0013350D01*
X0008170Y0012850D02*
X0008670D01*
Y0013100D02*
X0008170D01*
X0008420Y0013350D02*
Y0012850D01*
X0011000Y0001970D02*
X0010500D01*
X0010750Y0002220D02*
Y0001720D01*
X0007430Y0012200D02*
X0007180Y0011950D01*
X0007680D02*
X0007430Y0012200D01*
Y0011700D02*
X0007680Y0011950D01*
X0007180D02*
X0007430Y0011700D01*
X0008430Y0012200D02*
X0008180Y0011950D01*
X0008680D02*
X0008430Y0012200D01*
Y0011700D02*
X0008680Y0011950D01*
X0008180D02*
X0008430Y0011700D01*
X0009430Y0012200D02*
X0009180Y0011950D01*
X0009680D02*
X0009430Y0012200D01*
Y0011700D02*
X0009680Y0011950D01*
X0009180D02*
X0009430Y0011700D01*
X0002250Y0002250D02*
X0001750Y0001750D01*
X0002250D02*
X0001750Y0002250D01*
X0002250Y0003250D02*
X0001750Y0002750D01*
X0002250D02*
X0001750Y0003250D01*
X0003250Y0002250D02*
X0002750Y0001750D01*
X0003250D02*
X0002750Y0002250D01*
X0003250Y0003250D02*
X0002750Y0002750D01*
X0003250D02*
X0002750Y0003250D01*
X0004250Y0002250D02*
X0003750Y0001750D01*
X0004250D02*
X0003750Y0002250D01*
X0004250Y0003250D02*
X0003750Y0002750D01*
X0004250D02*
X0003750Y0003250D01*
X0005250Y0002250D02*
X0004750Y0001750D01*
X0005250D02*
X0004750Y0002250D01*
X0005250Y0003250D02*
X0004750Y0002750D01*
X0005250D02*
X0004750Y0003250D01*
X0006250Y0002250D02*
X0005750Y0001750D01*
X0006250D02*
X0005750Y0002250D01*
X0006250Y0003250D02*
X0005750Y0002750D01*
X0006250D02*
X0005750Y0003250D01*
X0002250Y0012250D02*
X0001750Y0011750D01*
X0002250D02*
X0001750Y0012250D01*
X0002250Y0013250D02*
X0001750Y0012750D01*
X0002250D02*
X0001750Y0013250D01*
X0003250Y0012250D02*
X0002750Y0011750D01*
X0003250D02*
X0002750Y0012250D01*
X0003250Y0013250D02*
X0002750Y0012750D01*
X0003250D02*
X0002750Y0013250D01*
X0004250Y0012250D02*
X0003750Y0011750D01*
X0004250D02*
X0003750Y0012250D01*
X0004250Y0013250D02*
X0003750Y0012750D01*
X0004250D02*
X0003750Y0013250D01*
X0005250Y0012250D02*
X0004750Y0011750D01*
X0005250D02*
X0004750Y0012250D01*
X0005250Y0013250D02*
X0004750Y0012750D01*
X0005250D02*
X0004750Y0013250D01*
X0006250Y0012250D02*
X0005750Y0011750D01*
X0006250D02*
X0005750Y0012250D01*
X0006250Y0013250D02*
X0005750Y0012750D01*
X0006250D02*
X0005750Y0013250D01*
X0007410Y0002100D02*
Y0001900D01*
X0007560Y0002250D02*
X0007410Y0002100D01*
X0007760Y0002250D02*
X0007560D01*
X0007910Y0002100D02*
X0007760Y0002250D01*
X0007910Y0001900D02*
Y0002100D01*
X0007760Y0001750D02*
X0007910Y0001900D01*
X0007560Y0001750D02*
X0007760D01*
X0007410Y0001900D02*
X0007560Y0001750D01*
X0007410Y0002600D02*
Y0002400D01*
X0007560Y0002750D02*
X0007410Y0002600D01*
X0007760Y0002750D02*
X0007560D01*
X0007910Y0002600D02*
X0007760Y0002750D01*
X0007910Y0002400D02*
Y0002600D01*
X0007760Y0002250D02*
X0007910Y0002400D01*
X0007560Y0002250D02*
X0007760D01*
X0007410Y0002400D02*
X0007560Y0002250D01*
X0007910Y0002100D02*
Y0001900D01*
X0008060Y0002250D02*
X0007910Y0002100D01*
X0008260Y0002250D02*
X0008060D01*
X0008410Y0002100D02*
X0008260Y0002250D01*
X0008410Y0001900D02*
Y0002100D01*
X0008260Y0001750D02*
X0008410Y0001900D01*
X0008060Y0001750D02*
X0008260D01*
X0007910Y0001900D02*
X0008060Y0001750D01*
X0007910Y0002600D02*
Y0002400D01*
X0008060Y0002750D02*
X0007910Y0002600D01*
X0008260Y0002750D02*
X0008060D01*
X0008410Y0002600D02*
X0008260Y0002750D01*
X0008410Y0002400D02*
Y0002600D01*
X0008260Y0002250D02*
X0008410Y0002400D01*
X0008060Y0002250D02*
X0008260D01*
X0007910Y0002400D02*
X0008060Y0002250D01*
X0008410Y0002100D02*
Y0001900D01*
X0008560Y0002250D02*
X0008410Y0002100D01*
X0008760Y0002250D02*
X0008560D01*
X0008910Y0002100D02*
X0008760Y0002250D01*
X0008910Y0001900D02*
Y0002100D01*
X0008760Y0001750D02*
X0008910Y0001900D01*
X0008560Y0001750D02*
X0008760D01*
X0008410Y0001900D02*
X0008560Y0001750D01*
X0008410Y0002600D02*
Y0002400D01*
X0008560Y0002750D02*
X0008410Y0002600D01*
X0008760Y0002750D02*
X0008560D01*
X0008910Y0002600D02*
X0008760Y0002750D01*
X0008910Y0002400D02*
Y0002600D01*
X0008760Y0002250D02*
X0008910Y0002400D01*
X0008560Y0002250D02*
X0008760D01*
X0008410Y0002400D02*
X0008560Y0002250D01*
X0008910Y0002100D02*
Y0001900D01*
X0009060Y0002250D02*
X0008910Y0002100D01*
X0009260Y0002250D02*
X0009060D01*
X0009410Y0002100D02*
X0009260Y0002250D01*
X0009410Y0001900D02*
Y0002100D01*
X0009260Y0001750D02*
X0009410Y0001900D01*
X0009060Y0001750D02*
X0009260D01*
X0008910Y0001900D02*
X0009060Y0001750D01*
X0008910Y0002600D02*
Y0002400D01*
X0009060Y0002750D02*
X0008910Y0002600D01*
X0009260Y0002750D02*
X0009060D01*
X0009410Y0002600D02*
X0009260Y0002750D01*
X0009410Y0002400D02*
Y0002600D01*
X0009260Y0002250D02*
X0009410Y0002400D01*
X0009060Y0002250D02*
X0009260D01*
X0008910Y0002400D02*
X0009060Y0002250D01*
X0009410Y0002100D02*
Y0001900D01*
X0009560Y0002250D02*
X0009410Y0002100D01*
X0009760Y0002250D02*
X0009560D01*
X0009910Y0002100D02*
X0009760Y0002250D01*
X0009910Y0001900D02*
Y0002100D01*
X0009760Y0001750D02*
X0009910Y0001900D01*
X0009560Y0001750D02*
X0009760D01*
X0009410Y0001900D02*
X0009560Y0001750D01*
X0009410Y0002600D02*
Y0002400D01*
X0009560Y0002750D02*
X0009410Y0002600D01*
X0009760Y0002750D02*
X0009560D01*
X0009910Y0002600D02*
X0009760Y0002750D01*
X0009910Y0002400D02*
Y0002600D01*
X0009760Y0002250D02*
X0009910Y0002400D01*
X0009560Y0002250D02*
X0009760D01*
X0009410Y0002400D02*
X0009560Y0002250D01*
X0012120Y0001970D02*
X0011620D01*
X0011870Y0002220D02*
Y0001720D01*
X0013240Y0001970D02*
X0012740D01*
X0012990Y0002220D02*
Y0001720D01*
X0015600Y0012880D02*
Y0012380D01*
X0016100Y0012880D02*
X0015600D01*
X0016100Y0012380D02*
Y0012880D01*
X0015600Y0012380D02*
X0016100D01*
Y0012880D02*
X0015600Y0012380D01*
X0016100D02*
X0015600Y0012880D01*
X0015590Y0002650D02*
Y0002150D01*
X0016090Y0002650D02*
X0015590D01*
X0016090Y0002150D02*
Y0002650D01*
X0015590Y0002150D02*
X0016090D01*
Y0002650D02*
X0015590Y0002150D01*
X0016090D02*
X0015590Y0002650D01*
M02*
