*
G04 Mass Parameters ***
*
G04 Image ***
*
%INC:\DOCUMENTS AND SETTINGS\PLACIDO DE-VITA\DESKTOP\LAVORO\GIT\BLUENRG\RF PCB\LAYOUT 2 LAYER\BLUENRG RF APP BOARD-2 LAYER.FAB*%
%ICAS*%
%MOIN*%
%IPPOS*%
%ASAXBY*%
G74*%FSLAN2X34Y34*%
*
G04 Aperture Definitions ***
*
%ADD10C,0.1200*%
%ADD11C,0.0580*%
%ADD12R,0.0220X0.0220*%
%ADD13R,0.0500X0.0500*%
%ADD14C,0.0350*%
%ADD15R,0.0350X0.0350*%
%ADD16R,0.2000X0.0500*%
%ADD17R,0.1500X0.0300*%
%ADD18R,0.0580X0.0580*%
%ADD19C,0.0620*%
%ADD20R,0.0620X0.0620*%
%ADD21R,0.0400X0.0720*%
%ADD22R,0.0550X0.0470*%
%ADD23R,0.0100X0.0430*%
%ADD24R,0.1420X0.1420*%
%ADD25R,0.0430X0.0100*%
%ADD26C,0.0640*%
%ADD27O,0.0940X0.0250*%
%ADD28R,0.0940X0.0250*%
%ADD29C,0.0100*%
%ADD30C,0.0010*%
%ADD31C,0.0120*%
%ADD32C,0.0200*%
%ADD33C,0.0190*%
%ADD34C,0.0100*%
%ADD35C,0.1200*%
%ADD36C,0.0580*%
%ADD37C,0.0350*%
%ADD38R,0.0350X0.0350*%
%ADD39R,0.2000X0.0500*%
%ADD40R,0.0580X0.0580*%
%ADD41C,0.0620*%
%ADD42R,0.0620X0.0620*%
%ADD43C,0.0640*%
%ADD44C,0.0100*%
%ADD45C,0.1050*%
%ADD46R,0.0220X0.0220*%
%ADD47R,0.0500X0.0500*%
%ADD48C,0.0500*%
%ADD49R,0.2500X0.1000*%
%ADD50R,0.1600X0.0350*%
%ADD51C,0.0780*%
%ADD52R,0.0780X0.0780*%
%ADD53R,0.0400X0.0720*%
%ADD54R,0.0550X0.0470*%
%ADD55R,0.0100X0.0430*%
%ADD56R,0.1420X0.1420*%
%ADD57R,0.0430X0.0100*%
%ADD58C,0.0690*%
%ADD59O,0.0940X0.0250*%
%ADD60R,0.0940X0.0250*%
%ADD61R,0.2100X0.0600*%
%ADD62R,0.1500X0.0300*%
%ADD63R,0.0500X0.0400*%
%ADD64C,0.0080*%
%ADD65C,0.0015*%
%ADD66C,0.0040*%
%ADD67C,0.0060*%
%ADD68C,0.0020*%
%ADD69C,0.0030*%
*
G04 Plot Data ***
*
G54D30*
G01Y0001070D02*
X0017200D01*
Y0013970D01*
X0000000D01*
Y0001070D01*
X-0049435Y-0017695D02*
Y-0018778D01*
X-0036935D01*
Y-0017695D01*
X-0049435D01*
X-0051518Y-0015528D02*
Y-0016612D01*
X-0034852D01*
Y-0015528D01*
X-0051518D01*
X-0049435Y-0013362D02*
Y-0014445D01*
X-0036935D01*
Y-0013362D01*
X-0049435D01*
G54D32*
G01X-0029489Y-0001487D02*
X-0029239D01*
X-0029156Y-0001403D01*
Y-0001320D01*
X-0029239Y-0001237D01*
X-0029489D01*
Y-0001737D01*
X-0029931Y-0001237D02*
Y-0001653D01*
X-0029972Y-0001737D01*
X-0030222D01*
X-0030264Y-0001653D01*
Y-0001237D01*
X-0030706Y-0001737D02*
X-0030956Y-0001487D01*
X-0030706Y-0001237D01*
X-0031039D02*
Y-0001737D01*
X-0031481Y-0001653D02*
X-0031522Y-0001737D01*
X-0031772D01*
X-0031814Y-0001653D01*
Y-0001320D01*
X-0031772Y-0001237D01*
X-0031522D01*
X-0031481Y-0001320D01*
X-0032256Y-0001570D02*
X-0032589D01*
X-0032256Y-0001737D02*
Y-0001487D01*
X-0032381Y-0001237D01*
X-0032464D01*
X-0032589Y-0001487D01*
Y-0001737D01*
X-0033197D02*
Y-0001237D01*
X-0033031D02*
X-0033364D01*
X-0033806Y-0001320D02*
X-0033847Y-0001237D01*
X-0034097D01*
X-0034139Y-0001320D01*
Y-0001403D01*
X-0034097Y-0001487D01*
X-0033847D01*
X-0033806Y-0001570D01*
Y-0001653D01*
X-0033847Y-0001737D01*
X-0034097D01*
X-0034139Y-0001653D01*
X-0035835Y-0001737D02*
Y-0001237D01*
X-0035877Y-0001737D02*
X-0035627D01*
X-0035543Y-0001570D01*
Y-0001403D01*
X-0035627Y-0001237D01*
X-0035877D01*
X-0036443Y-0001487D02*
X-0036318Y-0001737D01*
X-0036652Y-0001487D02*
X-0036402D01*
X-0036318Y-0001403D01*
Y-0001320D01*
X-0036402Y-0001237D01*
X-0036652D01*
Y-0001737D01*
X-0037093Y-0001570D02*
X-0037427D01*
X-0037093Y-0001737D02*
Y-0001487D01*
X-0037218Y-0001237D01*
X-0037302D01*
X-0037427Y-0001487D01*
Y-0001737D01*
X-0038160D02*
X-0038202Y-0001653D01*
Y-0001320D01*
X-0038160Y-0001237D01*
X-0037910D01*
X-0037868Y-0001320D01*
Y-0001653D01*
X-0037910Y-0001737D01*
X-0038160D01*
X-0038935D02*
Y-0001237D01*
X-0038977Y-0001737D02*
X-0038727D01*
X-0038643Y-0001653D01*
Y-0001570D01*
X-0038685Y-0001487D01*
X-0038935D02*
X-0038685D01*
X-0038643Y-0001403D01*
Y-0001320D01*
X-0038727Y-0001237D01*
X-0038977D01*
G54D34*
G01X-0027256Y-0020737D02*
X-0027172Y-0020570D01*
Y-0020403D01*
X-0027256Y-0020237D01*
X-0027581Y-0020403D02*
X-0027747Y-0020737D01*
X-0027831Y-0020903D02*
X-0027747Y-0020737D01*
X-0027914Y-0020403D01*
X-0028156D02*
X-0028322D01*
X-0028364Y-0020487D01*
X-0028447D01*
Y-0020403D02*
Y-0020737D01*
X-0028981D02*
Y-0020237D01*
X-0029022Y-0020737D02*
X-0028772D01*
X-0028689Y-0020570D01*
Y-0020403D01*
X-0028772Y-0020237D01*
X-0029022D01*
X-0029264Y-0020737D02*
X-0029347Y-0020570D01*
Y-0020403D01*
X-0029264Y-0020237D01*
X-0030810Y-0020737D02*
Y-0020237D01*
X-0030852Y-0020737D02*
X-0030602D01*
X-0030518Y-0020653D01*
Y-0020570D01*
X-0030560Y-0020487D01*
X-0030810D02*
X-0030560D01*
X-0030518Y-0020403D01*
Y-0020320D01*
X-0030602Y-0020237D01*
X-0030852D01*
X-0031093Y-0020737D02*
Y-0020237D01*
X-0031177Y-0020320D01*
X-0031260Y-0020487D01*
X-0031343Y-0020320D01*
X-0031427Y-0020237D01*
Y-0020737D01*
X-0031668Y-0020320D02*
X-0031710Y-0020237D01*
X-0031960D01*
X-0032002Y-0020320D01*
Y-0020403D01*
X-0031960Y-0020487D01*
X-0031710D01*
X-0031668Y-0020570D01*
Y-0020653D01*
X-0031710Y-0020737D01*
X-0031960D01*
X-0032002Y-0020653D01*
X-0032327Y-0020737D02*
X-0032243D01*
Y-0020653D01*
X-0032327D01*
Y-0020737D01*
X-0032652D02*
X-0032985D01*
X-0032652Y-0020403D01*
Y-0020320D01*
X-0032693Y-0020237D01*
X-0032943D01*
X-0032985Y-0020320D01*
X-0033227Y-0020487D02*
X-0033560D01*
X-0033927D02*
X-0033802Y-0020737D01*
X-0034135Y-0020487D02*
X-0033885D01*
X-0033802Y-0020403D01*
Y-0020320D01*
X-0033885Y-0020237D01*
X-0034135D01*
Y-0020737D01*
X-0034460Y-0020487D02*
X-0034710D01*
X-0034377Y-0020737D02*
X-0034710D01*
Y-0020237D01*
X-0034377D01*
X-0035118Y-0020737D02*
Y-0020487D01*
X-0034952Y-0020237D02*
X-0035077Y-0020487D01*
X-0035160D01*
X-0035285Y-0020237D01*
X-0035527Y-0020570D02*
X-0035860D01*
X-0035527Y-0020737D02*
Y-0020487D01*
X-0035652Y-0020237D01*
X-0035735D01*
X-0035860Y-0020487D01*
Y-0020737D01*
X-0036102D02*
X-0036393D01*
Y-0020237D01*
X-0037397Y-0020737D02*
X-0037731D01*
X-0037397Y-0020403D01*
Y-0020320D01*
X-0037439Y-0020237D01*
X-0037689D01*
X-0037731Y-0020320D01*
X-0037972Y-0020487D02*
X-0038306D01*
X-0038839Y-0020737D02*
Y-0020237D01*
X-0038881Y-0020737D02*
X-0038631D01*
X-0038547Y-0020570D01*
Y-0020403D01*
X-0038631Y-0020237D01*
X-0038881D01*
X-0039247Y-0020487D02*
X-0039122Y-0020737D01*
X-0039456Y-0020487D02*
X-0039206D01*
X-0039122Y-0020403D01*
Y-0020320D01*
X-0039206Y-0020237D01*
X-0039456D01*
Y-0020737D01*
X-0039697Y-0020570D02*
X-0040031D01*
X-0039697Y-0020737D02*
Y-0020487D01*
X-0039822Y-0020237D01*
X-0039906D01*
X-0040031Y-0020487D01*
Y-0020737D01*
X-0040564D02*
X-0040606Y-0020653D01*
Y-0020320D01*
X-0040564Y-0020237D01*
X-0040314D01*
X-0040272Y-0020320D01*
Y-0020653D01*
X-0040314Y-0020737D01*
X-0040564D01*
X-0041139D02*
Y-0020237D01*
X-0041181Y-0020737D02*
X-0040931D01*
X-0040847Y-0020653D01*
Y-0020570D01*
X-0040889Y-0020487D01*
X-0041139D02*
X-0040889D01*
X-0040847Y-0020403D01*
Y-0020320D01*
X-0040931Y-0020237D01*
X-0041181D01*
X-0042518Y-0020487D02*
X-0042268D01*
X-0042185Y-0020403D01*
Y-0020320D01*
X-0042268Y-0020237D01*
X-0042518D01*
Y-0020737D01*
X-0043093Y-0020487D02*
X-0042843D01*
X-0042760Y-0020403D01*
Y-0020320D01*
X-0042843Y-0020237D01*
X-0043093D01*
Y-0020737D01*
X-0043335Y-0020570D02*
X-0043668D01*
X-0043335Y-0020737D02*
Y-0020487D01*
X-0043460Y-0020237D01*
X-0043543D01*
X-0043668Y-0020487D01*
Y-0020737D01*
X-0044756Y-0020487D02*
X-0045006D01*
Y-0020737D02*
Y-0020237D01*
X-0044672D01*
X-0045372Y-0020487D02*
X-0045247Y-0020737D01*
X-0045581Y-0020487D02*
X-0045331D01*
X-0045247Y-0020403D01*
Y-0020320D01*
X-0045331Y-0020237D01*
X-0045581D01*
Y-0020737D01*
X-0046585Y-0020237D02*
Y-0020737D01*
X-0046668Y-0020653D01*
X-0046835Y-0020320D01*
X-0046918Y-0020237D01*
Y-0020737D01*
X-0047160Y-0020487D02*
X-0047493D01*
X-0047902D02*
X-0047735D01*
Y-0020653D01*
X-0047777Y-0020737D01*
X-0048027D01*
X-0048068Y-0020653D01*
Y-0020320D01*
X-0048027Y-0020237D01*
X-0047777D01*
X-0047735Y-0020320D01*
X-0048435Y-0020487D02*
X-0048310Y-0020737D01*
X-0048643Y-0020487D02*
X-0048393D01*
X-0048310Y-0020403D01*
Y-0020320D01*
X-0048393Y-0020237D01*
X-0048643D01*
Y-0020737D01*
X-0048885Y-0020237D02*
Y-0020737D01*
X-0048968Y-0020653D01*
X-0049135Y-0020320D01*
X-0049218Y-0020237D01*
Y-0020737D01*
X-0049543Y-0020487D02*
X-0049793D01*
X-0049460Y-0020737D02*
X-0049793D01*
Y-0020237D01*
X-0049460D01*
X-0050035D02*
Y-0020653D01*
X-0050077Y-0020737D01*
X-0050327D01*
X-0050368Y-0020653D01*
Y-0020237D01*
X-0050610Y-0020737D02*
X-0050902D01*
Y-0020237D01*
X-0051435Y-0020737D02*
Y-0020237D01*
X-0051477Y-0020737D02*
X-0051227D01*
X-0051143Y-0020653D01*
Y-0020570D01*
X-0051185Y-0020487D01*
X-0051435D02*
X-0051185D01*
X-0051143Y-0020403D01*
Y-0020320D01*
X-0051227Y-0020237D01*
X-0051477D01*
X-0013924Y-0018505D02*
X-0013841Y-0018338D01*
Y-0018172D01*
X-0013924Y-0018005D01*
X-0014249Y-0018505D02*
X-0014499D01*
X-0014457Y-0018422D01*
X-0014291Y-0018255D01*
X-0014249Y-0018172D01*
X-0014499D01*
X-0015032Y-0018505D02*
X-0015074Y-0018422D01*
Y-0018255D01*
X-0015032Y-0018172D01*
X-0014782D01*
X-0014741Y-0018255D01*
Y-0018422D01*
X-0014782Y-0018505D01*
X-0015032D01*
X-0015316D02*
X-0015399Y-0018338D01*
Y-0018172D01*
X-0015316Y-0018005D01*
X-0016016Y-0018505D02*
X-0016099Y-0018422D01*
X-0016141Y-0018338D01*
Y-0018172D01*
X-0016099Y-0018088D01*
X-0016016Y-0018005D01*
X-0015932D01*
X-0015849Y-0018088D01*
X-0015807Y-0018172D01*
Y-0018338D01*
X-0015849Y-0018422D01*
X-0015932Y-0018505D01*
X-0016016D01*
X-0016591D02*
X-0016674Y-0018422D01*
X-0016716Y-0018338D01*
Y-0018172D01*
X-0016674Y-0018088D01*
X-0016591Y-0018005D01*
X-0016507D01*
X-0016424Y-0018088D01*
X-0016382Y-0018172D01*
Y-0018338D01*
X-0016424Y-0018422D01*
X-0016507Y-0018505D01*
X-0016591D01*
X-0017041D02*
X-0016957D01*
Y-0018422D01*
X-0017041D01*
Y-0018505D01*
X-0017574D02*
X-0017657Y-0018422D01*
X-0017699Y-0018338D01*
Y-0018172D01*
X-0017657Y-0018088D01*
X-0017574Y-0018005D01*
X-0017491D01*
X-0017407Y-0018088D01*
X-0017366Y-0018172D01*
Y-0018338D01*
X-0017407Y-0018422D01*
X-0017491Y-0018505D01*
X-0017574D01*
X-0018787D02*
X-0018703Y-0018338D01*
Y-0018172D01*
X-0018787Y-0018005D01*
X-0019153Y-0018172D02*
X-0019403D01*
X-0019445Y-0018255D01*
X-0019403Y-0018338D01*
X-0019153D01*
X-0019112Y-0018422D01*
X-0019153Y-0018505D01*
X-0019403D01*
X-0019687D02*
X-0019853D01*
X-0019770D02*
Y-0018005D01*
X-0019853D01*
X-0020220D03*
X-0020137Y-0018505D02*
X-0020303D01*
X-0020220D02*
Y-0018172D01*
X-0020303D01*
X-0020753Y-0018505D02*
Y-0018255D01*
X-0020587Y-0018505D02*
Y-0018255D01*
X-0020628Y-0018172D01*
X-0020712D01*
X-0020753Y-0018255D01*
X-0020795Y-0018172D01*
X-0020878D01*
X-0020920Y-0018255D01*
Y-0018505D01*
X-0021162D02*
X-0021245Y-0018338D01*
Y-0018172D01*
X-0021162Y-0018005D01*
X-0021862Y-0018505D02*
X-0021945Y-0018422D01*
X-0021987Y-0018338D01*
Y-0018172D01*
X-0021945Y-0018088D01*
X-0021862Y-0018005D01*
X-0021778D01*
X-0021695Y-0018088D01*
X-0021653Y-0018172D01*
Y-0018338D01*
X-0021695Y-0018422D01*
X-0021778Y-0018505D01*
X-0021862D01*
X-0022437D02*
X-0022520Y-0018422D01*
X-0022562Y-0018338D01*
Y-0018172D01*
X-0022520Y-0018088D01*
X-0022437Y-0018005D01*
X-0022353D01*
X-0022270Y-0018088D01*
X-0022228Y-0018172D01*
Y-0018338D01*
X-0022270Y-0018422D01*
X-0022353Y-0018505D01*
X-0022437D01*
X-0023012D02*
X-0023095Y-0018422D01*
X-0023137Y-0018338D01*
Y-0018172D01*
X-0023095Y-0018088D01*
X-0023012Y-0018005D01*
X-0022928D01*
X-0022845Y-0018088D01*
X-0022803Y-0018172D01*
Y-0018338D01*
X-0022845Y-0018422D01*
X-0022928Y-0018505D01*
X-0023012D01*
X-0023587D02*
X-0023670Y-0018422D01*
X-0023712Y-0018338D01*
Y-0018172D01*
X-0023670Y-0018088D01*
X-0023587Y-0018005D01*
X-0023503D01*
X-0023420Y-0018088D01*
X-0023378Y-0018172D01*
Y-0018338D01*
X-0023420Y-0018422D01*
X-0023503Y-0018505D01*
X-0023587D01*
X-0024162D02*
X-0024245Y-0018422D01*
X-0024287Y-0018338D01*
Y-0018172D01*
X-0024245Y-0018088D01*
X-0024162Y-0018005D01*
X-0024078D01*
X-0023995Y-0018088D01*
X-0023953Y-0018172D01*
Y-0018338D01*
X-0023995Y-0018422D01*
X-0024078Y-0018505D01*
X-0024162D01*
X-0024862Y-0018422D02*
X-0024820Y-0018505D01*
X-0024570D01*
X-0024528Y-0018422D01*
Y-0018255D01*
X-0024612Y-0018172D01*
X-0024862D01*
Y-0018005D01*
X-0024528D01*
X-0025187Y-0018505D02*
X-0025103D01*
Y-0018422D01*
X-0025187D01*
Y-0018505D01*
X-0025512D02*
X-0025678D01*
X-0025595D02*
Y-0018005D01*
X-0025678Y-0018088D01*
X-0028467Y-0018535D02*
Y-0018035D01*
X-0028300D02*
X-0028633D01*
X-0029167Y-0018535D02*
X-0029208Y-0018452D01*
Y-0018118D01*
X-0029167Y-0018035D01*
X-0028917D01*
X-0028875Y-0018118D01*
Y-0018452D01*
X-0028917Y-0018535D01*
X-0029167D01*
X-0029742D02*
Y-0018035D01*
X-0029783Y-0018535D02*
X-0029533D01*
X-0029450Y-0018452D01*
Y-0018368D01*
X-0029492Y-0018285D01*
X-0029742D02*
X-0029492D01*
X-0029450Y-0018202D01*
Y-0018118D01*
X-0029533Y-0018035D01*
X-0029783D01*
X-0030108Y-0018535D02*
X-0030025D01*
Y-0018452D01*
X-0030108D01*
Y-0018535D01*
X-0030433D02*
X-0030767D01*
X-0030433Y-0018202D01*
Y-0018118D01*
X-0030475Y-0018035D01*
X-0030725D01*
X-0030767Y-0018118D01*
X-0031008Y-0018285D02*
X-0031342D01*
X-0031708D02*
X-0031583Y-0018535D01*
X-0031917Y-0018285D02*
X-0031667D01*
X-0031583Y-0018202D01*
Y-0018118D01*
X-0031667Y-0018035D01*
X-0031917D01*
Y-0018535D01*
X-0032242Y-0018285D02*
X-0032492D01*
X-0032158Y-0018535D02*
X-0032492D01*
Y-0018035D01*
X-0032158D01*
X-0032900Y-0018535D02*
Y-0018285D01*
X-0032733Y-0018035D02*
X-0032858Y-0018285D01*
X-0032942D01*
X-0033067Y-0018035D01*
X-0033308Y-0018368D02*
X-0033642D01*
X-0033308Y-0018535D02*
Y-0018285D01*
X-0033433Y-0018035D01*
X-0033517D01*
X-0033642Y-0018285D01*
Y-0018535D01*
X-0033883D02*
X-0034175D01*
Y-0018035D01*
X-0035179Y-0018535D02*
X-0035512D01*
X-0035179Y-0018202D01*
Y-0018118D01*
X-0035221Y-0018035D01*
X-0035471D01*
X-0035512Y-0018118D01*
X-0035754Y-0018285D02*
X-0036087D01*
X-0036621Y-0018535D02*
Y-0018035D01*
X-0036662Y-0018535D02*
X-0036412D01*
X-0036329Y-0018368D01*
Y-0018202D01*
X-0036412Y-0018035D01*
X-0036662D01*
X-0037029Y-0018285D02*
X-0036904Y-0018535D01*
X-0037237Y-0018285D02*
X-0036987D01*
X-0036904Y-0018202D01*
Y-0018118D01*
X-0036987Y-0018035D01*
X-0037237D01*
Y-0018535D01*
X-0037479Y-0018368D02*
X-0037812D01*
X-0037479Y-0018535D02*
Y-0018285D01*
X-0037604Y-0018035D01*
X-0037687D01*
X-0037812Y-0018285D01*
Y-0018535D01*
X-0038346D02*
X-0038387Y-0018452D01*
Y-0018118D01*
X-0038346Y-0018035D01*
X-0038096D01*
X-0038054Y-0018118D01*
Y-0018452D01*
X-0038096Y-0018535D01*
X-0038346D01*
X-0038921D02*
Y-0018035D01*
X-0038962Y-0018535D02*
X-0038712D01*
X-0038629Y-0018452D01*
Y-0018368D01*
X-0038671Y-0018285D01*
X-0038921D02*
X-0038671D01*
X-0038629Y-0018202D01*
Y-0018118D01*
X-0038712Y-0018035D01*
X-0038962D01*
X-0040300Y-0018285D02*
X-0040050D01*
X-0039967Y-0018202D01*
Y-0018118D01*
X-0040050Y-0018035D01*
X-0040300D01*
Y-0018535D01*
X-0040875Y-0018285D02*
X-0040625D01*
X-0040542Y-0018202D01*
Y-0018118D01*
X-0040625Y-0018035D01*
X-0040875D01*
Y-0018535D01*
X-0041117Y-0018368D02*
X-0041450D01*
X-0041117Y-0018535D02*
Y-0018285D01*
X-0041242Y-0018035D01*
X-0041325D01*
X-0041450Y-0018285D01*
Y-0018535D01*
X-0042537Y-0018285D02*
X-0042787D01*
Y-0018535D02*
Y-0018035D01*
X-0042454D01*
X-0043154Y-0018285D02*
X-0043029Y-0018535D01*
X-0043362Y-0018285D02*
X-0043112D01*
X-0043029Y-0018202D01*
Y-0018118D01*
X-0043112Y-0018035D01*
X-0043362D01*
Y-0018535D01*
X-0044367Y-0018035D02*
Y-0018535D01*
X-0044450Y-0018452D01*
X-0044617Y-0018118D01*
X-0044700Y-0018035D01*
Y-0018535D01*
X-0044942Y-0018285D02*
X-0045275D01*
X-0045683D02*
X-0045517D01*
Y-0018452D01*
X-0045558Y-0018535D01*
X-0045808D01*
X-0045850Y-0018452D01*
Y-0018118D01*
X-0045808Y-0018035D01*
X-0045558D01*
X-0045517Y-0018118D01*
X-0046217Y-0018285D02*
X-0046092Y-0018535D01*
X-0046425Y-0018285D02*
X-0046175D01*
X-0046092Y-0018202D01*
Y-0018118D01*
X-0046175Y-0018035D01*
X-0046425D01*
Y-0018535D01*
X-0046667Y-0018035D02*
Y-0018535D01*
X-0046750Y-0018452D01*
X-0046917Y-0018118D01*
X-0047000Y-0018035D01*
Y-0018535D01*
X-0047325Y-0018285D02*
X-0047575D01*
X-0047242Y-0018535D02*
X-0047575D01*
Y-0018035D01*
X-0047242D01*
X-0047817D02*
Y-0018452D01*
X-0047858Y-0018535D01*
X-0048108D01*
X-0048150Y-0018452D01*
Y-0018035D01*
X-0048392Y-0018535D02*
X-0048683D01*
Y-0018035D01*
X-0049217Y-0018535D02*
Y-0018035D01*
X-0049258Y-0018535D02*
X-0049008D01*
X-0048925Y-0018452D01*
Y-0018368D01*
X-0048967Y-0018285D01*
X-0049217D02*
X-0048967D01*
X-0048925Y-0018202D01*
Y-0018118D01*
X-0049008Y-0018035D01*
X-0049258D01*
X-0018193Y-0016238D02*
X-0018110Y-0016072D01*
Y-0015905D01*
X-0018193Y-0015738D01*
X-0018560Y-0015905D02*
X-0018810D01*
X-0018852Y-0015988D01*
X-0018810Y-0016072D01*
X-0018560D01*
X-0018518Y-0016155D01*
X-0018560Y-0016238D01*
X-0018810D01*
X-0019093D02*
X-0019260D01*
X-0019177D02*
Y-0015738D01*
X-0019260D01*
X-0019627Y-0015739D02*
Y-0015738D01*
X-0019626D01*
Y-0015739D01*
X-0019627D01*
X-0019543Y-0016238D02*
X-0019710D01*
X-0019627D02*
Y-0015905D01*
X-0019710D01*
X-0020160Y-0016238D02*
Y-0015988D01*
X-0019993Y-0016238D02*
Y-0015988D01*
X-0020035Y-0015905D01*
X-0020118D01*
X-0020160Y-0015988D01*
X-0020202Y-0015905D01*
X-0020285D01*
X-0020327Y-0015988D01*
Y-0016238D01*
X-0020568D02*
X-0020652Y-0016072D01*
Y-0015905D01*
X-0020568Y-0015738D01*
X-0021268Y-0016238D02*
X-0021352Y-0016155D01*
X-0021393Y-0016072D01*
Y-0015905D01*
X-0021352Y-0015822D01*
X-0021268Y-0015738D01*
X-0021185D01*
X-0021102Y-0015822D01*
X-0021060Y-0015905D01*
Y-0016072D01*
X-0021102Y-0016155D01*
X-0021185Y-0016238D01*
X-0021268D01*
X-0021843D02*
X-0021927Y-0016155D01*
X-0021968Y-0016072D01*
Y-0015905D01*
X-0021927Y-0015822D01*
X-0021843Y-0015738D01*
X-0021760D01*
X-0021677Y-0015822D01*
X-0021635Y-0015905D01*
Y-0016072D01*
X-0021677Y-0016155D01*
X-0021760Y-0016238D01*
X-0021843D01*
X-0022418D02*
X-0022502Y-0016155D01*
X-0022543Y-0016072D01*
Y-0015905D01*
X-0022502Y-0015822D01*
X-0022418Y-0015738D01*
X-0022335D01*
X-0022252Y-0015822D01*
X-0022210Y-0015905D01*
Y-0016072D01*
X-0022252Y-0016155D01*
X-0022335Y-0016238D01*
X-0022418D01*
X-0022993D02*
X-0023077Y-0016155D01*
X-0023118Y-0016072D01*
Y-0015905D01*
X-0023077Y-0015822D01*
X-0022993Y-0015738D01*
X-0022910D01*
X-0022827Y-0015822D01*
X-0022785Y-0015905D01*
Y-0016072D01*
X-0022827Y-0016155D01*
X-0022910Y-0016238D01*
X-0022993D01*
X-0023568D02*
X-0023652Y-0016155D01*
X-0023693Y-0016072D01*
Y-0015905D01*
X-0023652Y-0015822D01*
X-0023568Y-0015738D01*
X-0023485D01*
X-0023402Y-0015822D01*
X-0023360Y-0015905D01*
Y-0016072D01*
X-0023402Y-0016155D01*
X-0023485Y-0016238D01*
X-0023568D01*
X-0024143D02*
X-0024227Y-0016155D01*
X-0024268Y-0016072D01*
Y-0015905D01*
X-0024227Y-0015822D01*
X-0024143Y-0015738D01*
X-0024060D01*
X-0023977Y-0015822D01*
X-0023935Y-0015905D01*
Y-0016072D01*
X-0023977Y-0016155D01*
X-0024060Y-0016238D01*
X-0024143D01*
X-0024593D02*
X-0024510D01*
Y-0016155D01*
X-0024593D01*
Y-0016238D01*
X-0024960Y-0015988D02*
X-0024918Y-0015905D01*
Y-0015822D01*
X-0024960Y-0015738D01*
X-0025210D01*
X-0025252Y-0015822D01*
Y-0015905D01*
X-0025210Y-0015988D01*
X-0024960D01*
X-0024918Y-0016072D01*
Y-0016155D01*
X-0024960Y-0016238D01*
X-0025210D01*
X-0025252Y-0016155D01*
Y-0016072D01*
X-0025210Y-0015988D01*
X-0025493Y-0016238D02*
X-0025827D01*
X-0025493Y-0015905D01*
Y-0015822D01*
X-0025535Y-0015738D01*
X-0025785D01*
X-0025827Y-0015822D01*
X-0046397Y-0016237D02*
X-0046731D01*
X-0046564Y-0015903D01*
X-0046481D01*
Y-0016403D01*
X-0046972Y-0016153D02*
X-0047306D01*
X-0047672D02*
X-0047547Y-0016403D01*
X-0047881Y-0016153D02*
X-0047631D01*
X-0047547Y-0016070D01*
Y-0015987D01*
X-0047631Y-0015903D01*
X-0047881D01*
Y-0016403D01*
X-0048206Y-0016153D02*
X-0048456D01*
Y-0016403D02*
Y-0015903D01*
X-0048122D01*
X-0049502Y-0016403D02*
X-0049752D01*
X-0049793Y-0016320D01*
Y-0016153D01*
X-0049752Y-0016070D01*
X-0049502D01*
X-0049460Y-0016153D01*
Y-0016237D01*
X-0049793D01*
X-0050035Y-0016070D02*
X-0050202D01*
X-0050243Y-0016153D01*
X-0050327D01*
Y-0016070D02*
Y-0016403D01*
X-0050860D02*
X-0050902Y-0016320D01*
Y-0016153D01*
X-0050860Y-0016070D01*
X-0050610D01*
X-0050568Y-0016153D01*
Y-0016320D01*
X-0050610Y-0016403D01*
X-0050860D01*
X-0051143Y-0016320D02*
X-0051185Y-0016403D01*
X-0051435D01*
X-0051477Y-0016320D01*
Y-0015987D01*
X-0051435Y-0015903D01*
X-0051185D01*
X-0051143Y-0015987D01*
X-0013959Y-0014037D02*
X-0013876Y-0013870D01*
Y-0013703D01*
X-0013959Y-0013537D01*
X-0014284Y-0014037D02*
X-0014534D01*
X-0014492Y-0013953D01*
X-0014326Y-0013787D01*
X-0014284Y-0013703D01*
X-0014534D01*
X-0015067Y-0014037D02*
X-0015109Y-0013953D01*
Y-0013787D01*
X-0015067Y-0013703D01*
X-0014817D01*
X-0014776Y-0013787D01*
Y-0013953D01*
X-0014817Y-0014037D01*
X-0015067D01*
X-0015351D02*
X-0015434Y-0013870D01*
Y-0013703D01*
X-0015351Y-0013537D01*
X-0016051Y-0014037D02*
X-0016134Y-0013953D01*
X-0016176Y-0013870D01*
Y-0013703D01*
X-0016134Y-0013620D01*
X-0016051Y-0013537D01*
X-0015967D01*
X-0015884Y-0013620D01*
X-0015842Y-0013703D01*
Y-0013870D01*
X-0015884Y-0013953D01*
X-0015967Y-0014037D01*
X-0016051D01*
X-0016626D02*
X-0016709Y-0013953D01*
X-0016751Y-0013870D01*
Y-0013703D01*
X-0016709Y-0013620D01*
X-0016626Y-0013537D01*
X-0016542D01*
X-0016459Y-0013620D01*
X-0016417Y-0013703D01*
Y-0013870D01*
X-0016459Y-0013953D01*
X-0016542Y-0014037D01*
X-0016626D01*
X-0017076D02*
X-0016992D01*
Y-0013953D01*
X-0017076D01*
Y-0014037D01*
X-0017609D02*
X-0017692Y-0013953D01*
X-0017734Y-0013870D01*
Y-0013703D01*
X-0017692Y-0013620D01*
X-0017609Y-0013537D01*
X-0017526D01*
X-0017442Y-0013620D01*
X-0017401Y-0013703D01*
Y-0013870D01*
X-0017442Y-0013953D01*
X-0017526Y-0014037D01*
X-0017609D01*
X-0018822D02*
X-0018738Y-0013870D01*
Y-0013703D01*
X-0018822Y-0013537D01*
X-0019188Y-0013703D02*
X-0019438D01*
X-0019480Y-0013787D01*
X-0019438Y-0013870D01*
X-0019188D01*
X-0019147Y-0013953D01*
X-0019188Y-0014037D01*
X-0019438D01*
X-0019722D02*
X-0019888D01*
X-0019805D02*
Y-0013537D01*
X-0019888D01*
X-0020255D02*
Y-0013536D01*
Y-0013537D01*
X-0020172Y-0014037D02*
X-0020338D01*
X-0020255D02*
Y-0013703D01*
X-0020338D01*
X-0020788Y-0014037D02*
Y-0013787D01*
X-0020622Y-0014037D02*
Y-0013787D01*
X-0020663Y-0013703D01*
X-0020747D01*
X-0020788Y-0013787D01*
X-0020830Y-0013703D01*
X-0020913D01*
X-0020955Y-0013787D01*
Y-0014037D01*
X-0021197D02*
X-0021280Y-0013870D01*
Y-0013703D01*
X-0021197Y-0013537D01*
X-0021897Y-0014037D02*
X-0021980Y-0013953D01*
X-0022022Y-0013870D01*
Y-0013703D01*
X-0021980Y-0013620D01*
X-0021897Y-0013537D01*
X-0021813D01*
X-0021730Y-0013620D01*
X-0021688Y-0013703D01*
Y-0013870D01*
X-0021730Y-0013953D01*
X-0021813Y-0014037D01*
X-0021897D01*
X-0022472D02*
X-0022555Y-0013953D01*
X-0022597Y-0013870D01*
Y-0013703D01*
X-0022555Y-0013620D01*
X-0022472Y-0013537D01*
X-0022388D01*
X-0022305Y-0013620D01*
X-0022263Y-0013703D01*
Y-0013870D01*
X-0022305Y-0013953D01*
X-0022388Y-0014037D01*
X-0022472D01*
X-0023047D02*
X-0023130Y-0013953D01*
X-0023172Y-0013870D01*
Y-0013703D01*
X-0023130Y-0013620D01*
X-0023047Y-0013537D01*
X-0022963D01*
X-0022880Y-0013620D01*
X-0022838Y-0013703D01*
Y-0013870D01*
X-0022880Y-0013953D01*
X-0022963Y-0014037D01*
X-0023047D01*
X-0023622D02*
X-0023705Y-0013953D01*
X-0023747Y-0013870D01*
Y-0013703D01*
X-0023705Y-0013620D01*
X-0023622Y-0013537D01*
X-0023538D01*
X-0023455Y-0013620D01*
X-0023413Y-0013703D01*
Y-0013870D01*
X-0023455Y-0013953D01*
X-0023538Y-0014037D01*
X-0023622D01*
X-0024197D02*
X-0024280Y-0013953D01*
X-0024322Y-0013870D01*
Y-0013703D01*
X-0024280Y-0013620D01*
X-0024197Y-0013537D01*
X-0024113D01*
X-0024030Y-0013620D01*
X-0023988Y-0013703D01*
Y-0013870D01*
X-0024030Y-0013953D01*
X-0024113Y-0014037D01*
X-0024197D01*
X-0024897Y-0013953D02*
X-0024855Y-0014037D01*
X-0024605D01*
X-0024563Y-0013953D01*
Y-0013787D01*
X-0024647Y-0013703D01*
X-0024897D01*
Y-0013537D01*
X-0024563D01*
X-0025222Y-0014037D02*
X-0025138D01*
Y-0013953D01*
X-0025222D01*
Y-0014037D01*
X-0025547D02*
X-0025713D01*
X-0025630D02*
Y-0013537D01*
X-0025713Y-0013620D01*
X-0028598Y-0013922D02*
X-0028348D01*
X-0028265Y-0013838D01*
Y-0013755D01*
X-0028348Y-0013672D01*
X-0028598D01*
Y-0014172D01*
X-0029132D02*
X-0029173Y-0014088D01*
Y-0013755D01*
X-0029132Y-0013672D01*
X-0028882D01*
X-0028840Y-0013755D01*
Y-0014088D01*
X-0028882Y-0014172D01*
X-0029132D01*
X-0029582D02*
Y-0013672D01*
X-0029415D02*
X-0029748D01*
X-0030073Y-0014172D02*
X-0029990D01*
Y-0014088D01*
X-0030073D01*
Y-0014172D01*
X-0030398D02*
X-0030732D01*
X-0030398Y-0013838D01*
Y-0013755D01*
X-0030440Y-0013672D01*
X-0030690D01*
X-0030732Y-0013755D01*
X-0030973Y-0013922D02*
X-0031307D01*
X-0031673D02*
X-0031548Y-0014172D01*
X-0031882Y-0013922D02*
X-0031632D01*
X-0031548Y-0013838D01*
Y-0013755D01*
X-0031632Y-0013672D01*
X-0031882D01*
Y-0014172D01*
X-0032207Y-0013922D02*
X-0032457D01*
X-0032123Y-0014172D02*
X-0032457D01*
Y-0013672D01*
X-0032123D01*
X-0032865Y-0014172D02*
Y-0013922D01*
X-0032698Y-0013672D02*
X-0032823Y-0013922D01*
X-0032907D01*
X-0033032Y-0013672D01*
X-0033273Y-0014005D02*
X-0033607D01*
X-0033273Y-0014172D02*
Y-0013922D01*
X-0033398Y-0013672D01*
X-0033482D01*
X-0033607Y-0013922D01*
Y-0014172D01*
X-0033848D02*
X-0034140D01*
Y-0013672D01*
X-0035144Y-0014172D02*
X-0035477D01*
X-0035144Y-0013838D01*
Y-0013755D01*
X-0035186Y-0013672D01*
X-0035436D01*
X-0035477Y-0013755D01*
X-0035719Y-0013922D02*
X-0036052D01*
X-0036586Y-0014172D02*
Y-0013672D01*
X-0036627Y-0014172D02*
X-0036377D01*
X-0036294Y-0014005D01*
Y-0013838D01*
X-0036377Y-0013672D01*
X-0036627D01*
X-0036994Y-0013922D02*
X-0036869Y-0014172D01*
X-0037202Y-0013922D02*
X-0036952D01*
X-0036869Y-0013838D01*
Y-0013755D01*
X-0036952Y-0013672D01*
X-0037202D01*
Y-0014172D01*
X-0037444Y-0014005D02*
X-0037777D01*
X-0037444Y-0014172D02*
Y-0013922D01*
X-0037569Y-0013672D01*
X-0037652D01*
X-0037777Y-0013922D01*
Y-0014172D01*
X-0038311D02*
X-0038352Y-0014088D01*
Y-0013755D01*
X-0038311Y-0013672D01*
X-0038061D01*
X-0038019Y-0013755D01*
Y-0014088D01*
X-0038061Y-0014172D01*
X-0038311D01*
X-0038886D02*
Y-0013672D01*
X-0038927Y-0014172D02*
X-0038677D01*
X-0038594Y-0014088D01*
Y-0014005D01*
X-0038636Y-0013922D01*
X-0038886D02*
X-0038636D01*
X-0038594Y-0013838D01*
Y-0013755D01*
X-0038677Y-0013672D01*
X-0038927D01*
X-0040265Y-0013922D02*
X-0040015D01*
X-0039932Y-0013838D01*
Y-0013755D01*
X-0040015Y-0013672D01*
X-0040265D01*
Y-0014172D01*
X-0040840Y-0013922D02*
X-0040590D01*
X-0040507Y-0013838D01*
Y-0013755D01*
X-0040590Y-0013672D01*
X-0040840D01*
Y-0014172D01*
X-0041082Y-0014005D02*
X-0041415D01*
X-0041082Y-0014172D02*
Y-0013922D01*
X-0041207Y-0013672D01*
X-0041290D01*
X-0041415Y-0013922D01*
Y-0014172D01*
X-0042502Y-0013922D02*
X-0042752D01*
Y-0014172D02*
Y-0013672D01*
X-0042419D01*
X-0043119Y-0013922D02*
X-0042994Y-0014172D01*
X-0043327Y-0013922D02*
X-0043077D01*
X-0042994Y-0013838D01*
Y-0013755D01*
X-0043077Y-0013672D01*
X-0043327D01*
Y-0014172D01*
X-0044332Y-0013672D02*
Y-0014172D01*
X-0044415Y-0014088D01*
X-0044582Y-0013755D01*
X-0044665Y-0013672D01*
Y-0014172D01*
X-0044907Y-0013922D02*
X-0045240D01*
X-0045648D02*
X-0045482D01*
Y-0014088D01*
X-0045523Y-0014172D01*
X-0045773D01*
X-0045815Y-0014088D01*
Y-0013755D01*
X-0045773Y-0013672D01*
X-0045523D01*
X-0045482Y-0013755D01*
X-0046182Y-0013922D02*
X-0046057Y-0014172D01*
X-0046390Y-0013922D02*
X-0046140D01*
X-0046057Y-0013838D01*
Y-0013755D01*
X-0046140Y-0013672D01*
X-0046390D01*
Y-0014172D01*
X-0046632Y-0013672D02*
Y-0014172D01*
X-0046715Y-0014088D01*
X-0046882Y-0013755D01*
X-0046965Y-0013672D01*
Y-0014172D01*
X-0047290Y-0013922D02*
X-0047540D01*
X-0047207Y-0014172D02*
X-0047540D01*
Y-0013672D01*
X-0047207D01*
X-0047782D02*
Y-0014088D01*
X-0047823Y-0014172D01*
X-0048073D01*
X-0048115Y-0014088D01*
Y-0013672D01*
X-0048357Y-0014172D02*
X-0048648D01*
Y-0013672D01*
X-0049182Y-0014172D02*
Y-0013672D01*
X-0049223Y-0014172D02*
X-0048973D01*
X-0048890Y-0014088D01*
Y-0014005D01*
X-0048932Y-0013922D01*
X-0049182D02*
X-0048932D01*
X-0048890Y-0013838D01*
Y-0013755D01*
X-0048973Y-0013672D01*
X-0049223D01*
X-0027256Y-0012070D02*
X-0027172Y-0011903D01*
Y-0011737D01*
X-0027256Y-0011570D01*
X-0027581Y-0011737D02*
X-0027747Y-0012070D01*
X-0027831Y-0012237D02*
X-0027747Y-0012070D01*
X-0027914Y-0011737D01*
X-0028156D02*
X-0028322D01*
X-0028364Y-0011820D01*
X-0028447D01*
Y-0011737D02*
Y-0012070D01*
X-0028981D02*
Y-0011570D01*
X-0029022Y-0012070D02*
X-0028772D01*
X-0028689Y-0011903D01*
Y-0011737D01*
X-0028772Y-0011570D01*
X-0029022D01*
X-0029264Y-0012070D02*
X-0029347Y-0011903D01*
Y-0011737D01*
X-0029264Y-0011570D01*
X-0030685Y-0012070D02*
Y-0011570D01*
X-0030518D02*
X-0030852D01*
X-0031093Y-0012070D02*
Y-0011570D01*
X-0031177Y-0011653D01*
X-0031260Y-0011820D01*
X-0031343Y-0011653D01*
X-0031427Y-0011570D01*
Y-0012070D01*
X-0031668Y-0011653D02*
X-0031710Y-0011570D01*
X-0031960D01*
X-0032002Y-0011653D01*
Y-0011737D01*
X-0031960Y-0011820D01*
X-0031710D01*
X-0031668Y-0011903D01*
Y-0011987D01*
X-0031710Y-0012070D01*
X-0031960D01*
X-0032002Y-0011987D01*
X-0032327Y-0012070D02*
X-0032243D01*
Y-0011987D01*
X-0032327D01*
Y-0012070D01*
X-0032652D02*
X-0032985D01*
X-0032652Y-0011737D01*
Y-0011653D01*
X-0032693Y-0011570D01*
X-0032943D01*
X-0032985Y-0011653D01*
X-0033227Y-0011820D02*
X-0033560D01*
X-0033927D02*
X-0033802Y-0012070D01*
X-0034135Y-0011820D02*
X-0033885D01*
X-0033802Y-0011737D01*
Y-0011653D01*
X-0033885Y-0011570D01*
X-0034135D01*
Y-0012070D01*
X-0034460Y-0011820D02*
X-0034710D01*
X-0034377Y-0012070D02*
X-0034710D01*
Y-0011570D01*
X-0034377D01*
X-0035118Y-0012070D02*
Y-0011820D01*
X-0034952Y-0011570D02*
X-0035077Y-0011820D01*
X-0035160D01*
X-0035285Y-0011570D01*
X-0035527Y-0011903D02*
X-0035860D01*
X-0035527Y-0012070D02*
Y-0011820D01*
X-0035652Y-0011570D01*
X-0035735D01*
X-0035860Y-0011820D01*
Y-0012070D01*
X-0036102D02*
X-0036393D01*
Y-0011570D01*
X-0037397Y-0012070D02*
X-0037731D01*
X-0037397Y-0011737D01*
Y-0011653D01*
X-0037439Y-0011570D01*
X-0037689D01*
X-0037731Y-0011653D01*
X-0037972Y-0011820D02*
X-0038306D01*
X-0038839Y-0012070D02*
Y-0011570D01*
X-0038881Y-0012070D02*
X-0038631D01*
X-0038547Y-0011903D01*
Y-0011737D01*
X-0038631Y-0011570D01*
X-0038881D01*
X-0039247Y-0011820D02*
X-0039122Y-0012070D01*
X-0039456Y-0011820D02*
X-0039206D01*
X-0039122Y-0011737D01*
Y-0011653D01*
X-0039206Y-0011570D01*
X-0039456D01*
Y-0012070D01*
X-0039697Y-0011903D02*
X-0040031D01*
X-0039697Y-0012070D02*
Y-0011820D01*
X-0039822Y-0011570D01*
X-0039906D01*
X-0040031Y-0011820D01*
Y-0012070D01*
X-0040564D02*
X-0040606Y-0011987D01*
Y-0011653D01*
X-0040564Y-0011570D01*
X-0040314D01*
X-0040272Y-0011653D01*
Y-0011987D01*
X-0040314Y-0012070D01*
X-0040564D01*
X-0041139D02*
Y-0011570D01*
X-0041181Y-0012070D02*
X-0040931D01*
X-0040847Y-0011987D01*
Y-0011903D01*
X-0040889Y-0011820D01*
X-0041139D02*
X-0040889D01*
X-0040847Y-0011737D01*
Y-0011653D01*
X-0040931Y-0011570D01*
X-0041181D01*
X-0042518Y-0011820D02*
X-0042268D01*
X-0042185Y-0011737D01*
Y-0011653D01*
X-0042268Y-0011570D01*
X-0042518D01*
Y-0012070D01*
X-0043093Y-0011820D02*
X-0042843D01*
X-0042760Y-0011737D01*
Y-0011653D01*
X-0042843Y-0011570D01*
X-0043093D01*
Y-0012070D01*
X-0043335Y-0011903D02*
X-0043668D01*
X-0043335Y-0012070D02*
Y-0011820D01*
X-0043460Y-0011570D01*
X-0043543D01*
X-0043668Y-0011820D01*
Y-0012070D01*
X-0044756Y-0011820D02*
X-0045006D01*
Y-0012070D02*
Y-0011570D01*
X-0044672D01*
X-0045372Y-0011820D02*
X-0045247Y-0012070D01*
X-0045581Y-0011820D02*
X-0045331D01*
X-0045247Y-0011737D01*
Y-0011653D01*
X-0045331Y-0011570D01*
X-0045581D01*
Y-0012070D01*
X-0046585Y-0011570D02*
Y-0012070D01*
X-0046668Y-0011987D01*
X-0046835Y-0011653D01*
X-0046918Y-0011570D01*
Y-0012070D01*
X-0047160Y-0011820D02*
X-0047493D01*
X-0047902D02*
X-0047735D01*
Y-0011987D01*
X-0047777Y-0012070D01*
X-0048027D01*
X-0048068Y-0011987D01*
Y-0011653D01*
X-0048027Y-0011570D01*
X-0047777D01*
X-0047735Y-0011653D01*
X-0048435Y-0011820D02*
X-0048310Y-0012070D01*
X-0048643Y-0011820D02*
X-0048393D01*
X-0048310Y-0011737D01*
Y-0011653D01*
X-0048393Y-0011570D01*
X-0048643D01*
Y-0012070D01*
X-0048885Y-0011570D02*
Y-0012070D01*
X-0048968Y-0011987D01*
X-0049135Y-0011653D01*
X-0049218Y-0011570D01*
Y-0012070D01*
X-0049543Y-0011820D02*
X-0049793D01*
X-0049460Y-0012070D02*
X-0049793D01*
Y-0011570D01*
X-0049460D01*
X-0050035D02*
Y-0011987D01*
X-0050077Y-0012070D01*
X-0050327D01*
X-0050368Y-0011987D01*
Y-0011570D01*
X-0050610Y-0012070D02*
X-0050902D01*
Y-0011570D01*
X-0051435Y-0012070D02*
Y-0011570D01*
X-0051477Y-0012070D02*
X-0051227D01*
X-0051143Y-0011987D01*
Y-0011903D01*
X-0051185Y-0011820D01*
X-0051435D02*
X-0051185D01*
X-0051143Y-0011737D01*
Y-0011653D01*
X-0051227Y-0011570D01*
X-0051477D01*
X-0030685Y-0009903D02*
Y-0009403D01*
X-0030518D02*
X-0030852D01*
X-0031427Y-0009653D02*
X-0031177D01*
X-0031093Y-0009570D01*
Y-0009487D01*
X-0031177Y-0009403D01*
X-0031427D01*
Y-0009903D01*
X-0031668Y-0009487D02*
X-0031710Y-0009403D01*
X-0031960D01*
X-0032002Y-0009487D01*
Y-0009570D01*
X-0031960Y-0009653D01*
X-0031710D01*
X-0031668Y-0009737D01*
Y-0009820D01*
X-0031710Y-0009903D01*
X-0031960D01*
X-0032002Y-0009820D01*
X-0032327Y-0009903D02*
X-0032243D01*
Y-0009820D01*
X-0032327D01*
Y-0009903D01*
X-0032652D02*
X-0032985D01*
X-0032652Y-0009570D01*
Y-0009487D01*
X-0032693Y-0009403D01*
X-0032943D01*
X-0032985Y-0009487D01*
X-0033227Y-0009653D02*
X-0033560D01*
X-0033927D02*
X-0033802Y-0009903D01*
X-0034135Y-0009653D02*
X-0033885D01*
X-0033802Y-0009570D01*
Y-0009487D01*
X-0033885Y-0009403D01*
X-0034135D01*
Y-0009903D01*
X-0034460Y-0009653D02*
X-0034710D01*
X-0034377Y-0009903D02*
X-0034710D01*
Y-0009403D01*
X-0034377D01*
X-0035118Y-0009903D02*
Y-0009653D01*
X-0034952Y-0009403D02*
X-0035077Y-0009653D01*
X-0035160D01*
X-0035285Y-0009403D01*
X-0035527Y-0009737D02*
X-0035860D01*
X-0035527Y-0009903D02*
Y-0009653D01*
X-0035652Y-0009403D01*
X-0035735D01*
X-0035860Y-0009653D01*
Y-0009903D01*
X-0036102D02*
X-0036393D01*
Y-0009403D01*
X-0037397Y-0009903D02*
X-0037731D01*
X-0037397Y-0009570D01*
Y-0009487D01*
X-0037439Y-0009403D01*
X-0037689D01*
X-0037731Y-0009487D01*
X-0037972Y-0009653D02*
X-0038306D01*
X-0038839Y-0009903D02*
Y-0009403D01*
X-0038881Y-0009903D02*
X-0038631D01*
X-0038547Y-0009737D01*
Y-0009570D01*
X-0038631Y-0009403D01*
X-0038881D01*
X-0039247Y-0009653D02*
X-0039122Y-0009903D01*
X-0039456Y-0009653D02*
X-0039206D01*
X-0039122Y-0009570D01*
Y-0009487D01*
X-0039206Y-0009403D01*
X-0039456D01*
Y-0009903D01*
X-0039697Y-0009737D02*
X-0040031D01*
X-0039697Y-0009903D02*
Y-0009653D01*
X-0039822Y-0009403D01*
X-0039906D01*
X-0040031Y-0009653D01*
Y-0009903D01*
X-0040564D02*
X-0040606Y-0009820D01*
Y-0009487D01*
X-0040564Y-0009403D01*
X-0040314D01*
X-0040272Y-0009487D01*
Y-0009820D01*
X-0040314Y-0009903D01*
X-0040564D01*
X-0041139D02*
Y-0009403D01*
X-0041181Y-0009903D02*
X-0040931D01*
X-0040847Y-0009820D01*
Y-0009737D01*
X-0040889Y-0009653D01*
X-0041139D02*
X-0040889D01*
X-0040847Y-0009570D01*
Y-0009487D01*
X-0040931Y-0009403D01*
X-0041181D01*
X-0042518Y-0009653D02*
X-0042268D01*
X-0042185Y-0009570D01*
Y-0009487D01*
X-0042268Y-0009403D01*
X-0042518D01*
Y-0009903D01*
X-0043093Y-0009653D02*
X-0042843D01*
X-0042760Y-0009570D01*
Y-0009487D01*
X-0042843Y-0009403D01*
X-0043093D01*
Y-0009903D01*
X-0043335Y-0009737D02*
X-0043668D01*
X-0043335Y-0009903D02*
Y-0009653D01*
X-0043460Y-0009403D01*
X-0043543D01*
X-0043668Y-0009653D01*
Y-0009903D01*
X-0044756Y-0009653D02*
X-0045006D01*
Y-0009903D02*
Y-0009403D01*
X-0044672D01*
X-0045372Y-0009653D02*
X-0045247Y-0009903D01*
X-0045581Y-0009653D02*
X-0045331D01*
X-0045247Y-0009570D01*
Y-0009487D01*
X-0045331Y-0009403D01*
X-0045581D01*
Y-0009903D01*
X-0046585Y-0009403D02*
Y-0009903D01*
X-0046668Y-0009820D01*
X-0046835Y-0009487D01*
X-0046918Y-0009403D01*
Y-0009903D01*
X-0047160Y-0009653D02*
X-0047493D01*
X-0047902D02*
X-0047735D01*
Y-0009820D01*
X-0047777Y-0009903D01*
X-0048027D01*
X-0048068Y-0009820D01*
Y-0009487D01*
X-0048027Y-0009403D01*
X-0047777D01*
X-0047735Y-0009487D01*
X-0048435Y-0009653D02*
X-0048310Y-0009903D01*
X-0048643Y-0009653D02*
X-0048393D01*
X-0048310Y-0009570D01*
Y-0009487D01*
X-0048393Y-0009403D01*
X-0048643D01*
Y-0009903D01*
X-0048885Y-0009403D02*
Y-0009903D01*
X-0048968Y-0009820D01*
X-0049135Y-0009487D01*
X-0049218Y-0009403D01*
Y-0009903D01*
X-0049543Y-0009653D02*
X-0049793D01*
X-0049460Y-0009903D02*
X-0049793D01*
Y-0009403D01*
X-0049460D01*
X-0050035D02*
Y-0009820D01*
X-0050077Y-0009903D01*
X-0050327D01*
X-0050368Y-0009820D01*
Y-0009403D01*
X-0050610Y-0009903D02*
X-0050902D01*
Y-0009403D01*
X-0051435Y-0009903D02*
Y-0009403D01*
X-0051477Y-0009903D02*
X-0051227D01*
X-0051143Y-0009820D01*
Y-0009737D01*
X-0051185Y-0009653D01*
X-0051435D02*
X-0051185D01*
X-0051143Y-0009570D01*
Y-0009487D01*
X-0051227Y-0009403D01*
X-0051477D01*
X-0030685Y-0007737D02*
Y-0007237D01*
X-0030518D02*
X-0030852D01*
X-0031093Y-0007320D02*
X-0031135Y-0007237D01*
X-0031385D01*
X-0031427Y-0007320D01*
Y-0007403D01*
X-0031385Y-0007487D01*
X-0031135D01*
X-0031093Y-0007570D01*
Y-0007653D01*
X-0031135Y-0007737D01*
X-0031385D01*
X-0031427Y-0007653D01*
X-0031668Y-0007320D02*
X-0031710Y-0007237D01*
X-0031960D01*
X-0032002Y-0007320D01*
Y-0007403D01*
X-0031960Y-0007487D01*
X-0031710D01*
X-0031668Y-0007570D01*
Y-0007653D01*
X-0031710Y-0007737D01*
X-0031960D01*
X-0032002Y-0007653D01*
X-0032327Y-0007737D02*
X-0032243D01*
Y-0007653D01*
X-0032327D01*
Y-0007737D01*
X-0032652D02*
X-0032985D01*
X-0032652Y-0007403D01*
Y-0007320D01*
X-0032693Y-0007237D01*
X-0032943D01*
X-0032985Y-0007320D01*
X-0033227Y-0007487D02*
X-0033560D01*
X-0033927D02*
X-0033802Y-0007737D01*
X-0034135Y-0007487D02*
X-0033885D01*
X-0033802Y-0007403D01*
Y-0007320D01*
X-0033885Y-0007237D01*
X-0034135D01*
Y-0007737D01*
X-0034460Y-0007487D02*
X-0034710D01*
X-0034377Y-0007737D02*
X-0034710D01*
Y-0007237D01*
X-0034377D01*
X-0035118Y-0007737D02*
Y-0007487D01*
X-0034952Y-0007237D02*
X-0035077Y-0007487D01*
X-0035160D01*
X-0035285Y-0007237D01*
X-0035527Y-0007570D02*
X-0035860D01*
X-0035527Y-0007737D02*
Y-0007487D01*
X-0035652Y-0007237D01*
X-0035735D01*
X-0035860Y-0007487D01*
Y-0007737D01*
X-0036102D02*
X-0036393D01*
Y-0007237D01*
X-0037397Y-0007737D02*
X-0037731D01*
X-0037397Y-0007403D01*
Y-0007320D01*
X-0037439Y-0007237D01*
X-0037689D01*
X-0037731Y-0007320D01*
X-0037972Y-0007487D02*
X-0038306D01*
X-0038839Y-0007737D02*
Y-0007237D01*
X-0038881Y-0007737D02*
X-0038631D01*
X-0038547Y-0007570D01*
Y-0007403D01*
X-0038631Y-0007237D01*
X-0038881D01*
X-0039247Y-0007487D02*
X-0039122Y-0007737D01*
X-0039456Y-0007487D02*
X-0039206D01*
X-0039122Y-0007403D01*
Y-0007320D01*
X-0039206Y-0007237D01*
X-0039456D01*
Y-0007737D01*
X-0039697Y-0007570D02*
X-0040031D01*
X-0039697Y-0007737D02*
Y-0007487D01*
X-0039822Y-0007237D01*
X-0039906D01*
X-0040031Y-0007487D01*
Y-0007737D01*
X-0040564D02*
X-0040606Y-0007653D01*
Y-0007320D01*
X-0040564Y-0007237D01*
X-0040314D01*
X-0040272Y-0007320D01*
Y-0007653D01*
X-0040314Y-0007737D01*
X-0040564D01*
X-0041139D02*
Y-0007237D01*
X-0041181Y-0007737D02*
X-0040931D01*
X-0040847Y-0007653D01*
Y-0007570D01*
X-0040889Y-0007487D01*
X-0041139D02*
X-0040889D01*
X-0040847Y-0007403D01*
Y-0007320D01*
X-0040931Y-0007237D01*
X-0041181D01*
X-0042518Y-0007487D02*
X-0042268D01*
X-0042185Y-0007403D01*
Y-0007320D01*
X-0042268Y-0007237D01*
X-0042518D01*
Y-0007737D01*
X-0043093Y-0007487D02*
X-0042843D01*
X-0042760Y-0007403D01*
Y-0007320D01*
X-0042843Y-0007237D01*
X-0043093D01*
Y-0007737D01*
X-0043335Y-0007570D02*
X-0043668D01*
X-0043335Y-0007737D02*
Y-0007487D01*
X-0043460Y-0007237D01*
X-0043543D01*
X-0043668Y-0007487D01*
Y-0007737D01*
X-0044756Y-0007487D02*
X-0045006D01*
Y-0007737D02*
Y-0007237D01*
X-0044672D01*
X-0045372Y-0007487D02*
X-0045247Y-0007737D01*
X-0045581Y-0007487D02*
X-0045331D01*
X-0045247Y-0007403D01*
Y-0007320D01*
X-0045331Y-0007237D01*
X-0045581D01*
Y-0007737D01*
X-0046585Y-0007237D02*
Y-0007737D01*
X-0046668Y-0007653D01*
X-0046835Y-0007320D01*
X-0046918Y-0007237D01*
Y-0007737D01*
X-0047160Y-0007487D02*
X-0047493D01*
X-0047902D02*
X-0047735D01*
Y-0007653D01*
X-0047777Y-0007737D01*
X-0048027D01*
X-0048068Y-0007653D01*
Y-0007320D01*
X-0048027Y-0007237D01*
X-0047777D01*
X-0047735Y-0007320D01*
X-0048435Y-0007487D02*
X-0048310Y-0007737D01*
X-0048643Y-0007487D02*
X-0048393D01*
X-0048310Y-0007403D01*
Y-0007320D01*
X-0048393Y-0007237D01*
X-0048643D01*
Y-0007737D01*
X-0048885Y-0007237D02*
Y-0007737D01*
X-0048968Y-0007653D01*
X-0049135Y-0007320D01*
X-0049218Y-0007237D01*
Y-0007737D01*
X-0049543Y-0007487D02*
X-0049793D01*
X-0049460Y-0007737D02*
X-0049793D01*
Y-0007237D01*
X-0049460D01*
X-0050035D02*
Y-0007653D01*
X-0050077Y-0007737D01*
X-0050327D01*
X-0050368Y-0007653D01*
Y-0007237D01*
X-0050610Y-0007737D02*
X-0050902D01*
Y-0007237D01*
X-0051435Y-0007737D02*
Y-0007237D01*
X-0051477Y-0007737D02*
X-0051227D01*
X-0051143Y-0007653D01*
Y-0007570D01*
X-0051185Y-0007487D01*
X-0051435D02*
X-0051185D01*
X-0051143Y-0007403D01*
Y-0007320D01*
X-0051227Y-0007237D01*
X-0051477D01*
X-0027289Y-0006237D02*
X-0027539D01*
X-0027581Y-0006153D01*
Y-0005987D01*
X-0027539Y-0005903D01*
X-0027289D01*
X-0027247Y-0005987D01*
Y-0006070D01*
X-0027581D01*
X-0027822Y-0006237D02*
Y-0005987D01*
X-0027864Y-0005903D01*
X-0028114D01*
Y-0006237D01*
X-0028647D02*
X-0028689Y-0006153D01*
Y-0005987D01*
X-0028647Y-0005903D01*
X-0028397D01*
X-0028356Y-0005987D01*
Y-0006153D01*
X-0028397Y-0006237D01*
X-0028647D01*
X-0028931Y-0005737D02*
Y-0006237D01*
X-0029014Y-0006153D01*
X-0029181Y-0005820D01*
X-0029264Y-0005737D01*
Y-0006237D01*
X-0030352Y-0005987D02*
Y-0005903D01*
X-0030268D01*
Y-0005987D01*
X-0030352D01*
Y-0006237D02*
Y-0006153D01*
X-0030268D01*
Y-0006237D01*
X-0030352D01*
X-0031439D02*
Y-0005987D01*
X-0031481Y-0005903D01*
X-0031731D01*
Y-0006237D01*
X-0032264D02*
X-0032306Y-0006153D01*
Y-0005987D01*
X-0032264Y-0005903D01*
X-0032014D01*
X-0031972Y-0005987D01*
Y-0006153D01*
X-0032014Y-0006237D01*
X-0032264D01*
X-0032631Y-0005737D02*
Y-0005736D01*
X-0032630D01*
Y-0005737D01*
X-0032631D01*
X-0032547Y-0006237D02*
X-0032714D01*
X-0032631D02*
Y-0005903D01*
X-0032714D01*
X-0033039D02*
X-0033289D01*
X-0032997Y-0006237D02*
X-0033164D01*
X-0033206Y-0006153D01*
Y-0005737D01*
X-0033531Y-0005903D02*
X-0033781D01*
X-0033822Y-0005987D01*
Y-0006153D01*
X-0033781Y-0006237D01*
X-0033531D01*
X-0034106D02*
X-0034356D01*
X-0034397Y-0006153D01*
Y-0005987D01*
X-0034356Y-0005903D01*
X-0034106D01*
X-0034064Y-0005987D01*
Y-0006070D01*
X-0034397D01*
X-0034681Y-0005903D02*
X-0034931D01*
X-0034639Y-0006237D02*
X-0034806D01*
X-0034847Y-0006153D01*
Y-0005737D01*
X-0035464Y-0006237D02*
X-0035506Y-0006153D01*
Y-0005987D01*
X-0035464Y-0005903D01*
X-0035214D01*
X-0035172Y-0005987D01*
Y-0006153D01*
X-0035214Y-0006237D01*
X-0035464D01*
X-0035747Y-0005903D02*
X-0035914D01*
X-0035956Y-0005987D01*
X-0036039D01*
Y-0005903D02*
Y-0006237D01*
X-0036614Y-0005987D02*
X-0036364D01*
X-0036281Y-0005903D01*
Y-0005820D01*
X-0036364Y-0005737D01*
X-0036614D01*
Y-0006237D01*
X-0037868Y-0005903D02*
X-0037702D01*
X-0037660Y-0005987D01*
Y-0006153D01*
X-0037618Y-0006237D01*
X-0037910D01*
X-0037952Y-0006153D01*
X-0037910Y-0006070D01*
X-0037660D01*
X-0038277Y-0005737D02*
Y-0005736D01*
X-0038276D01*
Y-0005737D01*
X-0038277D01*
X-0038193Y-0006237D02*
X-0038360D01*
X-0038277D02*
Y-0005903D01*
X-0038360D01*
X-0038643Y-0005737D02*
Y-0005903D01*
X-0038810Y-0006237D01*
X-0038977Y-0005903D01*
Y-0005737D01*
X-0021164Y-0004403D02*
X-0021414D01*
X-0021456Y-0004487D01*
X-0021414Y-0004570D01*
X-0021164D01*
X-0021122Y-0004653D01*
X-0021164Y-0004737D01*
X-0021414D01*
X-0021864D02*
Y-0004487D01*
X-0021697Y-0004737D02*
Y-0004487D01*
X-0021739Y-0004403D01*
X-0021822D01*
X-0021864Y-0004487D01*
X-0021906Y-0004403D01*
X-0021989D01*
X-0022031Y-0004487D01*
Y-0004737D01*
X-0022272D02*
Y-0004487D01*
X-0022314Y-0004403D01*
X-0022564D01*
Y-0004737D02*
Y-0004237D01*
X-0023097Y-0004737D02*
X-0023139Y-0004653D01*
Y-0004487D01*
X-0023097Y-0004403D01*
X-0022847D01*
X-0022806Y-0004487D01*
Y-0004653D01*
X-0022847Y-0004737D01*
X-0023097D01*
X-0024352D02*
X-0024435Y-0004653D01*
X-0024477Y-0004570D01*
Y-0004403D01*
X-0024435Y-0004320D01*
X-0024352Y-0004237D01*
X-0024268D01*
X-0024185Y-0004320D01*
X-0024143Y-0004403D01*
Y-0004570D01*
X-0024185Y-0004653D01*
X-0024268Y-0004737D01*
X-0024352D01*
X-0024927D02*
X-0025010Y-0004653D01*
X-0025052Y-0004570D01*
Y-0004403D01*
X-0025010Y-0004320D01*
X-0024927Y-0004237D01*
X-0024843D01*
X-0024760Y-0004320D01*
X-0024718Y-0004403D01*
Y-0004570D01*
X-0024760Y-0004653D01*
X-0024843Y-0004737D01*
X-0024927D01*
X-0025502D02*
X-0025585Y-0004653D01*
X-0025627Y-0004570D01*
Y-0004403D01*
X-0025585Y-0004320D01*
X-0025502Y-0004237D01*
X-0025418D01*
X-0025335Y-0004320D01*
X-0025293Y-0004403D01*
Y-0004570D01*
X-0025335Y-0004653D01*
X-0025418Y-0004737D01*
X-0025502D01*
X-0026077D02*
X-0026160Y-0004653D01*
X-0026202Y-0004570D01*
Y-0004403D01*
X-0026160Y-0004320D01*
X-0026077Y-0004237D01*
X-0025993D01*
X-0025910Y-0004320D01*
X-0025868Y-0004403D01*
Y-0004570D01*
X-0025910Y-0004653D01*
X-0025993Y-0004737D01*
X-0026077D01*
X-0026652D02*
X-0026735Y-0004653D01*
X-0026777Y-0004570D01*
Y-0004403D01*
X-0026735Y-0004320D01*
X-0026652Y-0004237D01*
X-0026568D01*
X-0026485Y-0004320D01*
X-0026443Y-0004403D01*
Y-0004570D01*
X-0026485Y-0004653D01*
X-0026568Y-0004737D01*
X-0026652D01*
X-0027227D02*
X-0027310Y-0004653D01*
X-0027352Y-0004570D01*
Y-0004403D01*
X-0027310Y-0004320D01*
X-0027227Y-0004237D01*
X-0027143D01*
X-0027060Y-0004320D01*
X-0027018Y-0004403D01*
Y-0004570D01*
X-0027060Y-0004653D01*
X-0027143Y-0004737D01*
X-0027227D01*
X-0027677D02*
X-0027593D01*
Y-0004653D01*
X-0027677D01*
Y-0004737D01*
X-0028210D02*
X-0028293Y-0004653D01*
X-0028335Y-0004570D01*
Y-0004403D01*
X-0028293Y-0004320D01*
X-0028210Y-0004237D01*
X-0028127D01*
X-0028043Y-0004320D01*
X-0028002Y-0004403D01*
Y-0004570D01*
X-0028043Y-0004653D01*
X-0028127Y-0004737D01*
X-0028210D01*
X-0028910Y-0004653D02*
X-0028868Y-0004737D01*
X-0028618D01*
X-0028577Y-0004653D01*
Y-0004487D01*
X-0028660Y-0004403D01*
X-0028910D01*
Y-0004237D01*
X-0028577D01*
X-0029152Y-0004403D02*
X-0029485D01*
X-0029152Y-0004570D02*
X-0029485D01*
X-0030572Y-0004487D02*
X-0030822D01*
X-0030489Y-0004737D02*
X-0030822D01*
Y-0004237D01*
X-0030489D01*
X-0031064Y-0004653D02*
X-0031106Y-0004737D01*
X-0031356D01*
X-0031397Y-0004653D01*
Y-0004320D01*
X-0031356Y-0004237D01*
X-0031106D01*
X-0031064Y-0004320D01*
X-0031639Y-0004237D02*
Y-0004737D01*
X-0031722Y-0004653D01*
X-0031889Y-0004320D01*
X-0031972Y-0004237D01*
Y-0004737D01*
X-0032214Y-0004570D02*
X-0032547D01*
X-0032214Y-0004737D02*
Y-0004487D01*
X-0032339Y-0004237D01*
X-0032422D01*
X-0032547Y-0004487D01*
Y-0004737D01*
X-0033081D02*
Y-0004237D01*
X-0033122Y-0004737D02*
X-0032872D01*
X-0032789Y-0004570D01*
Y-0004403D01*
X-0032872Y-0004237D01*
X-0033122D01*
X-0033447Y-0004487D02*
X-0033697D01*
X-0033364Y-0004737D02*
X-0033697D01*
Y-0004237D01*
X-0033364D01*
X-0034272Y-0004487D02*
X-0034022D01*
X-0033939Y-0004403D01*
Y-0004320D01*
X-0034022Y-0004237D01*
X-0034272D01*
Y-0004737D01*
X-0034514D02*
Y-0004237D01*
X-0034597Y-0004320D01*
X-0034681Y-0004487D01*
X-0034764Y-0004320D01*
X-0034847Y-0004237D01*
Y-0004737D01*
X-0035089D02*
X-0035256D01*
X-0035172D02*
Y-0004237D01*
X-0035089D02*
X-0035256D01*
X-0036635Y-0004737D02*
Y-0004237D01*
X-0036677Y-0004737D02*
X-0036427D01*
X-0036343Y-0004570D01*
Y-0004403D01*
X-0036427Y-0004237D01*
X-0036677D01*
X-0037043Y-0004487D02*
X-0036918Y-0004737D01*
X-0037252Y-0004487D02*
X-0037002D01*
X-0036918Y-0004403D01*
Y-0004320D01*
X-0037002Y-0004237D01*
X-0037252D01*
Y-0004737D01*
X-0037493Y-0004570D02*
X-0037827D01*
X-0037493Y-0004737D02*
Y-0004487D01*
X-0037618Y-0004237D01*
X-0037702D01*
X-0037827Y-0004487D01*
Y-0004737D01*
X-0038360D02*
X-0038402Y-0004653D01*
Y-0004320D01*
X-0038360Y-0004237D01*
X-0038110D01*
X-0038068Y-0004320D01*
Y-0004653D01*
X-0038110Y-0004737D01*
X-0038360D01*
X-0038935D02*
Y-0004237D01*
X-0038977Y-0004737D02*
X-0038727D01*
X-0038643Y-0004653D01*
Y-0004570D01*
X-0038685Y-0004487D01*
X-0038935D02*
X-0038685D01*
X-0038643Y-0004403D01*
Y-0004320D01*
X-0038727Y-0004237D01*
X-0038977D01*
X-0014765Y-0003205D02*
X-0015098D01*
X-0014932Y-0002872D01*
X-0014848D01*
Y-0003372D01*
X-0015340Y-0003122D02*
X-0015673D01*
X-0015915Y-0002872D02*
X-0016165Y-0003372D01*
X-0016615Y-0002955D02*
Y-0003288D01*
X-0016448Y-0003122D02*
X-0016782D01*
X-0017869Y-0003372D02*
X-0017786Y-0003205D01*
Y-0003038D01*
X-0017869Y-0002872D01*
X-0018236Y-0003038D02*
X-0018486D01*
X-0018527Y-0003122D01*
X-0018486Y-0003205D01*
X-0018236D01*
X-0018194Y-0003288D01*
X-0018236Y-0003372D01*
X-0018486D01*
X-0018769D02*
X-0018936D01*
X-0018852D02*
Y-0002872D01*
X-0018936D01*
X-0019303D02*
Y-0002871D01*
X-0019302D01*
Y-0002872D01*
X-0019303D01*
X-0019219Y-0003372D02*
X-0019386D01*
X-0019302D02*
Y-0003038D01*
X-0019386D01*
X-0019836Y-0003372D02*
Y-0003122D01*
X-0019669Y-0003372D02*
Y-0003122D01*
X-0019711Y-0003038D01*
X-0019794D01*
X-0019836Y-0003122D01*
X-0019877Y-0003038D01*
X-0019961D01*
X-0020002Y-0003122D01*
Y-0003372D01*
X-0020244D02*
X-0020327Y-0003205D01*
Y-0003038D01*
X-0020244Y-0002872D01*
X-0020944Y-0003372D02*
X-0021027Y-0003288D01*
X-0021069Y-0003205D01*
Y-0003038D01*
X-0021027Y-0002955D01*
X-0020944Y-0002872D01*
X-0020861D01*
X-0020777Y-0002955D01*
X-0020736Y-0003038D01*
Y-0003205D01*
X-0020777Y-0003288D01*
X-0020861Y-0003372D01*
X-0020944D01*
X-0021519D02*
X-0021602Y-0003288D01*
X-0021644Y-0003205D01*
Y-0003038D01*
X-0021602Y-0002955D01*
X-0021519Y-0002872D01*
X-0021436D01*
X-0021352Y-0002955D01*
X-0021311Y-0003038D01*
Y-0003205D01*
X-0021352Y-0003288D01*
X-0021436Y-0003372D01*
X-0021519D01*
X-0022094D02*
X-0022177Y-0003288D01*
X-0022219Y-0003205D01*
Y-0003038D01*
X-0022177Y-0002955D01*
X-0022094Y-0002872D01*
X-0022011D01*
X-0021927Y-0002955D01*
X-0021886Y-0003038D01*
Y-0003205D01*
X-0021927Y-0003288D01*
X-0022011Y-0003372D01*
X-0022094D01*
X-0022669D02*
X-0022752Y-0003288D01*
X-0022794Y-0003205D01*
Y-0003038D01*
X-0022752Y-0002955D01*
X-0022669Y-0002872D01*
X-0022586D01*
X-0022502Y-0002955D01*
X-0022461Y-0003038D01*
Y-0003205D01*
X-0022502Y-0003288D01*
X-0022586Y-0003372D01*
X-0022669D01*
X-0023244D02*
X-0023327Y-0003288D01*
X-0023369Y-0003205D01*
Y-0003038D01*
X-0023327Y-0002955D01*
X-0023244Y-0002872D01*
X-0023161D01*
X-0023077Y-0002955D01*
X-0023036Y-0003038D01*
Y-0003205D01*
X-0023077Y-0003288D01*
X-0023161Y-0003372D01*
X-0023244D01*
X-0023944Y-0003288D02*
X-0023902Y-0003372D01*
X-0023652D01*
X-0023611Y-0003288D01*
Y-0003122D01*
X-0023694Y-0003038D01*
X-0023944D01*
Y-0002872D01*
X-0023611D01*
X-0024269Y-0003372D02*
X-0024186D01*
Y-0003288D01*
X-0024269D01*
Y-0003372D01*
X-0024594D02*
X-0024761D01*
X-0024677D02*
Y-0002872D01*
X-0024761Y-0002955D01*
X-0025419Y-0003288D02*
X-0025336Y-0003372D01*
X-0025169D01*
X-0025086Y-0003288D01*
Y-0003205D01*
X-0025252Y-0003038D01*
X-0025086Y-0002872D01*
X-0025419D01*
X-0025661Y-0003038D02*
X-0025994D01*
X-0025661Y-0003205D02*
X-0025994D01*
X-0026998Y-0002955D02*
X-0027040Y-0002872D01*
X-0027290D01*
X-0027332Y-0002955D01*
Y-0003038D01*
X-0027290Y-0003122D01*
X-0027040D01*
X-0026998Y-0003205D01*
Y-0003288D01*
X-0027040Y-0003372D01*
X-0027290D01*
X-0027332Y-0003288D01*
X-0027573Y-0002955D02*
X-0027615Y-0002872D01*
X-0027865D01*
X-0027907Y-0002955D01*
Y-0003038D01*
X-0027865Y-0003122D01*
X-0027615D01*
X-0027573Y-0003205D01*
Y-0003288D01*
X-0027615Y-0003372D01*
X-0027865D01*
X-0027907Y-0003288D01*
X-0028232Y-0003122D02*
X-0028482D01*
X-0028148Y-0003372D02*
X-0028482D01*
Y-0002872D01*
X-0028148D01*
X-0028723D02*
Y-0003372D01*
X-0028807Y-0003288D01*
X-0028973Y-0002955D01*
X-0029057Y-0002872D01*
Y-0003372D01*
X-0029298D02*
X-0029548Y-0003122D01*
X-0029298Y-0002872D01*
X-0029632D02*
Y-0003372D01*
X-0029873Y-0003288D02*
X-0029915Y-0003372D01*
X-0030165D01*
X-0030207Y-0003288D01*
Y-0002955D01*
X-0030165Y-0002872D01*
X-0029915D01*
X-0029873Y-0002955D01*
X-0030448Y-0003372D02*
X-0030615D01*
X-0030532D02*
Y-0002872D01*
X-0030448D02*
X-0030615D01*
X-0030940Y-0003122D02*
X-0031273D01*
X-0030940Y-0003372D02*
Y-0002872D01*
X-0031273Y-0003372D02*
Y-0002872D01*
X-0031682Y-0003372D02*
Y-0002872D01*
X-0031515D02*
X-0031848D01*
X-0033144Y-0003372D02*
Y-0002872D01*
X-0033186Y-0003372D02*
X-0032936D01*
X-0032852Y-0003205D01*
Y-0003038D01*
X-0032936Y-0002872D01*
X-0033186D01*
X-0033552Y-0003122D02*
X-0033427Y-0003372D01*
X-0033761Y-0003122D02*
X-0033511D01*
X-0033427Y-0003038D01*
Y-0002955D01*
X-0033511Y-0002872D01*
X-0033761D01*
Y-0003372D01*
X-0034002Y-0003205D02*
X-0034336D01*
X-0034002Y-0003372D02*
Y-0003122D01*
X-0034127Y-0002872D01*
X-0034211D01*
X-0034336Y-0003122D01*
Y-0003372D01*
X-0034869D02*
X-0034911Y-0003288D01*
Y-0002955D01*
X-0034869Y-0002872D01*
X-0034619D01*
X-0034577Y-0002955D01*
Y-0003288D01*
X-0034619Y-0003372D01*
X-0034869D01*
X-0035444D02*
Y-0002872D01*
X-0035486Y-0003372D02*
X-0035236D01*
X-0035152Y-0003288D01*
Y-0003205D01*
X-0035194Y-0003122D01*
X-0035444D02*
X-0035194D01*
X-0035152Y-0003038D01*
Y-0002955D01*
X-0035236Y-0002872D01*
X-0035486D01*
X-0036490Y-0003372D02*
X-0036782D01*
Y-0002872D01*
X-0037023Y-0003205D02*
X-0037357D01*
X-0037023Y-0003372D02*
Y-0003122D01*
X-0037148Y-0002872D01*
X-0037232D01*
X-0037357Y-0003122D01*
Y-0003372D01*
X-0037765D02*
Y-0002872D01*
X-0037598D02*
X-0037932D01*
X-0038465Y-0003372D02*
X-0038507Y-0003288D01*
Y-0002955D01*
X-0038465Y-0002872D01*
X-0038215D01*
X-0038173Y-0002955D01*
Y-0003288D01*
X-0038215Y-0003372D01*
X-0038465D01*
X-0038915D02*
Y-0002872D01*
X-0038748D02*
X-0039082D01*
X-0030810Y-0025070D02*
Y-0024570D01*
X-0030852Y-0025070D02*
X-0030602D01*
X-0030518Y-0024987D01*
Y-0024903D01*
X-0030560Y-0024820D01*
X-0030810D02*
X-0030560D01*
X-0030518Y-0024737D01*
Y-0024653D01*
X-0030602Y-0024570D01*
X-0030852D01*
X-0031093Y-0024653D02*
X-0031135Y-0024570D01*
X-0031385D01*
X-0031427Y-0024653D01*
Y-0024737D01*
X-0031385Y-0024820D01*
X-0031135D01*
X-0031093Y-0024903D01*
Y-0024987D01*
X-0031135Y-0025070D01*
X-0031385D01*
X-0031427Y-0024987D01*
X-0031668Y-0024653D02*
X-0031710Y-0024570D01*
X-0031960D01*
X-0032002Y-0024653D01*
Y-0024737D01*
X-0031960Y-0024820D01*
X-0031710D01*
X-0031668Y-0024903D01*
Y-0024987D01*
X-0031710Y-0025070D01*
X-0031960D01*
X-0032002Y-0024987D01*
X-0032327Y-0025070D02*
X-0032243D01*
Y-0024987D01*
X-0032327D01*
Y-0025070D01*
X-0032652D02*
X-0032985D01*
X-0032652Y-0024737D01*
Y-0024653D01*
X-0032693Y-0024570D01*
X-0032943D01*
X-0032985Y-0024653D01*
X-0033227Y-0024820D02*
X-0033560D01*
X-0033927D02*
X-0033802Y-0025070D01*
X-0034135Y-0024820D02*
X-0033885D01*
X-0033802Y-0024737D01*
Y-0024653D01*
X-0033885Y-0024570D01*
X-0034135D01*
Y-0025070D01*
X-0034460Y-0024820D02*
X-0034710D01*
X-0034377Y-0025070D02*
X-0034710D01*
Y-0024570D01*
X-0034377D01*
X-0035118Y-0025070D02*
Y-0024820D01*
X-0034952Y-0024570D02*
X-0035077Y-0024820D01*
X-0035160D01*
X-0035285Y-0024570D01*
X-0035527Y-0024903D02*
X-0035860D01*
X-0035527Y-0025070D02*
Y-0024820D01*
X-0035652Y-0024570D01*
X-0035735D01*
X-0035860Y-0024820D01*
Y-0025070D01*
X-0036102D02*
X-0036393D01*
Y-0024570D01*
X-0037397Y-0025070D02*
X-0037731D01*
X-0037397Y-0024737D01*
Y-0024653D01*
X-0037439Y-0024570D01*
X-0037689D01*
X-0037731Y-0024653D01*
X-0037972Y-0024820D02*
X-0038306D01*
X-0038839Y-0025070D02*
Y-0024570D01*
X-0038881Y-0025070D02*
X-0038631D01*
X-0038547Y-0024903D01*
Y-0024737D01*
X-0038631Y-0024570D01*
X-0038881D01*
X-0039247Y-0024820D02*
X-0039122Y-0025070D01*
X-0039456Y-0024820D02*
X-0039206D01*
X-0039122Y-0024737D01*
Y-0024653D01*
X-0039206Y-0024570D01*
X-0039456D01*
Y-0025070D01*
X-0039697Y-0024903D02*
X-0040031D01*
X-0039697Y-0025070D02*
Y-0024820D01*
X-0039822Y-0024570D01*
X-0039906D01*
X-0040031Y-0024820D01*
Y-0025070D01*
X-0040564D02*
X-0040606Y-0024987D01*
Y-0024653D01*
X-0040564Y-0024570D01*
X-0040314D01*
X-0040272Y-0024653D01*
Y-0024987D01*
X-0040314Y-0025070D01*
X-0040564D01*
X-0041139D02*
Y-0024570D01*
X-0041181Y-0025070D02*
X-0040931D01*
X-0040847Y-0024987D01*
Y-0024903D01*
X-0040889Y-0024820D01*
X-0041139D02*
X-0040889D01*
X-0040847Y-0024737D01*
Y-0024653D01*
X-0040931Y-0024570D01*
X-0041181D01*
X-0042518Y-0024820D02*
X-0042268D01*
X-0042185Y-0024737D01*
Y-0024653D01*
X-0042268Y-0024570D01*
X-0042518D01*
Y-0025070D01*
X-0043093Y-0024820D02*
X-0042843D01*
X-0042760Y-0024737D01*
Y-0024653D01*
X-0042843Y-0024570D01*
X-0043093D01*
Y-0025070D01*
X-0043335Y-0024903D02*
X-0043668D01*
X-0043335Y-0025070D02*
Y-0024820D01*
X-0043460Y-0024570D01*
X-0043543D01*
X-0043668Y-0024820D01*
Y-0025070D01*
X-0044756Y-0024820D02*
X-0045006D01*
Y-0025070D02*
Y-0024570D01*
X-0044672D01*
X-0045372Y-0024820D02*
X-0045247Y-0025070D01*
X-0045581Y-0024820D02*
X-0045331D01*
X-0045247Y-0024737D01*
Y-0024653D01*
X-0045331Y-0024570D01*
X-0045581D01*
Y-0025070D01*
X-0046585Y-0024570D02*
Y-0025070D01*
X-0046668Y-0024987D01*
X-0046835Y-0024653D01*
X-0046918Y-0024570D01*
Y-0025070D01*
X-0047160Y-0024820D02*
X-0047493D01*
X-0047902D02*
X-0047735D01*
Y-0024987D01*
X-0047777Y-0025070D01*
X-0048027D01*
X-0048068Y-0024987D01*
Y-0024653D01*
X-0048027Y-0024570D01*
X-0047777D01*
X-0047735Y-0024653D01*
X-0048435Y-0024820D02*
X-0048310Y-0025070D01*
X-0048643Y-0024820D02*
X-0048393D01*
X-0048310Y-0024737D01*
Y-0024653D01*
X-0048393Y-0024570D01*
X-0048643D01*
Y-0025070D01*
X-0048885Y-0024570D02*
Y-0025070D01*
X-0048968Y-0024987D01*
X-0049135Y-0024653D01*
X-0049218Y-0024570D01*
Y-0025070D01*
X-0049543Y-0024820D02*
X-0049793D01*
X-0049460Y-0025070D02*
X-0049793D01*
Y-0024570D01*
X-0049460D01*
X-0050035D02*
Y-0024987D01*
X-0050077Y-0025070D01*
X-0050327D01*
X-0050368Y-0024987D01*
Y-0024570D01*
X-0050610Y-0025070D02*
X-0050902D01*
Y-0024570D01*
X-0051435Y-0025070D02*
Y-0024570D01*
X-0051477Y-0025070D02*
X-0051227D01*
X-0051143Y-0024987D01*
Y-0024903D01*
X-0051185Y-0024820D01*
X-0051435D02*
X-0051185D01*
X-0051143Y-0024737D01*
Y-0024653D01*
X-0051227Y-0024570D01*
X-0051477D01*
X-0030810Y-0022903D02*
Y-0022403D01*
X-0030852Y-0022903D02*
X-0030602D01*
X-0030518Y-0022820D01*
Y-0022737D01*
X-0030560Y-0022653D01*
X-0030810D02*
X-0030560D01*
X-0030518Y-0022570D01*
Y-0022487D01*
X-0030602Y-0022403D01*
X-0030852D01*
X-0031427Y-0022653D02*
X-0031177D01*
X-0031093Y-0022570D01*
Y-0022487D01*
X-0031177Y-0022403D01*
X-0031427D01*
Y-0022903D01*
X-0031668Y-0022487D02*
X-0031710Y-0022403D01*
X-0031960D01*
X-0032002Y-0022487D01*
Y-0022570D01*
X-0031960Y-0022653D01*
X-0031710D01*
X-0031668Y-0022737D01*
Y-0022820D01*
X-0031710Y-0022903D01*
X-0031960D01*
X-0032002Y-0022820D01*
X-0032327Y-0022903D02*
X-0032243D01*
Y-0022820D01*
X-0032327D01*
Y-0022903D01*
X-0032652D02*
X-0032985D01*
X-0032652Y-0022570D01*
Y-0022487D01*
X-0032693Y-0022403D01*
X-0032943D01*
X-0032985Y-0022487D01*
X-0033227Y-0022653D02*
X-0033560D01*
X-0033927D02*
X-0033802Y-0022903D01*
X-0034135Y-0022653D02*
X-0033885D01*
X-0033802Y-0022570D01*
Y-0022487D01*
X-0033885Y-0022403D01*
X-0034135D01*
Y-0022903D01*
X-0034460Y-0022653D02*
X-0034710D01*
X-0034377Y-0022903D02*
X-0034710D01*
Y-0022403D01*
X-0034377D01*
X-0035118Y-0022903D02*
Y-0022653D01*
X-0034952Y-0022403D02*
X-0035077Y-0022653D01*
X-0035160D01*
X-0035285Y-0022403D01*
X-0035527Y-0022737D02*
X-0035860D01*
X-0035527Y-0022903D02*
Y-0022653D01*
X-0035652Y-0022403D01*
X-0035735D01*
X-0035860Y-0022653D01*
Y-0022903D01*
X-0036102D02*
X-0036393D01*
Y-0022403D01*
X-0037397Y-0022903D02*
X-0037731D01*
X-0037397Y-0022570D01*
Y-0022487D01*
X-0037439Y-0022403D01*
X-0037689D01*
X-0037731Y-0022487D01*
X-0037972Y-0022653D02*
X-0038306D01*
X-0038839Y-0022903D02*
Y-0022403D01*
X-0038881Y-0022903D02*
X-0038631D01*
X-0038547Y-0022737D01*
Y-0022570D01*
X-0038631Y-0022403D01*
X-0038881D01*
X-0039247Y-0022653D02*
X-0039122Y-0022903D01*
X-0039456Y-0022653D02*
X-0039206D01*
X-0039122Y-0022570D01*
Y-0022487D01*
X-0039206Y-0022403D01*
X-0039456D01*
Y-0022903D01*
X-0039697Y-0022737D02*
X-0040031D01*
X-0039697Y-0022903D02*
Y-0022653D01*
X-0039822Y-0022403D01*
X-0039906D01*
X-0040031Y-0022653D01*
Y-0022903D01*
X-0040564D02*
X-0040606Y-0022820D01*
Y-0022487D01*
X-0040564Y-0022403D01*
X-0040314D01*
X-0040272Y-0022487D01*
Y-0022820D01*
X-0040314Y-0022903D01*
X-0040564D01*
X-0041139D02*
Y-0022403D01*
X-0041181Y-0022903D02*
X-0040931D01*
X-0040847Y-0022820D01*
Y-0022737D01*
X-0040889Y-0022653D01*
X-0041139D02*
X-0040889D01*
X-0040847Y-0022570D01*
Y-0022487D01*
X-0040931Y-0022403D01*
X-0041181D01*
X-0042518Y-0022653D02*
X-0042268D01*
X-0042185Y-0022570D01*
Y-0022487D01*
X-0042268Y-0022403D01*
X-0042518D01*
Y-0022903D01*
X-0043093Y-0022653D02*
X-0042843D01*
X-0042760Y-0022570D01*
Y-0022487D01*
X-0042843Y-0022403D01*
X-0043093D01*
Y-0022903D01*
X-0043335Y-0022737D02*
X-0043668D01*
X-0043335Y-0022903D02*
Y-0022653D01*
X-0043460Y-0022403D01*
X-0043543D01*
X-0043668Y-0022653D01*
Y-0022903D01*
X-0044756Y-0022653D02*
X-0045006D01*
Y-0022903D02*
Y-0022403D01*
X-0044672D01*
X-0045372Y-0022653D02*
X-0045247Y-0022903D01*
X-0045581Y-0022653D02*
X-0045331D01*
X-0045247Y-0022570D01*
Y-0022487D01*
X-0045331Y-0022403D01*
X-0045581D01*
Y-0022903D01*
X-0046585Y-0022403D02*
Y-0022903D01*
X-0046668Y-0022820D01*
X-0046835Y-0022487D01*
X-0046918Y-0022403D01*
Y-0022903D01*
X-0047160Y-0022653D02*
X-0047493D01*
X-0047902D02*
X-0047735D01*
Y-0022820D01*
X-0047777Y-0022903D01*
X-0048027D01*
X-0048068Y-0022820D01*
Y-0022487D01*
X-0048027Y-0022403D01*
X-0047777D01*
X-0047735Y-0022487D01*
X-0048435Y-0022653D02*
X-0048310Y-0022903D01*
X-0048643Y-0022653D02*
X-0048393D01*
X-0048310Y-0022570D01*
Y-0022487D01*
X-0048393Y-0022403D01*
X-0048643D01*
Y-0022903D01*
X-0048885Y-0022403D02*
Y-0022903D01*
X-0048968Y-0022820D01*
X-0049135Y-0022487D01*
X-0049218Y-0022403D01*
Y-0022903D01*
X-0049543Y-0022653D02*
X-0049793D01*
X-0049460Y-0022903D02*
X-0049793D01*
Y-0022403D01*
X-0049460D01*
X-0050035D02*
Y-0022820D01*
X-0050077Y-0022903D01*
X-0050327D01*
X-0050368Y-0022820D01*
Y-0022403D01*
X-0050610Y-0022903D02*
X-0050902D01*
Y-0022403D01*
X-0051435Y-0022903D02*
Y-0022403D01*
X-0051477Y-0022903D02*
X-0051227D01*
X-0051143Y-0022820D01*
Y-0022737D01*
X-0051185Y-0022653D01*
X-0051435D02*
X-0051185D01*
X-0051143Y-0022570D01*
Y-0022487D01*
X-0051227Y-0022403D01*
X-0051477D01*
G54D44*
X0002050Y0007895D03*
X0003130Y0008105D03*
X0000765Y0006240D03*
X0005270Y0009115D03*
X0004105D03*
X0005935Y0004480D03*
X0001365Y0005530D03*
X0004415Y0005045D03*
X0002410Y0004955D03*
X0001785Y0007780D03*
X0003745Y0004035D03*
X0004910Y0008640D03*
X0004450Y0006400D03*
X0001125Y0006900D03*
X0003065Y0003810D03*
X0005630Y0008845D03*
X0006880Y0010290D03*
X0007725Y0010275D03*
X0007720Y0010740D03*
X0006915D03*
X0005915Y0010975D03*
X0005750Y0011560D03*
X0005280Y0010435D03*
X0005745D03*
X0006540Y0009825D03*
X0006840Y0009540D03*
X0007035Y0009825D03*
X0007235Y0009510D03*
Y0009155D03*
X0007570Y0009755D03*
X0000510Y0001700D03*
X0000485Y0005560D03*
X0000290Y0004125D03*
X0006100Y0001390D03*
X0014515Y0001415D03*
X0007115Y0001390D03*
X0010295Y0001605D03*
X0011330Y0001615D03*
X0013615Y0002080D03*
X0009580Y0003075D03*
X0010280Y0003070D03*
X0011320D03*
X0013190D03*
X0012525Y0004075D03*
X0013555D03*
X0011750Y0008590D03*
X0006695Y0011625D03*
Y0012225D03*
X0005415Y0010780D03*
X0002255Y0007855D03*
X0001435Y0002475D03*
X0002260Y0003490D03*
X0001425Y0003585D03*
X0001455Y0004120D03*
X0002315Y0004080D03*
X0000915Y0005115D03*
X0003440Y0003805D03*
X0003990Y0003585D03*
X0003500Y0004945D03*
X0004925Y0005365D03*
X0004165Y0005410D03*
X0004495Y0005810D03*
X0003085Y0006525D03*
X0003175Y0007225D03*
X0004125Y0007860D03*
X0005440Y0005980D03*
X0005435Y0006860D03*
X0005080Y0007225D03*
X0005445Y0007455D03*
X0005075Y0007825D03*
X0005825Y0003820D03*
X0006500Y0004185D03*
X0006525Y0006740D03*
X0005990D03*
X0005985Y0007520D03*
X0005820Y0005350D03*
X0006505Y0003405D03*
X0004600Y0004110D03*
X0005200Y0003665D03*
X0005130Y0004665D03*
X0007095Y0003170D03*
Y0003725D03*
Y0004245D03*
Y0004700D03*
X0007435Y0005245D03*
Y0005570D03*
X0007095Y0005245D03*
Y0005570D03*
X0007445Y0005960D03*
X0007685Y0005715D03*
X0007095Y0005915D03*
Y0006260D03*
X0007995Y0006105D03*
X0007725Y0006375D03*
X0007330Y0006685D03*
X0007090Y0006600D03*
X0007485Y0006985D03*
X0009595Y0006965D03*
X0009245D03*
X0008590D03*
X0008260D03*
X0008925D03*
X0008585Y0006635D03*
X0009265D03*
Y0007300D03*
Y0007635D03*
X0009260Y0007965D03*
X0008580Y0007635D03*
X0008585Y0007965D03*
X0008580Y0007300D03*
X0008260Y0007635D03*
X0009590D03*
X0008925D03*
X0009590Y0007300D03*
Y0007965D03*
X0008260Y0007300D03*
X0008925D03*
X0009595Y0006635D03*
X0008925D03*
X0008260D03*
Y0007965D03*
X0008925D03*
X0010035Y0009560D03*
X0008455Y0010720D03*
X0009535Y0010645D03*
X0009050D03*
X0008740Y0010450D03*
X0009035Y0010970D03*
X0008235D03*
X0009805D03*
X0010010Y0010645D03*
X0010510Y0009310D03*
X0010515Y0009815D03*
X0009370D03*
X0009880D03*
X0009855Y0008495D03*
X0009860Y0009335D03*
X0009940Y0008990D03*
X0010855Y0009495D03*
X0011530Y0009920D03*
X0011765Y0009595D03*
X0012205D03*
X0012720D03*
X0013035Y0009205D03*
Y0008670D03*
X0012585D03*
X0012365Y0008155D03*
Y0008420D03*
X0011970Y0008145D03*
X0011645D03*
X0011320D03*
X0009375Y0004615D03*
X0009110Y0004905D03*
Y0005285D03*
X0010750Y0005140D03*
X0009595Y0004800D03*
X0009655Y0004475D03*
X0009715Y0004265D03*
X0010180Y0004110D03*
X0010505Y0005760D03*
X0010895Y0005835D03*
X0010590Y0006150D03*
X0010200Y0005665D03*
Y0005955D03*
Y0006365D03*
X0011075Y0005140D03*
X0011195Y0004880D03*
X0012015Y0005055D03*
X0012545Y0005600D03*
X0012105Y0005940D03*
Y0006340D03*
Y0006700D03*
X0012580Y0007005D03*
X0012135D03*
X0012850Y0006635D03*
X0013295D03*
X0013495Y0007010D03*
X0013995Y0007005D03*
X0014490Y0007030D03*
X0015000Y0007020D03*
X0015505Y0006975D03*
X0016000D03*
X0016465D03*
X0016995D03*
X0012145Y0007595D03*
X0012540Y0007570D03*
X0013495Y0007590D03*
X0014490Y0007555D03*
X0015505Y0007610D03*
X0016465Y0007620D03*
X0013000Y0007570D03*
X0014000Y0007590D03*
X0015000Y0007555D03*
X0016000Y0007610D03*
X0017000Y0007620D03*
X0014500Y0013075D03*
X0013500D03*
X0012500D03*
X0011500D03*
X0010500D03*
X0000500D03*
X0017000Y0012075D03*
X0015000D03*
X0014000D03*
X0013000D03*
X0012000D03*
X0011000D03*
X0010000D03*
X0001000D03*
X0016500Y0011075D03*
X0015500D03*
X0014500D03*
X0013500D03*
X0012500D03*
X0011500D03*
X0004500D03*
X0002500D03*
X0000500D03*
X0017000Y0010075D03*
X0016000D03*
X0015000D03*
X0014000D03*
X0013000D03*
X0012000D03*
X0011000D03*
X0004000D03*
X0003000D03*
X0002000D03*
X0001000D03*
X0014500Y0009075D03*
X0013500D03*
X0011500D03*
X0002500D03*
X0000500D03*
X0017000Y0008075D03*
X0016000D03*
X0015000D03*
X0014000D03*
X0013000D03*
X0001000D03*
X0017000Y0006075D03*
X0016000D03*
X0015000D03*
X0014000D03*
X0013000D03*
X0006000D03*
X0016500Y0005075D03*
X0015500D03*
X0014500D03*
X0006500D03*
X0017000Y0004075D03*
X0016000D03*
X0015000D03*
X0014500Y0003075D03*
X0000500D03*
X0017000Y0002075D03*
X0015000D03*
X0011420Y0006130D03*
X0004990Y0009660D03*
X0003050Y0006045D03*
X0002755Y0006660D03*
X0007360Y0006390D03*
X0005690Y0007785D03*
X0007300Y0007200D03*
X0010270Y0010910D03*
X0006980Y0010500D03*
X0007650Y0005000D03*
X0008430Y0005590D03*
X0008630Y0005860D03*
X0009715Y0005825D03*
X0009430Y0005695D03*
X0009030D03*
X0009730Y0008775D03*
X0009230D03*
X0008630Y0008710D03*
X0010185Y0008375D03*
M02*
