%
T1C0.0100F200S100
X000290Y004125
X000485Y005560
X000500Y003075
X000510Y001700
X000500Y009075
X000500Y011075
X000500Y013075
X000765Y006240
X000915Y005115
X001000Y008075
X001125Y006900
X001000Y010075
X001000Y012075
X001365Y005530
X001425Y003585
X001435Y002475
X001455Y004120
X001785Y007780
X002000Y010075
X002050Y007895
X002255Y007855
X002260Y003490
X002315Y004080
X002410Y004955
X002500Y009075
X002500Y011075
X002755Y006660
X003000Y010075
X003050Y006045
X003065Y003810
X003085Y006525
X003130Y008105
X003175Y007225
X003440Y003805
X003500Y004945
X003745Y004035
X003990Y003585
X004000Y010075
X004105Y009115
X004125Y007860
X004165Y005410
X004415Y005045
X004450Y006400
X004495Y005810
X004500Y011075
X004600Y004110
X004910Y008640
X004925Y005365
X004990Y009660
X005075Y007825
X005080Y007225
X005130Y004665
X005200Y003665
X005270Y009115
X005280Y010435
X005415Y010780
X005435Y006860
X005440Y005980
X005445Y007455
X005630Y008845
X005690Y007785
X005745Y010435
X005750Y011560
X005820Y005350
X005825Y003820
X005915Y010975
X005935Y004480
X005985Y007520
X005990Y006740
X006000Y006075
X006100Y001390
X006500Y004185
X006500Y005075
X006505Y003405
X006525Y006740
X006540Y009825
X006695Y011625
X006695Y012225
X006840Y009540
X006880Y010290
X006915Y010740
X006980Y010500
X007035Y009825
X007090Y006600
X007095Y003170
X007095Y003725
X007095Y004245
X007095Y004700
X007095Y005245
X007095Y005570
X007095Y005915
X007095Y006260
X007115Y001390
X007235Y009155
X007235Y009510
X007300Y007200
X007330Y006685
X007360Y006390
X007435Y005245
X007435Y005570
X007445Y005960
X007485Y006985
X007570Y009755
X007650Y005000
X007685Y005715
X007720Y010740
X007725Y006375
X007725Y010275
X007995Y006105
X008235Y010970
X008260Y006635
X008260Y006965
X008260Y007300
X008260Y007635
X008260Y007965
X008430Y005590
X008455Y010720
X008580Y007300
X008580Y007635
X008585Y006635
X008590Y006965
X008585Y007965
X008630Y005860
X008630Y008710
X008740Y010450
X008925Y006635
X008925Y006965
X008925Y007300
X008925Y007635
X008925Y007965
X009030Y005695
X009035Y010970
X009050Y010645
X009110Y004905
X009110Y005285
X009230Y008775
X009245Y006965
X009260Y007965
X009265Y006635
X009265Y007300
X009265Y007635
X009370Y009815
X009375Y004615
X009430Y005695
X009535Y010645
X009580Y003075
X009590Y007300
X009590Y007635
X009590Y007965
X009595Y004800
X009595Y006635
X009595Y006965
X009655Y004475
X009715Y004265
X009715Y005825
X009730Y008775
X009805Y010970
X009855Y008495
X009860Y009335
X009880Y009815
X009940Y008990
X010000Y012075
X010010Y010645
X010035Y009560
X010180Y004110
X010185Y008375
X010200Y005665
X010200Y005955
X010200Y006365
X010270Y010910
X010280Y003070
X010295Y001605
X010500Y013075
X010505Y005760
X010510Y009310
X010515Y009815
X010590Y006150
X010750Y005140
X010855Y009495
X010895Y005835
X011000Y010075
X011000Y012075
X011075Y005140
X011195Y004880
X011320Y003070
X011330Y001615
X011320Y008145
X011420Y006130
X011500Y009075
X011500Y011075
X011500Y013075
X011530Y009920
X011645Y008145
X011750Y008590
X011765Y009595
X011970Y008145
X012000Y010075
X012000Y012075
X012015Y005055
X012105Y005940
X012105Y006340
X012105Y006700
X012135Y007005
X012145Y007595
X012205Y009595
X012365Y008155
X012365Y008420
X012500Y011075
X012500Y013075
X012525Y004075
X012540Y007570
X012545Y005600
X012580Y007005
X012585Y008670
X012720Y009595
X012850Y006635
X013000Y006075
X013000Y007570
X013000Y008075
X013035Y008670
X013035Y009205
X013000Y010075
X013000Y012075
X013190Y003070
X013295Y006635
X013495Y007010
X013495Y007590
X013500Y009075
X013500Y011075
X013500Y013075
X013555Y004075
X013615Y002080
X013995Y007005
X014000Y006075
X014000Y007590
X014000Y008075
X014000Y010075
X014000Y012075
X014490Y007030
X014490Y007555
X014500Y003075
X014500Y005075
X014500Y009075
X014500Y011075
X014500Y013075
X014515Y001415
X015000Y002075
X015000Y004075
X015000Y006075
X015000Y007020
X015000Y007555
X015000Y008075
X015000Y010075
X015000Y012075
X015500Y005075
X015505Y006975
X015505Y007610
X015500Y011075
X016000Y004075
X016000Y006075
X016000Y006975
X016465Y006975
X016465Y007620
X016000Y007610
X016000Y008075
X016000Y010075
X016500Y005075
X016995Y006975
X016500Y011075
X017000Y002075
X017000Y004075
X017000Y006075
X017000Y007620
X017000Y008075
X017000Y010075
X017000Y012075
T7C0.1200F200S100
X015840Y002400
X015850Y012630
T3C0.0370F200S100
X002000Y002000
X002000Y003000
X003000Y002000
X003000Y003000
X003000Y012000
X002000Y012000
X002000Y013000
X003000Y013000
X004000Y002000
X004000Y003000
X005000Y002000
X005000Y003000
X005000Y012000
X004000Y012000
X004000Y013000
X005000Y013000
X006000Y002000
X006000Y003000
X006000Y012000
X006000Y013000
T6C0.0400F200S100
X007420Y013100
X008420Y013100
T5C0.0390F200S100
X007430Y011950
X008430Y011950
X009430Y011950
T4C0.0380F200S100
X010750Y001970
X011870Y001970
X012990Y001970
T2C0.0200F200S100
X007660Y002000
X007660Y002500
X008160Y002000
X008160Y002500
X008660Y002000
X008660Y002500
X009160Y002000
X009160Y002500
X009660Y002000
X009660Y002500
M30
