%TF.GenerationSoftware,KiCad,Pcbnew,4.1.0-alpha+201607051515+6967~46~ubuntu15.10.1-product*%
%TF.CreationDate,2016-07-07T14:30:01+02:00*%
%TF.ProjectId,robot1,726F626F74312E6B696361645F706362,rev?*%
%TF.FileFunction,Legend,Top*%
%FSLAX46Y46*%
G04 Gerber Fmt 4.6, Leading zero omitted, Abs format (unit mm)*
G04 Created by KiCad (PCBNEW 4.1.0-alpha+201607051515+6967~46~ubuntu15.10.1-product) date Thu Jul  7 14:30:01 2016*
%MOMM*%
%LPD*%
G01*
G04 APERTURE LIST*
%ADD10C,0.100000*%
%ADD11C,0.050800*%
%ADD12C,0.300000*%
%ADD13C,0.127000*%
%ADD14C,0.150000*%
%ADD15C,0.304800*%
%ADD16C,0.149860*%
%ADD17C,0.200660*%
%ADD18C,0.203200*%
%ADD19C,0.050000*%
%ADD20R,1.400760X1.299160*%
%ADD21R,1.299160X1.400760*%
%ADD22R,1.700480X1.898600*%
%ADD23R,2.899360X2.350720*%
%ADD24R,1.197560X1.197560*%
%ADD25C,1.416000*%
%ADD26R,1.924000X2.599640*%
%ADD27O,1.924000X2.599640*%
%ADD28C,1.600000*%
%ADD29R,1.898600X1.700480*%
%ADD30R,2.000200X2.203400*%
%ADD31R,0.699720X1.700480*%
%ADD32R,1.700480X0.699720*%
%ADD33R,2.297380X2.297380*%
%ADD34R,1.748740X0.798780*%
%ADD35R,1.746200X0.798780*%
%ADD36C,1.197560*%
%ADD37R,0.650000X1.400000*%
%ADD38R,1.619200X2.635200*%
%ADD39R,4.000000X2.600000*%
%ADD40R,1.100000X0.650000*%
%ADD41R,0.650000X0.900000*%
%ADD42R,2.400000X1.300000*%
%ADD43R,0.985520X0.416560*%
%ADD44R,0.416560X0.985520*%
%ADD45R,1.861820X1.861820*%
%ADD46C,0.650000*%
%ADD47R,1.800000X1.600000*%
%ADD48R,1.500000X2.300000*%
%ADD49R,1.250900X1.250900*%
%ADD50R,1.035000X1.416000*%
%ADD51R,1.416000X1.035000*%
G04 APERTURE END LIST*
D10*
D11*
X197944619Y-125757819D02*
X197993000Y-125782009D01*
X198089761Y-125782009D01*
X198138142Y-125757819D01*
X198162333Y-125709438D01*
X198162333Y-125685247D01*
X198138142Y-125636866D01*
X198089761Y-125612676D01*
X198017190Y-125612676D01*
X197968809Y-125588485D01*
X197944619Y-125540104D01*
X197944619Y-125515914D01*
X197968809Y-125467533D01*
X198017190Y-125443342D01*
X198089761Y-125443342D01*
X198138142Y-125467533D01*
X198307476Y-125443342D02*
X198501000Y-125443342D01*
X198380047Y-125274009D02*
X198380047Y-125709438D01*
X198404238Y-125757819D01*
X198452619Y-125782009D01*
X198501000Y-125782009D01*
X198670333Y-125782009D02*
X198670333Y-125443342D01*
X198670333Y-125540104D02*
X198694523Y-125491723D01*
X198718714Y-125467533D01*
X198767095Y-125443342D01*
X198815476Y-125443342D01*
X199202523Y-125782009D02*
X199202523Y-125515914D01*
X199178333Y-125467533D01*
X199129952Y-125443342D01*
X199033190Y-125443342D01*
X198984809Y-125467533D01*
X199202523Y-125757819D02*
X199154142Y-125782009D01*
X199033190Y-125782009D01*
X198984809Y-125757819D01*
X198960619Y-125709438D01*
X198960619Y-125661057D01*
X198984809Y-125612676D01*
X199033190Y-125588485D01*
X199154142Y-125588485D01*
X199202523Y-125564295D01*
X199420238Y-125757819D02*
X199468619Y-125782009D01*
X199565380Y-125782009D01*
X199613761Y-125757819D01*
X199637952Y-125709438D01*
X199637952Y-125685247D01*
X199613761Y-125636866D01*
X199565380Y-125612676D01*
X199492809Y-125612676D01*
X199444428Y-125588485D01*
X199420238Y-125540104D01*
X199420238Y-125515914D01*
X199444428Y-125467533D01*
X199492809Y-125443342D01*
X199565380Y-125443342D01*
X199613761Y-125467533D01*
X199807285Y-125443342D02*
X200073380Y-125443342D01*
X199807285Y-125782009D01*
X200073380Y-125782009D01*
X200266904Y-125443342D02*
X200266904Y-125782009D01*
X200266904Y-125491723D02*
X200291095Y-125467533D01*
X200339476Y-125443342D01*
X200412047Y-125443342D01*
X200460428Y-125467533D01*
X200484619Y-125515914D01*
X200484619Y-125782009D01*
X200920047Y-125757819D02*
X200871666Y-125782009D01*
X200774904Y-125782009D01*
X200726523Y-125757819D01*
X200702333Y-125709438D01*
X200702333Y-125515914D01*
X200726523Y-125467533D01*
X200774904Y-125443342D01*
X200871666Y-125443342D01*
X200920047Y-125467533D01*
X200944238Y-125515914D01*
X200944238Y-125564295D01*
X200702333Y-125612676D01*
X201766714Y-125782009D02*
X201766714Y-125274009D01*
X201766714Y-125757819D02*
X201718333Y-125782009D01*
X201621571Y-125782009D01*
X201573190Y-125757819D01*
X201549000Y-125733628D01*
X201524809Y-125685247D01*
X201524809Y-125540104D01*
X201549000Y-125491723D01*
X201573190Y-125467533D01*
X201621571Y-125443342D01*
X201718333Y-125443342D01*
X201766714Y-125467533D01*
X201960238Y-125443342D02*
X202226333Y-125443342D01*
X201960238Y-125782009D01*
X202226333Y-125782009D01*
X202419857Y-125782009D02*
X202419857Y-125443342D01*
X202419857Y-125274009D02*
X202395666Y-125298200D01*
X202419857Y-125322390D01*
X202444047Y-125298200D01*
X202419857Y-125274009D01*
X202419857Y-125322390D01*
X202879476Y-125782009D02*
X202879476Y-125515914D01*
X202855285Y-125467533D01*
X202806904Y-125443342D01*
X202710142Y-125443342D01*
X202661761Y-125467533D01*
X202879476Y-125757819D02*
X202831095Y-125782009D01*
X202710142Y-125782009D01*
X202661761Y-125757819D01*
X202637571Y-125709438D01*
X202637571Y-125661057D01*
X202661761Y-125612676D01*
X202710142Y-125588485D01*
X202831095Y-125588485D01*
X202879476Y-125564295D01*
X203193952Y-125782009D02*
X203145571Y-125757819D01*
X203121380Y-125709438D01*
X203121380Y-125274009D01*
X203048809Y-125540104D02*
X203193952Y-125443342D01*
X203460047Y-125782009D02*
X203411666Y-125757819D01*
X203387476Y-125733628D01*
X203363285Y-125685247D01*
X203363285Y-125540104D01*
X203387476Y-125491723D01*
X203411666Y-125467533D01*
X203460047Y-125443342D01*
X203532619Y-125443342D01*
X203581000Y-125467533D01*
X203605190Y-125491723D01*
X203629380Y-125540104D01*
X203629380Y-125685247D01*
X203605190Y-125733628D01*
X203581000Y-125757819D01*
X203532619Y-125782009D01*
X203460047Y-125782009D01*
X197545476Y-126594809D02*
X197497095Y-126570619D01*
X197472904Y-126522238D01*
X197472904Y-126086809D01*
X197956714Y-126594809D02*
X197956714Y-126328714D01*
X197932523Y-126280333D01*
X197884142Y-126256142D01*
X197787380Y-126256142D01*
X197739000Y-126280333D01*
X197956714Y-126570619D02*
X197908333Y-126594809D01*
X197787380Y-126594809D01*
X197739000Y-126570619D01*
X197714809Y-126522238D01*
X197714809Y-126473857D01*
X197739000Y-126425476D01*
X197787380Y-126401285D01*
X197908333Y-126401285D01*
X197956714Y-126377095D01*
X198174428Y-126570619D02*
X198222809Y-126594809D01*
X198319571Y-126594809D01*
X198367952Y-126570619D01*
X198392142Y-126522238D01*
X198392142Y-126498047D01*
X198367952Y-126449666D01*
X198319571Y-126425476D01*
X198247000Y-126425476D01*
X198198619Y-126401285D01*
X198174428Y-126352904D01*
X198174428Y-126328714D01*
X198198619Y-126280333D01*
X198247000Y-126256142D01*
X198319571Y-126256142D01*
X198367952Y-126280333D01*
X198803380Y-126570619D02*
X198755000Y-126594809D01*
X198658238Y-126594809D01*
X198609857Y-126570619D01*
X198585666Y-126522238D01*
X198585666Y-126328714D01*
X198609857Y-126280333D01*
X198658238Y-126256142D01*
X198755000Y-126256142D01*
X198803380Y-126280333D01*
X198827571Y-126328714D01*
X198827571Y-126377095D01*
X198585666Y-126425476D01*
X199045285Y-126594809D02*
X199045285Y-126256142D01*
X199045285Y-126352904D02*
X199069476Y-126304523D01*
X199093666Y-126280333D01*
X199142047Y-126256142D01*
X199190428Y-126256142D01*
X199432333Y-126594809D02*
X199383952Y-126570619D01*
X199359761Y-126546428D01*
X199335571Y-126498047D01*
X199335571Y-126352904D01*
X199359761Y-126304523D01*
X199383952Y-126280333D01*
X199432333Y-126256142D01*
X199504904Y-126256142D01*
X199553285Y-126280333D01*
X199577476Y-126304523D01*
X199601666Y-126352904D01*
X199601666Y-126498047D01*
X199577476Y-126546428D01*
X199553285Y-126570619D01*
X199504904Y-126594809D01*
X199432333Y-126594809D01*
X199771000Y-126256142D02*
X199867761Y-126594809D01*
X199964523Y-126352904D01*
X200061285Y-126594809D01*
X200158047Y-126256142D01*
X200424142Y-126594809D02*
X200375761Y-126570619D01*
X200351571Y-126546428D01*
X200327380Y-126498047D01*
X200327380Y-126352904D01*
X200351571Y-126304523D01*
X200375761Y-126280333D01*
X200424142Y-126256142D01*
X200496714Y-126256142D01*
X200545095Y-126280333D01*
X200569285Y-126304523D01*
X200593476Y-126352904D01*
X200593476Y-126498047D01*
X200569285Y-126546428D01*
X200545095Y-126570619D01*
X200496714Y-126594809D01*
X200424142Y-126594809D01*
X200811190Y-126401285D02*
X201198238Y-126401285D01*
X201440142Y-126594809D02*
X201440142Y-126256142D01*
X201440142Y-126352904D02*
X201464333Y-126304523D01*
X201488523Y-126280333D01*
X201536904Y-126256142D01*
X201585285Y-126256142D01*
X201972333Y-126594809D02*
X201972333Y-126328714D01*
X201948142Y-126280333D01*
X201899761Y-126256142D01*
X201803000Y-126256142D01*
X201754619Y-126280333D01*
X201972333Y-126570619D02*
X201923952Y-126594809D01*
X201803000Y-126594809D01*
X201754619Y-126570619D01*
X201730428Y-126522238D01*
X201730428Y-126473857D01*
X201754619Y-126425476D01*
X201803000Y-126401285D01*
X201923952Y-126401285D01*
X201972333Y-126377095D01*
X202431952Y-126594809D02*
X202431952Y-126086809D01*
X202431952Y-126570619D02*
X202383571Y-126594809D01*
X202286809Y-126594809D01*
X202238428Y-126570619D01*
X202214238Y-126546428D01*
X202190047Y-126498047D01*
X202190047Y-126352904D01*
X202214238Y-126304523D01*
X202238428Y-126280333D01*
X202286809Y-126256142D01*
X202383571Y-126256142D01*
X202431952Y-126280333D01*
X202673857Y-126594809D02*
X202673857Y-126256142D01*
X202673857Y-126086809D02*
X202649666Y-126111000D01*
X202673857Y-126135190D01*
X202698047Y-126111000D01*
X202673857Y-126086809D01*
X202673857Y-126135190D01*
X202988333Y-126594809D02*
X202939952Y-126570619D01*
X202915761Y-126546428D01*
X202891571Y-126498047D01*
X202891571Y-126352904D01*
X202915761Y-126304523D01*
X202939952Y-126280333D01*
X202988333Y-126256142D01*
X203060904Y-126256142D01*
X203109285Y-126280333D01*
X203133476Y-126304523D01*
X203157666Y-126352904D01*
X203157666Y-126498047D01*
X203133476Y-126546428D01*
X203109285Y-126570619D01*
X203060904Y-126594809D01*
X202988333Y-126594809D01*
X203327000Y-126256142D02*
X203423761Y-126594809D01*
X203520523Y-126352904D01*
X203617285Y-126594809D01*
X203714047Y-126256142D01*
X204101095Y-126570619D02*
X204052714Y-126594809D01*
X203955952Y-126594809D01*
X203907571Y-126570619D01*
X203883380Y-126522238D01*
X203883380Y-126328714D01*
X203907571Y-126280333D01*
X203955952Y-126256142D01*
X204052714Y-126256142D01*
X204101095Y-126280333D01*
X204125285Y-126328714D01*
X204125285Y-126377095D01*
X203883380Y-126425476D01*
X198791285Y-127601133D02*
X198767095Y-127576942D01*
X198718714Y-127504371D01*
X198694523Y-127455990D01*
X198670333Y-127383419D01*
X198646142Y-127262466D01*
X198646142Y-127165704D01*
X198670333Y-127044752D01*
X198694523Y-126972180D01*
X198718714Y-126923800D01*
X198767095Y-126851228D01*
X198791285Y-126827038D01*
X199202523Y-127407609D02*
X199202523Y-127141514D01*
X199178333Y-127093133D01*
X199129952Y-127068942D01*
X199033190Y-127068942D01*
X198984809Y-127093133D01*
X199202523Y-127383419D02*
X199154142Y-127407609D01*
X199033190Y-127407609D01*
X198984809Y-127383419D01*
X198960619Y-127335038D01*
X198960619Y-127286657D01*
X198984809Y-127238276D01*
X199033190Y-127214085D01*
X199154142Y-127214085D01*
X199202523Y-127189895D01*
X199444428Y-127068942D02*
X199444428Y-127407609D01*
X199444428Y-127117323D02*
X199468619Y-127093133D01*
X199517000Y-127068942D01*
X199589571Y-127068942D01*
X199637952Y-127093133D01*
X199662142Y-127141514D01*
X199662142Y-127407609D01*
X199831476Y-127068942D02*
X200025000Y-127068942D01*
X199904047Y-126899609D02*
X199904047Y-127335038D01*
X199928238Y-127383419D01*
X199976619Y-127407609D01*
X200025000Y-127407609D01*
X200387857Y-127383419D02*
X200339476Y-127407609D01*
X200242714Y-127407609D01*
X200194333Y-127383419D01*
X200170142Y-127335038D01*
X200170142Y-127141514D01*
X200194333Y-127093133D01*
X200242714Y-127068942D01*
X200339476Y-127068942D01*
X200387857Y-127093133D01*
X200412047Y-127141514D01*
X200412047Y-127189895D01*
X200170142Y-127238276D01*
X200629761Y-127068942D02*
X200629761Y-127407609D01*
X200629761Y-127117323D02*
X200653952Y-127093133D01*
X200702333Y-127068942D01*
X200774904Y-127068942D01*
X200823285Y-127093133D01*
X200847476Y-127141514D01*
X200847476Y-127407609D01*
X201307095Y-127407609D02*
X201307095Y-127141514D01*
X201282904Y-127093133D01*
X201234523Y-127068942D01*
X201137761Y-127068942D01*
X201089380Y-127093133D01*
X201307095Y-127383419D02*
X201258714Y-127407609D01*
X201137761Y-127407609D01*
X201089380Y-127383419D01*
X201065190Y-127335038D01*
X201065190Y-127286657D01*
X201089380Y-127238276D01*
X201137761Y-127214085D01*
X201258714Y-127214085D01*
X201307095Y-127189895D01*
X202105380Y-127141514D02*
X202177952Y-127165704D01*
X202202142Y-127189895D01*
X202226333Y-127238276D01*
X202226333Y-127310847D01*
X202202142Y-127359228D01*
X202177952Y-127383419D01*
X202129571Y-127407609D01*
X201936047Y-127407609D01*
X201936047Y-126899609D01*
X202105380Y-126899609D01*
X202153761Y-126923800D01*
X202177952Y-126947990D01*
X202202142Y-126996371D01*
X202202142Y-127044752D01*
X202177952Y-127093133D01*
X202153761Y-127117323D01*
X202105380Y-127141514D01*
X201936047Y-127141514D01*
X202371476Y-126899609D02*
X202661761Y-126899609D01*
X202516619Y-127407609D02*
X202516619Y-126899609D01*
X202782714Y-127601133D02*
X202806904Y-127576942D01*
X202855285Y-127504371D01*
X202879476Y-127455990D01*
X202903666Y-127383419D01*
X202927857Y-127262466D01*
X202927857Y-127165704D01*
X202903666Y-127044752D01*
X202879476Y-126972180D01*
X202855285Y-126923800D01*
X202806904Y-126851228D01*
X202782714Y-126827038D01*
D12*
X200525142Y-137457571D02*
X199668000Y-137457571D01*
X200096571Y-137457571D02*
X200096571Y-135957571D01*
X199953714Y-136171857D01*
X199810857Y-136314714D01*
X199668000Y-136386142D01*
X201168000Y-137314714D02*
X201239428Y-137386142D01*
X201168000Y-137457571D01*
X201096571Y-137386142D01*
X201168000Y-137314714D01*
X201168000Y-137457571D01*
X202668000Y-137457571D02*
X201810857Y-137457571D01*
X202239428Y-137457571D02*
X202239428Y-135957571D01*
X202096571Y-136171857D01*
X201953714Y-136314714D01*
X201810857Y-136386142D01*
X199449714Y-120307571D02*
X199449714Y-118807571D01*
X199806857Y-118807571D01*
X200021142Y-118879000D01*
X200164000Y-119021857D01*
X200235428Y-119164714D01*
X200306857Y-119450428D01*
X200306857Y-119664714D01*
X200235428Y-119950428D01*
X200164000Y-120093285D01*
X200021142Y-120236142D01*
X199806857Y-120307571D01*
X199449714Y-120307571D01*
X201164000Y-120307571D02*
X201021142Y-120236142D01*
X200949714Y-120093285D01*
X200949714Y-118807571D01*
X202378285Y-120307571D02*
X202378285Y-119521857D01*
X202306857Y-119379000D01*
X202164000Y-119307571D01*
X201878285Y-119307571D01*
X201735428Y-119379000D01*
X202378285Y-120236142D02*
X202235428Y-120307571D01*
X201878285Y-120307571D01*
X201735428Y-120236142D01*
X201664000Y-120093285D01*
X201664000Y-119950428D01*
X201735428Y-119807571D01*
X201878285Y-119736142D01*
X202235428Y-119736142D01*
X202378285Y-119664714D01*
X198271142Y-122071857D02*
X197771142Y-122071857D01*
X197771142Y-122857571D02*
X197771142Y-121357571D01*
X198485428Y-121357571D01*
X199056857Y-122857571D02*
X199056857Y-121857571D01*
X199056857Y-122143285D02*
X199128285Y-122000428D01*
X199199714Y-121929000D01*
X199342571Y-121857571D01*
X199485428Y-121857571D01*
X200628285Y-122857571D02*
X200628285Y-122071857D01*
X200556857Y-121929000D01*
X200414000Y-121857571D01*
X200128285Y-121857571D01*
X199985428Y-121929000D01*
X200628285Y-122786142D02*
X200485428Y-122857571D01*
X200128285Y-122857571D01*
X199985428Y-122786142D01*
X199914000Y-122643285D01*
X199914000Y-122500428D01*
X199985428Y-122357571D01*
X200128285Y-122286142D01*
X200485428Y-122286142D01*
X200628285Y-122214714D01*
X201342571Y-121857571D02*
X201342571Y-122857571D01*
X201342571Y-122000428D02*
X201414000Y-121929000D01*
X201556857Y-121857571D01*
X201771142Y-121857571D01*
X201914000Y-121929000D01*
X201985428Y-122071857D01*
X201985428Y-122857571D01*
X202699714Y-122857571D02*
X202699714Y-121857571D01*
X202699714Y-121357571D02*
X202628285Y-121429000D01*
X202699714Y-121500428D01*
X202771142Y-121429000D01*
X202699714Y-121357571D01*
X202699714Y-121500428D01*
X204056857Y-122857571D02*
X204056857Y-122071857D01*
X203985428Y-121929000D01*
X203842571Y-121857571D01*
X203556857Y-121857571D01*
X203414000Y-121929000D01*
X204056857Y-122786142D02*
X203914000Y-122857571D01*
X203556857Y-122857571D01*
X203414000Y-122786142D01*
X203342571Y-122643285D01*
X203342571Y-122500428D01*
X203414000Y-122357571D01*
X203556857Y-122286142D01*
X203914000Y-122286142D01*
X204056857Y-122214714D01*
D11*
X193681047Y-119101809D02*
X193995523Y-119101809D01*
X193826190Y-119295333D01*
X193898761Y-119295333D01*
X193947142Y-119319523D01*
X193971333Y-119343714D01*
X193995523Y-119392095D01*
X193995523Y-119513047D01*
X193971333Y-119561428D01*
X193947142Y-119585619D01*
X193898761Y-119609809D01*
X193753619Y-119609809D01*
X193705238Y-119585619D01*
X193681047Y-119561428D01*
X194140666Y-119101809D02*
X194310000Y-119609809D01*
X194479333Y-119101809D01*
X194600285Y-119101809D02*
X194914761Y-119101809D01*
X194745428Y-119295333D01*
X194818000Y-119295333D01*
X194866380Y-119319523D01*
X194890571Y-119343714D01*
X194914761Y-119392095D01*
X194914761Y-119513047D01*
X194890571Y-119561428D01*
X194866380Y-119585619D01*
X194818000Y-119609809D01*
X194672857Y-119609809D01*
X194624476Y-119585619D01*
X194600285Y-119561428D01*
X190899142Y-119609809D02*
X190899142Y-119101809D01*
X191092666Y-119101809D01*
X191141047Y-119126000D01*
X191165238Y-119150190D01*
X191189428Y-119198571D01*
X191189428Y-119271142D01*
X191165238Y-119319523D01*
X191141047Y-119343714D01*
X191092666Y-119367904D01*
X190899142Y-119367904D01*
X191697428Y-119561428D02*
X191673238Y-119585619D01*
X191600666Y-119609809D01*
X191552285Y-119609809D01*
X191479714Y-119585619D01*
X191431333Y-119537238D01*
X191407142Y-119488857D01*
X191382952Y-119392095D01*
X191382952Y-119319523D01*
X191407142Y-119222761D01*
X191431333Y-119174380D01*
X191479714Y-119126000D01*
X191552285Y-119101809D01*
X191600666Y-119101809D01*
X191673238Y-119126000D01*
X191697428Y-119150190D01*
X192181238Y-119609809D02*
X191890952Y-119609809D01*
X192036095Y-119609809D02*
X192036095Y-119101809D01*
X191987714Y-119174380D01*
X191939333Y-119222761D01*
X191890952Y-119246952D01*
X192616666Y-119271142D02*
X192616666Y-119609809D01*
X192495714Y-119077619D02*
X192374761Y-119440476D01*
X192689238Y-119440476D01*
X188359142Y-119609809D02*
X188359142Y-119101809D01*
X188552666Y-119101809D01*
X188601047Y-119126000D01*
X188625238Y-119150190D01*
X188649428Y-119198571D01*
X188649428Y-119271142D01*
X188625238Y-119319523D01*
X188601047Y-119343714D01*
X188552666Y-119367904D01*
X188359142Y-119367904D01*
X189157428Y-119561428D02*
X189133238Y-119585619D01*
X189060666Y-119609809D01*
X189012285Y-119609809D01*
X188939714Y-119585619D01*
X188891333Y-119537238D01*
X188867142Y-119488857D01*
X188842952Y-119392095D01*
X188842952Y-119319523D01*
X188867142Y-119222761D01*
X188891333Y-119174380D01*
X188939714Y-119126000D01*
X189012285Y-119101809D01*
X189060666Y-119101809D01*
X189133238Y-119126000D01*
X189157428Y-119150190D01*
X189641238Y-119609809D02*
X189350952Y-119609809D01*
X189496095Y-119609809D02*
X189496095Y-119101809D01*
X189447714Y-119174380D01*
X189399333Y-119222761D01*
X189350952Y-119246952D01*
X189810571Y-119101809D02*
X190125047Y-119101809D01*
X189955714Y-119295333D01*
X190028285Y-119295333D01*
X190076666Y-119319523D01*
X190100857Y-119343714D01*
X190125047Y-119392095D01*
X190125047Y-119513047D01*
X190100857Y-119561428D01*
X190076666Y-119585619D01*
X190028285Y-119609809D01*
X189883142Y-119609809D01*
X189834761Y-119585619D01*
X189810571Y-119561428D01*
X186097333Y-119609809D02*
X186097333Y-119101809D01*
X186290857Y-119101809D01*
X186339238Y-119126000D01*
X186363428Y-119150190D01*
X186387619Y-119198571D01*
X186387619Y-119271142D01*
X186363428Y-119319523D01*
X186339238Y-119343714D01*
X186290857Y-119367904D01*
X186097333Y-119367904D01*
X186581142Y-119464666D02*
X186823047Y-119464666D01*
X186532761Y-119609809D02*
X186702095Y-119101809D01*
X186871428Y-119609809D01*
X187113333Y-119319523D02*
X187064952Y-119295333D01*
X187040761Y-119271142D01*
X187016571Y-119222761D01*
X187016571Y-119198571D01*
X187040761Y-119150190D01*
X187064952Y-119126000D01*
X187113333Y-119101809D01*
X187210095Y-119101809D01*
X187258476Y-119126000D01*
X187282666Y-119150190D01*
X187306857Y-119198571D01*
X187306857Y-119222761D01*
X187282666Y-119271142D01*
X187258476Y-119295333D01*
X187210095Y-119319523D01*
X187113333Y-119319523D01*
X187064952Y-119343714D01*
X187040761Y-119367904D01*
X187016571Y-119416285D01*
X187016571Y-119513047D01*
X187040761Y-119561428D01*
X187064952Y-119585619D01*
X187113333Y-119609809D01*
X187210095Y-119609809D01*
X187258476Y-119585619D01*
X187282666Y-119561428D01*
X187306857Y-119513047D01*
X187306857Y-119416285D01*
X187282666Y-119367904D01*
X187258476Y-119343714D01*
X187210095Y-119319523D01*
X181525333Y-117831809D02*
X181525333Y-117323809D01*
X181718857Y-117323809D01*
X181767238Y-117348000D01*
X181791428Y-117372190D01*
X181815619Y-117420571D01*
X181815619Y-117493142D01*
X181791428Y-117541523D01*
X181767238Y-117565714D01*
X181718857Y-117589904D01*
X181525333Y-117589904D01*
X182009142Y-117686666D02*
X182251047Y-117686666D01*
X181960761Y-117831809D02*
X182130095Y-117323809D01*
X182299428Y-117831809D01*
X182492952Y-117831809D02*
X182589714Y-117831809D01*
X182638095Y-117807619D01*
X182662285Y-117783428D01*
X182710666Y-117710857D01*
X182734857Y-117614095D01*
X182734857Y-117420571D01*
X182710666Y-117372190D01*
X182686476Y-117348000D01*
X182638095Y-117323809D01*
X182541333Y-117323809D01*
X182492952Y-117348000D01*
X182468761Y-117372190D01*
X182444571Y-117420571D01*
X182444571Y-117541523D01*
X182468761Y-117589904D01*
X182492952Y-117614095D01*
X182541333Y-117638285D01*
X182638095Y-117638285D01*
X182686476Y-117614095D01*
X182710666Y-117589904D01*
X182734857Y-117541523D01*
X193922952Y-138176000D02*
X193874571Y-138151809D01*
X193802000Y-138151809D01*
X193729428Y-138176000D01*
X193681047Y-138224380D01*
X193656857Y-138272761D01*
X193632666Y-138369523D01*
X193632666Y-138442095D01*
X193656857Y-138538857D01*
X193681047Y-138587238D01*
X193729428Y-138635619D01*
X193802000Y-138659809D01*
X193850380Y-138659809D01*
X193922952Y-138635619D01*
X193947142Y-138611428D01*
X193947142Y-138442095D01*
X193850380Y-138442095D01*
X194164857Y-138659809D02*
X194164857Y-138151809D01*
X194455142Y-138659809D01*
X194455142Y-138151809D01*
X194697047Y-138659809D02*
X194697047Y-138151809D01*
X194818000Y-138151809D01*
X194890571Y-138176000D01*
X194938952Y-138224380D01*
X194963142Y-138272761D01*
X194987333Y-138369523D01*
X194987333Y-138442095D01*
X194963142Y-138538857D01*
X194938952Y-138587238D01*
X194890571Y-138635619D01*
X194818000Y-138659809D01*
X194697047Y-138659809D01*
X191141047Y-138659809D02*
X191141047Y-138151809D01*
X191334571Y-138151809D01*
X191382952Y-138176000D01*
X191407142Y-138200190D01*
X191431333Y-138248571D01*
X191431333Y-138321142D01*
X191407142Y-138369523D01*
X191382952Y-138393714D01*
X191334571Y-138417904D01*
X191141047Y-138417904D01*
X191818380Y-138393714D02*
X191890952Y-138417904D01*
X191915142Y-138442095D01*
X191939333Y-138490476D01*
X191939333Y-138563047D01*
X191915142Y-138611428D01*
X191890952Y-138635619D01*
X191842571Y-138659809D01*
X191649047Y-138659809D01*
X191649047Y-138151809D01*
X191818380Y-138151809D01*
X191866761Y-138176000D01*
X191890952Y-138200190D01*
X191915142Y-138248571D01*
X191915142Y-138296952D01*
X191890952Y-138345333D01*
X191866761Y-138369523D01*
X191818380Y-138393714D01*
X191649047Y-138393714D01*
X192108666Y-138151809D02*
X192447333Y-138151809D01*
X192229619Y-138659809D01*
X188395428Y-138659809D02*
X188395428Y-138151809D01*
X188588952Y-138151809D01*
X188637333Y-138176000D01*
X188661523Y-138200190D01*
X188685714Y-138248571D01*
X188685714Y-138321142D01*
X188661523Y-138369523D01*
X188637333Y-138393714D01*
X188588952Y-138417904D01*
X188395428Y-138417904D01*
X189072761Y-138393714D02*
X188903428Y-138393714D01*
X188903428Y-138659809D02*
X188903428Y-138151809D01*
X189145333Y-138151809D01*
X189604952Y-138659809D02*
X189314666Y-138659809D01*
X189459809Y-138659809D02*
X189459809Y-138151809D01*
X189411428Y-138224380D01*
X189363047Y-138272761D01*
X189314666Y-138296952D01*
X190088761Y-138659809D02*
X189798476Y-138659809D01*
X189943619Y-138659809D02*
X189943619Y-138151809D01*
X189895238Y-138224380D01*
X189846857Y-138272761D01*
X189798476Y-138296952D01*
X185807047Y-138659809D02*
X185807047Y-138151809D01*
X186000571Y-138151809D01*
X186048952Y-138176000D01*
X186073142Y-138200190D01*
X186097333Y-138248571D01*
X186097333Y-138321142D01*
X186073142Y-138369523D01*
X186048952Y-138393714D01*
X186000571Y-138417904D01*
X185807047Y-138417904D01*
X186484380Y-138393714D02*
X186556952Y-138417904D01*
X186581142Y-138442095D01*
X186605333Y-138490476D01*
X186605333Y-138563047D01*
X186581142Y-138611428D01*
X186556952Y-138635619D01*
X186508571Y-138659809D01*
X186315047Y-138659809D01*
X186315047Y-138151809D01*
X186484380Y-138151809D01*
X186532761Y-138176000D01*
X186556952Y-138200190D01*
X186581142Y-138248571D01*
X186581142Y-138296952D01*
X186556952Y-138345333D01*
X186532761Y-138369523D01*
X186484380Y-138393714D01*
X186315047Y-138393714D01*
X186895619Y-138369523D02*
X186847238Y-138345333D01*
X186823047Y-138321142D01*
X186798857Y-138272761D01*
X186798857Y-138248571D01*
X186823047Y-138200190D01*
X186847238Y-138176000D01*
X186895619Y-138151809D01*
X186992380Y-138151809D01*
X187040761Y-138176000D01*
X187064952Y-138200190D01*
X187089142Y-138248571D01*
X187089142Y-138272761D01*
X187064952Y-138321142D01*
X187040761Y-138345333D01*
X186992380Y-138369523D01*
X186895619Y-138369523D01*
X186847238Y-138393714D01*
X186823047Y-138417904D01*
X186798857Y-138466285D01*
X186798857Y-138563047D01*
X186823047Y-138611428D01*
X186847238Y-138635619D01*
X186895619Y-138659809D01*
X186992380Y-138659809D01*
X187040761Y-138635619D01*
X187064952Y-138611428D01*
X187089142Y-138563047D01*
X187089142Y-138466285D01*
X187064952Y-138417904D01*
X187040761Y-138393714D01*
X186992380Y-138369523D01*
X182601809Y-141598952D02*
X182093809Y-141598952D01*
X182093809Y-141405428D01*
X182118000Y-141357047D01*
X182142190Y-141332857D01*
X182190571Y-141308666D01*
X182263142Y-141308666D01*
X182311523Y-141332857D01*
X182335714Y-141357047D01*
X182359904Y-141405428D01*
X182359904Y-141598952D01*
X182335714Y-140921619D02*
X182359904Y-140849047D01*
X182384095Y-140824857D01*
X182432476Y-140800666D01*
X182505047Y-140800666D01*
X182553428Y-140824857D01*
X182577619Y-140849047D01*
X182601809Y-140897428D01*
X182601809Y-141090952D01*
X182093809Y-141090952D01*
X182093809Y-140921619D01*
X182118000Y-140873238D01*
X182142190Y-140849047D01*
X182190571Y-140824857D01*
X182238952Y-140824857D01*
X182287333Y-140849047D01*
X182311523Y-140873238D01*
X182335714Y-140921619D01*
X182335714Y-141090952D01*
X182601809Y-140558761D02*
X182601809Y-140462000D01*
X182577619Y-140413619D01*
X182553428Y-140389428D01*
X182480857Y-140341047D01*
X182384095Y-140316857D01*
X182190571Y-140316857D01*
X182142190Y-140341047D01*
X182118000Y-140365238D01*
X182093809Y-140413619D01*
X182093809Y-140510380D01*
X182118000Y-140558761D01*
X182142190Y-140582952D01*
X182190571Y-140607142D01*
X182311523Y-140607142D01*
X182359904Y-140582952D01*
X182384095Y-140558761D01*
X182408285Y-140510380D01*
X182408285Y-140413619D01*
X182384095Y-140365238D01*
X182359904Y-140341047D01*
X182311523Y-140316857D01*
X159137047Y-119101809D02*
X159451523Y-119101809D01*
X159282190Y-119295333D01*
X159354761Y-119295333D01*
X159403142Y-119319523D01*
X159427333Y-119343714D01*
X159451523Y-119392095D01*
X159451523Y-119513047D01*
X159427333Y-119561428D01*
X159403142Y-119585619D01*
X159354761Y-119609809D01*
X159209619Y-119609809D01*
X159161238Y-119585619D01*
X159137047Y-119561428D01*
X159596666Y-119101809D02*
X159766000Y-119609809D01*
X159935333Y-119101809D01*
X160056285Y-119101809D02*
X160370761Y-119101809D01*
X160201428Y-119295333D01*
X160274000Y-119295333D01*
X160322380Y-119319523D01*
X160346571Y-119343714D01*
X160370761Y-119392095D01*
X160370761Y-119513047D01*
X160346571Y-119561428D01*
X160322380Y-119585619D01*
X160274000Y-119609809D01*
X160128857Y-119609809D01*
X160080476Y-119585619D01*
X160056285Y-119561428D01*
X162039904Y-119609809D02*
X162039904Y-119101809D01*
X162378571Y-119101809D02*
X162475333Y-119101809D01*
X162523714Y-119126000D01*
X162572095Y-119174380D01*
X162596285Y-119271142D01*
X162596285Y-119440476D01*
X162572095Y-119537238D01*
X162523714Y-119585619D01*
X162475333Y-119609809D01*
X162378571Y-119609809D01*
X162330190Y-119585619D01*
X162281809Y-119537238D01*
X162257619Y-119440476D01*
X162257619Y-119271142D01*
X162281809Y-119174380D01*
X162330190Y-119126000D01*
X162378571Y-119101809D01*
X164458952Y-119126000D02*
X164410571Y-119101809D01*
X164338000Y-119101809D01*
X164265428Y-119126000D01*
X164217047Y-119174380D01*
X164192857Y-119222761D01*
X164168666Y-119319523D01*
X164168666Y-119392095D01*
X164192857Y-119488857D01*
X164217047Y-119537238D01*
X164265428Y-119585619D01*
X164338000Y-119609809D01*
X164386380Y-119609809D01*
X164458952Y-119585619D01*
X164483142Y-119561428D01*
X164483142Y-119392095D01*
X164386380Y-119392095D01*
X164700857Y-119609809D02*
X164700857Y-119101809D01*
X164991142Y-119609809D01*
X164991142Y-119101809D01*
X165233047Y-119609809D02*
X165233047Y-119101809D01*
X165354000Y-119101809D01*
X165426571Y-119126000D01*
X165474952Y-119174380D01*
X165499142Y-119222761D01*
X165523333Y-119319523D01*
X165523333Y-119392095D01*
X165499142Y-119488857D01*
X165474952Y-119537238D01*
X165426571Y-119585619D01*
X165354000Y-119609809D01*
X165233047Y-119609809D01*
X167083619Y-119561428D02*
X167059428Y-119585619D01*
X166986857Y-119609809D01*
X166938476Y-119609809D01*
X166865904Y-119585619D01*
X166817523Y-119537238D01*
X166793333Y-119488857D01*
X166769142Y-119392095D01*
X166769142Y-119319523D01*
X166793333Y-119222761D01*
X166817523Y-119174380D01*
X166865904Y-119126000D01*
X166938476Y-119101809D01*
X166986857Y-119101809D01*
X167059428Y-119126000D01*
X167083619Y-119150190D01*
X167543238Y-119609809D02*
X167301333Y-119609809D01*
X167301333Y-119101809D01*
X167712571Y-119609809D02*
X167712571Y-119101809D01*
X168002857Y-119609809D02*
X167785142Y-119319523D01*
X168002857Y-119101809D02*
X167712571Y-119392095D01*
X149835809Y-133749142D02*
X150029333Y-133749142D01*
X149908380Y-133579809D02*
X149908380Y-134015238D01*
X149932571Y-134063619D01*
X149980952Y-134087809D01*
X150029333Y-134087809D01*
X150198666Y-134087809D02*
X150198666Y-133579809D01*
X150416380Y-134087809D02*
X150416380Y-133821714D01*
X150392190Y-133773333D01*
X150343809Y-133749142D01*
X150271238Y-133749142D01*
X150222857Y-133773333D01*
X150198666Y-133797523D01*
X150851809Y-134063619D02*
X150803428Y-134087809D01*
X150706666Y-134087809D01*
X150658285Y-134063619D01*
X150634095Y-134015238D01*
X150634095Y-133821714D01*
X150658285Y-133773333D01*
X150706666Y-133749142D01*
X150803428Y-133749142D01*
X150851809Y-133773333D01*
X150876000Y-133821714D01*
X150876000Y-133870095D01*
X150634095Y-133918476D01*
X151093714Y-134087809D02*
X151093714Y-133749142D01*
X151093714Y-133845904D02*
X151117904Y-133797523D01*
X151142095Y-133773333D01*
X151190476Y-133749142D01*
X151238857Y-133749142D01*
X151408190Y-134087809D02*
X151408190Y-133749142D01*
X151408190Y-133797523D02*
X151432380Y-133773333D01*
X151480761Y-133749142D01*
X151553333Y-133749142D01*
X151601714Y-133773333D01*
X151625904Y-133821714D01*
X151625904Y-134087809D01*
X151625904Y-133821714D02*
X151650095Y-133773333D01*
X151698476Y-133749142D01*
X151771047Y-133749142D01*
X151819428Y-133773333D01*
X151843619Y-133821714D01*
X151843619Y-134087809D01*
X147948952Y-133604000D02*
X147900571Y-133579809D01*
X147828000Y-133579809D01*
X147755428Y-133604000D01*
X147707047Y-133652380D01*
X147682857Y-133700761D01*
X147658666Y-133797523D01*
X147658666Y-133870095D01*
X147682857Y-133966857D01*
X147707047Y-134015238D01*
X147755428Y-134063619D01*
X147828000Y-134087809D01*
X147876380Y-134087809D01*
X147948952Y-134063619D01*
X147973142Y-134039428D01*
X147973142Y-133870095D01*
X147876380Y-133870095D01*
X148190857Y-134087809D02*
X148190857Y-133579809D01*
X148481142Y-134087809D01*
X148481142Y-133579809D01*
X148723047Y-134087809D02*
X148723047Y-133579809D01*
X148844000Y-133579809D01*
X148916571Y-133604000D01*
X148964952Y-133652380D01*
X148989142Y-133700761D01*
X149013333Y-133797523D01*
X149013333Y-133870095D01*
X148989142Y-133966857D01*
X148964952Y-134015238D01*
X148916571Y-134063619D01*
X148844000Y-134087809D01*
X148723047Y-134087809D01*
X152617714Y-133894285D02*
X153004761Y-133894285D01*
X152811238Y-134087809D02*
X152811238Y-133700761D01*
X153416000Y-133821714D02*
X153488571Y-133845904D01*
X153512761Y-133870095D01*
X153536952Y-133918476D01*
X153536952Y-133991047D01*
X153512761Y-134039428D01*
X153488571Y-134063619D01*
X153440190Y-134087809D01*
X153246666Y-134087809D01*
X153246666Y-133579809D01*
X153416000Y-133579809D01*
X153464380Y-133604000D01*
X153488571Y-133628190D01*
X153512761Y-133676571D01*
X153512761Y-133724952D01*
X153488571Y-133773333D01*
X153464380Y-133797523D01*
X153416000Y-133821714D01*
X153246666Y-133821714D01*
X153730476Y-133942666D02*
X153972380Y-133942666D01*
X153682095Y-134087809D02*
X153851428Y-133579809D01*
X154020761Y-134087809D01*
X154117523Y-133579809D02*
X154407809Y-133579809D01*
X154262666Y-134087809D02*
X154262666Y-133579809D01*
X154504571Y-133579809D02*
X154794857Y-133579809D01*
X154649714Y-134087809D02*
X154649714Y-133579809D01*
X151831523Y-141199809D02*
X151831523Y-140861142D01*
X151831523Y-140957904D02*
X151855714Y-140909523D01*
X151879904Y-140885333D01*
X151928285Y-140861142D01*
X151976666Y-140861142D01*
X152339523Y-141175619D02*
X152291142Y-141199809D01*
X152194380Y-141199809D01*
X152146000Y-141175619D01*
X152121809Y-141127238D01*
X152121809Y-140933714D01*
X152146000Y-140885333D01*
X152194380Y-140861142D01*
X152291142Y-140861142D01*
X152339523Y-140885333D01*
X152363714Y-140933714D01*
X152363714Y-140982095D01*
X152121809Y-141030476D01*
X152557238Y-141175619D02*
X152605619Y-141199809D01*
X152702380Y-141199809D01*
X152750761Y-141175619D01*
X152774952Y-141127238D01*
X152774952Y-141103047D01*
X152750761Y-141054666D01*
X152702380Y-141030476D01*
X152629809Y-141030476D01*
X152581428Y-141006285D01*
X152557238Y-140957904D01*
X152557238Y-140933714D01*
X152581428Y-140885333D01*
X152629809Y-140861142D01*
X152702380Y-140861142D01*
X152750761Y-140885333D01*
X153186190Y-141175619D02*
X153137809Y-141199809D01*
X153041047Y-141199809D01*
X152992666Y-141175619D01*
X152968476Y-141127238D01*
X152968476Y-140933714D01*
X152992666Y-140885333D01*
X153041047Y-140861142D01*
X153137809Y-140861142D01*
X153186190Y-140885333D01*
X153210380Y-140933714D01*
X153210380Y-140982095D01*
X152968476Y-141030476D01*
X153355523Y-140861142D02*
X153549047Y-140861142D01*
X153428095Y-140691809D02*
X153428095Y-141127238D01*
X153452285Y-141175619D01*
X153500666Y-141199809D01*
X153549047Y-141199809D01*
D13*
X181381400Y-129606040D02*
X180568600Y-129606040D01*
X180594000Y-130723640D02*
X181381400Y-130723640D01*
X180568600Y-130977640D02*
X180568600Y-129352040D01*
X180568600Y-129352040D02*
X181381400Y-129352040D01*
X181381400Y-129352040D02*
X181381400Y-130977640D01*
X181381400Y-130977640D02*
X180568600Y-130977640D01*
X162864800Y-136804400D02*
X162864800Y-135991600D01*
X161747200Y-136017000D02*
X161747200Y-136804400D01*
X161493200Y-135991600D02*
X163118800Y-135991600D01*
X163118800Y-135991600D02*
X163118800Y-136804400D01*
X163118800Y-136804400D02*
X161493200Y-136804400D01*
X161493200Y-136804400D02*
X161493200Y-135991600D01*
X156057600Y-139496800D02*
X156870400Y-139496800D01*
X156845000Y-138379200D02*
X156057600Y-138379200D01*
X156870400Y-138125200D02*
X156870400Y-139750800D01*
X156870400Y-139750800D02*
X156057600Y-139750800D01*
X156057600Y-139750800D02*
X156057600Y-138125200D01*
X156057600Y-138125200D02*
X156870400Y-138125200D01*
X162966400Y-138379200D02*
X162153600Y-138379200D01*
X162179000Y-139496800D02*
X162966400Y-139496800D01*
X162153600Y-139750800D02*
X162153600Y-138125200D01*
X162153600Y-138125200D02*
X162966400Y-138125200D01*
X162966400Y-138125200D02*
X162966400Y-139750800D01*
X162966400Y-139750800D02*
X162153600Y-139750800D01*
X164744400Y-138379200D02*
X163931600Y-138379200D01*
X163957000Y-139496800D02*
X164744400Y-139496800D01*
X163931600Y-139750800D02*
X163931600Y-138125200D01*
X163931600Y-138125200D02*
X164744400Y-138125200D01*
X164744400Y-138125200D02*
X164744400Y-139750800D01*
X164744400Y-139750800D02*
X163931600Y-139750800D01*
X162560000Y-121285000D02*
X162560000Y-120015000D01*
X163830000Y-121285000D02*
X163830000Y-120040400D01*
X164211000Y-121285000D02*
X162179000Y-121285000D01*
X162179000Y-121285000D02*
X162179000Y-120015000D01*
X162179000Y-120015000D02*
X164211000Y-120015000D01*
X164211000Y-120015000D02*
X164211000Y-121285000D01*
X158826200Y-120243600D02*
X158826200Y-121056400D01*
X159943800Y-121031000D02*
X159943800Y-120243600D01*
X160197800Y-121056400D02*
X158572200Y-121056400D01*
X158572200Y-121056400D02*
X158572200Y-120243600D01*
X158572200Y-120243600D02*
X160197800Y-120243600D01*
X160197800Y-120243600D02*
X160197800Y-121056400D01*
X160096200Y-122148600D02*
X160096200Y-122961400D01*
X161213800Y-122936000D02*
X161213800Y-122148600D01*
X161467800Y-122961400D02*
X159842200Y-122961400D01*
X159842200Y-122961400D02*
X159842200Y-122148600D01*
X159842200Y-122148600D02*
X161467800Y-122148600D01*
X161467800Y-122148600D02*
X161467800Y-122961400D01*
X155407360Y-135991600D02*
X155407360Y-136804400D01*
X156524960Y-136779000D02*
X156524960Y-135991600D01*
X156778960Y-136804400D02*
X155153360Y-136804400D01*
X155153360Y-136804400D02*
X155153360Y-135991600D01*
X155153360Y-135991600D02*
X156778960Y-135991600D01*
X156778960Y-135991600D02*
X156778960Y-136804400D01*
X155092400Y-138379200D02*
X154279600Y-138379200D01*
X154305000Y-139496800D02*
X155092400Y-139496800D01*
X154279600Y-139750800D02*
X154279600Y-138125200D01*
X154279600Y-138125200D02*
X155092400Y-138125200D01*
X155092400Y-138125200D02*
X155092400Y-139750800D01*
X155092400Y-139750800D02*
X154279600Y-139750800D01*
X157480000Y-123190000D02*
X157480000Y-124460000D01*
X156210000Y-123190000D02*
X156210000Y-124434600D01*
X155829000Y-123190000D02*
X157861000Y-123190000D01*
X157861000Y-123190000D02*
X157861000Y-124460000D01*
X157861000Y-124460000D02*
X155829000Y-124460000D01*
X155829000Y-124460000D02*
X155829000Y-123190000D01*
X167081200Y-124053600D02*
X167081200Y-124866400D01*
X168198800Y-124841000D02*
X168198800Y-124053600D01*
X168452800Y-124866400D02*
X166827200Y-124866400D01*
X166827200Y-124866400D02*
X166827200Y-124053600D01*
X166827200Y-124053600D02*
X168452800Y-124053600D01*
X168452800Y-124053600D02*
X168452800Y-124866400D01*
X166370000Y-121285000D02*
X166370000Y-120015000D01*
X167640000Y-121285000D02*
X167640000Y-120040400D01*
X168021000Y-121285000D02*
X165989000Y-121285000D01*
X165989000Y-121285000D02*
X165989000Y-120015000D01*
X165989000Y-120015000D02*
X168021000Y-120015000D01*
X168021000Y-120015000D02*
X168021000Y-121285000D01*
X148463000Y-135953500D02*
X151257000Y-135953500D01*
X148463000Y-135382000D02*
X148463000Y-138938000D01*
X148463000Y-138938000D02*
X151257000Y-138938000D01*
X151257000Y-138938000D02*
X151257000Y-135382000D01*
X151257000Y-135382000D02*
X148463000Y-135382000D01*
X144272000Y-121856500D02*
X141478000Y-121856500D01*
X144272000Y-122428000D02*
X144272000Y-118872000D01*
X144272000Y-118872000D02*
X141478000Y-118872000D01*
X141478000Y-118872000D02*
X141478000Y-122428000D01*
X141478000Y-122428000D02*
X144272000Y-122428000D01*
X154813000Y-118173500D02*
X157607000Y-118173500D01*
X154813000Y-117602000D02*
X154813000Y-121158000D01*
X154813000Y-121158000D02*
X157607000Y-121158000D01*
X157607000Y-121158000D02*
X157607000Y-117602000D01*
X157607000Y-117602000D02*
X154813000Y-117602000D01*
X178104800Y-120548400D02*
X178104800Y-119735600D01*
X176987200Y-119761000D02*
X176987200Y-120548400D01*
X176733200Y-119735600D02*
X178358800Y-119735600D01*
X178358800Y-119735600D02*
X178358800Y-120548400D01*
X178358800Y-120548400D02*
X176733200Y-120548400D01*
X176733200Y-120548400D02*
X176733200Y-119735600D01*
X178104800Y-118770400D02*
X178104800Y-117957600D01*
X176987200Y-117983000D02*
X176987200Y-118770400D01*
X176733200Y-117957600D02*
X178358800Y-117957600D01*
X178358800Y-117957600D02*
X178358800Y-118770400D01*
X178358800Y-118770400D02*
X176733200Y-118770400D01*
X176733200Y-118770400D02*
X176733200Y-117957600D01*
X168503600Y-134670800D02*
X169316400Y-134670800D01*
X169291000Y-133553200D02*
X168503600Y-133553200D01*
X169316400Y-133299200D02*
X169316400Y-134924800D01*
X169316400Y-134924800D02*
X168503600Y-134924800D01*
X168503600Y-134924800D02*
X168503600Y-133299200D01*
X168503600Y-133299200D02*
X169316400Y-133299200D01*
X168503600Y-138226800D02*
X169316400Y-138226800D01*
X169291000Y-137109200D02*
X168503600Y-137109200D01*
X169316400Y-136855200D02*
X169316400Y-138480800D01*
X169316400Y-138480800D02*
X168503600Y-138480800D01*
X168503600Y-138480800D02*
X168503600Y-136855200D01*
X168503600Y-136855200D02*
X169316400Y-136855200D01*
X184429400Y-133807200D02*
X183616600Y-133807200D01*
X183642000Y-134924800D02*
X184429400Y-134924800D01*
X183616600Y-135178800D02*
X183616600Y-133553200D01*
X183616600Y-133553200D02*
X184429400Y-133553200D01*
X184429400Y-133553200D02*
X184429400Y-135178800D01*
X184429400Y-135178800D02*
X183616600Y-135178800D01*
X183159400Y-129489200D02*
X182346600Y-129489200D01*
X182372000Y-130606800D02*
X183159400Y-130606800D01*
X182346600Y-130860800D02*
X182346600Y-129235200D01*
X182346600Y-129235200D02*
X183159400Y-129235200D01*
X183159400Y-129235200D02*
X183159400Y-130860800D01*
X183159400Y-130860800D02*
X182346600Y-130860800D01*
X186207400Y-133807200D02*
X185394600Y-133807200D01*
X185420000Y-134924800D02*
X186207400Y-134924800D01*
X185394600Y-135178800D02*
X185394600Y-133553200D01*
X185394600Y-133553200D02*
X186207400Y-133553200D01*
X186207400Y-133553200D02*
X186207400Y-135178800D01*
X186207400Y-135178800D02*
X185394600Y-135178800D01*
X185333640Y-120548400D02*
X185333640Y-119735600D01*
X184216040Y-119761000D02*
X184216040Y-120548400D01*
X183962040Y-119735600D02*
X185587640Y-119735600D01*
X185587640Y-119735600D02*
X185587640Y-120548400D01*
X185587640Y-120548400D02*
X183962040Y-120548400D01*
X183962040Y-120548400D02*
X183962040Y-119735600D01*
X184175400Y-122123200D02*
X183362600Y-122123200D01*
X183388000Y-123240800D02*
X184175400Y-123240800D01*
X183362600Y-123494800D02*
X183362600Y-121869200D01*
X183362600Y-121869200D02*
X184175400Y-121869200D01*
X184175400Y-121869200D02*
X184175400Y-123494800D01*
X184175400Y-123494800D02*
X183362600Y-123494800D01*
X187985400Y-133807200D02*
X187172600Y-133807200D01*
X187198000Y-134924800D02*
X187985400Y-134924800D01*
X187172600Y-135178800D02*
X187172600Y-133553200D01*
X187172600Y-133553200D02*
X187985400Y-133553200D01*
X187985400Y-133553200D02*
X187985400Y-135178800D01*
X187985400Y-135178800D02*
X187172600Y-135178800D01*
X185953400Y-122113040D02*
X185140600Y-122113040D01*
X185166000Y-123230640D02*
X185953400Y-123230640D01*
X185140600Y-123484640D02*
X185140600Y-121859040D01*
X185140600Y-121859040D02*
X185953400Y-121859040D01*
X185953400Y-121859040D02*
X185953400Y-123484640D01*
X185953400Y-123484640D02*
X185140600Y-123484640D01*
X188645800Y-120548400D02*
X188645800Y-119735600D01*
X187528200Y-119761000D02*
X187528200Y-120548400D01*
X187274200Y-119735600D02*
X188899800Y-119735600D01*
X188899800Y-119735600D02*
X188899800Y-120548400D01*
X188899800Y-120548400D02*
X187274200Y-120548400D01*
X187274200Y-120548400D02*
X187274200Y-119735600D01*
X186918600Y-123230640D02*
X187731400Y-123230640D01*
X187706000Y-122113040D02*
X186918600Y-122113040D01*
X187731400Y-121859040D02*
X187731400Y-123484640D01*
X187731400Y-123484640D02*
X186918600Y-123484640D01*
X186918600Y-123484640D02*
X186918600Y-121859040D01*
X186918600Y-121859040D02*
X187731400Y-121859040D01*
X182651400Y-133807200D02*
X181838600Y-133807200D01*
X181864000Y-134924800D02*
X182651400Y-134924800D01*
X181838600Y-135178800D02*
X181838600Y-133553200D01*
X181838600Y-133553200D02*
X182651400Y-133553200D01*
X182651400Y-133553200D02*
X182651400Y-135178800D01*
X182651400Y-135178800D02*
X181838600Y-135178800D01*
X194868800Y-123596400D02*
X194868800Y-122783600D01*
X193751200Y-122809000D02*
X193751200Y-123596400D01*
X193497200Y-122783600D02*
X195122800Y-122783600D01*
X195122800Y-122783600D02*
X195122800Y-123596400D01*
X195122800Y-123596400D02*
X193497200Y-123596400D01*
X193497200Y-123596400D02*
X193497200Y-122783600D01*
X190703200Y-122783600D02*
X190703200Y-123596400D01*
X191820800Y-123571000D02*
X191820800Y-122783600D01*
X192074800Y-123596400D02*
X190449200Y-123596400D01*
X190449200Y-123596400D02*
X190449200Y-122783600D01*
X190449200Y-122783600D02*
X192074800Y-122783600D01*
X192074800Y-122783600D02*
X192074800Y-123596400D01*
X196367400Y-133553200D02*
X195554600Y-133553200D01*
X195580000Y-134670800D02*
X196367400Y-134670800D01*
X195554600Y-134924800D02*
X195554600Y-133299200D01*
X195554600Y-133299200D02*
X196367400Y-133299200D01*
X196367400Y-133299200D02*
X196367400Y-134924800D01*
X196367400Y-134924800D02*
X195554600Y-134924800D01*
X190017400Y-133807200D02*
X189204600Y-133807200D01*
X189230000Y-134924800D02*
X190017400Y-134924800D01*
X189204600Y-135178800D02*
X189204600Y-133553200D01*
X189204600Y-133553200D02*
X190017400Y-133553200D01*
X190017400Y-133553200D02*
X190017400Y-135178800D01*
X190017400Y-135178800D02*
X189204600Y-135178800D01*
D14*
X141330000Y-116955000D02*
X143230000Y-116955000D01*
X141330000Y-115855000D02*
X143230000Y-115855000D01*
X142230000Y-116405000D02*
X142680000Y-116405000D01*
X142180000Y-116155000D02*
X142180000Y-116655000D01*
X142180000Y-116405000D02*
X142430000Y-116155000D01*
X142430000Y-116155000D02*
X142430000Y-116655000D01*
X142430000Y-116655000D02*
X142180000Y-116405000D01*
X141330000Y-141955000D02*
X143230000Y-141955000D01*
X141330000Y-140855000D02*
X143230000Y-140855000D01*
X142230000Y-141405000D02*
X142680000Y-141405000D01*
X142180000Y-141155000D02*
X142180000Y-141655000D01*
X142180000Y-141405000D02*
X142430000Y-141155000D01*
X142430000Y-141155000D02*
X142430000Y-141655000D01*
X142430000Y-141655000D02*
X142180000Y-141405000D01*
X203665000Y-140420000D02*
X201765000Y-140420000D01*
X203665000Y-141520000D02*
X201765000Y-141520000D01*
X202765000Y-140970000D02*
X202315000Y-140970000D01*
X202815000Y-141220000D02*
X202815000Y-140720000D01*
X202815000Y-140970000D02*
X202565000Y-141220000D01*
X202565000Y-141220000D02*
X202565000Y-140720000D01*
X202565000Y-140720000D02*
X202815000Y-140970000D01*
X203665000Y-116290000D02*
X201765000Y-116290000D01*
X203665000Y-117390000D02*
X201765000Y-117390000D01*
X202765000Y-116840000D02*
X202315000Y-116840000D01*
X202815000Y-117090000D02*
X202815000Y-116590000D01*
X202815000Y-116840000D02*
X202565000Y-117090000D01*
X202565000Y-117090000D02*
X202565000Y-116590000D01*
X202565000Y-116590000D02*
X202815000Y-116840000D01*
D10*
X152654000Y-139700000D02*
X152654000Y-137160000D01*
D15*
X161036000Y-116332000D02*
X161036000Y-118872000D01*
X168656000Y-118872000D02*
X158496000Y-118872000D01*
X158496000Y-116332000D02*
X168656000Y-116332000D01*
X158496000Y-118872000D02*
X158496000Y-116332000D01*
X168656000Y-116332000D02*
X168656000Y-118872000D01*
X152400000Y-130810000D02*
X152400000Y-133350000D01*
X154940000Y-133350000D02*
X147320000Y-133350000D01*
X147320000Y-133350000D02*
X147320000Y-130810000D01*
X147320000Y-130810000D02*
X154940000Y-130810000D01*
X154940000Y-130810000D02*
X154940000Y-133350000D01*
D13*
X145491200Y-116433600D02*
X145491200Y-117246400D01*
X146608800Y-117221000D02*
X146608800Y-116433600D01*
X146862800Y-117246400D02*
X145237200Y-117246400D01*
X145237200Y-117246400D02*
X145237200Y-116433600D01*
X145237200Y-116433600D02*
X146862800Y-116433600D01*
X146862800Y-116433600D02*
X146862800Y-117246400D01*
X145491200Y-140563600D02*
X145491200Y-141376400D01*
X146608800Y-141351000D02*
X146608800Y-140563600D01*
X146862800Y-141376400D02*
X145237200Y-141376400D01*
X145237200Y-141376400D02*
X145237200Y-140563600D01*
X145237200Y-140563600D02*
X146862800Y-140563600D01*
X146862800Y-140563600D02*
X146862800Y-141376400D01*
X199948800Y-141376400D02*
X199948800Y-140563600D01*
X198831200Y-140589000D02*
X198831200Y-141376400D01*
X198577200Y-140563600D02*
X200202800Y-140563600D01*
X200202800Y-140563600D02*
X200202800Y-141376400D01*
X200202800Y-141376400D02*
X198577200Y-141376400D01*
X198577200Y-141376400D02*
X198577200Y-140563600D01*
X200065640Y-117246400D02*
X200065640Y-116433600D01*
X198948040Y-116459000D02*
X198948040Y-117246400D01*
X198694040Y-116433600D02*
X200319640Y-116433600D01*
X200319640Y-116433600D02*
X200319640Y-117246400D01*
X200319640Y-117246400D02*
X198694040Y-117246400D01*
X198694040Y-117246400D02*
X198694040Y-116433600D01*
X166776400Y-138506200D02*
X165963600Y-138506200D01*
X165989000Y-139623800D02*
X166776400Y-139623800D01*
X165963600Y-139877800D02*
X165963600Y-138252200D01*
X165963600Y-138252200D02*
X166776400Y-138252200D01*
X166776400Y-138252200D02*
X166776400Y-139877800D01*
X166776400Y-139877800D02*
X165963600Y-139877800D01*
X159816800Y-136804400D02*
X159816800Y-135991600D01*
X158699200Y-136017000D02*
X158699200Y-136804400D01*
X158445200Y-135991600D02*
X160070800Y-135991600D01*
X160070800Y-135991600D02*
X160070800Y-136804400D01*
X160070800Y-136804400D02*
X158445200Y-136804400D01*
X158445200Y-136804400D02*
X158445200Y-135991600D01*
X166166800Y-136804400D02*
X166166800Y-135991600D01*
X165049200Y-136017000D02*
X165049200Y-136804400D01*
X164795200Y-135991600D02*
X166420800Y-135991600D01*
X166420800Y-135991600D02*
X166420800Y-136804400D01*
X166420800Y-136804400D02*
X164795200Y-136804400D01*
X164795200Y-136804400D02*
X164795200Y-135991600D01*
X154635200Y-127101600D02*
X154635200Y-127914400D01*
X155752800Y-127889000D02*
X155752800Y-127101600D01*
X156006800Y-127914400D02*
X154381200Y-127914400D01*
X154381200Y-127914400D02*
X154381200Y-127101600D01*
X154381200Y-127101600D02*
X156006800Y-127101600D01*
X156006800Y-127101600D02*
X156006800Y-127914400D01*
X154635200Y-128879600D02*
X154635200Y-129692400D01*
X155752800Y-129667000D02*
X155752800Y-128879600D01*
X156006800Y-129692400D02*
X154381200Y-129692400D01*
X154381200Y-129692400D02*
X154381200Y-128879600D01*
X154381200Y-128879600D02*
X156006800Y-128879600D01*
X156006800Y-128879600D02*
X156006800Y-129692400D01*
X164388800Y-122961400D02*
X164388800Y-122148600D01*
X163271200Y-122174000D02*
X163271200Y-122961400D01*
X163017200Y-122148600D02*
X164642800Y-122148600D01*
X164642800Y-122148600D02*
X164642800Y-122961400D01*
X164642800Y-122961400D02*
X163017200Y-122961400D01*
X163017200Y-122961400D02*
X163017200Y-122148600D01*
X167563800Y-122961400D02*
X167563800Y-122148600D01*
X166446200Y-122174000D02*
X166446200Y-122961400D01*
X166192200Y-122148600D02*
X167817800Y-122148600D01*
X167817800Y-122148600D02*
X167817800Y-122961400D01*
X167817800Y-122961400D02*
X166192200Y-122961400D01*
X166192200Y-122961400D02*
X166192200Y-122148600D01*
X143103600Y-137718800D02*
X143916400Y-137718800D01*
X143891000Y-136601200D02*
X143103600Y-136601200D01*
X143916400Y-136347200D02*
X143916400Y-137972800D01*
X143916400Y-137972800D02*
X143103600Y-137972800D01*
X143103600Y-137972800D02*
X143103600Y-136347200D01*
X143103600Y-136347200D02*
X143916400Y-136347200D01*
X173355000Y-116205000D02*
X173355000Y-117475000D01*
X172085000Y-116205000D02*
X172085000Y-117449600D01*
X171704000Y-116205000D02*
X173736000Y-116205000D01*
X173736000Y-116205000D02*
X173736000Y-117475000D01*
X173736000Y-117475000D02*
X171704000Y-117475000D01*
X171704000Y-117475000D02*
X171704000Y-116205000D01*
X177165000Y-124841000D02*
X175895000Y-124841000D01*
X177165000Y-123571000D02*
X175920400Y-123571000D01*
X177165000Y-123190000D02*
X177165000Y-125222000D01*
X177165000Y-125222000D02*
X175895000Y-125222000D01*
X175895000Y-125222000D02*
X175895000Y-123190000D01*
X175895000Y-123190000D02*
X177165000Y-123190000D01*
X176149000Y-133223000D02*
X177419000Y-133223000D01*
X176149000Y-134493000D02*
X177393600Y-134493000D01*
X176149000Y-134874000D02*
X176149000Y-132842000D01*
X176149000Y-132842000D02*
X177419000Y-132842000D01*
X177419000Y-132842000D02*
X177419000Y-134874000D01*
X177419000Y-134874000D02*
X176149000Y-134874000D01*
X178435000Y-139700000D02*
X178435000Y-140970000D01*
X177165000Y-139700000D02*
X177165000Y-140944600D01*
X176784000Y-139700000D02*
X178816000Y-139700000D01*
X178816000Y-139700000D02*
X178816000Y-140970000D01*
X178816000Y-140970000D02*
X176784000Y-140970000D01*
X176784000Y-140970000D02*
X176784000Y-139700000D01*
X202438000Y-129717800D02*
X202438000Y-128092200D01*
X200152000Y-128092200D02*
X200152000Y-129717800D01*
X199694800Y-128092200D02*
X199694800Y-129717800D01*
X199694800Y-129717800D02*
X202895200Y-129717800D01*
X202895200Y-129717800D02*
X202895200Y-128092200D01*
X202895200Y-128092200D02*
X199694800Y-128092200D01*
D16*
X158460440Y-133438900D02*
X158661100Y-133639560D01*
X158859220Y-133639560D02*
X158460440Y-133240780D01*
X158460440Y-133040120D02*
X159059880Y-133639560D01*
X159260540Y-133639560D02*
X158460440Y-132839460D01*
X159461200Y-133639560D02*
X158460440Y-133639560D01*
X158460440Y-133639560D02*
X158460440Y-132638800D01*
X158460440Y-132638800D02*
X159461200Y-133639560D01*
X166659560Y-132638800D02*
X166659560Y-133639560D01*
X166659560Y-133639560D02*
X165658800Y-133639560D01*
X165658800Y-125440440D02*
X166659560Y-125440440D01*
X166659560Y-125440440D02*
X166659560Y-126441200D01*
X158460440Y-126441200D02*
X158460440Y-125440440D01*
X158460440Y-125440440D02*
X159461200Y-125440440D01*
D13*
X160430981Y-131953000D02*
G75*
G03X160430981Y-131953000I-283981J0D01*
G01*
X166116000Y-132715000D02*
X165735000Y-133096000D01*
X165735000Y-133096000D02*
X159385000Y-133096000D01*
X159385000Y-133096000D02*
X159004000Y-132715000D01*
X159004000Y-132715000D02*
X159004000Y-126365000D01*
X159004000Y-126365000D02*
X159385000Y-125984000D01*
X159385000Y-125984000D02*
X165735000Y-125984000D01*
X165735000Y-125984000D02*
X166116000Y-126365000D01*
X166116000Y-126365000D02*
X166116000Y-132715000D01*
D17*
X140376020Y-124774960D02*
X140376020Y-133177280D01*
X140274420Y-124774960D02*
X140274420Y-133177280D01*
X140274420Y-133177280D02*
X140475080Y-133177280D01*
X140475080Y-133177280D02*
X140475080Y-124774960D01*
X140475080Y-124774960D02*
X140274420Y-124774960D01*
X140274420Y-125077220D02*
X145275680Y-125077220D01*
X145275680Y-125077220D02*
X145275680Y-132875020D01*
X145275680Y-132875020D02*
X140274420Y-132875020D01*
D18*
X147450000Y-138560000D02*
X144650000Y-138560000D01*
X144650000Y-138560000D02*
X144650000Y-135760000D01*
X144650000Y-135760000D02*
X147450000Y-135760000D01*
X147450000Y-135760000D02*
X147450000Y-138560000D01*
X146850000Y-136660000D02*
G75*
G03X146850000Y-136060000I0J300000D01*
G01*
X146850000Y-136660000D02*
X146850000Y-136060000D01*
X154406600Y-119507000D02*
X154406600Y-123063000D01*
X154406600Y-123063000D02*
X147853400Y-123063000D01*
X147853400Y-123063000D02*
X147853400Y-119507000D01*
X147853400Y-119507000D02*
X154406600Y-119507000D01*
D13*
X184525000Y-126805000D02*
X184525000Y-126105000D01*
X184525000Y-126105000D02*
X185225000Y-126105000D01*
X184625000Y-126705000D02*
X184625000Y-126205000D01*
X184625000Y-126205000D02*
X185125000Y-126205000D01*
X185125000Y-126205000D02*
X185325000Y-126005000D01*
X185325000Y-126005000D02*
X184425000Y-126005000D01*
X184425000Y-126005000D02*
X184425000Y-126905000D01*
X184425000Y-126905000D02*
X184625000Y-126705000D01*
X184825640Y-131404360D02*
X184825640Y-126405640D01*
X184825640Y-126405640D02*
X189824360Y-126405640D01*
X189824360Y-126405640D02*
X189824360Y-131404360D01*
X189824360Y-131404360D02*
X184825640Y-131404360D01*
D19*
X192589000Y-128553000D02*
X192589000Y-129403000D01*
X191189000Y-129403000D02*
X192589000Y-129403000D01*
X191189000Y-128553000D02*
X191189000Y-129403000D01*
X191189000Y-128553000D02*
X192589000Y-128553000D01*
D14*
X157912000Y-137638000D02*
X161112000Y-137638000D01*
X161112000Y-137638000D02*
X161112000Y-140238000D01*
X161112000Y-140238000D02*
X157912000Y-140238000D01*
X157912000Y-140238000D02*
X157912000Y-137638000D01*
X191059000Y-132939000D02*
X194259000Y-132939000D01*
X194259000Y-132939000D02*
X194259000Y-135539000D01*
X194259000Y-135539000D02*
X191059000Y-135539000D01*
X191059000Y-135539000D02*
X191059000Y-132939000D01*
D15*
X185420000Y-116205000D02*
X185420000Y-118745000D01*
X195580000Y-118745000D02*
X182880000Y-118745000D01*
X182880000Y-116205000D02*
X195580000Y-116205000D01*
X182880000Y-118745000D02*
X182880000Y-116205000D01*
X195580000Y-116205000D02*
X195580000Y-118745000D01*
X185420000Y-139065000D02*
X185420000Y-141605000D01*
X195580000Y-141605000D02*
X182880000Y-141605000D01*
X182880000Y-139065000D02*
X195580000Y-139065000D01*
X182880000Y-141605000D02*
X182880000Y-139065000D01*
X195580000Y-139065000D02*
X195580000Y-141605000D01*
D13*
X146850100Y-119750840D02*
X145249900Y-119750840D01*
X145249900Y-119649240D02*
X146850100Y-119649240D01*
X145249900Y-122049540D02*
X145249900Y-119250460D01*
X145249900Y-119250460D02*
X146850100Y-119250460D01*
X146850100Y-119250460D02*
X146850100Y-122049540D01*
X146850100Y-122049540D02*
X145249900Y-122049540D01*
D16*
X194490340Y-136179560D02*
X194490340Y-137378440D01*
X194891660Y-137378440D02*
X194891660Y-136179560D01*
X195790820Y-137378440D02*
X193591180Y-137378440D01*
X193591180Y-137378440D02*
X193591180Y-136179560D01*
X193591180Y-136179560D02*
X195790820Y-136179560D01*
X195790820Y-136179560D02*
X195790820Y-137378440D01*
X193385440Y-120703340D02*
X192186560Y-120703340D01*
X192186560Y-121104660D02*
X193385440Y-121104660D01*
X192186560Y-122003820D02*
X192186560Y-119804180D01*
X192186560Y-119804180D02*
X193385440Y-119804180D01*
X193385440Y-119804180D02*
X193385440Y-122003820D01*
X193385440Y-122003820D02*
X192186560Y-122003820D01*
D15*
X147320000Y-130175000D02*
X149860000Y-127635000D01*
X152400000Y-130175000D02*
X147320000Y-130175000D01*
X147320000Y-127635000D02*
X152400000Y-127635000D01*
X147320000Y-130175000D02*
X147320000Y-127635000D01*
X152400000Y-127635000D02*
X152400000Y-130175000D01*
D11*
X180902428Y-132134428D02*
X180878238Y-132158619D01*
X180805666Y-132182809D01*
X180757285Y-132182809D01*
X180684714Y-132158619D01*
X180636333Y-132110238D01*
X180612142Y-132061857D01*
X180587952Y-131965095D01*
X180587952Y-131892523D01*
X180612142Y-131795761D01*
X180636333Y-131747380D01*
X180684714Y-131699000D01*
X180757285Y-131674809D01*
X180805666Y-131674809D01*
X180878238Y-131699000D01*
X180902428Y-131723190D01*
X181071761Y-131674809D02*
X181386238Y-131674809D01*
X181216904Y-131868333D01*
X181289476Y-131868333D01*
X181337857Y-131892523D01*
X181362047Y-131916714D01*
X181386238Y-131965095D01*
X181386238Y-132086047D01*
X181362047Y-132134428D01*
X181337857Y-132158619D01*
X181289476Y-132182809D01*
X181144333Y-132182809D01*
X181095952Y-132158619D01*
X181071761Y-132134428D01*
X181700714Y-131674809D02*
X181749095Y-131674809D01*
X181797476Y-131699000D01*
X181821666Y-131723190D01*
X181845857Y-131771571D01*
X181870047Y-131868333D01*
X181870047Y-131989285D01*
X181845857Y-132086047D01*
X181821666Y-132134428D01*
X181797476Y-132158619D01*
X181749095Y-132182809D01*
X181700714Y-132182809D01*
X181652333Y-132158619D01*
X181628142Y-132134428D01*
X181603952Y-132086047D01*
X181579761Y-131989285D01*
X181579761Y-131868333D01*
X181603952Y-131771571D01*
X181628142Y-131723190D01*
X181652333Y-131699000D01*
X181700714Y-131674809D01*
X162221333Y-135563428D02*
X162197142Y-135587619D01*
X162124571Y-135611809D01*
X162076190Y-135611809D01*
X162003619Y-135587619D01*
X161955238Y-135539238D01*
X161931047Y-135490857D01*
X161906857Y-135394095D01*
X161906857Y-135321523D01*
X161931047Y-135224761D01*
X161955238Y-135176380D01*
X162003619Y-135128000D01*
X162076190Y-135103809D01*
X162124571Y-135103809D01*
X162197142Y-135128000D01*
X162221333Y-135152190D01*
X162705142Y-135611809D02*
X162414857Y-135611809D01*
X162560000Y-135611809D02*
X162560000Y-135103809D01*
X162511619Y-135176380D01*
X162463238Y-135224761D01*
X162414857Y-135248952D01*
X156645428Y-140800666D02*
X156669619Y-140824857D01*
X156693809Y-140897428D01*
X156693809Y-140945809D01*
X156669619Y-141018380D01*
X156621238Y-141066761D01*
X156572857Y-141090952D01*
X156476095Y-141115142D01*
X156403523Y-141115142D01*
X156306761Y-141090952D01*
X156258380Y-141066761D01*
X156210000Y-141018380D01*
X156185809Y-140945809D01*
X156185809Y-140897428D01*
X156210000Y-140824857D01*
X156234190Y-140800666D01*
X156234190Y-140607142D02*
X156210000Y-140582952D01*
X156185809Y-140534571D01*
X156185809Y-140413619D01*
X156210000Y-140365238D01*
X156234190Y-140341047D01*
X156282571Y-140316857D01*
X156330952Y-140316857D01*
X156403523Y-140341047D01*
X156693809Y-140631333D01*
X156693809Y-140316857D01*
X162741428Y-140800666D02*
X162765619Y-140824857D01*
X162789809Y-140897428D01*
X162789809Y-140945809D01*
X162765619Y-141018380D01*
X162717238Y-141066761D01*
X162668857Y-141090952D01*
X162572095Y-141115142D01*
X162499523Y-141115142D01*
X162402761Y-141090952D01*
X162354380Y-141066761D01*
X162306000Y-141018380D01*
X162281809Y-140945809D01*
X162281809Y-140897428D01*
X162306000Y-140824857D01*
X162330190Y-140800666D01*
X162281809Y-140631333D02*
X162281809Y-140316857D01*
X162475333Y-140486190D01*
X162475333Y-140413619D01*
X162499523Y-140365238D01*
X162523714Y-140341047D01*
X162572095Y-140316857D01*
X162693047Y-140316857D01*
X162741428Y-140341047D01*
X162765619Y-140365238D01*
X162789809Y-140413619D01*
X162789809Y-140558761D01*
X162765619Y-140607142D01*
X162741428Y-140631333D01*
X164519428Y-140800666D02*
X164543619Y-140824857D01*
X164567809Y-140897428D01*
X164567809Y-140945809D01*
X164543619Y-141018380D01*
X164495238Y-141066761D01*
X164446857Y-141090952D01*
X164350095Y-141115142D01*
X164277523Y-141115142D01*
X164180761Y-141090952D01*
X164132380Y-141066761D01*
X164084000Y-141018380D01*
X164059809Y-140945809D01*
X164059809Y-140897428D01*
X164084000Y-140824857D01*
X164108190Y-140800666D01*
X164229142Y-140365238D02*
X164567809Y-140365238D01*
X164035619Y-140486190D02*
X164398476Y-140607142D01*
X164398476Y-140292666D01*
X163110333Y-121822028D02*
X163086142Y-121846219D01*
X163013571Y-121870409D01*
X162965190Y-121870409D01*
X162892619Y-121846219D01*
X162844238Y-121797838D01*
X162820047Y-121749457D01*
X162795857Y-121652695D01*
X162795857Y-121580123D01*
X162820047Y-121483361D01*
X162844238Y-121434980D01*
X162892619Y-121386600D01*
X162965190Y-121362409D01*
X163013571Y-121362409D01*
X163086142Y-121386600D01*
X163110333Y-121410790D01*
X163569952Y-121362409D02*
X163328047Y-121362409D01*
X163303857Y-121604314D01*
X163328047Y-121580123D01*
X163376428Y-121555933D01*
X163497380Y-121555933D01*
X163545761Y-121580123D01*
X163569952Y-121604314D01*
X163594142Y-121652695D01*
X163594142Y-121773647D01*
X163569952Y-121822028D01*
X163545761Y-121846219D01*
X163497380Y-121870409D01*
X163376428Y-121870409D01*
X163328047Y-121846219D01*
X163303857Y-121822028D01*
X159427333Y-121847428D02*
X159403142Y-121871619D01*
X159330571Y-121895809D01*
X159282190Y-121895809D01*
X159209619Y-121871619D01*
X159161238Y-121823238D01*
X159137047Y-121774857D01*
X159112857Y-121678095D01*
X159112857Y-121605523D01*
X159137047Y-121508761D01*
X159161238Y-121460380D01*
X159209619Y-121412000D01*
X159282190Y-121387809D01*
X159330571Y-121387809D01*
X159403142Y-121412000D01*
X159427333Y-121436190D01*
X159862761Y-121387809D02*
X159766000Y-121387809D01*
X159717619Y-121412000D01*
X159693428Y-121436190D01*
X159645047Y-121508761D01*
X159620857Y-121605523D01*
X159620857Y-121799047D01*
X159645047Y-121847428D01*
X159669238Y-121871619D01*
X159717619Y-121895809D01*
X159814380Y-121895809D01*
X159862761Y-121871619D01*
X159886952Y-121847428D01*
X159911142Y-121799047D01*
X159911142Y-121678095D01*
X159886952Y-121629714D01*
X159862761Y-121605523D01*
X159814380Y-121581333D01*
X159717619Y-121581333D01*
X159669238Y-121605523D01*
X159645047Y-121629714D01*
X159620857Y-121678095D01*
X160697333Y-123879428D02*
X160673142Y-123903619D01*
X160600571Y-123927809D01*
X160552190Y-123927809D01*
X160479619Y-123903619D01*
X160431238Y-123855238D01*
X160407047Y-123806857D01*
X160382857Y-123710095D01*
X160382857Y-123637523D01*
X160407047Y-123540761D01*
X160431238Y-123492380D01*
X160479619Y-123444000D01*
X160552190Y-123419809D01*
X160600571Y-123419809D01*
X160673142Y-123444000D01*
X160697333Y-123468190D01*
X160866666Y-123419809D02*
X161205333Y-123419809D01*
X160987619Y-123927809D01*
X155871333Y-135563428D02*
X155847142Y-135587619D01*
X155774571Y-135611809D01*
X155726190Y-135611809D01*
X155653619Y-135587619D01*
X155605238Y-135539238D01*
X155581047Y-135490857D01*
X155556857Y-135394095D01*
X155556857Y-135321523D01*
X155581047Y-135224761D01*
X155605238Y-135176380D01*
X155653619Y-135128000D01*
X155726190Y-135103809D01*
X155774571Y-135103809D01*
X155847142Y-135128000D01*
X155871333Y-135152190D01*
X156161619Y-135321523D02*
X156113238Y-135297333D01*
X156089047Y-135273142D01*
X156064857Y-135224761D01*
X156064857Y-135200571D01*
X156089047Y-135152190D01*
X156113238Y-135128000D01*
X156161619Y-135103809D01*
X156258380Y-135103809D01*
X156306761Y-135128000D01*
X156330952Y-135152190D01*
X156355142Y-135200571D01*
X156355142Y-135224761D01*
X156330952Y-135273142D01*
X156306761Y-135297333D01*
X156258380Y-135321523D01*
X156161619Y-135321523D01*
X156113238Y-135345714D01*
X156089047Y-135369904D01*
X156064857Y-135418285D01*
X156064857Y-135515047D01*
X156089047Y-135563428D01*
X156113238Y-135587619D01*
X156161619Y-135611809D01*
X156258380Y-135611809D01*
X156306761Y-135587619D01*
X156330952Y-135563428D01*
X156355142Y-135515047D01*
X156355142Y-135418285D01*
X156330952Y-135369904D01*
X156306761Y-135345714D01*
X156258380Y-135321523D01*
X154867428Y-140800666D02*
X154891619Y-140824857D01*
X154915809Y-140897428D01*
X154915809Y-140945809D01*
X154891619Y-141018380D01*
X154843238Y-141066761D01*
X154794857Y-141090952D01*
X154698095Y-141115142D01*
X154625523Y-141115142D01*
X154528761Y-141090952D01*
X154480380Y-141066761D01*
X154432000Y-141018380D01*
X154407809Y-140945809D01*
X154407809Y-140897428D01*
X154432000Y-140824857D01*
X154456190Y-140800666D01*
X154915809Y-140558761D02*
X154915809Y-140462000D01*
X154891619Y-140413619D01*
X154867428Y-140389428D01*
X154794857Y-140341047D01*
X154698095Y-140316857D01*
X154504571Y-140316857D01*
X154456190Y-140341047D01*
X154432000Y-140365238D01*
X154407809Y-140413619D01*
X154407809Y-140510380D01*
X154432000Y-140558761D01*
X154456190Y-140582952D01*
X154504571Y-140607142D01*
X154625523Y-140607142D01*
X154673904Y-140582952D01*
X154698095Y-140558761D01*
X154722285Y-140510380D01*
X154722285Y-140413619D01*
X154698095Y-140365238D01*
X154673904Y-140341047D01*
X154625523Y-140316857D01*
X156645428Y-122863428D02*
X156621238Y-122887619D01*
X156548666Y-122911809D01*
X156500285Y-122911809D01*
X156427714Y-122887619D01*
X156379333Y-122839238D01*
X156355142Y-122790857D01*
X156330952Y-122694095D01*
X156330952Y-122621523D01*
X156355142Y-122524761D01*
X156379333Y-122476380D01*
X156427714Y-122428000D01*
X156500285Y-122403809D01*
X156548666Y-122403809D01*
X156621238Y-122428000D01*
X156645428Y-122452190D01*
X157129238Y-122911809D02*
X156838952Y-122911809D01*
X156984095Y-122911809D02*
X156984095Y-122403809D01*
X156935714Y-122476380D01*
X156887333Y-122524761D01*
X156838952Y-122548952D01*
X157443714Y-122403809D02*
X157492095Y-122403809D01*
X157540476Y-122428000D01*
X157564666Y-122452190D01*
X157588857Y-122500571D01*
X157613047Y-122597333D01*
X157613047Y-122718285D01*
X157588857Y-122815047D01*
X157564666Y-122863428D01*
X157540476Y-122887619D01*
X157492095Y-122911809D01*
X157443714Y-122911809D01*
X157395333Y-122887619D01*
X157371142Y-122863428D01*
X157346952Y-122815047D01*
X157322761Y-122718285D01*
X157322761Y-122597333D01*
X157346952Y-122500571D01*
X157371142Y-122452190D01*
X157395333Y-122428000D01*
X157443714Y-122403809D01*
X167567428Y-125657428D02*
X167543238Y-125681619D01*
X167470666Y-125705809D01*
X167422285Y-125705809D01*
X167349714Y-125681619D01*
X167301333Y-125633238D01*
X167277142Y-125584857D01*
X167252952Y-125488095D01*
X167252952Y-125415523D01*
X167277142Y-125318761D01*
X167301333Y-125270380D01*
X167349714Y-125222000D01*
X167422285Y-125197809D01*
X167470666Y-125197809D01*
X167543238Y-125222000D01*
X167567428Y-125246190D01*
X168051238Y-125705809D02*
X167760952Y-125705809D01*
X167906095Y-125705809D02*
X167906095Y-125197809D01*
X167857714Y-125270380D01*
X167809333Y-125318761D01*
X167760952Y-125342952D01*
X168535047Y-125705809D02*
X168244761Y-125705809D01*
X168389904Y-125705809D02*
X168389904Y-125197809D01*
X168341523Y-125270380D01*
X168293142Y-125318761D01*
X168244761Y-125342952D01*
X169091428Y-121085428D02*
X169067238Y-121109619D01*
X168994666Y-121133809D01*
X168946285Y-121133809D01*
X168873714Y-121109619D01*
X168825333Y-121061238D01*
X168801142Y-121012857D01*
X168776952Y-120916095D01*
X168776952Y-120843523D01*
X168801142Y-120746761D01*
X168825333Y-120698380D01*
X168873714Y-120650000D01*
X168946285Y-120625809D01*
X168994666Y-120625809D01*
X169067238Y-120650000D01*
X169091428Y-120674190D01*
X169575238Y-121133809D02*
X169284952Y-121133809D01*
X169430095Y-121133809D02*
X169430095Y-120625809D01*
X169381714Y-120698380D01*
X169333333Y-120746761D01*
X169284952Y-120770952D01*
X169768761Y-120674190D02*
X169792952Y-120650000D01*
X169841333Y-120625809D01*
X169962285Y-120625809D01*
X170010666Y-120650000D01*
X170034857Y-120674190D01*
X170059047Y-120722571D01*
X170059047Y-120770952D01*
X170034857Y-120843523D01*
X169744571Y-121133809D01*
X170059047Y-121133809D01*
X149533428Y-140389428D02*
X149509238Y-140413619D01*
X149436666Y-140437809D01*
X149388285Y-140437809D01*
X149315714Y-140413619D01*
X149267333Y-140365238D01*
X149243142Y-140316857D01*
X149218952Y-140220095D01*
X149218952Y-140147523D01*
X149243142Y-140050761D01*
X149267333Y-140002380D01*
X149315714Y-139954000D01*
X149388285Y-139929809D01*
X149436666Y-139929809D01*
X149509238Y-139954000D01*
X149533428Y-139978190D01*
X150017238Y-140437809D02*
X149726952Y-140437809D01*
X149872095Y-140437809D02*
X149872095Y-139929809D01*
X149823714Y-140002380D01*
X149775333Y-140050761D01*
X149726952Y-140074952D01*
X150186571Y-139929809D02*
X150501047Y-139929809D01*
X150331714Y-140123333D01*
X150404285Y-140123333D01*
X150452666Y-140147523D01*
X150476857Y-140171714D01*
X150501047Y-140220095D01*
X150501047Y-140341047D01*
X150476857Y-140389428D01*
X150452666Y-140413619D01*
X150404285Y-140437809D01*
X150259142Y-140437809D01*
X150210761Y-140413619D01*
X150186571Y-140389428D01*
X144961428Y-123008571D02*
X144985619Y-123032761D01*
X145009809Y-123105333D01*
X145009809Y-123153714D01*
X144985619Y-123226285D01*
X144937238Y-123274666D01*
X144888857Y-123298857D01*
X144792095Y-123323047D01*
X144719523Y-123323047D01*
X144622761Y-123298857D01*
X144574380Y-123274666D01*
X144526000Y-123226285D01*
X144501809Y-123153714D01*
X144501809Y-123105333D01*
X144526000Y-123032761D01*
X144550190Y-123008571D01*
X145009809Y-122524761D02*
X145009809Y-122815047D01*
X145009809Y-122669904D02*
X144501809Y-122669904D01*
X144574380Y-122718285D01*
X144622761Y-122766666D01*
X144646952Y-122815047D01*
X144671142Y-122089333D02*
X145009809Y-122089333D01*
X144477619Y-122210285D02*
X144840476Y-122331238D01*
X144840476Y-122016761D01*
X154359428Y-117928571D02*
X154383619Y-117952761D01*
X154407809Y-118025333D01*
X154407809Y-118073714D01*
X154383619Y-118146285D01*
X154335238Y-118194666D01*
X154286857Y-118218857D01*
X154190095Y-118243047D01*
X154117523Y-118243047D01*
X154020761Y-118218857D01*
X153972380Y-118194666D01*
X153924000Y-118146285D01*
X153899809Y-118073714D01*
X153899809Y-118025333D01*
X153924000Y-117952761D01*
X153948190Y-117928571D01*
X154407809Y-117444761D02*
X154407809Y-117735047D01*
X154407809Y-117589904D02*
X153899809Y-117589904D01*
X153972380Y-117638285D01*
X154020761Y-117686666D01*
X154044952Y-117735047D01*
X153899809Y-116985142D02*
X153899809Y-117227047D01*
X154141714Y-117251238D01*
X154117523Y-117227047D01*
X154093333Y-117178666D01*
X154093333Y-117057714D01*
X154117523Y-117009333D01*
X154141714Y-116985142D01*
X154190095Y-116960952D01*
X154311047Y-116960952D01*
X154359428Y-116985142D01*
X154383619Y-117009333D01*
X154407809Y-117057714D01*
X154407809Y-117178666D01*
X154383619Y-117227047D01*
X154359428Y-117251238D01*
X177219428Y-121339428D02*
X177195238Y-121363619D01*
X177122666Y-121387809D01*
X177074285Y-121387809D01*
X177001714Y-121363619D01*
X176953333Y-121315238D01*
X176929142Y-121266857D01*
X176904952Y-121170095D01*
X176904952Y-121097523D01*
X176929142Y-121000761D01*
X176953333Y-120952380D01*
X177001714Y-120904000D01*
X177074285Y-120879809D01*
X177122666Y-120879809D01*
X177195238Y-120904000D01*
X177219428Y-120928190D01*
X177703238Y-121387809D02*
X177412952Y-121387809D01*
X177558095Y-121387809D02*
X177558095Y-120879809D01*
X177509714Y-120952380D01*
X177461333Y-121000761D01*
X177412952Y-121024952D01*
X178138666Y-120879809D02*
X178041904Y-120879809D01*
X177993523Y-120904000D01*
X177969333Y-120928190D01*
X177920952Y-121000761D01*
X177896761Y-121097523D01*
X177896761Y-121291047D01*
X177920952Y-121339428D01*
X177945142Y-121363619D01*
X177993523Y-121387809D01*
X178090285Y-121387809D01*
X178138666Y-121363619D01*
X178162857Y-121339428D01*
X178187047Y-121291047D01*
X178187047Y-121170095D01*
X178162857Y-121121714D01*
X178138666Y-121097523D01*
X178090285Y-121073333D01*
X177993523Y-121073333D01*
X177945142Y-121097523D01*
X177920952Y-121121714D01*
X177896761Y-121170095D01*
X178235428Y-117275428D02*
X178211238Y-117299619D01*
X178138666Y-117323809D01*
X178090285Y-117323809D01*
X178017714Y-117299619D01*
X177969333Y-117251238D01*
X177945142Y-117202857D01*
X177920952Y-117106095D01*
X177920952Y-117033523D01*
X177945142Y-116936761D01*
X177969333Y-116888380D01*
X178017714Y-116840000D01*
X178090285Y-116815809D01*
X178138666Y-116815809D01*
X178211238Y-116840000D01*
X178235428Y-116864190D01*
X178719238Y-117323809D02*
X178428952Y-117323809D01*
X178574095Y-117323809D02*
X178574095Y-116815809D01*
X178525714Y-116888380D01*
X178477333Y-116936761D01*
X178428952Y-116960952D01*
X178888571Y-116815809D02*
X179227238Y-116815809D01*
X179009523Y-117323809D01*
X169091428Y-132406571D02*
X169115619Y-132430761D01*
X169139809Y-132503333D01*
X169139809Y-132551714D01*
X169115619Y-132624285D01*
X169067238Y-132672666D01*
X169018857Y-132696857D01*
X168922095Y-132721047D01*
X168849523Y-132721047D01*
X168752761Y-132696857D01*
X168704380Y-132672666D01*
X168656000Y-132624285D01*
X168631809Y-132551714D01*
X168631809Y-132503333D01*
X168656000Y-132430761D01*
X168680190Y-132406571D01*
X169139809Y-131922761D02*
X169139809Y-132213047D01*
X169139809Y-132067904D02*
X168631809Y-132067904D01*
X168704380Y-132116285D01*
X168752761Y-132164666D01*
X168776952Y-132213047D01*
X168849523Y-131632476D02*
X168825333Y-131680857D01*
X168801142Y-131705047D01*
X168752761Y-131729238D01*
X168728571Y-131729238D01*
X168680190Y-131705047D01*
X168656000Y-131680857D01*
X168631809Y-131632476D01*
X168631809Y-131535714D01*
X168656000Y-131487333D01*
X168680190Y-131463142D01*
X168728571Y-131438952D01*
X168752761Y-131438952D01*
X168801142Y-131463142D01*
X168825333Y-131487333D01*
X168849523Y-131535714D01*
X168849523Y-131632476D01*
X168873714Y-131680857D01*
X168897904Y-131705047D01*
X168946285Y-131729238D01*
X169043047Y-131729238D01*
X169091428Y-131705047D01*
X169115619Y-131680857D01*
X169139809Y-131632476D01*
X169139809Y-131535714D01*
X169115619Y-131487333D01*
X169091428Y-131463142D01*
X169043047Y-131438952D01*
X168946285Y-131438952D01*
X168897904Y-131463142D01*
X168873714Y-131487333D01*
X168849523Y-131535714D01*
X169091428Y-140026571D02*
X169115619Y-140050761D01*
X169139809Y-140123333D01*
X169139809Y-140171714D01*
X169115619Y-140244285D01*
X169067238Y-140292666D01*
X169018857Y-140316857D01*
X168922095Y-140341047D01*
X168849523Y-140341047D01*
X168752761Y-140316857D01*
X168704380Y-140292666D01*
X168656000Y-140244285D01*
X168631809Y-140171714D01*
X168631809Y-140123333D01*
X168656000Y-140050761D01*
X168680190Y-140026571D01*
X169139809Y-139542761D02*
X169139809Y-139833047D01*
X169139809Y-139687904D02*
X168631809Y-139687904D01*
X168704380Y-139736285D01*
X168752761Y-139784666D01*
X168776952Y-139833047D01*
X169139809Y-139300857D02*
X169139809Y-139204095D01*
X169115619Y-139155714D01*
X169091428Y-139131523D01*
X169018857Y-139083142D01*
X168922095Y-139058952D01*
X168728571Y-139058952D01*
X168680190Y-139083142D01*
X168656000Y-139107333D01*
X168631809Y-139155714D01*
X168631809Y-139252476D01*
X168656000Y-139300857D01*
X168680190Y-139325047D01*
X168728571Y-139349238D01*
X168849523Y-139349238D01*
X168897904Y-139325047D01*
X168922095Y-139300857D01*
X168946285Y-139252476D01*
X168946285Y-139155714D01*
X168922095Y-139107333D01*
X168897904Y-139083142D01*
X168849523Y-139058952D01*
X183569428Y-136851571D02*
X183593619Y-136875761D01*
X183617809Y-136948333D01*
X183617809Y-136996714D01*
X183593619Y-137069285D01*
X183545238Y-137117666D01*
X183496857Y-137141857D01*
X183400095Y-137166047D01*
X183327523Y-137166047D01*
X183230761Y-137141857D01*
X183182380Y-137117666D01*
X183134000Y-137069285D01*
X183109809Y-136996714D01*
X183109809Y-136948333D01*
X183134000Y-136875761D01*
X183158190Y-136851571D01*
X183158190Y-136658047D02*
X183134000Y-136633857D01*
X183109809Y-136585476D01*
X183109809Y-136464523D01*
X183134000Y-136416142D01*
X183158190Y-136391952D01*
X183206571Y-136367761D01*
X183254952Y-136367761D01*
X183327523Y-136391952D01*
X183617809Y-136682238D01*
X183617809Y-136367761D01*
X183109809Y-136053285D02*
X183109809Y-136004904D01*
X183134000Y-135956523D01*
X183158190Y-135932333D01*
X183206571Y-135908142D01*
X183303333Y-135883952D01*
X183424285Y-135883952D01*
X183521047Y-135908142D01*
X183569428Y-135932333D01*
X183593619Y-135956523D01*
X183617809Y-136004904D01*
X183617809Y-136053285D01*
X183593619Y-136101666D01*
X183569428Y-136125857D01*
X183521047Y-136150047D01*
X183424285Y-136174238D01*
X183303333Y-136174238D01*
X183206571Y-136150047D01*
X183158190Y-136125857D01*
X183134000Y-136101666D01*
X183109809Y-136053285D01*
X182807428Y-128215571D02*
X182831619Y-128239761D01*
X182855809Y-128312333D01*
X182855809Y-128360714D01*
X182831619Y-128433285D01*
X182783238Y-128481666D01*
X182734857Y-128505857D01*
X182638095Y-128530047D01*
X182565523Y-128530047D01*
X182468761Y-128505857D01*
X182420380Y-128481666D01*
X182372000Y-128433285D01*
X182347809Y-128360714D01*
X182347809Y-128312333D01*
X182372000Y-128239761D01*
X182396190Y-128215571D01*
X182396190Y-128022047D02*
X182372000Y-127997857D01*
X182347809Y-127949476D01*
X182347809Y-127828523D01*
X182372000Y-127780142D01*
X182396190Y-127755952D01*
X182444571Y-127731761D01*
X182492952Y-127731761D01*
X182565523Y-127755952D01*
X182855809Y-128046238D01*
X182855809Y-127731761D01*
X182855809Y-127247952D02*
X182855809Y-127538238D01*
X182855809Y-127393095D02*
X182347809Y-127393095D01*
X182420380Y-127441476D01*
X182468761Y-127489857D01*
X182492952Y-127538238D01*
X186109428Y-136978571D02*
X186133619Y-137002761D01*
X186157809Y-137075333D01*
X186157809Y-137123714D01*
X186133619Y-137196285D01*
X186085238Y-137244666D01*
X186036857Y-137268857D01*
X185940095Y-137293047D01*
X185867523Y-137293047D01*
X185770761Y-137268857D01*
X185722380Y-137244666D01*
X185674000Y-137196285D01*
X185649809Y-137123714D01*
X185649809Y-137075333D01*
X185674000Y-137002761D01*
X185698190Y-136978571D01*
X185698190Y-136785047D02*
X185674000Y-136760857D01*
X185649809Y-136712476D01*
X185649809Y-136591523D01*
X185674000Y-136543142D01*
X185698190Y-136518952D01*
X185746571Y-136494761D01*
X185794952Y-136494761D01*
X185867523Y-136518952D01*
X186157809Y-136809238D01*
X186157809Y-136494761D01*
X185698190Y-136301238D02*
X185674000Y-136277047D01*
X185649809Y-136228666D01*
X185649809Y-136107714D01*
X185674000Y-136059333D01*
X185698190Y-136035142D01*
X185746571Y-136010952D01*
X185794952Y-136010952D01*
X185867523Y-136035142D01*
X186157809Y-136325428D01*
X186157809Y-136010952D01*
X182299428Y-120323428D02*
X182275238Y-120347619D01*
X182202666Y-120371809D01*
X182154285Y-120371809D01*
X182081714Y-120347619D01*
X182033333Y-120299238D01*
X182009142Y-120250857D01*
X181984952Y-120154095D01*
X181984952Y-120081523D01*
X182009142Y-119984761D01*
X182033333Y-119936380D01*
X182081714Y-119888000D01*
X182154285Y-119863809D01*
X182202666Y-119863809D01*
X182275238Y-119888000D01*
X182299428Y-119912190D01*
X182492952Y-119912190D02*
X182517142Y-119888000D01*
X182565523Y-119863809D01*
X182686476Y-119863809D01*
X182734857Y-119888000D01*
X182759047Y-119912190D01*
X182783238Y-119960571D01*
X182783238Y-120008952D01*
X182759047Y-120081523D01*
X182468761Y-120371809D01*
X182783238Y-120371809D01*
X182952571Y-119863809D02*
X183267047Y-119863809D01*
X183097714Y-120057333D01*
X183170285Y-120057333D01*
X183218666Y-120081523D01*
X183242857Y-120105714D01*
X183267047Y-120154095D01*
X183267047Y-120275047D01*
X183242857Y-120323428D01*
X183218666Y-120347619D01*
X183170285Y-120371809D01*
X183025142Y-120371809D01*
X182976761Y-120347619D01*
X182952571Y-120323428D01*
X184077428Y-125040571D02*
X184101619Y-125064761D01*
X184125809Y-125137333D01*
X184125809Y-125185714D01*
X184101619Y-125258285D01*
X184053238Y-125306666D01*
X184004857Y-125330857D01*
X183908095Y-125355047D01*
X183835523Y-125355047D01*
X183738761Y-125330857D01*
X183690380Y-125306666D01*
X183642000Y-125258285D01*
X183617809Y-125185714D01*
X183617809Y-125137333D01*
X183642000Y-125064761D01*
X183666190Y-125040571D01*
X183666190Y-124847047D02*
X183642000Y-124822857D01*
X183617809Y-124774476D01*
X183617809Y-124653523D01*
X183642000Y-124605142D01*
X183666190Y-124580952D01*
X183714571Y-124556761D01*
X183762952Y-124556761D01*
X183835523Y-124580952D01*
X184125809Y-124871238D01*
X184125809Y-124556761D01*
X183787142Y-124121333D02*
X184125809Y-124121333D01*
X183593619Y-124242285D02*
X183956476Y-124363238D01*
X183956476Y-124048761D01*
X188014428Y-137105571D02*
X188038619Y-137129761D01*
X188062809Y-137202333D01*
X188062809Y-137250714D01*
X188038619Y-137323285D01*
X187990238Y-137371666D01*
X187941857Y-137395857D01*
X187845095Y-137420047D01*
X187772523Y-137420047D01*
X187675761Y-137395857D01*
X187627380Y-137371666D01*
X187579000Y-137323285D01*
X187554809Y-137250714D01*
X187554809Y-137202333D01*
X187579000Y-137129761D01*
X187603190Y-137105571D01*
X187603190Y-136912047D02*
X187579000Y-136887857D01*
X187554809Y-136839476D01*
X187554809Y-136718523D01*
X187579000Y-136670142D01*
X187603190Y-136645952D01*
X187651571Y-136621761D01*
X187699952Y-136621761D01*
X187772523Y-136645952D01*
X188062809Y-136936238D01*
X188062809Y-136621761D01*
X187554809Y-136162142D02*
X187554809Y-136404047D01*
X187796714Y-136428238D01*
X187772523Y-136404047D01*
X187748333Y-136355666D01*
X187748333Y-136234714D01*
X187772523Y-136186333D01*
X187796714Y-136162142D01*
X187845095Y-136137952D01*
X187966047Y-136137952D01*
X188014428Y-136162142D01*
X188038619Y-136186333D01*
X188062809Y-136234714D01*
X188062809Y-136355666D01*
X188038619Y-136404047D01*
X188014428Y-136428238D01*
X185601428Y-125040571D02*
X185625619Y-125064761D01*
X185649809Y-125137333D01*
X185649809Y-125185714D01*
X185625619Y-125258285D01*
X185577238Y-125306666D01*
X185528857Y-125330857D01*
X185432095Y-125355047D01*
X185359523Y-125355047D01*
X185262761Y-125330857D01*
X185214380Y-125306666D01*
X185166000Y-125258285D01*
X185141809Y-125185714D01*
X185141809Y-125137333D01*
X185166000Y-125064761D01*
X185190190Y-125040571D01*
X185190190Y-124847047D02*
X185166000Y-124822857D01*
X185141809Y-124774476D01*
X185141809Y-124653523D01*
X185166000Y-124605142D01*
X185190190Y-124580952D01*
X185238571Y-124556761D01*
X185286952Y-124556761D01*
X185359523Y-124580952D01*
X185649809Y-124871238D01*
X185649809Y-124556761D01*
X185141809Y-124121333D02*
X185141809Y-124218095D01*
X185166000Y-124266476D01*
X185190190Y-124290666D01*
X185262761Y-124339047D01*
X185359523Y-124363238D01*
X185553047Y-124363238D01*
X185601428Y-124339047D01*
X185625619Y-124314857D01*
X185649809Y-124266476D01*
X185649809Y-124169714D01*
X185625619Y-124121333D01*
X185601428Y-124097142D01*
X185553047Y-124072952D01*
X185432095Y-124072952D01*
X185383714Y-124097142D01*
X185359523Y-124121333D01*
X185335333Y-124169714D01*
X185335333Y-124266476D01*
X185359523Y-124314857D01*
X185383714Y-124339047D01*
X185432095Y-124363238D01*
X187887428Y-121339428D02*
X187863238Y-121363619D01*
X187790666Y-121387809D01*
X187742285Y-121387809D01*
X187669714Y-121363619D01*
X187621333Y-121315238D01*
X187597142Y-121266857D01*
X187572952Y-121170095D01*
X187572952Y-121097523D01*
X187597142Y-121000761D01*
X187621333Y-120952380D01*
X187669714Y-120904000D01*
X187742285Y-120879809D01*
X187790666Y-120879809D01*
X187863238Y-120904000D01*
X187887428Y-120928190D01*
X188080952Y-120928190D02*
X188105142Y-120904000D01*
X188153523Y-120879809D01*
X188274476Y-120879809D01*
X188322857Y-120904000D01*
X188347047Y-120928190D01*
X188371238Y-120976571D01*
X188371238Y-121024952D01*
X188347047Y-121097523D01*
X188056761Y-121387809D01*
X188371238Y-121387809D01*
X188540571Y-120879809D02*
X188879238Y-120879809D01*
X188661523Y-121387809D01*
X186617428Y-125149428D02*
X186593238Y-125173619D01*
X186520666Y-125197809D01*
X186472285Y-125197809D01*
X186399714Y-125173619D01*
X186351333Y-125125238D01*
X186327142Y-125076857D01*
X186302952Y-124980095D01*
X186302952Y-124907523D01*
X186327142Y-124810761D01*
X186351333Y-124762380D01*
X186399714Y-124714000D01*
X186472285Y-124689809D01*
X186520666Y-124689809D01*
X186593238Y-124714000D01*
X186617428Y-124738190D01*
X186810952Y-124738190D02*
X186835142Y-124714000D01*
X186883523Y-124689809D01*
X187004476Y-124689809D01*
X187052857Y-124714000D01*
X187077047Y-124738190D01*
X187101238Y-124786571D01*
X187101238Y-124834952D01*
X187077047Y-124907523D01*
X186786761Y-125197809D01*
X187101238Y-125197809D01*
X187391523Y-124907523D02*
X187343142Y-124883333D01*
X187318952Y-124859142D01*
X187294761Y-124810761D01*
X187294761Y-124786571D01*
X187318952Y-124738190D01*
X187343142Y-124714000D01*
X187391523Y-124689809D01*
X187488285Y-124689809D01*
X187536666Y-124714000D01*
X187560857Y-124738190D01*
X187585047Y-124786571D01*
X187585047Y-124810761D01*
X187560857Y-124859142D01*
X187536666Y-124883333D01*
X187488285Y-124907523D01*
X187391523Y-124907523D01*
X187343142Y-124931714D01*
X187318952Y-124955904D01*
X187294761Y-125004285D01*
X187294761Y-125101047D01*
X187318952Y-125149428D01*
X187343142Y-125173619D01*
X187391523Y-125197809D01*
X187488285Y-125197809D01*
X187536666Y-125173619D01*
X187560857Y-125149428D01*
X187585047Y-125101047D01*
X187585047Y-125004285D01*
X187560857Y-124955904D01*
X187536666Y-124931714D01*
X187488285Y-124907523D01*
X181410428Y-134565571D02*
X181434619Y-134589761D01*
X181458809Y-134662333D01*
X181458809Y-134710714D01*
X181434619Y-134783285D01*
X181386238Y-134831666D01*
X181337857Y-134855857D01*
X181241095Y-134880047D01*
X181168523Y-134880047D01*
X181071761Y-134855857D01*
X181023380Y-134831666D01*
X180975000Y-134783285D01*
X180950809Y-134710714D01*
X180950809Y-134662333D01*
X180975000Y-134589761D01*
X180999190Y-134565571D01*
X180999190Y-134372047D02*
X180975000Y-134347857D01*
X180950809Y-134299476D01*
X180950809Y-134178523D01*
X180975000Y-134130142D01*
X180999190Y-134105952D01*
X181047571Y-134081761D01*
X181095952Y-134081761D01*
X181168523Y-134105952D01*
X181458809Y-134396238D01*
X181458809Y-134081761D01*
X181458809Y-133839857D02*
X181458809Y-133743095D01*
X181434619Y-133694714D01*
X181410428Y-133670523D01*
X181337857Y-133622142D01*
X181241095Y-133597952D01*
X181047571Y-133597952D01*
X180999190Y-133622142D01*
X180975000Y-133646333D01*
X180950809Y-133694714D01*
X180950809Y-133791476D01*
X180975000Y-133839857D01*
X180999190Y-133864047D01*
X181047571Y-133888238D01*
X181168523Y-133888238D01*
X181216904Y-133864047D01*
X181241095Y-133839857D01*
X181265285Y-133791476D01*
X181265285Y-133694714D01*
X181241095Y-133646333D01*
X181216904Y-133622142D01*
X181168523Y-133597952D01*
X195779571Y-122863428D02*
X195755380Y-122839238D01*
X195731190Y-122766666D01*
X195731190Y-122718285D01*
X195755380Y-122645714D01*
X195803761Y-122597333D01*
X195852142Y-122573142D01*
X195948904Y-122548952D01*
X196021476Y-122548952D01*
X196118238Y-122573142D01*
X196166619Y-122597333D01*
X196215000Y-122645714D01*
X196239190Y-122718285D01*
X196239190Y-122766666D01*
X196215000Y-122839238D01*
X196190809Y-122863428D01*
X196239190Y-123032761D02*
X196239190Y-123347238D01*
X196045666Y-123177904D01*
X196045666Y-123250476D01*
X196021476Y-123298857D01*
X195997285Y-123323047D01*
X195948904Y-123347238D01*
X195827952Y-123347238D01*
X195779571Y-123323047D01*
X195755380Y-123298857D01*
X195731190Y-123250476D01*
X195731190Y-123105333D01*
X195755380Y-123056952D01*
X195779571Y-123032761D01*
X195731190Y-123831047D02*
X195731190Y-123540761D01*
X195731190Y-123685904D02*
X196239190Y-123685904D01*
X196166619Y-123637523D01*
X196118238Y-123589142D01*
X196094047Y-123540761D01*
X188903428Y-123244428D02*
X188879238Y-123268619D01*
X188806666Y-123292809D01*
X188758285Y-123292809D01*
X188685714Y-123268619D01*
X188637333Y-123220238D01*
X188613142Y-123171857D01*
X188588952Y-123075095D01*
X188588952Y-123002523D01*
X188613142Y-122905761D01*
X188637333Y-122857380D01*
X188685714Y-122809000D01*
X188758285Y-122784809D01*
X188806666Y-122784809D01*
X188879238Y-122809000D01*
X188903428Y-122833190D01*
X189072761Y-122784809D02*
X189387238Y-122784809D01*
X189217904Y-122978333D01*
X189290476Y-122978333D01*
X189338857Y-123002523D01*
X189363047Y-123026714D01*
X189387238Y-123075095D01*
X189387238Y-123196047D01*
X189363047Y-123244428D01*
X189338857Y-123268619D01*
X189290476Y-123292809D01*
X189145333Y-123292809D01*
X189096952Y-123268619D01*
X189072761Y-123244428D01*
X189580761Y-122833190D02*
X189604952Y-122809000D01*
X189653333Y-122784809D01*
X189774285Y-122784809D01*
X189822666Y-122809000D01*
X189846857Y-122833190D01*
X189871047Y-122881571D01*
X189871047Y-122929952D01*
X189846857Y-123002523D01*
X189556571Y-123292809D01*
X189871047Y-123292809D01*
X195126428Y-134692571D02*
X195150619Y-134716761D01*
X195174809Y-134789333D01*
X195174809Y-134837714D01*
X195150619Y-134910285D01*
X195102238Y-134958666D01*
X195053857Y-134982857D01*
X194957095Y-135007047D01*
X194884523Y-135007047D01*
X194787761Y-134982857D01*
X194739380Y-134958666D01*
X194691000Y-134910285D01*
X194666809Y-134837714D01*
X194666809Y-134789333D01*
X194691000Y-134716761D01*
X194715190Y-134692571D01*
X194666809Y-134523238D02*
X194666809Y-134208761D01*
X194860333Y-134378095D01*
X194860333Y-134305523D01*
X194884523Y-134257142D01*
X194908714Y-134232952D01*
X194957095Y-134208761D01*
X195078047Y-134208761D01*
X195126428Y-134232952D01*
X195150619Y-134257142D01*
X195174809Y-134305523D01*
X195174809Y-134450666D01*
X195150619Y-134499047D01*
X195126428Y-134523238D01*
X194666809Y-134039428D02*
X194666809Y-133724952D01*
X194860333Y-133894285D01*
X194860333Y-133821714D01*
X194884523Y-133773333D01*
X194908714Y-133749142D01*
X194957095Y-133724952D01*
X195078047Y-133724952D01*
X195126428Y-133749142D01*
X195150619Y-133773333D01*
X195174809Y-133821714D01*
X195174809Y-133966857D01*
X195150619Y-134015238D01*
X195126428Y-134039428D01*
X190046428Y-136597571D02*
X190070619Y-136621761D01*
X190094809Y-136694333D01*
X190094809Y-136742714D01*
X190070619Y-136815285D01*
X190022238Y-136863666D01*
X189973857Y-136887857D01*
X189877095Y-136912047D01*
X189804523Y-136912047D01*
X189707761Y-136887857D01*
X189659380Y-136863666D01*
X189611000Y-136815285D01*
X189586809Y-136742714D01*
X189586809Y-136694333D01*
X189611000Y-136621761D01*
X189635190Y-136597571D01*
X189586809Y-136428238D02*
X189586809Y-136113761D01*
X189780333Y-136283095D01*
X189780333Y-136210523D01*
X189804523Y-136162142D01*
X189828714Y-136137952D01*
X189877095Y-136113761D01*
X189998047Y-136113761D01*
X190046428Y-136137952D01*
X190070619Y-136162142D01*
X190094809Y-136210523D01*
X190094809Y-136355666D01*
X190070619Y-136404047D01*
X190046428Y-136428238D01*
X189756142Y-135678333D02*
X190094809Y-135678333D01*
X189562619Y-135799285D02*
X189925476Y-135920238D01*
X189925476Y-135605761D01*
X141103047Y-117831809D02*
X141103047Y-117323809D01*
X141224000Y-117323809D01*
X141296571Y-117348000D01*
X141344952Y-117396380D01*
X141369142Y-117444761D01*
X141393333Y-117541523D01*
X141393333Y-117614095D01*
X141369142Y-117710857D01*
X141344952Y-117759238D01*
X141296571Y-117807619D01*
X141224000Y-117831809D01*
X141103047Y-117831809D01*
X141877142Y-117831809D02*
X141586857Y-117831809D01*
X141732000Y-117831809D02*
X141732000Y-117323809D01*
X141683619Y-117396380D01*
X141635238Y-117444761D01*
X141586857Y-117468952D01*
X141357047Y-140437809D02*
X141357047Y-139929809D01*
X141478000Y-139929809D01*
X141550571Y-139954000D01*
X141598952Y-140002380D01*
X141623142Y-140050761D01*
X141647333Y-140147523D01*
X141647333Y-140220095D01*
X141623142Y-140316857D01*
X141598952Y-140365238D01*
X141550571Y-140413619D01*
X141478000Y-140437809D01*
X141357047Y-140437809D01*
X141840857Y-139978190D02*
X141865047Y-139954000D01*
X141913428Y-139929809D01*
X142034380Y-139929809D01*
X142082761Y-139954000D01*
X142106952Y-139978190D01*
X142131142Y-140026571D01*
X142131142Y-140074952D01*
X142106952Y-140147523D01*
X141816666Y-140437809D01*
X142131142Y-140437809D01*
X202063047Y-139929809D02*
X202063047Y-139421809D01*
X202184000Y-139421809D01*
X202256571Y-139446000D01*
X202304952Y-139494380D01*
X202329142Y-139542761D01*
X202353333Y-139639523D01*
X202353333Y-139712095D01*
X202329142Y-139808857D01*
X202304952Y-139857238D01*
X202256571Y-139905619D01*
X202184000Y-139929809D01*
X202063047Y-139929809D01*
X202522666Y-139421809D02*
X202837142Y-139421809D01*
X202667809Y-139615333D01*
X202740380Y-139615333D01*
X202788761Y-139639523D01*
X202812952Y-139663714D01*
X202837142Y-139712095D01*
X202837142Y-139833047D01*
X202812952Y-139881428D01*
X202788761Y-139905619D01*
X202740380Y-139929809D01*
X202595238Y-139929809D01*
X202546857Y-139905619D01*
X202522666Y-139881428D01*
X201301047Y-118339809D02*
X201301047Y-117831809D01*
X201422000Y-117831809D01*
X201494571Y-117856000D01*
X201542952Y-117904380D01*
X201567142Y-117952761D01*
X201591333Y-118049523D01*
X201591333Y-118122095D01*
X201567142Y-118218857D01*
X201542952Y-118267238D01*
X201494571Y-118315619D01*
X201422000Y-118339809D01*
X201301047Y-118339809D01*
X202026761Y-118001142D02*
X202026761Y-118339809D01*
X201905809Y-117807619D02*
X201784857Y-118170476D01*
X202099333Y-118170476D01*
X152883809Y-136264952D02*
X152375809Y-136264952D01*
X152375809Y-136071428D01*
X152400000Y-136023047D01*
X152424190Y-135998857D01*
X152472571Y-135974666D01*
X152545142Y-135974666D01*
X152593523Y-135998857D01*
X152617714Y-136023047D01*
X152641904Y-136071428D01*
X152641904Y-136264952D01*
X152883809Y-135490857D02*
X152883809Y-135781142D01*
X152883809Y-135636000D02*
X152375809Y-135636000D01*
X152448380Y-135684380D01*
X152496761Y-135732761D01*
X152520952Y-135781142D01*
X155327047Y-132563809D02*
X155327047Y-132055809D01*
X155520571Y-132055809D01*
X155568952Y-132080000D01*
X155593142Y-132104190D01*
X155617333Y-132152571D01*
X155617333Y-132225142D01*
X155593142Y-132273523D01*
X155568952Y-132297714D01*
X155520571Y-132321904D01*
X155327047Y-132321904D01*
X155786666Y-132055809D02*
X156101142Y-132055809D01*
X155931809Y-132249333D01*
X156004380Y-132249333D01*
X156052761Y-132273523D01*
X156076952Y-132297714D01*
X156101142Y-132346095D01*
X156101142Y-132467047D01*
X156076952Y-132515428D01*
X156052761Y-132539619D01*
X156004380Y-132563809D01*
X155859238Y-132563809D01*
X155810857Y-132539619D01*
X155786666Y-132515428D01*
X147743333Y-117069809D02*
X147574000Y-116827904D01*
X147453047Y-117069809D02*
X147453047Y-116561809D01*
X147646571Y-116561809D01*
X147694952Y-116586000D01*
X147719142Y-116610190D01*
X147743333Y-116658571D01*
X147743333Y-116731142D01*
X147719142Y-116779523D01*
X147694952Y-116803714D01*
X147646571Y-116827904D01*
X147453047Y-116827904D01*
X148227142Y-117069809D02*
X147936857Y-117069809D01*
X148082000Y-117069809D02*
X148082000Y-116561809D01*
X148033619Y-116634380D01*
X147985238Y-116682761D01*
X147936857Y-116706952D01*
X147743333Y-141199809D02*
X147574000Y-140957904D01*
X147453047Y-141199809D02*
X147453047Y-140691809D01*
X147646571Y-140691809D01*
X147694952Y-140716000D01*
X147719142Y-140740190D01*
X147743333Y-140788571D01*
X147743333Y-140861142D01*
X147719142Y-140909523D01*
X147694952Y-140933714D01*
X147646571Y-140957904D01*
X147453047Y-140957904D01*
X147936857Y-140740190D02*
X147961047Y-140716000D01*
X148009428Y-140691809D01*
X148130380Y-140691809D01*
X148178761Y-140716000D01*
X148202952Y-140740190D01*
X148227142Y-140788571D01*
X148227142Y-140836952D01*
X148202952Y-140909523D01*
X147912666Y-141199809D01*
X148227142Y-141199809D01*
X199305333Y-139929809D02*
X199136000Y-139687904D01*
X199015047Y-139929809D02*
X199015047Y-139421809D01*
X199208571Y-139421809D01*
X199256952Y-139446000D01*
X199281142Y-139470190D01*
X199305333Y-139518571D01*
X199305333Y-139591142D01*
X199281142Y-139639523D01*
X199256952Y-139663714D01*
X199208571Y-139687904D01*
X199015047Y-139687904D01*
X199474666Y-139421809D02*
X199789142Y-139421809D01*
X199619809Y-139615333D01*
X199692380Y-139615333D01*
X199740761Y-139639523D01*
X199764952Y-139663714D01*
X199789142Y-139712095D01*
X199789142Y-139833047D01*
X199764952Y-139881428D01*
X199740761Y-139905619D01*
X199692380Y-139929809D01*
X199547238Y-139929809D01*
X199498857Y-139905619D01*
X199474666Y-139881428D01*
X199305333Y-118339809D02*
X199136000Y-118097904D01*
X199015047Y-118339809D02*
X199015047Y-117831809D01*
X199208571Y-117831809D01*
X199256952Y-117856000D01*
X199281142Y-117880190D01*
X199305333Y-117928571D01*
X199305333Y-118001142D01*
X199281142Y-118049523D01*
X199256952Y-118073714D01*
X199208571Y-118097904D01*
X199015047Y-118097904D01*
X199740761Y-118001142D02*
X199740761Y-118339809D01*
X199619809Y-117807619D02*
X199498857Y-118170476D01*
X199813333Y-118170476D01*
X166599809Y-141054666D02*
X166357904Y-141224000D01*
X166599809Y-141344952D02*
X166091809Y-141344952D01*
X166091809Y-141151428D01*
X166116000Y-141103047D01*
X166140190Y-141078857D01*
X166188571Y-141054666D01*
X166261142Y-141054666D01*
X166309523Y-141078857D01*
X166333714Y-141103047D01*
X166357904Y-141151428D01*
X166357904Y-141344952D01*
X166091809Y-140595047D02*
X166091809Y-140836952D01*
X166333714Y-140861142D01*
X166309523Y-140836952D01*
X166285333Y-140788571D01*
X166285333Y-140667619D01*
X166309523Y-140619238D01*
X166333714Y-140595047D01*
X166382095Y-140570857D01*
X166503047Y-140570857D01*
X166551428Y-140595047D01*
X166575619Y-140619238D01*
X166599809Y-140667619D01*
X166599809Y-140788571D01*
X166575619Y-140836952D01*
X166551428Y-140861142D01*
X159173333Y-135611809D02*
X159004000Y-135369904D01*
X158883047Y-135611809D02*
X158883047Y-135103809D01*
X159076571Y-135103809D01*
X159124952Y-135128000D01*
X159149142Y-135152190D01*
X159173333Y-135200571D01*
X159173333Y-135273142D01*
X159149142Y-135321523D01*
X159124952Y-135345714D01*
X159076571Y-135369904D01*
X158883047Y-135369904D01*
X159608761Y-135103809D02*
X159512000Y-135103809D01*
X159463619Y-135128000D01*
X159439428Y-135152190D01*
X159391047Y-135224761D01*
X159366857Y-135321523D01*
X159366857Y-135515047D01*
X159391047Y-135563428D01*
X159415238Y-135587619D01*
X159463619Y-135611809D01*
X159560380Y-135611809D01*
X159608761Y-135587619D01*
X159632952Y-135563428D01*
X159657142Y-135515047D01*
X159657142Y-135394095D01*
X159632952Y-135345714D01*
X159608761Y-135321523D01*
X159560380Y-135297333D01*
X159463619Y-135297333D01*
X159415238Y-135321523D01*
X159391047Y-135345714D01*
X159366857Y-135394095D01*
X165523333Y-135611809D02*
X165354000Y-135369904D01*
X165233047Y-135611809D02*
X165233047Y-135103809D01*
X165426571Y-135103809D01*
X165474952Y-135128000D01*
X165499142Y-135152190D01*
X165523333Y-135200571D01*
X165523333Y-135273142D01*
X165499142Y-135321523D01*
X165474952Y-135345714D01*
X165426571Y-135369904D01*
X165233047Y-135369904D01*
X165692666Y-135103809D02*
X166031333Y-135103809D01*
X165813619Y-135611809D01*
X153331333Y-127483809D02*
X153162000Y-127241904D01*
X153041047Y-127483809D02*
X153041047Y-126975809D01*
X153234571Y-126975809D01*
X153282952Y-127000000D01*
X153307142Y-127024190D01*
X153331333Y-127072571D01*
X153331333Y-127145142D01*
X153307142Y-127193523D01*
X153282952Y-127217714D01*
X153234571Y-127241904D01*
X153041047Y-127241904D01*
X153621619Y-127193523D02*
X153573238Y-127169333D01*
X153549047Y-127145142D01*
X153524857Y-127096761D01*
X153524857Y-127072571D01*
X153549047Y-127024190D01*
X153573238Y-127000000D01*
X153621619Y-126975809D01*
X153718380Y-126975809D01*
X153766761Y-127000000D01*
X153790952Y-127024190D01*
X153815142Y-127072571D01*
X153815142Y-127096761D01*
X153790952Y-127145142D01*
X153766761Y-127169333D01*
X153718380Y-127193523D01*
X153621619Y-127193523D01*
X153573238Y-127217714D01*
X153549047Y-127241904D01*
X153524857Y-127290285D01*
X153524857Y-127387047D01*
X153549047Y-127435428D01*
X153573238Y-127459619D01*
X153621619Y-127483809D01*
X153718380Y-127483809D01*
X153766761Y-127459619D01*
X153790952Y-127435428D01*
X153815142Y-127387047D01*
X153815142Y-127290285D01*
X153790952Y-127241904D01*
X153766761Y-127217714D01*
X153718380Y-127193523D01*
X153331333Y-129515809D02*
X153162000Y-129273904D01*
X153041047Y-129515809D02*
X153041047Y-129007809D01*
X153234571Y-129007809D01*
X153282952Y-129032000D01*
X153307142Y-129056190D01*
X153331333Y-129104571D01*
X153331333Y-129177142D01*
X153307142Y-129225523D01*
X153282952Y-129249714D01*
X153234571Y-129273904D01*
X153041047Y-129273904D01*
X153573238Y-129515809D02*
X153670000Y-129515809D01*
X153718380Y-129491619D01*
X153742571Y-129467428D01*
X153790952Y-129394857D01*
X153815142Y-129298095D01*
X153815142Y-129104571D01*
X153790952Y-129056190D01*
X153766761Y-129032000D01*
X153718380Y-129007809D01*
X153621619Y-129007809D01*
X153573238Y-129032000D01*
X153549047Y-129056190D01*
X153524857Y-129104571D01*
X153524857Y-129225523D01*
X153549047Y-129273904D01*
X153573238Y-129298095D01*
X153621619Y-129322285D01*
X153718380Y-129322285D01*
X153766761Y-129298095D01*
X153790952Y-129273904D01*
X153815142Y-129225523D01*
X163503428Y-123927809D02*
X163334095Y-123685904D01*
X163213142Y-123927809D02*
X163213142Y-123419809D01*
X163406666Y-123419809D01*
X163455047Y-123444000D01*
X163479238Y-123468190D01*
X163503428Y-123516571D01*
X163503428Y-123589142D01*
X163479238Y-123637523D01*
X163455047Y-123661714D01*
X163406666Y-123685904D01*
X163213142Y-123685904D01*
X163987238Y-123927809D02*
X163696952Y-123927809D01*
X163842095Y-123927809D02*
X163842095Y-123419809D01*
X163793714Y-123492380D01*
X163745333Y-123540761D01*
X163696952Y-123564952D01*
X164301714Y-123419809D02*
X164350095Y-123419809D01*
X164398476Y-123444000D01*
X164422666Y-123468190D01*
X164446857Y-123516571D01*
X164471047Y-123613333D01*
X164471047Y-123734285D01*
X164446857Y-123831047D01*
X164422666Y-123879428D01*
X164398476Y-123903619D01*
X164350095Y-123927809D01*
X164301714Y-123927809D01*
X164253333Y-123903619D01*
X164229142Y-123879428D01*
X164204952Y-123831047D01*
X164180761Y-123734285D01*
X164180761Y-123613333D01*
X164204952Y-123516571D01*
X164229142Y-123468190D01*
X164253333Y-123444000D01*
X164301714Y-123419809D01*
X164519428Y-122657809D02*
X164350095Y-122415904D01*
X164229142Y-122657809D02*
X164229142Y-122149809D01*
X164422666Y-122149809D01*
X164471047Y-122174000D01*
X164495238Y-122198190D01*
X164519428Y-122246571D01*
X164519428Y-122319142D01*
X164495238Y-122367523D01*
X164471047Y-122391714D01*
X164422666Y-122415904D01*
X164229142Y-122415904D01*
X165003238Y-122657809D02*
X164712952Y-122657809D01*
X164858095Y-122657809D02*
X164858095Y-122149809D01*
X164809714Y-122222380D01*
X164761333Y-122270761D01*
X164712952Y-122294952D01*
X165487047Y-122657809D02*
X165196761Y-122657809D01*
X165341904Y-122657809D02*
X165341904Y-122149809D01*
X165293523Y-122222380D01*
X165245142Y-122270761D01*
X165196761Y-122294952D01*
X142723809Y-137486571D02*
X142481904Y-137655904D01*
X142723809Y-137776857D02*
X142215809Y-137776857D01*
X142215809Y-137583333D01*
X142240000Y-137534952D01*
X142264190Y-137510761D01*
X142312571Y-137486571D01*
X142385142Y-137486571D01*
X142433523Y-137510761D01*
X142457714Y-137534952D01*
X142481904Y-137583333D01*
X142481904Y-137776857D01*
X142723809Y-137002761D02*
X142723809Y-137293047D01*
X142723809Y-137147904D02*
X142215809Y-137147904D01*
X142288380Y-137196285D01*
X142336761Y-137244666D01*
X142360952Y-137293047D01*
X142264190Y-136809238D02*
X142240000Y-136785047D01*
X142215809Y-136736666D01*
X142215809Y-136615714D01*
X142240000Y-136567333D01*
X142264190Y-136543142D01*
X142312571Y-136518952D01*
X142360952Y-136518952D01*
X142433523Y-136543142D01*
X142723809Y-136833428D01*
X142723809Y-136518952D01*
X172139428Y-118593809D02*
X171970095Y-118351904D01*
X171849142Y-118593809D02*
X171849142Y-118085809D01*
X172042666Y-118085809D01*
X172091047Y-118110000D01*
X172115238Y-118134190D01*
X172139428Y-118182571D01*
X172139428Y-118255142D01*
X172115238Y-118303523D01*
X172091047Y-118327714D01*
X172042666Y-118351904D01*
X171849142Y-118351904D01*
X172623238Y-118593809D02*
X172332952Y-118593809D01*
X172478095Y-118593809D02*
X172478095Y-118085809D01*
X172429714Y-118158380D01*
X172381333Y-118206761D01*
X172332952Y-118230952D01*
X172792571Y-118085809D02*
X173107047Y-118085809D01*
X172937714Y-118279333D01*
X173010285Y-118279333D01*
X173058666Y-118303523D01*
X173082857Y-118327714D01*
X173107047Y-118376095D01*
X173107047Y-118497047D01*
X173082857Y-118545428D01*
X173058666Y-118569619D01*
X173010285Y-118593809D01*
X172865142Y-118593809D01*
X172816761Y-118569619D01*
X172792571Y-118545428D01*
X178029809Y-124278571D02*
X177787904Y-124447904D01*
X178029809Y-124568857D02*
X177521809Y-124568857D01*
X177521809Y-124375333D01*
X177546000Y-124326952D01*
X177570190Y-124302761D01*
X177618571Y-124278571D01*
X177691142Y-124278571D01*
X177739523Y-124302761D01*
X177763714Y-124326952D01*
X177787904Y-124375333D01*
X177787904Y-124568857D01*
X178029809Y-123794761D02*
X178029809Y-124085047D01*
X178029809Y-123939904D02*
X177521809Y-123939904D01*
X177594380Y-123988285D01*
X177642761Y-124036666D01*
X177666952Y-124085047D01*
X177691142Y-123359333D02*
X178029809Y-123359333D01*
X177497619Y-123480285D02*
X177860476Y-123601238D01*
X177860476Y-123286761D01*
X177013809Y-131644571D02*
X176771904Y-131813904D01*
X177013809Y-131934857D02*
X176505809Y-131934857D01*
X176505809Y-131741333D01*
X176530000Y-131692952D01*
X176554190Y-131668761D01*
X176602571Y-131644571D01*
X176675142Y-131644571D01*
X176723523Y-131668761D01*
X176747714Y-131692952D01*
X176771904Y-131741333D01*
X176771904Y-131934857D01*
X177013809Y-131160761D02*
X177013809Y-131451047D01*
X177013809Y-131305904D02*
X176505809Y-131305904D01*
X176578380Y-131354285D01*
X176626761Y-131402666D01*
X176650952Y-131451047D01*
X176505809Y-130701142D02*
X176505809Y-130943047D01*
X176747714Y-130967238D01*
X176723523Y-130943047D01*
X176699333Y-130894666D01*
X176699333Y-130773714D01*
X176723523Y-130725333D01*
X176747714Y-130701142D01*
X176796095Y-130676952D01*
X176917047Y-130676952D01*
X176965428Y-130701142D01*
X176989619Y-130725333D01*
X177013809Y-130773714D01*
X177013809Y-130894666D01*
X176989619Y-130943047D01*
X176965428Y-130967238D01*
X177473428Y-139574209D02*
X177304095Y-139332304D01*
X177183142Y-139574209D02*
X177183142Y-139066209D01*
X177376666Y-139066209D01*
X177425047Y-139090400D01*
X177449238Y-139114590D01*
X177473428Y-139162971D01*
X177473428Y-139235542D01*
X177449238Y-139283923D01*
X177425047Y-139308114D01*
X177376666Y-139332304D01*
X177183142Y-139332304D01*
X177957238Y-139574209D02*
X177666952Y-139574209D01*
X177812095Y-139574209D02*
X177812095Y-139066209D01*
X177763714Y-139138780D01*
X177715333Y-139187161D01*
X177666952Y-139211352D01*
X178392666Y-139066209D02*
X178295904Y-139066209D01*
X178247523Y-139090400D01*
X178223333Y-139114590D01*
X178174952Y-139187161D01*
X178150761Y-139283923D01*
X178150761Y-139477447D01*
X178174952Y-139525828D01*
X178199142Y-139550019D01*
X178247523Y-139574209D01*
X178344285Y-139574209D01*
X178392666Y-139550019D01*
X178416857Y-139525828D01*
X178441047Y-139477447D01*
X178441047Y-139356495D01*
X178416857Y-139308114D01*
X178392666Y-139283923D01*
X178344285Y-139259733D01*
X178247523Y-139259733D01*
X178199142Y-139283923D01*
X178174952Y-139308114D01*
X178150761Y-139356495D01*
X203127428Y-130785809D02*
X202958095Y-130543904D01*
X202837142Y-130785809D02*
X202837142Y-130277809D01*
X203030666Y-130277809D01*
X203079047Y-130302000D01*
X203103238Y-130326190D01*
X203127428Y-130374571D01*
X203127428Y-130447142D01*
X203103238Y-130495523D01*
X203079047Y-130519714D01*
X203030666Y-130543904D01*
X202837142Y-130543904D01*
X203611238Y-130785809D02*
X203320952Y-130785809D01*
X203466095Y-130785809D02*
X203466095Y-130277809D01*
X203417714Y-130350380D01*
X203369333Y-130398761D01*
X203320952Y-130422952D01*
X203780571Y-130277809D02*
X204119238Y-130277809D01*
X203901523Y-130785809D01*
X157346952Y-125451809D02*
X157346952Y-125863047D01*
X157371142Y-125911428D01*
X157395333Y-125935619D01*
X157443714Y-125959809D01*
X157540476Y-125959809D01*
X157588857Y-125935619D01*
X157613047Y-125911428D01*
X157637238Y-125863047D01*
X157637238Y-125451809D01*
X158145238Y-125959809D02*
X157854952Y-125959809D01*
X158000095Y-125959809D02*
X158000095Y-125451809D01*
X157951714Y-125524380D01*
X157903333Y-125572761D01*
X157854952Y-125596952D01*
X145517809Y-126879047D02*
X145929047Y-126879047D01*
X145977428Y-126854857D01*
X146001619Y-126830666D01*
X146025809Y-126782285D01*
X146025809Y-126685523D01*
X146001619Y-126637142D01*
X145977428Y-126612952D01*
X145929047Y-126588761D01*
X145517809Y-126588761D01*
X145566190Y-126371047D02*
X145542000Y-126346857D01*
X145517809Y-126298476D01*
X145517809Y-126177523D01*
X145542000Y-126129142D01*
X145566190Y-126104952D01*
X145614571Y-126080761D01*
X145662952Y-126080761D01*
X145735523Y-126104952D01*
X146025809Y-126395238D01*
X146025809Y-126080761D01*
X143993809Y-139546027D02*
X144405047Y-139546027D01*
X144453428Y-139521837D01*
X144477619Y-139497646D01*
X144501809Y-139449265D01*
X144501809Y-139352503D01*
X144477619Y-139304122D01*
X144453428Y-139279932D01*
X144405047Y-139255741D01*
X143993809Y-139255741D01*
X143993809Y-139062218D02*
X143993809Y-138747741D01*
X144187333Y-138917075D01*
X144187333Y-138844503D01*
X144211523Y-138796122D01*
X144235714Y-138771932D01*
X144284095Y-138747741D01*
X144405047Y-138747741D01*
X144453428Y-138771932D01*
X144477619Y-138796122D01*
X144501809Y-138844503D01*
X144501809Y-138989646D01*
X144477619Y-139038027D01*
X144453428Y-139062218D01*
X148235972Y-118593809D02*
X148235972Y-119005047D01*
X148260162Y-119053428D01*
X148284353Y-119077619D01*
X148332734Y-119101809D01*
X148429496Y-119101809D01*
X148477877Y-119077619D01*
X148502067Y-119053428D01*
X148526258Y-119005047D01*
X148526258Y-118593809D01*
X148985877Y-118763142D02*
X148985877Y-119101809D01*
X148864924Y-118569619D02*
X148743972Y-118932476D01*
X149058448Y-118932476D01*
X152256391Y-125070809D02*
X152570867Y-125070809D01*
X152401534Y-125264333D01*
X152474105Y-125264333D01*
X152522486Y-125288523D01*
X152546677Y-125312714D01*
X152570867Y-125361095D01*
X152570867Y-125482047D01*
X152546677Y-125530428D01*
X152522486Y-125554619D01*
X152474105Y-125578809D01*
X152328962Y-125578809D01*
X152280581Y-125554619D01*
X152256391Y-125530428D01*
X153406686Y-118382142D02*
X153406686Y-118720809D01*
X153285734Y-118188619D02*
X153164781Y-118551476D01*
X153479258Y-118551476D01*
X148097467Y-125578809D02*
X147807181Y-125578809D01*
X147952324Y-125578809D02*
X147952324Y-125070809D01*
X147903943Y-125143380D01*
X147855562Y-125191761D01*
X147807181Y-125215952D01*
X149969181Y-125128590D02*
X149993372Y-125104400D01*
X150041753Y-125080209D01*
X150162705Y-125080209D01*
X150211086Y-125104400D01*
X150235277Y-125128590D01*
X150259467Y-125176971D01*
X150259467Y-125225352D01*
X150235277Y-125297923D01*
X149944991Y-125588209D01*
X150259467Y-125588209D01*
X171824952Y-130277809D02*
X171824952Y-130689047D01*
X171849142Y-130737428D01*
X171873333Y-130761619D01*
X171921714Y-130785809D01*
X172018476Y-130785809D01*
X172066857Y-130761619D01*
X172091047Y-130737428D01*
X172115238Y-130689047D01*
X172115238Y-130277809D01*
X172599047Y-130277809D02*
X172357142Y-130277809D01*
X172332952Y-130519714D01*
X172357142Y-130495523D01*
X172405523Y-130471333D01*
X172526476Y-130471333D01*
X172574857Y-130495523D01*
X172599047Y-130519714D01*
X172623238Y-130568095D01*
X172623238Y-130689047D01*
X172599047Y-130737428D01*
X172574857Y-130761619D01*
X172526476Y-130785809D01*
X172405523Y-130785809D01*
X172357142Y-130761619D01*
X172332952Y-130737428D01*
X171824952Y-126975809D02*
X171824952Y-127387047D01*
X171849142Y-127435428D01*
X171873333Y-127459619D01*
X171921714Y-127483809D01*
X172018476Y-127483809D01*
X172066857Y-127459619D01*
X172091047Y-127435428D01*
X172115238Y-127387047D01*
X172115238Y-126975809D01*
X172574857Y-126975809D02*
X172478095Y-126975809D01*
X172429714Y-127000000D01*
X172405523Y-127024190D01*
X172357142Y-127096761D01*
X172332952Y-127193523D01*
X172332952Y-127387047D01*
X172357142Y-127435428D01*
X172381333Y-127459619D01*
X172429714Y-127483809D01*
X172526476Y-127483809D01*
X172574857Y-127459619D01*
X172599047Y-127435428D01*
X172623238Y-127387047D01*
X172623238Y-127266095D01*
X172599047Y-127217714D01*
X172574857Y-127193523D01*
X172526476Y-127169333D01*
X172429714Y-127169333D01*
X172381333Y-127193523D01*
X172357142Y-127217714D01*
X172332952Y-127266095D01*
X185540952Y-132309809D02*
X185540952Y-132721047D01*
X185565142Y-132769428D01*
X185589333Y-132793619D01*
X185637714Y-132817809D01*
X185734476Y-132817809D01*
X185782857Y-132793619D01*
X185807047Y-132769428D01*
X185831238Y-132721047D01*
X185831238Y-132309809D01*
X186024761Y-132309809D02*
X186363428Y-132309809D01*
X186145714Y-132817809D01*
X191636952Y-127991809D02*
X191636952Y-128403047D01*
X191661142Y-128451428D01*
X191685333Y-128475619D01*
X191733714Y-128499809D01*
X191830476Y-128499809D01*
X191878857Y-128475619D01*
X191903047Y-128451428D01*
X191927238Y-128403047D01*
X191927238Y-127991809D01*
X192241714Y-128209523D02*
X192193333Y-128185333D01*
X192169142Y-128161142D01*
X192144952Y-128112761D01*
X192144952Y-128088571D01*
X192169142Y-128040190D01*
X192193333Y-128016000D01*
X192241714Y-127991809D01*
X192338476Y-127991809D01*
X192386857Y-128016000D01*
X192411047Y-128040190D01*
X192435238Y-128088571D01*
X192435238Y-128112761D01*
X192411047Y-128161142D01*
X192386857Y-128185333D01*
X192338476Y-128209523D01*
X192241714Y-128209523D01*
X192193333Y-128233714D01*
X192169142Y-128257904D01*
X192144952Y-128306285D01*
X192144952Y-128403047D01*
X192169142Y-128451428D01*
X192193333Y-128475619D01*
X192241714Y-128499809D01*
X192338476Y-128499809D01*
X192386857Y-128475619D01*
X192411047Y-128451428D01*
X192435238Y-128403047D01*
X192435238Y-128306285D01*
X192411047Y-128257904D01*
X192386857Y-128233714D01*
X192338476Y-128209523D01*
X159270095Y-140957904D02*
X159270095Y-141199809D01*
X159100761Y-140691809D02*
X159270095Y-140957904D01*
X159439428Y-140691809D01*
X159874857Y-141199809D02*
X159584571Y-141199809D01*
X159729714Y-141199809D02*
X159729714Y-140691809D01*
X159681333Y-140764380D01*
X159632952Y-140812761D01*
X159584571Y-140836952D01*
X192544095Y-126606904D02*
X192544095Y-126848809D01*
X192374761Y-126340809D02*
X192544095Y-126606904D01*
X192713428Y-126340809D01*
X192858571Y-126389190D02*
X192882761Y-126365000D01*
X192931142Y-126340809D01*
X193052095Y-126340809D01*
X193100476Y-126365000D01*
X193124666Y-126389190D01*
X193148857Y-126437571D01*
X193148857Y-126485952D01*
X193124666Y-126558523D01*
X192834380Y-126848809D01*
X193148857Y-126848809D01*
X192317095Y-131926904D02*
X192317095Y-132168809D01*
X192147761Y-131660809D02*
X192317095Y-131926904D01*
X192486428Y-131660809D01*
X192607380Y-131660809D02*
X192921857Y-131660809D01*
X192752523Y-131854333D01*
X192825095Y-131854333D01*
X192873476Y-131878523D01*
X192897666Y-131902714D01*
X192921857Y-131951095D01*
X192921857Y-132072047D01*
X192897666Y-132120428D01*
X192873476Y-132144619D01*
X192825095Y-132168809D01*
X192679952Y-132168809D01*
X192631571Y-132144619D01*
X192607380Y-132120428D01*
X189109047Y-114783809D02*
X189109047Y-114275809D01*
X189302571Y-114275809D01*
X189350952Y-114300000D01*
X189375142Y-114324190D01*
X189399333Y-114372571D01*
X189399333Y-114445142D01*
X189375142Y-114493523D01*
X189350952Y-114517714D01*
X189302571Y-114541904D01*
X189109047Y-114541904D01*
X189568666Y-114275809D02*
X189907333Y-114275809D01*
X189689619Y-114783809D01*
X189109047Y-143485809D02*
X189109047Y-142977809D01*
X189302571Y-142977809D01*
X189350952Y-143002000D01*
X189375142Y-143026190D01*
X189399333Y-143074571D01*
X189399333Y-143147142D01*
X189375142Y-143195523D01*
X189350952Y-143219714D01*
X189302571Y-143243904D01*
X189109047Y-143243904D01*
X189834761Y-142977809D02*
X189738000Y-142977809D01*
X189689619Y-143002000D01*
X189665428Y-143026190D01*
X189617047Y-143098761D01*
X189592857Y-143195523D01*
X189592857Y-143389047D01*
X189617047Y-143437428D01*
X189641238Y-143461619D01*
X189689619Y-143485809D01*
X189786380Y-143485809D01*
X189834761Y-143461619D01*
X189858952Y-143437428D01*
X189883142Y-143389047D01*
X189883142Y-143268095D01*
X189858952Y-143219714D01*
X189834761Y-143195523D01*
X189786380Y-143171333D01*
X189689619Y-143171333D01*
X189641238Y-143195523D01*
X189617047Y-143219714D01*
X189592857Y-143268095D01*
X147549809Y-121024952D02*
X147041809Y-121024952D01*
X147041809Y-120904000D01*
X147066000Y-120831428D01*
X147114380Y-120783047D01*
X147162761Y-120758857D01*
X147259523Y-120734666D01*
X147332095Y-120734666D01*
X147428857Y-120758857D01*
X147477238Y-120783047D01*
X147525619Y-120831428D01*
X147549809Y-120904000D01*
X147549809Y-121024952D01*
X147041809Y-120275047D02*
X147041809Y-120516952D01*
X147283714Y-120541142D01*
X147259523Y-120516952D01*
X147235333Y-120468571D01*
X147235333Y-120347619D01*
X147259523Y-120299238D01*
X147283714Y-120275047D01*
X147332095Y-120250857D01*
X147453047Y-120250857D01*
X147501428Y-120275047D01*
X147525619Y-120299238D01*
X147549809Y-120347619D01*
X147549809Y-120468571D01*
X147525619Y-120516952D01*
X147501428Y-120541142D01*
X194606333Y-138108629D02*
X194364428Y-138108629D01*
X194364428Y-137600629D01*
X195041761Y-138108629D02*
X194751476Y-138108629D01*
X194896619Y-138108629D02*
X194896619Y-137600629D01*
X194848238Y-137673200D01*
X194799857Y-137721581D01*
X194751476Y-137745772D01*
X191915989Y-120988666D02*
X191915989Y-121230571D01*
X191407989Y-121230571D01*
X191456370Y-120843523D02*
X191432180Y-120819333D01*
X191407989Y-120770952D01*
X191407989Y-120650000D01*
X191432180Y-120601619D01*
X191456370Y-120577428D01*
X191504751Y-120553238D01*
X191553132Y-120553238D01*
X191625703Y-120577428D01*
X191915989Y-120867714D01*
X191915989Y-120553238D01*
D18*
X148626285Y-127205619D02*
X148626285Y-126189619D01*
X149013333Y-126189619D01*
X149110095Y-126238000D01*
X149158476Y-126286380D01*
X149206857Y-126383142D01*
X149206857Y-126528285D01*
X149158476Y-126625047D01*
X149110095Y-126673428D01*
X149013333Y-126721809D01*
X148626285Y-126721809D01*
X150174476Y-127205619D02*
X149593904Y-127205619D01*
X149884190Y-127205619D02*
X149884190Y-126189619D01*
X149787428Y-126334761D01*
X149690666Y-126431523D01*
X149593904Y-126479904D01*
X150803428Y-126189619D02*
X150900190Y-126189619D01*
X150996952Y-126238000D01*
X151045333Y-126286380D01*
X151093714Y-126383142D01*
X151142095Y-126576666D01*
X151142095Y-126818571D01*
X151093714Y-127012095D01*
X151045333Y-127108857D01*
X150996952Y-127157238D01*
X150900190Y-127205619D01*
X150803428Y-127205619D01*
X150706666Y-127157238D01*
X150658285Y-127108857D01*
X150609904Y-127012095D01*
X150561523Y-126818571D01*
X150561523Y-126576666D01*
X150609904Y-126383142D01*
X150658285Y-126286380D01*
X150706666Y-126238000D01*
X150803428Y-126189619D01*
%LPC*%
D20*
X180975000Y-129413000D03*
X180975000Y-130916680D03*
D21*
X163057840Y-136398000D03*
X161554160Y-136398000D03*
D20*
X156464000Y-139689840D03*
X156464000Y-138186160D03*
X162560000Y-138186160D03*
X162560000Y-139689840D03*
X164338000Y-138186160D03*
X164338000Y-139689840D03*
D22*
X162242500Y-120650000D03*
X164147500Y-120650000D03*
D21*
X158633160Y-120650000D03*
X160136840Y-120650000D03*
X159903160Y-122555000D03*
X161406840Y-122555000D03*
X155214320Y-136398000D03*
X156718000Y-136398000D03*
D20*
X154686000Y-138186160D03*
X154686000Y-139689840D03*
D22*
X157797500Y-123825000D03*
X155892500Y-123825000D03*
D21*
X166888160Y-124460000D03*
X168391840Y-124460000D03*
D22*
X166052500Y-120650000D03*
X167957500Y-120650000D03*
D23*
X149860000Y-135636000D03*
X149860000Y-138684000D03*
X142875000Y-122174000D03*
X142875000Y-119126000D03*
X156210000Y-117856000D03*
X156210000Y-120904000D03*
D21*
X178297840Y-120142000D03*
X176794160Y-120142000D03*
X178297840Y-118364000D03*
X176794160Y-118364000D03*
D20*
X168910000Y-134863840D03*
X168910000Y-133360160D03*
X168910000Y-138419840D03*
X168910000Y-136916160D03*
X184023000Y-133614160D03*
X184023000Y-135117840D03*
X182753000Y-129296160D03*
X182753000Y-130799840D03*
X185801000Y-133614160D03*
X185801000Y-135117840D03*
D21*
X185526680Y-120142000D03*
X184023000Y-120142000D03*
D20*
X183769000Y-121930160D03*
X183769000Y-123433840D03*
X187579000Y-133614160D03*
X187579000Y-135117840D03*
X185547000Y-121920000D03*
X185547000Y-123423680D03*
D21*
X188838840Y-120142000D03*
X187335160Y-120142000D03*
D20*
X187325000Y-123423680D03*
X187325000Y-121920000D03*
X182245000Y-133614160D03*
X182245000Y-135117840D03*
D21*
X195061840Y-123190000D03*
X193558160Y-123190000D03*
X190510160Y-123190000D03*
X192013840Y-123190000D03*
D20*
X195961000Y-133360160D03*
X195961000Y-134863840D03*
X189611000Y-133614160D03*
X189611000Y-135117840D03*
D24*
X143179300Y-116405000D03*
X141680700Y-116405000D03*
X143179300Y-141405000D03*
X141680700Y-141405000D03*
X201815700Y-140970000D03*
X203314300Y-140970000D03*
X201815700Y-116840000D03*
X203314300Y-116840000D03*
D25*
X152654000Y-139700000D03*
X152654000Y-137160000D03*
D26*
X159766000Y-117602000D03*
D27*
X162306000Y-117602000D03*
X164846000Y-117602000D03*
X167386000Y-117602000D03*
D26*
X153670000Y-132080000D03*
D27*
X151130000Y-132080000D03*
X148590000Y-132080000D03*
D28*
X174115000Y-118745000D03*
X174115000Y-122145000D03*
X170815000Y-122145000D03*
X170815000Y-118745000D03*
X170815000Y-139065000D03*
X170815000Y-135665000D03*
X174115000Y-135665000D03*
X174115000Y-139065000D03*
D21*
X145298160Y-116840000D03*
X146801840Y-116840000D03*
X145298160Y-140970000D03*
X146801840Y-140970000D03*
X200141840Y-140970000D03*
X198638160Y-140970000D03*
X200258680Y-116840000D03*
X198755000Y-116840000D03*
D20*
X166370000Y-138313160D03*
X166370000Y-139816840D03*
D21*
X160009840Y-136398000D03*
X158506160Y-136398000D03*
X166359840Y-136398000D03*
X164856160Y-136398000D03*
X154442160Y-127508000D03*
X155945840Y-127508000D03*
X154442160Y-129286000D03*
X155945840Y-129286000D03*
X164581840Y-122555000D03*
X163078160Y-122555000D03*
X167756840Y-122555000D03*
X166253160Y-122555000D03*
D20*
X143510000Y-137911840D03*
X143510000Y-136408160D03*
D22*
X173672500Y-116840000D03*
X171767500Y-116840000D03*
D29*
X176530000Y-125158500D03*
X176530000Y-123253500D03*
X176784000Y-132905500D03*
X176784000Y-134810500D03*
D22*
X178752500Y-140335000D03*
X176847500Y-140335000D03*
D30*
X202692000Y-128905000D03*
X199898000Y-128905000D03*
D31*
X161310320Y-133639560D03*
X161810700Y-133639560D03*
X162311080Y-133639560D03*
X162808920Y-133639560D03*
X163309300Y-133639560D03*
X159809180Y-133639560D03*
X160309560Y-133639560D03*
X160809940Y-133639560D03*
D32*
X166659560Y-132290820D03*
X166659560Y-131790440D03*
X166659560Y-131290060D03*
X166659560Y-130789680D03*
X166659560Y-130289300D03*
X166659560Y-129788920D03*
X166659560Y-129291080D03*
X166659560Y-128790700D03*
D31*
X165310820Y-125440440D03*
X164810440Y-125440440D03*
X164310060Y-125440440D03*
X163809680Y-125440440D03*
X163309300Y-125440440D03*
X162808920Y-125440440D03*
X162311080Y-125440440D03*
X161810700Y-125440440D03*
D32*
X158460440Y-126789180D03*
X158460440Y-127289560D03*
X158460440Y-127789940D03*
X158460440Y-128290320D03*
X158460440Y-128790700D03*
X158460440Y-129291080D03*
X158460440Y-129788920D03*
X158460440Y-130289300D03*
D31*
X163809680Y-133639560D03*
X164310060Y-133639560D03*
X164810440Y-133639560D03*
X165310820Y-133639560D03*
D32*
X166659560Y-128290320D03*
X166659560Y-127789940D03*
X166659560Y-127289560D03*
X166659560Y-126789180D03*
D31*
X161310320Y-125440440D03*
X160809940Y-125440440D03*
X160309560Y-125440440D03*
X159809180Y-125440440D03*
D32*
X158460440Y-130789680D03*
X158460440Y-131290060D03*
X158460440Y-131790440D03*
X158460440Y-132290820D03*
D33*
X142375000Y-127777240D03*
X142375000Y-130175000D03*
X142375000Y-132925820D03*
X142375000Y-125026420D03*
D34*
X145049620Y-127675640D03*
D35*
X145049620Y-128328420D03*
X145049620Y-128976120D03*
X145049620Y-129623820D03*
X145049620Y-130276600D03*
D36*
X144521300Y-130873500D03*
X144523840Y-127076200D03*
D37*
X147050000Y-135046900D03*
X146550000Y-135046900D03*
X146050000Y-135046900D03*
X145550000Y-135046900D03*
X145050000Y-135046900D03*
X145050000Y-139273100D03*
X145550000Y-139273100D03*
X146050000Y-139273100D03*
X146550000Y-139273100D03*
X147050000Y-139273100D03*
D38*
X148818600Y-124383800D03*
X151130000Y-124383800D03*
X153441400Y-124383800D03*
D39*
X151130000Y-118186000D03*
D40*
X171116000Y-125472000D03*
X171116000Y-124972000D03*
X173816000Y-124972000D03*
D41*
X173216000Y-126172000D03*
X171216000Y-124272000D03*
X173716000Y-126172000D03*
X171216000Y-126172000D03*
X171716000Y-126172000D03*
X172216000Y-126172000D03*
X172716000Y-126172000D03*
X173716000Y-124272000D03*
X173216000Y-124272000D03*
X172716000Y-124272000D03*
X172216000Y-124272000D03*
X171716000Y-124272000D03*
D40*
X173816000Y-125472000D03*
D42*
X172466000Y-125222000D03*
D40*
X173566000Y-132272000D03*
X173566000Y-132772000D03*
X170866000Y-132772000D03*
D41*
X171466000Y-131572000D03*
X173466000Y-133472000D03*
X170966000Y-131572000D03*
X173466000Y-131572000D03*
X172966000Y-131572000D03*
X172466000Y-131572000D03*
X171966000Y-131572000D03*
X170966000Y-133472000D03*
X171466000Y-133472000D03*
X171966000Y-133472000D03*
X172466000Y-133472000D03*
X172966000Y-133472000D03*
D40*
X170866000Y-132272000D03*
D42*
X172216000Y-132522000D03*
D43*
X184851040Y-127655320D03*
X184851040Y-128155700D03*
X184851040Y-128656080D03*
X184851040Y-129153920D03*
X184851040Y-130652520D03*
D44*
X185577480Y-131378960D03*
X186075320Y-131378960D03*
X186575700Y-131378960D03*
X187076080Y-131378960D03*
X187573920Y-131378960D03*
X188074300Y-131378960D03*
D43*
X184851040Y-127157480D03*
D45*
X186463940Y-129766060D03*
X186463940Y-128043940D03*
X188186060Y-128043940D03*
X188186060Y-129766060D03*
D44*
X188574680Y-131378960D03*
X189072520Y-131378960D03*
D43*
X189798960Y-130652520D03*
X189798960Y-130154680D03*
X189798960Y-129654300D03*
X189798960Y-129153920D03*
X189798960Y-128656080D03*
X189798960Y-128155700D03*
X189798960Y-127655320D03*
X189798960Y-127157480D03*
D44*
X189072520Y-126431040D03*
X188574680Y-126431040D03*
X188074300Y-126431040D03*
X187573920Y-126431040D03*
D43*
X184851040Y-129654300D03*
X184851040Y-130154680D03*
D44*
X187076080Y-126431040D03*
X186575700Y-126431040D03*
X186075320Y-126431040D03*
X185577480Y-126431040D03*
D46*
X192389000Y-129178000D03*
X191389000Y-129178000D03*
X192389000Y-128778000D03*
X191389000Y-128778000D03*
D47*
X158412000Y-139738000D03*
X160612000Y-139738000D03*
X158412000Y-138138000D03*
X160612000Y-138138000D03*
D48*
X194016000Y-125222000D03*
X191516000Y-125222000D03*
D47*
X191559000Y-135039000D03*
X193759000Y-135039000D03*
X191559000Y-133439000D03*
X193759000Y-133439000D03*
D26*
X184150000Y-117475000D03*
D27*
X186690000Y-117475000D03*
X189230000Y-117475000D03*
X191770000Y-117475000D03*
X194310000Y-117475000D03*
D26*
X184150000Y-140335000D03*
D27*
X186690000Y-140335000D03*
X189230000Y-140335000D03*
X191770000Y-140335000D03*
X194310000Y-140335000D03*
D49*
X146050000Y-118976140D03*
X146050000Y-122323860D03*
D50*
X195328540Y-136779000D03*
X194053460Y-136779000D03*
D51*
X192786000Y-121541540D03*
X192786000Y-120266460D03*
D26*
X148590000Y-128905000D03*
D27*
X151130000Y-128905000D03*
M02*
