%TF.GenerationSoftware,KiCad,Pcbnew,4.1.0-alpha+201607250105+6992~46~ubuntu15.10.1-product*%
%TF.CreationDate,2016-10-28T12:30:36+02:00*%
%TF.ProjectId,robot1,726F626F74312E6B696361645F706362,rev?*%
%TF.FileFunction,Soldermask,Bot*%
%FSLAX46Y46*%
G04 Gerber Fmt 4.6, Leading zero omitted, Abs format (unit mm)*
G04 Created by KiCad (PCBNEW 4.1.0-alpha+201607250105+6992~46~ubuntu15.10.1-product) date Fri Oct 28 12:30:36 2016*
%MOMM*%
%LPD*%
G01*
G04 APERTURE LIST*
%ADD10C,0.100000*%
%ADD11R,1.299160X1.400760*%
%ADD12R,1.400760X1.299160*%
%ADD13R,1.924000X2.599640*%
%ADD14O,1.924000X2.599640*%
%ADD15R,1.200100X1.098500*%
%ADD16R,2.599640X1.924000*%
%ADD17O,2.599640X1.924000*%
%ADD18R,2.297380X2.297380*%
%ADD19R,1.748740X0.798780*%
%ADD20R,1.746200X0.798780*%
%ADD21C,1.197560*%
%ADD22R,0.750000X1.600000*%
%ADD23R,1.400000X1.550000*%
%ADD24R,1.600000X1.200000*%
%ADD25C,1.400000*%
%ADD26R,1.598880X1.598880*%
%ADD27R,2.400000X2.300000*%
%ADD28C,2.300000*%
%ADD29R,1.400760X0.999440*%
%ADD30C,1.600000*%
%ADD31C,1.924000*%
G04 APERTURE END LIST*
D10*
G36*
X206643000Y-91056000D02*
X207093000Y-91056000D01*
X207093000Y-91956000D01*
X206643000Y-91956000D01*
X206643000Y-91056000D01*
G37*
G36*
X207293000Y-91056000D02*
X207743000Y-91056000D01*
X207743000Y-91956000D01*
X207293000Y-91956000D01*
X207293000Y-91056000D01*
G37*
G36*
X207943000Y-91056000D02*
X208393000Y-91056000D01*
X208393000Y-91956000D01*
X207943000Y-91956000D01*
X207943000Y-91056000D01*
G37*
G36*
X207943000Y-92956000D02*
X208393000Y-92956000D01*
X208393000Y-93856000D01*
X207943000Y-93856000D01*
X207943000Y-92956000D01*
G37*
G36*
X207293000Y-92956000D02*
X207743000Y-92956000D01*
X207743000Y-93856000D01*
X207293000Y-93856000D01*
X207293000Y-92956000D01*
G37*
G36*
X206643000Y-92956000D02*
X207093000Y-92956000D01*
X207093000Y-93856000D01*
X206643000Y-93856000D01*
X206643000Y-92956000D01*
G37*
G36*
X208393000Y-99952000D02*
X207943000Y-99952000D01*
X207943000Y-99052000D01*
X208393000Y-99052000D01*
X208393000Y-99952000D01*
G37*
G36*
X207743000Y-99952000D02*
X207293000Y-99952000D01*
X207293000Y-99052000D01*
X207743000Y-99052000D01*
X207743000Y-99952000D01*
G37*
G36*
X207093000Y-99952000D02*
X206643000Y-99952000D01*
X206643000Y-99052000D01*
X207093000Y-99052000D01*
X207093000Y-99952000D01*
G37*
G36*
X207093000Y-98052000D02*
X206643000Y-98052000D01*
X206643000Y-97152000D01*
X207093000Y-97152000D01*
X207093000Y-98052000D01*
G37*
G36*
X207743000Y-98052000D02*
X207293000Y-98052000D01*
X207293000Y-97152000D01*
X207743000Y-97152000D01*
X207743000Y-98052000D01*
G37*
G36*
X208393000Y-98052000D02*
X207943000Y-98052000D01*
X207943000Y-97152000D01*
X208393000Y-97152000D01*
X208393000Y-98052000D01*
G37*
D11*
X208269840Y-89789000D03*
X206766160Y-89789000D03*
X206766160Y-101219000D03*
X208269840Y-101219000D03*
D12*
X130556000Y-100213160D03*
X130556000Y-101716840D03*
X128778000Y-100213160D03*
X128778000Y-101716840D03*
X128778000Y-89789000D03*
X128778000Y-91292680D03*
X128778000Y-94477840D03*
X128778000Y-92974160D03*
D13*
X107823000Y-86868000D03*
D14*
X110363000Y-86868000D03*
X112903000Y-86868000D03*
D12*
X210566000Y-94752160D03*
X210566000Y-96255840D03*
D15*
X112308640Y-88519000D03*
X111211360Y-88519000D03*
X200954640Y-95456920D03*
X199857360Y-95456920D03*
D13*
X175325532Y-100780338D03*
D14*
X172785532Y-100780338D03*
X170245532Y-100780338D03*
D16*
X167705532Y-98113338D03*
D17*
X167705532Y-95573338D03*
X167705532Y-93033338D03*
D13*
X170245532Y-90239338D03*
D14*
X172785532Y-90239338D03*
X175325532Y-90239338D03*
D16*
X177992532Y-93033338D03*
D17*
X177992532Y-95573338D03*
X177992532Y-98113338D03*
D18*
X100076000Y-90352880D03*
X100076000Y-87955120D03*
X100076000Y-85204300D03*
X100076000Y-93103700D03*
D19*
X102750620Y-90454480D03*
D20*
X102750620Y-89801700D03*
X102750620Y-89154000D03*
X102750620Y-88506300D03*
X102750620Y-87853520D03*
D21*
X102222300Y-87256620D03*
X102224840Y-91053920D03*
D22*
X206868000Y-91656000D03*
X207518000Y-91656000D03*
X208168000Y-91656000D03*
X208168000Y-93256000D03*
X207518000Y-93256000D03*
X206868000Y-93256000D03*
X208168000Y-99352000D03*
X207518000Y-99352000D03*
X206868000Y-99352000D03*
X206868000Y-97752000D03*
X207518000Y-97752000D03*
X208168000Y-97752000D03*
D23*
X99032000Y-103035000D03*
X101307000Y-103035000D03*
X101307000Y-95535000D03*
X99032000Y-95535000D03*
D24*
X102232000Y-101535000D03*
X102232000Y-98535000D03*
X102232000Y-97035000D03*
D25*
X100182000Y-100785000D03*
X100182000Y-97785000D03*
D26*
X208694020Y-95504000D03*
X206595980Y-95504000D03*
D27*
X162371532Y-100272338D03*
D28*
X162371532Y-97732338D03*
D27*
X162371532Y-90747338D03*
D28*
X162371532Y-93287338D03*
D29*
X204637640Y-94504420D03*
X202524360Y-95456920D03*
X204637640Y-96409420D03*
D30*
X121541000Y-103505000D03*
X121541000Y-100105000D03*
X124841000Y-100105000D03*
X124841000Y-103505000D03*
X126991000Y-103455000D03*
X119391000Y-103455000D03*
X126991000Y-100055000D03*
X119391000Y-100055000D03*
X126991000Y-97155000D03*
X119391000Y-97155000D03*
X124850000Y-87470000D03*
X124850000Y-90870000D03*
X121550000Y-90870000D03*
X121550000Y-87470000D03*
X119400000Y-87520000D03*
X127000000Y-87520000D03*
X119400000Y-90920000D03*
X127000000Y-90920000D03*
X119400000Y-93820000D03*
X127000000Y-93820000D03*
D31*
X143383000Y-106934000D03*
X140843000Y-106934000D03*
X138303000Y-106934000D03*
X135763000Y-106934000D03*
X133223000Y-106934000D03*
X130683000Y-106934000D03*
X128143000Y-106934000D03*
X125603000Y-106934000D03*
X123063000Y-106934000D03*
X120523000Y-106934000D03*
X117983000Y-106934000D03*
X115443000Y-106934000D03*
X112903000Y-106934000D03*
X110363000Y-106934000D03*
X107823000Y-106934000D03*
X105283000Y-106934000D03*
X102743000Y-106934000D03*
X102743000Y-84074000D03*
X105283000Y-84074000D03*
X107823000Y-84074000D03*
X110363000Y-84074000D03*
X112903000Y-84074000D03*
X115443000Y-84074000D03*
X117983000Y-84074000D03*
X120523000Y-84074000D03*
X123063000Y-84074000D03*
X125603000Y-84074000D03*
X128143000Y-84074000D03*
X130683000Y-84074000D03*
X133223000Y-84074000D03*
X135763000Y-84074000D03*
X138303000Y-84074000D03*
X140843000Y-84074000D03*
X143383000Y-84074000D03*
X193040000Y-106934000D03*
X190500000Y-106934000D03*
X187960000Y-106934000D03*
X185420000Y-106934000D03*
X182880000Y-106934000D03*
X180340000Y-106934000D03*
X177800000Y-106934000D03*
X175260000Y-106934000D03*
X172720000Y-106934000D03*
X170180000Y-106934000D03*
X167640000Y-106934000D03*
X165100000Y-106934000D03*
X162560000Y-106934000D03*
X160020000Y-106934000D03*
X157480000Y-106934000D03*
X154940000Y-106934000D03*
X152400000Y-106934000D03*
X152400000Y-84074000D03*
X154940000Y-84074000D03*
X157480000Y-84074000D03*
X160020000Y-84074000D03*
X162560000Y-84074000D03*
X165100000Y-84074000D03*
X167640000Y-84074000D03*
X170180000Y-84074000D03*
X172720000Y-84074000D03*
X175260000Y-84074000D03*
X177800000Y-84074000D03*
X180340000Y-84074000D03*
X182880000Y-84074000D03*
X185420000Y-84074000D03*
X187960000Y-84074000D03*
X190500000Y-84074000D03*
X193040000Y-84074000D03*
D13*
X200025000Y-84074000D03*
D14*
X202565000Y-84074000D03*
X205105000Y-84074000D03*
X207645000Y-84074000D03*
X210185000Y-84074000D03*
D13*
X210185000Y-106934000D03*
D14*
X207645000Y-106934000D03*
X205105000Y-106934000D03*
X202565000Y-106934000D03*
X200025000Y-106934000D03*
M02*
