%TF.GenerationSoftware,KiCad,Pcbnew,4.1.0-alpha+201607250105+6992~46~ubuntu15.10.1-product*%
%TF.CreationDate,2016-10-28T12:30:36+02:00*%
%TF.ProjectId,robot1,726F626F74312E6B696361645F706362,rev?*%
%TF.FileFunction,Legend,Bot*%
%FSLAX46Y46*%
G04 Gerber Fmt 4.6, Leading zero omitted, Abs format (unit mm)*
G04 Created by KiCad (PCBNEW 4.1.0-alpha+201607250105+6992~46~ubuntu15.10.1-product) date Fri Oct 28 12:30:36 2016*
%MOMM*%
%LPD*%
G01*
G04 APERTURE LIST*
%ADD10C,0.100000*%
%ADD11C,0.050800*%
%ADD12C,0.101600*%
%ADD13C,0.127000*%
%ADD14C,0.200660*%
%ADD15C,0.152400*%
%ADD16C,0.150000*%
%ADD17R,1.299160X1.400760*%
%ADD18R,1.400760X1.299160*%
%ADD19R,1.924000X2.599640*%
%ADD20O,1.924000X2.599640*%
%ADD21R,1.200100X1.098500*%
%ADD22R,2.599640X1.924000*%
%ADD23O,2.599640X1.924000*%
%ADD24R,2.297380X2.297380*%
%ADD25R,1.748740X0.798780*%
%ADD26R,1.746200X0.798780*%
%ADD27C,1.197560*%
%ADD28R,0.750000X1.600000*%
%ADD29R,1.400000X1.550000*%
%ADD30R,1.600000X1.200000*%
%ADD31C,1.400000*%
%ADD32R,1.598880X1.598880*%
%ADD33R,2.400000X2.300000*%
%ADD34C,2.300000*%
%ADD35R,1.400760X0.999440*%
%ADD36C,1.600000*%
%ADD37C,1.924000*%
G04 APERTURE END LIST*
D10*
D11*
X203121380Y-86208809D02*
X203169761Y-86184619D01*
X203193952Y-86136238D01*
X203193952Y-85700809D01*
X202927857Y-86160428D02*
X202903666Y-86184619D01*
X202927857Y-86208809D01*
X202952047Y-86184619D01*
X202927857Y-86160428D01*
X202927857Y-86208809D01*
X202685952Y-86208809D02*
X202685952Y-85870142D01*
X202685952Y-85700809D02*
X202710142Y-85725000D01*
X202685952Y-85749190D01*
X202661761Y-85725000D01*
X202685952Y-85700809D01*
X202685952Y-85749190D01*
X202444047Y-85870142D02*
X202444047Y-86208809D01*
X202444047Y-85918523D02*
X202419857Y-85894333D01*
X202371476Y-85870142D01*
X202298904Y-85870142D01*
X202250523Y-85894333D01*
X202226333Y-85942714D01*
X202226333Y-86208809D01*
X202057000Y-85870142D02*
X201863476Y-85870142D01*
X201984428Y-85700809D02*
X201984428Y-86136238D01*
X201960238Y-86184619D01*
X201911857Y-86208809D01*
X201863476Y-86208809D01*
X205758142Y-86208809D02*
X205758142Y-85870142D01*
X205758142Y-85966904D02*
X205733952Y-85918523D01*
X205709761Y-85894333D01*
X205661380Y-85870142D01*
X205613000Y-85870142D01*
X205443666Y-86160428D02*
X205419476Y-86184619D01*
X205443666Y-86208809D01*
X205467857Y-86184619D01*
X205443666Y-86160428D01*
X205443666Y-86208809D01*
X205201761Y-86208809D02*
X205201761Y-85870142D01*
X205201761Y-85700809D02*
X205225952Y-85725000D01*
X205201761Y-85749190D01*
X205177571Y-85725000D01*
X205201761Y-85700809D01*
X205201761Y-85749190D01*
X204959857Y-85870142D02*
X204959857Y-86208809D01*
X204959857Y-85918523D02*
X204935666Y-85894333D01*
X204887285Y-85870142D01*
X204814714Y-85870142D01*
X204766333Y-85894333D01*
X204742142Y-85942714D01*
X204742142Y-86208809D01*
X204572809Y-85870142D02*
X204379285Y-85870142D01*
X204500238Y-85700809D02*
X204500238Y-86136238D01*
X204476047Y-86184619D01*
X204427666Y-86208809D01*
X204379285Y-86208809D01*
X210753476Y-86184619D02*
X210705095Y-86208809D01*
X210608333Y-86208809D01*
X210559952Y-86184619D01*
X210535761Y-86136238D01*
X210535761Y-86112047D01*
X210559952Y-86063666D01*
X210608333Y-86039476D01*
X210680904Y-86039476D01*
X210729285Y-86015285D01*
X210753476Y-85966904D01*
X210753476Y-85942714D01*
X210729285Y-85894333D01*
X210680904Y-85870142D01*
X210608333Y-85870142D01*
X210559952Y-85894333D01*
X210100333Y-86208809D02*
X210100333Y-85700809D01*
X210100333Y-86184619D02*
X210148714Y-86208809D01*
X210245476Y-86208809D01*
X210293857Y-86184619D01*
X210318047Y-86160428D01*
X210342238Y-86112047D01*
X210342238Y-85966904D01*
X210318047Y-85918523D01*
X210293857Y-85894333D01*
X210245476Y-85870142D01*
X210148714Y-85870142D01*
X210100333Y-85894333D01*
X209640714Y-86208809D02*
X209640714Y-85942714D01*
X209664904Y-85894333D01*
X209713285Y-85870142D01*
X209810047Y-85870142D01*
X209858428Y-85894333D01*
X209640714Y-86184619D02*
X209689095Y-86208809D01*
X209810047Y-86208809D01*
X209858428Y-86184619D01*
X209882619Y-86136238D01*
X209882619Y-86087857D01*
X209858428Y-86039476D01*
X209810047Y-86015285D01*
X209689095Y-86015285D01*
X209640714Y-85991095D01*
X208231619Y-86184619D02*
X208183238Y-86208809D01*
X208086476Y-86208809D01*
X208038095Y-86184619D01*
X208013904Y-86136238D01*
X208013904Y-86112047D01*
X208038095Y-86063666D01*
X208086476Y-86039476D01*
X208159047Y-86039476D01*
X208207428Y-86015285D01*
X208231619Y-85966904D01*
X208231619Y-85942714D01*
X208207428Y-85894333D01*
X208159047Y-85870142D01*
X208086476Y-85870142D01*
X208038095Y-85894333D01*
X207578476Y-86184619D02*
X207626857Y-86208809D01*
X207723619Y-86208809D01*
X207772000Y-86184619D01*
X207796190Y-86160428D01*
X207820380Y-86112047D01*
X207820380Y-85966904D01*
X207796190Y-85918523D01*
X207772000Y-85894333D01*
X207723619Y-85870142D01*
X207626857Y-85870142D01*
X207578476Y-85894333D01*
X207288190Y-86208809D02*
X207336571Y-86184619D01*
X207360761Y-86136238D01*
X207360761Y-85700809D01*
X200859571Y-86208809D02*
X200859571Y-85870142D01*
X200859571Y-85700809D02*
X200883761Y-85725000D01*
X200859571Y-85749190D01*
X200835380Y-85725000D01*
X200859571Y-85700809D01*
X200859571Y-85749190D01*
X200545095Y-86208809D02*
X200593476Y-86184619D01*
X200617666Y-86136238D01*
X200617666Y-85700809D01*
X200279000Y-86208809D02*
X200327380Y-86184619D01*
X200351571Y-86136238D01*
X200351571Y-85700809D01*
X199867761Y-85870142D02*
X199867761Y-86208809D01*
X200085476Y-85870142D02*
X200085476Y-86136238D01*
X200061285Y-86184619D01*
X200012904Y-86208809D01*
X199940333Y-86208809D01*
X199891952Y-86184619D01*
X199867761Y-86160428D01*
X199625857Y-86208809D02*
X199625857Y-85870142D01*
X199625857Y-85918523D02*
X199601666Y-85894333D01*
X199553285Y-85870142D01*
X199480714Y-85870142D01*
X199432333Y-85894333D01*
X199408142Y-85942714D01*
X199408142Y-86208809D01*
X199408142Y-85942714D02*
X199383952Y-85894333D01*
X199335571Y-85870142D01*
X199263000Y-85870142D01*
X199214619Y-85894333D01*
X199190428Y-85942714D01*
X199190428Y-86208809D01*
X210753476Y-105119714D02*
X210680904Y-105143904D01*
X210656714Y-105168095D01*
X210632523Y-105216476D01*
X210632523Y-105289047D01*
X210656714Y-105337428D01*
X210680904Y-105361619D01*
X210729285Y-105385809D01*
X210922809Y-105385809D01*
X210922809Y-104877809D01*
X210753476Y-104877809D01*
X210705095Y-104902000D01*
X210680904Y-104926190D01*
X210656714Y-104974571D01*
X210656714Y-105022952D01*
X210680904Y-105071333D01*
X210705095Y-105095523D01*
X210753476Y-105119714D01*
X210922809Y-105119714D01*
X210439000Y-105240666D02*
X210197095Y-105240666D01*
X210487380Y-105385809D02*
X210318047Y-104877809D01*
X210148714Y-105385809D01*
X210051952Y-104877809D02*
X209761666Y-104877809D01*
X209906809Y-105385809D02*
X209906809Y-104877809D01*
X209664904Y-104877809D02*
X209374619Y-104877809D01*
X209519761Y-105385809D02*
X209519761Y-104877809D01*
X200327380Y-105337428D02*
X200351571Y-105361619D01*
X200424142Y-105385809D01*
X200472523Y-105385809D01*
X200545095Y-105361619D01*
X200593476Y-105313238D01*
X200617666Y-105264857D01*
X200641857Y-105168095D01*
X200641857Y-105095523D01*
X200617666Y-104998761D01*
X200593476Y-104950380D01*
X200545095Y-104902000D01*
X200472523Y-104877809D01*
X200424142Y-104877809D01*
X200351571Y-104902000D01*
X200327380Y-104926190D01*
X199867761Y-105385809D02*
X200109666Y-105385809D01*
X200109666Y-104877809D01*
X199698428Y-105385809D02*
X199698428Y-104877809D01*
X199408142Y-105385809D02*
X199625857Y-105095523D01*
X199408142Y-104877809D02*
X199698428Y-105168095D01*
X202952047Y-104902000D02*
X203000428Y-104877809D01*
X203073000Y-104877809D01*
X203145571Y-104902000D01*
X203193952Y-104950380D01*
X203218142Y-104998761D01*
X203242333Y-105095523D01*
X203242333Y-105168095D01*
X203218142Y-105264857D01*
X203193952Y-105313238D01*
X203145571Y-105361619D01*
X203073000Y-105385809D01*
X203024619Y-105385809D01*
X202952047Y-105361619D01*
X202927857Y-105337428D01*
X202927857Y-105168095D01*
X203024619Y-105168095D01*
X202710142Y-105385809D02*
X202710142Y-104877809D01*
X202419857Y-105385809D01*
X202419857Y-104877809D01*
X202177952Y-105385809D02*
X202177952Y-104877809D01*
X202057000Y-104877809D01*
X201984428Y-104902000D01*
X201936047Y-104950380D01*
X201911857Y-104998761D01*
X201887666Y-105095523D01*
X201887666Y-105168095D01*
X201911857Y-105264857D01*
X201936047Y-105313238D01*
X201984428Y-105361619D01*
X202057000Y-105385809D01*
X202177952Y-105385809D01*
X205244095Y-105385809D02*
X205244095Y-104877809D01*
X204905428Y-104877809D02*
X204808666Y-104877809D01*
X204760285Y-104902000D01*
X204711904Y-104950380D01*
X204687714Y-105047142D01*
X204687714Y-105216476D01*
X204711904Y-105313238D01*
X204760285Y-105361619D01*
X204808666Y-105385809D01*
X204905428Y-105385809D01*
X204953809Y-105361619D01*
X205002190Y-105313238D01*
X205026380Y-105216476D01*
X205026380Y-105047142D01*
X205002190Y-104950380D01*
X204953809Y-104902000D01*
X204905428Y-104877809D01*
X208400952Y-104877809D02*
X208086476Y-104877809D01*
X208255809Y-105071333D01*
X208183238Y-105071333D01*
X208134857Y-105095523D01*
X208110666Y-105119714D01*
X208086476Y-105168095D01*
X208086476Y-105289047D01*
X208110666Y-105337428D01*
X208134857Y-105361619D01*
X208183238Y-105385809D01*
X208328380Y-105385809D01*
X208376761Y-105361619D01*
X208400952Y-105337428D01*
X207941333Y-104877809D02*
X207772000Y-105385809D01*
X207602666Y-104877809D01*
X207481714Y-104877809D02*
X207167238Y-104877809D01*
X207336571Y-105071333D01*
X207264000Y-105071333D01*
X207215619Y-105095523D01*
X207191428Y-105119714D01*
X207167238Y-105168095D01*
X207167238Y-105289047D01*
X207191428Y-105337428D01*
X207215619Y-105361619D01*
X207264000Y-105385809D01*
X207409142Y-105385809D01*
X207457523Y-105361619D01*
X207481714Y-105337428D01*
X152829380Y-108639428D02*
X152853571Y-108663619D01*
X152926142Y-108687809D01*
X152974523Y-108687809D01*
X153047095Y-108663619D01*
X153095476Y-108615238D01*
X153119666Y-108566857D01*
X153143857Y-108470095D01*
X153143857Y-108397523D01*
X153119666Y-108300761D01*
X153095476Y-108252380D01*
X153047095Y-108204000D01*
X152974523Y-108179809D01*
X152926142Y-108179809D01*
X152853571Y-108204000D01*
X152829380Y-108228190D01*
X152369761Y-108687809D02*
X152611666Y-108687809D01*
X152611666Y-108179809D01*
X152200428Y-108687809D02*
X152200428Y-108179809D01*
X151910142Y-108687809D02*
X152127857Y-108397523D01*
X151910142Y-108179809D02*
X152200428Y-108470095D01*
X160902952Y-108179809D02*
X160588476Y-108179809D01*
X160757809Y-108373333D01*
X160685238Y-108373333D01*
X160636857Y-108397523D01*
X160612666Y-108421714D01*
X160588476Y-108470095D01*
X160588476Y-108591047D01*
X160612666Y-108639428D01*
X160636857Y-108663619D01*
X160685238Y-108687809D01*
X160830380Y-108687809D01*
X160878761Y-108663619D01*
X160902952Y-108639428D01*
X160443333Y-108179809D02*
X160274000Y-108687809D01*
X160104666Y-108179809D01*
X159983714Y-108179809D02*
X159669238Y-108179809D01*
X159838571Y-108373333D01*
X159766000Y-108373333D01*
X159717619Y-108397523D01*
X159693428Y-108421714D01*
X159669238Y-108470095D01*
X159669238Y-108591047D01*
X159693428Y-108639428D01*
X159717619Y-108663619D01*
X159766000Y-108687809D01*
X159911142Y-108687809D01*
X159959523Y-108663619D01*
X159983714Y-108639428D01*
X157746095Y-108687809D02*
X157746095Y-108179809D01*
X157407428Y-108179809D02*
X157310666Y-108179809D01*
X157262285Y-108204000D01*
X157213904Y-108252380D01*
X157189714Y-108349142D01*
X157189714Y-108518476D01*
X157213904Y-108615238D01*
X157262285Y-108663619D01*
X157310666Y-108687809D01*
X157407428Y-108687809D01*
X157455809Y-108663619D01*
X157504190Y-108615238D01*
X157528380Y-108518476D01*
X157528380Y-108349142D01*
X157504190Y-108252380D01*
X157455809Y-108204000D01*
X157407428Y-108179809D01*
X155454047Y-108204000D02*
X155502428Y-108179809D01*
X155575000Y-108179809D01*
X155647571Y-108204000D01*
X155695952Y-108252380D01*
X155720142Y-108300761D01*
X155744333Y-108397523D01*
X155744333Y-108470095D01*
X155720142Y-108566857D01*
X155695952Y-108615238D01*
X155647571Y-108663619D01*
X155575000Y-108687809D01*
X155526619Y-108687809D01*
X155454047Y-108663619D01*
X155429857Y-108639428D01*
X155429857Y-108470095D01*
X155526619Y-108470095D01*
X155212142Y-108687809D02*
X155212142Y-108179809D01*
X154921857Y-108687809D01*
X154921857Y-108179809D01*
X154679952Y-108687809D02*
X154679952Y-108179809D01*
X154559000Y-108179809D01*
X154486428Y-108204000D01*
X154438047Y-108252380D01*
X154413857Y-108300761D01*
X154389666Y-108397523D01*
X154389666Y-108470095D01*
X154413857Y-108566857D01*
X154438047Y-108615238D01*
X154486428Y-108663619D01*
X154559000Y-108687809D01*
X154679952Y-108687809D01*
X178507571Y-108687809D02*
X178749476Y-108687809D01*
X178749476Y-108179809D01*
X178338238Y-108421714D02*
X178168904Y-108421714D01*
X178096333Y-108687809D02*
X178338238Y-108687809D01*
X178338238Y-108179809D01*
X178096333Y-108179809D01*
X177878619Y-108687809D02*
X177878619Y-108179809D01*
X177757666Y-108179809D01*
X177685095Y-108204000D01*
X177636714Y-108252380D01*
X177612523Y-108300761D01*
X177588333Y-108397523D01*
X177588333Y-108470095D01*
X177612523Y-108566857D01*
X177636714Y-108615238D01*
X177685095Y-108663619D01*
X177757666Y-108687809D01*
X177878619Y-108687809D01*
X177080333Y-108687809D02*
X177249666Y-108445904D01*
X177370619Y-108687809D02*
X177370619Y-108179809D01*
X177177095Y-108179809D01*
X177128714Y-108204000D01*
X177104523Y-108228190D01*
X177080333Y-108276571D01*
X177080333Y-108349142D01*
X177104523Y-108397523D01*
X177128714Y-108421714D01*
X177177095Y-108445904D01*
X177370619Y-108445904D01*
X175895000Y-108687809D02*
X175895000Y-108179809D01*
X175362809Y-108687809D02*
X175532142Y-108445904D01*
X175653095Y-108687809D02*
X175653095Y-108179809D01*
X175459571Y-108179809D01*
X175411190Y-108204000D01*
X175387000Y-108228190D01*
X175362809Y-108276571D01*
X175362809Y-108349142D01*
X175387000Y-108397523D01*
X175411190Y-108421714D01*
X175459571Y-108445904D01*
X175653095Y-108445904D01*
X174854809Y-108639428D02*
X174879000Y-108663619D01*
X174951571Y-108687809D01*
X174999952Y-108687809D01*
X175072523Y-108663619D01*
X175120904Y-108615238D01*
X175145095Y-108566857D01*
X175169285Y-108470095D01*
X175169285Y-108397523D01*
X175145095Y-108300761D01*
X175120904Y-108252380D01*
X175072523Y-108204000D01*
X174999952Y-108179809D01*
X174951571Y-108179809D01*
X174879000Y-108204000D01*
X174854809Y-108228190D01*
X173342904Y-108687809D02*
X173342904Y-108179809D01*
X172810714Y-108687809D02*
X172980047Y-108445904D01*
X173101000Y-108687809D02*
X173101000Y-108179809D01*
X172907476Y-108179809D01*
X172859095Y-108204000D01*
X172834904Y-108228190D01*
X172810714Y-108276571D01*
X172810714Y-108349142D01*
X172834904Y-108397523D01*
X172859095Y-108421714D01*
X172907476Y-108445904D01*
X173101000Y-108445904D01*
X172617190Y-108663619D02*
X172544619Y-108687809D01*
X172423666Y-108687809D01*
X172375285Y-108663619D01*
X172351095Y-108639428D01*
X172326904Y-108591047D01*
X172326904Y-108542666D01*
X172351095Y-108494285D01*
X172375285Y-108470095D01*
X172423666Y-108445904D01*
X172520428Y-108421714D01*
X172568809Y-108397523D01*
X172593000Y-108373333D01*
X172617190Y-108324952D01*
X172617190Y-108276571D01*
X172593000Y-108228190D01*
X172568809Y-108204000D01*
X172520428Y-108179809D01*
X172399476Y-108179809D01*
X172326904Y-108204000D01*
X181047571Y-108687809D02*
X181289476Y-108687809D01*
X181289476Y-108179809D01*
X180878238Y-108421714D02*
X180708904Y-108421714D01*
X180636333Y-108687809D02*
X180878238Y-108687809D01*
X180878238Y-108179809D01*
X180636333Y-108179809D01*
X180418619Y-108687809D02*
X180418619Y-108179809D01*
X180297666Y-108179809D01*
X180225095Y-108204000D01*
X180176714Y-108252380D01*
X180152523Y-108300761D01*
X180128333Y-108397523D01*
X180128333Y-108470095D01*
X180152523Y-108566857D01*
X180176714Y-108615238D01*
X180225095Y-108663619D01*
X180297666Y-108687809D01*
X180418619Y-108687809D01*
X179644523Y-108204000D02*
X179692904Y-108179809D01*
X179765476Y-108179809D01*
X179838047Y-108204000D01*
X179886428Y-108252380D01*
X179910619Y-108300761D01*
X179934809Y-108397523D01*
X179934809Y-108470095D01*
X179910619Y-108566857D01*
X179886428Y-108615238D01*
X179838047Y-108663619D01*
X179765476Y-108687809D01*
X179717095Y-108687809D01*
X179644523Y-108663619D01*
X179620333Y-108639428D01*
X179620333Y-108470095D01*
X179717095Y-108470095D01*
X183587571Y-108687809D02*
X183829476Y-108687809D01*
X183829476Y-108179809D01*
X183418238Y-108421714D02*
X183248904Y-108421714D01*
X183176333Y-108687809D02*
X183418238Y-108687809D01*
X183418238Y-108179809D01*
X183176333Y-108179809D01*
X182958619Y-108687809D02*
X182958619Y-108179809D01*
X182837666Y-108179809D01*
X182765095Y-108204000D01*
X182716714Y-108252380D01*
X182692523Y-108300761D01*
X182668333Y-108397523D01*
X182668333Y-108470095D01*
X182692523Y-108566857D01*
X182716714Y-108615238D01*
X182765095Y-108663619D01*
X182837666Y-108687809D01*
X182958619Y-108687809D01*
X182281285Y-108421714D02*
X182208714Y-108445904D01*
X182184523Y-108470095D01*
X182160333Y-108518476D01*
X182160333Y-108591047D01*
X182184523Y-108639428D01*
X182208714Y-108663619D01*
X182257095Y-108687809D01*
X182450619Y-108687809D01*
X182450619Y-108179809D01*
X182281285Y-108179809D01*
X182232904Y-108204000D01*
X182208714Y-108228190D01*
X182184523Y-108276571D01*
X182184523Y-108324952D01*
X182208714Y-108373333D01*
X182232904Y-108397523D01*
X182281285Y-108421714D01*
X182450619Y-108421714D01*
X193844333Y-108687809D02*
X193844333Y-108421714D01*
X193868523Y-108373333D01*
X193916904Y-108349142D01*
X194013666Y-108349142D01*
X194062047Y-108373333D01*
X193844333Y-108663619D02*
X193892714Y-108687809D01*
X194013666Y-108687809D01*
X194062047Y-108663619D01*
X194086238Y-108615238D01*
X194086238Y-108566857D01*
X194062047Y-108518476D01*
X194013666Y-108494285D01*
X193892714Y-108494285D01*
X193844333Y-108470095D01*
X193602428Y-108349142D02*
X193602428Y-108857142D01*
X193602428Y-108373333D02*
X193554047Y-108349142D01*
X193457285Y-108349142D01*
X193408904Y-108373333D01*
X193384714Y-108397523D01*
X193360523Y-108445904D01*
X193360523Y-108591047D01*
X193384714Y-108639428D01*
X193408904Y-108663619D01*
X193457285Y-108687809D01*
X193554047Y-108687809D01*
X193602428Y-108663619D01*
X193142809Y-108687809D02*
X193142809Y-108179809D01*
X192925095Y-108687809D02*
X192925095Y-108421714D01*
X192949285Y-108373333D01*
X192997666Y-108349142D01*
X193070238Y-108349142D01*
X193118619Y-108373333D01*
X193142809Y-108397523D01*
X192683190Y-108639428D02*
X192659000Y-108663619D01*
X192683190Y-108687809D01*
X192707380Y-108663619D01*
X192683190Y-108639428D01*
X192683190Y-108687809D01*
X192199380Y-108687809D02*
X192441285Y-108687809D01*
X192441285Y-108179809D01*
X186429952Y-108687809D02*
X186429952Y-108179809D01*
X186429952Y-108373333D02*
X186381571Y-108349142D01*
X186284809Y-108349142D01*
X186236428Y-108373333D01*
X186212238Y-108397523D01*
X186188047Y-108445904D01*
X186188047Y-108591047D01*
X186212238Y-108639428D01*
X186236428Y-108663619D01*
X186284809Y-108687809D01*
X186381571Y-108687809D01*
X186429952Y-108663619D01*
X185776809Y-108663619D02*
X185825190Y-108687809D01*
X185921952Y-108687809D01*
X185970333Y-108663619D01*
X185994523Y-108615238D01*
X185994523Y-108421714D01*
X185970333Y-108373333D01*
X185921952Y-108349142D01*
X185825190Y-108349142D01*
X185776809Y-108373333D01*
X185752619Y-108421714D01*
X185752619Y-108470095D01*
X185994523Y-108518476D01*
X185534904Y-108349142D02*
X185534904Y-108687809D01*
X185534904Y-108397523D02*
X185510714Y-108373333D01*
X185462333Y-108349142D01*
X185389761Y-108349142D01*
X185341380Y-108373333D01*
X185317190Y-108421714D01*
X185317190Y-108687809D01*
X185075285Y-108639428D02*
X185051095Y-108663619D01*
X185075285Y-108687809D01*
X185099476Y-108663619D01*
X185075285Y-108639428D01*
X185075285Y-108687809D01*
X184591476Y-108687809D02*
X184833380Y-108687809D01*
X184833380Y-108179809D01*
X191522047Y-108687809D02*
X191522047Y-108179809D01*
X191522047Y-108373333D02*
X191473666Y-108349142D01*
X191376904Y-108349142D01*
X191328523Y-108373333D01*
X191304333Y-108397523D01*
X191280142Y-108445904D01*
X191280142Y-108591047D01*
X191304333Y-108639428D01*
X191328523Y-108663619D01*
X191376904Y-108687809D01*
X191473666Y-108687809D01*
X191522047Y-108663619D01*
X191062428Y-108349142D02*
X191062428Y-108857142D01*
X191062428Y-108373333D02*
X191014047Y-108349142D01*
X190917285Y-108349142D01*
X190868904Y-108373333D01*
X190844714Y-108397523D01*
X190820523Y-108445904D01*
X190820523Y-108591047D01*
X190844714Y-108639428D01*
X190868904Y-108663619D01*
X190917285Y-108687809D01*
X191014047Y-108687809D01*
X191062428Y-108663619D01*
X190602809Y-108687809D02*
X190602809Y-108179809D01*
X190385095Y-108687809D02*
X190385095Y-108421714D01*
X190409285Y-108373333D01*
X190457666Y-108349142D01*
X190530238Y-108349142D01*
X190578619Y-108373333D01*
X190602809Y-108397523D01*
X190143190Y-108639428D02*
X190119000Y-108663619D01*
X190143190Y-108687809D01*
X190167380Y-108663619D01*
X190143190Y-108639428D01*
X190143190Y-108687809D01*
X189659380Y-108687809D02*
X189901285Y-108687809D01*
X189901285Y-108179809D01*
X188752238Y-108687809D02*
X188752238Y-108421714D01*
X188776428Y-108373333D01*
X188824809Y-108349142D01*
X188921571Y-108349142D01*
X188969952Y-108373333D01*
X188752238Y-108663619D02*
X188800619Y-108687809D01*
X188921571Y-108687809D01*
X188969952Y-108663619D01*
X188994142Y-108615238D01*
X188994142Y-108566857D01*
X188969952Y-108518476D01*
X188921571Y-108494285D01*
X188800619Y-108494285D01*
X188752238Y-108470095D01*
X188316809Y-108663619D02*
X188365190Y-108687809D01*
X188461952Y-108687809D01*
X188510333Y-108663619D01*
X188534523Y-108615238D01*
X188534523Y-108421714D01*
X188510333Y-108373333D01*
X188461952Y-108349142D01*
X188365190Y-108349142D01*
X188316809Y-108373333D01*
X188292619Y-108421714D01*
X188292619Y-108470095D01*
X188534523Y-108518476D01*
X188074904Y-108349142D02*
X188074904Y-108687809D01*
X188074904Y-108397523D02*
X188050714Y-108373333D01*
X188002333Y-108349142D01*
X187929761Y-108349142D01*
X187881380Y-108373333D01*
X187857190Y-108421714D01*
X187857190Y-108687809D01*
X187615285Y-108639428D02*
X187591095Y-108663619D01*
X187615285Y-108687809D01*
X187639476Y-108663619D01*
X187615285Y-108639428D01*
X187615285Y-108687809D01*
X187131476Y-108687809D02*
X187373380Y-108687809D01*
X187373380Y-108179809D01*
X170923857Y-108349142D02*
X170923857Y-108687809D01*
X170923857Y-108397523D02*
X170899666Y-108373333D01*
X170851285Y-108349142D01*
X170778714Y-108349142D01*
X170730333Y-108373333D01*
X170706142Y-108421714D01*
X170706142Y-108687809D01*
X170464238Y-108687809D02*
X170464238Y-108349142D01*
X170464238Y-108445904D02*
X170440047Y-108397523D01*
X170415857Y-108373333D01*
X170367476Y-108349142D01*
X170319095Y-108349142D01*
X170173952Y-108663619D02*
X170125571Y-108687809D01*
X170028809Y-108687809D01*
X169980428Y-108663619D01*
X169956238Y-108615238D01*
X169956238Y-108591047D01*
X169980428Y-108542666D01*
X170028809Y-108518476D01*
X170101380Y-108518476D01*
X170149761Y-108494285D01*
X170173952Y-108445904D01*
X170173952Y-108421714D01*
X170149761Y-108373333D01*
X170101380Y-108349142D01*
X170028809Y-108349142D01*
X169980428Y-108373333D01*
X169811095Y-108349142D02*
X169617571Y-108349142D01*
X169738523Y-108179809D02*
X169738523Y-108615238D01*
X169714333Y-108663619D01*
X169665952Y-108687809D01*
X169617571Y-108687809D01*
X163255476Y-108421714D02*
X163182904Y-108445904D01*
X163158714Y-108470095D01*
X163134523Y-108518476D01*
X163134523Y-108591047D01*
X163158714Y-108639428D01*
X163182904Y-108663619D01*
X163231285Y-108687809D01*
X163424809Y-108687809D01*
X163424809Y-108179809D01*
X163255476Y-108179809D01*
X163207095Y-108204000D01*
X163182904Y-108228190D01*
X163158714Y-108276571D01*
X163158714Y-108324952D01*
X163182904Y-108373333D01*
X163207095Y-108397523D01*
X163255476Y-108421714D01*
X163424809Y-108421714D01*
X162941000Y-108542666D02*
X162699095Y-108542666D01*
X162989380Y-108687809D02*
X162820047Y-108179809D01*
X162650714Y-108687809D01*
X162553952Y-108179809D02*
X162263666Y-108179809D01*
X162408809Y-108687809D02*
X162408809Y-108179809D01*
X162166904Y-108179809D02*
X161876619Y-108179809D01*
X162021761Y-108687809D02*
X162021761Y-108179809D01*
X165311666Y-108687809D02*
X165481000Y-108445904D01*
X165601952Y-108687809D02*
X165601952Y-108179809D01*
X165408428Y-108179809D01*
X165360047Y-108204000D01*
X165335857Y-108228190D01*
X165311666Y-108276571D01*
X165311666Y-108349142D01*
X165335857Y-108397523D01*
X165360047Y-108421714D01*
X165408428Y-108445904D01*
X165601952Y-108445904D01*
X165142333Y-108179809D02*
X164803666Y-108687809D01*
X164803666Y-108179809D02*
X165142333Y-108687809D01*
X168154047Y-108179809D02*
X167863761Y-108179809D01*
X168008904Y-108687809D02*
X168008904Y-108179809D01*
X167742809Y-108179809D02*
X167404142Y-108687809D01*
X167404142Y-108179809D02*
X167742809Y-108687809D01*
X181210857Y-82779809D02*
X181210857Y-82271809D01*
X181017333Y-82271809D01*
X180968952Y-82296000D01*
X180944761Y-82320190D01*
X180920571Y-82368571D01*
X180920571Y-82441142D01*
X180944761Y-82489523D01*
X180968952Y-82513714D01*
X181017333Y-82537904D01*
X181210857Y-82537904D01*
X180412571Y-82731428D02*
X180436761Y-82755619D01*
X180509333Y-82779809D01*
X180557714Y-82779809D01*
X180630285Y-82755619D01*
X180678666Y-82707238D01*
X180702857Y-82658857D01*
X180727047Y-82562095D01*
X180727047Y-82489523D01*
X180702857Y-82392761D01*
X180678666Y-82344380D01*
X180630285Y-82296000D01*
X180557714Y-82271809D01*
X180509333Y-82271809D01*
X180436761Y-82296000D01*
X180412571Y-82320190D01*
X179928761Y-82779809D02*
X180219047Y-82779809D01*
X180073904Y-82779809D02*
X180073904Y-82271809D01*
X180122285Y-82344380D01*
X180170666Y-82392761D01*
X180219047Y-82416952D01*
X179759428Y-82271809D02*
X179444952Y-82271809D01*
X179614285Y-82465333D01*
X179541714Y-82465333D01*
X179493333Y-82489523D01*
X179469142Y-82513714D01*
X179444952Y-82562095D01*
X179444952Y-82683047D01*
X179469142Y-82731428D01*
X179493333Y-82755619D01*
X179541714Y-82779809D01*
X179686857Y-82779809D01*
X179735238Y-82755619D01*
X179759428Y-82731428D01*
X183533142Y-82586285D02*
X183146095Y-82586285D01*
X183339619Y-82779809D02*
X183339619Y-82392761D01*
X182662285Y-82271809D02*
X182904190Y-82271809D01*
X182928380Y-82513714D01*
X182904190Y-82489523D01*
X182855809Y-82465333D01*
X182734857Y-82465333D01*
X182686476Y-82489523D01*
X182662285Y-82513714D01*
X182638095Y-82562095D01*
X182638095Y-82683047D01*
X182662285Y-82731428D01*
X182686476Y-82755619D01*
X182734857Y-82779809D01*
X182855809Y-82779809D01*
X182904190Y-82755619D01*
X182928380Y-82731428D01*
X182492952Y-82271809D02*
X182323619Y-82779809D01*
X182154285Y-82271809D01*
X188673619Y-82779809D02*
X188673619Y-82513714D01*
X188697809Y-82465333D01*
X188746190Y-82441142D01*
X188842952Y-82441142D01*
X188891333Y-82465333D01*
X188673619Y-82755619D02*
X188722000Y-82779809D01*
X188842952Y-82779809D01*
X188891333Y-82755619D01*
X188915523Y-82707238D01*
X188915523Y-82658857D01*
X188891333Y-82610476D01*
X188842952Y-82586285D01*
X188722000Y-82586285D01*
X188673619Y-82562095D01*
X188238190Y-82755619D02*
X188286571Y-82779809D01*
X188383333Y-82779809D01*
X188431714Y-82755619D01*
X188455904Y-82707238D01*
X188455904Y-82513714D01*
X188431714Y-82465333D01*
X188383333Y-82441142D01*
X188286571Y-82441142D01*
X188238190Y-82465333D01*
X188214000Y-82513714D01*
X188214000Y-82562095D01*
X188455904Y-82610476D01*
X187996285Y-82441142D02*
X187996285Y-82779809D01*
X187996285Y-82489523D02*
X187972095Y-82465333D01*
X187923714Y-82441142D01*
X187851142Y-82441142D01*
X187802761Y-82465333D01*
X187778571Y-82513714D01*
X187778571Y-82779809D01*
X187536666Y-82731428D02*
X187512476Y-82755619D01*
X187536666Y-82779809D01*
X187560857Y-82755619D01*
X187536666Y-82731428D01*
X187536666Y-82779809D01*
X187004476Y-82779809D02*
X187173809Y-82537904D01*
X187294761Y-82779809D02*
X187294761Y-82271809D01*
X187101238Y-82271809D01*
X187052857Y-82296000D01*
X187028666Y-82320190D01*
X187004476Y-82368571D01*
X187004476Y-82441142D01*
X187028666Y-82489523D01*
X187052857Y-82513714D01*
X187101238Y-82537904D01*
X187294761Y-82537904D01*
X186351333Y-82779809D02*
X186351333Y-82271809D01*
X186351333Y-82465333D02*
X186302952Y-82441142D01*
X186206190Y-82441142D01*
X186157809Y-82465333D01*
X186133619Y-82489523D01*
X186109428Y-82537904D01*
X186109428Y-82683047D01*
X186133619Y-82731428D01*
X186157809Y-82755619D01*
X186206190Y-82779809D01*
X186302952Y-82779809D01*
X186351333Y-82755619D01*
X185698190Y-82755619D02*
X185746571Y-82779809D01*
X185843333Y-82779809D01*
X185891714Y-82755619D01*
X185915904Y-82707238D01*
X185915904Y-82513714D01*
X185891714Y-82465333D01*
X185843333Y-82441142D01*
X185746571Y-82441142D01*
X185698190Y-82465333D01*
X185674000Y-82513714D01*
X185674000Y-82562095D01*
X185915904Y-82610476D01*
X185456285Y-82441142D02*
X185456285Y-82779809D01*
X185456285Y-82489523D02*
X185432095Y-82465333D01*
X185383714Y-82441142D01*
X185311142Y-82441142D01*
X185262761Y-82465333D01*
X185238571Y-82513714D01*
X185238571Y-82779809D01*
X184996666Y-82731428D02*
X184972476Y-82755619D01*
X184996666Y-82779809D01*
X185020857Y-82755619D01*
X184996666Y-82731428D01*
X184996666Y-82779809D01*
X184464476Y-82779809D02*
X184633809Y-82537904D01*
X184754761Y-82779809D02*
X184754761Y-82271809D01*
X184561238Y-82271809D01*
X184512857Y-82296000D01*
X184488666Y-82320190D01*
X184464476Y-82368571D01*
X184464476Y-82441142D01*
X184488666Y-82489523D01*
X184512857Y-82513714D01*
X184561238Y-82537904D01*
X184754761Y-82537904D01*
X178670857Y-82779809D02*
X178670857Y-82271809D01*
X178477333Y-82271809D01*
X178428952Y-82296000D01*
X178404761Y-82320190D01*
X178380571Y-82368571D01*
X178380571Y-82441142D01*
X178404761Y-82489523D01*
X178428952Y-82513714D01*
X178477333Y-82537904D01*
X178670857Y-82537904D01*
X177872571Y-82731428D02*
X177896761Y-82755619D01*
X177969333Y-82779809D01*
X178017714Y-82779809D01*
X178090285Y-82755619D01*
X178138666Y-82707238D01*
X178162857Y-82658857D01*
X178187047Y-82562095D01*
X178187047Y-82489523D01*
X178162857Y-82392761D01*
X178138666Y-82344380D01*
X178090285Y-82296000D01*
X178017714Y-82271809D01*
X177969333Y-82271809D01*
X177896761Y-82296000D01*
X177872571Y-82320190D01*
X177388761Y-82779809D02*
X177679047Y-82779809D01*
X177533904Y-82779809D02*
X177533904Y-82271809D01*
X177582285Y-82344380D01*
X177630666Y-82392761D01*
X177679047Y-82416952D01*
X176953333Y-82441142D02*
X176953333Y-82779809D01*
X177074285Y-82247619D02*
X177195238Y-82610476D01*
X176880761Y-82610476D01*
X176130857Y-82779809D02*
X176130857Y-82271809D01*
X175937333Y-82271809D01*
X175888952Y-82296000D01*
X175864761Y-82320190D01*
X175840571Y-82368571D01*
X175840571Y-82441142D01*
X175864761Y-82489523D01*
X175888952Y-82513714D01*
X175937333Y-82537904D01*
X176130857Y-82537904D01*
X175332571Y-82731428D02*
X175356761Y-82755619D01*
X175429333Y-82779809D01*
X175477714Y-82779809D01*
X175550285Y-82755619D01*
X175598666Y-82707238D01*
X175622857Y-82658857D01*
X175647047Y-82562095D01*
X175647047Y-82489523D01*
X175622857Y-82392761D01*
X175598666Y-82344380D01*
X175550285Y-82296000D01*
X175477714Y-82271809D01*
X175429333Y-82271809D01*
X175356761Y-82296000D01*
X175332571Y-82320190D01*
X174848761Y-82779809D02*
X175139047Y-82779809D01*
X174993904Y-82779809D02*
X174993904Y-82271809D01*
X175042285Y-82344380D01*
X175090666Y-82392761D01*
X175139047Y-82416952D01*
X174389142Y-82271809D02*
X174631047Y-82271809D01*
X174655238Y-82513714D01*
X174631047Y-82489523D01*
X174582666Y-82465333D01*
X174461714Y-82465333D01*
X174413333Y-82489523D01*
X174389142Y-82513714D01*
X174364952Y-82562095D01*
X174364952Y-82683047D01*
X174389142Y-82731428D01*
X174413333Y-82755619D01*
X174461714Y-82779809D01*
X174582666Y-82779809D01*
X174631047Y-82755619D01*
X174655238Y-82731428D01*
X191443428Y-82779809D02*
X191443428Y-82271809D01*
X191443428Y-82465333D02*
X191395047Y-82441142D01*
X191298285Y-82441142D01*
X191249904Y-82465333D01*
X191225714Y-82489523D01*
X191201523Y-82537904D01*
X191201523Y-82683047D01*
X191225714Y-82731428D01*
X191249904Y-82755619D01*
X191298285Y-82779809D01*
X191395047Y-82779809D01*
X191443428Y-82755619D01*
X190983809Y-82441142D02*
X190983809Y-82949142D01*
X190983809Y-82465333D02*
X190935428Y-82441142D01*
X190838666Y-82441142D01*
X190790285Y-82465333D01*
X190766095Y-82489523D01*
X190741904Y-82537904D01*
X190741904Y-82683047D01*
X190766095Y-82731428D01*
X190790285Y-82755619D01*
X190838666Y-82779809D01*
X190935428Y-82779809D01*
X190983809Y-82755619D01*
X190524190Y-82779809D02*
X190524190Y-82271809D01*
X190306476Y-82779809D02*
X190306476Y-82513714D01*
X190330666Y-82465333D01*
X190379047Y-82441142D01*
X190451619Y-82441142D01*
X190500000Y-82465333D01*
X190524190Y-82489523D01*
X190064571Y-82731428D02*
X190040380Y-82755619D01*
X190064571Y-82779809D01*
X190088761Y-82755619D01*
X190064571Y-82731428D01*
X190064571Y-82779809D01*
X189532380Y-82779809D02*
X189701714Y-82537904D01*
X189822666Y-82779809D02*
X189822666Y-82271809D01*
X189629142Y-82271809D01*
X189580761Y-82296000D01*
X189556571Y-82320190D01*
X189532380Y-82368571D01*
X189532380Y-82441142D01*
X189556571Y-82489523D01*
X189580761Y-82513714D01*
X189629142Y-82537904D01*
X189822666Y-82537904D01*
X193765714Y-82779809D02*
X193765714Y-82513714D01*
X193789904Y-82465333D01*
X193838285Y-82441142D01*
X193935047Y-82441142D01*
X193983428Y-82465333D01*
X193765714Y-82755619D02*
X193814095Y-82779809D01*
X193935047Y-82779809D01*
X193983428Y-82755619D01*
X194007619Y-82707238D01*
X194007619Y-82658857D01*
X193983428Y-82610476D01*
X193935047Y-82586285D01*
X193814095Y-82586285D01*
X193765714Y-82562095D01*
X193523809Y-82441142D02*
X193523809Y-82949142D01*
X193523809Y-82465333D02*
X193475428Y-82441142D01*
X193378666Y-82441142D01*
X193330285Y-82465333D01*
X193306095Y-82489523D01*
X193281904Y-82537904D01*
X193281904Y-82683047D01*
X193306095Y-82731428D01*
X193330285Y-82755619D01*
X193378666Y-82779809D01*
X193475428Y-82779809D01*
X193523809Y-82755619D01*
X193064190Y-82779809D02*
X193064190Y-82271809D01*
X192846476Y-82779809D02*
X192846476Y-82513714D01*
X192870666Y-82465333D01*
X192919047Y-82441142D01*
X192991619Y-82441142D01*
X193040000Y-82465333D01*
X193064190Y-82489523D01*
X192604571Y-82731428D02*
X192580380Y-82755619D01*
X192604571Y-82779809D01*
X192628761Y-82755619D01*
X192604571Y-82731428D01*
X192604571Y-82779809D01*
X192072380Y-82779809D02*
X192241714Y-82537904D01*
X192362666Y-82779809D02*
X192362666Y-82271809D01*
X192169142Y-82271809D01*
X192120761Y-82296000D01*
X192096571Y-82320190D01*
X192072380Y-82368571D01*
X192072380Y-82441142D01*
X192096571Y-82489523D01*
X192120761Y-82513714D01*
X192169142Y-82537904D01*
X192362666Y-82537904D01*
X158133142Y-82779809D02*
X158133142Y-82441142D01*
X158133142Y-82537904D02*
X158108952Y-82489523D01*
X158084761Y-82465333D01*
X158036380Y-82441142D01*
X157988000Y-82441142D01*
X157818666Y-82731428D02*
X157794476Y-82755619D01*
X157818666Y-82779809D01*
X157842857Y-82755619D01*
X157818666Y-82731428D01*
X157818666Y-82779809D01*
X157576761Y-82779809D02*
X157576761Y-82441142D01*
X157576761Y-82271809D02*
X157600952Y-82296000D01*
X157576761Y-82320190D01*
X157552571Y-82296000D01*
X157576761Y-82271809D01*
X157576761Y-82320190D01*
X157334857Y-82441142D02*
X157334857Y-82779809D01*
X157334857Y-82489523D02*
X157310666Y-82465333D01*
X157262285Y-82441142D01*
X157189714Y-82441142D01*
X157141333Y-82465333D01*
X157117142Y-82513714D01*
X157117142Y-82779809D01*
X156947809Y-82441142D02*
X156754285Y-82441142D01*
X156875238Y-82271809D02*
X156875238Y-82707238D01*
X156851047Y-82755619D01*
X156802666Y-82779809D01*
X156754285Y-82779809D01*
X153234571Y-82779809D02*
X153234571Y-82441142D01*
X153234571Y-82271809D02*
X153258761Y-82296000D01*
X153234571Y-82320190D01*
X153210380Y-82296000D01*
X153234571Y-82271809D01*
X153234571Y-82320190D01*
X152920095Y-82779809D02*
X152968476Y-82755619D01*
X152992666Y-82707238D01*
X152992666Y-82271809D01*
X152654000Y-82779809D02*
X152702380Y-82755619D01*
X152726571Y-82707238D01*
X152726571Y-82271809D01*
X152242761Y-82441142D02*
X152242761Y-82779809D01*
X152460476Y-82441142D02*
X152460476Y-82707238D01*
X152436285Y-82755619D01*
X152387904Y-82779809D01*
X152315333Y-82779809D01*
X152266952Y-82755619D01*
X152242761Y-82731428D01*
X152000857Y-82779809D02*
X152000857Y-82441142D01*
X152000857Y-82489523D02*
X151976666Y-82465333D01*
X151928285Y-82441142D01*
X151855714Y-82441142D01*
X151807333Y-82465333D01*
X151783142Y-82513714D01*
X151783142Y-82779809D01*
X151783142Y-82513714D02*
X151758952Y-82465333D01*
X151710571Y-82441142D01*
X151638000Y-82441142D01*
X151589619Y-82465333D01*
X151565428Y-82513714D01*
X151565428Y-82779809D01*
X155496380Y-82779809D02*
X155544761Y-82755619D01*
X155568952Y-82707238D01*
X155568952Y-82271809D01*
X155302857Y-82731428D02*
X155278666Y-82755619D01*
X155302857Y-82779809D01*
X155327047Y-82755619D01*
X155302857Y-82731428D01*
X155302857Y-82779809D01*
X155060952Y-82779809D02*
X155060952Y-82441142D01*
X155060952Y-82271809D02*
X155085142Y-82296000D01*
X155060952Y-82320190D01*
X155036761Y-82296000D01*
X155060952Y-82271809D01*
X155060952Y-82320190D01*
X154819047Y-82441142D02*
X154819047Y-82779809D01*
X154819047Y-82489523D02*
X154794857Y-82465333D01*
X154746476Y-82441142D01*
X154673904Y-82441142D01*
X154625523Y-82465333D01*
X154601333Y-82513714D01*
X154601333Y-82779809D01*
X154432000Y-82441142D02*
X154238476Y-82441142D01*
X154359428Y-82271809D02*
X154359428Y-82707238D01*
X154335238Y-82755619D01*
X154286857Y-82779809D01*
X154238476Y-82779809D01*
X171050857Y-82779809D02*
X171050857Y-82271809D01*
X170857333Y-82271809D01*
X170808952Y-82296000D01*
X170784761Y-82320190D01*
X170760571Y-82368571D01*
X170760571Y-82441142D01*
X170784761Y-82489523D01*
X170808952Y-82513714D01*
X170857333Y-82537904D01*
X171050857Y-82537904D01*
X170373523Y-82513714D02*
X170300952Y-82537904D01*
X170276761Y-82562095D01*
X170252571Y-82610476D01*
X170252571Y-82683047D01*
X170276761Y-82731428D01*
X170300952Y-82755619D01*
X170349333Y-82779809D01*
X170542857Y-82779809D01*
X170542857Y-82271809D01*
X170373523Y-82271809D01*
X170325142Y-82296000D01*
X170300952Y-82320190D01*
X170276761Y-82368571D01*
X170276761Y-82416952D01*
X170300952Y-82465333D01*
X170325142Y-82489523D01*
X170373523Y-82513714D01*
X170542857Y-82513714D01*
X169768761Y-82779809D02*
X170059047Y-82779809D01*
X169913904Y-82779809D02*
X169913904Y-82271809D01*
X169962285Y-82344380D01*
X170010666Y-82392761D01*
X170059047Y-82416952D01*
X169309142Y-82271809D02*
X169551047Y-82271809D01*
X169575238Y-82513714D01*
X169551047Y-82489523D01*
X169502666Y-82465333D01*
X169381714Y-82465333D01*
X169333333Y-82489523D01*
X169309142Y-82513714D01*
X169284952Y-82562095D01*
X169284952Y-82683047D01*
X169309142Y-82731428D01*
X169333333Y-82755619D01*
X169381714Y-82779809D01*
X169502666Y-82779809D01*
X169551047Y-82755619D01*
X169575238Y-82731428D01*
X168668095Y-82755619D02*
X168619714Y-82779809D01*
X168522952Y-82779809D01*
X168474571Y-82755619D01*
X168450380Y-82707238D01*
X168450380Y-82683047D01*
X168474571Y-82634666D01*
X168522952Y-82610476D01*
X168595523Y-82610476D01*
X168643904Y-82586285D01*
X168668095Y-82537904D01*
X168668095Y-82513714D01*
X168643904Y-82465333D01*
X168595523Y-82441142D01*
X168522952Y-82441142D01*
X168474571Y-82465333D01*
X168160095Y-82779809D02*
X168208476Y-82755619D01*
X168232666Y-82731428D01*
X168256857Y-82683047D01*
X168256857Y-82537904D01*
X168232666Y-82489523D01*
X168208476Y-82465333D01*
X168160095Y-82441142D01*
X168087523Y-82441142D01*
X168039142Y-82465333D01*
X168014952Y-82489523D01*
X167990761Y-82537904D01*
X167990761Y-82683047D01*
X168014952Y-82731428D01*
X168039142Y-82755619D01*
X168087523Y-82779809D01*
X168160095Y-82779809D01*
X167555333Y-82441142D02*
X167555333Y-82779809D01*
X167773047Y-82441142D02*
X167773047Y-82707238D01*
X167748857Y-82755619D01*
X167700476Y-82779809D01*
X167627904Y-82779809D01*
X167579523Y-82755619D01*
X167555333Y-82731428D01*
X167313428Y-82441142D02*
X167313428Y-82779809D01*
X167313428Y-82489523D02*
X167289238Y-82465333D01*
X167240857Y-82441142D01*
X167168285Y-82441142D01*
X167119904Y-82465333D01*
X167095714Y-82513714D01*
X167095714Y-82779809D01*
X166636095Y-82779809D02*
X166636095Y-82271809D01*
X166636095Y-82755619D02*
X166684476Y-82779809D01*
X166781238Y-82779809D01*
X166829619Y-82755619D01*
X166853809Y-82731428D01*
X166878000Y-82683047D01*
X166878000Y-82537904D01*
X166853809Y-82489523D01*
X166829619Y-82465333D01*
X166781238Y-82441142D01*
X166684476Y-82441142D01*
X166636095Y-82465333D01*
X173590857Y-82779809D02*
X173590857Y-82271809D01*
X173397333Y-82271809D01*
X173348952Y-82296000D01*
X173324761Y-82320190D01*
X173300571Y-82368571D01*
X173300571Y-82441142D01*
X173324761Y-82489523D01*
X173348952Y-82513714D01*
X173397333Y-82537904D01*
X173590857Y-82537904D01*
X172913523Y-82513714D02*
X172840952Y-82537904D01*
X172816761Y-82562095D01*
X172792571Y-82610476D01*
X172792571Y-82683047D01*
X172816761Y-82731428D01*
X172840952Y-82755619D01*
X172889333Y-82779809D01*
X173082857Y-82779809D01*
X173082857Y-82271809D01*
X172913523Y-82271809D01*
X172865142Y-82296000D01*
X172840952Y-82320190D01*
X172816761Y-82368571D01*
X172816761Y-82416952D01*
X172840952Y-82465333D01*
X172865142Y-82489523D01*
X172913523Y-82513714D01*
X173082857Y-82513714D01*
X172308761Y-82779809D02*
X172599047Y-82779809D01*
X172453904Y-82779809D02*
X172453904Y-82271809D01*
X172502285Y-82344380D01*
X172550666Y-82392761D01*
X172599047Y-82416952D01*
X171873333Y-82441142D02*
X171873333Y-82779809D01*
X171994285Y-82247619D02*
X172115238Y-82610476D01*
X171800761Y-82610476D01*
X160606619Y-82755619D02*
X160558238Y-82779809D01*
X160461476Y-82779809D01*
X160413095Y-82755619D01*
X160388904Y-82707238D01*
X160388904Y-82683047D01*
X160413095Y-82634666D01*
X160461476Y-82610476D01*
X160534047Y-82610476D01*
X160582428Y-82586285D01*
X160606619Y-82537904D01*
X160606619Y-82513714D01*
X160582428Y-82465333D01*
X160534047Y-82441142D01*
X160461476Y-82441142D01*
X160413095Y-82465333D01*
X159953476Y-82755619D02*
X160001857Y-82779809D01*
X160098619Y-82779809D01*
X160147000Y-82755619D01*
X160171190Y-82731428D01*
X160195380Y-82683047D01*
X160195380Y-82537904D01*
X160171190Y-82489523D01*
X160147000Y-82465333D01*
X160098619Y-82441142D01*
X160001857Y-82441142D01*
X159953476Y-82465333D01*
X159663190Y-82779809D02*
X159711571Y-82755619D01*
X159735761Y-82707238D01*
X159735761Y-82271809D01*
X165614047Y-82296000D02*
X165662428Y-82271809D01*
X165735000Y-82271809D01*
X165807571Y-82296000D01*
X165855952Y-82344380D01*
X165880142Y-82392761D01*
X165904333Y-82489523D01*
X165904333Y-82562095D01*
X165880142Y-82658857D01*
X165855952Y-82707238D01*
X165807571Y-82755619D01*
X165735000Y-82779809D01*
X165686619Y-82779809D01*
X165614047Y-82755619D01*
X165589857Y-82731428D01*
X165589857Y-82562095D01*
X165686619Y-82562095D01*
X165372142Y-82779809D02*
X165372142Y-82271809D01*
X165081857Y-82779809D01*
X165081857Y-82271809D01*
X164839952Y-82779809D02*
X164839952Y-82271809D01*
X164719000Y-82271809D01*
X164646428Y-82296000D01*
X164598047Y-82344380D01*
X164573857Y-82392761D01*
X164549666Y-82489523D01*
X164549666Y-82562095D01*
X164573857Y-82658857D01*
X164598047Y-82707238D01*
X164646428Y-82755619D01*
X164719000Y-82779809D01*
X164839952Y-82779809D01*
X163128476Y-82755619D02*
X163080095Y-82779809D01*
X162983333Y-82779809D01*
X162934952Y-82755619D01*
X162910761Y-82707238D01*
X162910761Y-82683047D01*
X162934952Y-82634666D01*
X162983333Y-82610476D01*
X163055904Y-82610476D01*
X163104285Y-82586285D01*
X163128476Y-82537904D01*
X163128476Y-82513714D01*
X163104285Y-82465333D01*
X163055904Y-82441142D01*
X162983333Y-82441142D01*
X162934952Y-82465333D01*
X162475333Y-82779809D02*
X162475333Y-82271809D01*
X162475333Y-82755619D02*
X162523714Y-82779809D01*
X162620476Y-82779809D01*
X162668857Y-82755619D01*
X162693047Y-82731428D01*
X162717238Y-82683047D01*
X162717238Y-82537904D01*
X162693047Y-82489523D01*
X162668857Y-82465333D01*
X162620476Y-82441142D01*
X162523714Y-82441142D01*
X162475333Y-82465333D01*
X162015714Y-82779809D02*
X162015714Y-82513714D01*
X162039904Y-82465333D01*
X162088285Y-82441142D01*
X162185047Y-82441142D01*
X162233428Y-82465333D01*
X162015714Y-82755619D02*
X162064095Y-82779809D01*
X162185047Y-82779809D01*
X162233428Y-82755619D01*
X162257619Y-82707238D01*
X162257619Y-82658857D01*
X162233428Y-82610476D01*
X162185047Y-82586285D01*
X162064095Y-82586285D01*
X162015714Y-82562095D01*
D12*
X129667000Y-89232619D02*
X129667000Y-89474523D01*
X129908904Y-89377761D02*
X129667000Y-89474523D01*
X129425095Y-89377761D01*
X129812142Y-89668047D02*
X129667000Y-89474523D01*
X129521857Y-89668047D01*
X129667000Y-92407619D02*
X129667000Y-92649523D01*
X129908904Y-92552761D02*
X129667000Y-92649523D01*
X129425095Y-92552761D01*
X129812142Y-92843047D02*
X129667000Y-92649523D01*
X129521857Y-92843047D01*
D11*
X113344476Y-82755619D02*
X113296095Y-82779809D01*
X113199333Y-82779809D01*
X113150952Y-82755619D01*
X113126761Y-82707238D01*
X113126761Y-82683047D01*
X113150952Y-82634666D01*
X113199333Y-82610476D01*
X113271904Y-82610476D01*
X113320285Y-82586285D01*
X113344476Y-82537904D01*
X113344476Y-82513714D01*
X113320285Y-82465333D01*
X113271904Y-82441142D01*
X113199333Y-82441142D01*
X113150952Y-82465333D01*
X112691333Y-82779809D02*
X112691333Y-82271809D01*
X112691333Y-82755619D02*
X112739714Y-82779809D01*
X112836476Y-82779809D01*
X112884857Y-82755619D01*
X112909047Y-82731428D01*
X112933238Y-82683047D01*
X112933238Y-82537904D01*
X112909047Y-82489523D01*
X112884857Y-82465333D01*
X112836476Y-82441142D01*
X112739714Y-82441142D01*
X112691333Y-82465333D01*
X112231714Y-82779809D02*
X112231714Y-82513714D01*
X112255904Y-82465333D01*
X112304285Y-82441142D01*
X112401047Y-82441142D01*
X112449428Y-82465333D01*
X112231714Y-82755619D02*
X112280095Y-82779809D01*
X112401047Y-82779809D01*
X112449428Y-82755619D01*
X112473619Y-82707238D01*
X112473619Y-82658857D01*
X112449428Y-82610476D01*
X112401047Y-82586285D01*
X112280095Y-82586285D01*
X112231714Y-82562095D01*
X110822619Y-82755619D02*
X110774238Y-82779809D01*
X110677476Y-82779809D01*
X110629095Y-82755619D01*
X110604904Y-82707238D01*
X110604904Y-82683047D01*
X110629095Y-82634666D01*
X110677476Y-82610476D01*
X110750047Y-82610476D01*
X110798428Y-82586285D01*
X110822619Y-82537904D01*
X110822619Y-82513714D01*
X110798428Y-82465333D01*
X110750047Y-82441142D01*
X110677476Y-82441142D01*
X110629095Y-82465333D01*
X110169476Y-82755619D02*
X110217857Y-82779809D01*
X110314619Y-82779809D01*
X110363000Y-82755619D01*
X110387190Y-82731428D01*
X110411380Y-82683047D01*
X110411380Y-82537904D01*
X110387190Y-82489523D01*
X110363000Y-82465333D01*
X110314619Y-82441142D01*
X110217857Y-82441142D01*
X110169476Y-82465333D01*
X109879190Y-82779809D02*
X109927571Y-82755619D01*
X109951761Y-82707238D01*
X109951761Y-82271809D01*
X118884095Y-82755619D02*
X118835714Y-82779809D01*
X118738952Y-82779809D01*
X118690571Y-82755619D01*
X118666380Y-82707238D01*
X118666380Y-82683047D01*
X118690571Y-82634666D01*
X118738952Y-82610476D01*
X118811523Y-82610476D01*
X118859904Y-82586285D01*
X118884095Y-82537904D01*
X118884095Y-82513714D01*
X118859904Y-82465333D01*
X118811523Y-82441142D01*
X118738952Y-82441142D01*
X118690571Y-82465333D01*
X118376095Y-82779809D02*
X118424476Y-82755619D01*
X118448666Y-82731428D01*
X118472857Y-82683047D01*
X118472857Y-82537904D01*
X118448666Y-82489523D01*
X118424476Y-82465333D01*
X118376095Y-82441142D01*
X118303523Y-82441142D01*
X118255142Y-82465333D01*
X118230952Y-82489523D01*
X118206761Y-82537904D01*
X118206761Y-82683047D01*
X118230952Y-82731428D01*
X118255142Y-82755619D01*
X118303523Y-82779809D01*
X118376095Y-82779809D01*
X117771333Y-82441142D02*
X117771333Y-82779809D01*
X117989047Y-82441142D02*
X117989047Y-82707238D01*
X117964857Y-82755619D01*
X117916476Y-82779809D01*
X117843904Y-82779809D01*
X117795523Y-82755619D01*
X117771333Y-82731428D01*
X117529428Y-82441142D02*
X117529428Y-82779809D01*
X117529428Y-82489523D02*
X117505238Y-82465333D01*
X117456857Y-82441142D01*
X117384285Y-82441142D01*
X117335904Y-82465333D01*
X117311714Y-82513714D01*
X117311714Y-82779809D01*
X116852095Y-82779809D02*
X116852095Y-82271809D01*
X116852095Y-82755619D02*
X116900476Y-82779809D01*
X116997238Y-82779809D01*
X117045619Y-82755619D01*
X117069809Y-82731428D01*
X117094000Y-82683047D01*
X117094000Y-82537904D01*
X117069809Y-82489523D01*
X117045619Y-82465333D01*
X116997238Y-82441142D01*
X116900476Y-82441142D01*
X116852095Y-82465333D01*
X115830047Y-82296000D02*
X115878428Y-82271809D01*
X115951000Y-82271809D01*
X116023571Y-82296000D01*
X116071952Y-82344380D01*
X116096142Y-82392761D01*
X116120333Y-82489523D01*
X116120333Y-82562095D01*
X116096142Y-82658857D01*
X116071952Y-82707238D01*
X116023571Y-82755619D01*
X115951000Y-82779809D01*
X115902619Y-82779809D01*
X115830047Y-82755619D01*
X115805857Y-82731428D01*
X115805857Y-82562095D01*
X115902619Y-82562095D01*
X115588142Y-82779809D02*
X115588142Y-82271809D01*
X115297857Y-82779809D01*
X115297857Y-82271809D01*
X115055952Y-82779809D02*
X115055952Y-82271809D01*
X114935000Y-82271809D01*
X114862428Y-82296000D01*
X114814047Y-82344380D01*
X114789857Y-82392761D01*
X114765666Y-82489523D01*
X114765666Y-82562095D01*
X114789857Y-82658857D01*
X114814047Y-82707238D01*
X114862428Y-82755619D01*
X114935000Y-82779809D01*
X115055952Y-82779809D01*
X103450571Y-82779809D02*
X103450571Y-82441142D01*
X103450571Y-82271809D02*
X103474761Y-82296000D01*
X103450571Y-82320190D01*
X103426380Y-82296000D01*
X103450571Y-82271809D01*
X103450571Y-82320190D01*
X103136095Y-82779809D02*
X103184476Y-82755619D01*
X103208666Y-82707238D01*
X103208666Y-82271809D01*
X102870000Y-82779809D02*
X102918380Y-82755619D01*
X102942571Y-82707238D01*
X102942571Y-82271809D01*
X102458761Y-82441142D02*
X102458761Y-82779809D01*
X102676476Y-82441142D02*
X102676476Y-82707238D01*
X102652285Y-82755619D01*
X102603904Y-82779809D01*
X102531333Y-82779809D01*
X102482952Y-82755619D01*
X102458761Y-82731428D01*
X102216857Y-82779809D02*
X102216857Y-82441142D01*
X102216857Y-82489523D02*
X102192666Y-82465333D01*
X102144285Y-82441142D01*
X102071714Y-82441142D01*
X102023333Y-82465333D01*
X101999142Y-82513714D01*
X101999142Y-82779809D01*
X101999142Y-82513714D02*
X101974952Y-82465333D01*
X101926571Y-82441142D01*
X101854000Y-82441142D01*
X101805619Y-82465333D01*
X101781428Y-82513714D01*
X101781428Y-82779809D01*
X105712380Y-82779809D02*
X105760761Y-82755619D01*
X105784952Y-82707238D01*
X105784952Y-82271809D01*
X105518857Y-82731428D02*
X105494666Y-82755619D01*
X105518857Y-82779809D01*
X105543047Y-82755619D01*
X105518857Y-82731428D01*
X105518857Y-82779809D01*
X105276952Y-82779809D02*
X105276952Y-82441142D01*
X105276952Y-82271809D02*
X105301142Y-82296000D01*
X105276952Y-82320190D01*
X105252761Y-82296000D01*
X105276952Y-82271809D01*
X105276952Y-82320190D01*
X105035047Y-82441142D02*
X105035047Y-82779809D01*
X105035047Y-82489523D02*
X105010857Y-82465333D01*
X104962476Y-82441142D01*
X104889904Y-82441142D01*
X104841523Y-82465333D01*
X104817333Y-82513714D01*
X104817333Y-82779809D01*
X104648000Y-82441142D02*
X104454476Y-82441142D01*
X104575428Y-82271809D02*
X104575428Y-82707238D01*
X104551238Y-82755619D01*
X104502857Y-82779809D01*
X104454476Y-82779809D01*
X108349142Y-82779809D02*
X108349142Y-82441142D01*
X108349142Y-82537904D02*
X108324952Y-82489523D01*
X108300761Y-82465333D01*
X108252380Y-82441142D01*
X108204000Y-82441142D01*
X108034666Y-82731428D02*
X108010476Y-82755619D01*
X108034666Y-82779809D01*
X108058857Y-82755619D01*
X108034666Y-82731428D01*
X108034666Y-82779809D01*
X107792761Y-82779809D02*
X107792761Y-82441142D01*
X107792761Y-82271809D02*
X107816952Y-82296000D01*
X107792761Y-82320190D01*
X107768571Y-82296000D01*
X107792761Y-82271809D01*
X107792761Y-82320190D01*
X107550857Y-82441142D02*
X107550857Y-82779809D01*
X107550857Y-82489523D02*
X107526666Y-82465333D01*
X107478285Y-82441142D01*
X107405714Y-82441142D01*
X107357333Y-82465333D01*
X107333142Y-82513714D01*
X107333142Y-82779809D01*
X107163809Y-82441142D02*
X106970285Y-82441142D01*
X107091238Y-82271809D02*
X107091238Y-82707238D01*
X107067047Y-82755619D01*
X107018666Y-82779809D01*
X106970285Y-82779809D01*
X123806857Y-82779809D02*
X123806857Y-82271809D01*
X123613333Y-82271809D01*
X123564952Y-82296000D01*
X123540761Y-82320190D01*
X123516571Y-82368571D01*
X123516571Y-82441142D01*
X123540761Y-82489523D01*
X123564952Y-82513714D01*
X123613333Y-82537904D01*
X123806857Y-82537904D01*
X123129523Y-82513714D02*
X123056952Y-82537904D01*
X123032761Y-82562095D01*
X123008571Y-82610476D01*
X123008571Y-82683047D01*
X123032761Y-82731428D01*
X123056952Y-82755619D01*
X123105333Y-82779809D01*
X123298857Y-82779809D01*
X123298857Y-82271809D01*
X123129523Y-82271809D01*
X123081142Y-82296000D01*
X123056952Y-82320190D01*
X123032761Y-82368571D01*
X123032761Y-82416952D01*
X123056952Y-82465333D01*
X123081142Y-82489523D01*
X123129523Y-82513714D01*
X123298857Y-82513714D01*
X122524761Y-82779809D02*
X122815047Y-82779809D01*
X122669904Y-82779809D02*
X122669904Y-82271809D01*
X122718285Y-82344380D01*
X122766666Y-82392761D01*
X122815047Y-82416952D01*
X122089333Y-82441142D02*
X122089333Y-82779809D01*
X122210285Y-82247619D02*
X122331238Y-82610476D01*
X122016761Y-82610476D01*
X121266857Y-82779809D02*
X121266857Y-82271809D01*
X121073333Y-82271809D01*
X121024952Y-82296000D01*
X121000761Y-82320190D01*
X120976571Y-82368571D01*
X120976571Y-82441142D01*
X121000761Y-82489523D01*
X121024952Y-82513714D01*
X121073333Y-82537904D01*
X121266857Y-82537904D01*
X120589523Y-82513714D02*
X120516952Y-82537904D01*
X120492761Y-82562095D01*
X120468571Y-82610476D01*
X120468571Y-82683047D01*
X120492761Y-82731428D01*
X120516952Y-82755619D01*
X120565333Y-82779809D01*
X120758857Y-82779809D01*
X120758857Y-82271809D01*
X120589523Y-82271809D01*
X120541142Y-82296000D01*
X120516952Y-82320190D01*
X120492761Y-82368571D01*
X120492761Y-82416952D01*
X120516952Y-82465333D01*
X120541142Y-82489523D01*
X120589523Y-82513714D01*
X120758857Y-82513714D01*
X119984761Y-82779809D02*
X120275047Y-82779809D01*
X120129904Y-82779809D02*
X120129904Y-82271809D01*
X120178285Y-82344380D01*
X120226666Y-82392761D01*
X120275047Y-82416952D01*
X119525142Y-82271809D02*
X119767047Y-82271809D01*
X119791238Y-82513714D01*
X119767047Y-82489523D01*
X119718666Y-82465333D01*
X119597714Y-82465333D01*
X119549333Y-82489523D01*
X119525142Y-82513714D01*
X119500952Y-82562095D01*
X119500952Y-82683047D01*
X119525142Y-82731428D01*
X119549333Y-82755619D01*
X119597714Y-82779809D01*
X119718666Y-82779809D01*
X119767047Y-82755619D01*
X119791238Y-82731428D01*
X128886857Y-82779809D02*
X128886857Y-82271809D01*
X128693333Y-82271809D01*
X128644952Y-82296000D01*
X128620761Y-82320190D01*
X128596571Y-82368571D01*
X128596571Y-82441142D01*
X128620761Y-82489523D01*
X128644952Y-82513714D01*
X128693333Y-82537904D01*
X128886857Y-82537904D01*
X128088571Y-82731428D02*
X128112761Y-82755619D01*
X128185333Y-82779809D01*
X128233714Y-82779809D01*
X128306285Y-82755619D01*
X128354666Y-82707238D01*
X128378857Y-82658857D01*
X128403047Y-82562095D01*
X128403047Y-82489523D01*
X128378857Y-82392761D01*
X128354666Y-82344380D01*
X128306285Y-82296000D01*
X128233714Y-82271809D01*
X128185333Y-82271809D01*
X128112761Y-82296000D01*
X128088571Y-82320190D01*
X127604761Y-82779809D02*
X127895047Y-82779809D01*
X127749904Y-82779809D02*
X127749904Y-82271809D01*
X127798285Y-82344380D01*
X127846666Y-82392761D01*
X127895047Y-82416952D01*
X127169333Y-82441142D02*
X127169333Y-82779809D01*
X127290285Y-82247619D02*
X127411238Y-82610476D01*
X127096761Y-82610476D01*
X126346857Y-82779809D02*
X126346857Y-82271809D01*
X126153333Y-82271809D01*
X126104952Y-82296000D01*
X126080761Y-82320190D01*
X126056571Y-82368571D01*
X126056571Y-82441142D01*
X126080761Y-82489523D01*
X126104952Y-82513714D01*
X126153333Y-82537904D01*
X126346857Y-82537904D01*
X125548571Y-82731428D02*
X125572761Y-82755619D01*
X125645333Y-82779809D01*
X125693714Y-82779809D01*
X125766285Y-82755619D01*
X125814666Y-82707238D01*
X125838857Y-82658857D01*
X125863047Y-82562095D01*
X125863047Y-82489523D01*
X125838857Y-82392761D01*
X125814666Y-82344380D01*
X125766285Y-82296000D01*
X125693714Y-82271809D01*
X125645333Y-82271809D01*
X125572761Y-82296000D01*
X125548571Y-82320190D01*
X125064761Y-82779809D02*
X125355047Y-82779809D01*
X125209904Y-82779809D02*
X125209904Y-82271809D01*
X125258285Y-82344380D01*
X125306666Y-82392761D01*
X125355047Y-82416952D01*
X124605142Y-82271809D02*
X124847047Y-82271809D01*
X124871238Y-82513714D01*
X124847047Y-82489523D01*
X124798666Y-82465333D01*
X124677714Y-82465333D01*
X124629333Y-82489523D01*
X124605142Y-82513714D01*
X124580952Y-82562095D01*
X124580952Y-82683047D01*
X124605142Y-82731428D01*
X124629333Y-82755619D01*
X124677714Y-82779809D01*
X124798666Y-82779809D01*
X124847047Y-82755619D01*
X124871238Y-82731428D01*
X133749142Y-82586285D02*
X133362095Y-82586285D01*
X133555619Y-82779809D02*
X133555619Y-82392761D01*
X132878285Y-82271809D02*
X133120190Y-82271809D01*
X133144380Y-82513714D01*
X133120190Y-82489523D01*
X133071809Y-82465333D01*
X132950857Y-82465333D01*
X132902476Y-82489523D01*
X132878285Y-82513714D01*
X132854095Y-82562095D01*
X132854095Y-82683047D01*
X132878285Y-82731428D01*
X132902476Y-82755619D01*
X132950857Y-82779809D01*
X133071809Y-82779809D01*
X133120190Y-82755619D01*
X133144380Y-82731428D01*
X132708952Y-82271809D02*
X132539619Y-82779809D01*
X132370285Y-82271809D01*
X131426857Y-82779809D02*
X131426857Y-82271809D01*
X131233333Y-82271809D01*
X131184952Y-82296000D01*
X131160761Y-82320190D01*
X131136571Y-82368571D01*
X131136571Y-82441142D01*
X131160761Y-82489523D01*
X131184952Y-82513714D01*
X131233333Y-82537904D01*
X131426857Y-82537904D01*
X130628571Y-82731428D02*
X130652761Y-82755619D01*
X130725333Y-82779809D01*
X130773714Y-82779809D01*
X130846285Y-82755619D01*
X130894666Y-82707238D01*
X130918857Y-82658857D01*
X130943047Y-82562095D01*
X130943047Y-82489523D01*
X130918857Y-82392761D01*
X130894666Y-82344380D01*
X130846285Y-82296000D01*
X130773714Y-82271809D01*
X130725333Y-82271809D01*
X130652761Y-82296000D01*
X130628571Y-82320190D01*
X130144761Y-82779809D02*
X130435047Y-82779809D01*
X130289904Y-82779809D02*
X130289904Y-82271809D01*
X130338285Y-82344380D01*
X130386666Y-82392761D01*
X130435047Y-82416952D01*
X129975428Y-82271809D02*
X129660952Y-82271809D01*
X129830285Y-82465333D01*
X129757714Y-82465333D01*
X129709333Y-82489523D01*
X129685142Y-82513714D01*
X129660952Y-82562095D01*
X129660952Y-82683047D01*
X129685142Y-82731428D01*
X129709333Y-82755619D01*
X129757714Y-82779809D01*
X129902857Y-82779809D01*
X129951238Y-82755619D01*
X129975428Y-82731428D01*
X136567333Y-82779809D02*
X136567333Y-82271809D01*
X136567333Y-82465333D02*
X136518952Y-82441142D01*
X136422190Y-82441142D01*
X136373809Y-82465333D01*
X136349619Y-82489523D01*
X136325428Y-82537904D01*
X136325428Y-82683047D01*
X136349619Y-82731428D01*
X136373809Y-82755619D01*
X136422190Y-82779809D01*
X136518952Y-82779809D01*
X136567333Y-82755619D01*
X135914190Y-82755619D02*
X135962571Y-82779809D01*
X136059333Y-82779809D01*
X136107714Y-82755619D01*
X136131904Y-82707238D01*
X136131904Y-82513714D01*
X136107714Y-82465333D01*
X136059333Y-82441142D01*
X135962571Y-82441142D01*
X135914190Y-82465333D01*
X135890000Y-82513714D01*
X135890000Y-82562095D01*
X136131904Y-82610476D01*
X135672285Y-82441142D02*
X135672285Y-82779809D01*
X135672285Y-82489523D02*
X135648095Y-82465333D01*
X135599714Y-82441142D01*
X135527142Y-82441142D01*
X135478761Y-82465333D01*
X135454571Y-82513714D01*
X135454571Y-82779809D01*
X135212666Y-82731428D02*
X135188476Y-82755619D01*
X135212666Y-82779809D01*
X135236857Y-82755619D01*
X135212666Y-82731428D01*
X135212666Y-82779809D01*
X134680476Y-82779809D02*
X134849809Y-82537904D01*
X134970761Y-82779809D02*
X134970761Y-82271809D01*
X134777238Y-82271809D01*
X134728857Y-82296000D01*
X134704666Y-82320190D01*
X134680476Y-82368571D01*
X134680476Y-82441142D01*
X134704666Y-82489523D01*
X134728857Y-82513714D01*
X134777238Y-82537904D01*
X134970761Y-82537904D01*
X138889619Y-82779809D02*
X138889619Y-82513714D01*
X138913809Y-82465333D01*
X138962190Y-82441142D01*
X139058952Y-82441142D01*
X139107333Y-82465333D01*
X138889619Y-82755619D02*
X138938000Y-82779809D01*
X139058952Y-82779809D01*
X139107333Y-82755619D01*
X139131523Y-82707238D01*
X139131523Y-82658857D01*
X139107333Y-82610476D01*
X139058952Y-82586285D01*
X138938000Y-82586285D01*
X138889619Y-82562095D01*
X138454190Y-82755619D02*
X138502571Y-82779809D01*
X138599333Y-82779809D01*
X138647714Y-82755619D01*
X138671904Y-82707238D01*
X138671904Y-82513714D01*
X138647714Y-82465333D01*
X138599333Y-82441142D01*
X138502571Y-82441142D01*
X138454190Y-82465333D01*
X138430000Y-82513714D01*
X138430000Y-82562095D01*
X138671904Y-82610476D01*
X138212285Y-82441142D02*
X138212285Y-82779809D01*
X138212285Y-82489523D02*
X138188095Y-82465333D01*
X138139714Y-82441142D01*
X138067142Y-82441142D01*
X138018761Y-82465333D01*
X137994571Y-82513714D01*
X137994571Y-82779809D01*
X137752666Y-82731428D02*
X137728476Y-82755619D01*
X137752666Y-82779809D01*
X137776857Y-82755619D01*
X137752666Y-82731428D01*
X137752666Y-82779809D01*
X137220476Y-82779809D02*
X137389809Y-82537904D01*
X137510761Y-82779809D02*
X137510761Y-82271809D01*
X137317238Y-82271809D01*
X137268857Y-82296000D01*
X137244666Y-82320190D01*
X137220476Y-82368571D01*
X137220476Y-82441142D01*
X137244666Y-82489523D01*
X137268857Y-82513714D01*
X137317238Y-82537904D01*
X137510761Y-82537904D01*
X143981714Y-82779809D02*
X143981714Y-82513714D01*
X144005904Y-82465333D01*
X144054285Y-82441142D01*
X144151047Y-82441142D01*
X144199428Y-82465333D01*
X143981714Y-82755619D02*
X144030095Y-82779809D01*
X144151047Y-82779809D01*
X144199428Y-82755619D01*
X144223619Y-82707238D01*
X144223619Y-82658857D01*
X144199428Y-82610476D01*
X144151047Y-82586285D01*
X144030095Y-82586285D01*
X143981714Y-82562095D01*
X143739809Y-82441142D02*
X143739809Y-82949142D01*
X143739809Y-82465333D02*
X143691428Y-82441142D01*
X143594666Y-82441142D01*
X143546285Y-82465333D01*
X143522095Y-82489523D01*
X143497904Y-82537904D01*
X143497904Y-82683047D01*
X143522095Y-82731428D01*
X143546285Y-82755619D01*
X143594666Y-82779809D01*
X143691428Y-82779809D01*
X143739809Y-82755619D01*
X143280190Y-82779809D02*
X143280190Y-82271809D01*
X143062476Y-82779809D02*
X143062476Y-82513714D01*
X143086666Y-82465333D01*
X143135047Y-82441142D01*
X143207619Y-82441142D01*
X143256000Y-82465333D01*
X143280190Y-82489523D01*
X142820571Y-82731428D02*
X142796380Y-82755619D01*
X142820571Y-82779809D01*
X142844761Y-82755619D01*
X142820571Y-82731428D01*
X142820571Y-82779809D01*
X142288380Y-82779809D02*
X142457714Y-82537904D01*
X142578666Y-82779809D02*
X142578666Y-82271809D01*
X142385142Y-82271809D01*
X142336761Y-82296000D01*
X142312571Y-82320190D01*
X142288380Y-82368571D01*
X142288380Y-82441142D01*
X142312571Y-82489523D01*
X142336761Y-82513714D01*
X142385142Y-82537904D01*
X142578666Y-82537904D01*
X141659428Y-82779809D02*
X141659428Y-82271809D01*
X141659428Y-82465333D02*
X141611047Y-82441142D01*
X141514285Y-82441142D01*
X141465904Y-82465333D01*
X141441714Y-82489523D01*
X141417523Y-82537904D01*
X141417523Y-82683047D01*
X141441714Y-82731428D01*
X141465904Y-82755619D01*
X141514285Y-82779809D01*
X141611047Y-82779809D01*
X141659428Y-82755619D01*
X141199809Y-82441142D02*
X141199809Y-82949142D01*
X141199809Y-82465333D02*
X141151428Y-82441142D01*
X141054666Y-82441142D01*
X141006285Y-82465333D01*
X140982095Y-82489523D01*
X140957904Y-82537904D01*
X140957904Y-82683047D01*
X140982095Y-82731428D01*
X141006285Y-82755619D01*
X141054666Y-82779809D01*
X141151428Y-82779809D01*
X141199809Y-82755619D01*
X140740190Y-82779809D02*
X140740190Y-82271809D01*
X140522476Y-82779809D02*
X140522476Y-82513714D01*
X140546666Y-82465333D01*
X140595047Y-82441142D01*
X140667619Y-82441142D01*
X140716000Y-82465333D01*
X140740190Y-82489523D01*
X140280571Y-82731428D02*
X140256380Y-82755619D01*
X140280571Y-82779809D01*
X140304761Y-82755619D01*
X140280571Y-82731428D01*
X140280571Y-82779809D01*
X139748380Y-82779809D02*
X139917714Y-82537904D01*
X140038666Y-82779809D02*
X140038666Y-82271809D01*
X139845142Y-82271809D01*
X139796761Y-82296000D01*
X139772571Y-82320190D01*
X139748380Y-82368571D01*
X139748380Y-82441142D01*
X139772571Y-82489523D01*
X139796761Y-82513714D01*
X139845142Y-82537904D01*
X140038666Y-82537904D01*
X103045380Y-108639428D02*
X103069571Y-108663619D01*
X103142142Y-108687809D01*
X103190523Y-108687809D01*
X103263095Y-108663619D01*
X103311476Y-108615238D01*
X103335666Y-108566857D01*
X103359857Y-108470095D01*
X103359857Y-108397523D01*
X103335666Y-108300761D01*
X103311476Y-108252380D01*
X103263095Y-108204000D01*
X103190523Y-108179809D01*
X103142142Y-108179809D01*
X103069571Y-108204000D01*
X103045380Y-108228190D01*
X102585761Y-108687809D02*
X102827666Y-108687809D01*
X102827666Y-108179809D01*
X102416428Y-108687809D02*
X102416428Y-108179809D01*
X102126142Y-108687809D02*
X102343857Y-108397523D01*
X102126142Y-108179809D02*
X102416428Y-108470095D01*
X144060333Y-108687809D02*
X144060333Y-108421714D01*
X144084523Y-108373333D01*
X144132904Y-108349142D01*
X144229666Y-108349142D01*
X144278047Y-108373333D01*
X144060333Y-108663619D02*
X144108714Y-108687809D01*
X144229666Y-108687809D01*
X144278047Y-108663619D01*
X144302238Y-108615238D01*
X144302238Y-108566857D01*
X144278047Y-108518476D01*
X144229666Y-108494285D01*
X144108714Y-108494285D01*
X144060333Y-108470095D01*
X143818428Y-108349142D02*
X143818428Y-108857142D01*
X143818428Y-108373333D02*
X143770047Y-108349142D01*
X143673285Y-108349142D01*
X143624904Y-108373333D01*
X143600714Y-108397523D01*
X143576523Y-108445904D01*
X143576523Y-108591047D01*
X143600714Y-108639428D01*
X143624904Y-108663619D01*
X143673285Y-108687809D01*
X143770047Y-108687809D01*
X143818428Y-108663619D01*
X143358809Y-108687809D02*
X143358809Y-108179809D01*
X143141095Y-108687809D02*
X143141095Y-108421714D01*
X143165285Y-108373333D01*
X143213666Y-108349142D01*
X143286238Y-108349142D01*
X143334619Y-108373333D01*
X143358809Y-108397523D01*
X142899190Y-108639428D02*
X142875000Y-108663619D01*
X142899190Y-108687809D01*
X142923380Y-108663619D01*
X142899190Y-108639428D01*
X142899190Y-108687809D01*
X142415380Y-108687809D02*
X142657285Y-108687809D01*
X142657285Y-108179809D01*
X115527666Y-108687809D02*
X115697000Y-108445904D01*
X115817952Y-108687809D02*
X115817952Y-108179809D01*
X115624428Y-108179809D01*
X115576047Y-108204000D01*
X115551857Y-108228190D01*
X115527666Y-108276571D01*
X115527666Y-108349142D01*
X115551857Y-108397523D01*
X115576047Y-108421714D01*
X115624428Y-108445904D01*
X115817952Y-108445904D01*
X115358333Y-108179809D02*
X115019666Y-108687809D01*
X115019666Y-108179809D02*
X115358333Y-108687809D01*
X118370047Y-108179809D02*
X118079761Y-108179809D01*
X118224904Y-108687809D02*
X118224904Y-108179809D01*
X117958809Y-108179809D02*
X117620142Y-108687809D01*
X117620142Y-108179809D02*
X117958809Y-108687809D01*
X121139857Y-108349142D02*
X121139857Y-108687809D01*
X121139857Y-108397523D02*
X121115666Y-108373333D01*
X121067285Y-108349142D01*
X120994714Y-108349142D01*
X120946333Y-108373333D01*
X120922142Y-108421714D01*
X120922142Y-108687809D01*
X120680238Y-108687809D02*
X120680238Y-108349142D01*
X120680238Y-108445904D02*
X120656047Y-108397523D01*
X120631857Y-108373333D01*
X120583476Y-108349142D01*
X120535095Y-108349142D01*
X120389952Y-108663619D02*
X120341571Y-108687809D01*
X120244809Y-108687809D01*
X120196428Y-108663619D01*
X120172238Y-108615238D01*
X120172238Y-108591047D01*
X120196428Y-108542666D01*
X120244809Y-108518476D01*
X120317380Y-108518476D01*
X120365761Y-108494285D01*
X120389952Y-108445904D01*
X120389952Y-108421714D01*
X120365761Y-108373333D01*
X120317380Y-108349142D01*
X120244809Y-108349142D01*
X120196428Y-108373333D01*
X120027095Y-108349142D02*
X119833571Y-108349142D01*
X119954523Y-108179809D02*
X119954523Y-108615238D01*
X119930333Y-108663619D01*
X119881952Y-108687809D01*
X119833571Y-108687809D01*
X123558904Y-108687809D02*
X123558904Y-108179809D01*
X123026714Y-108687809D02*
X123196047Y-108445904D01*
X123317000Y-108687809D02*
X123317000Y-108179809D01*
X123123476Y-108179809D01*
X123075095Y-108204000D01*
X123050904Y-108228190D01*
X123026714Y-108276571D01*
X123026714Y-108349142D01*
X123050904Y-108397523D01*
X123075095Y-108421714D01*
X123123476Y-108445904D01*
X123317000Y-108445904D01*
X122833190Y-108663619D02*
X122760619Y-108687809D01*
X122639666Y-108687809D01*
X122591285Y-108663619D01*
X122567095Y-108639428D01*
X122542904Y-108591047D01*
X122542904Y-108542666D01*
X122567095Y-108494285D01*
X122591285Y-108470095D01*
X122639666Y-108445904D01*
X122736428Y-108421714D01*
X122784809Y-108397523D01*
X122809000Y-108373333D01*
X122833190Y-108324952D01*
X122833190Y-108276571D01*
X122809000Y-108228190D01*
X122784809Y-108204000D01*
X122736428Y-108179809D01*
X122615476Y-108179809D01*
X122542904Y-108204000D01*
X126111000Y-108687809D02*
X126111000Y-108179809D01*
X125578809Y-108687809D02*
X125748142Y-108445904D01*
X125869095Y-108687809D02*
X125869095Y-108179809D01*
X125675571Y-108179809D01*
X125627190Y-108204000D01*
X125603000Y-108228190D01*
X125578809Y-108276571D01*
X125578809Y-108349142D01*
X125603000Y-108397523D01*
X125627190Y-108421714D01*
X125675571Y-108445904D01*
X125869095Y-108445904D01*
X125070809Y-108639428D02*
X125095000Y-108663619D01*
X125167571Y-108687809D01*
X125215952Y-108687809D01*
X125288523Y-108663619D01*
X125336904Y-108615238D01*
X125361095Y-108566857D01*
X125385285Y-108470095D01*
X125385285Y-108397523D01*
X125361095Y-108300761D01*
X125336904Y-108252380D01*
X125288523Y-108204000D01*
X125215952Y-108179809D01*
X125167571Y-108179809D01*
X125095000Y-108204000D01*
X125070809Y-108228190D01*
X105670047Y-108204000D02*
X105718428Y-108179809D01*
X105791000Y-108179809D01*
X105863571Y-108204000D01*
X105911952Y-108252380D01*
X105936142Y-108300761D01*
X105960333Y-108397523D01*
X105960333Y-108470095D01*
X105936142Y-108566857D01*
X105911952Y-108615238D01*
X105863571Y-108663619D01*
X105791000Y-108687809D01*
X105742619Y-108687809D01*
X105670047Y-108663619D01*
X105645857Y-108639428D01*
X105645857Y-108470095D01*
X105742619Y-108470095D01*
X105428142Y-108687809D02*
X105428142Y-108179809D01*
X105137857Y-108687809D01*
X105137857Y-108179809D01*
X104895952Y-108687809D02*
X104895952Y-108179809D01*
X104775000Y-108179809D01*
X104702428Y-108204000D01*
X104654047Y-108252380D01*
X104629857Y-108300761D01*
X104605666Y-108397523D01*
X104605666Y-108470095D01*
X104629857Y-108566857D01*
X104654047Y-108615238D01*
X104702428Y-108663619D01*
X104775000Y-108687809D01*
X104895952Y-108687809D01*
X111118952Y-108179809D02*
X110804476Y-108179809D01*
X110973809Y-108373333D01*
X110901238Y-108373333D01*
X110852857Y-108397523D01*
X110828666Y-108421714D01*
X110804476Y-108470095D01*
X110804476Y-108591047D01*
X110828666Y-108639428D01*
X110852857Y-108663619D01*
X110901238Y-108687809D01*
X111046380Y-108687809D01*
X111094761Y-108663619D01*
X111118952Y-108639428D01*
X110659333Y-108179809D02*
X110490000Y-108687809D01*
X110320666Y-108179809D01*
X110199714Y-108179809D02*
X109885238Y-108179809D01*
X110054571Y-108373333D01*
X109982000Y-108373333D01*
X109933619Y-108397523D01*
X109909428Y-108421714D01*
X109885238Y-108470095D01*
X109885238Y-108591047D01*
X109909428Y-108639428D01*
X109933619Y-108663619D01*
X109982000Y-108687809D01*
X110127142Y-108687809D01*
X110175523Y-108663619D01*
X110199714Y-108639428D01*
X113471476Y-108421714D02*
X113398904Y-108445904D01*
X113374714Y-108470095D01*
X113350523Y-108518476D01*
X113350523Y-108591047D01*
X113374714Y-108639428D01*
X113398904Y-108663619D01*
X113447285Y-108687809D01*
X113640809Y-108687809D01*
X113640809Y-108179809D01*
X113471476Y-108179809D01*
X113423095Y-108204000D01*
X113398904Y-108228190D01*
X113374714Y-108276571D01*
X113374714Y-108324952D01*
X113398904Y-108373333D01*
X113423095Y-108397523D01*
X113471476Y-108421714D01*
X113640809Y-108421714D01*
X113157000Y-108542666D02*
X112915095Y-108542666D01*
X113205380Y-108687809D02*
X113036047Y-108179809D01*
X112866714Y-108687809D01*
X112769952Y-108179809D02*
X112479666Y-108179809D01*
X112624809Y-108687809D02*
X112624809Y-108179809D01*
X112382904Y-108179809D02*
X112092619Y-108179809D01*
X112237761Y-108687809D02*
X112237761Y-108179809D01*
X107962095Y-108687809D02*
X107962095Y-108179809D01*
X107623428Y-108179809D02*
X107526666Y-108179809D01*
X107478285Y-108204000D01*
X107429904Y-108252380D01*
X107405714Y-108349142D01*
X107405714Y-108518476D01*
X107429904Y-108615238D01*
X107478285Y-108663619D01*
X107526666Y-108687809D01*
X107623428Y-108687809D01*
X107671809Y-108663619D01*
X107720190Y-108615238D01*
X107744380Y-108518476D01*
X107744380Y-108349142D01*
X107720190Y-108252380D01*
X107671809Y-108204000D01*
X107623428Y-108179809D01*
X138968238Y-108687809D02*
X138968238Y-108421714D01*
X138992428Y-108373333D01*
X139040809Y-108349142D01*
X139137571Y-108349142D01*
X139185952Y-108373333D01*
X138968238Y-108663619D02*
X139016619Y-108687809D01*
X139137571Y-108687809D01*
X139185952Y-108663619D01*
X139210142Y-108615238D01*
X139210142Y-108566857D01*
X139185952Y-108518476D01*
X139137571Y-108494285D01*
X139016619Y-108494285D01*
X138968238Y-108470095D01*
X138532809Y-108663619D02*
X138581190Y-108687809D01*
X138677952Y-108687809D01*
X138726333Y-108663619D01*
X138750523Y-108615238D01*
X138750523Y-108421714D01*
X138726333Y-108373333D01*
X138677952Y-108349142D01*
X138581190Y-108349142D01*
X138532809Y-108373333D01*
X138508619Y-108421714D01*
X138508619Y-108470095D01*
X138750523Y-108518476D01*
X138290904Y-108349142D02*
X138290904Y-108687809D01*
X138290904Y-108397523D02*
X138266714Y-108373333D01*
X138218333Y-108349142D01*
X138145761Y-108349142D01*
X138097380Y-108373333D01*
X138073190Y-108421714D01*
X138073190Y-108687809D01*
X137831285Y-108639428D02*
X137807095Y-108663619D01*
X137831285Y-108687809D01*
X137855476Y-108663619D01*
X137831285Y-108639428D01*
X137831285Y-108687809D01*
X137347476Y-108687809D02*
X137589380Y-108687809D01*
X137589380Y-108179809D01*
X136645952Y-108687809D02*
X136645952Y-108179809D01*
X136645952Y-108373333D02*
X136597571Y-108349142D01*
X136500809Y-108349142D01*
X136452428Y-108373333D01*
X136428238Y-108397523D01*
X136404047Y-108445904D01*
X136404047Y-108591047D01*
X136428238Y-108639428D01*
X136452428Y-108663619D01*
X136500809Y-108687809D01*
X136597571Y-108687809D01*
X136645952Y-108663619D01*
X135992809Y-108663619D02*
X136041190Y-108687809D01*
X136137952Y-108687809D01*
X136186333Y-108663619D01*
X136210523Y-108615238D01*
X136210523Y-108421714D01*
X136186333Y-108373333D01*
X136137952Y-108349142D01*
X136041190Y-108349142D01*
X135992809Y-108373333D01*
X135968619Y-108421714D01*
X135968619Y-108470095D01*
X136210523Y-108518476D01*
X135750904Y-108349142D02*
X135750904Y-108687809D01*
X135750904Y-108397523D02*
X135726714Y-108373333D01*
X135678333Y-108349142D01*
X135605761Y-108349142D01*
X135557380Y-108373333D01*
X135533190Y-108421714D01*
X135533190Y-108687809D01*
X135291285Y-108639428D02*
X135267095Y-108663619D01*
X135291285Y-108687809D01*
X135315476Y-108663619D01*
X135291285Y-108639428D01*
X135291285Y-108687809D01*
X134807476Y-108687809D02*
X135049380Y-108687809D01*
X135049380Y-108179809D01*
X133803571Y-108687809D02*
X134045476Y-108687809D01*
X134045476Y-108179809D01*
X133634238Y-108421714D02*
X133464904Y-108421714D01*
X133392333Y-108687809D02*
X133634238Y-108687809D01*
X133634238Y-108179809D01*
X133392333Y-108179809D01*
X133174619Y-108687809D02*
X133174619Y-108179809D01*
X133053666Y-108179809D01*
X132981095Y-108204000D01*
X132932714Y-108252380D01*
X132908523Y-108300761D01*
X132884333Y-108397523D01*
X132884333Y-108470095D01*
X132908523Y-108566857D01*
X132932714Y-108615238D01*
X132981095Y-108663619D01*
X133053666Y-108687809D01*
X133174619Y-108687809D01*
X132497285Y-108421714D02*
X132424714Y-108445904D01*
X132400523Y-108470095D01*
X132376333Y-108518476D01*
X132376333Y-108591047D01*
X132400523Y-108639428D01*
X132424714Y-108663619D01*
X132473095Y-108687809D01*
X132666619Y-108687809D01*
X132666619Y-108179809D01*
X132497285Y-108179809D01*
X132448904Y-108204000D01*
X132424714Y-108228190D01*
X132400523Y-108276571D01*
X132400523Y-108324952D01*
X132424714Y-108373333D01*
X132448904Y-108397523D01*
X132497285Y-108421714D01*
X132666619Y-108421714D01*
X128723571Y-108687809D02*
X128965476Y-108687809D01*
X128965476Y-108179809D01*
X128554238Y-108421714D02*
X128384904Y-108421714D01*
X128312333Y-108687809D02*
X128554238Y-108687809D01*
X128554238Y-108179809D01*
X128312333Y-108179809D01*
X128094619Y-108687809D02*
X128094619Y-108179809D01*
X127973666Y-108179809D01*
X127901095Y-108204000D01*
X127852714Y-108252380D01*
X127828523Y-108300761D01*
X127804333Y-108397523D01*
X127804333Y-108470095D01*
X127828523Y-108566857D01*
X127852714Y-108615238D01*
X127901095Y-108663619D01*
X127973666Y-108687809D01*
X128094619Y-108687809D01*
X127296333Y-108687809D02*
X127465666Y-108445904D01*
X127586619Y-108687809D02*
X127586619Y-108179809D01*
X127393095Y-108179809D01*
X127344714Y-108204000D01*
X127320523Y-108228190D01*
X127296333Y-108276571D01*
X127296333Y-108349142D01*
X127320523Y-108397523D01*
X127344714Y-108421714D01*
X127393095Y-108445904D01*
X127586619Y-108445904D01*
X131263571Y-108687809D02*
X131505476Y-108687809D01*
X131505476Y-108179809D01*
X131094238Y-108421714D02*
X130924904Y-108421714D01*
X130852333Y-108687809D02*
X131094238Y-108687809D01*
X131094238Y-108179809D01*
X130852333Y-108179809D01*
X130634619Y-108687809D02*
X130634619Y-108179809D01*
X130513666Y-108179809D01*
X130441095Y-108204000D01*
X130392714Y-108252380D01*
X130368523Y-108300761D01*
X130344333Y-108397523D01*
X130344333Y-108470095D01*
X130368523Y-108566857D01*
X130392714Y-108615238D01*
X130441095Y-108663619D01*
X130513666Y-108687809D01*
X130634619Y-108687809D01*
X129860523Y-108204000D02*
X129908904Y-108179809D01*
X129981476Y-108179809D01*
X130054047Y-108204000D01*
X130102428Y-108252380D01*
X130126619Y-108300761D01*
X130150809Y-108397523D01*
X130150809Y-108470095D01*
X130126619Y-108566857D01*
X130102428Y-108615238D01*
X130054047Y-108663619D01*
X129981476Y-108687809D01*
X129933095Y-108687809D01*
X129860523Y-108663619D01*
X129836333Y-108639428D01*
X129836333Y-108470095D01*
X129933095Y-108470095D01*
X141738047Y-108687809D02*
X141738047Y-108179809D01*
X141738047Y-108373333D02*
X141689666Y-108349142D01*
X141592904Y-108349142D01*
X141544523Y-108373333D01*
X141520333Y-108397523D01*
X141496142Y-108445904D01*
X141496142Y-108591047D01*
X141520333Y-108639428D01*
X141544523Y-108663619D01*
X141592904Y-108687809D01*
X141689666Y-108687809D01*
X141738047Y-108663619D01*
X141278428Y-108349142D02*
X141278428Y-108857142D01*
X141278428Y-108373333D02*
X141230047Y-108349142D01*
X141133285Y-108349142D01*
X141084904Y-108373333D01*
X141060714Y-108397523D01*
X141036523Y-108445904D01*
X141036523Y-108591047D01*
X141060714Y-108639428D01*
X141084904Y-108663619D01*
X141133285Y-108687809D01*
X141230047Y-108687809D01*
X141278428Y-108663619D01*
X140818809Y-108687809D02*
X140818809Y-108179809D01*
X140601095Y-108687809D02*
X140601095Y-108421714D01*
X140625285Y-108373333D01*
X140673666Y-108349142D01*
X140746238Y-108349142D01*
X140794619Y-108373333D01*
X140818809Y-108397523D01*
X140359190Y-108639428D02*
X140335000Y-108663619D01*
X140359190Y-108687809D01*
X140383380Y-108663619D01*
X140359190Y-108639428D01*
X140359190Y-108687809D01*
X139875380Y-108687809D02*
X140117285Y-108687809D01*
X140117285Y-108179809D01*
X113157000Y-89414047D02*
X113181190Y-89462428D01*
X113181190Y-89535000D01*
X113157000Y-89607571D01*
X113108619Y-89655952D01*
X113060238Y-89680142D01*
X112963476Y-89704333D01*
X112890904Y-89704333D01*
X112794142Y-89680142D01*
X112745761Y-89655952D01*
X112697380Y-89607571D01*
X112673190Y-89535000D01*
X112673190Y-89486619D01*
X112697380Y-89414047D01*
X112721571Y-89389857D01*
X112890904Y-89389857D01*
X112890904Y-89486619D01*
X112673190Y-89172142D02*
X113181190Y-89172142D01*
X112673190Y-88881857D01*
X113181190Y-88881857D01*
X112673190Y-88639952D02*
X113181190Y-88639952D01*
X113181190Y-88519000D01*
X113157000Y-88446428D01*
X113108619Y-88398047D01*
X113060238Y-88373857D01*
X112963476Y-88349666D01*
X112890904Y-88349666D01*
X112794142Y-88373857D01*
X112745761Y-88398047D01*
X112697380Y-88446428D01*
X112673190Y-88519000D01*
X112673190Y-88639952D01*
X110381142Y-88494809D02*
X110381142Y-88688333D01*
X110211809Y-88567380D02*
X110647238Y-88567380D01*
X110695619Y-88591571D01*
X110719809Y-88639952D01*
X110719809Y-88688333D01*
X110719809Y-88857666D02*
X110211809Y-88857666D01*
X110719809Y-89075380D02*
X110453714Y-89075380D01*
X110405333Y-89051190D01*
X110381142Y-89002809D01*
X110381142Y-88930238D01*
X110405333Y-88881857D01*
X110429523Y-88857666D01*
X110695619Y-89510809D02*
X110719809Y-89462428D01*
X110719809Y-89365666D01*
X110695619Y-89317285D01*
X110647238Y-89293095D01*
X110453714Y-89293095D01*
X110405333Y-89317285D01*
X110381142Y-89365666D01*
X110381142Y-89462428D01*
X110405333Y-89510809D01*
X110453714Y-89535000D01*
X110502095Y-89535000D01*
X110550476Y-89293095D01*
X110719809Y-89752714D02*
X110381142Y-89752714D01*
X110477904Y-89752714D02*
X110429523Y-89776904D01*
X110405333Y-89801095D01*
X110381142Y-89849476D01*
X110381142Y-89897857D01*
X110719809Y-90067190D02*
X110381142Y-90067190D01*
X110429523Y-90067190D02*
X110405333Y-90091380D01*
X110381142Y-90139761D01*
X110381142Y-90212333D01*
X110405333Y-90260714D01*
X110453714Y-90284904D01*
X110719809Y-90284904D01*
X110453714Y-90284904D02*
X110405333Y-90309095D01*
X110381142Y-90357476D01*
X110381142Y-90430047D01*
X110405333Y-90478428D01*
X110453714Y-90502619D01*
X110719809Y-90502619D01*
X107544809Y-88446428D02*
X108052809Y-88615761D01*
X107544809Y-88785095D01*
X107786714Y-89123761D02*
X107810904Y-89196333D01*
X107835095Y-89220523D01*
X107883476Y-89244714D01*
X107956047Y-89244714D01*
X108004428Y-89220523D01*
X108028619Y-89196333D01*
X108052809Y-89147952D01*
X108052809Y-88954428D01*
X107544809Y-88954428D01*
X107544809Y-89123761D01*
X107569000Y-89172142D01*
X107593190Y-89196333D01*
X107641571Y-89220523D01*
X107689952Y-89220523D01*
X107738333Y-89196333D01*
X107762523Y-89172142D01*
X107786714Y-89123761D01*
X107786714Y-88954428D01*
X107907666Y-89438238D02*
X107907666Y-89680142D01*
X108052809Y-89389857D02*
X107544809Y-89559190D01*
X108052809Y-89728523D01*
X107544809Y-89825285D02*
X107544809Y-90115571D01*
X108052809Y-89970428D02*
X107544809Y-89970428D01*
D13*
X208076800Y-89382600D02*
X208076800Y-90195400D01*
X206959200Y-90170000D02*
X206959200Y-89382600D01*
X206705200Y-90195400D02*
X208330800Y-90195400D01*
X208330800Y-90195400D02*
X208330800Y-89382600D01*
X208330800Y-89382600D02*
X206705200Y-89382600D01*
X206705200Y-89382600D02*
X206705200Y-90195400D01*
X206959200Y-101625400D02*
X206959200Y-100812600D01*
X208076800Y-100838000D02*
X208076800Y-101625400D01*
X208330800Y-100812600D02*
X206705200Y-100812600D01*
X206705200Y-100812600D02*
X206705200Y-101625400D01*
X206705200Y-101625400D02*
X208330800Y-101625400D01*
X208330800Y-101625400D02*
X208330800Y-100812600D01*
X130149600Y-100406200D02*
X130962400Y-100406200D01*
X130937000Y-101523800D02*
X130149600Y-101523800D01*
X130962400Y-101777800D02*
X130962400Y-100152200D01*
X130962400Y-100152200D02*
X130149600Y-100152200D01*
X130149600Y-100152200D02*
X130149600Y-101777800D01*
X130149600Y-101777800D02*
X130962400Y-101777800D01*
X128371600Y-100406200D02*
X129184400Y-100406200D01*
X129159000Y-101523800D02*
X128371600Y-101523800D01*
X129184400Y-101777800D02*
X129184400Y-100152200D01*
X129184400Y-100152200D02*
X128371600Y-100152200D01*
X128371600Y-100152200D02*
X128371600Y-101777800D01*
X128371600Y-101777800D02*
X129184400Y-101777800D01*
X128371600Y-89982040D02*
X129184400Y-89982040D01*
X129159000Y-91099640D02*
X128371600Y-91099640D01*
X129184400Y-91353640D02*
X129184400Y-89728040D01*
X129184400Y-89728040D02*
X128371600Y-89728040D01*
X128371600Y-89728040D02*
X128371600Y-91353640D01*
X128371600Y-91353640D02*
X129184400Y-91353640D01*
X129184400Y-94284800D02*
X128371600Y-94284800D01*
X128397000Y-93167200D02*
X129184400Y-93167200D01*
X128371600Y-92913200D02*
X128371600Y-94538800D01*
X128371600Y-94538800D02*
X129184400Y-94538800D01*
X129184400Y-94538800D02*
X129184400Y-92913200D01*
X129184400Y-92913200D02*
X128371600Y-92913200D01*
X210159600Y-94945200D02*
X210972400Y-94945200D01*
X210947000Y-96062800D02*
X210159600Y-96062800D01*
X210972400Y-96316800D02*
X210972400Y-94691200D01*
X210972400Y-94691200D02*
X210159600Y-94691200D01*
X210159600Y-94691200D02*
X210159600Y-96316800D01*
X210159600Y-96316800D02*
X210972400Y-96316800D01*
X112090200Y-88798400D02*
X112090200Y-88239600D01*
X111429800Y-88798400D02*
X111429800Y-88239600D01*
X111226600Y-88798400D02*
X111226600Y-88239600D01*
X111226600Y-88239600D02*
X112293400Y-88239600D01*
X112293400Y-88239600D02*
X112293400Y-88798400D01*
X112293400Y-88798400D02*
X111226600Y-88798400D01*
X200736200Y-95736320D02*
X200736200Y-95177520D01*
X200075800Y-95736320D02*
X200075800Y-95177520D01*
X199872600Y-95736320D02*
X199872600Y-95177520D01*
X199872600Y-95177520D02*
X200939400Y-95177520D01*
X200939400Y-95177520D02*
X200939400Y-95736320D01*
X200939400Y-95736320D02*
X199872600Y-95736320D01*
D14*
X98077020Y-93355160D02*
X98077020Y-84952840D01*
X97975420Y-93355160D02*
X97975420Y-84952840D01*
X97975420Y-84952840D02*
X98176080Y-84952840D01*
X98176080Y-84952840D02*
X98176080Y-93355160D01*
X98176080Y-93355160D02*
X97975420Y-93355160D01*
X97975420Y-93052900D02*
X102976680Y-93052900D01*
X102976680Y-93052900D02*
X102976680Y-85255100D01*
X102976680Y-85255100D02*
X97975420Y-85255100D01*
D15*
X208540000Y-93041000D02*
X208540000Y-91871000D01*
X206496000Y-91871000D02*
X206496000Y-93041000D01*
X206496000Y-97967000D02*
X206496000Y-99137000D01*
X208540000Y-99137000D02*
X208540000Y-97967000D01*
D10*
X99457000Y-96060000D02*
X99457000Y-95022938D01*
X99457000Y-95022938D02*
X98596335Y-95022938D01*
X99457000Y-102517583D02*
X98596335Y-102517583D01*
X101632680Y-96653371D02*
X101632680Y-97412458D01*
X101632680Y-97412458D02*
X102819424Y-97412458D01*
X102819424Y-97412458D02*
X102819424Y-97412458D01*
X100359237Y-101208265D02*
X100399369Y-101188934D01*
X100399369Y-101188934D02*
X100437215Y-101165939D01*
X100437215Y-101165939D02*
X100472549Y-101139511D01*
X100472549Y-101139511D02*
X100505145Y-101109881D01*
X100505145Y-101109881D02*
X100534779Y-101077280D01*
X100534779Y-101077280D02*
X100561308Y-101041938D01*
X100561308Y-101041938D02*
X100584450Y-101004086D01*
X99923852Y-100404589D02*
X99888518Y-100431016D01*
X99888518Y-100431016D02*
X99855921Y-100460646D01*
X99855921Y-100460646D02*
X99826288Y-100493247D01*
X99826288Y-100493247D02*
X99799759Y-100528588D01*
X99799759Y-100528588D02*
X99776617Y-100566438D01*
X99776617Y-100566438D02*
X99757426Y-100606568D01*
X100472549Y-100431006D02*
X100437215Y-100404579D01*
X100437215Y-100404579D02*
X100399369Y-100381583D01*
X100399369Y-100381583D02*
X100359237Y-100362251D01*
X100359237Y-100362251D02*
X100317044Y-100346813D01*
X100317044Y-100346813D02*
X100273046Y-100335502D01*
X100273046Y-100335502D02*
X100227467Y-100328545D01*
X100227467Y-100328545D02*
X100180533Y-100326179D01*
X101744948Y-103554645D02*
X101744948Y-103554645D01*
X100534779Y-97488155D02*
X100505145Y-97455554D01*
X100505145Y-97455554D02*
X100472549Y-97425925D01*
X100472549Y-97425925D02*
X100437215Y-97399497D01*
X100437215Y-97399497D02*
X100399369Y-97376502D01*
X100399369Y-97376502D02*
X100359237Y-97357170D01*
X100359237Y-97357170D02*
X100317044Y-97341732D01*
X100317044Y-97341732D02*
X100273046Y-97330421D01*
X99757426Y-97958874D02*
X99776617Y-97999004D01*
X99776617Y-97999004D02*
X99799759Y-98036854D01*
X99799759Y-98036854D02*
X99826288Y-98072195D01*
X99826288Y-98072195D02*
X99855921Y-98104796D01*
X99855921Y-98104796D02*
X99888518Y-98134426D01*
X99888518Y-98134426D02*
X99923852Y-98160854D01*
X99923852Y-98160854D02*
X99961727Y-98183849D01*
X100584450Y-101004086D02*
X100603923Y-100963956D01*
X100603923Y-100963956D02*
X100619445Y-100921777D01*
X100619445Y-100921777D02*
X100630734Y-100877781D01*
X100630734Y-100877781D02*
X100637790Y-100832197D01*
X100637790Y-100832197D02*
X100640612Y-100785258D01*
X100640612Y-100785258D02*
X100637790Y-100738319D01*
X100637790Y-100738319D02*
X100630734Y-100692736D01*
X100884311Y-102517583D02*
X100884311Y-103554645D01*
X100884311Y-103554645D02*
X101744948Y-103554645D01*
X101632680Y-98160853D02*
X101632680Y-98919940D01*
X101632680Y-98919940D02*
X102819424Y-98919940D01*
X102819424Y-98919940D02*
X102819424Y-98919940D01*
X102819424Y-97412458D02*
X102819424Y-96653371D01*
X102819424Y-96653371D02*
X101632680Y-96653371D01*
X100640612Y-97780177D02*
X100637790Y-97733238D01*
X100637790Y-97733238D02*
X100630734Y-97687655D01*
X100630734Y-97687655D02*
X100619445Y-97643658D01*
X100619445Y-97643658D02*
X100603923Y-97601480D01*
X100603923Y-97601480D02*
X100584450Y-97561349D01*
X100584450Y-97561349D02*
X100561308Y-97523497D01*
X100561308Y-97523497D02*
X100534779Y-97488155D01*
X98596335Y-102517583D02*
X98596335Y-103554645D01*
X101744948Y-103554645D02*
X101744948Y-102517583D01*
X101744948Y-102517583D02*
X100884311Y-102517583D01*
X99923852Y-97399514D02*
X99888518Y-97425942D01*
X99888518Y-97425942D02*
X99855921Y-97455571D01*
X99855921Y-97455571D02*
X99826288Y-97488172D01*
X99826288Y-97488172D02*
X99799759Y-97523513D01*
X99799759Y-97523513D02*
X99776617Y-97561364D01*
X99776617Y-97561364D02*
X99757426Y-97601493D01*
X99757426Y-97601493D02*
X99741904Y-97643671D01*
X100273046Y-98229933D02*
X100317044Y-98218622D01*
X100317044Y-98218622D02*
X100359237Y-98203184D01*
X100359237Y-98203184D02*
X100399369Y-98183852D01*
X100399369Y-98183852D02*
X100437215Y-98160856D01*
X100437215Y-98160856D02*
X100472549Y-98134429D01*
X100472549Y-98134429D02*
X100505145Y-98104799D01*
X100505145Y-98104799D02*
X100534779Y-98072198D01*
X100180533Y-97321104D02*
X100133600Y-97323475D01*
X100133600Y-97323475D02*
X100088021Y-97330435D01*
X100088021Y-97330435D02*
X100044023Y-97341749D01*
X100044023Y-97341749D02*
X100001830Y-97357187D01*
X100001830Y-97357187D02*
X99961727Y-97376519D01*
X99961727Y-97376519D02*
X99923852Y-97399514D01*
X99961727Y-98183849D02*
X100001830Y-98203181D01*
X100001830Y-98203181D02*
X100044023Y-98218619D01*
X100044023Y-98218619D02*
X100088021Y-98229933D01*
X100088021Y-98229933D02*
X100133600Y-98236890D01*
X100133600Y-98236890D02*
X100180533Y-98239261D01*
X100180533Y-98239261D02*
X100227467Y-98236890D01*
X100227467Y-98236890D02*
X100273046Y-98229933D01*
X100534779Y-98072198D02*
X100561308Y-98036856D01*
X100561308Y-98036856D02*
X100584450Y-97999005D01*
X100584450Y-97999005D02*
X100603923Y-97958874D01*
X100603923Y-97958874D02*
X100619445Y-97916695D01*
X100619445Y-97916695D02*
X100630734Y-97872699D01*
X100630734Y-97872699D02*
X100637790Y-97827116D01*
X100637790Y-97827116D02*
X100640612Y-97780177D01*
X101632680Y-101154435D02*
X101632680Y-101913521D01*
X101632680Y-101913521D02*
X102819424Y-101913521D01*
X102819424Y-101913521D02*
X102819424Y-101913521D01*
X102819424Y-98919940D02*
X102819424Y-98160853D01*
X102819424Y-98160853D02*
X101632680Y-98160853D01*
X100088021Y-101235009D02*
X100133600Y-101241967D01*
X100133600Y-101241967D02*
X100180533Y-101244337D01*
X100180533Y-101244337D02*
X100227467Y-101241970D01*
X100227467Y-101241970D02*
X100273046Y-101235014D01*
X100273046Y-101235014D02*
X100317044Y-101223702D01*
X100317044Y-101223702D02*
X100359237Y-101208265D01*
X99855921Y-101109871D02*
X99888518Y-101139501D01*
X99888518Y-101139501D02*
X99923852Y-101165929D01*
X99923852Y-101165929D02*
X99961727Y-101188924D01*
X99961727Y-101188924D02*
X100001830Y-101208256D01*
X100001830Y-101208256D02*
X100044023Y-101223695D01*
X100044023Y-101223695D02*
X100088021Y-101235009D01*
X100630734Y-100692736D02*
X100619445Y-100648740D01*
X100619445Y-100648740D02*
X100603923Y-100606561D01*
X100603923Y-100606561D02*
X100584450Y-100566430D01*
X100584450Y-100566430D02*
X100561308Y-100528579D01*
X100561308Y-100528579D02*
X100534779Y-100493237D01*
X100534779Y-100493237D02*
X100505145Y-100460636D01*
X100505145Y-100460636D02*
X100472549Y-100431006D01*
X99730615Y-100877777D02*
X99741904Y-100921771D01*
X99741904Y-100921771D02*
X99757426Y-100963949D01*
X99757426Y-100963949D02*
X99776617Y-101004078D01*
X99776617Y-101004078D02*
X99799759Y-101041929D01*
X99799759Y-101041929D02*
X99826288Y-101077270D01*
X99826288Y-101077270D02*
X99855921Y-101109871D01*
X100884311Y-95022938D02*
X100884311Y-96060000D01*
X100884311Y-96060000D02*
X101744948Y-96060000D01*
X101744948Y-96060000D02*
X101744948Y-96060000D01*
X102819424Y-101913521D02*
X102819424Y-101154435D01*
X102819424Y-101154435D02*
X101632680Y-101154435D01*
X98596335Y-95022938D02*
X98596335Y-96060000D01*
X98596335Y-96060000D02*
X99457000Y-96060000D01*
X99457000Y-96060000D02*
X99457000Y-96060000D01*
X101744948Y-96060000D02*
X101744948Y-95022938D01*
X101744948Y-95022938D02*
X100884311Y-95022938D01*
X99757426Y-100606568D02*
X99741904Y-100648745D01*
X99741904Y-100648745D02*
X99730615Y-100692740D01*
X99730615Y-100692740D02*
X99723559Y-100738321D01*
X99723559Y-100738321D02*
X99720737Y-100785258D01*
X99720737Y-100785258D02*
X99723559Y-100832195D01*
X99723559Y-100832195D02*
X99730615Y-100877777D01*
X99741904Y-97643671D02*
X99730615Y-97687665D01*
X99730615Y-97687665D02*
X99723559Y-97733247D01*
X99723559Y-97733247D02*
X99720737Y-97780184D01*
X99720737Y-97780184D02*
X99723559Y-97827121D01*
X99723559Y-97827121D02*
X99730615Y-97872702D01*
X99730615Y-97872702D02*
X99741904Y-97916697D01*
X99741904Y-97916697D02*
X99757426Y-97958874D01*
X100180533Y-100326179D02*
X100180533Y-100326179D01*
X100273046Y-97330421D02*
X100227467Y-97323464D01*
X100227467Y-97323464D02*
X100180533Y-97321104D01*
X100180533Y-97321104D02*
X100180533Y-97321104D01*
X99457000Y-103554645D02*
X99457000Y-103554645D01*
X98596335Y-103554645D02*
X99457000Y-103554645D01*
X100180533Y-100326179D02*
X100133600Y-100328549D01*
X100133600Y-100328549D02*
X100088021Y-100335509D01*
X100088021Y-100335509D02*
X100044023Y-100346823D01*
X100044023Y-100346823D02*
X100001830Y-100362261D01*
X100001830Y-100362261D02*
X99961727Y-100381593D01*
X99961727Y-100381593D02*
X99923852Y-100404589D01*
X99457000Y-103554645D02*
X99457000Y-102517583D01*
D16*
X206045000Y-94754000D02*
X208745000Y-94754000D01*
X206045000Y-96254000D02*
X208745000Y-96254000D01*
X207545000Y-95354000D02*
X207545000Y-95604000D01*
X207545000Y-95604000D02*
X207395000Y-95454000D01*
X207295000Y-95854000D02*
X207295000Y-95154000D01*
X207645000Y-95504000D02*
X207995000Y-95504000D01*
X207295000Y-95504000D02*
X207645000Y-95854000D01*
X207645000Y-95854000D02*
X207645000Y-95154000D01*
X207645000Y-95154000D02*
X207295000Y-95504000D01*
D13*
X204279500Y-96409420D02*
X204939900Y-96409420D01*
X204279500Y-94504420D02*
X204939900Y-94504420D01*
X202882500Y-95456920D02*
X202222100Y-95456920D01*
X202882500Y-93958320D02*
X202882500Y-96955520D01*
X202882500Y-96955520D02*
X204279500Y-96955520D01*
X204279500Y-96955520D02*
X204279500Y-93958320D01*
X204279500Y-93958320D02*
X202882500Y-93958320D01*
D10*
X123291000Y-96155000D02*
X123291000Y-95755000D01*
X123291000Y-95755000D02*
X123191000Y-95755000D01*
X123191000Y-95755000D02*
X123191000Y-96155000D01*
X123191000Y-96155000D02*
X123191000Y-96055000D01*
X123191000Y-96055000D02*
X123191000Y-96155000D01*
X123291000Y-108055000D02*
X123291000Y-108755000D01*
X123291000Y-108755000D02*
X123191000Y-108755000D01*
X123191000Y-108755000D02*
X123191000Y-108055000D01*
X120191000Y-107155000D02*
X117791000Y-107155000D01*
X117791000Y-108055000D02*
X117791000Y-107155000D01*
X117791000Y-108055000D02*
X120191000Y-108055000D01*
X126191000Y-108055000D02*
X128591000Y-108055000D01*
X128591000Y-108055000D02*
X128591000Y-107155000D01*
X128591000Y-107155000D02*
X126191000Y-107155000D01*
X126191000Y-108055000D02*
X120191000Y-108055000D01*
X126191000Y-107155000D02*
X120191000Y-107155000D01*
X126191000Y-107155000D02*
X126191000Y-96155000D01*
X126191000Y-96155000D02*
X120191000Y-96155000D01*
X120191000Y-107155000D02*
X120191000Y-96155000D01*
X125391000Y-100805000D02*
X120991000Y-100805000D01*
X125391000Y-102805000D02*
X120991000Y-102805000D01*
X125391000Y-99405000D02*
X120991000Y-99405000D01*
X125391000Y-104205000D02*
X125391000Y-99405000D01*
X120991000Y-104205000D02*
X120991000Y-99405000D01*
X125391000Y-104205000D02*
X120991000Y-104205000D01*
X123100000Y-94820000D02*
X123100000Y-95220000D01*
X123100000Y-95220000D02*
X123200000Y-95220000D01*
X123200000Y-95220000D02*
X123200000Y-94820000D01*
X123200000Y-94820000D02*
X123200000Y-94920000D01*
X123200000Y-94920000D02*
X123200000Y-94820000D01*
X123100000Y-82920000D02*
X123100000Y-82220000D01*
X123100000Y-82220000D02*
X123200000Y-82220000D01*
X123200000Y-82220000D02*
X123200000Y-82920000D01*
X126200000Y-83820000D02*
X128600000Y-83820000D01*
X128600000Y-82920000D02*
X128600000Y-83820000D01*
X128600000Y-82920000D02*
X126200000Y-82920000D01*
X120200000Y-82920000D02*
X117800000Y-82920000D01*
X117800000Y-82920000D02*
X117800000Y-83820000D01*
X117800000Y-83820000D02*
X120200000Y-83820000D01*
X120200000Y-82920000D02*
X126200000Y-82920000D01*
X120200000Y-83820000D02*
X126200000Y-83820000D01*
X120200000Y-83820000D02*
X120200000Y-94820000D01*
X120200000Y-94820000D02*
X126200000Y-94820000D01*
X126200000Y-83820000D02*
X126200000Y-94820000D01*
X121000000Y-90170000D02*
X125400000Y-90170000D01*
X121000000Y-88170000D02*
X125400000Y-88170000D01*
X121000000Y-91570000D02*
X125400000Y-91570000D01*
X121000000Y-86770000D02*
X121000000Y-91570000D01*
X125400000Y-86770000D02*
X125400000Y-91570000D01*
X121000000Y-86770000D02*
X125400000Y-86770000D01*
D11*
X209507666Y-89970428D02*
X209531857Y-89994619D01*
X209604428Y-90018809D01*
X209652809Y-90018809D01*
X209725380Y-89994619D01*
X209773761Y-89946238D01*
X209797952Y-89897857D01*
X209822142Y-89801095D01*
X209822142Y-89728523D01*
X209797952Y-89631761D01*
X209773761Y-89583380D01*
X209725380Y-89535000D01*
X209652809Y-89510809D01*
X209604428Y-89510809D01*
X209531857Y-89535000D01*
X209507666Y-89559190D01*
X209314142Y-89559190D02*
X209289952Y-89535000D01*
X209241571Y-89510809D01*
X209120619Y-89510809D01*
X209072238Y-89535000D01*
X209048047Y-89559190D01*
X209023857Y-89607571D01*
X209023857Y-89655952D01*
X209048047Y-89728523D01*
X209338333Y-90018809D01*
X209023857Y-90018809D01*
X209380666Y-101400428D02*
X209404857Y-101424619D01*
X209477428Y-101448809D01*
X209525809Y-101448809D01*
X209598380Y-101424619D01*
X209646761Y-101376238D01*
X209670952Y-101327857D01*
X209695142Y-101231095D01*
X209695142Y-101158523D01*
X209670952Y-101061761D01*
X209646761Y-101013380D01*
X209598380Y-100965000D01*
X209525809Y-100940809D01*
X209477428Y-100940809D01*
X209404857Y-100965000D01*
X209380666Y-100989190D01*
X209211333Y-100940809D02*
X208896857Y-100940809D01*
X209066190Y-101134333D01*
X208993619Y-101134333D01*
X208945238Y-101158523D01*
X208921047Y-101182714D01*
X208896857Y-101231095D01*
X208896857Y-101352047D01*
X208921047Y-101400428D01*
X208945238Y-101424619D01*
X208993619Y-101448809D01*
X209138761Y-101448809D01*
X209187142Y-101424619D01*
X209211333Y-101400428D01*
X131753428Y-100638428D02*
X131777619Y-100614238D01*
X131801809Y-100541666D01*
X131801809Y-100493285D01*
X131777619Y-100420714D01*
X131729238Y-100372333D01*
X131680857Y-100348142D01*
X131584095Y-100323952D01*
X131511523Y-100323952D01*
X131414761Y-100348142D01*
X131366380Y-100372333D01*
X131318000Y-100420714D01*
X131293809Y-100493285D01*
X131293809Y-100541666D01*
X131318000Y-100614238D01*
X131342190Y-100638428D01*
X131801809Y-101122238D02*
X131801809Y-100831952D01*
X131801809Y-100977095D02*
X131293809Y-100977095D01*
X131366380Y-100928714D01*
X131414761Y-100880333D01*
X131438952Y-100831952D01*
X131293809Y-101557666D02*
X131293809Y-101460904D01*
X131318000Y-101412523D01*
X131342190Y-101388333D01*
X131414761Y-101339952D01*
X131511523Y-101315761D01*
X131705047Y-101315761D01*
X131753428Y-101339952D01*
X131777619Y-101364142D01*
X131801809Y-101412523D01*
X131801809Y-101509285D01*
X131777619Y-101557666D01*
X131753428Y-101581857D01*
X131705047Y-101606047D01*
X131584095Y-101606047D01*
X131535714Y-101581857D01*
X131511523Y-101557666D01*
X131487333Y-101509285D01*
X131487333Y-101412523D01*
X131511523Y-101364142D01*
X131535714Y-101339952D01*
X131584095Y-101315761D01*
X128959428Y-102543428D02*
X128983619Y-102519238D01*
X129007809Y-102446666D01*
X129007809Y-102398285D01*
X128983619Y-102325714D01*
X128935238Y-102277333D01*
X128886857Y-102253142D01*
X128790095Y-102228952D01*
X128717523Y-102228952D01*
X128620761Y-102253142D01*
X128572380Y-102277333D01*
X128524000Y-102325714D01*
X128499809Y-102398285D01*
X128499809Y-102446666D01*
X128524000Y-102519238D01*
X128548190Y-102543428D01*
X129007809Y-103027238D02*
X129007809Y-102736952D01*
X129007809Y-102882095D02*
X128499809Y-102882095D01*
X128572380Y-102833714D01*
X128620761Y-102785333D01*
X128644952Y-102736952D01*
X128499809Y-103196571D02*
X128499809Y-103535238D01*
X129007809Y-103317523D01*
X129975428Y-90224428D02*
X129999619Y-90200238D01*
X130023809Y-90127666D01*
X130023809Y-90079285D01*
X129999619Y-90006714D01*
X129951238Y-89958333D01*
X129902857Y-89934142D01*
X129806095Y-89909952D01*
X129733523Y-89909952D01*
X129636761Y-89934142D01*
X129588380Y-89958333D01*
X129540000Y-90006714D01*
X129515809Y-90079285D01*
X129515809Y-90127666D01*
X129540000Y-90200238D01*
X129564190Y-90224428D01*
X130023809Y-90708238D02*
X130023809Y-90417952D01*
X130023809Y-90563095D02*
X129515809Y-90563095D01*
X129588380Y-90514714D01*
X129636761Y-90466333D01*
X129660952Y-90417952D01*
X129733523Y-90998523D02*
X129709333Y-90950142D01*
X129685142Y-90925952D01*
X129636761Y-90901761D01*
X129612571Y-90901761D01*
X129564190Y-90925952D01*
X129540000Y-90950142D01*
X129515809Y-90998523D01*
X129515809Y-91095285D01*
X129540000Y-91143666D01*
X129564190Y-91167857D01*
X129612571Y-91192047D01*
X129636761Y-91192047D01*
X129685142Y-91167857D01*
X129709333Y-91143666D01*
X129733523Y-91095285D01*
X129733523Y-90998523D01*
X129757714Y-90950142D01*
X129781904Y-90925952D01*
X129830285Y-90901761D01*
X129927047Y-90901761D01*
X129975428Y-90925952D01*
X129999619Y-90950142D01*
X130023809Y-90998523D01*
X130023809Y-91095285D01*
X129999619Y-91143666D01*
X129975428Y-91167857D01*
X129927047Y-91192047D01*
X129830285Y-91192047D01*
X129781904Y-91167857D01*
X129757714Y-91143666D01*
X129733523Y-91095285D01*
X129848428Y-93399428D02*
X129872619Y-93375238D01*
X129896809Y-93302666D01*
X129896809Y-93254285D01*
X129872619Y-93181714D01*
X129824238Y-93133333D01*
X129775857Y-93109142D01*
X129679095Y-93084952D01*
X129606523Y-93084952D01*
X129509761Y-93109142D01*
X129461380Y-93133333D01*
X129413000Y-93181714D01*
X129388809Y-93254285D01*
X129388809Y-93302666D01*
X129413000Y-93375238D01*
X129437190Y-93399428D01*
X129896809Y-93883238D02*
X129896809Y-93592952D01*
X129896809Y-93738095D02*
X129388809Y-93738095D01*
X129461380Y-93689714D01*
X129509761Y-93641333D01*
X129533952Y-93592952D01*
X129896809Y-94125142D02*
X129896809Y-94221904D01*
X129872619Y-94270285D01*
X129848428Y-94294476D01*
X129775857Y-94342857D01*
X129679095Y-94367047D01*
X129485571Y-94367047D01*
X129437190Y-94342857D01*
X129413000Y-94318666D01*
X129388809Y-94270285D01*
X129388809Y-94173523D01*
X129413000Y-94125142D01*
X129437190Y-94100952D01*
X129485571Y-94076761D01*
X129606523Y-94076761D01*
X129654904Y-94100952D01*
X129679095Y-94125142D01*
X129703285Y-94173523D01*
X129703285Y-94270285D01*
X129679095Y-94318666D01*
X129654904Y-94342857D01*
X129606523Y-94367047D01*
X210795809Y-97197333D02*
X210553904Y-97028000D01*
X210795809Y-96907047D02*
X210287809Y-96907047D01*
X210287809Y-97100571D01*
X210312000Y-97148952D01*
X210336190Y-97173142D01*
X210384571Y-97197333D01*
X210457142Y-97197333D01*
X210505523Y-97173142D01*
X210529714Y-97148952D01*
X210553904Y-97100571D01*
X210553904Y-96907047D01*
X210336190Y-97390857D02*
X210312000Y-97415047D01*
X210287809Y-97463428D01*
X210287809Y-97584380D01*
X210312000Y-97632761D01*
X210336190Y-97656952D01*
X210384571Y-97681142D01*
X210432952Y-97681142D01*
X210505523Y-97656952D01*
X210795809Y-97366666D01*
X210795809Y-97681142D01*
X112086571Y-89510809D02*
X112255904Y-89268904D01*
X112376857Y-89510809D02*
X112376857Y-89002809D01*
X112183333Y-89002809D01*
X112134952Y-89027000D01*
X112110761Y-89051190D01*
X112086571Y-89099571D01*
X112086571Y-89172142D01*
X112110761Y-89220523D01*
X112134952Y-89244714D01*
X112183333Y-89268904D01*
X112376857Y-89268904D01*
X111602761Y-89510809D02*
X111893047Y-89510809D01*
X111747904Y-89510809D02*
X111747904Y-89002809D01*
X111796285Y-89075380D01*
X111844666Y-89123761D01*
X111893047Y-89147952D01*
X111312476Y-89220523D02*
X111360857Y-89196333D01*
X111385047Y-89172142D01*
X111409238Y-89123761D01*
X111409238Y-89099571D01*
X111385047Y-89051190D01*
X111360857Y-89027000D01*
X111312476Y-89002809D01*
X111215714Y-89002809D01*
X111167333Y-89027000D01*
X111143142Y-89051190D01*
X111118952Y-89099571D01*
X111118952Y-89123761D01*
X111143142Y-89172142D01*
X111167333Y-89196333D01*
X111215714Y-89220523D01*
X111312476Y-89220523D01*
X111360857Y-89244714D01*
X111385047Y-89268904D01*
X111409238Y-89317285D01*
X111409238Y-89414047D01*
X111385047Y-89462428D01*
X111360857Y-89486619D01*
X111312476Y-89510809D01*
X111215714Y-89510809D01*
X111167333Y-89486619D01*
X111143142Y-89462428D01*
X111118952Y-89414047D01*
X111118952Y-89317285D01*
X111143142Y-89268904D01*
X111167333Y-89244714D01*
X111215714Y-89220523D01*
X200490666Y-96749809D02*
X200660000Y-96507904D01*
X200780952Y-96749809D02*
X200780952Y-96241809D01*
X200587428Y-96241809D01*
X200539047Y-96266000D01*
X200514857Y-96290190D01*
X200490666Y-96338571D01*
X200490666Y-96411142D01*
X200514857Y-96459523D01*
X200539047Y-96483714D01*
X200587428Y-96507904D01*
X200780952Y-96507904D01*
X200006857Y-96749809D02*
X200297142Y-96749809D01*
X200152000Y-96749809D02*
X200152000Y-96241809D01*
X200200380Y-96314380D01*
X200248761Y-96362761D01*
X200297142Y-96386952D01*
X98527809Y-84321952D02*
X98939047Y-84321952D01*
X98987428Y-84346142D01*
X99011619Y-84370333D01*
X99035809Y-84418714D01*
X99035809Y-84515476D01*
X99011619Y-84563857D01*
X98987428Y-84588047D01*
X98939047Y-84612238D01*
X98527809Y-84612238D01*
X99035809Y-85120238D02*
X99035809Y-84829952D01*
X99035809Y-84975095D02*
X98527809Y-84975095D01*
X98600380Y-84926714D01*
X98648761Y-84878333D01*
X98672952Y-84829952D01*
X209777027Y-92177809D02*
X209777027Y-92589047D01*
X209752837Y-92637428D01*
X209728646Y-92661619D01*
X209680265Y-92685809D01*
X209583503Y-92685809D01*
X209535122Y-92661619D01*
X209510932Y-92637428D01*
X209486741Y-92589047D01*
X209486741Y-92177809D01*
X209269027Y-92226190D02*
X209244837Y-92202000D01*
X209196456Y-92177809D01*
X209075503Y-92177809D01*
X209027122Y-92202000D01*
X209002932Y-92226190D01*
X208978741Y-92274571D01*
X208978741Y-92322952D01*
X209002932Y-92395523D01*
X209293218Y-92685809D01*
X208978741Y-92685809D01*
X209650027Y-98146809D02*
X209650027Y-98558047D01*
X209625837Y-98606428D01*
X209601646Y-98630619D01*
X209553265Y-98654809D01*
X209456503Y-98654809D01*
X209408122Y-98630619D01*
X209383932Y-98606428D01*
X209359741Y-98558047D01*
X209359741Y-98146809D01*
X209093646Y-98654809D02*
X208996884Y-98654809D01*
X208948503Y-98630619D01*
X208924313Y-98606428D01*
X208875932Y-98533857D01*
X208851741Y-98437095D01*
X208851741Y-98243571D01*
X208875932Y-98195190D01*
X208900122Y-98171000D01*
X208948503Y-98146809D01*
X209045265Y-98146809D01*
X209093646Y-98171000D01*
X209117837Y-98195190D01*
X209142027Y-98243571D01*
X209142027Y-98364523D01*
X209117837Y-98412904D01*
X209093646Y-98437095D01*
X209045265Y-98461285D01*
X208948503Y-98461285D01*
X208900122Y-98437095D01*
X208875932Y-98412904D01*
X208851741Y-98364523D01*
X99138619Y-98763666D02*
X99162809Y-98836238D01*
X99162809Y-98957190D01*
X99138619Y-99005571D01*
X99114428Y-99029761D01*
X99066047Y-99053952D01*
X99017666Y-99053952D01*
X98969285Y-99029761D01*
X98945095Y-99005571D01*
X98920904Y-98957190D01*
X98896714Y-98860428D01*
X98872523Y-98812047D01*
X98848333Y-98787857D01*
X98799952Y-98763666D01*
X98751571Y-98763666D01*
X98703190Y-98787857D01*
X98679000Y-98812047D01*
X98654809Y-98860428D01*
X98654809Y-98981380D01*
X98679000Y-99053952D01*
X98654809Y-99223285D02*
X99162809Y-99344238D01*
X98799952Y-99441000D01*
X99162809Y-99537761D01*
X98654809Y-99658714D01*
X99162809Y-100118333D02*
X99162809Y-99828047D01*
X99162809Y-99973190D02*
X98654809Y-99973190D01*
X98727380Y-99924809D01*
X98775761Y-99876428D01*
X98799952Y-99828047D01*
X209543952Y-94463809D02*
X209543952Y-93955809D01*
X209423000Y-93955809D01*
X209350428Y-93980000D01*
X209302047Y-94028380D01*
X209277857Y-94076761D01*
X209253666Y-94173523D01*
X209253666Y-94246095D01*
X209277857Y-94342857D01*
X209302047Y-94391238D01*
X209350428Y-94439619D01*
X209423000Y-94463809D01*
X209543952Y-94463809D01*
X208769857Y-94463809D02*
X209060142Y-94463809D01*
X208915000Y-94463809D02*
X208915000Y-93955809D01*
X208963380Y-94028380D01*
X209011761Y-94076761D01*
X209060142Y-94100952D01*
X202716190Y-94312619D02*
X202692000Y-94264238D01*
X202643619Y-94215857D01*
X202571047Y-94143285D01*
X202546857Y-94094904D01*
X202546857Y-94046523D01*
X202667809Y-94070714D02*
X202643619Y-94022333D01*
X202595238Y-93973952D01*
X202498476Y-93949761D01*
X202329142Y-93949761D01*
X202232380Y-93973952D01*
X202184000Y-94022333D01*
X202159809Y-94070714D01*
X202159809Y-94167476D01*
X202184000Y-94215857D01*
X202232380Y-94264238D01*
X202329142Y-94288428D01*
X202498476Y-94288428D01*
X202595238Y-94264238D01*
X202643619Y-94215857D01*
X202667809Y-94167476D01*
X202667809Y-94070714D01*
X202667809Y-94772238D02*
X202667809Y-94481952D01*
X202667809Y-94627095D02*
X202159809Y-94627095D01*
X202232380Y-94578714D01*
X202280761Y-94530333D01*
X202304952Y-94481952D01*
%LPC*%
D10*
G36*
X206643000Y-91056000D02*
X207093000Y-91056000D01*
X207093000Y-91956000D01*
X206643000Y-91956000D01*
X206643000Y-91056000D01*
G37*
G36*
X207293000Y-91056000D02*
X207743000Y-91056000D01*
X207743000Y-91956000D01*
X207293000Y-91956000D01*
X207293000Y-91056000D01*
G37*
G36*
X207943000Y-91056000D02*
X208393000Y-91056000D01*
X208393000Y-91956000D01*
X207943000Y-91956000D01*
X207943000Y-91056000D01*
G37*
G36*
X207943000Y-92956000D02*
X208393000Y-92956000D01*
X208393000Y-93856000D01*
X207943000Y-93856000D01*
X207943000Y-92956000D01*
G37*
G36*
X207293000Y-92956000D02*
X207743000Y-92956000D01*
X207743000Y-93856000D01*
X207293000Y-93856000D01*
X207293000Y-92956000D01*
G37*
G36*
X206643000Y-92956000D02*
X207093000Y-92956000D01*
X207093000Y-93856000D01*
X206643000Y-93856000D01*
X206643000Y-92956000D01*
G37*
G36*
X208393000Y-99952000D02*
X207943000Y-99952000D01*
X207943000Y-99052000D01*
X208393000Y-99052000D01*
X208393000Y-99952000D01*
G37*
G36*
X207743000Y-99952000D02*
X207293000Y-99952000D01*
X207293000Y-99052000D01*
X207743000Y-99052000D01*
X207743000Y-99952000D01*
G37*
G36*
X207093000Y-99952000D02*
X206643000Y-99952000D01*
X206643000Y-99052000D01*
X207093000Y-99052000D01*
X207093000Y-99952000D01*
G37*
G36*
X207093000Y-98052000D02*
X206643000Y-98052000D01*
X206643000Y-97152000D01*
X207093000Y-97152000D01*
X207093000Y-98052000D01*
G37*
G36*
X207743000Y-98052000D02*
X207293000Y-98052000D01*
X207293000Y-97152000D01*
X207743000Y-97152000D01*
X207743000Y-98052000D01*
G37*
G36*
X208393000Y-98052000D02*
X207943000Y-98052000D01*
X207943000Y-97152000D01*
X208393000Y-97152000D01*
X208393000Y-98052000D01*
G37*
D17*
X208269840Y-89789000D03*
X206766160Y-89789000D03*
X206766160Y-101219000D03*
X208269840Y-101219000D03*
D18*
X130556000Y-100213160D03*
X130556000Y-101716840D03*
X128778000Y-100213160D03*
X128778000Y-101716840D03*
X128778000Y-89789000D03*
X128778000Y-91292680D03*
X128778000Y-94477840D03*
X128778000Y-92974160D03*
D19*
X107823000Y-86868000D03*
D20*
X110363000Y-86868000D03*
X112903000Y-86868000D03*
D18*
X210566000Y-94752160D03*
X210566000Y-96255840D03*
D21*
X112308640Y-88519000D03*
X111211360Y-88519000D03*
X200954640Y-95456920D03*
X199857360Y-95456920D03*
D19*
X175325532Y-100780338D03*
D20*
X172785532Y-100780338D03*
X170245532Y-100780338D03*
D22*
X167705532Y-98113338D03*
D23*
X167705532Y-95573338D03*
X167705532Y-93033338D03*
D19*
X170245532Y-90239338D03*
D20*
X172785532Y-90239338D03*
X175325532Y-90239338D03*
D22*
X177992532Y-93033338D03*
D23*
X177992532Y-95573338D03*
X177992532Y-98113338D03*
D24*
X100076000Y-90352880D03*
X100076000Y-87955120D03*
X100076000Y-85204300D03*
X100076000Y-93103700D03*
D25*
X102750620Y-90454480D03*
D26*
X102750620Y-89801700D03*
X102750620Y-89154000D03*
X102750620Y-88506300D03*
X102750620Y-87853520D03*
D27*
X102222300Y-87256620D03*
X102224840Y-91053920D03*
D28*
X206868000Y-91656000D03*
X207518000Y-91656000D03*
X208168000Y-91656000D03*
X208168000Y-93256000D03*
X207518000Y-93256000D03*
X206868000Y-93256000D03*
X208168000Y-99352000D03*
X207518000Y-99352000D03*
X206868000Y-99352000D03*
X206868000Y-97752000D03*
X207518000Y-97752000D03*
X208168000Y-97752000D03*
D29*
X99032000Y-103035000D03*
X101307000Y-103035000D03*
X101307000Y-95535000D03*
X99032000Y-95535000D03*
D30*
X102232000Y-101535000D03*
X102232000Y-98535000D03*
X102232000Y-97035000D03*
D31*
X100182000Y-100785000D03*
X100182000Y-97785000D03*
D32*
X208694020Y-95504000D03*
X206595980Y-95504000D03*
D33*
X162371532Y-100272338D03*
D34*
X162371532Y-97732338D03*
D33*
X162371532Y-90747338D03*
D34*
X162371532Y-93287338D03*
D35*
X204637640Y-94504420D03*
X202524360Y-95456920D03*
X204637640Y-96409420D03*
D36*
X121541000Y-103505000D03*
X121541000Y-100105000D03*
X124841000Y-100105000D03*
X124841000Y-103505000D03*
X126991000Y-103455000D03*
X119391000Y-103455000D03*
X126991000Y-100055000D03*
X119391000Y-100055000D03*
X126991000Y-97155000D03*
X119391000Y-97155000D03*
X124850000Y-87470000D03*
X124850000Y-90870000D03*
X121550000Y-90870000D03*
X121550000Y-87470000D03*
X119400000Y-87520000D03*
X127000000Y-87520000D03*
X119400000Y-90920000D03*
X127000000Y-90920000D03*
X119400000Y-93820000D03*
X127000000Y-93820000D03*
D37*
X143383000Y-106934000D03*
X140843000Y-106934000D03*
X138303000Y-106934000D03*
X135763000Y-106934000D03*
X133223000Y-106934000D03*
X130683000Y-106934000D03*
X128143000Y-106934000D03*
X125603000Y-106934000D03*
X123063000Y-106934000D03*
X120523000Y-106934000D03*
X117983000Y-106934000D03*
X115443000Y-106934000D03*
X112903000Y-106934000D03*
X110363000Y-106934000D03*
X107823000Y-106934000D03*
X105283000Y-106934000D03*
X102743000Y-106934000D03*
X102743000Y-84074000D03*
X105283000Y-84074000D03*
X107823000Y-84074000D03*
X110363000Y-84074000D03*
X112903000Y-84074000D03*
X115443000Y-84074000D03*
X117983000Y-84074000D03*
X120523000Y-84074000D03*
X123063000Y-84074000D03*
X125603000Y-84074000D03*
X128143000Y-84074000D03*
X130683000Y-84074000D03*
X133223000Y-84074000D03*
X135763000Y-84074000D03*
X138303000Y-84074000D03*
X140843000Y-84074000D03*
X143383000Y-84074000D03*
X193040000Y-106934000D03*
X190500000Y-106934000D03*
X187960000Y-106934000D03*
X185420000Y-106934000D03*
X182880000Y-106934000D03*
X180340000Y-106934000D03*
X177800000Y-106934000D03*
X175260000Y-106934000D03*
X172720000Y-106934000D03*
X170180000Y-106934000D03*
X167640000Y-106934000D03*
X165100000Y-106934000D03*
X162560000Y-106934000D03*
X160020000Y-106934000D03*
X157480000Y-106934000D03*
X154940000Y-106934000D03*
X152400000Y-106934000D03*
X152400000Y-84074000D03*
X154940000Y-84074000D03*
X157480000Y-84074000D03*
X160020000Y-84074000D03*
X162560000Y-84074000D03*
X165100000Y-84074000D03*
X167640000Y-84074000D03*
X170180000Y-84074000D03*
X172720000Y-84074000D03*
X175260000Y-84074000D03*
X177800000Y-84074000D03*
X180340000Y-84074000D03*
X182880000Y-84074000D03*
X185420000Y-84074000D03*
X187960000Y-84074000D03*
X190500000Y-84074000D03*
X193040000Y-84074000D03*
D19*
X200025000Y-84074000D03*
D20*
X202565000Y-84074000D03*
X205105000Y-84074000D03*
X207645000Y-84074000D03*
X210185000Y-84074000D03*
D19*
X210185000Y-106934000D03*
D20*
X207645000Y-106934000D03*
X205105000Y-106934000D03*
X202565000Y-106934000D03*
X200025000Y-106934000D03*
M02*
