M48
INCH,TZ
T1C0.006
T2C0.024
T3C0.035
T4C0.039
%
G90
G05
T1
X38950Y-32900
X38950Y-37200
X38950Y-38400
X38950Y-39700
X38950Y-41100
X38950Y-41450
X38950Y-41800
X38950Y-42200
X38950Y-42550
X39000Y-38800
X39000Y-40100
X39050Y-38100
X39050Y-39100
X39250Y-32650
X39250Y-32900
X39250Y-42600
X39300Y-38100
X39400Y-37350
X39450Y-37750
X39500Y-39000
X39500Y-40150
X39600Y-32650
X39600Y-32900
X39600Y-38100
X39600Y-42600
X39750Y-41300
X39850Y-42600
X39950Y-41050
X39950Y-41750
X40050Y-33950
X40700Y-36050
X40850Y-41050
X40870Y-35200
X40950Y-32800
X40950Y-33400
X40990Y-34780
X41000Y-40200
X41050Y-38850
X41100Y-37700
X41152Y-36028
X41387Y-36077
X41700Y-37800
X41850Y-35050
X41850Y-39700
X41900Y-39300
X41900Y-33950
X41950Y-32850
X41950Y-36150
X42039Y-39034
X42450Y-35800
X42454Y-39493
X42462Y-38274
X42589Y-36492
X42600Y-37300
X42700Y-38244
X42821Y-37394
X42850Y-36550
X42850Y-38650
X42893Y-40914
X42950Y-32850
X43066Y-36445
X43133Y-40900
X43146Y-41348
X43150Y-33550
X43250Y-38556
X43262Y-38096
X43302Y-41530
X43334Y-38325
X43344Y-37330
X43367Y-40577
X43480Y-36924
X43500Y-41150
X43541Y-36473
X43542Y-41530
X43623Y-37275
X43706Y-41188
X43747Y-39623
X43780Y-36465
X43898Y-36960
X43900Y-37850
X43900Y-41250
X43950Y-32850
X43981Y-38807
X44000Y-39670
X44030Y-36470
X44120Y-38611
X44150Y-35439
X44158Y-37337
X44253Y-35656
X44481Y-38758
X44600Y-38550
X44614Y-35484
X44628Y-37277
X44700Y-33500
X44788Y-36358
X44790Y-39642
X44900Y-33250
X44900Y-33500
X44900Y-36750
X45050Y-33750
X45071Y-39258
X45100Y-33500
X45150Y-34000
X45150Y-39700
X45150Y-39900
X45250Y-33600
X45250Y-33800
X45300Y-39550
X45336Y-39750
X45350Y-34750
X45402Y-40004
X45700Y-35800
X45750Y-39950
X45773Y-37372
X45781Y-37132
X45796Y-41446
X45982Y-37491
X46033Y-36867
X46050Y-34250
X46059Y-37894
X46138Y-41281
X46143Y-37670
X46182Y-36142
X46236Y-37195
X46250Y-35250
X46256Y-36370
X46300Y-38750
X46300Y-41200
X46300Y-41400
X46350Y-35400
X46350Y-36050
X46350Y-38500
X46379Y-38920
X46400Y-35100
X46400Y-36850
X46406Y-37412
X46420Y-39310
X46438Y-34553
X46450Y-33794
X46450Y-36200
X46500Y-35250
X46500Y-38600
X46502Y-35883
X46550Y-38850
X46638Y-36162
X46650Y-41544
X46700Y-38700
X46850Y-35083
X46900Y-33300
X46912Y-33762
X47277Y-33970
X47550Y-33670
X47552Y-36150
X47571Y-38220
X47574Y-37826
X47615Y-36083
X47634Y-36950
X47650Y-38650
X47700Y-36750
X47718Y-38020
X47809Y-37732
X48078Y-38030
X48250Y-35941
X48393Y-37526
X48858Y-39100
X48900Y-37720
X49300Y-37150
X49300Y-38850
X49350Y-39050
X49386Y-36550
X49400Y-38650
X49500Y-38750
X49541Y-38941
X49621Y-37594
X49746Y-36498
X49800Y-35300
X49861Y-37595
X49884Y-36302
X49897Y-42152
X49900Y-32850
X49950Y-33350
X49960Y-37851
X50029Y-42500
X50200Y-37850
X50275Y-39670
X50300Y-33900
X50300Y-36250
X50450Y-34200
X50600Y-39000
X50750Y-33850
X50950Y-32900
X50950Y-34850
X51000Y-33450
X51050Y-39750
X51140Y-35950
X51150Y-38850
X51200Y-40700
X51350Y-35740
X51350Y-37550
X51450Y-40550
X51550Y-38650
X51562Y-36371
X51650Y-35740
X51750Y-38950
X51850Y-40550
X51900Y-32900
X51950Y-33450
X52318Y-40508
X52350Y-36250
X52350Y-37550
X52350Y-37850
X52350Y-37250
X52500Y-41600
X52650Y-35750
X52650Y-37250
X52650Y-37550
X52650Y-37850
X52650Y-40450
X52850Y-36250
X52900Y-32900
X52900Y-33450
X52900Y-40750
X52900Y-41050
X52900Y-41600
X52900Y-42300
X52950Y-37250
X52950Y-37550
X52950Y-37850
X52950Y-41900
X53072Y-34492
X53300Y-41600
X53450Y-40650
X53450Y-41050
X53550Y-35000
X53550Y-35600
X53650Y-39150
X53650Y-41600
X53700Y-38550
X53800Y-40650
X53800Y-41050
X53900Y-32750
X53900Y-34850
X53950Y-33400
X53950Y-42350
X53966Y-37318
X54004Y-37929
X54013Y-37021
X54021Y-38301
X54050Y-36450
X54050Y-41600
X54150Y-40650
X54150Y-41050
X54200Y-34450
X54250Y-34050
X54300Y-34850
X54350Y-42550
X54356Y-38094
X54400Y-41600
X54500Y-40650
X54500Y-41050
X54600Y-38100
X54750Y-41700
X54806Y-36430
X54850Y-35800
X54850Y-38100
X54850Y-40650
X54850Y-41050
X54853Y-36134
X54900Y-39100
X54950Y-33350
X54950Y-42050
X55000Y-32800
X55100Y-38000
X55100Y-42500
X55200Y-41600
X55300Y-34000
X55350Y-34400
X55350Y-34800
X55650Y-41600
X55700Y-39000
X55800Y-36550
X55900Y-42450
X55950Y-32800
X55950Y-33300
X55950Y-34000
X55950Y-34400
X55950Y-34800
X55950Y-35900
X55950Y-36300
X56000Y-42000
X56200Y-41100
X56500Y-39000
X56500Y-40400
X56500Y-40750
X56500Y-41100
X60950Y-39150
X61050Y-38600
X61100Y-36600
X61150Y-35850
X61150Y-37100
X61250Y-38200
X61300Y-39450
X61550Y-37600
X61650Y-35400
X61900Y-39350
X62100Y-35200
X62376Y-35477
X62700Y-35100
X62726Y-38277
X62800Y-37050
X62850Y-37500
X62900Y-36600
X63050Y-37700
X63100Y-36200
X63200Y-38600
X63550Y-34950
X63600Y-37850
X64050Y-37800
X64400Y-35000
X64450Y-36250
X64500Y-38150
X64600Y-37000
X64650Y-35450
X64950Y-37700
X64950Y-38100
X65050Y-37100
X65550Y-41250
X65550Y-41700
X65950Y-40750
X66100Y-41300
X66400Y-41050
X66850Y-41500
X66876Y-37827
X66950Y-40500
X67100Y-37900
X67250Y-34700
X67300Y-34350
X67350Y-40900
X67450Y-37750
X67500Y-40550
X67500Y-41200
X67550Y-34750
X67650Y-34400
X67826Y-36377
X67850Y-40850
X68000Y-34400
X68050Y-37600
X68050Y-40550
X68200Y-38200
X68226Y-38827
X68300Y-38600
X68450Y-34300
X68500Y-34550
X68600Y-34850
X68600Y-37500
X68850Y-34600
X68850Y-38800
X68950Y-37477
X69226Y-37477
X70800Y-38450
X70900Y-38050
X71000Y-38850
X71150Y-38500
X71150Y-40050
X71450Y-39950
X71500Y-38700
X71750Y-39950
X71900Y-34750
X72100Y-40000
X72150Y-34350
X72250Y-34700
X72250Y-35000
X72250Y-35400
X72450Y-34350
X72500Y-34750
X72550Y-35150
X72750Y-34450
X72850Y-39050
X73100Y-40200
X73150Y-39050
X73350Y-41550
X73450Y-41200
X73500Y-39050
X73550Y-40600
X73550Y-40900
X76100Y-39800
X80000Y-37950
X80200Y-38250
X80250Y-37600
X80450Y-38600
X80500Y-35450
X80550Y-36100
X80550Y-37600
X80600Y-34350
X80650Y-36700
X80800Y-38950
X80850Y-34950
X80850Y-38300
X80900Y-36000
X80950Y-39800
X81000Y-39450
X81100Y-38550
X81100Y-39150
X81138Y-37986
X81150Y-34350
X81200Y-36800
X81400Y-34900
X81400Y-40300
X81700Y-35700
X81700Y-39500
X81900Y-34650
X81900Y-34950
X82200Y-40350
X82250Y-34600
X82250Y-34900
X82250Y-38100
X82450Y-35850
X82500Y-35050
X82500Y-40800
X82600Y-38450
X82600Y-39350
X82650Y-34850
X82700Y-35600
X82700Y-36100
X82800Y-35350
X82950Y-35750
X83000Y-35050
X83200Y-35400
X83350Y-40150
T2
X47004Y-38250
X47004Y-39392
X47004Y-40730
X47008Y-34457
X47008Y-35795
X47008Y-36937
X47851Y-39411
X47851Y-40750
X47854Y-34437
X47854Y-35776
X49150Y-39411
X49150Y-40750
X49154Y-34437
X49154Y-35776
X49996Y-38250
X49996Y-39392
X49996Y-40730
X50000Y-34457
X50000Y-35795
X50000Y-36937
T3
X39442Y-38498
X39442Y-39679
T4
X40450Y-33100
X40450Y-42100
X41450Y-33100
X41450Y-42100
X42450Y-33100
X42450Y-34200
X42450Y-42100
X43450Y-33100
X43450Y-34200
X43450Y-42100
X44450Y-33100
X44450Y-34200
X44450Y-42100
X45450Y-33100
X45450Y-42100
X46450Y-33100
X46450Y-42100
X47450Y-33100
X47450Y-42100
X48450Y-33100
X48450Y-42100
X49450Y-33100
X49450Y-42100
X50450Y-33100
X50450Y-42100
X51450Y-33100
X51450Y-42100
X52450Y-33100
X52450Y-42100
X53450Y-33100
X53450Y-42100
X54450Y-33100
X54450Y-42100
X55450Y-33100
X55450Y-42100
X56450Y-33100
X56450Y-42100
X60000Y-33100
X60000Y-42100
X61000Y-33100
X61000Y-42100
X62000Y-33100
X62000Y-42100
X63000Y-33100
X63000Y-42100
X63926Y-35727
X63926Y-36727
X63926Y-38477
X63926Y-39477
X64000Y-33100
X64000Y-42100
X65000Y-33100
X65000Y-42100
X66000Y-33100
X66000Y-42100
X66026Y-36627
X66026Y-37627
X66026Y-38627
X67000Y-33100
X67000Y-42100
X67026Y-35527
X67026Y-39677
X68000Y-33100
X68000Y-42100
X68026Y-35527
X68026Y-39677
X69000Y-33100
X69000Y-42100
X69026Y-35527
X69026Y-39677
X70000Y-33100
X70000Y-42100
X70076Y-36627
X70076Y-37627
X70076Y-38627
X71000Y-33100
X71000Y-42100
X72000Y-33100
X72000Y-42100
X73000Y-33100
X73000Y-42100
X74000Y-33100
X74000Y-42100
X75000Y-33100
X75000Y-42100
X76000Y-33100
X76000Y-42100
X78750Y-33100
X78750Y-42100
X79750Y-33100
X79750Y-42100
X80750Y-33100
X80750Y-42100
X81750Y-33100
X81750Y-42100
X82750Y-33100
X82750Y-42100
T0
M30
