M48
INCH,TZ
T1C0.012
T2C0.020
T3C0.024
T4C0.039
%
G90
G05
T1
X55800Y-53200
X55800Y-53900
X56000Y-54800
X56500Y-53100
X56500Y-55100
X57000Y-52500
X57250Y-49500
X57300Y-53900
X57500Y-52500
X57665Y-53700
X58000Y-49250
X58083Y-53917
X58400Y-46000
X58400Y-55700
X58700Y-48100
X58900Y-55800
X59100Y-49600
X59250Y-47250
X59250Y-48000
X59300Y-45800
X59900Y-53400
X60000Y-55800
X60200Y-51200
X60300Y-49700
X60400Y-45700
X60500Y-53000
X60600Y-46400
X61200Y-45800
X61200Y-49400
X61400Y-55800
X61600Y-52300
X61700Y-49500
X61800Y-45700
X61800Y-50100
X61800Y-51300
X61950Y-50993
X62000Y-53100
X62100Y-52600
X62100Y-46900
X62200Y-45700
X62400Y-49400
X62500Y-53000
X62828Y-51792
X62861Y-49942
X62900Y-51372
X62900Y-55800
X62947Y-50513
X62954Y-50933
X63098Y-51605
X63100Y-48900
X63232Y-50190
X63250Y-47000
X63290Y-51200
X63319Y-47849
X63397Y-50440
X63400Y-53060
X63439Y-47250
X63600Y-48900
X63600Y-49900
X63691Y-51095
X63891Y-48826
X64000Y-52182
X64084Y-51299
X64100Y-47800
X64184Y-49901
X64200Y-48800
X64383Y-51320
X64400Y-55800
X64500Y-54000
X64604Y-49814
X64669Y-48291
X64702Y-52100
X64792Y-48710
X64900Y-51000
X65178Y-51122
X65249Y-48390
X65508Y-52760
X65532Y-55170
X65900Y-54800
X65900Y-55800
X66000Y-49500
X66000Y-55100
X66008Y-51471
X66040Y-53100
X66045Y-50627
X66048Y-51047
X66200Y-53600
X66251Y-50409
X66300Y-51400
X66420Y-49590
X66420Y-55000
X66523Y-48309
X66600Y-50370
X66700Y-47700
X66700Y-48600
X66700Y-55500
X66800Y-47300
X66852Y-51044
X66919Y-51542
X67100Y-52802
X67400Y-51100
X67400Y-55400
X67409Y-52878
X67790Y-50872
X67810Y-50573
X67900Y-54200
X67900Y-55700
X67900Y-53124
X67901Y-52824
X68004Y-48640
X68036Y-51307
X68200Y-50600
X68551Y-48685
X68600Y-53900
X68600Y-55500
X68800Y-49800
X68800Y-51000
X69000Y-46330
X69000Y-55700
X69053Y-52670
X69575Y-47825
X69600Y-49888
X69946Y-46330
X69956Y-49999
X70000Y-50600
X70100Y-49500
X70100Y-53700
X70200Y-51700
X70200Y-54600
X70224Y-50340
X70300Y-46330
X70300Y-48800
X70424Y-49401
X70500Y-54100
X70600Y-48000
X70700Y-46330
X70700Y-46700
X70700Y-47100
X70700Y-51100
X70700Y-51800
X70800Y-47500
X70800Y-52400
X71000Y-48300
X71000Y-54700
X71100Y-47100
X71100Y-55200
X71167Y-49567
X71200Y-50800
X71200Y-51300
X71200Y-52800
X71200Y-55800
X71300Y-48700
X71300Y-52000
X71500Y-53200
X71600Y-55200
X71677Y-48774
X71800Y-53600
X71900Y-52500
X71976Y-48804
X72200Y-52000
X72230Y-48099
X72400Y-48890
X72400Y-50700
X72500Y-53700
X72600Y-51800
X72612Y-49521
X72700Y-48890
X72800Y-52100
X72900Y-53700
X73000Y-53990
X73400Y-49400
X73400Y-50700
X73400Y-51000
X73400Y-50400
X73700Y-48900
X73700Y-50400
X73700Y-50700
X73700Y-51000
X73700Y-53600
X73900Y-49400
X74000Y-50400
X74000Y-50700
X74000Y-51000
X74100Y-48300
X74800Y-47200
X74800Y-52900
X74900Y-48300
X75100Y-49800
X75300Y-50200
X75800Y-52900
X75900Y-50200
X75900Y-51300
X76100Y-47900
X76200Y-52800
X76300Y-49900
X76300Y-51700
X76800Y-52200
X77000Y-49500
X77500Y-55300
X77562Y-51910
X77600Y-54700
X77800Y-50000
X77900Y-47200
X77900Y-47800
X77900Y-48300
X77900Y-48900
X77900Y-49600
X77969Y-51738
X78000Y-52300
X78300Y-53000
X78300Y-54100
X78700Y-51800
X78800Y-52500
X78900Y-54900
X79100Y-53300
X79100Y-54000
X79200Y-47200
X79200Y-47700
X79200Y-48300
X79200Y-48900
X79200Y-49500
X79600Y-54400
X79900Y-46500
X79900Y-51800
X79900Y-52500
X80000Y-53300
X80000Y-54000
X80200Y-47200
X80200Y-47700
X80200Y-48300
X80200Y-49000
X80200Y-49600
T2
X60100Y-54000
X60100Y-55000
T3
X67250Y-46750
X67250Y-48089
X67250Y-53411
X67250Y-54750
X68549Y-46750
X68549Y-48089
X68549Y-53411
X68549Y-54750
T4
X58500Y-52000
X59500Y-52000
X60500Y-52000
X62900Y-46300
X63900Y-46300
X64900Y-46300
X65900Y-46300
X72500Y-46250
X72500Y-55250
X73500Y-46250
X73500Y-55250
X74500Y-46250
X74500Y-55250
X75500Y-46250
X75500Y-55250
X76500Y-46250
X76500Y-55250
T0
M30
