%TF.GenerationSoftware,KiCad,Pcbnew,4.1.0-alpha+201605041001+6771~44~ubuntu15.10.1-product*%
%TF.CreationDate,2016-05-05T22:42:08+02:00*%
%TF.ProjectId,robot1,726F626F74312E6B696361645F706362,rev?*%
%TF.FileFunction,Copper,L2,Bot,Signal*%
%FSLAX46Y46*%
G04 Gerber Fmt 4.6, Leading zero omitted, Abs format (unit mm)*
G04 Created by KiCad (PCBNEW 4.1.0-alpha+201605041001+6771~44~ubuntu15.10.1-product) date czw, 5 maj 2016, 22:42:08*
%MOMM*%
%LPD*%
G01*
G04 APERTURE LIST*
%ADD10C,0.100000*%
%ADD11C,1.016000*%
%ADD12R,1.524000X2.199640*%
%ADD13O,1.524000X2.199640*%
%ADD14C,1.200000*%
%ADD15C,0.609600*%
%ADD16C,0.152400*%
%ADD17C,0.304800*%
%ADD18C,0.406400*%
%ADD19C,0.254000*%
G04 APERTURE END LIST*
D10*
D11*
X152654000Y-139700000D03*
X152654000Y-137160000D03*
D12*
X159766000Y-117602000D03*
D13*
X162306000Y-117602000D03*
X164846000Y-117602000D03*
X167386000Y-117602000D03*
D12*
X153670000Y-132080000D03*
D13*
X151130000Y-132080000D03*
X148590000Y-132080000D03*
D14*
X174115000Y-118745000D03*
X174115000Y-122145000D03*
X170815000Y-122145000D03*
X170815000Y-118745000D03*
X170815000Y-139065000D03*
X170815000Y-135665000D03*
X174115000Y-135665000D03*
X174115000Y-139065000D03*
D12*
X184150000Y-117475000D03*
D13*
X186690000Y-117475000D03*
X189230000Y-117475000D03*
X191770000Y-117475000D03*
X194310000Y-117475000D03*
D12*
X184150000Y-140335000D03*
D13*
X186690000Y-140335000D03*
X189230000Y-140335000D03*
X191770000Y-140335000D03*
X194310000Y-140335000D03*
D15*
X193548000Y-134112000D03*
X167640000Y-125730000D03*
X169418000Y-121158000D03*
X168968433Y-122705337D03*
X164846000Y-129540000D03*
X161775468Y-129781314D03*
X168148000Y-136144000D03*
X163830000Y-137160000D03*
X171196000Y-129794000D03*
X173228000Y-128524000D03*
X178054000Y-125730000D03*
X174752000Y-126492000D03*
X162814000Y-121412000D03*
X160830249Y-121537138D03*
X187705990Y-125476000D03*
X183896000Y-128778000D03*
X189992000Y-119888000D03*
X188214000Y-122682000D03*
X187198000Y-124206000D03*
X156464000Y-132842000D03*
X157734000Y-133604000D03*
X150495000Y-120015000D03*
X150495000Y-121920000D03*
X192786000Y-130302000D03*
X197006228Y-131851410D03*
X198041129Y-131414627D03*
X193802000Y-131318000D03*
X195072000Y-132587994D03*
X198120000Y-132842000D03*
X197612000Y-127000000D03*
X192786000Y-127508000D03*
X195580000Y-125730000D03*
X153924000Y-117856000D03*
X157988000Y-116078000D03*
X156972000Y-116078000D03*
X155448000Y-116332000D03*
X156718000Y-125730000D03*
X155448000Y-125476000D03*
X149098000Y-122174000D03*
X148336000Y-116840000D03*
X150622000Y-116332000D03*
X153416000Y-116078000D03*
X143510000Y-134874000D03*
X141732000Y-135128000D03*
X141732000Y-136906000D03*
X142240000Y-139192000D03*
X143510000Y-139954000D03*
X148336000Y-141478000D03*
X149606000Y-141732000D03*
X152400000Y-141732000D03*
X155956000Y-141732000D03*
X159766000Y-141732000D03*
X163576000Y-141732000D03*
X167386000Y-141732000D03*
X178054000Y-136398000D03*
X179070000Y-137414000D03*
X180340000Y-138938000D03*
X181864000Y-140208000D03*
X180594000Y-140208000D03*
X180848000Y-141732000D03*
X175260000Y-141478000D03*
X174244000Y-140970000D03*
X172466000Y-141478000D03*
X171196000Y-140716000D03*
X169418000Y-140970000D03*
X176720519Y-121475481D03*
X178562000Y-123952000D03*
X181102000Y-123698000D03*
X180340000Y-122682000D03*
X179324000Y-121920000D03*
X182372000Y-136144000D03*
X181610000Y-135128000D03*
X180848000Y-134112000D03*
X179832000Y-133096000D03*
X179578000Y-131572000D03*
X179578000Y-129794000D03*
X180848000Y-129032000D03*
X180848000Y-130302000D03*
X181102000Y-132080000D03*
X202184000Y-138176000D03*
X198882000Y-137414000D03*
X200914000Y-137160000D03*
X203200000Y-137160000D03*
X203200000Y-135382000D03*
X200914000Y-135382000D03*
X198882000Y-134620000D03*
X200152000Y-133350000D03*
X202946000Y-133350000D03*
X202946000Y-131572000D03*
X199898000Y-131572000D03*
X193802000Y-126746000D03*
X197866000Y-125984000D03*
X201168000Y-125730000D03*
X203708000Y-125984000D03*
X203708000Y-124460000D03*
X201168000Y-124206000D03*
X197866000Y-124206000D03*
X197866000Y-122682000D03*
X201168000Y-122682000D03*
X203708000Y-122682000D03*
X203708000Y-121158000D03*
X201168000Y-121158000D03*
X197866000Y-121412000D03*
X197866000Y-119888000D03*
X201168000Y-119888000D03*
X203708000Y-119888000D03*
X168706812Y-139700000D03*
X157734004Y-119126000D03*
X172466000Y-137668000D03*
X169672006Y-120142000D03*
X167741610Y-134874000D03*
X185420000Y-137134590D03*
X177661667Y-117678221D03*
X178562000Y-117678221D03*
X179578000Y-117678221D03*
X160274000Y-124206000D03*
X158496000Y-125476000D03*
X169418000Y-123444000D03*
X183464221Y-122171375D03*
X182626000Y-133350000D03*
X183388006Y-132080000D03*
X184658000Y-124180590D03*
X186436000Y-125476000D03*
X180594000Y-119634000D03*
X179578000Y-119634000D03*
X179578000Y-118618000D03*
X179832000Y-120650000D03*
X187960000Y-129540000D03*
X187198000Y-129540000D03*
X186436000Y-129540000D03*
X186436000Y-128778000D03*
X187198000Y-128778000D03*
X187960000Y-128778000D03*
X187960000Y-128016000D03*
X187198000Y-128016000D03*
X186436046Y-128016000D03*
X184150000Y-136398000D03*
X185166000Y-136398000D03*
X184912000Y-132334000D03*
X184404000Y-131572000D03*
X187198000Y-136144000D03*
X189992000Y-134366000D03*
X192532000Y-134366000D03*
X200406000Y-139446000D03*
X197104000Y-138938000D03*
X202946000Y-118110000D03*
X157480000Y-134874000D03*
X153670000Y-134620000D03*
X152146000Y-135636000D03*
X147320000Y-125095000D03*
X144780000Y-133350000D03*
X160655000Y-119380000D03*
X150114006Y-125984000D03*
X162282335Y-124017526D03*
X146050000Y-133350000D03*
X145415000Y-125730000D03*
X184434447Y-125782225D03*
X183896000Y-124180590D03*
X190754000Y-126492000D03*
X190246000Y-122682000D03*
X193294000Y-121666000D03*
X191262000Y-127508000D03*
X161037126Y-134772390D03*
X162560066Y-132542988D03*
X158750000Y-134620000D03*
X164260038Y-122659495D03*
X161135058Y-120015000D03*
X165732629Y-122910590D03*
X152908000Y-130048000D03*
X153162000Y-126238000D03*
X166451564Y-140131779D03*
X147531711Y-136948289D03*
X174243982Y-136906000D03*
X170434000Y-134116913D03*
X172729289Y-123545610D03*
X172466132Y-134934268D03*
X168706811Y-125958590D03*
X169164000Y-127939843D03*
X164094967Y-126527364D03*
X177800000Y-128524000D03*
X178308000Y-131318000D03*
X196850000Y-140462000D03*
X156972000Y-127254000D03*
X161544000Y-124206000D03*
X161544000Y-126746000D03*
X156972000Y-130302000D03*
X164571893Y-123723378D03*
X159666964Y-126852691D03*
X174119503Y-123659411D03*
X175260000Y-117678221D03*
X171218557Y-134311348D03*
X175395449Y-133781841D03*
X172469399Y-134172263D03*
X178308000Y-138684000D03*
X165552108Y-129851079D03*
X174752000Y-129540004D03*
X169974463Y-130916425D03*
X167661323Y-130735161D03*
X172810458Y-130319685D03*
X168401964Y-130556000D03*
X167760835Y-129659288D03*
X169804797Y-129652731D03*
X172186590Y-129215371D03*
X167754778Y-128592476D03*
X160608229Y-127481674D03*
X178877945Y-125478510D03*
X178369004Y-127862508D03*
X157352996Y-129522404D03*
X161028113Y-128117566D03*
X176784000Y-126715528D03*
X159885415Y-128303011D03*
X177689003Y-126998718D03*
X159902501Y-129369822D03*
X180763292Y-125899286D03*
X167640000Y-139953998D03*
X146469593Y-136398944D03*
X164343090Y-132334000D03*
X166390812Y-134010390D03*
X167386000Y-139192000D03*
X145542000Y-136906000D03*
X172238056Y-128454796D03*
X168278529Y-128038990D03*
X162773674Y-130299043D03*
X182060250Y-123886011D03*
X163533791Y-130352755D03*
X182818375Y-123962875D03*
X163028155Y-126747529D03*
X163068000Y-123952000D03*
X160756590Y-130048000D03*
X159766000Y-130484532D03*
X160267977Y-131077667D03*
X159583063Y-131551344D03*
D16*
X183896000Y-128778000D02*
X183362599Y-128244599D01*
X183362599Y-128244599D02*
X183362599Y-123924557D01*
X183362599Y-123924557D02*
X184605156Y-122682000D01*
X184605156Y-122682000D02*
X188214000Y-122682000D01*
X183896000Y-128778000D02*
X185191401Y-130073401D01*
X185191401Y-130073401D02*
X189509401Y-130073401D01*
X189509401Y-130073401D02*
X193548000Y-134112000D01*
X168402000Y-126492000D02*
X167640000Y-125730000D01*
X174752000Y-126492000D02*
X168402000Y-126492000D01*
D17*
X194310000Y-117137180D02*
X194310000Y-117475000D01*
X159766000Y-117264180D02*
X160959801Y-116070379D01*
X193243200Y-116070380D02*
X194310000Y-117137180D01*
X159766000Y-117602000D02*
X159766000Y-117264180D01*
X160959801Y-116070379D02*
X193243200Y-116070380D01*
D16*
X168968433Y-121607567D02*
X169418000Y-121158000D01*
X168968433Y-122705337D02*
X168968433Y-121607567D01*
X164592000Y-129540000D02*
X164846000Y-129540000D01*
X164592000Y-129540000D02*
X164566542Y-129514542D01*
X164566542Y-129514542D02*
X162473292Y-129514542D01*
X162206520Y-129781314D02*
X161775468Y-129781314D01*
X162473292Y-129514542D02*
X162206520Y-129781314D01*
X164846000Y-136144000D02*
X168148000Y-136144000D01*
X163830000Y-137160000D02*
X164846000Y-136144000D01*
X172720000Y-129794000D02*
X172720000Y-129032000D01*
X172720000Y-129032000D02*
X173228000Y-128524000D01*
X171196000Y-129794000D02*
X172720000Y-129794000D01*
X174752000Y-126492000D02*
X175514000Y-125730000D01*
X175514000Y-125730000D02*
X178054000Y-125730000D01*
X160830249Y-121537138D02*
X162688862Y-121537138D01*
X162688862Y-121537138D02*
X162814000Y-121412000D01*
X187198000Y-125476000D02*
X187705990Y-125476000D01*
X183896000Y-128778000D02*
X187198000Y-125476000D01*
X187198000Y-124206000D02*
X187705990Y-124713990D01*
X187705990Y-124713990D02*
X187705990Y-125476000D01*
X188214000Y-122682000D02*
X189992000Y-120904000D01*
X189992000Y-120904000D02*
X189992000Y-119888000D01*
X157734000Y-133604000D02*
X157226000Y-133604000D01*
X157226000Y-133604000D02*
X156464000Y-132842000D01*
X150495000Y-121920000D02*
X150495000Y-120015000D01*
X187960000Y-128778000D02*
X191262000Y-128778000D01*
X192481201Y-129997201D02*
X192786000Y-130302000D01*
X191262000Y-128778000D02*
X192481201Y-129997201D01*
X197612000Y-127000000D02*
X197612000Y-130985498D01*
X197612000Y-130985498D02*
X197736330Y-131109828D01*
X197736330Y-131109828D02*
X198041129Y-131414627D01*
X196472818Y-131318000D02*
X196701429Y-131546611D01*
X193802000Y-131318000D02*
X196472818Y-131318000D01*
X196701429Y-131546611D02*
X197006228Y-131851410D01*
X195326006Y-132842000D02*
X195072000Y-132587994D01*
X198120000Y-132842000D02*
X195326006Y-132842000D01*
X193040000Y-127508000D02*
X192786000Y-127508000D01*
X193802000Y-126746000D02*
X193040000Y-127508000D01*
X195834000Y-125984000D02*
X195580000Y-125730000D01*
X197866000Y-125984000D02*
X195834000Y-125984000D01*
X147828000Y-125603000D02*
X147828000Y-128778000D01*
X147828000Y-128778000D02*
X147828000Y-131318000D01*
X149826980Y-128905000D02*
X147955000Y-128905000D01*
X147955000Y-128905000D02*
X147828000Y-128778000D01*
X147320000Y-125095000D02*
X147828000Y-125603000D01*
X147828000Y-131318000D02*
X148590000Y-132080000D01*
X157988000Y-116078000D02*
X155702000Y-116078000D01*
X155702000Y-116078000D02*
X153924000Y-117856000D01*
X155448000Y-116332000D02*
X156718000Y-116332000D01*
X156718000Y-116332000D02*
X156972000Y-116078000D01*
X155448000Y-125476000D02*
X156464000Y-125476000D01*
X156464000Y-125476000D02*
X156718000Y-125730000D01*
X148336000Y-116840000D02*
X148336000Y-121412000D01*
X148336000Y-121412000D02*
X149098000Y-122174000D01*
X153416000Y-116078000D02*
X150876000Y-116078000D01*
X150876000Y-116078000D02*
X150622000Y-116332000D01*
X141732000Y-135128000D02*
X143256000Y-135128000D01*
X143256000Y-135128000D02*
X143510000Y-134874000D01*
X142240000Y-139192000D02*
X141732000Y-138684000D01*
X141732000Y-138684000D02*
X141732000Y-136906000D01*
X148336000Y-141478000D02*
X146812000Y-139954000D01*
X146812000Y-139954000D02*
X143510000Y-139954000D01*
X152400000Y-141732000D02*
X149606000Y-141732000D01*
X159766000Y-141732000D02*
X155956000Y-141732000D01*
X167386000Y-141732000D02*
X163576000Y-141732000D01*
X179070000Y-137414000D02*
X178054000Y-136398000D01*
X181864000Y-140208000D02*
X180594000Y-138938000D01*
X180594000Y-138938000D02*
X180340000Y-138938000D01*
X180848000Y-141732000D02*
X180848000Y-140462000D01*
X180848000Y-140462000D02*
X180594000Y-140208000D01*
X174244000Y-140970000D02*
X174752000Y-140970000D01*
X174752000Y-140970000D02*
X175260000Y-141478000D01*
X171196000Y-140716000D02*
X171704000Y-140716000D01*
X171704000Y-140716000D02*
X172466000Y-141478000D01*
X168706812Y-139700000D02*
X168706812Y-140258812D01*
X168706812Y-140258812D02*
X169418000Y-140970000D01*
X176720519Y-121475481D02*
X177165038Y-121920000D01*
X177165038Y-121920000D02*
X179324000Y-121920000D01*
X181102000Y-123698000D02*
X178816000Y-123698000D01*
X178816000Y-123698000D02*
X178562000Y-123952000D01*
X179324000Y-121920000D02*
X179578000Y-121920000D01*
X179578000Y-121920000D02*
X180340000Y-122682000D01*
X181610000Y-135128000D02*
X181610000Y-135382000D01*
X181610000Y-135382000D02*
X182372000Y-136144000D01*
X179832000Y-133096000D02*
X180848000Y-134112000D01*
X179578000Y-129794000D02*
X179578000Y-131572000D01*
X180848000Y-130302000D02*
X180848000Y-129032000D01*
X182626000Y-133350000D02*
X181356000Y-132080000D01*
X181356000Y-132080000D02*
X181102000Y-132080000D01*
X202184000Y-138176000D02*
X201676000Y-138176000D01*
X201676000Y-138176000D02*
X200406000Y-139446000D01*
X200914000Y-137160000D02*
X199136000Y-137160000D01*
X199136000Y-137160000D02*
X198882000Y-137414000D01*
X203200000Y-135382000D02*
X203200000Y-137160000D01*
X198882000Y-134620000D02*
X199644000Y-135382000D01*
X199644000Y-135382000D02*
X200914000Y-135382000D01*
X202946000Y-133350000D02*
X200152000Y-133350000D01*
X199898000Y-131572000D02*
X202946000Y-131572000D01*
X203708000Y-125984000D02*
X201422000Y-125984000D01*
X201422000Y-125984000D02*
X201168000Y-125730000D01*
X201168000Y-124206000D02*
X203454000Y-124206000D01*
X203454000Y-124206000D02*
X203708000Y-124460000D01*
X197866000Y-122682000D02*
X197866000Y-124206000D01*
X203708000Y-122682000D02*
X201168000Y-122682000D01*
X201168000Y-121158000D02*
X203708000Y-121158000D01*
X197866000Y-119888000D02*
X197866000Y-121412000D01*
X203708000Y-119888000D02*
X201168000Y-119888000D01*
X168706812Y-137921987D02*
X168706812Y-139700000D01*
X168960799Y-137668000D02*
X168706812Y-137921987D01*
X196850000Y-118618000D02*
X196359770Y-119108230D01*
X196359770Y-119108230D02*
X181119770Y-119108230D01*
X181119770Y-119108230D02*
X180594000Y-119634000D01*
X160655000Y-119380000D02*
X157988004Y-119380000D01*
X157988004Y-119380000D02*
X157734004Y-119126000D01*
X168960799Y-137668000D02*
X168960799Y-135913363D01*
X172466000Y-137668000D02*
X168960799Y-137668000D01*
X169976805Y-120446799D02*
X169672006Y-120142000D01*
X169976805Y-122885195D02*
X169976805Y-120446799D01*
X169418000Y-123444000D02*
X169976805Y-122885195D01*
X168960799Y-135913363D02*
X168226235Y-135178799D01*
X168226235Y-135178799D02*
X168046409Y-135178799D01*
X168046409Y-135178799D02*
X167741610Y-134874000D01*
X178562000Y-117678221D02*
X177661667Y-117678221D01*
X179578000Y-118618000D02*
X179578000Y-117678221D01*
X159004000Y-125476000D02*
X160274000Y-124206000D01*
X158496000Y-125476000D02*
X159004000Y-125476000D01*
X181353375Y-122171375D02*
X183464221Y-122171375D01*
X179832000Y-120650000D02*
X181353375Y-122171375D01*
X182626000Y-133350000D02*
X183388006Y-132587994D01*
X183388006Y-132587994D02*
X183388006Y-132080000D01*
X184404000Y-131572000D02*
X183896000Y-132080000D01*
X183896000Y-132080000D02*
X183388006Y-132080000D01*
X185953410Y-125476000D02*
X184658000Y-124180590D01*
X186436000Y-125476000D02*
X185953410Y-125476000D01*
X180594000Y-119634000D02*
X180594000Y-119888000D01*
X180594000Y-119888000D02*
X179832000Y-120650000D01*
X179578000Y-118618000D02*
X179578000Y-119634000D01*
X185166000Y-136398000D02*
X184150000Y-136398000D01*
X184912000Y-132334000D02*
X184912000Y-132080000D01*
X184912000Y-132080000D02*
X184404000Y-131572000D01*
X189992000Y-134366000D02*
X188976000Y-134366000D01*
X188976000Y-134366000D02*
X187198000Y-136144000D01*
X192532000Y-134366000D02*
X189992000Y-134366000D01*
X197104000Y-138938000D02*
X197612000Y-139446000D01*
X197612000Y-139446000D02*
X200406000Y-139446000D01*
X196850000Y-118618000D02*
X202438000Y-118618000D01*
X202438000Y-118618000D02*
X202946000Y-118110000D01*
X157480000Y-134874000D02*
X153924000Y-134874000D01*
X153924000Y-134874000D02*
X153670000Y-134620000D01*
X152146000Y-135636000D02*
X152654000Y-135636000D01*
X152654000Y-135636000D02*
X153670000Y-134620000D01*
X144780000Y-133350000D02*
X145313401Y-133883401D01*
X145313401Y-133883401D02*
X147124419Y-133883401D01*
X147124419Y-133883401D02*
X148590000Y-132417820D01*
X148590000Y-132417820D02*
X148590000Y-132080000D01*
X160655000Y-119380000D02*
X163405820Y-119380000D01*
X163405820Y-119380000D02*
X164846000Y-117939820D01*
X164846000Y-117939820D02*
X164846000Y-117602000D01*
X149885424Y-125755418D02*
X150114006Y-125984000D01*
X151231637Y-123367787D02*
X149885424Y-124714000D01*
X162282335Y-124017526D02*
X161632596Y-123367787D01*
X149885424Y-124714000D02*
X149885424Y-125755418D01*
X161632596Y-123367787D02*
X151231637Y-123367787D01*
D18*
X145415000Y-125730000D02*
X145415000Y-132715000D01*
X145415000Y-132715000D02*
X146050000Y-133350000D01*
D16*
X183896000Y-124180590D02*
X183896000Y-125243778D01*
X183896000Y-125243778D02*
X184434447Y-125782225D01*
X190246000Y-125984000D02*
X190754000Y-126492000D01*
X190246000Y-122682000D02*
X190246000Y-125984000D01*
X193294000Y-125476000D02*
X193294000Y-121666000D01*
X191262000Y-127508000D02*
X193294000Y-125476000D01*
X152654000Y-139700000D02*
X152654000Y-137160000D01*
X158750000Y-134620000D02*
X156210000Y-137160000D01*
X156210000Y-137160000D02*
X152654000Y-137160000D01*
X162560066Y-133249450D02*
X161037126Y-134772390D01*
X162560066Y-132542988D02*
X162560066Y-133249450D01*
X164260038Y-122068602D02*
X164260038Y-122659495D01*
X162206436Y-120015000D02*
X164260038Y-122068602D01*
X161135058Y-120015000D02*
X162206436Y-120015000D01*
X167386000Y-117602000D02*
X167386000Y-117939820D01*
X165732629Y-119593191D02*
X165732629Y-122910590D01*
X167386000Y-117939820D02*
X165732629Y-119593191D01*
D18*
X153162000Y-126238000D02*
X153162000Y-129794000D01*
X153162000Y-129794000D02*
X152908000Y-130048000D01*
D17*
X160387790Y-135382000D02*
X165137569Y-140131779D01*
X165137569Y-140131779D02*
X166451564Y-140131779D01*
D18*
X149139531Y-136948289D02*
X147531711Y-136948289D01*
X153670000Y-132080000D02*
X153670000Y-132417820D01*
X153670000Y-132417820D02*
X149139531Y-136948289D01*
D17*
X170716894Y-136906000D02*
X174243982Y-136906000D01*
X168910000Y-135099106D02*
X170716894Y-136906000D01*
X168910000Y-134112000D02*
X168910000Y-135099106D01*
X168914913Y-134116913D02*
X170434000Y-134116913D01*
X168910000Y-134112000D02*
X168914913Y-134116913D01*
X167386000Y-134112000D02*
X168910000Y-134112000D01*
X166878000Y-134620000D02*
X167386000Y-134112000D01*
X165232880Y-134620000D02*
X166878000Y-134620000D01*
X164470880Y-135382000D02*
X165232880Y-134620000D01*
X157085790Y-132080000D02*
X160387790Y-135382000D01*
X160387790Y-135382000D02*
X164470880Y-135382000D01*
X153670000Y-132080000D02*
X157085790Y-132080000D01*
X172729289Y-120130711D02*
X172729289Y-123545610D01*
X174115000Y-118745000D02*
X172729289Y-120130711D01*
X170815000Y-135665000D02*
X171545732Y-134934268D01*
X171545732Y-134934268D02*
X172466132Y-134934268D01*
D16*
X196850000Y-140462000D02*
X196850000Y-140030948D01*
X196850000Y-140030948D02*
X194741052Y-137922000D01*
X194741052Y-137922000D02*
X183134000Y-137922000D01*
X183134000Y-137922000D02*
X178308000Y-133096000D01*
X178308000Y-133096000D02*
X178308000Y-131318000D01*
X172529695Y-127970817D02*
X172473312Y-127914434D01*
X167944819Y-125196598D02*
X168706811Y-125958590D01*
X164094967Y-126527364D02*
X164399766Y-126222565D01*
X167383966Y-125196598D02*
X167944819Y-125196598D01*
X166357999Y-126222565D02*
X167383966Y-125196598D01*
X169595052Y-127939843D02*
X169164000Y-127939843D01*
X164399766Y-126222565D02*
X166357999Y-126222565D01*
X177800000Y-128524000D02*
X177246817Y-127970817D01*
X172473312Y-127914434D02*
X169620461Y-127914434D01*
X169620461Y-127914434D02*
X169595052Y-127939843D01*
X177246817Y-127970817D02*
X172529695Y-127970817D01*
X156972000Y-127254000D02*
X157276799Y-126949201D01*
X157276799Y-126949201D02*
X158800799Y-126949201D01*
X158800799Y-126949201D02*
X159283402Y-126466598D01*
X159283402Y-126466598D02*
X161544000Y-124206000D01*
X161112948Y-126746000D02*
X161544000Y-126746000D01*
X160528000Y-126746000D02*
X161112948Y-126746000D01*
X157096963Y-128989003D02*
X158284997Y-128989003D01*
X156667201Y-129418765D02*
X157096963Y-128989003D01*
X156667201Y-129997201D02*
X156667201Y-129418765D01*
X156972000Y-130302000D02*
X156667201Y-129997201D01*
X158284997Y-128989003D02*
X160528000Y-126746000D01*
X162976722Y-125318549D02*
X164571893Y-123723378D01*
X161201106Y-125318549D02*
X162976722Y-125318549D01*
X159666964Y-126852691D02*
X161201106Y-125318549D01*
D17*
X175260000Y-117678221D02*
X175006000Y-117932221D01*
X175019801Y-118310695D02*
X175019801Y-119179305D01*
X175019801Y-119179305D02*
X175006000Y-119193106D01*
X175006000Y-119193106D02*
X175006000Y-121696894D01*
X175019801Y-122579305D02*
X175006000Y-122593106D01*
X175006000Y-117932221D02*
X175006000Y-118296894D01*
X175006000Y-118296894D02*
X175019801Y-118310695D01*
X175006000Y-121696894D02*
X175019801Y-121710695D01*
X175019801Y-121710695D02*
X175019801Y-122579305D01*
X175006000Y-122593106D02*
X175006000Y-122772914D01*
X175006000Y-122772914D02*
X174119503Y-123659411D01*
X172027352Y-133502553D02*
X171218557Y-134311348D01*
X174685109Y-133502553D02*
X172027352Y-133502553D01*
X174964397Y-133781841D02*
X174685109Y-133502553D01*
X175395449Y-133781841D02*
X174964397Y-133781841D01*
X178308000Y-138684000D02*
X178308000Y-138252948D01*
X178308000Y-138252948D02*
X174227315Y-134172263D01*
X174227315Y-134172263D02*
X172469399Y-134172263D01*
D16*
X172101395Y-131157898D02*
X172058252Y-131114755D01*
X167291043Y-131590014D02*
X165552108Y-129851079D01*
X174752000Y-129971056D02*
X173565158Y-131157898D01*
X170356751Y-131754637D02*
X167949067Y-131754637D01*
X172058252Y-131114755D02*
X170996634Y-131114755D01*
X173565158Y-131157898D02*
X172101395Y-131157898D01*
X174752000Y-129540004D02*
X174752000Y-129971056D01*
X167949067Y-131754637D02*
X167784444Y-131590014D01*
X167784444Y-131590014D02*
X167291043Y-131590014D01*
X170996634Y-131114755D02*
X170356751Y-131754637D01*
X167791725Y-130735161D02*
X167661323Y-130735161D01*
X169974463Y-130916425D02*
X169543411Y-130916425D01*
X169543411Y-130916425D02*
X169370434Y-131089402D01*
X168145966Y-131089402D02*
X167791725Y-130735161D01*
X169370434Y-131089402D02*
X168145966Y-131089402D01*
X172379406Y-130319685D02*
X172810458Y-130319685D01*
X172371690Y-130327401D02*
X172379406Y-130319685D01*
X169061615Y-130327401D02*
X172371690Y-130327401D01*
X168401964Y-130556000D02*
X168833016Y-130556000D01*
X168833016Y-130556000D02*
X169061615Y-130327401D01*
X169804797Y-129652731D02*
X167767392Y-129652731D01*
X167767392Y-129652731D02*
X167760835Y-129659288D01*
X167754778Y-128592476D02*
X168059577Y-128897275D01*
X168059577Y-128897275D02*
X171868494Y-128897275D01*
X171868494Y-128897275D02*
X172186590Y-129215371D01*
X178877945Y-125478510D02*
X178291222Y-124891787D01*
X164407706Y-125425189D02*
X163561565Y-126271330D01*
X163375762Y-127481674D02*
X160608229Y-127481674D01*
X163561565Y-126271330D02*
X163561565Y-127295871D01*
X163561565Y-127295871D02*
X163375762Y-127481674D01*
X165965649Y-124891787D02*
X165432247Y-125425189D01*
X165432247Y-125425189D02*
X164407706Y-125425189D01*
X178291222Y-124891787D02*
X165965649Y-124891787D01*
X159646468Y-128836421D02*
X160158534Y-128836421D01*
X164260578Y-128904920D02*
X165759065Y-127406433D01*
X177741450Y-127666006D02*
X177937952Y-127862508D01*
X158960485Y-129522404D02*
X159646468Y-128836421D01*
X172655951Y-127666006D02*
X177741450Y-127666006D01*
X161431359Y-128904920D02*
X164260578Y-128904920D01*
X165759065Y-127406433D02*
X172396378Y-127406433D01*
X161380492Y-128955787D02*
X161431359Y-128904920D01*
X160158534Y-128836421D02*
X160277900Y-128955787D01*
X157352996Y-129522404D02*
X158960485Y-129522404D01*
X172396378Y-127406433D02*
X172655951Y-127666006D01*
X160277900Y-128955787D02*
X161380492Y-128955787D01*
X177937952Y-127862508D02*
X178369004Y-127862508D01*
X176474127Y-127025401D02*
X172877480Y-127025401D01*
X163294201Y-128117566D02*
X161028113Y-128117566D01*
X172877480Y-127025401D02*
X172648890Y-126796811D01*
X164614956Y-126796811D02*
X163294201Y-128117566D01*
X176784000Y-126715528D02*
X176474127Y-127025401D01*
X172648890Y-126796811D02*
X164614956Y-126796811D01*
X161305103Y-128600109D02*
X161254236Y-128650976D01*
X177689003Y-126998718D02*
X177357509Y-127330212D01*
X172522634Y-127101622D02*
X165632808Y-127101622D01*
X177357509Y-127330212D02*
X172751224Y-127330212D01*
X160316467Y-128303011D02*
X159885415Y-128303011D01*
X160664432Y-128650976D02*
X160316467Y-128303011D01*
X165632808Y-127101622D02*
X164134321Y-128600109D01*
X172751224Y-127330212D02*
X172522634Y-127101622D01*
X164134321Y-128600109D02*
X161305103Y-128600109D01*
X161254236Y-128650976D02*
X160664432Y-128650976D01*
X161397524Y-129369822D02*
X159902501Y-129369822D01*
X166085509Y-129595046D02*
X165497061Y-129006598D01*
X164386833Y-129209731D02*
X161557615Y-129209731D01*
X161557615Y-129209731D02*
X161397524Y-129369822D01*
X164589966Y-129006598D02*
X164386833Y-129209731D01*
X165497061Y-129006598D02*
X164589966Y-129006598D01*
X166085509Y-129948753D02*
X166085509Y-129595046D01*
X167894060Y-131268563D02*
X167405319Y-131268563D01*
X173343860Y-130575719D02*
X173066492Y-130853087D01*
X174578700Y-128828811D02*
X173343860Y-130063651D01*
X178036229Y-129057401D02*
X177546000Y-129057401D01*
X170230496Y-131449826D02*
X168075323Y-131449826D01*
X170870378Y-130809944D02*
X170230496Y-131449826D01*
X172227651Y-130853087D02*
X172184508Y-130809944D01*
X173343860Y-130063651D02*
X173343860Y-130575719D01*
X177546000Y-129057401D02*
X177317410Y-128828811D01*
X180763292Y-125899286D02*
X180763292Y-126330338D01*
X177317410Y-128828811D02*
X174578700Y-128828811D01*
X172184508Y-130809944D02*
X170870378Y-130809944D01*
X167405319Y-131268563D02*
X166085509Y-129948753D01*
X180763292Y-126330338D02*
X178036229Y-129057401D01*
X173066492Y-130853087D02*
X172227651Y-130853087D01*
X168075323Y-131449826D02*
X167894060Y-131268563D01*
X166928809Y-140665189D02*
X167640000Y-139953998D01*
X150304786Y-140665189D02*
X166928809Y-140665189D01*
X146469593Y-136829996D02*
X150304786Y-140665189D01*
X146469593Y-136398944D02*
X146469593Y-136829996D01*
X165714681Y-133705591D02*
X164343090Y-132334000D01*
X166086013Y-133705591D02*
X165714681Y-133705591D01*
X166390812Y-134010390D02*
X166086013Y-133705591D01*
X168173402Y-139548350D02*
X167817052Y-139192000D01*
X167667454Y-140970000D02*
X168173402Y-140464052D01*
X145542000Y-136906000D02*
X149606000Y-140970000D01*
X149606000Y-140970000D02*
X167667454Y-140970000D01*
X168173402Y-140464052D02*
X168173402Y-139548350D01*
X167817052Y-139192000D02*
X167386000Y-139192000D01*
X171807004Y-128454796D02*
X172238056Y-128454796D01*
X168712783Y-128473244D02*
X171788556Y-128473244D01*
X171788556Y-128473244D02*
X171807004Y-128454796D01*
X168278529Y-128038990D02*
X168712783Y-128473244D01*
X163253364Y-129819353D02*
X162773674Y-130299043D01*
X171122889Y-131419567D02*
X170483007Y-132059448D01*
X164335917Y-129819353D02*
X163253364Y-129819353D01*
X164793112Y-130276548D02*
X164335917Y-129819353D01*
X165230404Y-130276548D02*
X164793112Y-130276548D01*
X167658188Y-131894825D02*
X166848681Y-131894825D01*
X171931996Y-131419566D02*
X171122889Y-131419567D01*
X182060250Y-125484251D02*
X176081792Y-131462709D01*
X182060250Y-123886011D02*
X182060250Y-125484251D01*
X170483007Y-132059448D02*
X167822811Y-132059448D01*
X167822811Y-132059448D02*
X167658188Y-131894825D01*
X176081792Y-131462709D02*
X171975139Y-131462709D01*
X166848681Y-131894825D02*
X165230404Y-130276548D01*
X171975139Y-131462709D02*
X171931996Y-131419566D01*
X167531932Y-132199636D02*
X166722426Y-132199636D01*
X171848883Y-131767520D02*
X171805740Y-131724377D01*
X182818375Y-123962875D02*
X182818375Y-125157193D01*
X171805740Y-131724377D02*
X171249146Y-131724377D01*
X166722426Y-132199636D02*
X165104148Y-130581358D01*
X165104148Y-130581358D02*
X164193446Y-130581358D01*
X170609263Y-132364259D02*
X167696555Y-132364259D01*
X171249146Y-131724377D02*
X170609263Y-132364259D01*
X182818375Y-125157193D02*
X176208048Y-131767520D01*
X176208048Y-131767520D02*
X171848883Y-131767520D01*
X163964843Y-130352755D02*
X163533791Y-130352755D01*
X164193446Y-130581358D02*
X163964843Y-130352755D01*
X167696555Y-132364259D02*
X167531932Y-132199636D01*
X172943923Y-118033820D02*
X172689924Y-117779820D01*
X166624000Y-123444000D02*
X164947622Y-125120378D01*
X163028155Y-126316477D02*
X163028155Y-126747529D01*
X173512077Y-118033820D02*
X172943923Y-118033820D01*
X181546509Y-117144811D02*
X174401086Y-117144811D01*
X186690000Y-117475000D02*
X186690000Y-117812820D01*
X183205119Y-118803421D02*
X181546509Y-117144811D01*
X170553850Y-117779820D02*
X166624000Y-121709670D01*
X174401086Y-117144811D02*
X173512077Y-118033820D01*
X172689924Y-117779820D02*
X170553850Y-117779820D01*
X185699399Y-118803421D02*
X183205119Y-118803421D01*
X186690000Y-117812820D02*
X185699399Y-118803421D01*
X166624000Y-121709670D02*
X166624000Y-123444000D01*
X164947622Y-125120378D02*
X164224254Y-125120378D01*
X164224254Y-125120378D02*
X163028155Y-126316477D01*
X163553837Y-123952000D02*
X163068000Y-123952000D01*
X171451213Y-116451390D02*
X166319189Y-121583414D01*
X164315860Y-123189977D02*
X163553837Y-123952000D01*
X166319189Y-123240811D02*
X166092655Y-123467345D01*
X166319189Y-121583414D02*
X166319189Y-123240811D01*
X164827926Y-123189977D02*
X164315860Y-123189977D01*
X165105294Y-123467345D02*
X164827926Y-123189977D01*
X182211990Y-116451390D02*
X171451213Y-116451390D01*
X166092655Y-123467345D02*
X165105294Y-123467345D01*
X184150000Y-117475000D02*
X183235600Y-117475000D01*
X183235600Y-117475000D02*
X182211990Y-116451390D01*
X160756590Y-130048000D02*
X161594755Y-130886165D01*
X171196000Y-132334000D02*
X171457669Y-132072331D01*
X161594755Y-130886165D02*
X164718802Y-130886165D01*
X166596170Y-132504447D02*
X167405676Y-132504447D01*
X164718802Y-130886165D02*
X164977892Y-130886169D01*
X176573143Y-132072331D02*
X182727623Y-138226811D01*
X164977892Y-130886169D02*
X166596170Y-132504447D01*
X182727623Y-138226811D02*
X189999631Y-138226811D01*
X167405676Y-132504447D02*
X167570299Y-132669070D01*
X167570299Y-132669070D02*
X170735520Y-132669070D01*
X170735520Y-132669070D02*
X171070589Y-132334000D01*
X171070589Y-132334000D02*
X171196000Y-132334000D01*
X171457669Y-132072331D02*
X176573143Y-132072331D01*
X189999631Y-138226811D02*
X191770000Y-139997180D01*
X191770000Y-139997180D02*
X191770000Y-140335000D01*
X167444043Y-132973881D02*
X167279420Y-132809258D01*
X164851635Y-131190979D02*
X164592546Y-131190976D01*
X171155060Y-132973881D02*
X167444043Y-132973881D01*
X176553884Y-132511750D02*
X171617191Y-132511750D01*
X182573756Y-138531622D02*
X176553884Y-132511750D01*
X166469914Y-132809258D02*
X164851635Y-131190979D01*
X189230000Y-139997180D02*
X187764442Y-138531622D01*
X189230000Y-140335000D02*
X189230000Y-139997180D01*
X171617191Y-132511750D02*
X171155060Y-132973881D01*
X167279420Y-132809258D02*
X166469914Y-132809258D01*
X164592546Y-131190976D02*
X162231190Y-131190976D01*
X187764442Y-138531622D02*
X182573756Y-138531622D01*
X162231190Y-131190976D02*
X161571370Y-131850796D01*
X160403686Y-130484532D02*
X159766000Y-130484532D01*
X161571370Y-131850796D02*
X161571370Y-131599370D01*
X161571370Y-131599370D02*
X160553402Y-130581402D01*
X160553402Y-130581402D02*
X160500556Y-130581402D01*
X160500556Y-130581402D02*
X160403686Y-130484532D01*
X186690000Y-140335000D02*
X186690000Y-139997180D01*
X186690000Y-139997180D02*
X185529253Y-138836433D01*
X185529253Y-138836433D02*
X182447500Y-138836433D01*
X182447500Y-138836433D02*
X176427628Y-132816561D01*
X161352619Y-132162309D02*
X160267977Y-131077667D01*
X176427628Y-132816561D02*
X171743447Y-132816561D01*
X164725378Y-131495789D02*
X164466290Y-131495787D01*
X162395386Y-131495787D02*
X161728864Y-132162309D01*
X164466290Y-131495787D02*
X162395386Y-131495787D01*
X171743447Y-132816561D02*
X171281316Y-133278692D01*
X167317787Y-133278692D02*
X167153164Y-133114069D01*
X167153164Y-133114069D02*
X166343659Y-133114069D01*
X171281316Y-133278692D02*
X167317787Y-133278692D01*
X161728864Y-132162309D02*
X161352619Y-132162309D01*
X166343659Y-133114069D02*
X164725378Y-131495789D01*
X171869703Y-133121372D02*
X171407572Y-133583503D01*
X176021972Y-133121372D02*
X171869703Y-133121372D01*
X160670530Y-132638811D02*
X159583063Y-131551344D01*
X183235600Y-140335000D02*
X176021972Y-133121372D01*
X166217404Y-133418880D02*
X164599123Y-131800599D01*
X167026908Y-133418880D02*
X166217404Y-133418880D01*
X167191531Y-133583503D02*
X167026908Y-133418880D01*
X161683429Y-132638811D02*
X160670530Y-132638811D01*
X171407572Y-133583503D02*
X167191531Y-133583503D01*
X184150000Y-140335000D02*
X183235600Y-140335000D01*
X162521642Y-131800598D02*
X161683429Y-132638811D01*
X164599123Y-131800599D02*
X162521642Y-131800598D01*
D19*
G36*
X204014000Y-141784000D02*
X195146377Y-141784000D01*
X195208026Y-141750450D01*
X195552059Y-141324761D01*
X195707000Y-140799820D01*
X195707000Y-140462000D01*
X194437000Y-140462000D01*
X194437000Y-140482000D01*
X194183000Y-140482000D01*
X194183000Y-140462000D01*
X192913000Y-140462000D01*
X192913000Y-140208000D01*
X194183000Y-140208000D01*
X194183000Y-138765460D01*
X193966930Y-138642960D01*
X193892723Y-138657920D01*
X193411974Y-138919550D01*
X193067941Y-139345239D01*
X192913000Y-139870180D01*
X192913000Y-139968169D01*
X192825994Y-139530762D01*
X192578223Y-139159946D01*
X192207407Y-138912175D01*
X191770000Y-138825169D01*
X191332593Y-138912175D01*
X191331982Y-138912584D01*
X190798598Y-138379200D01*
X194551674Y-138379200D01*
X194953517Y-138781043D01*
X194727277Y-138657920D01*
X194653070Y-138642960D01*
X194437000Y-138765460D01*
X194437000Y-140208000D01*
X195707000Y-140208000D01*
X195707000Y-139870180D01*
X195566442Y-139393968D01*
X196262064Y-140089590D01*
X196164319Y-140324987D01*
X196164081Y-140597816D01*
X196268268Y-140849967D01*
X196461018Y-141043054D01*
X196712987Y-141147681D01*
X196985816Y-141147919D01*
X197237967Y-141043732D01*
X197431054Y-140850982D01*
X197535681Y-140599013D01*
X197535919Y-140326184D01*
X197431732Y-140074033D01*
X197286914Y-139928962D01*
X197272398Y-139855985D01*
X197173289Y-139707659D01*
X195064341Y-137598711D01*
X194916015Y-137499602D01*
X194741052Y-137464800D01*
X183323378Y-137464800D01*
X178765200Y-132906622D01*
X178765200Y-131830620D01*
X178889054Y-131706982D01*
X178993681Y-131455013D01*
X178993919Y-131182184D01*
X178889732Y-130930033D01*
X178696982Y-130736946D01*
X178445013Y-130632319D01*
X178172184Y-130632081D01*
X177920033Y-130736268D01*
X177726946Y-130929018D01*
X177622319Y-131180987D01*
X177622081Y-131453816D01*
X177726268Y-131705967D01*
X177850800Y-131830717D01*
X177850800Y-132703410D01*
X176896432Y-131749042D01*
X176882448Y-131739698D01*
X182905399Y-125716747D01*
X182905399Y-128244599D01*
X182940201Y-128419562D01*
X183039310Y-128567888D01*
X183210234Y-128738812D01*
X183210081Y-128913816D01*
X183314268Y-129165967D01*
X183507018Y-129359054D01*
X183758987Y-129463681D01*
X183935257Y-129463835D01*
X184868112Y-130396690D01*
X185016438Y-130495799D01*
X185191401Y-130530601D01*
X189320023Y-130530601D01*
X192862234Y-134072813D01*
X192862081Y-134247816D01*
X192966268Y-134499967D01*
X193159018Y-134693054D01*
X193410987Y-134797681D01*
X193683816Y-134797919D01*
X193935967Y-134693732D01*
X194129054Y-134500982D01*
X194233681Y-134249013D01*
X194233919Y-133976184D01*
X194129732Y-133724033D01*
X193936982Y-133530946D01*
X193685013Y-133426319D01*
X193508744Y-133426165D01*
X190339447Y-130256868D01*
X194534737Y-130256868D01*
X194645641Y-130534099D01*
X195291593Y-130777323D01*
X195981453Y-130754836D01*
X196514359Y-130534099D01*
X196625263Y-130256868D01*
X195580000Y-129211605D01*
X194534737Y-130256868D01*
X190339447Y-130256868D01*
X189832690Y-129750112D01*
X189684364Y-129651003D01*
X189509401Y-129616201D01*
X185380779Y-129616201D01*
X184581766Y-128817188D01*
X184581830Y-128743593D01*
X193834677Y-128743593D01*
X193857164Y-129433453D01*
X194077901Y-129966359D01*
X194355132Y-130077263D01*
X195400395Y-129032000D01*
X195759605Y-129032000D01*
X196804868Y-130077263D01*
X197082099Y-129966359D01*
X197325323Y-129320407D01*
X197302836Y-128630547D01*
X197082099Y-128097641D01*
X196804868Y-127986737D01*
X195759605Y-129032000D01*
X195400395Y-129032000D01*
X194355132Y-127986737D01*
X194077901Y-128097641D01*
X193834677Y-128743593D01*
X184581830Y-128743593D01*
X184581835Y-128738743D01*
X187290289Y-126030289D01*
X187317008Y-126057054D01*
X187568977Y-126161681D01*
X187841806Y-126161919D01*
X188093957Y-126057732D01*
X188287044Y-125864982D01*
X188391671Y-125613013D01*
X188391909Y-125340184D01*
X188287722Y-125088033D01*
X188163190Y-124963283D01*
X188163190Y-124713990D01*
X188128388Y-124539027D01*
X188029279Y-124390701D01*
X187883766Y-124245188D01*
X187883919Y-124070184D01*
X187779732Y-123818033D01*
X187586982Y-123624946D01*
X187335013Y-123520319D01*
X187062184Y-123520081D01*
X186810033Y-123624268D01*
X186616946Y-123817018D01*
X186512319Y-124068987D01*
X186512081Y-124341816D01*
X186616268Y-124593967D01*
X186809018Y-124787054D01*
X187060987Y-124891681D01*
X187237257Y-124891835D01*
X187248790Y-124903368D01*
X187248790Y-124963380D01*
X187192097Y-125019974D01*
X187023037Y-125053602D01*
X186874711Y-125152711D01*
X183935188Y-128092234D01*
X183856743Y-128092165D01*
X183819799Y-128055221D01*
X183819799Y-126090529D01*
X183852715Y-126170192D01*
X184045465Y-126363279D01*
X184297434Y-126467906D01*
X184570263Y-126468144D01*
X184822414Y-126363957D01*
X185015501Y-126171207D01*
X185120128Y-125919238D01*
X185120366Y-125646409D01*
X185016179Y-125394258D01*
X184823429Y-125201171D01*
X184571460Y-125096544D01*
X184395190Y-125096390D01*
X184353200Y-125054400D01*
X184353200Y-124693210D01*
X184477054Y-124569572D01*
X184581681Y-124317603D01*
X184581919Y-124044774D01*
X184477732Y-123792623D01*
X184309569Y-123624165D01*
X184794534Y-123139200D01*
X187701380Y-123139200D01*
X187825018Y-123263054D01*
X188076987Y-123367681D01*
X188349816Y-123367919D01*
X188601967Y-123263732D01*
X188795054Y-123070982D01*
X188899681Y-122819013D01*
X188899682Y-122817816D01*
X189560081Y-122817816D01*
X189664268Y-123069967D01*
X189788800Y-123194717D01*
X189788800Y-125984000D01*
X189823602Y-126158963D01*
X189922711Y-126307289D01*
X190068234Y-126452812D01*
X190068081Y-126627816D01*
X190172268Y-126879967D01*
X190365018Y-127073054D01*
X190616987Y-127177681D01*
X190656573Y-127177716D01*
X190576319Y-127370987D01*
X190576081Y-127643816D01*
X190680268Y-127895967D01*
X190873018Y-128089054D01*
X191124987Y-128193681D01*
X191397816Y-128193919D01*
X191649967Y-128089732D01*
X191843054Y-127896982D01*
X191880363Y-127807132D01*
X194534737Y-127807132D01*
X195580000Y-128852395D01*
X196625263Y-127807132D01*
X196514359Y-127529901D01*
X195868407Y-127286677D01*
X195178547Y-127309164D01*
X194645641Y-127529901D01*
X194534737Y-127807132D01*
X191880363Y-127807132D01*
X191947681Y-127645013D01*
X191947835Y-127468743D01*
X193617289Y-125799289D01*
X193716398Y-125650963D01*
X193751200Y-125476000D01*
X193751200Y-122178620D01*
X193875054Y-122054982D01*
X193979681Y-121803013D01*
X193979919Y-121530184D01*
X193875732Y-121278033D01*
X193682982Y-121084946D01*
X193431013Y-120980319D01*
X193158184Y-120980081D01*
X192906033Y-121084268D01*
X192712946Y-121277018D01*
X192608319Y-121528987D01*
X192608081Y-121801816D01*
X192712268Y-122053967D01*
X192836800Y-122178717D01*
X192836800Y-125286622D01*
X191400819Y-126722603D01*
X191439681Y-126629013D01*
X191439919Y-126356184D01*
X191335732Y-126104033D01*
X191142982Y-125910946D01*
X190891013Y-125806319D01*
X190714744Y-125806165D01*
X190703200Y-125794622D01*
X190703200Y-123194620D01*
X190827054Y-123070982D01*
X190931681Y-122819013D01*
X190931919Y-122546184D01*
X190827732Y-122294033D01*
X190634982Y-122100946D01*
X190383013Y-121996319D01*
X190110184Y-121996081D01*
X189858033Y-122100268D01*
X189664946Y-122293018D01*
X189560319Y-122544987D01*
X189560081Y-122817816D01*
X188899682Y-122817816D01*
X188899835Y-122642743D01*
X190315289Y-121227289D01*
X190414398Y-121078963D01*
X190449200Y-120904000D01*
X190449200Y-120400620D01*
X190573054Y-120276982D01*
X190677681Y-120025013D01*
X190677919Y-119752184D01*
X190573732Y-119500033D01*
X190380982Y-119306946D01*
X190129013Y-119202319D01*
X189856184Y-119202081D01*
X189604033Y-119306268D01*
X189410946Y-119499018D01*
X189306319Y-119750987D01*
X189306081Y-120023816D01*
X189410268Y-120275967D01*
X189534800Y-120400717D01*
X189534800Y-120714622D01*
X188253188Y-121996234D01*
X188078184Y-121996081D01*
X187826033Y-122100268D01*
X187701283Y-122224800D01*
X184605156Y-122224800D01*
X184430193Y-122259602D01*
X184281867Y-122358711D01*
X183233035Y-123407543D01*
X183207357Y-123381821D01*
X182955388Y-123277194D01*
X182682559Y-123276956D01*
X182497579Y-123353388D01*
X182449232Y-123304957D01*
X182197263Y-123200330D01*
X181924434Y-123200092D01*
X181672283Y-123304279D01*
X181479196Y-123497029D01*
X181374569Y-123748998D01*
X181374331Y-124021827D01*
X181478518Y-124273978D01*
X181603050Y-124398728D01*
X181603050Y-125294873D01*
X181357181Y-125540742D01*
X181345024Y-125511319D01*
X181152274Y-125318232D01*
X180900305Y-125213605D01*
X180627476Y-125213367D01*
X180375325Y-125317554D01*
X180182238Y-125510304D01*
X180077611Y-125762273D01*
X180077373Y-126035102D01*
X180175197Y-126271854D01*
X178957102Y-127489949D01*
X178950736Y-127474541D01*
X178757986Y-127281454D01*
X178506017Y-127176827D01*
X178357673Y-127176698D01*
X178374684Y-127135731D01*
X178374922Y-126862902D01*
X178270735Y-126610751D01*
X178077985Y-126417664D01*
X178073538Y-126415818D01*
X178189816Y-126415919D01*
X178441967Y-126311732D01*
X178634174Y-126119861D01*
X178740932Y-126164191D01*
X179013761Y-126164429D01*
X179265912Y-126060242D01*
X179458999Y-125867492D01*
X179563626Y-125615523D01*
X179563864Y-125342694D01*
X179459677Y-125090543D01*
X179266927Y-124897456D01*
X179014958Y-124792829D01*
X178838688Y-124792675D01*
X178614511Y-124568498D01*
X178466185Y-124469389D01*
X178291222Y-124434587D01*
X166279992Y-124434587D01*
X166947290Y-123767289D01*
X167046398Y-123618963D01*
X167081200Y-123444000D01*
X167081200Y-122841153D01*
X168282514Y-122841153D01*
X168386701Y-123093304D01*
X168579451Y-123286391D01*
X168831420Y-123391018D01*
X169104249Y-123391256D01*
X169356400Y-123287069D01*
X169549487Y-123094319D01*
X169654114Y-122842350D01*
X169654352Y-122569521D01*
X169559217Y-122339277D01*
X169833830Y-122339277D01*
X169982864Y-122699966D01*
X170258583Y-122976166D01*
X170619011Y-123125829D01*
X171009277Y-123126170D01*
X171369966Y-122977136D01*
X171646166Y-122701417D01*
X171795829Y-122340989D01*
X171796170Y-121950723D01*
X171647136Y-121590034D01*
X171371417Y-121313834D01*
X171010989Y-121164171D01*
X170620723Y-121163830D01*
X170260034Y-121312864D01*
X169983834Y-121588583D01*
X169834171Y-121949011D01*
X169833830Y-122339277D01*
X169559217Y-122339277D01*
X169550165Y-122317370D01*
X169425633Y-122192620D01*
X169425633Y-121843807D01*
X169553816Y-121843919D01*
X169805967Y-121739732D01*
X169999054Y-121546982D01*
X170103681Y-121295013D01*
X170103919Y-121022184D01*
X169999732Y-120770033D01*
X169806982Y-120576946D01*
X169555013Y-120472319D01*
X169282184Y-120472081D01*
X169030033Y-120576268D01*
X168836946Y-120769018D01*
X168732319Y-121020987D01*
X168732165Y-121197257D01*
X168645144Y-121284278D01*
X168546035Y-121432604D01*
X168511233Y-121607567D01*
X168511233Y-122192717D01*
X168387379Y-122316355D01*
X168282752Y-122568324D01*
X168282514Y-122841153D01*
X167081200Y-122841153D01*
X167081200Y-121899048D01*
X169894394Y-119085854D01*
X169982864Y-119299966D01*
X170258583Y-119576166D01*
X170619011Y-119725829D01*
X171009277Y-119726170D01*
X171369966Y-119577136D01*
X171646166Y-119301417D01*
X171795829Y-118940989D01*
X171796170Y-118550723D01*
X171666550Y-118237020D01*
X172500544Y-118237020D01*
X172620633Y-118357109D01*
X172768960Y-118456218D01*
X172943922Y-118491020D01*
X173158251Y-118491020D01*
X173134171Y-118549011D01*
X173133830Y-118939277D01*
X173143347Y-118962311D01*
X172352118Y-119753540D01*
X172236492Y-119926588D01*
X172195889Y-120130711D01*
X172195889Y-123109057D01*
X172148235Y-123156628D01*
X172043608Y-123408597D01*
X172043370Y-123681426D01*
X172147557Y-123933577D01*
X172340307Y-124126664D01*
X172592276Y-124231291D01*
X172865105Y-124231529D01*
X173117256Y-124127342D01*
X173310343Y-123934592D01*
X173414970Y-123682623D01*
X173415208Y-123409794D01*
X173311021Y-123157643D01*
X173262689Y-123109226D01*
X173262689Y-122651139D01*
X173282864Y-122699966D01*
X173558583Y-122976166D01*
X173767383Y-123062867D01*
X173731536Y-123077679D01*
X173538449Y-123270429D01*
X173433822Y-123522398D01*
X173433584Y-123795227D01*
X173537771Y-124047378D01*
X173730521Y-124240465D01*
X173982490Y-124345092D01*
X174255319Y-124345330D01*
X174507470Y-124241143D01*
X174700557Y-124048393D01*
X174805184Y-123796424D01*
X174805244Y-123728012D01*
X175383171Y-123150085D01*
X175498797Y-122977037D01*
X175539400Y-122772914D01*
X175539400Y-122648690D01*
X175553202Y-122579305D01*
X175553201Y-122579300D01*
X175553201Y-121710700D01*
X175553202Y-121710695D01*
X175539400Y-121641310D01*
X175539400Y-119248690D01*
X175553202Y-119179305D01*
X175553201Y-119179300D01*
X175553201Y-118310700D01*
X175553202Y-118310695D01*
X175551072Y-118299989D01*
X175647967Y-118259953D01*
X175841054Y-118067203D01*
X175945681Y-117815234D01*
X175945867Y-117602011D01*
X181357131Y-117602011D01*
X182881830Y-119126710D01*
X183030156Y-119225819D01*
X183205119Y-119260621D01*
X185699399Y-119260621D01*
X185874362Y-119225819D01*
X186022688Y-119126710D01*
X186251982Y-118897416D01*
X186252593Y-118897825D01*
X186690000Y-118984831D01*
X187127407Y-118897825D01*
X187498223Y-118650054D01*
X187745994Y-118279238D01*
X187833000Y-117841831D01*
X187833000Y-117108169D01*
X187745994Y-116670762D01*
X187701238Y-116603780D01*
X188218762Y-116603780D01*
X188174006Y-116670762D01*
X188087000Y-117108169D01*
X188087000Y-117841831D01*
X188174006Y-118279238D01*
X188421777Y-118650054D01*
X188792593Y-118897825D01*
X189230000Y-118984831D01*
X189667407Y-118897825D01*
X190038223Y-118650054D01*
X190285994Y-118279238D01*
X190373000Y-117841831D01*
X190373000Y-117108169D01*
X190285994Y-116670762D01*
X190241238Y-116603780D01*
X190758762Y-116603780D01*
X190714006Y-116670762D01*
X190627000Y-117108169D01*
X190627000Y-117841831D01*
X190714006Y-118279238D01*
X190961777Y-118650054D01*
X191332593Y-118897825D01*
X191770000Y-118984831D01*
X192207407Y-118897825D01*
X192578223Y-118650054D01*
X192825994Y-118279238D01*
X192913000Y-117841831D01*
X192913000Y-117108169D01*
X192825994Y-116670762D01*
X192781238Y-116603780D01*
X193022258Y-116603780D01*
X193226669Y-116808191D01*
X193167000Y-117108169D01*
X193167000Y-117841831D01*
X193254006Y-118279238D01*
X193501777Y-118650054D01*
X193872593Y-118897825D01*
X194310000Y-118984831D01*
X194747407Y-118897825D01*
X195118223Y-118650054D01*
X195365994Y-118279238D01*
X195453000Y-117841831D01*
X195453000Y-117108169D01*
X195365994Y-116670762D01*
X195118223Y-116299946D01*
X194747407Y-116052175D01*
X194615817Y-116026000D01*
X204014000Y-116026000D01*
X204014000Y-141784000D01*
X204014000Y-141784000D01*
G37*
X204014000Y-141784000D02*
X195146377Y-141784000D01*
X195208026Y-141750450D01*
X195552059Y-141324761D01*
X195707000Y-140799820D01*
X195707000Y-140462000D01*
X194437000Y-140462000D01*
X194437000Y-140482000D01*
X194183000Y-140482000D01*
X194183000Y-140462000D01*
X192913000Y-140462000D01*
X192913000Y-140208000D01*
X194183000Y-140208000D01*
X194183000Y-138765460D01*
X193966930Y-138642960D01*
X193892723Y-138657920D01*
X193411974Y-138919550D01*
X193067941Y-139345239D01*
X192913000Y-139870180D01*
X192913000Y-139968169D01*
X192825994Y-139530762D01*
X192578223Y-139159946D01*
X192207407Y-138912175D01*
X191770000Y-138825169D01*
X191332593Y-138912175D01*
X191331982Y-138912584D01*
X190798598Y-138379200D01*
X194551674Y-138379200D01*
X194953517Y-138781043D01*
X194727277Y-138657920D01*
X194653070Y-138642960D01*
X194437000Y-138765460D01*
X194437000Y-140208000D01*
X195707000Y-140208000D01*
X195707000Y-139870180D01*
X195566442Y-139393968D01*
X196262064Y-140089590D01*
X196164319Y-140324987D01*
X196164081Y-140597816D01*
X196268268Y-140849967D01*
X196461018Y-141043054D01*
X196712987Y-141147681D01*
X196985816Y-141147919D01*
X197237967Y-141043732D01*
X197431054Y-140850982D01*
X197535681Y-140599013D01*
X197535919Y-140326184D01*
X197431732Y-140074033D01*
X197286914Y-139928962D01*
X197272398Y-139855985D01*
X197173289Y-139707659D01*
X195064341Y-137598711D01*
X194916015Y-137499602D01*
X194741052Y-137464800D01*
X183323378Y-137464800D01*
X178765200Y-132906622D01*
X178765200Y-131830620D01*
X178889054Y-131706982D01*
X178993681Y-131455013D01*
X178993919Y-131182184D01*
X178889732Y-130930033D01*
X178696982Y-130736946D01*
X178445013Y-130632319D01*
X178172184Y-130632081D01*
X177920033Y-130736268D01*
X177726946Y-130929018D01*
X177622319Y-131180987D01*
X177622081Y-131453816D01*
X177726268Y-131705967D01*
X177850800Y-131830717D01*
X177850800Y-132703410D01*
X176896432Y-131749042D01*
X176882448Y-131739698D01*
X182905399Y-125716747D01*
X182905399Y-128244599D01*
X182940201Y-128419562D01*
X183039310Y-128567888D01*
X183210234Y-128738812D01*
X183210081Y-128913816D01*
X183314268Y-129165967D01*
X183507018Y-129359054D01*
X183758987Y-129463681D01*
X183935257Y-129463835D01*
X184868112Y-130396690D01*
X185016438Y-130495799D01*
X185191401Y-130530601D01*
X189320023Y-130530601D01*
X192862234Y-134072813D01*
X192862081Y-134247816D01*
X192966268Y-134499967D01*
X193159018Y-134693054D01*
X193410987Y-134797681D01*
X193683816Y-134797919D01*
X193935967Y-134693732D01*
X194129054Y-134500982D01*
X194233681Y-134249013D01*
X194233919Y-133976184D01*
X194129732Y-133724033D01*
X193936982Y-133530946D01*
X193685013Y-133426319D01*
X193508744Y-133426165D01*
X190339447Y-130256868D01*
X194534737Y-130256868D01*
X194645641Y-130534099D01*
X195291593Y-130777323D01*
X195981453Y-130754836D01*
X196514359Y-130534099D01*
X196625263Y-130256868D01*
X195580000Y-129211605D01*
X194534737Y-130256868D01*
X190339447Y-130256868D01*
X189832690Y-129750112D01*
X189684364Y-129651003D01*
X189509401Y-129616201D01*
X185380779Y-129616201D01*
X184581766Y-128817188D01*
X184581830Y-128743593D01*
X193834677Y-128743593D01*
X193857164Y-129433453D01*
X194077901Y-129966359D01*
X194355132Y-130077263D01*
X195400395Y-129032000D01*
X195759605Y-129032000D01*
X196804868Y-130077263D01*
X197082099Y-129966359D01*
X197325323Y-129320407D01*
X197302836Y-128630547D01*
X197082099Y-128097641D01*
X196804868Y-127986737D01*
X195759605Y-129032000D01*
X195400395Y-129032000D01*
X194355132Y-127986737D01*
X194077901Y-128097641D01*
X193834677Y-128743593D01*
X184581830Y-128743593D01*
X184581835Y-128738743D01*
X187290289Y-126030289D01*
X187317008Y-126057054D01*
X187568977Y-126161681D01*
X187841806Y-126161919D01*
X188093957Y-126057732D01*
X188287044Y-125864982D01*
X188391671Y-125613013D01*
X188391909Y-125340184D01*
X188287722Y-125088033D01*
X188163190Y-124963283D01*
X188163190Y-124713990D01*
X188128388Y-124539027D01*
X188029279Y-124390701D01*
X187883766Y-124245188D01*
X187883919Y-124070184D01*
X187779732Y-123818033D01*
X187586982Y-123624946D01*
X187335013Y-123520319D01*
X187062184Y-123520081D01*
X186810033Y-123624268D01*
X186616946Y-123817018D01*
X186512319Y-124068987D01*
X186512081Y-124341816D01*
X186616268Y-124593967D01*
X186809018Y-124787054D01*
X187060987Y-124891681D01*
X187237257Y-124891835D01*
X187248790Y-124903368D01*
X187248790Y-124963380D01*
X187192097Y-125019974D01*
X187023037Y-125053602D01*
X186874711Y-125152711D01*
X183935188Y-128092234D01*
X183856743Y-128092165D01*
X183819799Y-128055221D01*
X183819799Y-126090529D01*
X183852715Y-126170192D01*
X184045465Y-126363279D01*
X184297434Y-126467906D01*
X184570263Y-126468144D01*
X184822414Y-126363957D01*
X185015501Y-126171207D01*
X185120128Y-125919238D01*
X185120366Y-125646409D01*
X185016179Y-125394258D01*
X184823429Y-125201171D01*
X184571460Y-125096544D01*
X184395190Y-125096390D01*
X184353200Y-125054400D01*
X184353200Y-124693210D01*
X184477054Y-124569572D01*
X184581681Y-124317603D01*
X184581919Y-124044774D01*
X184477732Y-123792623D01*
X184309569Y-123624165D01*
X184794534Y-123139200D01*
X187701380Y-123139200D01*
X187825018Y-123263054D01*
X188076987Y-123367681D01*
X188349816Y-123367919D01*
X188601967Y-123263732D01*
X188795054Y-123070982D01*
X188899681Y-122819013D01*
X188899682Y-122817816D01*
X189560081Y-122817816D01*
X189664268Y-123069967D01*
X189788800Y-123194717D01*
X189788800Y-125984000D01*
X189823602Y-126158963D01*
X189922711Y-126307289D01*
X190068234Y-126452812D01*
X190068081Y-126627816D01*
X190172268Y-126879967D01*
X190365018Y-127073054D01*
X190616987Y-127177681D01*
X190656573Y-127177716D01*
X190576319Y-127370987D01*
X190576081Y-127643816D01*
X190680268Y-127895967D01*
X190873018Y-128089054D01*
X191124987Y-128193681D01*
X191397816Y-128193919D01*
X191649967Y-128089732D01*
X191843054Y-127896982D01*
X191880363Y-127807132D01*
X194534737Y-127807132D01*
X195580000Y-128852395D01*
X196625263Y-127807132D01*
X196514359Y-127529901D01*
X195868407Y-127286677D01*
X195178547Y-127309164D01*
X194645641Y-127529901D01*
X194534737Y-127807132D01*
X191880363Y-127807132D01*
X191947681Y-127645013D01*
X191947835Y-127468743D01*
X193617289Y-125799289D01*
X193716398Y-125650963D01*
X193751200Y-125476000D01*
X193751200Y-122178620D01*
X193875054Y-122054982D01*
X193979681Y-121803013D01*
X193979919Y-121530184D01*
X193875732Y-121278033D01*
X193682982Y-121084946D01*
X193431013Y-120980319D01*
X193158184Y-120980081D01*
X192906033Y-121084268D01*
X192712946Y-121277018D01*
X192608319Y-121528987D01*
X192608081Y-121801816D01*
X192712268Y-122053967D01*
X192836800Y-122178717D01*
X192836800Y-125286622D01*
X191400819Y-126722603D01*
X191439681Y-126629013D01*
X191439919Y-126356184D01*
X191335732Y-126104033D01*
X191142982Y-125910946D01*
X190891013Y-125806319D01*
X190714744Y-125806165D01*
X190703200Y-125794622D01*
X190703200Y-123194620D01*
X190827054Y-123070982D01*
X190931681Y-122819013D01*
X190931919Y-122546184D01*
X190827732Y-122294033D01*
X190634982Y-122100946D01*
X190383013Y-121996319D01*
X190110184Y-121996081D01*
X189858033Y-122100268D01*
X189664946Y-122293018D01*
X189560319Y-122544987D01*
X189560081Y-122817816D01*
X188899682Y-122817816D01*
X188899835Y-122642743D01*
X190315289Y-121227289D01*
X190414398Y-121078963D01*
X190449200Y-120904000D01*
X190449200Y-120400620D01*
X190573054Y-120276982D01*
X190677681Y-120025013D01*
X190677919Y-119752184D01*
X190573732Y-119500033D01*
X190380982Y-119306946D01*
X190129013Y-119202319D01*
X189856184Y-119202081D01*
X189604033Y-119306268D01*
X189410946Y-119499018D01*
X189306319Y-119750987D01*
X189306081Y-120023816D01*
X189410268Y-120275967D01*
X189534800Y-120400717D01*
X189534800Y-120714622D01*
X188253188Y-121996234D01*
X188078184Y-121996081D01*
X187826033Y-122100268D01*
X187701283Y-122224800D01*
X184605156Y-122224800D01*
X184430193Y-122259602D01*
X184281867Y-122358711D01*
X183233035Y-123407543D01*
X183207357Y-123381821D01*
X182955388Y-123277194D01*
X182682559Y-123276956D01*
X182497579Y-123353388D01*
X182449232Y-123304957D01*
X182197263Y-123200330D01*
X181924434Y-123200092D01*
X181672283Y-123304279D01*
X181479196Y-123497029D01*
X181374569Y-123748998D01*
X181374331Y-124021827D01*
X181478518Y-124273978D01*
X181603050Y-124398728D01*
X181603050Y-125294873D01*
X181357181Y-125540742D01*
X181345024Y-125511319D01*
X181152274Y-125318232D01*
X180900305Y-125213605D01*
X180627476Y-125213367D01*
X180375325Y-125317554D01*
X180182238Y-125510304D01*
X180077611Y-125762273D01*
X180077373Y-126035102D01*
X180175197Y-126271854D01*
X178957102Y-127489949D01*
X178950736Y-127474541D01*
X178757986Y-127281454D01*
X178506017Y-127176827D01*
X178357673Y-127176698D01*
X178374684Y-127135731D01*
X178374922Y-126862902D01*
X178270735Y-126610751D01*
X178077985Y-126417664D01*
X178073538Y-126415818D01*
X178189816Y-126415919D01*
X178441967Y-126311732D01*
X178634174Y-126119861D01*
X178740932Y-126164191D01*
X179013761Y-126164429D01*
X179265912Y-126060242D01*
X179458999Y-125867492D01*
X179563626Y-125615523D01*
X179563864Y-125342694D01*
X179459677Y-125090543D01*
X179266927Y-124897456D01*
X179014958Y-124792829D01*
X178838688Y-124792675D01*
X178614511Y-124568498D01*
X178466185Y-124469389D01*
X178291222Y-124434587D01*
X166279992Y-124434587D01*
X166947290Y-123767289D01*
X167046398Y-123618963D01*
X167081200Y-123444000D01*
X167081200Y-122841153D01*
X168282514Y-122841153D01*
X168386701Y-123093304D01*
X168579451Y-123286391D01*
X168831420Y-123391018D01*
X169104249Y-123391256D01*
X169356400Y-123287069D01*
X169549487Y-123094319D01*
X169654114Y-122842350D01*
X169654352Y-122569521D01*
X169559217Y-122339277D01*
X169833830Y-122339277D01*
X169982864Y-122699966D01*
X170258583Y-122976166D01*
X170619011Y-123125829D01*
X171009277Y-123126170D01*
X171369966Y-122977136D01*
X171646166Y-122701417D01*
X171795829Y-122340989D01*
X171796170Y-121950723D01*
X171647136Y-121590034D01*
X171371417Y-121313834D01*
X171010989Y-121164171D01*
X170620723Y-121163830D01*
X170260034Y-121312864D01*
X169983834Y-121588583D01*
X169834171Y-121949011D01*
X169833830Y-122339277D01*
X169559217Y-122339277D01*
X169550165Y-122317370D01*
X169425633Y-122192620D01*
X169425633Y-121843807D01*
X169553816Y-121843919D01*
X169805967Y-121739732D01*
X169999054Y-121546982D01*
X170103681Y-121295013D01*
X170103919Y-121022184D01*
X169999732Y-120770033D01*
X169806982Y-120576946D01*
X169555013Y-120472319D01*
X169282184Y-120472081D01*
X169030033Y-120576268D01*
X168836946Y-120769018D01*
X168732319Y-121020987D01*
X168732165Y-121197257D01*
X168645144Y-121284278D01*
X168546035Y-121432604D01*
X168511233Y-121607567D01*
X168511233Y-122192717D01*
X168387379Y-122316355D01*
X168282752Y-122568324D01*
X168282514Y-122841153D01*
X167081200Y-122841153D01*
X167081200Y-121899048D01*
X169894394Y-119085854D01*
X169982864Y-119299966D01*
X170258583Y-119576166D01*
X170619011Y-119725829D01*
X171009277Y-119726170D01*
X171369966Y-119577136D01*
X171646166Y-119301417D01*
X171795829Y-118940989D01*
X171796170Y-118550723D01*
X171666550Y-118237020D01*
X172500544Y-118237020D01*
X172620633Y-118357109D01*
X172768960Y-118456218D01*
X172943922Y-118491020D01*
X173158251Y-118491020D01*
X173134171Y-118549011D01*
X173133830Y-118939277D01*
X173143347Y-118962311D01*
X172352118Y-119753540D01*
X172236492Y-119926588D01*
X172195889Y-120130711D01*
X172195889Y-123109057D01*
X172148235Y-123156628D01*
X172043608Y-123408597D01*
X172043370Y-123681426D01*
X172147557Y-123933577D01*
X172340307Y-124126664D01*
X172592276Y-124231291D01*
X172865105Y-124231529D01*
X173117256Y-124127342D01*
X173310343Y-123934592D01*
X173414970Y-123682623D01*
X173415208Y-123409794D01*
X173311021Y-123157643D01*
X173262689Y-123109226D01*
X173262689Y-122651139D01*
X173282864Y-122699966D01*
X173558583Y-122976166D01*
X173767383Y-123062867D01*
X173731536Y-123077679D01*
X173538449Y-123270429D01*
X173433822Y-123522398D01*
X173433584Y-123795227D01*
X173537771Y-124047378D01*
X173730521Y-124240465D01*
X173982490Y-124345092D01*
X174255319Y-124345330D01*
X174507470Y-124241143D01*
X174700557Y-124048393D01*
X174805184Y-123796424D01*
X174805244Y-123728012D01*
X175383171Y-123150085D01*
X175498797Y-122977037D01*
X175539400Y-122772914D01*
X175539400Y-122648690D01*
X175553202Y-122579305D01*
X175553201Y-122579300D01*
X175553201Y-121710700D01*
X175553202Y-121710695D01*
X175539400Y-121641310D01*
X175539400Y-119248690D01*
X175553202Y-119179305D01*
X175553201Y-119179300D01*
X175553201Y-118310700D01*
X175553202Y-118310695D01*
X175551072Y-118299989D01*
X175647967Y-118259953D01*
X175841054Y-118067203D01*
X175945681Y-117815234D01*
X175945867Y-117602011D01*
X181357131Y-117602011D01*
X182881830Y-119126710D01*
X183030156Y-119225819D01*
X183205119Y-119260621D01*
X185699399Y-119260621D01*
X185874362Y-119225819D01*
X186022688Y-119126710D01*
X186251982Y-118897416D01*
X186252593Y-118897825D01*
X186690000Y-118984831D01*
X187127407Y-118897825D01*
X187498223Y-118650054D01*
X187745994Y-118279238D01*
X187833000Y-117841831D01*
X187833000Y-117108169D01*
X187745994Y-116670762D01*
X187701238Y-116603780D01*
X188218762Y-116603780D01*
X188174006Y-116670762D01*
X188087000Y-117108169D01*
X188087000Y-117841831D01*
X188174006Y-118279238D01*
X188421777Y-118650054D01*
X188792593Y-118897825D01*
X189230000Y-118984831D01*
X189667407Y-118897825D01*
X190038223Y-118650054D01*
X190285994Y-118279238D01*
X190373000Y-117841831D01*
X190373000Y-117108169D01*
X190285994Y-116670762D01*
X190241238Y-116603780D01*
X190758762Y-116603780D01*
X190714006Y-116670762D01*
X190627000Y-117108169D01*
X190627000Y-117841831D01*
X190714006Y-118279238D01*
X190961777Y-118650054D01*
X191332593Y-118897825D01*
X191770000Y-118984831D01*
X192207407Y-118897825D01*
X192578223Y-118650054D01*
X192825994Y-118279238D01*
X192913000Y-117841831D01*
X192913000Y-117108169D01*
X192825994Y-116670762D01*
X192781238Y-116603780D01*
X193022258Y-116603780D01*
X193226669Y-116808191D01*
X193167000Y-117108169D01*
X193167000Y-117841831D01*
X193254006Y-118279238D01*
X193501777Y-118650054D01*
X193872593Y-118897825D01*
X194310000Y-118984831D01*
X194747407Y-118897825D01*
X195118223Y-118650054D01*
X195365994Y-118279238D01*
X195453000Y-117841831D01*
X195453000Y-117108169D01*
X195365994Y-116670762D01*
X195118223Y-116299946D01*
X194747407Y-116052175D01*
X194615817Y-116026000D01*
X204014000Y-116026000D01*
X204014000Y-141784000D01*
G36*
X160162123Y-116113716D02*
X159004000Y-116113716D01*
X158855341Y-116143286D01*
X158729314Y-116227494D01*
X158645106Y-116353521D01*
X158615536Y-116502180D01*
X158615536Y-118701820D01*
X158645106Y-118850479D01*
X158729314Y-118976506D01*
X158855341Y-119060714D01*
X159004000Y-119090284D01*
X160528000Y-119090284D01*
X160676659Y-119060714D01*
X160802686Y-118976506D01*
X160886894Y-118850479D01*
X160916464Y-118701820D01*
X160916464Y-116868057D01*
X161180742Y-116603779D01*
X161379621Y-116603779D01*
X161250006Y-116797762D01*
X161163000Y-117235169D01*
X161163000Y-117968831D01*
X161250006Y-118406238D01*
X161497777Y-118777054D01*
X161868593Y-119024825D01*
X162306000Y-119111831D01*
X162743407Y-119024825D01*
X163114223Y-118777054D01*
X163361994Y-118406238D01*
X163449000Y-117968831D01*
X163449000Y-118066820D01*
X163603941Y-118591761D01*
X163947974Y-119017450D01*
X164428723Y-119279080D01*
X164502930Y-119294040D01*
X164719000Y-119171540D01*
X164719000Y-117729000D01*
X163449000Y-117729000D01*
X163449000Y-117475000D01*
X164719000Y-117475000D01*
X164719000Y-117455000D01*
X164973000Y-117455000D01*
X164973000Y-117475000D01*
X166243000Y-117475000D01*
X166243000Y-117729000D01*
X164973000Y-117729000D01*
X164973000Y-119171540D01*
X165189070Y-119294040D01*
X165263277Y-119279080D01*
X165563604Y-119115638D01*
X165409340Y-119269902D01*
X165310231Y-119418228D01*
X165275429Y-119593191D01*
X165275429Y-122397970D01*
X165151575Y-122521608D01*
X165046948Y-122773577D01*
X165046928Y-122797005D01*
X165002889Y-122767579D01*
X164945754Y-122756214D01*
X164945957Y-122523679D01*
X164841770Y-122271528D01*
X164717238Y-122146778D01*
X164717238Y-122068602D01*
X164682436Y-121893639D01*
X164583327Y-121745313D01*
X162529725Y-119691711D01*
X162381399Y-119592602D01*
X162206436Y-119557800D01*
X161647678Y-119557800D01*
X161524040Y-119433946D01*
X161272071Y-119329319D01*
X160999242Y-119329081D01*
X160747091Y-119433268D01*
X160554004Y-119626018D01*
X160449377Y-119877987D01*
X160449139Y-120150816D01*
X160553326Y-120402967D01*
X160746076Y-120596054D01*
X160998045Y-120700681D01*
X161270874Y-120700919D01*
X161523025Y-120596732D01*
X161647775Y-120472200D01*
X162017058Y-120472200D01*
X162400557Y-120855699D01*
X162232946Y-121023018D01*
X162209311Y-121079938D01*
X161342869Y-121079938D01*
X161219231Y-120956084D01*
X160967262Y-120851457D01*
X160694433Y-120851219D01*
X160442282Y-120955406D01*
X160249195Y-121148156D01*
X160144568Y-121400125D01*
X160144330Y-121672954D01*
X160248517Y-121925105D01*
X160441267Y-122118192D01*
X160693236Y-122222819D01*
X160966065Y-122223057D01*
X161218216Y-122118870D01*
X161342966Y-121994338D01*
X162428110Y-121994338D01*
X162676987Y-122097681D01*
X162949816Y-122097919D01*
X163201967Y-121993732D01*
X163370426Y-121825568D01*
X163747237Y-122202379D01*
X163678984Y-122270513D01*
X163574357Y-122522482D01*
X163574119Y-122795311D01*
X163678306Y-123047462D01*
X163744993Y-123114266D01*
X163472634Y-123386625D01*
X163456982Y-123370946D01*
X163205013Y-123266319D01*
X162932184Y-123266081D01*
X162680033Y-123370268D01*
X162630635Y-123419579D01*
X162419348Y-123331845D01*
X162243078Y-123331691D01*
X161955885Y-123044498D01*
X161807559Y-122945389D01*
X161632596Y-122910587D01*
X151231637Y-122910587D01*
X151056674Y-122945389D01*
X150908348Y-123044498D01*
X149562135Y-124390711D01*
X149463026Y-124539037D01*
X149428224Y-124714000D01*
X149428224Y-125755418D01*
X149440572Y-125817494D01*
X149428325Y-125846987D01*
X149428087Y-126119816D01*
X149532274Y-126371967D01*
X149725024Y-126565054D01*
X149976993Y-126669681D01*
X150249822Y-126669919D01*
X150501973Y-126565732D01*
X150695060Y-126372982D01*
X150799687Y-126121013D01*
X150799925Y-125848184D01*
X150695738Y-125596033D01*
X150502988Y-125402946D01*
X150342624Y-125336357D01*
X150342624Y-124903378D01*
X151421015Y-123824987D01*
X160959637Y-123824987D01*
X160858319Y-124068987D01*
X160858165Y-124245257D01*
X158611421Y-126492001D01*
X157276799Y-126492001D01*
X157101836Y-126526803D01*
X157039794Y-126568259D01*
X156836184Y-126568081D01*
X156584033Y-126672268D01*
X156390946Y-126865018D01*
X156286319Y-127116987D01*
X156286081Y-127389816D01*
X156390268Y-127641967D01*
X156583018Y-127835054D01*
X156834987Y-127939681D01*
X157107816Y-127939919D01*
X157359967Y-127835732D01*
X157553054Y-127642982D01*
X157651291Y-127406401D01*
X158800799Y-127406401D01*
X158975762Y-127371599D01*
X159119841Y-127275328D01*
X159235866Y-127391556D01*
X158095619Y-128531803D01*
X157096963Y-128531803D01*
X156922000Y-128566605D01*
X156773674Y-128665714D01*
X156343912Y-129095476D01*
X156244803Y-129243802D01*
X156210001Y-129418765D01*
X156210001Y-129997201D01*
X156244803Y-130172164D01*
X156286259Y-130234206D01*
X156286081Y-130437816D01*
X156390268Y-130689967D01*
X156583018Y-130883054D01*
X156834987Y-130987681D01*
X157107816Y-130987919D01*
X157359967Y-130883732D01*
X157553054Y-130690982D01*
X157657681Y-130439013D01*
X157657919Y-130166184D01*
X157648130Y-130142494D01*
X157740963Y-130104136D01*
X157865713Y-129979604D01*
X158960485Y-129979604D01*
X159135448Y-129944802D01*
X159283774Y-129845693D01*
X159346201Y-129783266D01*
X159439977Y-129877205D01*
X159378033Y-129902800D01*
X159184946Y-130095550D01*
X159080319Y-130347519D01*
X159080081Y-130620348D01*
X159184268Y-130872499D01*
X159256064Y-130944420D01*
X159195096Y-130969612D01*
X159002009Y-131162362D01*
X158897382Y-131414331D01*
X158897144Y-131687160D01*
X159001331Y-131939311D01*
X159194081Y-132132398D01*
X159446050Y-132237025D01*
X159622319Y-132237179D01*
X160347241Y-132962101D01*
X160495567Y-133061209D01*
X160670530Y-133096011D01*
X161683429Y-133096011D01*
X161858392Y-133061209D01*
X162006718Y-132962100D01*
X162008073Y-132960745D01*
X162102866Y-133055705D01*
X162102866Y-133060071D01*
X161076314Y-134086624D01*
X160901310Y-134086471D01*
X160649159Y-134190658D01*
X160456072Y-134383408D01*
X160364374Y-134604242D01*
X157462961Y-131702829D01*
X157289913Y-131587203D01*
X157085790Y-131546600D01*
X154820464Y-131546600D01*
X154820464Y-130980180D01*
X154790894Y-130831521D01*
X154706686Y-130705494D01*
X154580659Y-130621286D01*
X154432000Y-130591716D01*
X153334049Y-130591716D01*
X153489054Y-130436982D01*
X153593681Y-130185013D01*
X153593686Y-130179264D01*
X153701730Y-130017564D01*
X153746200Y-129794000D01*
X153746200Y-126619406D01*
X153847681Y-126375013D01*
X153847919Y-126102184D01*
X153743732Y-125850033D01*
X153550982Y-125656946D01*
X153299013Y-125552319D01*
X153026184Y-125552081D01*
X152774033Y-125656268D01*
X152580946Y-125849018D01*
X152476319Y-126100987D01*
X152476081Y-126373816D01*
X152577800Y-126619994D01*
X152577800Y-129442399D01*
X152520033Y-129466268D01*
X152326946Y-129659018D01*
X152222319Y-129910987D01*
X152222081Y-130183816D01*
X152326268Y-130435967D01*
X152519018Y-130629054D01*
X152660063Y-130687621D01*
X152633314Y-130705494D01*
X152549106Y-130831521D01*
X152519536Y-130980180D01*
X152519536Y-132742100D01*
X148897547Y-136364089D01*
X147913117Y-136364089D01*
X147668724Y-136262608D01*
X147395895Y-136262370D01*
X147155426Y-136361730D01*
X147155512Y-136263128D01*
X147051325Y-136010977D01*
X146858575Y-135817890D01*
X146606606Y-135713263D01*
X146333777Y-135713025D01*
X146081626Y-135817212D01*
X145888539Y-136009962D01*
X145783912Y-136261931D01*
X145783910Y-136263876D01*
X145679013Y-136220319D01*
X145406184Y-136220081D01*
X145154033Y-136324268D01*
X144960946Y-136517018D01*
X144856319Y-136768987D01*
X144856081Y-137041816D01*
X144960268Y-137293967D01*
X145153018Y-137487054D01*
X145404987Y-137591681D01*
X145581257Y-137591835D01*
X149282711Y-141293289D01*
X149431037Y-141392398D01*
X149606000Y-141427200D01*
X167667454Y-141427200D01*
X167842417Y-141392398D01*
X167990743Y-141293289D01*
X168496692Y-140787341D01*
X168595800Y-140639015D01*
X168630602Y-140464052D01*
X168630602Y-139548350D01*
X168595800Y-139373387D01*
X168519554Y-139259277D01*
X169833830Y-139259277D01*
X169982864Y-139619966D01*
X170258583Y-139896166D01*
X170619011Y-140045829D01*
X171009277Y-140046170D01*
X171369966Y-139897136D01*
X171646166Y-139621417D01*
X171795829Y-139260989D01*
X171795830Y-139259277D01*
X173133830Y-139259277D01*
X173282864Y-139619966D01*
X173558583Y-139896166D01*
X173919011Y-140045829D01*
X174309277Y-140046170D01*
X174669966Y-139897136D01*
X174946166Y-139621417D01*
X175095829Y-139260989D01*
X175096170Y-138870723D01*
X174947136Y-138510034D01*
X174671417Y-138233834D01*
X174310989Y-138084171D01*
X173920723Y-138083830D01*
X173560034Y-138232864D01*
X173283834Y-138508583D01*
X173134171Y-138869011D01*
X173133830Y-139259277D01*
X171795830Y-139259277D01*
X171796170Y-138870723D01*
X171647136Y-138510034D01*
X171371417Y-138233834D01*
X171010989Y-138084171D01*
X170620723Y-138083830D01*
X170260034Y-138232864D01*
X169983834Y-138508583D01*
X169834171Y-138869011D01*
X169833830Y-139259277D01*
X168519554Y-139259277D01*
X168496691Y-139225061D01*
X168140341Y-138868711D01*
X167992015Y-138769602D01*
X167918829Y-138755045D01*
X167774982Y-138610946D01*
X167523013Y-138506319D01*
X167250184Y-138506081D01*
X166998033Y-138610268D01*
X166804946Y-138803018D01*
X166700319Y-139054987D01*
X166700081Y-139327816D01*
X166782170Y-139526485D01*
X166588577Y-139446098D01*
X166315748Y-139445860D01*
X166063597Y-139550047D01*
X166015180Y-139598379D01*
X165358511Y-139598379D01*
X163543911Y-137783779D01*
X163692987Y-137845681D01*
X163965816Y-137845919D01*
X164217967Y-137741732D01*
X164411054Y-137548982D01*
X164515681Y-137297013D01*
X164515835Y-137120743D01*
X165035378Y-136601200D01*
X167635380Y-136601200D01*
X167759018Y-136725054D01*
X168010987Y-136829681D01*
X168283816Y-136829919D01*
X168535967Y-136725732D01*
X168729054Y-136532982D01*
X168833681Y-136281013D01*
X168833919Y-136008184D01*
X168729732Y-135756033D01*
X168536982Y-135562946D01*
X168285013Y-135458319D01*
X168012184Y-135458081D01*
X167760033Y-135562268D01*
X167635283Y-135686800D01*
X164920422Y-135686800D01*
X165453822Y-135153400D01*
X166878000Y-135153400D01*
X167082123Y-135112797D01*
X167255171Y-134997171D01*
X167606941Y-134645400D01*
X168376600Y-134645400D01*
X168376600Y-135099106D01*
X168417203Y-135303229D01*
X168532829Y-135476277D01*
X170339723Y-137283171D01*
X170512771Y-137398797D01*
X170716894Y-137439400D01*
X173807429Y-137439400D01*
X173855000Y-137487054D01*
X174106969Y-137591681D01*
X174379798Y-137591919D01*
X174631949Y-137487732D01*
X174825036Y-137294982D01*
X174929663Y-137043013D01*
X174929901Y-136770184D01*
X174825714Y-136518033D01*
X174737527Y-136429692D01*
X174946166Y-136221417D01*
X175095829Y-135860989D01*
X175095887Y-135795177D01*
X177688446Y-138387736D01*
X177622319Y-138546987D01*
X177622081Y-138819816D01*
X177726268Y-139071967D01*
X177919018Y-139265054D01*
X178170987Y-139369681D01*
X178443816Y-139369919D01*
X178695967Y-139265732D01*
X178889054Y-139072982D01*
X178993681Y-138821013D01*
X178993919Y-138548184D01*
X178889732Y-138296033D01*
X178840076Y-138246290D01*
X178800797Y-138048825D01*
X178685171Y-137875777D01*
X175276932Y-134467538D01*
X175531265Y-134467760D01*
X175783416Y-134363573D01*
X175976503Y-134170823D01*
X176081130Y-133918854D01*
X176081210Y-133827188D01*
X182912311Y-140658290D01*
X182999536Y-140716572D01*
X182999536Y-141434820D01*
X183029106Y-141583479D01*
X183113314Y-141709506D01*
X183224803Y-141784000D01*
X141426000Y-141784000D01*
X141426000Y-131027927D01*
X143741385Y-131027927D01*
X143859849Y-131314633D01*
X144079013Y-131534180D01*
X144365512Y-131653145D01*
X144675727Y-131653415D01*
X144830800Y-131589340D01*
X144830800Y-132715000D01*
X144875270Y-132938564D01*
X144977437Y-133091468D01*
X145001908Y-133128092D01*
X145367214Y-133493398D01*
X145468268Y-133737967D01*
X145661018Y-133931054D01*
X145912987Y-134035681D01*
X146185816Y-134035919D01*
X146437967Y-133931732D01*
X146631054Y-133738982D01*
X146735681Y-133487013D01*
X146735919Y-133214184D01*
X146631732Y-132962033D01*
X146438982Y-132768946D01*
X146192981Y-132666797D01*
X145999200Y-132473016D01*
X145999200Y-132207000D01*
X147193000Y-132207000D01*
X147193000Y-132544820D01*
X147347941Y-133069761D01*
X147691974Y-133495450D01*
X148172723Y-133757080D01*
X148246930Y-133772040D01*
X148463000Y-133649540D01*
X148463000Y-132207000D01*
X147193000Y-132207000D01*
X145999200Y-132207000D01*
X145999200Y-131615180D01*
X147193000Y-131615180D01*
X147193000Y-131953000D01*
X148463000Y-131953000D01*
X148463000Y-130510460D01*
X148717000Y-130510460D01*
X148717000Y-131953000D01*
X149987000Y-131953000D01*
X149987000Y-132207000D01*
X148717000Y-132207000D01*
X148717000Y-133649540D01*
X148933070Y-133772040D01*
X149007277Y-133757080D01*
X149488026Y-133495450D01*
X149832059Y-133069761D01*
X149987000Y-132544820D01*
X149987000Y-132446831D01*
X150074006Y-132884238D01*
X150321777Y-133255054D01*
X150692593Y-133502825D01*
X151130000Y-133589831D01*
X151567407Y-133502825D01*
X151938223Y-133255054D01*
X152185994Y-132884238D01*
X152273000Y-132446831D01*
X152273000Y-131713169D01*
X152185994Y-131275762D01*
X151938223Y-130904946D01*
X151567407Y-130657175D01*
X151130000Y-130570169D01*
X150692593Y-130657175D01*
X150321777Y-130904946D01*
X150074006Y-131275762D01*
X149987000Y-131713169D01*
X149987000Y-131615180D01*
X149832059Y-131090239D01*
X149488026Y-130664550D01*
X149289671Y-130556602D01*
X149538573Y-130650323D01*
X150228433Y-130627836D01*
X150761339Y-130407099D01*
X150872243Y-130129868D01*
X149826980Y-129084605D01*
X148781717Y-130129868D01*
X148892621Y-130407099D01*
X148896642Y-130408613D01*
X148717000Y-130510460D01*
X148463000Y-130510460D01*
X148246930Y-130387960D01*
X148172723Y-130402920D01*
X147691974Y-130664550D01*
X147347941Y-131090239D01*
X147193000Y-131615180D01*
X145999200Y-131615180D01*
X145999200Y-128616593D01*
X148081657Y-128616593D01*
X148104144Y-129306453D01*
X148324881Y-129839359D01*
X148602112Y-129950263D01*
X149647375Y-128905000D01*
X150006585Y-128905000D01*
X151051848Y-129950263D01*
X151329079Y-129839359D01*
X151572303Y-129193407D01*
X151549816Y-128503547D01*
X151329079Y-127970641D01*
X151051848Y-127859737D01*
X150006585Y-128905000D01*
X149647375Y-128905000D01*
X148602112Y-127859737D01*
X148324881Y-127970641D01*
X148081657Y-128616593D01*
X145999200Y-128616593D01*
X145999200Y-127680132D01*
X148781717Y-127680132D01*
X149826980Y-128725395D01*
X150872243Y-127680132D01*
X150761339Y-127402901D01*
X150115387Y-127159677D01*
X149425527Y-127182164D01*
X148892621Y-127402901D01*
X148781717Y-127680132D01*
X145999200Y-127680132D01*
X145999200Y-126111406D01*
X146100681Y-125867013D01*
X146100919Y-125594184D01*
X145996732Y-125342033D01*
X145803982Y-125148946D01*
X145552013Y-125044319D01*
X145279184Y-125044081D01*
X145027033Y-125148268D01*
X144833946Y-125341018D01*
X144729319Y-125592987D01*
X144729081Y-125865816D01*
X144830800Y-126111994D01*
X144830800Y-126359327D01*
X144679628Y-126296555D01*
X144369413Y-126296285D01*
X144082707Y-126414749D01*
X143863160Y-126633913D01*
X143744195Y-126920412D01*
X143743925Y-127230627D01*
X143862389Y-127517333D01*
X144081553Y-127736880D01*
X144368052Y-127855845D01*
X144678267Y-127856115D01*
X144830800Y-127793090D01*
X144830800Y-130157682D01*
X144677088Y-130093855D01*
X144366873Y-130093585D01*
X144080167Y-130212049D01*
X143860620Y-130431213D01*
X143741655Y-130717712D01*
X143741385Y-131027927D01*
X141426000Y-131027927D01*
X141426000Y-120150816D01*
X149809081Y-120150816D01*
X149913268Y-120402967D01*
X150037800Y-120527717D01*
X150037800Y-121407380D01*
X149913946Y-121531018D01*
X149809319Y-121782987D01*
X149809081Y-122055816D01*
X149913268Y-122307967D01*
X150106018Y-122501054D01*
X150357987Y-122605681D01*
X150630816Y-122605919D01*
X150882967Y-122501732D01*
X151076054Y-122308982D01*
X151180681Y-122057013D01*
X151180919Y-121784184D01*
X151076732Y-121532033D01*
X150952200Y-121407283D01*
X150952200Y-120527620D01*
X151076054Y-120403982D01*
X151180681Y-120152013D01*
X151180919Y-119879184D01*
X151076732Y-119627033D01*
X150883982Y-119433946D01*
X150632013Y-119329319D01*
X150359184Y-119329081D01*
X150107033Y-119433268D01*
X149913946Y-119626018D01*
X149809319Y-119877987D01*
X149809081Y-120150816D01*
X141426000Y-120150816D01*
X141426000Y-116026000D01*
X160249839Y-116026000D01*
X160162123Y-116113716D01*
X160162123Y-116113716D01*
G37*
X160162123Y-116113716D02*
X159004000Y-116113716D01*
X158855341Y-116143286D01*
X158729314Y-116227494D01*
X158645106Y-116353521D01*
X158615536Y-116502180D01*
X158615536Y-118701820D01*
X158645106Y-118850479D01*
X158729314Y-118976506D01*
X158855341Y-119060714D01*
X159004000Y-119090284D01*
X160528000Y-119090284D01*
X160676659Y-119060714D01*
X160802686Y-118976506D01*
X160886894Y-118850479D01*
X160916464Y-118701820D01*
X160916464Y-116868057D01*
X161180742Y-116603779D01*
X161379621Y-116603779D01*
X161250006Y-116797762D01*
X161163000Y-117235169D01*
X161163000Y-117968831D01*
X161250006Y-118406238D01*
X161497777Y-118777054D01*
X161868593Y-119024825D01*
X162306000Y-119111831D01*
X162743407Y-119024825D01*
X163114223Y-118777054D01*
X163361994Y-118406238D01*
X163449000Y-117968831D01*
X163449000Y-118066820D01*
X163603941Y-118591761D01*
X163947974Y-119017450D01*
X164428723Y-119279080D01*
X164502930Y-119294040D01*
X164719000Y-119171540D01*
X164719000Y-117729000D01*
X163449000Y-117729000D01*
X163449000Y-117475000D01*
X164719000Y-117475000D01*
X164719000Y-117455000D01*
X164973000Y-117455000D01*
X164973000Y-117475000D01*
X166243000Y-117475000D01*
X166243000Y-117729000D01*
X164973000Y-117729000D01*
X164973000Y-119171540D01*
X165189070Y-119294040D01*
X165263277Y-119279080D01*
X165563604Y-119115638D01*
X165409340Y-119269902D01*
X165310231Y-119418228D01*
X165275429Y-119593191D01*
X165275429Y-122397970D01*
X165151575Y-122521608D01*
X165046948Y-122773577D01*
X165046928Y-122797005D01*
X165002889Y-122767579D01*
X164945754Y-122756214D01*
X164945957Y-122523679D01*
X164841770Y-122271528D01*
X164717238Y-122146778D01*
X164717238Y-122068602D01*
X164682436Y-121893639D01*
X164583327Y-121745313D01*
X162529725Y-119691711D01*
X162381399Y-119592602D01*
X162206436Y-119557800D01*
X161647678Y-119557800D01*
X161524040Y-119433946D01*
X161272071Y-119329319D01*
X160999242Y-119329081D01*
X160747091Y-119433268D01*
X160554004Y-119626018D01*
X160449377Y-119877987D01*
X160449139Y-120150816D01*
X160553326Y-120402967D01*
X160746076Y-120596054D01*
X160998045Y-120700681D01*
X161270874Y-120700919D01*
X161523025Y-120596732D01*
X161647775Y-120472200D01*
X162017058Y-120472200D01*
X162400557Y-120855699D01*
X162232946Y-121023018D01*
X162209311Y-121079938D01*
X161342869Y-121079938D01*
X161219231Y-120956084D01*
X160967262Y-120851457D01*
X160694433Y-120851219D01*
X160442282Y-120955406D01*
X160249195Y-121148156D01*
X160144568Y-121400125D01*
X160144330Y-121672954D01*
X160248517Y-121925105D01*
X160441267Y-122118192D01*
X160693236Y-122222819D01*
X160966065Y-122223057D01*
X161218216Y-122118870D01*
X161342966Y-121994338D01*
X162428110Y-121994338D01*
X162676987Y-122097681D01*
X162949816Y-122097919D01*
X163201967Y-121993732D01*
X163370426Y-121825568D01*
X163747237Y-122202379D01*
X163678984Y-122270513D01*
X163574357Y-122522482D01*
X163574119Y-122795311D01*
X163678306Y-123047462D01*
X163744993Y-123114266D01*
X163472634Y-123386625D01*
X163456982Y-123370946D01*
X163205013Y-123266319D01*
X162932184Y-123266081D01*
X162680033Y-123370268D01*
X162630635Y-123419579D01*
X162419348Y-123331845D01*
X162243078Y-123331691D01*
X161955885Y-123044498D01*
X161807559Y-122945389D01*
X161632596Y-122910587D01*
X151231637Y-122910587D01*
X151056674Y-122945389D01*
X150908348Y-123044498D01*
X149562135Y-124390711D01*
X149463026Y-124539037D01*
X149428224Y-124714000D01*
X149428224Y-125755418D01*
X149440572Y-125817494D01*
X149428325Y-125846987D01*
X149428087Y-126119816D01*
X149532274Y-126371967D01*
X149725024Y-126565054D01*
X149976993Y-126669681D01*
X150249822Y-126669919D01*
X150501973Y-126565732D01*
X150695060Y-126372982D01*
X150799687Y-126121013D01*
X150799925Y-125848184D01*
X150695738Y-125596033D01*
X150502988Y-125402946D01*
X150342624Y-125336357D01*
X150342624Y-124903378D01*
X151421015Y-123824987D01*
X160959637Y-123824987D01*
X160858319Y-124068987D01*
X160858165Y-124245257D01*
X158611421Y-126492001D01*
X157276799Y-126492001D01*
X157101836Y-126526803D01*
X157039794Y-126568259D01*
X156836184Y-126568081D01*
X156584033Y-126672268D01*
X156390946Y-126865018D01*
X156286319Y-127116987D01*
X156286081Y-127389816D01*
X156390268Y-127641967D01*
X156583018Y-127835054D01*
X156834987Y-127939681D01*
X157107816Y-127939919D01*
X157359967Y-127835732D01*
X157553054Y-127642982D01*
X157651291Y-127406401D01*
X158800799Y-127406401D01*
X158975762Y-127371599D01*
X159119841Y-127275328D01*
X159235866Y-127391556D01*
X158095619Y-128531803D01*
X157096963Y-128531803D01*
X156922000Y-128566605D01*
X156773674Y-128665714D01*
X156343912Y-129095476D01*
X156244803Y-129243802D01*
X156210001Y-129418765D01*
X156210001Y-129997201D01*
X156244803Y-130172164D01*
X156286259Y-130234206D01*
X156286081Y-130437816D01*
X156390268Y-130689967D01*
X156583018Y-130883054D01*
X156834987Y-130987681D01*
X157107816Y-130987919D01*
X157359967Y-130883732D01*
X157553054Y-130690982D01*
X157657681Y-130439013D01*
X157657919Y-130166184D01*
X157648130Y-130142494D01*
X157740963Y-130104136D01*
X157865713Y-129979604D01*
X158960485Y-129979604D01*
X159135448Y-129944802D01*
X159283774Y-129845693D01*
X159346201Y-129783266D01*
X159439977Y-129877205D01*
X159378033Y-129902800D01*
X159184946Y-130095550D01*
X159080319Y-130347519D01*
X159080081Y-130620348D01*
X159184268Y-130872499D01*
X159256064Y-130944420D01*
X159195096Y-130969612D01*
X159002009Y-131162362D01*
X158897382Y-131414331D01*
X158897144Y-131687160D01*
X159001331Y-131939311D01*
X159194081Y-132132398D01*
X159446050Y-132237025D01*
X159622319Y-132237179D01*
X160347241Y-132962101D01*
X160495567Y-133061209D01*
X160670530Y-133096011D01*
X161683429Y-133096011D01*
X161858392Y-133061209D01*
X162006718Y-132962100D01*
X162008073Y-132960745D01*
X162102866Y-133055705D01*
X162102866Y-133060071D01*
X161076314Y-134086624D01*
X160901310Y-134086471D01*
X160649159Y-134190658D01*
X160456072Y-134383408D01*
X160364374Y-134604242D01*
X157462961Y-131702829D01*
X157289913Y-131587203D01*
X157085790Y-131546600D01*
X154820464Y-131546600D01*
X154820464Y-130980180D01*
X154790894Y-130831521D01*
X154706686Y-130705494D01*
X154580659Y-130621286D01*
X154432000Y-130591716D01*
X153334049Y-130591716D01*
X153489054Y-130436982D01*
X153593681Y-130185013D01*
X153593686Y-130179264D01*
X153701730Y-130017564D01*
X153746200Y-129794000D01*
X153746200Y-126619406D01*
X153847681Y-126375013D01*
X153847919Y-126102184D01*
X153743732Y-125850033D01*
X153550982Y-125656946D01*
X153299013Y-125552319D01*
X153026184Y-125552081D01*
X152774033Y-125656268D01*
X152580946Y-125849018D01*
X152476319Y-126100987D01*
X152476081Y-126373816D01*
X152577800Y-126619994D01*
X152577800Y-129442399D01*
X152520033Y-129466268D01*
X152326946Y-129659018D01*
X152222319Y-129910987D01*
X152222081Y-130183816D01*
X152326268Y-130435967D01*
X152519018Y-130629054D01*
X152660063Y-130687621D01*
X152633314Y-130705494D01*
X152549106Y-130831521D01*
X152519536Y-130980180D01*
X152519536Y-132742100D01*
X148897547Y-136364089D01*
X147913117Y-136364089D01*
X147668724Y-136262608D01*
X147395895Y-136262370D01*
X147155426Y-136361730D01*
X147155512Y-136263128D01*
X147051325Y-136010977D01*
X146858575Y-135817890D01*
X146606606Y-135713263D01*
X146333777Y-135713025D01*
X146081626Y-135817212D01*
X145888539Y-136009962D01*
X145783912Y-136261931D01*
X145783910Y-136263876D01*
X145679013Y-136220319D01*
X145406184Y-136220081D01*
X145154033Y-136324268D01*
X144960946Y-136517018D01*
X144856319Y-136768987D01*
X144856081Y-137041816D01*
X144960268Y-137293967D01*
X145153018Y-137487054D01*
X145404987Y-137591681D01*
X145581257Y-137591835D01*
X149282711Y-141293289D01*
X149431037Y-141392398D01*
X149606000Y-141427200D01*
X167667454Y-141427200D01*
X167842417Y-141392398D01*
X167990743Y-141293289D01*
X168496692Y-140787341D01*
X168595800Y-140639015D01*
X168630602Y-140464052D01*
X168630602Y-139548350D01*
X168595800Y-139373387D01*
X168519554Y-139259277D01*
X169833830Y-139259277D01*
X169982864Y-139619966D01*
X170258583Y-139896166D01*
X170619011Y-140045829D01*
X171009277Y-140046170D01*
X171369966Y-139897136D01*
X171646166Y-139621417D01*
X171795829Y-139260989D01*
X171795830Y-139259277D01*
X173133830Y-139259277D01*
X173282864Y-139619966D01*
X173558583Y-139896166D01*
X173919011Y-140045829D01*
X174309277Y-140046170D01*
X174669966Y-139897136D01*
X174946166Y-139621417D01*
X175095829Y-139260989D01*
X175096170Y-138870723D01*
X174947136Y-138510034D01*
X174671417Y-138233834D01*
X174310989Y-138084171D01*
X173920723Y-138083830D01*
X173560034Y-138232864D01*
X173283834Y-138508583D01*
X173134171Y-138869011D01*
X173133830Y-139259277D01*
X171795830Y-139259277D01*
X171796170Y-138870723D01*
X171647136Y-138510034D01*
X171371417Y-138233834D01*
X171010989Y-138084171D01*
X170620723Y-138083830D01*
X170260034Y-138232864D01*
X169983834Y-138508583D01*
X169834171Y-138869011D01*
X169833830Y-139259277D01*
X168519554Y-139259277D01*
X168496691Y-139225061D01*
X168140341Y-138868711D01*
X167992015Y-138769602D01*
X167918829Y-138755045D01*
X167774982Y-138610946D01*
X167523013Y-138506319D01*
X167250184Y-138506081D01*
X166998033Y-138610268D01*
X166804946Y-138803018D01*
X166700319Y-139054987D01*
X166700081Y-139327816D01*
X166782170Y-139526485D01*
X166588577Y-139446098D01*
X166315748Y-139445860D01*
X166063597Y-139550047D01*
X166015180Y-139598379D01*
X165358511Y-139598379D01*
X163543911Y-137783779D01*
X163692987Y-137845681D01*
X163965816Y-137845919D01*
X164217967Y-137741732D01*
X164411054Y-137548982D01*
X164515681Y-137297013D01*
X164515835Y-137120743D01*
X165035378Y-136601200D01*
X167635380Y-136601200D01*
X167759018Y-136725054D01*
X168010987Y-136829681D01*
X168283816Y-136829919D01*
X168535967Y-136725732D01*
X168729054Y-136532982D01*
X168833681Y-136281013D01*
X168833919Y-136008184D01*
X168729732Y-135756033D01*
X168536982Y-135562946D01*
X168285013Y-135458319D01*
X168012184Y-135458081D01*
X167760033Y-135562268D01*
X167635283Y-135686800D01*
X164920422Y-135686800D01*
X165453822Y-135153400D01*
X166878000Y-135153400D01*
X167082123Y-135112797D01*
X167255171Y-134997171D01*
X167606941Y-134645400D01*
X168376600Y-134645400D01*
X168376600Y-135099106D01*
X168417203Y-135303229D01*
X168532829Y-135476277D01*
X170339723Y-137283171D01*
X170512771Y-137398797D01*
X170716894Y-137439400D01*
X173807429Y-137439400D01*
X173855000Y-137487054D01*
X174106969Y-137591681D01*
X174379798Y-137591919D01*
X174631949Y-137487732D01*
X174825036Y-137294982D01*
X174929663Y-137043013D01*
X174929901Y-136770184D01*
X174825714Y-136518033D01*
X174737527Y-136429692D01*
X174946166Y-136221417D01*
X175095829Y-135860989D01*
X175095887Y-135795177D01*
X177688446Y-138387736D01*
X177622319Y-138546987D01*
X177622081Y-138819816D01*
X177726268Y-139071967D01*
X177919018Y-139265054D01*
X178170987Y-139369681D01*
X178443816Y-139369919D01*
X178695967Y-139265732D01*
X178889054Y-139072982D01*
X178993681Y-138821013D01*
X178993919Y-138548184D01*
X178889732Y-138296033D01*
X178840076Y-138246290D01*
X178800797Y-138048825D01*
X178685171Y-137875777D01*
X175276932Y-134467538D01*
X175531265Y-134467760D01*
X175783416Y-134363573D01*
X175976503Y-134170823D01*
X176081130Y-133918854D01*
X176081210Y-133827188D01*
X182912311Y-140658290D01*
X182999536Y-140716572D01*
X182999536Y-141434820D01*
X183029106Y-141583479D01*
X183113314Y-141709506D01*
X183224803Y-141784000D01*
X141426000Y-141784000D01*
X141426000Y-131027927D01*
X143741385Y-131027927D01*
X143859849Y-131314633D01*
X144079013Y-131534180D01*
X144365512Y-131653145D01*
X144675727Y-131653415D01*
X144830800Y-131589340D01*
X144830800Y-132715000D01*
X144875270Y-132938564D01*
X144977437Y-133091468D01*
X145001908Y-133128092D01*
X145367214Y-133493398D01*
X145468268Y-133737967D01*
X145661018Y-133931054D01*
X145912987Y-134035681D01*
X146185816Y-134035919D01*
X146437967Y-133931732D01*
X146631054Y-133738982D01*
X146735681Y-133487013D01*
X146735919Y-133214184D01*
X146631732Y-132962033D01*
X146438982Y-132768946D01*
X146192981Y-132666797D01*
X145999200Y-132473016D01*
X145999200Y-132207000D01*
X147193000Y-132207000D01*
X147193000Y-132544820D01*
X147347941Y-133069761D01*
X147691974Y-133495450D01*
X148172723Y-133757080D01*
X148246930Y-133772040D01*
X148463000Y-133649540D01*
X148463000Y-132207000D01*
X147193000Y-132207000D01*
X145999200Y-132207000D01*
X145999200Y-131615180D01*
X147193000Y-131615180D01*
X147193000Y-131953000D01*
X148463000Y-131953000D01*
X148463000Y-130510460D01*
X148717000Y-130510460D01*
X148717000Y-131953000D01*
X149987000Y-131953000D01*
X149987000Y-132207000D01*
X148717000Y-132207000D01*
X148717000Y-133649540D01*
X148933070Y-133772040D01*
X149007277Y-133757080D01*
X149488026Y-133495450D01*
X149832059Y-133069761D01*
X149987000Y-132544820D01*
X149987000Y-132446831D01*
X150074006Y-132884238D01*
X150321777Y-133255054D01*
X150692593Y-133502825D01*
X151130000Y-133589831D01*
X151567407Y-133502825D01*
X151938223Y-133255054D01*
X152185994Y-132884238D01*
X152273000Y-132446831D01*
X152273000Y-131713169D01*
X152185994Y-131275762D01*
X151938223Y-130904946D01*
X151567407Y-130657175D01*
X151130000Y-130570169D01*
X150692593Y-130657175D01*
X150321777Y-130904946D01*
X150074006Y-131275762D01*
X149987000Y-131713169D01*
X149987000Y-131615180D01*
X149832059Y-131090239D01*
X149488026Y-130664550D01*
X149289671Y-130556602D01*
X149538573Y-130650323D01*
X150228433Y-130627836D01*
X150761339Y-130407099D01*
X150872243Y-130129868D01*
X149826980Y-129084605D01*
X148781717Y-130129868D01*
X148892621Y-130407099D01*
X148896642Y-130408613D01*
X148717000Y-130510460D01*
X148463000Y-130510460D01*
X148246930Y-130387960D01*
X148172723Y-130402920D01*
X147691974Y-130664550D01*
X147347941Y-131090239D01*
X147193000Y-131615180D01*
X145999200Y-131615180D01*
X145999200Y-128616593D01*
X148081657Y-128616593D01*
X148104144Y-129306453D01*
X148324881Y-129839359D01*
X148602112Y-129950263D01*
X149647375Y-128905000D01*
X150006585Y-128905000D01*
X151051848Y-129950263D01*
X151329079Y-129839359D01*
X151572303Y-129193407D01*
X151549816Y-128503547D01*
X151329079Y-127970641D01*
X151051848Y-127859737D01*
X150006585Y-128905000D01*
X149647375Y-128905000D01*
X148602112Y-127859737D01*
X148324881Y-127970641D01*
X148081657Y-128616593D01*
X145999200Y-128616593D01*
X145999200Y-127680132D01*
X148781717Y-127680132D01*
X149826980Y-128725395D01*
X150872243Y-127680132D01*
X150761339Y-127402901D01*
X150115387Y-127159677D01*
X149425527Y-127182164D01*
X148892621Y-127402901D01*
X148781717Y-127680132D01*
X145999200Y-127680132D01*
X145999200Y-126111406D01*
X146100681Y-125867013D01*
X146100919Y-125594184D01*
X145996732Y-125342033D01*
X145803982Y-125148946D01*
X145552013Y-125044319D01*
X145279184Y-125044081D01*
X145027033Y-125148268D01*
X144833946Y-125341018D01*
X144729319Y-125592987D01*
X144729081Y-125865816D01*
X144830800Y-126111994D01*
X144830800Y-126359327D01*
X144679628Y-126296555D01*
X144369413Y-126296285D01*
X144082707Y-126414749D01*
X143863160Y-126633913D01*
X143744195Y-126920412D01*
X143743925Y-127230627D01*
X143862389Y-127517333D01*
X144081553Y-127736880D01*
X144368052Y-127855845D01*
X144678267Y-127856115D01*
X144830800Y-127793090D01*
X144830800Y-130157682D01*
X144677088Y-130093855D01*
X144366873Y-130093585D01*
X144080167Y-130212049D01*
X143860620Y-130431213D01*
X143741655Y-130717712D01*
X143741385Y-131027927D01*
X141426000Y-131027927D01*
X141426000Y-120150816D01*
X149809081Y-120150816D01*
X149913268Y-120402967D01*
X150037800Y-120527717D01*
X150037800Y-121407380D01*
X149913946Y-121531018D01*
X149809319Y-121782987D01*
X149809081Y-122055816D01*
X149913268Y-122307967D01*
X150106018Y-122501054D01*
X150357987Y-122605681D01*
X150630816Y-122605919D01*
X150882967Y-122501732D01*
X151076054Y-122308982D01*
X151180681Y-122057013D01*
X151180919Y-121784184D01*
X151076732Y-121532033D01*
X150952200Y-121407283D01*
X150952200Y-120527620D01*
X151076054Y-120403982D01*
X151180681Y-120152013D01*
X151180919Y-119879184D01*
X151076732Y-119627033D01*
X150883982Y-119433946D01*
X150632013Y-119329319D01*
X150359184Y-119329081D01*
X150107033Y-119433268D01*
X149913946Y-119626018D01*
X149809319Y-119877987D01*
X149809081Y-120150816D01*
X141426000Y-120150816D01*
X141426000Y-116026000D01*
X160249839Y-116026000D01*
X160162123Y-116113716D01*
G36*
X155778319Y-132704987D02*
X155778081Y-132977816D01*
X155882268Y-133229967D01*
X156075018Y-133423054D01*
X156326987Y-133527681D01*
X156503257Y-133527835D01*
X156902711Y-133927289D01*
X157051037Y-134026398D01*
X157220236Y-134060053D01*
X157345018Y-134185054D01*
X157596987Y-134289681D01*
X157869816Y-134289919D01*
X158121967Y-134185732D01*
X158279711Y-134028263D01*
X158325843Y-134074395D01*
X158168946Y-134231018D01*
X158064319Y-134482987D01*
X158064165Y-134659256D01*
X156020622Y-136702800D01*
X153426988Y-136702800D01*
X153408097Y-136657080D01*
X153158236Y-136406782D01*
X152831609Y-136271154D01*
X152477943Y-136270846D01*
X152151080Y-136405903D01*
X151900782Y-136655764D01*
X151765154Y-136982391D01*
X151764846Y-137336057D01*
X151899903Y-137662920D01*
X152149764Y-137913218D01*
X152196800Y-137932749D01*
X152196800Y-138927012D01*
X152151080Y-138945903D01*
X151900782Y-139195764D01*
X151765154Y-139522391D01*
X151764846Y-139876057D01*
X151899903Y-140202920D01*
X151904963Y-140207989D01*
X150494164Y-140207989D01*
X147846452Y-137560277D01*
X147913705Y-137532489D01*
X149139531Y-137532489D01*
X149363095Y-137488019D01*
X149552623Y-137361381D01*
X153345720Y-133568284D01*
X154432000Y-133568284D01*
X154580659Y-133538714D01*
X154706686Y-133454506D01*
X154790894Y-133328479D01*
X154820464Y-133179820D01*
X154820464Y-132613400D01*
X155816349Y-132613400D01*
X155778319Y-132704987D01*
X155778319Y-132704987D01*
G37*
X155778319Y-132704987D02*
X155778081Y-132977816D01*
X155882268Y-133229967D01*
X156075018Y-133423054D01*
X156326987Y-133527681D01*
X156503257Y-133527835D01*
X156902711Y-133927289D01*
X157051037Y-134026398D01*
X157220236Y-134060053D01*
X157345018Y-134185054D01*
X157596987Y-134289681D01*
X157869816Y-134289919D01*
X158121967Y-134185732D01*
X158279711Y-134028263D01*
X158325843Y-134074395D01*
X158168946Y-134231018D01*
X158064319Y-134482987D01*
X158064165Y-134659256D01*
X156020622Y-136702800D01*
X153426988Y-136702800D01*
X153408097Y-136657080D01*
X153158236Y-136406782D01*
X152831609Y-136271154D01*
X152477943Y-136270846D01*
X152151080Y-136405903D01*
X151900782Y-136655764D01*
X151765154Y-136982391D01*
X151764846Y-137336057D01*
X151899903Y-137662920D01*
X152149764Y-137913218D01*
X152196800Y-137932749D01*
X152196800Y-138927012D01*
X152151080Y-138945903D01*
X151900782Y-139195764D01*
X151765154Y-139522391D01*
X151764846Y-139876057D01*
X151899903Y-140202920D01*
X151904963Y-140207989D01*
X150494164Y-140207989D01*
X147846452Y-137560277D01*
X147913705Y-137532489D01*
X149139531Y-137532489D01*
X149363095Y-137488019D01*
X149552623Y-137361381D01*
X153345720Y-133568284D01*
X154432000Y-133568284D01*
X154580659Y-133538714D01*
X154706686Y-133454506D01*
X154790894Y-133328479D01*
X154820464Y-133179820D01*
X154820464Y-132613400D01*
X155816349Y-132613400D01*
X155778319Y-132704987D01*
M02*
