%TF.GenerationSoftware,KiCad,Pcbnew,4.1.0-alpha+201607250105+6992~46~ubuntu15.10.1-product*%
%TF.CreationDate,2016-10-28T12:30:36+02:00*%
%TF.ProjectId,robot1,726F626F74312E6B696361645F706362,rev?*%
%TF.FileFunction,Soldermask,Top*%
%FSLAX46Y46*%
G04 Gerber Fmt 4.6, Leading zero omitted, Abs format (unit mm)*
G04 Created by KiCad (PCBNEW 4.1.0-alpha+201607250105+6992~46~ubuntu15.10.1-product) date Fri Oct 28 12:30:36 2016*
%MOMM*%
%LPD*%
G01*
G04 APERTURE LIST*
%ADD10C,0.100000*%
%ADD11R,1.400760X1.299160*%
%ADD12R,1.299160X1.400760*%
%ADD13R,1.898600X1.700480*%
%ADD14R,1.700480X1.898600*%
%ADD15R,2.899360X2.350720*%
%ADD16R,1.924000X2.599640*%
%ADD17O,1.924000X2.599640*%
%ADD18R,2.203400X2.000200*%
%ADD19R,0.650000X1.400000*%
%ADD20R,1.100000X0.650000*%
%ADD21R,0.650000X0.900000*%
%ADD22R,2.400000X1.300000*%
%ADD23R,0.985520X0.416560*%
%ADD24R,0.416560X0.985520*%
%ADD25R,1.861820X1.861820*%
%ADD26C,0.650000*%
%ADD27R,1.600000X1.800000*%
%ADD28R,1.500000X2.300000*%
%ADD29R,1.800000X1.600000*%
%ADD30R,1.098500X1.200100*%
%ADD31R,1.200100X1.098500*%
%ADD32R,1.700480X0.699720*%
%ADD33R,0.699720X1.700480*%
%ADD34R,2.599640X1.924000*%
%ADD35O,2.599640X1.924000*%
%ADD36C,1.197560*%
%ADD37R,4.400000X1.600000*%
%ADD38C,1.400000*%
%ADD39R,2.400000X2.300000*%
%ADD40C,2.300000*%
%ADD41R,1.400760X0.999440*%
%ADD42R,0.999440X1.400760*%
%ADD43C,1.600000*%
%ADD44C,1.924000*%
%ADD45R,1.500000X1.900000*%
G04 APERTURE END LIST*
D10*
G36*
X191374532Y-100473338D02*
X192574532Y-100473338D01*
X192574532Y-98873338D01*
X191374532Y-98873338D01*
X191374532Y-100473338D01*
G37*
G36*
X192824532Y-100473338D02*
X194024532Y-100473338D01*
X194024532Y-98873338D01*
X192824532Y-98873338D01*
X192824532Y-100473338D01*
G37*
G36*
X192874532Y-104973338D02*
X194074532Y-104973338D01*
X194074532Y-103373338D01*
X192874532Y-103373338D01*
X192874532Y-104973338D01*
G37*
G36*
X191374532Y-104973338D02*
X192574532Y-104973338D01*
X192574532Y-103373338D01*
X191374532Y-103373338D01*
X191374532Y-104973338D01*
G37*
D11*
X128397000Y-96149160D03*
X128397000Y-97652840D03*
D12*
X114670840Y-89408000D03*
X113167160Y-89408000D03*
D11*
X116205000Y-89397840D03*
X116205000Y-87894160D03*
D13*
X112776000Y-102489000D03*
X112776000Y-104394000D03*
D11*
X110744000Y-102245160D03*
X110744000Y-103748840D03*
X108966000Y-101483160D03*
X108966000Y-102986840D03*
X105156000Y-92466160D03*
X105156000Y-93969840D03*
X105156000Y-97927160D03*
X105156000Y-99430840D03*
D14*
X108775500Y-89408000D03*
X110680500Y-89408000D03*
D11*
X117094000Y-102245160D03*
X117094000Y-103748840D03*
D13*
X115062000Y-102489000D03*
X115062000Y-104394000D03*
D15*
X99949000Y-87503000D03*
X99949000Y-90551000D03*
D11*
X130556000Y-100213160D03*
X130556000Y-101716840D03*
X130048000Y-96149160D03*
X130048000Y-97652840D03*
X132334000Y-100213160D03*
X132334000Y-101716840D03*
D12*
X132059680Y-86741000D03*
X130556000Y-86741000D03*
D11*
X130302000Y-88529160D03*
X130302000Y-90032840D03*
X134112000Y-100213160D03*
X134112000Y-101716840D03*
X132080000Y-88519000D03*
X132080000Y-90022680D03*
D12*
X135371840Y-86741000D03*
X133868160Y-86741000D03*
D11*
X133858000Y-90022680D03*
X133858000Y-88519000D03*
X128778000Y-100213160D03*
X128778000Y-101716840D03*
D12*
X141594840Y-89789000D03*
X140091160Y-89789000D03*
X137043160Y-89789000D03*
X138546840Y-89789000D03*
D11*
X142494000Y-99959160D03*
X142494000Y-101462840D03*
X136144000Y-100213160D03*
X136144000Y-101716840D03*
D16*
X107823000Y-86868000D03*
D17*
X110363000Y-86868000D03*
X112903000Y-86868000D03*
D11*
X164657532Y-92769178D03*
X164657532Y-91265498D03*
D14*
X122364500Y-105156000D03*
X124269500Y-105156000D03*
X123126500Y-101727000D03*
X125031500Y-101727000D03*
X124079000Y-85852000D03*
X122174000Y-85852000D03*
X123253500Y-89154000D03*
X121348500Y-89154000D03*
D18*
X146533000Y-98996000D03*
X146533000Y-96202000D03*
D19*
X103775000Y-90505100D03*
X104275000Y-90505100D03*
X104775000Y-90505100D03*
X105275000Y-90505100D03*
X105775000Y-90505100D03*
X105775000Y-86278900D03*
X105275000Y-86278900D03*
X104775000Y-86278900D03*
X104275000Y-86278900D03*
X103775000Y-86278900D03*
D20*
X124667000Y-97286000D03*
X124667000Y-97786000D03*
X121967000Y-97786000D03*
D21*
X122567000Y-96586000D03*
X124567000Y-98486000D03*
X122067000Y-96586000D03*
X124567000Y-96586000D03*
X124067000Y-96586000D03*
X123567000Y-96586000D03*
X123067000Y-96586000D03*
X122067000Y-98486000D03*
X122567000Y-98486000D03*
X123067000Y-98486000D03*
X123567000Y-98486000D03*
X124067000Y-98486000D03*
D20*
X121967000Y-97286000D03*
D22*
X123317000Y-97536000D03*
D20*
X121967000Y-93595000D03*
X121967000Y-93095000D03*
X124667000Y-93095000D03*
D21*
X124067000Y-94295000D03*
X122067000Y-92395000D03*
X124567000Y-94295000D03*
X122067000Y-94295000D03*
X122567000Y-94295000D03*
X123067000Y-94295000D03*
X123567000Y-94295000D03*
X124567000Y-92395000D03*
X124067000Y-92395000D03*
X123567000Y-92395000D03*
X123067000Y-92395000D03*
X122567000Y-92395000D03*
D20*
X124667000Y-93595000D03*
D22*
X123317000Y-93345000D03*
D23*
X131384040Y-94254320D03*
X131384040Y-94754700D03*
X131384040Y-95255080D03*
X131384040Y-95752920D03*
X131384040Y-97251520D03*
D24*
X132110480Y-97977960D03*
X132608320Y-97977960D03*
X133108700Y-97977960D03*
X133609080Y-97977960D03*
X134106920Y-97977960D03*
X134607300Y-97977960D03*
D23*
X131384040Y-93756480D03*
D25*
X132996940Y-96365060D03*
X132996940Y-94642940D03*
X134719060Y-94642940D03*
X134719060Y-96365060D03*
D24*
X135107680Y-97977960D03*
X135605520Y-97977960D03*
D23*
X136331960Y-97251520D03*
X136331960Y-96753680D03*
X136331960Y-96253300D03*
X136331960Y-95752920D03*
X136331960Y-95255080D03*
X136331960Y-94754700D03*
X136331960Y-94254320D03*
X136331960Y-93756480D03*
D24*
X135605520Y-93030040D03*
X135107680Y-93030040D03*
X134607300Y-93030040D03*
X134106920Y-93030040D03*
D23*
X131384040Y-96253300D03*
X131384040Y-96753680D03*
D24*
X133609080Y-93030040D03*
X133108700Y-93030040D03*
X132608320Y-93030040D03*
X132110480Y-93030040D03*
D26*
X138922000Y-95777000D03*
X137922000Y-95777000D03*
X138922000Y-95377000D03*
X137922000Y-95377000D03*
D27*
X101844928Y-94619582D03*
X101844928Y-96819582D03*
X103444928Y-94619582D03*
X103444928Y-96819582D03*
D28*
X140549000Y-91821000D03*
X138049000Y-91821000D03*
D29*
X138092000Y-101638000D03*
X140292000Y-101638000D03*
X138092000Y-100038000D03*
X140292000Y-100038000D03*
D11*
X189549532Y-99520498D03*
X189549532Y-101024178D03*
X182056532Y-102949498D03*
X182056532Y-104453178D03*
D12*
X180288692Y-86556338D03*
X181792372Y-86556338D03*
D11*
X164657532Y-98123498D03*
X164657532Y-99627178D03*
X189524132Y-102786938D03*
X189524132Y-104290618D03*
D30*
X184088532Y-103025698D03*
X184088532Y-104122978D03*
X184088532Y-99723698D03*
X184088532Y-100820978D03*
D31*
X176681284Y-103640370D03*
X175584004Y-103640370D03*
D30*
X178562000Y-87543640D03*
X178562000Y-86446360D03*
X107061000Y-89240360D03*
X107061000Y-90337640D03*
D31*
X157250892Y-96335338D03*
X158348172Y-96335338D03*
X157250892Y-94430338D03*
X158348172Y-94430338D03*
X130723640Y-104267000D03*
X129626360Y-104267000D03*
X173506892Y-93922338D03*
X174604172Y-93922338D03*
D30*
X105184928Y-95297942D03*
X105184928Y-96395222D03*
X174309532Y-96294698D03*
X174309532Y-97391978D03*
D31*
X172064172Y-97097338D03*
X170966892Y-97097338D03*
D30*
X171388532Y-94851978D03*
X171388532Y-93754698D03*
D31*
X132166360Y-104267000D03*
X133263640Y-104267000D03*
D32*
X107054368Y-94215902D03*
X107054368Y-94716282D03*
X107054368Y-95216662D03*
X107054368Y-95714502D03*
X107054368Y-96214882D03*
X107054368Y-92714762D03*
X107054368Y-93215142D03*
X107054368Y-93715522D03*
D33*
X108403108Y-99565142D03*
X108903488Y-99565142D03*
X109403868Y-99565142D03*
X109904248Y-99565142D03*
X110404628Y-99565142D03*
X110905008Y-99565142D03*
X111402848Y-99565142D03*
X111903228Y-99565142D03*
D32*
X115253488Y-98216402D03*
X115253488Y-97716022D03*
X115253488Y-97215642D03*
X115253488Y-96715262D03*
X115253488Y-96214882D03*
X115253488Y-95714502D03*
X115253488Y-95216662D03*
X115253488Y-94716282D03*
D33*
X113904748Y-91366022D03*
X113404368Y-91366022D03*
X112903988Y-91366022D03*
X112403608Y-91366022D03*
X111903228Y-91366022D03*
X111402848Y-91366022D03*
X110905008Y-91366022D03*
X110404628Y-91366022D03*
D32*
X107054368Y-96715262D03*
X107054368Y-97215642D03*
X107054368Y-97716022D03*
X107054368Y-98216402D03*
D33*
X112403608Y-99565142D03*
X112903988Y-99565142D03*
X113404368Y-99565142D03*
X113904748Y-99565142D03*
D32*
X115253488Y-94215902D03*
X115253488Y-93715522D03*
X115253488Y-93215142D03*
X115253488Y-92714762D03*
D33*
X109904248Y-91366022D03*
X109403868Y-91366022D03*
X108903488Y-91366022D03*
X108403108Y-91366022D03*
D12*
X103396768Y-98767582D03*
X101893088Y-98767582D03*
X101893088Y-92671582D03*
X103396768Y-92671582D03*
D11*
X175833532Y-96091498D03*
X175833532Y-97595178D03*
X169864532Y-95055178D03*
X169864532Y-93551498D03*
D12*
X172267372Y-98621338D03*
X170763692Y-98621338D03*
X173303692Y-92398338D03*
X174807372Y-92398338D03*
D16*
X175325532Y-100780338D03*
D17*
X172785532Y-100780338D03*
X170245532Y-100780338D03*
D34*
X167705532Y-98113338D03*
D35*
X167705532Y-95573338D03*
X167705532Y-93033338D03*
D16*
X170245532Y-90239338D03*
D17*
X172785532Y-90239338D03*
X175325532Y-90239338D03*
D34*
X177992532Y-93033338D03*
D35*
X177992532Y-95573338D03*
X177992532Y-98113338D03*
D36*
X102222300Y-87256620D03*
X102224840Y-91053920D03*
D37*
X188787532Y-86329000D03*
X188787532Y-97529000D03*
D38*
X100182000Y-100785000D03*
X100182000Y-97785000D03*
D39*
X162371532Y-100272338D03*
D40*
X162371532Y-97732338D03*
D39*
X162371532Y-90747338D03*
D40*
X162371532Y-93287338D03*
D41*
X187771532Y-101161338D03*
X185658252Y-100208838D03*
X187771532Y-99256338D03*
X180313484Y-104567470D03*
X178200204Y-103614970D03*
X180313484Y-102662470D03*
X181589172Y-90175838D03*
X179475892Y-89223338D03*
X181589172Y-88270838D03*
X158475172Y-99827838D03*
X156361892Y-98875338D03*
X158475172Y-97922838D03*
X158475172Y-92969838D03*
X156361892Y-92017338D03*
X158475172Y-91064838D03*
X187812172Y-104526838D03*
X185698892Y-103574338D03*
X187812172Y-102621838D03*
D42*
X105537000Y-101092000D03*
X103632000Y-101092000D03*
X104584500Y-101092000D03*
X103632000Y-103205280D03*
X105537000Y-103205280D03*
D31*
X107274360Y-105156000D03*
X108371640Y-105156000D03*
X102194360Y-105156000D03*
X103291640Y-105156000D03*
D11*
X107188000Y-101483160D03*
X107188000Y-102986840D03*
X101981000Y-102997000D03*
X101981000Y-101493320D03*
D43*
X121541000Y-103505000D03*
X121541000Y-100105000D03*
X124841000Y-100105000D03*
X124841000Y-103505000D03*
X126991000Y-103455000D03*
X119391000Y-103455000D03*
X126991000Y-100055000D03*
X119391000Y-100055000D03*
X126991000Y-97155000D03*
X119391000Y-97155000D03*
X124850000Y-87470000D03*
X124850000Y-90870000D03*
X121550000Y-90870000D03*
X121550000Y-87470000D03*
X119400000Y-87520000D03*
X127000000Y-87520000D03*
X119400000Y-90920000D03*
X127000000Y-90920000D03*
X119400000Y-93820000D03*
X127000000Y-93820000D03*
D44*
X143383000Y-106934000D03*
X140843000Y-106934000D03*
X138303000Y-106934000D03*
X135763000Y-106934000D03*
X133223000Y-106934000D03*
X130683000Y-106934000D03*
X128143000Y-106934000D03*
X125603000Y-106934000D03*
X123063000Y-106934000D03*
X120523000Y-106934000D03*
X117983000Y-106934000D03*
X115443000Y-106934000D03*
X112903000Y-106934000D03*
X110363000Y-106934000D03*
X107823000Y-106934000D03*
X105283000Y-106934000D03*
X102743000Y-106934000D03*
X102743000Y-84074000D03*
X105283000Y-84074000D03*
X107823000Y-84074000D03*
X110363000Y-84074000D03*
X112903000Y-84074000D03*
X115443000Y-84074000D03*
X117983000Y-84074000D03*
X120523000Y-84074000D03*
X123063000Y-84074000D03*
X125603000Y-84074000D03*
X128143000Y-84074000D03*
X130683000Y-84074000D03*
X133223000Y-84074000D03*
X135763000Y-84074000D03*
X138303000Y-84074000D03*
X140843000Y-84074000D03*
X143383000Y-84074000D03*
X193040000Y-106934000D03*
X190500000Y-106934000D03*
X187960000Y-106934000D03*
X185420000Y-106934000D03*
X182880000Y-106934000D03*
X180340000Y-106934000D03*
X177800000Y-106934000D03*
X175260000Y-106934000D03*
X172720000Y-106934000D03*
X170180000Y-106934000D03*
X167640000Y-106934000D03*
X165100000Y-106934000D03*
X162560000Y-106934000D03*
X160020000Y-106934000D03*
X157480000Y-106934000D03*
X154940000Y-106934000D03*
X152400000Y-106934000D03*
X152400000Y-84074000D03*
X154940000Y-84074000D03*
X157480000Y-84074000D03*
X160020000Y-84074000D03*
X162560000Y-84074000D03*
X165100000Y-84074000D03*
X167640000Y-84074000D03*
X170180000Y-84074000D03*
X172720000Y-84074000D03*
X175260000Y-84074000D03*
X177800000Y-84074000D03*
X180340000Y-84074000D03*
X182880000Y-84074000D03*
X185420000Y-84074000D03*
X187960000Y-84074000D03*
X190500000Y-84074000D03*
X193040000Y-84074000D03*
D16*
X200025000Y-84074000D03*
D17*
X202565000Y-84074000D03*
X205105000Y-84074000D03*
X207645000Y-84074000D03*
X210185000Y-84074000D03*
D16*
X210185000Y-106934000D03*
D17*
X207645000Y-106934000D03*
X205105000Y-106934000D03*
X202565000Y-106934000D03*
X200025000Y-106934000D03*
D45*
X191924532Y-99723338D03*
X193524532Y-99723338D03*
X193524532Y-104123338D03*
X191924532Y-104123338D03*
D12*
X141975840Y-103378000D03*
X140472160Y-103378000D03*
D11*
X139319000Y-88254840D03*
X139319000Y-86751160D03*
M02*
