%TF.GenerationSoftware,KiCad,Pcbnew,4.1.0-alpha+201607250105+6992~46~ubuntu15.10.1-product*%
%TF.CreationDate,2016-10-28T12:30:36+02:00*%
%TF.ProjectId,robot1,726F626F74312E6B696361645F706362,rev?*%
%TF.FileFunction,Profile,NP*%
%FSLAX46Y46*%
G04 Gerber Fmt 4.6, Leading zero omitted, Abs format (unit mm)*
G04 Created by KiCad (PCBNEW 4.1.0-alpha+201607250105+6992~46~ubuntu15.10.1-product) date Fri Oct 28 12:30:36 2016*
%MOMM*%
%LPD*%
G01*
G04 APERTURE LIST*
%ADD10C,0.100000*%
%ADD11C,0.150000*%
G04 APERTURE END LIST*
D10*
D11*
X147320000Y-108839000D02*
G75*
G03X147955000Y-108204000I0J635000D01*
G01*
X147955000Y-108204000D02*
G75*
G03X148590000Y-108839000I635000J0D01*
G01*
X196977000Y-108839000D02*
G75*
G03X197612000Y-108204000I0J635000D01*
G01*
X197612000Y-108204000D02*
G75*
G03X198247000Y-108839000I635000J0D01*
G01*
X212090000Y-108839000D02*
G75*
G03X212725000Y-108204000I0J635000D01*
G01*
X212725000Y-82804000D02*
G75*
G03X212090000Y-82169000I-635000J0D01*
G01*
X197612000Y-82804000D02*
G75*
G03X196977000Y-82169000I-635000J0D01*
G01*
X147955000Y-82804000D02*
G75*
G03X147320000Y-82169000I-635000J0D01*
G01*
X197612000Y-83439000D02*
X197612000Y-82804000D01*
X147955000Y-83439000D02*
X147955000Y-82804000D01*
X147955000Y-83439000D02*
X149225000Y-82169000D01*
X197612000Y-83439000D02*
X198882000Y-82169000D01*
X98298000Y-83439000D02*
X99568000Y-82169000D01*
X98298000Y-108204000D02*
G75*
G03X98933000Y-108839000I635000J0D01*
G01*
X149225000Y-82169000D02*
X196977000Y-82169000D01*
X148590000Y-108839000D02*
X196977000Y-108839000D01*
X212725000Y-82804000D02*
X212725000Y-108204000D01*
X198882000Y-82169000D02*
X212090000Y-82169000D01*
X198247000Y-108839000D02*
X212090000Y-108839000D01*
X197612000Y-83439000D02*
X197612000Y-108204000D01*
X147955000Y-83439000D02*
X147955000Y-108204000D01*
X98933000Y-108839000D02*
X147320000Y-108839000D01*
X99568000Y-82169000D02*
X147320000Y-82169000D01*
X98298000Y-83439000D02*
X98298000Y-108204000D01*
M02*
