G04 ================== begin FILE IDENTIFICATION RECORD ==================*
G04 Layout Name:  C:/Vss09/EAP/0021.13/BLUE_NRG_Dongle/BLUE_NRG_Dongle.brd*
G04 Film Name:    BLUE_NRG_DONGLE_SSTOP*
G04 File Format:  Gerber RS274X*
G04 File Origin:  Cadence Allegro 16.6-S018*
G04 Origin Date:  Mon Mar 17 13:59:26 2014*
G04 *
G04 Layer:  REF DES/SILKSCREEN_TOP*
G04 Layer:  PACKAGE GEOMETRY/SILKSCREEN_TOP*
G04 *
G04 Offset:    (0.000 0.000)*
G04 Mirror:    No*
G04 Mode:      Positive*
G04 Rotation:  0*
G04 FullContactRelief:  No*
G04 UndefLineWidth:     0.000*
G04 ================== end FILE IDENTIFICATION RECORD ====================*
%FSLAX25Y25*MOMM*%
%IR0*IPPOS*OFA0.00000B0.00000*MIA0B0*SFA1.00000B1.00000*%
%ADD10C,.12*%
%ADD11C,.22*%
%ADD12C,.14*%
%ADD13C,.15*%
%ADD14C,.16*%
G75*
%LPD*%
G75*
G36*
G01X4152000Y3202000D02*
X4117000Y3125000D01*
X4183000D01*
X4152000Y3202000D01*
G37*
G36*
G01X4220000Y4041000D02*
X4180000D01*
Y4001000D01*
X4220000D01*
Y4041000D01*
G37*
G36*
G01X4798000Y4326000D02*
G03I-29000J0D01*
G37*
G36*
G01X5743800Y3449200D02*
G03I-25400J0D01*
G37*
G36*
G01X7518800Y3412200D02*
X7472100D01*
X7419500Y3281400D01*
X7466000D01*
X7518800Y3412200D01*
G37*
G36*
G01X7346100Y3411900D02*
G03X7338200Y3392600I-703J-10979D01*
G01X7378600Y3340800D01*
G02X7356700Y3283700I-22600J-24082D01*
G03X7356500Y3281400I27J-1161D01*
G01X7383700D01*
X7436200Y3412200D01*
X7346100D01*
Y3411900D01*
G37*
G36*
G01X7325500Y3444700D02*
X7532300D01*
X7542400Y3469600D01*
X7304900D01*
X7242700Y3313600D01*
X7334100D01*
G03X7341200Y3331200I678J9959D01*
G01X7300400Y3383500D01*
G02X7325500Y3444700I24966J25508D01*
G37*
G36*
G01X8207300Y4124000D02*
G03I-60300J0D01*
G37*
G54D10*
G01X3757000Y3095700D02*
X3807200D01*
X3817700Y3099000D01*
X3824700Y3105700D01*
X3827000Y3114000D01*
X3824700Y3122300D01*
X3817700Y3129000D01*
X3807200Y3132300D01*
X3757000D01*
G01X3816500Y3149700D02*
X3822300Y3154700D01*
X3825800Y3160500D01*
X3827000Y3168000D01*
X3824700Y3175500D01*
X3820000Y3181300D01*
X3811800Y3185500D01*
X3802500Y3186300D01*
X3793200Y3184700D01*
X3787300Y3180500D01*
X3782700Y3174700D01*
X3781500Y3168800D01*
X3782700Y3163000D01*
X3787300Y3155500D01*
X3757000Y3158000D01*
Y3180500D01*
G01X3870000Y4592700D02*
X3863000Y4588500D01*
X3858300Y4583500D01*
X3856000Y4577700D01*
X3858300Y4571000D01*
X3863000Y4566000D01*
X3870000Y4561000D01*
X3879300Y4559300D01*
X3926000D01*
G01X3856000Y4522000D02*
X3926000D01*
X3912000Y4532000D01*
G01X3856000D02*
Y4512000D01*
G01X3688300Y4930000D02*
X3692500Y4923000D01*
X3697500Y4918300D01*
X3703300Y4916000D01*
X3710000Y4918300D01*
X3715000Y4923000D01*
X3720000Y4930000D01*
X3721700Y4939300D01*
Y4986000D01*
G01X3743200Y4974300D02*
X3748200Y4981300D01*
X3754000Y4984800D01*
X3760700Y4986000D01*
X3769000Y4983700D01*
X3774800Y4977800D01*
X3776500Y4970800D01*
X3775700Y4963800D01*
X3772300Y4958000D01*
X3755700Y4946300D01*
X3748200Y4938200D01*
X3743200Y4926500D01*
X3741500Y4916000D01*
X3776500D01*
G01X4160300Y2962200D02*
X4155300Y2965700D01*
X4149500Y2968000D01*
X4142800D01*
X4135300Y2964500D01*
X4129500Y2958700D01*
X4125300Y2951700D01*
X4122000Y2940000D01*
X4121200Y2929500D01*
X4122800Y2919000D01*
X4125300Y2912000D01*
X4130300Y2905000D01*
X4136200Y2900300D01*
X4142000Y2898000D01*
X4147800D01*
X4153700Y2900300D01*
X4158700Y2903800D01*
X4162800Y2908500D01*
G01X4177700Y2912000D02*
X4182700Y2903800D01*
X4189300Y2899200D01*
X4196800Y2898000D01*
X4203500Y2899200D01*
X4210200Y2905000D01*
X4214300Y2912000D01*
X4215200Y2919000D01*
X4213500Y2927200D01*
X4207700Y2933000D01*
X4201800Y2935300D01*
X4194300D01*
G01X4201800D02*
X4206800Y2938800D01*
X4211000Y2944700D01*
X4212700Y2951700D01*
X4211000Y2958700D01*
X4206800Y2964500D01*
X4199300Y2968000D01*
X4191800Y2966800D01*
X4184300Y2962200D01*
G01X4231700Y2912000D02*
X4236700Y2903800D01*
X4243300Y2899200D01*
X4250800Y2898000D01*
X4257500Y2899200D01*
X4264200Y2905000D01*
X4268300Y2912000D01*
X4269200Y2919000D01*
X4267500Y2927200D01*
X4261700Y2933000D01*
X4255800Y2935300D01*
X4248300D01*
G01X4255800D02*
X4260800Y2938800D01*
X4265000Y2944700D01*
X4266700Y2951700D01*
X4265000Y2958700D01*
X4260800Y2964500D01*
X4253300Y2968000D01*
X4245800Y2966800D01*
X4238300Y2962200D01*
G01X4053000Y3424700D02*
X4103200D01*
X4113700Y3428000D01*
X4120700Y3434700D01*
X4123000Y3443000D01*
X4120700Y3451300D01*
X4113700Y3458000D01*
X4103200Y3461300D01*
X4053000D01*
G01X4123000Y3507000D02*
X4053000D01*
X4103200Y3476200D01*
Y3517800D01*
G01X3926000Y3428700D02*
X3856000D01*
G01Y3460300D02*
X3899200Y3428700D01*
G01X3926000Y3465300D02*
X3879300Y3442800D01*
G01X4075300Y3656200D02*
X4070300Y3659700D01*
X4064500Y3662000D01*
X4057800D01*
X4050300Y3658500D01*
X4044500Y3652700D01*
X4040300Y3645700D01*
X4037000Y3634000D01*
X4036200Y3623500D01*
X4037800Y3613000D01*
X4040300Y3606000D01*
X4045300Y3599000D01*
X4051200Y3594300D01*
X4057000Y3592000D01*
X4062800D01*
X4068700Y3594300D01*
X4073700Y3597800D01*
X4077800Y3602500D01*
G01X4092700Y3606000D02*
X4097700Y3597800D01*
X4104300Y3593200D01*
X4111800Y3592000D01*
X4118500Y3593200D01*
X4125200Y3599000D01*
X4129300Y3606000D01*
X4130200Y3613000D01*
X4128500Y3621200D01*
X4122700Y3627000D01*
X4116800Y3629300D01*
X4109300D01*
G01X4116800D02*
X4121800Y3632800D01*
X4126000Y3638700D01*
X4127700Y3645700D01*
X4126000Y3652700D01*
X4121800Y3658500D01*
X4114300Y3662000D01*
X4106800Y3660800D01*
X4099300Y3656200D01*
G01X4163300Y3592000D02*
X4165000Y3607200D01*
X4167500Y3620000D01*
X4170800Y3631700D01*
X4175000Y3644500D01*
X4181700Y3662000D01*
X4148300D01*
G01X4238300Y3976200D02*
X4233300Y3979700D01*
X4227500Y3982000D01*
X4220800D01*
X4213300Y3978500D01*
X4207500Y3972700D01*
X4203300Y3965700D01*
X4200000Y3954000D01*
X4199200Y3943500D01*
X4200800Y3933000D01*
X4203300Y3926000D01*
X4208300Y3919000D01*
X4214200Y3914300D01*
X4220000Y3912000D01*
X4225800D01*
X4231700Y3914300D01*
X4236700Y3917800D01*
X4240800Y3922500D01*
G01X4255700Y3926000D02*
X4260700Y3917800D01*
X4267300Y3913200D01*
X4274800Y3912000D01*
X4281500Y3913200D01*
X4288200Y3919000D01*
X4292300Y3926000D01*
X4293200Y3933000D01*
X4291500Y3941200D01*
X4285700Y3947000D01*
X4279800Y3949300D01*
X4272300D01*
G01X4279800D02*
X4284800Y3952800D01*
X4289000Y3958700D01*
X4290700Y3965700D01*
X4289000Y3972700D01*
X4284800Y3978500D01*
X4277300Y3982000D01*
X4269800Y3980800D01*
X4262300Y3976200D01*
G01X4312200Y3970300D02*
X4317200Y3977300D01*
X4323000Y3980800D01*
X4329700Y3982000D01*
X4338000Y3979700D01*
X4343800Y3973800D01*
X4345500Y3966800D01*
X4344700Y3959800D01*
X4341300Y3954000D01*
X4324700Y3942300D01*
X4317200Y3934200D01*
X4312200Y3922500D01*
X4310500Y3912000D01*
X4345500D01*
G01X4294200Y4476700D02*
X4297700Y4481700D01*
X4300000Y4487500D01*
Y4494200D01*
X4296500Y4501700D01*
X4290700Y4507500D01*
X4283700Y4511700D01*
X4272000Y4515000D01*
X4261500Y4515800D01*
X4251000Y4514200D01*
X4244000Y4511700D01*
X4237000Y4506700D01*
X4232300Y4500800D01*
X4230000Y4495000D01*
Y4489200D01*
X4232300Y4483300D01*
X4235800Y4478300D01*
X4240500Y4474200D01*
G01X4230000Y4441000D02*
X4300000D01*
X4286000Y4451000D01*
G01X4230000D02*
Y4431000D01*
G01Y4388700D02*
X4245200Y4387000D01*
X4258000Y4384500D01*
X4269700Y4381200D01*
X4282500Y4377000D01*
X4300000Y4370300D01*
Y4403700D01*
G01X4124000Y4502700D02*
X4194000D01*
Y4481800D01*
X4190500Y4475200D01*
X4185800Y4471000D01*
X4176500Y4469300D01*
X4167200Y4471000D01*
X4161300Y4476000D01*
X4157800Y4481800D01*
Y4502700D01*
G01Y4481800D02*
X4124000Y4469300D01*
G01Y4432000D02*
X4194000D01*
X4180000Y4442000D01*
G01X4124000D02*
Y4422000D01*
G01X4435300Y3026200D02*
X4430300Y3029700D01*
X4424500Y3032000D01*
X4417800D01*
X4410300Y3028500D01*
X4404500Y3022700D01*
X4400300Y3015700D01*
X4397000Y3004000D01*
X4396200Y2993500D01*
X4397800Y2983000D01*
X4400300Y2976000D01*
X4405300Y2969000D01*
X4411200Y2964300D01*
X4417000Y2962000D01*
X4422800D01*
X4428700Y2964300D01*
X4433700Y2967800D01*
X4437800Y2972500D01*
G01X4452700Y2976000D02*
X4457700Y2967800D01*
X4464300Y2963200D01*
X4471800Y2962000D01*
X4478500Y2963200D01*
X4485200Y2969000D01*
X4489300Y2976000D01*
X4490200Y2983000D01*
X4488500Y2991200D01*
X4482700Y2997000D01*
X4476800Y2999300D01*
X4469300D01*
G01X4476800D02*
X4481800Y3002800D01*
X4486000Y3008700D01*
X4487700Y3015700D01*
X4486000Y3022700D01*
X4481800Y3028500D01*
X4474300Y3032000D01*
X4466800Y3030800D01*
X4459300Y3026200D01*
G01X4535000Y2962000D02*
Y3032000D01*
X4504200Y2981800D01*
X4545800D01*
G01X4431300Y2881000D02*
Y2951000D01*
X4452200D01*
X4458800Y2947500D01*
X4463000Y2942800D01*
X4464700Y2933500D01*
X4463000Y2924200D01*
X4458000Y2918300D01*
X4452200Y2914800D01*
X4431300D01*
G01X4452200D02*
X4464700Y2881000D01*
G01X4502000D02*
X4507800Y2882200D01*
X4514500Y2885700D01*
X4518700Y2891500D01*
X4520300Y2899700D01*
X4518700Y2907800D01*
X4513700Y2914800D01*
X4506200Y2918300D01*
X4497800D01*
X4492800Y2920700D01*
X4488700Y2926500D01*
X4487000Y2934700D01*
X4489500Y2942800D01*
X4495300Y2948700D01*
X4502000Y2951000D01*
X4508700Y2948700D01*
X4514500Y2942800D01*
X4517000Y2934700D01*
X4515300Y2926500D01*
X4511200Y2920700D01*
X4506200Y2918300D01*
X4497800D01*
X4490300Y2914800D01*
X4485300Y2907800D01*
X4483700Y2899700D01*
X4485300Y2891500D01*
X4489500Y2885700D01*
X4496200Y2882200D01*
X4502000Y2881000D01*
G01X4394000Y3127300D02*
X4464000D01*
Y3110700D01*
X4460500Y3104000D01*
X4455800Y3099000D01*
X4448800Y3094800D01*
X4440700Y3091500D01*
X4429000Y3090700D01*
X4417300Y3091500D01*
X4409200Y3094800D01*
X4402200Y3099000D01*
X4397500Y3104000D01*
X4394000Y3110700D01*
Y3127300D01*
G01Y3055000D02*
X4464000D01*
X4450000Y3065000D01*
G01X4394000D02*
Y3045000D01*
G01X4473300Y3305800D02*
Y3235800D01*
X4506700D01*
G01X4544000D02*
X4549800Y3237000D01*
X4556500Y3240500D01*
X4560700Y3246300D01*
X4562300Y3254500D01*
X4560700Y3262600D01*
X4555700Y3269600D01*
X4548200Y3273100D01*
X4539800D01*
X4534800Y3275500D01*
X4530700Y3281300D01*
X4529000Y3289500D01*
X4531500Y3297600D01*
X4537300Y3303500D01*
X4544000Y3305800D01*
X4550700Y3303500D01*
X4556500Y3297600D01*
X4559000Y3289500D01*
X4557300Y3281300D01*
X4553200Y3275500D01*
X4548200Y3273100D01*
X4539800D01*
X4532300Y3269600D01*
X4527300Y3262600D01*
X4525700Y3254500D01*
X4527300Y3246300D01*
X4531500Y3240500D01*
X4538200Y3237000D01*
X4544000Y3235800D01*
G01X4480300Y3557000D02*
Y3487000D01*
X4513700D01*
G01X4549300D02*
X4551000Y3502200D01*
X4553500Y3515000D01*
X4556800Y3526700D01*
X4561000Y3539500D01*
X4567700Y3557000D01*
X4534300D01*
G01X4478300Y3444000D02*
Y3374000D01*
X4511700D01*
G01X4533200Y3403200D02*
X4539000Y3411300D01*
X4544000Y3416000D01*
X4550700Y3418300D01*
X4556500Y3416000D01*
X4560700Y3411300D01*
X4564000Y3404300D01*
X4564800Y3396200D01*
X4564000Y3389200D01*
X4560700Y3382200D01*
X4555700Y3376300D01*
X4549800Y3374000D01*
X4543200Y3376300D01*
X4537300Y3383300D01*
X4534000Y3393800D01*
X4533200Y3405500D01*
X4534800Y3420700D01*
X4537300Y3428800D01*
X4541500Y3437000D01*
X4547300Y3442800D01*
X4553200Y3444000D01*
X4559000Y3441700D01*
X4563200Y3435800D01*
G01X4545000Y3156700D02*
X4475000D01*
G01Y3188300D02*
X4518200Y3156700D01*
G01X4545000Y3193300D02*
X4498300Y3170800D01*
G01X4574300Y3680200D02*
X4569300Y3683700D01*
X4563500Y3686000D01*
X4556800D01*
X4549300Y3682500D01*
X4543500Y3676700D01*
X4539300Y3669700D01*
X4536000Y3658000D01*
X4535200Y3647500D01*
X4536800Y3637000D01*
X4539300Y3630000D01*
X4544300Y3623000D01*
X4550200Y3618300D01*
X4556000Y3616000D01*
X4561800D01*
X4567700Y3618300D01*
X4572700Y3621800D01*
X4576800Y3626500D01*
G01X4594200Y3674300D02*
X4599200Y3681300D01*
X4605000Y3684800D01*
X4611700Y3686000D01*
X4620000Y3683700D01*
X4625800Y3677800D01*
X4627500Y3670800D01*
X4626700Y3663800D01*
X4623300Y3658000D01*
X4606700Y3646300D01*
X4599200Y3638200D01*
X4594200Y3626500D01*
X4592500Y3616000D01*
X4627500D01*
G01X4674000D02*
Y3686000D01*
X4643200Y3635800D01*
X4684800D01*
G01X4382200Y3813700D02*
X4385700Y3818700D01*
X4388000Y3824500D01*
Y3831200D01*
X4384500Y3838700D01*
X4378700Y3844500D01*
X4371700Y3848700D01*
X4360000Y3852000D01*
X4349500Y3852800D01*
X4339000Y3851200D01*
X4332000Y3848700D01*
X4325000Y3843700D01*
X4320300Y3837800D01*
X4318000Y3832000D01*
Y3826200D01*
X4320300Y3820300D01*
X4323800Y3815300D01*
X4328500Y3811200D01*
G01X4376300Y3793800D02*
X4383300Y3788800D01*
X4386800Y3783000D01*
X4388000Y3776300D01*
X4385700Y3768000D01*
X4379800Y3762200D01*
X4372800Y3760500D01*
X4365800Y3761300D01*
X4360000Y3764700D01*
X4348300Y3781300D01*
X4340200Y3788800D01*
X4328500Y3793800D01*
X4318000Y3795500D01*
Y3760500D01*
G01X4328500Y3742300D02*
X4322700Y3737300D01*
X4319200Y3731500D01*
X4318000Y3724000D01*
X4320300Y3716500D01*
X4325000Y3710700D01*
X4333200Y3706500D01*
X4342500Y3705700D01*
X4351800Y3707300D01*
X4357700Y3711500D01*
X4362300Y3717300D01*
X4363500Y3723200D01*
X4362300Y3729000D01*
X4357700Y3736500D01*
X4388000Y3734000D01*
Y3711500D01*
G01X4269000Y4266000D02*
X4300500D01*
X4339000Y4282700D01*
G01Y4249300D02*
X4300500Y4266000D01*
G01X4283000Y4230300D02*
X4274800Y4225300D01*
X4270200Y4218700D01*
X4269000Y4211200D01*
X4270200Y4204500D01*
X4276000Y4197800D01*
X4283000Y4193700D01*
X4290000Y4192800D01*
X4298200Y4194500D01*
X4304000Y4200300D01*
X4306300Y4206200D01*
Y4213700D01*
G01Y4206200D02*
X4309800Y4201200D01*
X4315700Y4197000D01*
X4322700Y4195300D01*
X4329700Y4197000D01*
X4335500Y4201200D01*
X4339000Y4208700D01*
X4337800Y4216200D01*
X4333200Y4223700D01*
G01X4320000Y4129300D02*
X4269800D01*
X4259300Y4126000D01*
X4252300Y4119300D01*
X4250000Y4111000D01*
X4252300Y4102700D01*
X4259300Y4096000D01*
X4269800Y4092700D01*
X4320000D01*
G01X4264000Y4075300D02*
X4255800Y4070300D01*
X4251200Y4063700D01*
X4250000Y4056200D01*
X4251200Y4049500D01*
X4257000Y4042800D01*
X4264000Y4038700D01*
X4271000Y4037800D01*
X4279200Y4039500D01*
X4285000Y4045300D01*
X4287300Y4051200D01*
Y4058700D01*
G01Y4051200D02*
X4290800Y4046200D01*
X4296700Y4042000D01*
X4303700Y4040300D01*
X4310700Y4042000D01*
X4316500Y4046200D01*
X4320000Y4053700D01*
X4318800Y4061200D01*
X4314200Y4068700D01*
G01X4302300Y4650200D02*
X4297300Y4653700D01*
X4291500Y4656000D01*
X4284800D01*
X4277300Y4652500D01*
X4271500Y4646700D01*
X4267300Y4639700D01*
X4264000Y4628000D01*
X4263200Y4617500D01*
X4264800Y4607000D01*
X4267300Y4600000D01*
X4272300Y4593000D01*
X4278200Y4588300D01*
X4284000Y4586000D01*
X4289800D01*
X4295700Y4588300D01*
X4300700Y4591800D01*
X4304800Y4596500D01*
G01X4322200Y4644300D02*
X4327200Y4651300D01*
X4333000Y4654800D01*
X4339700Y4656000D01*
X4348000Y4653700D01*
X4353800Y4647800D01*
X4355500Y4640800D01*
X4354700Y4633800D01*
X4351300Y4628000D01*
X4334700Y4616300D01*
X4327200Y4608200D01*
X4322200Y4596500D01*
X4320500Y4586000D01*
X4355500D01*
G01X4392000D02*
Y4656000D01*
X4382000Y4642000D01*
G01Y4586000D02*
X4402000D01*
G01X4419300Y4742000D02*
Y4812000D01*
X4440200D01*
X4446800Y4808500D01*
X4451000Y4803800D01*
X4452700Y4794500D01*
X4451000Y4785200D01*
X4446000Y4779300D01*
X4440200Y4775800D01*
X4419300D01*
G01X4440200D02*
X4452700Y4742000D01*
G01X4490000D02*
Y4812000D01*
X4480000Y4798000D01*
G01Y4742000D02*
X4500000D01*
G01X4544000Y4812000D02*
X4537300Y4809700D01*
X4532300Y4803800D01*
X4529000Y4796800D01*
X4526500Y4787500D01*
X4525700Y4777000D01*
X4526500Y4766500D01*
X4529000Y4757200D01*
X4532300Y4750200D01*
X4537300Y4744300D01*
X4544000Y4742000D01*
X4550700Y4744300D01*
X4555700Y4750200D01*
X4559000Y4757200D01*
X4561500Y4766500D01*
X4562300Y4777000D01*
X4561500Y4787500D01*
X4559000Y4796800D01*
X4555700Y4803800D01*
X4550700Y4809700D01*
X4544000Y4812000D01*
G01X4950700Y3068000D02*
Y3138000D01*
X4967300D01*
X4974000Y3134500D01*
X4979000Y3129800D01*
X4983200Y3122800D01*
X4986500Y3114700D01*
X4987300Y3103000D01*
X4986500Y3091300D01*
X4983200Y3083200D01*
X4979000Y3076200D01*
X4974000Y3071500D01*
X4967300Y3068000D01*
X4950700D01*
G01X5007200Y3126300D02*
X5012200Y3133300D01*
X5018000Y3136800D01*
X5024700Y3138000D01*
X5033000Y3135700D01*
X5038800Y3129800D01*
X5040500Y3122800D01*
X5039700Y3115800D01*
X5036300Y3110000D01*
X5019700Y3098300D01*
X5012200Y3090200D01*
X5007200Y3078500D01*
X5005500Y3068000D01*
X5040500D01*
G01X4841700Y3078000D02*
Y3148000D01*
G01X4873300D02*
X4841700Y3104800D01*
G01X4878300Y3078000D02*
X4855800Y3124700D01*
G01X4632700Y4438000D02*
Y4387800D01*
X4636000Y4377300D01*
X4642700Y4370300D01*
X4651000Y4368000D01*
X4659300Y4370300D01*
X4666000Y4377300D01*
X4669300Y4387800D01*
Y4438000D01*
G01X4705000Y4368000D02*
Y4438000D01*
X4695000Y4424000D01*
G01Y4368000D02*
X4715000D01*
G01X4781300Y4811200D02*
X4776300Y4814700D01*
X4770500Y4817000D01*
X4763800D01*
X4756300Y4813500D01*
X4750500Y4807700D01*
X4746300Y4800700D01*
X4743000Y4789000D01*
X4742200Y4778500D01*
X4743800Y4768000D01*
X4746300Y4761000D01*
X4751300Y4754000D01*
X4757200Y4749300D01*
X4763000Y4747000D01*
X4768800D01*
X4774700Y4749300D01*
X4779700Y4752800D01*
X4783800Y4757500D01*
G01X4801200Y4805300D02*
X4806200Y4812300D01*
X4812000Y4815800D01*
X4818700Y4817000D01*
X4827000Y4814700D01*
X4832800Y4808800D01*
X4834500Y4801800D01*
X4833700Y4794800D01*
X4830300Y4789000D01*
X4813700Y4777300D01*
X4806200Y4769200D01*
X4801200Y4757500D01*
X4799500Y4747000D01*
X4834500D01*
G01X4871000Y4817000D02*
X4864300Y4814700D01*
X4859300Y4808800D01*
X4856000Y4801800D01*
X4853500Y4792500D01*
X4852700Y4782000D01*
X4853500Y4771500D01*
X4856000Y4762200D01*
X4859300Y4755200D01*
X4864300Y4749300D01*
X4871000Y4747000D01*
X4877700Y4749300D01*
X4882700Y4755200D01*
X4886000Y4762200D01*
X4888500Y4771500D01*
X4889300Y4782000D01*
X4888500Y4792500D01*
X4886000Y4801800D01*
X4882700Y4808800D01*
X4877700Y4814700D01*
X4871000Y4817000D01*
G01X5164000Y3178700D02*
X5167500Y3183700D01*
X5169800Y3189500D01*
Y3196200D01*
X5166300Y3203700D01*
X5160500Y3209500D01*
X5153500Y3213700D01*
X5141800Y3217000D01*
X5131300Y3217800D01*
X5120800Y3216200D01*
X5113800Y3213700D01*
X5106800Y3208700D01*
X5102100Y3202800D01*
X5099800Y3197000D01*
Y3191200D01*
X5102100Y3185300D01*
X5105600Y3180300D01*
X5110300Y3176200D01*
G01X5099800Y3133000D02*
X5169800D01*
X5119600Y3163800D01*
Y3122200D01*
G01X5099800Y3089000D02*
X5169800D01*
X5155800Y3099000D01*
G01X5099800D02*
Y3079000D01*
G01X5166200Y3380700D02*
X5169700Y3385700D01*
X5172000Y3391500D01*
Y3398200D01*
X5168500Y3405700D01*
X5162700Y3411500D01*
X5155700Y3415700D01*
X5144000Y3419000D01*
X5133500Y3419800D01*
X5123000Y3418200D01*
X5116000Y3415700D01*
X5109000Y3410700D01*
X5104300Y3404800D01*
X5102000Y3399000D01*
Y3393200D01*
X5104300Y3387300D01*
X5107800Y3382300D01*
X5112500Y3378200D01*
G01X5102000Y3335000D02*
X5172000D01*
X5121800Y3365800D01*
Y3324200D01*
G01X5172000Y3291000D02*
X5169700Y3297700D01*
X5163800Y3302700D01*
X5156800Y3306000D01*
X5147500Y3308500D01*
X5137000Y3309300D01*
X5126500Y3308500D01*
X5117200Y3306000D01*
X5110200Y3302700D01*
X5104300Y3297700D01*
X5102000Y3291000D01*
X5104300Y3284300D01*
X5110200Y3279300D01*
X5117200Y3276000D01*
X5126500Y3273500D01*
X5137000Y3272700D01*
X5147500Y3273500D01*
X5156800Y3276000D01*
X5163800Y3279300D01*
X5169700Y3284300D01*
X5172000Y3291000D01*
G01X5162200Y3584700D02*
X5165700Y3589700D01*
X5168000Y3595500D01*
Y3602200D01*
X5164500Y3609700D01*
X5158700Y3615500D01*
X5151700Y3619700D01*
X5140000Y3623000D01*
X5129500Y3623800D01*
X5119000Y3622200D01*
X5112000Y3619700D01*
X5105000Y3614700D01*
X5100300Y3608800D01*
X5098000Y3603000D01*
Y3597200D01*
X5100300Y3591300D01*
X5103800Y3586300D01*
X5108500Y3582200D01*
G01X5112000Y3567300D02*
X5103800Y3562300D01*
X5099200Y3555700D01*
X5098000Y3548200D01*
X5099200Y3541500D01*
X5105000Y3534800D01*
X5112000Y3530700D01*
X5119000Y3529800D01*
X5127200Y3531500D01*
X5133000Y3537300D01*
X5135300Y3543200D01*
Y3550700D01*
G01Y3543200D02*
X5138800Y3538200D01*
X5144700Y3534000D01*
X5151700Y3532300D01*
X5158700Y3534000D01*
X5164500Y3538200D01*
X5168000Y3545700D01*
X5166800Y3553200D01*
X5162200Y3560700D01*
G01X5106200Y3509200D02*
X5100300Y3503300D01*
X5098000Y3496700D01*
X5100300Y3490000D01*
X5107300Y3484200D01*
X5117800Y3480000D01*
X5128300Y3478300D01*
X5141200D01*
X5151700Y3480000D01*
X5161000Y3484200D01*
X5165700Y3489200D01*
X5168000Y3495000D01*
X5165700Y3501700D01*
X5161000Y3506700D01*
X5154000Y3510000D01*
X5144700Y3511700D01*
X5136500Y3510000D01*
X5128300Y3505800D01*
X5123700Y3500800D01*
X5122500Y3495000D01*
X5124800Y3488300D01*
X5130700Y3483300D01*
X5141200Y3478300D01*
G01X5270300Y4627000D02*
Y4697000D01*
X5291200D01*
X5297800Y4693500D01*
X5302000Y4688800D01*
X5303700Y4679500D01*
X5302000Y4670200D01*
X5297000Y4664300D01*
X5291200Y4660800D01*
X5270300D01*
G01X5291200D02*
X5303700Y4627000D01*
G01X5341000D02*
Y4697000D01*
X5331000Y4683000D01*
G01Y4627000D02*
X5351000D01*
G01X5395000D02*
Y4697000D01*
X5385000Y4683000D01*
G01Y4627000D02*
X5405000D01*
G01X5262300Y4746000D02*
Y4816000D01*
X5283200D01*
X5289800Y4812500D01*
X5294000Y4807800D01*
X5295700Y4798500D01*
X5294000Y4789200D01*
X5289000Y4783300D01*
X5283200Y4779800D01*
X5262300D01*
G01X5283200D02*
X5295700Y4746000D01*
G01X5343000D02*
Y4816000D01*
X5312200Y4765800D01*
X5353800D01*
G01X5064300Y4750000D02*
Y4820000D01*
X5085200D01*
X5091800Y4816500D01*
X5096000Y4811800D01*
X5097700Y4802500D01*
X5096000Y4793200D01*
X5091000Y4787300D01*
X5085200Y4783800D01*
X5064300D01*
G01X5085200D02*
X5097700Y4750000D01*
G01X5116700Y4760500D02*
X5121700Y4754700D01*
X5127500Y4751200D01*
X5135000Y4750000D01*
X5142500Y4752300D01*
X5148300Y4757000D01*
X5152500Y4765200D01*
X5153300Y4774500D01*
X5151700Y4783800D01*
X5147500Y4789700D01*
X5141700Y4794300D01*
X5135800Y4795500D01*
X5130000Y4794300D01*
X5122500Y4789700D01*
X5125000Y4820000D01*
X5147500D01*
G01X5518300Y3103000D02*
Y3173000D01*
X5539200D01*
X5545800Y3169500D01*
X5550000Y3164800D01*
X5551700Y3155500D01*
X5550000Y3146200D01*
X5545000Y3140300D01*
X5539200Y3136800D01*
X5518300D01*
G01X5539200D02*
X5551700Y3103000D01*
G01X5570700Y3117000D02*
X5575700Y3108800D01*
X5582300Y3104200D01*
X5589800Y3103000D01*
X5596500Y3104200D01*
X5603200Y3110000D01*
X5607300Y3117000D01*
X5608200Y3124000D01*
X5606500Y3132200D01*
X5600700Y3138000D01*
X5594800Y3140300D01*
X5587300D01*
G01X5594800D02*
X5599800Y3143800D01*
X5604000Y3149700D01*
X5605700Y3156700D01*
X5604000Y3163700D01*
X5599800Y3169500D01*
X5592300Y3173000D01*
X5584800Y3171800D01*
X5577300Y3167200D01*
G01X5517300Y3005000D02*
Y3075000D01*
X5538200D01*
X5544800Y3071500D01*
X5549000Y3066800D01*
X5550700Y3057500D01*
X5549000Y3048200D01*
X5544000Y3042300D01*
X5538200Y3038800D01*
X5517300D01*
G01X5538200D02*
X5550700Y3005000D01*
G01X5573800Y3013200D02*
X5579700Y3007300D01*
X5586300Y3005000D01*
X5593000Y3007300D01*
X5598800Y3014300D01*
X5603000Y3024800D01*
X5604700Y3035300D01*
Y3048200D01*
X5603000Y3058700D01*
X5598800Y3068000D01*
X5593800Y3072700D01*
X5588000Y3075000D01*
X5581300Y3072700D01*
X5576300Y3068000D01*
X5573000Y3061000D01*
X5571300Y3051700D01*
X5573000Y3043500D01*
X5577200Y3035300D01*
X5582200Y3030700D01*
X5588000Y3029500D01*
X5594700Y3031800D01*
X5599700Y3037700D01*
X5604700Y3048200D01*
G01X5438700Y2897000D02*
Y2967000D01*
X5455300D01*
X5462000Y2963500D01*
X5467000Y2958800D01*
X5471200Y2951800D01*
X5474500Y2943700D01*
X5475300Y2932000D01*
X5474500Y2920300D01*
X5471200Y2912200D01*
X5467000Y2905200D01*
X5462000Y2900500D01*
X5455300Y2897000D01*
X5438700D01*
G01X5492700Y2911000D02*
X5497700Y2902800D01*
X5504300Y2898200D01*
X5511800Y2897000D01*
X5518500Y2898200D01*
X5525200Y2904000D01*
X5529300Y2911000D01*
X5530200Y2918000D01*
X5528500Y2926200D01*
X5522700Y2932000D01*
X5516800Y2934300D01*
X5509300D01*
G01X5516800D02*
X5521800Y2937800D01*
X5526000Y2943700D01*
X5527700Y2950700D01*
X5526000Y2957700D01*
X5521800Y2963500D01*
X5514300Y2967000D01*
X5506800Y2965800D01*
X5499300Y2961200D01*
G01X5439700Y2980000D02*
Y3050000D01*
G01X5471300D02*
X5439700Y3006800D01*
G01X5476300Y2980000D02*
X5453800Y3026700D01*
G01X5500300Y3382200D02*
X5495300Y3385700D01*
X5489500Y3388000D01*
X5482800D01*
X5475300Y3384500D01*
X5469500Y3378700D01*
X5465300Y3371700D01*
X5462000Y3360000D01*
X5461200Y3349500D01*
X5462800Y3339000D01*
X5465300Y3332000D01*
X5470300Y3325000D01*
X5476200Y3320300D01*
X5482000Y3318000D01*
X5487800D01*
X5493700Y3320300D01*
X5498700Y3323800D01*
X5502800Y3328500D01*
G01X5536000Y3318000D02*
Y3388000D01*
X5526000Y3374000D01*
G01Y3318000D02*
X5546000D01*
G01X5590000D02*
X5595800Y3319200D01*
X5602500Y3322700D01*
X5606700Y3328500D01*
X5608300Y3336700D01*
X5606700Y3344800D01*
X5601700Y3351800D01*
X5594200Y3355300D01*
X5585800D01*
X5580800Y3357700D01*
X5576700Y3363500D01*
X5575000Y3371700D01*
X5577500Y3379800D01*
X5583300Y3385700D01*
X5590000Y3388000D01*
X5596700Y3385700D01*
X5602500Y3379800D01*
X5605000Y3371700D01*
X5603300Y3363500D01*
X5599200Y3357700D01*
X5594200Y3355300D01*
X5585800D01*
X5578300Y3351800D01*
X5573300Y3344800D01*
X5571700Y3336700D01*
X5573300Y3328500D01*
X5577500Y3322700D01*
X5584200Y3319200D01*
X5590000Y3318000D01*
G01X5495300Y3267200D02*
X5490300Y3270700D01*
X5484500Y3273000D01*
X5477800D01*
X5470300Y3269500D01*
X5464500Y3263700D01*
X5460300Y3256700D01*
X5457000Y3245000D01*
X5456200Y3234500D01*
X5457800Y3224000D01*
X5460300Y3217000D01*
X5465300Y3210000D01*
X5471200Y3205300D01*
X5477000Y3203000D01*
X5482800D01*
X5488700Y3205300D01*
X5493700Y3208800D01*
X5497800Y3213500D01*
G01X5512700Y3217000D02*
X5517700Y3208800D01*
X5524300Y3204200D01*
X5531800Y3203000D01*
X5538500Y3204200D01*
X5545200Y3210000D01*
X5549300Y3217000D01*
X5550200Y3224000D01*
X5548500Y3232200D01*
X5542700Y3238000D01*
X5536800Y3240300D01*
X5529300D01*
G01X5536800D02*
X5541800Y3243800D01*
X5546000Y3249700D01*
X5547700Y3256700D01*
X5546000Y3263700D01*
X5541800Y3269500D01*
X5534300Y3273000D01*
X5526800Y3271800D01*
X5519300Y3267200D01*
G01X5569200Y3232200D02*
X5575000Y3240300D01*
X5580000Y3245000D01*
X5586700Y3247300D01*
X5592500Y3245000D01*
X5596700Y3240300D01*
X5600000Y3233300D01*
X5600800Y3225200D01*
X5600000Y3218200D01*
X5596700Y3211200D01*
X5591700Y3205300D01*
X5585800Y3203000D01*
X5579200Y3205300D01*
X5573300Y3212300D01*
X5570000Y3222800D01*
X5569200Y3234500D01*
X5570800Y3249700D01*
X5573300Y3257800D01*
X5577500Y3266000D01*
X5583300Y3271800D01*
X5589200Y3273000D01*
X5595000Y3270700D01*
X5599200Y3264800D01*
G01X5687200Y3957700D02*
X5690700Y3962700D01*
X5693000Y3968500D01*
Y3975200D01*
X5689500Y3982700D01*
X5683700Y3988500D01*
X5676700Y3992700D01*
X5665000Y3996000D01*
X5654500Y3996800D01*
X5644000Y3995200D01*
X5637000Y3992700D01*
X5630000Y3987700D01*
X5625300Y3981800D01*
X5623000Y3976000D01*
Y3970200D01*
X5625300Y3964300D01*
X5628800Y3959300D01*
X5633500Y3955200D01*
G01X5637000Y3940300D02*
X5628800Y3935300D01*
X5624200Y3928700D01*
X5623000Y3921200D01*
X5624200Y3914500D01*
X5630000Y3907800D01*
X5637000Y3903700D01*
X5644000Y3902800D01*
X5652200Y3904500D01*
X5658000Y3910300D01*
X5660300Y3916200D01*
Y3923700D01*
G01Y3916200D02*
X5663800Y3911200D01*
X5669700Y3907000D01*
X5676700Y3905300D01*
X5683700Y3907000D01*
X5689500Y3911200D01*
X5693000Y3918700D01*
X5691800Y3926200D01*
X5687200Y3933700D01*
G01X5693000Y3868000D02*
X5690700Y3874700D01*
X5684800Y3879700D01*
X5677800Y3883000D01*
X5668500Y3885500D01*
X5658000Y3886300D01*
X5647500Y3885500D01*
X5638200Y3883000D01*
X5631200Y3879700D01*
X5625300Y3874700D01*
X5623000Y3868000D01*
X5625300Y3861300D01*
X5631200Y3856300D01*
X5638200Y3853000D01*
X5647500Y3850500D01*
X5658000Y3849700D01*
X5668500Y3850500D01*
X5677800Y3853000D01*
X5684800Y3856300D01*
X5690700Y3861300D01*
X5693000Y3868000D01*
G01X5589200Y3849700D02*
X5592700Y3854700D01*
X5595000Y3860500D01*
Y3867200D01*
X5591500Y3874700D01*
X5585700Y3880500D01*
X5578700Y3884700D01*
X5567000Y3888000D01*
X5556500Y3888800D01*
X5546000Y3887200D01*
X5539000Y3884700D01*
X5532000Y3879700D01*
X5527300Y3873800D01*
X5525000Y3868000D01*
Y3862200D01*
X5527300Y3856300D01*
X5530800Y3851300D01*
X5535500Y3847200D01*
G01X5539000Y3832300D02*
X5530800Y3827300D01*
X5526200Y3820700D01*
X5525000Y3813200D01*
X5526200Y3806500D01*
X5532000Y3799800D01*
X5539000Y3795700D01*
X5546000Y3794800D01*
X5554200Y3796500D01*
X5560000Y3802300D01*
X5562300Y3808200D01*
Y3815700D01*
G01Y3808200D02*
X5565800Y3803200D01*
X5571700Y3799000D01*
X5578700Y3797300D01*
X5585700Y3799000D01*
X5591500Y3803200D01*
X5595000Y3810700D01*
X5593800Y3818200D01*
X5589200Y3825700D01*
G01X5525000Y3760000D02*
X5526200Y3754200D01*
X5529700Y3747500D01*
X5535500Y3743300D01*
X5543700Y3741700D01*
X5551800Y3743300D01*
X5558800Y3748300D01*
X5562300Y3755800D01*
Y3764200D01*
X5564700Y3769200D01*
X5570500Y3773300D01*
X5578700Y3775000D01*
X5586800Y3772500D01*
X5592700Y3766700D01*
X5595000Y3760000D01*
X5592700Y3753300D01*
X5586800Y3747500D01*
X5578700Y3745000D01*
X5570500Y3746700D01*
X5564700Y3750800D01*
X5562300Y3755800D01*
Y3764200D01*
X5558800Y3771700D01*
X5551800Y3776700D01*
X5543700Y3778300D01*
X5535500Y3776700D01*
X5529700Y3772500D01*
X5526200Y3765800D01*
X5525000Y3760000D01*
G01X5915300Y3247000D02*
Y3317000D01*
X5936200D01*
X5942800Y3313500D01*
X5947000Y3308800D01*
X5948700Y3299500D01*
X5947000Y3290200D01*
X5942000Y3284300D01*
X5936200Y3280800D01*
X5915300D01*
G01X5936200D02*
X5948700Y3247000D01*
G01X5984300D02*
X5986000Y3262200D01*
X5988500Y3275000D01*
X5991800Y3286700D01*
X5996000Y3299500D01*
X6002700Y3317000D01*
X5969300D01*
G01X5900000Y3445700D02*
X5950200D01*
X5960700Y3449000D01*
X5967700Y3455700D01*
X5970000Y3464000D01*
X5967700Y3472300D01*
X5960700Y3479000D01*
X5950200Y3482300D01*
X5900000D01*
G01X5940800Y3502200D02*
X5932700Y3508000D01*
X5928000Y3513000D01*
X5925700Y3519700D01*
X5928000Y3525500D01*
X5932700Y3529700D01*
X5939700Y3533000D01*
X5947800Y3533800D01*
X5954800Y3533000D01*
X5961800Y3529700D01*
X5967700Y3524700D01*
X5970000Y3518800D01*
X5967700Y3512200D01*
X5960700Y3506300D01*
X5950200Y3503000D01*
X5938500Y3502200D01*
X5923300Y3503800D01*
X5915200Y3506300D01*
X5907000Y3510500D01*
X5901200Y3516300D01*
X5900000Y3522200D01*
X5902300Y3528000D01*
X5908200Y3532200D01*
G01X5982200Y4126700D02*
X5985700Y4131700D01*
X5988000Y4137500D01*
Y4144200D01*
X5984500Y4151700D01*
X5978700Y4157500D01*
X5971700Y4161700D01*
X5960000Y4165000D01*
X5949500Y4165800D01*
X5939000Y4164200D01*
X5932000Y4161700D01*
X5925000Y4156700D01*
X5920300Y4150800D01*
X5918000Y4145000D01*
Y4139200D01*
X5920300Y4133300D01*
X5923800Y4128300D01*
X5928500Y4124200D01*
G01X5932000Y4109300D02*
X5923800Y4104300D01*
X5919200Y4097700D01*
X5918000Y4090200D01*
X5919200Y4083500D01*
X5925000Y4076800D01*
X5932000Y4072700D01*
X5939000Y4071800D01*
X5947200Y4073500D01*
X5953000Y4079300D01*
X5955300Y4085200D01*
Y4092700D01*
G01Y4085200D02*
X5958800Y4080200D01*
X5964700Y4076000D01*
X5971700Y4074300D01*
X5978700Y4076000D01*
X5984500Y4080200D01*
X5988000Y4087700D01*
X5986800Y4095200D01*
X5982200Y4102700D01*
G01X5918000Y4037000D02*
X5988000D01*
X5974000Y4047000D01*
G01X5918000D02*
Y4027000D01*
G01X5829200Y4310700D02*
X5832700Y4315700D01*
X5835000Y4321500D01*
Y4328200D01*
X5831500Y4335700D01*
X5825700Y4341500D01*
X5818700Y4345700D01*
X5807000Y4349000D01*
X5796500Y4349800D01*
X5786000Y4348200D01*
X5779000Y4345700D01*
X5772000Y4340700D01*
X5767300Y4334800D01*
X5765000Y4329000D01*
Y4323200D01*
X5767300Y4317300D01*
X5770800Y4312300D01*
X5775500Y4308200D01*
G01X5765000Y4275000D02*
X5835000D01*
X5821000Y4285000D01*
G01X5765000D02*
Y4265000D01*
G01X5773200Y4235200D02*
X5767300Y4229300D01*
X5765000Y4222700D01*
X5767300Y4216000D01*
X5774300Y4210200D01*
X5784800Y4206000D01*
X5795300Y4204300D01*
X5808200D01*
X5818700Y4206000D01*
X5828000Y4210200D01*
X5832700Y4215200D01*
X5835000Y4221000D01*
X5832700Y4227700D01*
X5828000Y4232700D01*
X5821000Y4236000D01*
X5811700Y4237700D01*
X5803500Y4236000D01*
X5795300Y4231800D01*
X5790700Y4226800D01*
X5789500Y4221000D01*
X5791800Y4214300D01*
X5797700Y4209300D01*
X5808200Y4204300D01*
G01X5853000Y4347700D02*
X5923000D01*
Y4326800D01*
X5919500Y4320200D01*
X5914800Y4316000D01*
X5905500Y4314300D01*
X5896200Y4316000D01*
X5890300Y4321000D01*
X5886800Y4326800D01*
Y4347700D01*
G01Y4326800D02*
X5853000Y4314300D01*
G01X5882200Y4292800D02*
X5890300Y4287000D01*
X5895000Y4282000D01*
X5897300Y4275300D01*
X5895000Y4269500D01*
X5890300Y4265300D01*
X5883300Y4262000D01*
X5875200Y4261200D01*
X5868200Y4262000D01*
X5861200Y4265300D01*
X5855300Y4270300D01*
X5853000Y4276200D01*
X5855300Y4282800D01*
X5862300Y4288700D01*
X5872800Y4292000D01*
X5884500Y4292800D01*
X5899700Y4291200D01*
X5907800Y4288700D01*
X5916000Y4284500D01*
X5921800Y4278700D01*
X5923000Y4272800D01*
X5920700Y4267000D01*
X5914800Y4262800D01*
G01X5821300Y4436200D02*
X5816300Y4439700D01*
X5810500Y4442000D01*
X5803800D01*
X5796300Y4438500D01*
X5790500Y4432700D01*
X5786300Y4425700D01*
X5783000Y4414000D01*
X5782200Y4403500D01*
X5783800Y4393000D01*
X5786300Y4386000D01*
X5791300Y4379000D01*
X5797200Y4374300D01*
X5803000Y4372000D01*
X5808800D01*
X5814700Y4374300D01*
X5819700Y4377800D01*
X5823800Y4382500D01*
G01X5857000Y4372000D02*
Y4442000D01*
X5847000Y4428000D01*
G01Y4372000D02*
X5867000D01*
G01X5950300Y4439200D02*
X5945300Y4442700D01*
X5939500Y4445000D01*
X5932800D01*
X5925300Y4441500D01*
X5919500Y4435700D01*
X5915300Y4428700D01*
X5912000Y4417000D01*
X5911200Y4406500D01*
X5912800Y4396000D01*
X5915300Y4389000D01*
X5920300Y4382000D01*
X5926200Y4377300D01*
X5932000Y4375000D01*
X5937800D01*
X5943700Y4377300D01*
X5948700Y4380800D01*
X5952800Y4385500D01*
G01X5996000Y4375000D02*
Y4445000D01*
X5965200Y4394800D01*
X6006800D01*
G01X5808300Y4536200D02*
X5803300Y4539700D01*
X5797500Y4542000D01*
X5790800D01*
X5783300Y4538500D01*
X5777500Y4532700D01*
X5773300Y4525700D01*
X5770000Y4514000D01*
X5769200Y4503500D01*
X5770800Y4493000D01*
X5773300Y4486000D01*
X5778300Y4479000D01*
X5784200Y4474300D01*
X5790000Y4472000D01*
X5795800D01*
X5801700Y4474300D01*
X5806700Y4477800D01*
X5810800Y4482500D01*
G01X5825700Y4486000D02*
X5830700Y4477800D01*
X5837300Y4473200D01*
X5844800Y4472000D01*
X5851500Y4473200D01*
X5858200Y4479000D01*
X5862300Y4486000D01*
X5863200Y4493000D01*
X5861500Y4501200D01*
X5855700Y4507000D01*
X5849800Y4509300D01*
X5842300D01*
G01X5849800D02*
X5854800Y4512800D01*
X5859000Y4518700D01*
X5860700Y4525700D01*
X5859000Y4532700D01*
X5854800Y4538500D01*
X5847300Y4542000D01*
X5839800Y4540800D01*
X5832300Y4536200D01*
G01X5879700Y4482500D02*
X5884700Y4476700D01*
X5890500Y4473200D01*
X5898000Y4472000D01*
X5905500Y4474300D01*
X5911300Y4479000D01*
X5915500Y4487200D01*
X5916300Y4496500D01*
X5914700Y4505800D01*
X5910500Y4511700D01*
X5904700Y4516300D01*
X5898800Y4517500D01*
X5893000Y4516300D01*
X5885500Y4511700D01*
X5888000Y4542000D01*
X5910500D01*
G01X5780300Y4621000D02*
Y4691000D01*
X5801200D01*
X5807800Y4687500D01*
X5812000Y4682800D01*
X5813700Y4673500D01*
X5812000Y4664200D01*
X5807000Y4658300D01*
X5801200Y4654800D01*
X5780300D01*
G01X5801200D02*
X5813700Y4621000D01*
G01X5835200Y4679300D02*
X5840200Y4686300D01*
X5846000Y4689800D01*
X5852700Y4691000D01*
X5861000Y4688700D01*
X5866800Y4682800D01*
X5868500Y4675800D01*
X5867700Y4668800D01*
X5864300Y4663000D01*
X5847700Y4651300D01*
X5840200Y4643200D01*
X5835200Y4631500D01*
X5833500Y4621000D01*
X5868500D01*
G01X5972300Y4730200D02*
X5967300Y4733700D01*
X5961500Y4736000D01*
X5954800D01*
X5947300Y4732500D01*
X5941500Y4726700D01*
X5937300Y4719700D01*
X5934000Y4708000D01*
X5933200Y4697500D01*
X5934800Y4687000D01*
X5937300Y4680000D01*
X5942300Y4673000D01*
X5948200Y4668300D01*
X5954000Y4666000D01*
X5959800D01*
X5965700Y4668300D01*
X5970700Y4671800D01*
X5974800Y4676500D01*
G01X5992200Y4724300D02*
X5997200Y4731300D01*
X6003000Y4734800D01*
X6009700Y4736000D01*
X6018000Y4733700D01*
X6023800Y4727800D01*
X6025500Y4720800D01*
X6024700Y4713800D01*
X6021300Y4708000D01*
X6004700Y4696300D01*
X5997200Y4688200D01*
X5992200Y4676500D01*
X5990500Y4666000D01*
X6025500D01*
G01X6543200Y3187700D02*
X6546700Y3192700D01*
X6549000Y3198500D01*
Y3205200D01*
X6545500Y3212700D01*
X6539700Y3218500D01*
X6532700Y3222700D01*
X6521000Y3226000D01*
X6510500Y3226800D01*
X6500000Y3225200D01*
X6493000Y3222700D01*
X6486000Y3217700D01*
X6481300Y3211800D01*
X6479000Y3206000D01*
Y3200200D01*
X6481300Y3194300D01*
X6484800Y3189300D01*
X6489500Y3185200D01*
G01X6479000Y3152000D02*
X6549000D01*
X6535000Y3162000D01*
G01X6479000D02*
Y3142000D01*
G01X6489500Y3116300D02*
X6483700Y3111300D01*
X6480200Y3105500D01*
X6479000Y3098000D01*
X6481300Y3090500D01*
X6486000Y3084700D01*
X6494200Y3080500D01*
X6503500Y3079700D01*
X6512800Y3081300D01*
X6518700Y3085500D01*
X6523300Y3091300D01*
X6524500Y3097200D01*
X6523300Y3103000D01*
X6518700Y3110500D01*
X6549000Y3108000D01*
Y3085500D01*
G01X6211500Y3013300D02*
X6218200Y3007500D01*
X6225700Y3004000D01*
X6232300D01*
X6239000Y3007500D01*
X6244000Y3013300D01*
X6246500Y3021500D01*
X6244800Y3029700D01*
X6240700Y3036700D01*
X6233200Y3041300D01*
X6223200Y3043700D01*
X6217300Y3048300D01*
X6214800Y3056500D01*
X6216500Y3064700D01*
X6220700Y3070500D01*
X6226500Y3074000D01*
X6232300D01*
X6238200Y3071700D01*
X6243200Y3065800D01*
G01X6258000Y3074000D02*
X6269700Y3004000D01*
X6283000Y3074000D01*
X6296300Y3004000D01*
X6308000Y3074000D01*
G01X6321200Y3062300D02*
X6326200Y3069300D01*
X6332000Y3072800D01*
X6338700Y3074000D01*
X6347000Y3071700D01*
X6352800Y3065800D01*
X6354500Y3058800D01*
X6353700Y3051800D01*
X6350300Y3046000D01*
X6333700Y3034300D01*
X6326200Y3026200D01*
X6321200Y3014500D01*
X6319500Y3004000D01*
X6354500D01*
G01X6144300Y3386200D02*
X6139300Y3389700D01*
X6133500Y3392000D01*
X6126800D01*
X6119300Y3388500D01*
X6113500Y3382700D01*
X6109300Y3375700D01*
X6106000Y3364000D01*
X6105200Y3353500D01*
X6106800Y3343000D01*
X6109300Y3336000D01*
X6114300Y3329000D01*
X6120200Y3324300D01*
X6126000Y3322000D01*
X6131800D01*
X6137700Y3324300D01*
X6142700Y3327800D01*
X6146800Y3332500D01*
G01X6164200Y3380300D02*
X6169200Y3387300D01*
X6175000Y3390800D01*
X6181700Y3392000D01*
X6190000Y3389700D01*
X6195800Y3383800D01*
X6197500Y3376800D01*
X6196700Y3369800D01*
X6193300Y3364000D01*
X6176700Y3352300D01*
X6169200Y3344200D01*
X6164200Y3332500D01*
X6162500Y3322000D01*
X6197500D01*
G01X6218200Y3380300D02*
X6223200Y3387300D01*
X6229000Y3390800D01*
X6235700Y3392000D01*
X6244000Y3389700D01*
X6249800Y3383800D01*
X6251500Y3376800D01*
X6250700Y3369800D01*
X6247300Y3364000D01*
X6230700Y3352300D01*
X6223200Y3344200D01*
X6218200Y3332500D01*
X6216500Y3322000D01*
X6251500D01*
G01X6362300Y3626200D02*
X6357300Y3629700D01*
X6351500Y3632000D01*
X6344800D01*
X6337300Y3628500D01*
X6331500Y3622700D01*
X6327300Y3615700D01*
X6324000Y3604000D01*
X6323200Y3593500D01*
X6324800Y3583000D01*
X6327300Y3576000D01*
X6332300Y3569000D01*
X6338200Y3564300D01*
X6344000Y3562000D01*
X6349800D01*
X6355700Y3564300D01*
X6360700Y3567800D01*
X6364800Y3572500D01*
G01X6382200Y3620300D02*
X6387200Y3627300D01*
X6393000Y3630800D01*
X6399700Y3632000D01*
X6408000Y3629700D01*
X6413800Y3623800D01*
X6415500Y3616800D01*
X6414700Y3609800D01*
X6411300Y3604000D01*
X6394700Y3592300D01*
X6387200Y3584200D01*
X6382200Y3572500D01*
X6380500Y3562000D01*
X6415500D01*
G01X6433700Y3576000D02*
X6438700Y3567800D01*
X6445300Y3563200D01*
X6452800Y3562000D01*
X6459500Y3563200D01*
X6466200Y3569000D01*
X6470300Y3576000D01*
X6471200Y3583000D01*
X6469500Y3591200D01*
X6463700Y3597000D01*
X6457800Y3599300D01*
X6450300D01*
G01X6457800D02*
X6462800Y3602800D01*
X6467000Y3608700D01*
X6468700Y3615700D01*
X6467000Y3622700D01*
X6462800Y3628500D01*
X6455300Y3632000D01*
X6447800Y3630800D01*
X6440300Y3626200D01*
G01X6458700Y3720000D02*
Y3669800D01*
X6462000Y3659300D01*
X6468700Y3652300D01*
X6477000Y3650000D01*
X6485300Y3652300D01*
X6492000Y3659300D01*
X6495300Y3669800D01*
Y3720000D01*
G01X6515200Y3708300D02*
X6520200Y3715300D01*
X6526000Y3718800D01*
X6532700Y3720000D01*
X6541000Y3717700D01*
X6546800Y3711800D01*
X6548500Y3704800D01*
X6547700Y3697800D01*
X6544300Y3692000D01*
X6527700Y3680300D01*
X6520200Y3672200D01*
X6515200Y3660500D01*
X6513500Y3650000D01*
X6548500D01*
G01X6140300Y4733200D02*
X6135300Y4736700D01*
X6129500Y4739000D01*
X6122800D01*
X6115300Y4735500D01*
X6109500Y4729700D01*
X6105300Y4722700D01*
X6102000Y4711000D01*
X6101200Y4700500D01*
X6102800Y4690000D01*
X6105300Y4683000D01*
X6110300Y4676000D01*
X6116200Y4671300D01*
X6122000Y4669000D01*
X6127800D01*
X6133700Y4671300D01*
X6138700Y4674800D01*
X6142800Y4679500D01*
G01X6157700Y4683000D02*
X6162700Y4674800D01*
X6169300Y4670200D01*
X6176800Y4669000D01*
X6183500Y4670200D01*
X6190200Y4676000D01*
X6194300Y4683000D01*
X6195200Y4690000D01*
X6193500Y4698200D01*
X6187700Y4704000D01*
X6181800Y4706300D01*
X6174300D01*
G01X6181800D02*
X6186800Y4709800D01*
X6191000Y4715700D01*
X6192700Y4722700D01*
X6191000Y4729700D01*
X6186800Y4735500D01*
X6179300Y4739000D01*
X6171800Y4737800D01*
X6164300Y4733200D01*
G01X6440800Y4954800D02*
Y4884800D01*
X6474200D01*
G01X6511500D02*
Y4954800D01*
X6501500Y4940800D01*
G01Y4884800D02*
X6521500D01*
G01X6213500Y5005300D02*
X6220200Y4999500D01*
X6227700Y4996000D01*
X6234300D01*
X6241000Y4999500D01*
X6246000Y5005300D01*
X6248500Y5013500D01*
X6246800Y5021700D01*
X6242700Y5028700D01*
X6235200Y5033300D01*
X6225200Y5035700D01*
X6219300Y5040300D01*
X6216800Y5048500D01*
X6218500Y5056700D01*
X6222700Y5062500D01*
X6228500Y5066000D01*
X6234300D01*
X6240200Y5063700D01*
X6245200Y5057800D01*
G01X6260000Y5066000D02*
X6271700Y4996000D01*
X6285000Y5066000D01*
X6298300Y4996000D01*
X6310000Y5066000D01*
G01X6339000Y4996000D02*
Y5066000D01*
X6329000Y5052000D01*
G01Y4996000D02*
X6349000D01*
G01X6723000Y3097000D02*
Y3128500D01*
X6706300Y3167000D01*
G01X6739700D02*
X6723000Y3128500D01*
G01X6761200Y3155300D02*
X6766200Y3162300D01*
X6772000Y3165800D01*
X6778700Y3167000D01*
X6787000Y3164700D01*
X6792800Y3158800D01*
X6794500Y3151800D01*
X6793700Y3144800D01*
X6790300Y3139000D01*
X6773700Y3127300D01*
X6766200Y3119200D01*
X6761200Y3107500D01*
X6759500Y3097000D01*
X6794500D01*
G01X6618300Y3579200D02*
X6613300Y3582700D01*
X6607500Y3585000D01*
X6600800D01*
X6593300Y3581500D01*
X6587500Y3575700D01*
X6583300Y3568700D01*
X6580000Y3557000D01*
X6579200Y3546500D01*
X6580800Y3536000D01*
X6583300Y3529000D01*
X6588300Y3522000D01*
X6594200Y3517300D01*
X6600000Y3515000D01*
X6605800D01*
X6611700Y3517300D01*
X6616700Y3520800D01*
X6620800Y3525500D01*
G01X6638200Y3573300D02*
X6643200Y3580300D01*
X6649000Y3583800D01*
X6655700Y3585000D01*
X6664000Y3582700D01*
X6669800Y3576800D01*
X6671500Y3569800D01*
X6670700Y3562800D01*
X6667300Y3557000D01*
X6650700Y3545300D01*
X6643200Y3537200D01*
X6638200Y3525500D01*
X6636500Y3515000D01*
X6671500D01*
G01X6708000D02*
X6713800Y3516200D01*
X6720500Y3519700D01*
X6724700Y3525500D01*
X6726300Y3533700D01*
X6724700Y3541800D01*
X6719700Y3548800D01*
X6712200Y3552300D01*
X6703800D01*
X6698800Y3554700D01*
X6694700Y3560500D01*
X6693000Y3568700D01*
X6695500Y3576800D01*
X6701300Y3582700D01*
X6708000Y3585000D01*
X6714700Y3582700D01*
X6720500Y3576800D01*
X6723000Y3568700D01*
X6721300Y3560500D01*
X6717200Y3554700D01*
X6712200Y3552300D01*
X6703800D01*
X6696300Y3548800D01*
X6691300Y3541800D01*
X6689700Y3533700D01*
X6691300Y3525500D01*
X6695500Y3519700D01*
X6702200Y3516200D01*
X6708000Y3515000D01*
G01X6812300Y3579200D02*
X6807300Y3582700D01*
X6801500Y3585000D01*
X6794800D01*
X6787300Y3581500D01*
X6781500Y3575700D01*
X6777300Y3568700D01*
X6774000Y3557000D01*
X6773200Y3546500D01*
X6774800Y3536000D01*
X6777300Y3529000D01*
X6782300Y3522000D01*
X6788200Y3517300D01*
X6794000Y3515000D01*
X6799800D01*
X6805700Y3517300D01*
X6810700Y3520800D01*
X6814800Y3525500D01*
G01X6832200Y3573300D02*
X6837200Y3580300D01*
X6843000Y3583800D01*
X6849700Y3585000D01*
X6858000Y3582700D01*
X6863800Y3576800D01*
X6865500Y3569800D01*
X6864700Y3562800D01*
X6861300Y3557000D01*
X6844700Y3545300D01*
X6837200Y3537200D01*
X6832200Y3525500D01*
X6830500Y3515000D01*
X6865500D01*
G01X6887800Y3523200D02*
X6893700Y3517300D01*
X6900300Y3515000D01*
X6907000Y3517300D01*
X6912800Y3524300D01*
X6917000Y3534800D01*
X6918700Y3545300D01*
Y3558200D01*
X6917000Y3568700D01*
X6912800Y3578000D01*
X6907800Y3582700D01*
X6902000Y3585000D01*
X6895300Y3582700D01*
X6890300Y3578000D01*
X6887000Y3571000D01*
X6885300Y3561700D01*
X6887000Y3553500D01*
X6891200Y3545300D01*
X6896200Y3540700D01*
X6902000Y3539500D01*
X6908700Y3541800D01*
X6913700Y3547700D01*
X6918700Y3558200D01*
G01X6578300Y3925000D02*
Y3855000D01*
X6611700D01*
G01X6630700Y3865500D02*
X6635700Y3859700D01*
X6641500Y3856200D01*
X6649000Y3855000D01*
X6656500Y3857300D01*
X6662300Y3862000D01*
X6666500Y3870200D01*
X6667300Y3879500D01*
X6665700Y3888800D01*
X6661500Y3894700D01*
X6655700Y3899300D01*
X6649800Y3900500D01*
X6644000Y3899300D01*
X6636500Y3894700D01*
X6639000Y3925000D01*
X6661500D01*
G01X6813300Y4215200D02*
X6808300Y4218700D01*
X6802500Y4221000D01*
X6795800D01*
X6788300Y4217500D01*
X6782500Y4211700D01*
X6778300Y4204700D01*
X6775000Y4193000D01*
X6774200Y4182500D01*
X6775800Y4172000D01*
X6778300Y4165000D01*
X6783300Y4158000D01*
X6789200Y4153300D01*
X6795000Y4151000D01*
X6800800D01*
X6806700Y4153300D01*
X6811700Y4156800D01*
X6815800Y4161500D01*
G01X6849000Y4151000D02*
X6854800Y4152200D01*
X6861500Y4155700D01*
X6865700Y4161500D01*
X6867300Y4169700D01*
X6865700Y4177800D01*
X6860700Y4184800D01*
X6853200Y4188300D01*
X6844800D01*
X6839800Y4190700D01*
X6835700Y4196500D01*
X6834000Y4204700D01*
X6836500Y4212800D01*
X6842300Y4218700D01*
X6849000Y4221000D01*
X6855700Y4218700D01*
X6861500Y4212800D01*
X6864000Y4204700D01*
X6862300Y4196500D01*
X6858200Y4190700D01*
X6853200Y4188300D01*
X6844800D01*
X6837300Y4184800D01*
X6832300Y4177800D01*
X6830700Y4169700D01*
X6832300Y4161500D01*
X6836500Y4155700D01*
X6843200Y4152200D01*
X6849000Y4151000D01*
G01X6672200Y4030700D02*
X6675700Y4035700D01*
X6678000Y4041500D01*
Y4048200D01*
X6674500Y4055700D01*
X6668700Y4061500D01*
X6661700Y4065700D01*
X6650000Y4069000D01*
X6639500Y4069800D01*
X6629000Y4068200D01*
X6622000Y4065700D01*
X6615000Y4060700D01*
X6610300Y4054800D01*
X6608000Y4049000D01*
Y4043200D01*
X6610300Y4037300D01*
X6613800Y4032300D01*
X6618500Y4028200D01*
G01X6616200Y4009200D02*
X6610300Y4003300D01*
X6608000Y3996700D01*
X6610300Y3990000D01*
X6617300Y3984200D01*
X6627800Y3980000D01*
X6638300Y3978300D01*
X6651200D01*
X6661700Y3980000D01*
X6671000Y3984200D01*
X6675700Y3989200D01*
X6678000Y3995000D01*
X6675700Y4001700D01*
X6671000Y4006700D01*
X6664000Y4010000D01*
X6654700Y4011700D01*
X6646500Y4010000D01*
X6638300Y4005800D01*
X6633700Y4000800D01*
X6632500Y3995000D01*
X6634800Y3988300D01*
X6640700Y3983300D01*
X6651200Y3978300D01*
G01X6670200Y4234700D02*
X6673700Y4239700D01*
X6676000Y4245500D01*
Y4252200D01*
X6672500Y4259700D01*
X6666700Y4265500D01*
X6659700Y4269700D01*
X6648000Y4273000D01*
X6637500Y4273800D01*
X6627000Y4272200D01*
X6620000Y4269700D01*
X6613000Y4264700D01*
X6608300Y4258800D01*
X6606000Y4253000D01*
Y4247200D01*
X6608300Y4241300D01*
X6611800Y4236300D01*
X6616500Y4232200D01*
G01X6664300Y4214800D02*
X6671300Y4209800D01*
X6674800Y4204000D01*
X6676000Y4197300D01*
X6673700Y4189000D01*
X6667800Y4183200D01*
X6660800Y4181500D01*
X6653800Y4182300D01*
X6648000Y4185700D01*
X6636300Y4202300D01*
X6628200Y4209800D01*
X6616500Y4214800D01*
X6606000Y4216500D01*
Y4181500D01*
G01Y4146700D02*
X6621200Y4145000D01*
X6634000Y4142500D01*
X6645700Y4139200D01*
X6658500Y4135000D01*
X6676000Y4128300D01*
Y4161700D01*
G01X6574300Y4628200D02*
X6569300Y4631700D01*
X6563500Y4634000D01*
X6556800D01*
X6549300Y4630500D01*
X6543500Y4624700D01*
X6539300Y4617700D01*
X6536000Y4606000D01*
X6535200Y4595500D01*
X6536800Y4585000D01*
X6539300Y4578000D01*
X6544300Y4571000D01*
X6550200Y4566300D01*
X6556000Y4564000D01*
X6561800D01*
X6567700Y4566300D01*
X6572700Y4569800D01*
X6576800Y4574500D01*
G01X6594200Y4593200D02*
X6600000Y4601300D01*
X6605000Y4606000D01*
X6611700Y4608300D01*
X6617500Y4606000D01*
X6621700Y4601300D01*
X6625000Y4594300D01*
X6625800Y4586200D01*
X6625000Y4579200D01*
X6621700Y4572200D01*
X6616700Y4566300D01*
X6610800Y4564000D01*
X6604200Y4566300D01*
X6598300Y4573300D01*
X6595000Y4583800D01*
X6594200Y4595500D01*
X6595800Y4610700D01*
X6598300Y4618800D01*
X6602500Y4627000D01*
X6608300Y4632800D01*
X6614200Y4634000D01*
X6620000Y4631700D01*
X6624200Y4625800D01*
G01X6891200Y4469700D02*
X6894700Y4474700D01*
X6897000Y4480500D01*
Y4487200D01*
X6893500Y4494700D01*
X6887700Y4500500D01*
X6880700Y4504700D01*
X6869000Y4508000D01*
X6858500Y4508800D01*
X6848000Y4507200D01*
X6841000Y4504700D01*
X6834000Y4499700D01*
X6829300Y4493800D01*
X6827000Y4488000D01*
Y4482200D01*
X6829300Y4476300D01*
X6832800Y4471300D01*
X6837500Y4467200D01*
G01X6885300Y4449800D02*
X6892300Y4444800D01*
X6895800Y4439000D01*
X6897000Y4432300D01*
X6894700Y4424000D01*
X6888800Y4418200D01*
X6881800Y4416500D01*
X6874800Y4417300D01*
X6869000Y4420700D01*
X6857300Y4437300D01*
X6849200Y4444800D01*
X6837500Y4449800D01*
X6827000Y4451500D01*
Y4416500D01*
G01X6856200Y4395800D02*
X6864300Y4390000D01*
X6869000Y4385000D01*
X6871300Y4378300D01*
X6869000Y4372500D01*
X6864300Y4368300D01*
X6857300Y4365000D01*
X6849200Y4364200D01*
X6842200Y4365000D01*
X6835200Y4368300D01*
X6829300Y4373300D01*
X6827000Y4379200D01*
X6829300Y4385800D01*
X6836300Y4391700D01*
X6846800Y4395000D01*
X6858500Y4395800D01*
X6873700Y4394200D01*
X6881800Y4391700D01*
X6890000Y4387500D01*
X6895800Y4381700D01*
X6897000Y4375800D01*
X6894700Y4370000D01*
X6888800Y4365800D01*
G01X7069200Y3188700D02*
X7072700Y3193700D01*
X7075000Y3199500D01*
Y3206200D01*
X7071500Y3213700D01*
X7065700Y3219500D01*
X7058700Y3223700D01*
X7047000Y3227000D01*
X7036500Y3227800D01*
X7026000Y3226200D01*
X7019000Y3223700D01*
X7012000Y3218700D01*
X7007300Y3212800D01*
X7005000Y3207000D01*
Y3201200D01*
X7007300Y3195300D01*
X7010800Y3190300D01*
X7015500Y3186200D01*
G01X7005000Y3153000D02*
X7075000D01*
X7061000Y3163000D01*
G01X7005000D02*
Y3143000D01*
G01X7034200Y3114800D02*
X7042300Y3109000D01*
X7047000Y3104000D01*
X7049300Y3097300D01*
X7047000Y3091500D01*
X7042300Y3087300D01*
X7035300Y3084000D01*
X7027200Y3083200D01*
X7020200Y3084000D01*
X7013200Y3087300D01*
X7007300Y3092300D01*
X7005000Y3098200D01*
X7007300Y3104800D01*
X7014300Y3110700D01*
X7024800Y3114000D01*
X7036500Y3114800D01*
X7051700Y3113200D01*
X7059800Y3110700D01*
X7068000Y3106500D01*
X7073800Y3100700D01*
X7075000Y3094800D01*
X7072700Y3089000D01*
X7066800Y3084800D01*
G01X7067300Y3670200D02*
X7062300Y3673700D01*
X7056500Y3676000D01*
X7049800D01*
X7042300Y3672500D01*
X7036500Y3666700D01*
X7032300Y3659700D01*
X7029000Y3648000D01*
X7028200Y3637500D01*
X7029800Y3627000D01*
X7032300Y3620000D01*
X7037300Y3613000D01*
X7043200Y3608300D01*
X7049000Y3606000D01*
X7054800D01*
X7060700Y3608300D01*
X7065700Y3611800D01*
X7069800Y3616500D01*
G01X7103000Y3606000D02*
Y3676000D01*
X7093000Y3662000D01*
G01Y3606000D02*
X7113000D01*
G01X7157000D02*
Y3676000D01*
X7147000Y3662000D01*
G01Y3606000D02*
X7167000D01*
G01X7162200Y4469700D02*
X7165700Y4474700D01*
X7168000Y4480500D01*
Y4487200D01*
X7164500Y4494700D01*
X7158700Y4500500D01*
X7151700Y4504700D01*
X7140000Y4508000D01*
X7129500Y4508800D01*
X7119000Y4507200D01*
X7112000Y4504700D01*
X7105000Y4499700D01*
X7100300Y4493800D01*
X7098000Y4488000D01*
Y4482200D01*
X7100300Y4476300D01*
X7103800Y4471300D01*
X7108500Y4467200D01*
G01Y4452300D02*
X7102700Y4447300D01*
X7099200Y4441500D01*
X7098000Y4434000D01*
X7100300Y4426500D01*
X7105000Y4420700D01*
X7113200Y4416500D01*
X7122500Y4415700D01*
X7131800Y4417300D01*
X7137700Y4421500D01*
X7142300Y4427300D01*
X7143500Y4433200D01*
X7142300Y4439000D01*
X7137700Y4446500D01*
X7168000Y4444000D01*
Y4421500D01*
G01X7188300Y4717200D02*
X7183300Y4720700D01*
X7177500Y4723000D01*
X7170800D01*
X7163300Y4719500D01*
X7157500Y4713700D01*
X7153300Y4706700D01*
X7150000Y4695000D01*
X7149200Y4684500D01*
X7150800Y4674000D01*
X7153300Y4667000D01*
X7158300Y4660000D01*
X7164200Y4655300D01*
X7170000Y4653000D01*
X7175800D01*
X7181700Y4655300D01*
X7186700Y4658800D01*
X7190800Y4663500D01*
G01X7222300Y4653000D02*
X7224000Y4668200D01*
X7226500Y4681000D01*
X7229800Y4692700D01*
X7234000Y4705500D01*
X7240700Y4723000D01*
X7207300D01*
G01X7019000Y4498700D02*
X6949000D01*
Y4465300D01*
G01X7007300Y4443800D02*
X7014300Y4438800D01*
X7017800Y4433000D01*
X7019000Y4426300D01*
X7016700Y4418000D01*
X7010800Y4412200D01*
X7003800Y4410500D01*
X6996800Y4411300D01*
X6991000Y4414700D01*
X6979300Y4431300D01*
X6971200Y4438800D01*
X6959500Y4443800D01*
X6949000Y4445500D01*
Y4410500D01*
G01X7112000Y4770000D02*
Y4801500D01*
X7095300Y4840000D01*
G01X7128700D02*
X7112000Y4801500D01*
G01X7166000Y4770000D02*
Y4840000D01*
X7156000Y4826000D01*
G01Y4770000D02*
X7176000D01*
G01X7683200Y3864700D02*
X7686700Y3869700D01*
X7689000Y3875500D01*
Y3882200D01*
X7685500Y3889700D01*
X7679700Y3895500D01*
X7672700Y3899700D01*
X7661000Y3903000D01*
X7650500Y3903800D01*
X7640000Y3902200D01*
X7633000Y3899700D01*
X7626000Y3894700D01*
X7621300Y3888800D01*
X7619000Y3883000D01*
Y3877200D01*
X7621300Y3871300D01*
X7624800Y3866300D01*
X7629500Y3862200D01*
G01X7619000Y3829000D02*
X7689000D01*
X7675000Y3839000D01*
G01X7619000D02*
Y3819000D01*
G01X7633000Y3793300D02*
X7624800Y3788300D01*
X7620200Y3781700D01*
X7619000Y3774200D01*
X7620200Y3767500D01*
X7626000Y3760800D01*
X7633000Y3756700D01*
X7640000Y3755800D01*
X7648200Y3757500D01*
X7654000Y3763300D01*
X7656300Y3769200D01*
Y3776700D01*
G01Y3769200D02*
X7659800Y3764200D01*
X7665700Y3760000D01*
X7672700Y3758300D01*
X7679700Y3760000D01*
X7685500Y3764200D01*
X7689000Y3771700D01*
X7687800Y3779200D01*
X7683200Y3786700D01*
G01X7430200Y3870700D02*
X7433700Y3875700D01*
X7436000Y3881500D01*
Y3888200D01*
X7432500Y3895700D01*
X7426700Y3901500D01*
X7419700Y3905700D01*
X7408000Y3909000D01*
X7397500Y3909800D01*
X7387000Y3908200D01*
X7380000Y3905700D01*
X7373000Y3900700D01*
X7368300Y3894800D01*
X7366000Y3889000D01*
Y3883200D01*
X7368300Y3877300D01*
X7371800Y3872300D01*
X7376500Y3868200D01*
G01X7366000Y3835000D02*
X7436000D01*
X7422000Y3845000D01*
G01X7366000D02*
Y3825000D01*
G01X7424300Y3796800D02*
X7431300Y3791800D01*
X7434800Y3786000D01*
X7436000Y3779300D01*
X7433700Y3771000D01*
X7427800Y3765200D01*
X7420800Y3763500D01*
X7413800Y3764300D01*
X7408000Y3767700D01*
X7396300Y3784300D01*
X7388200Y3791800D01*
X7376500Y3796800D01*
X7366000Y3798500D01*
Y3763500D01*
G01X7460300Y4144200D02*
X7455300Y4147700D01*
X7449500Y4150000D01*
X7442800D01*
X7435300Y4146500D01*
X7429500Y4140700D01*
X7425300Y4133700D01*
X7422000Y4122000D01*
X7421200Y4111500D01*
X7422800Y4101000D01*
X7425300Y4094000D01*
X7430300Y4087000D01*
X7436200Y4082300D01*
X7442000Y4080000D01*
X7447800D01*
X7453700Y4082300D01*
X7458700Y4085800D01*
X7462800Y4090500D01*
G01X7496000Y4080000D02*
Y4150000D01*
X7486000Y4136000D01*
G01Y4080000D02*
X7506000D01*
G01X7550000Y4150000D02*
X7543300Y4147700D01*
X7538300Y4141800D01*
X7535000Y4134800D01*
X7532500Y4125500D01*
X7531700Y4115000D01*
X7532500Y4104500D01*
X7535000Y4095200D01*
X7538300Y4088200D01*
X7543300Y4082300D01*
X7550000Y4080000D01*
X7556700Y4082300D01*
X7561700Y4088200D01*
X7565000Y4095200D01*
X7567500Y4104500D01*
X7568300Y4115000D01*
X7567500Y4125500D01*
X7565000Y4134800D01*
X7561700Y4141800D01*
X7556700Y4147700D01*
X7550000Y4150000D01*
G01X7438300Y4270000D02*
Y4200000D01*
X7471700D01*
G01X7490700Y4214000D02*
X7495700Y4205800D01*
X7502300Y4201200D01*
X7509800Y4200000D01*
X7516500Y4201200D01*
X7523200Y4207000D01*
X7527300Y4214000D01*
X7528200Y4221000D01*
X7526500Y4229200D01*
X7520700Y4235000D01*
X7514800Y4237300D01*
X7507300D01*
G01X7514800D02*
X7519800Y4240800D01*
X7524000Y4246700D01*
X7525700Y4253700D01*
X7524000Y4260700D01*
X7519800Y4266500D01*
X7512300Y4270000D01*
X7504800Y4268800D01*
X7497300Y4264200D01*
G01X7311200Y4488700D02*
X7314700Y4493700D01*
X7317000Y4499500D01*
Y4506200D01*
X7313500Y4513700D01*
X7307700Y4519500D01*
X7300700Y4523700D01*
X7289000Y4527000D01*
X7278500Y4527800D01*
X7268000Y4526200D01*
X7261000Y4523700D01*
X7254000Y4518700D01*
X7249300Y4512800D01*
X7247000Y4507000D01*
Y4501200D01*
X7249300Y4495300D01*
X7252800Y4490300D01*
X7257500Y4486200D01*
G01X7247000Y4443000D02*
X7317000D01*
X7266800Y4473800D01*
Y4432200D01*
G01X7305300Y4414800D02*
X7312300Y4409800D01*
X7315800Y4404000D01*
X7317000Y4397300D01*
X7314700Y4389000D01*
X7308800Y4383200D01*
X7301800Y4381500D01*
X7294800Y4382300D01*
X7289000Y4385700D01*
X7277300Y4402300D01*
X7269200Y4409800D01*
X7257500Y4414800D01*
X7247000Y4416500D01*
Y4381500D01*
G01X7935000Y3609800D02*
X8005000Y3589000D01*
X7935000Y3568200D01*
G01X7959500Y3575700D02*
Y3602300D01*
G01X7935000Y3554200D02*
X8005000D01*
X7935000Y3515800D01*
X8005000D01*
G01Y3481000D02*
X7935000D01*
G01X8005000Y3500200D02*
Y3461800D01*
G01X7935000Y3427000D02*
X8005000D01*
X7991000Y3437000D01*
G01X7935000D02*
Y3417000D01*
G01X7936200Y3868700D02*
X7939700Y3873700D01*
X7942000Y3879500D01*
Y3886200D01*
X7938500Y3893700D01*
X7932700Y3899500D01*
X7925700Y3903700D01*
X7914000Y3907000D01*
X7903500Y3907800D01*
X7893000Y3906200D01*
X7886000Y3903700D01*
X7879000Y3898700D01*
X7874300Y3892800D01*
X7872000Y3887000D01*
Y3881200D01*
X7874300Y3875300D01*
X7877800Y3870300D01*
X7882500Y3866200D01*
G01X7872000Y3833000D02*
X7942000D01*
X7928000Y3843000D01*
G01X7872000D02*
Y3823000D01*
G01Y3769000D02*
X7942000D01*
X7891800Y3799800D01*
Y3758200D01*
G01X7656300Y4149000D02*
Y4079000D01*
X7689700D01*
G01X7737000D02*
Y4149000D01*
X7706200Y4098800D01*
X7747800D01*
G01X7704000Y4464300D02*
X7653800D01*
X7643300Y4461000D01*
X7636300Y4454300D01*
X7634000Y4446000D01*
X7636300Y4437700D01*
X7643300Y4431000D01*
X7653800Y4427700D01*
X7704000D01*
G01X7634000Y4393700D02*
X7649200Y4392000D01*
X7662000Y4389500D01*
X7673700Y4386200D01*
X7686500Y4382000D01*
X7704000Y4375300D01*
Y4408700D01*
G54D11*
G01X11417900Y5331000D02*
Y5491000D01*
X11509100Y5331000D01*
Y5491000D01*
G01X11554900Y5331000D02*
X11604500Y5491000D01*
X11654100Y5331000D01*
G01X11636200Y5387000D02*
X11572800D01*
G01X11693900Y5331000D02*
Y5491000D01*
X11745500Y5357700D01*
X11797100Y5491000D01*
Y5331000D01*
G01X11926200D02*
X11846800D01*
Y5491000D01*
X11926200D01*
G01X11894400Y5413700D02*
X11846800D01*
G01X11968000Y5277700D02*
X12087000D01*
G01X12126800Y5352300D02*
X12142700Y5339000D01*
X12160600Y5331000D01*
X12176400D01*
X12192300Y5339000D01*
X12204200Y5352300D01*
X12210200Y5371000D01*
X12206200Y5389700D01*
X12196300Y5405700D01*
X12178400Y5416300D01*
X12154600Y5421700D01*
X12140700Y5432300D01*
X12134800Y5451000D01*
X12138800Y5469700D01*
X12148700Y5483000D01*
X12162500Y5491000D01*
X12176400D01*
X12190300Y5485700D01*
X12202200Y5472300D01*
G01X12285700Y5491000D02*
X12333300D01*
G01X12309500D02*
Y5331000D01*
G01X12285700D02*
X12333300D01*
G01X12410800Y5491000D02*
Y5331000D01*
X12490200D01*
G01X12547900D02*
Y5491000D01*
G01X12623200D02*
X12547900Y5392300D01*
G01X12635100Y5331000D02*
X12581600Y5437700D01*
G01X12690800Y5352300D02*
X12706700Y5339000D01*
X12724600Y5331000D01*
X12740400D01*
X12756300Y5339000D01*
X12768200Y5352300D01*
X12774200Y5371000D01*
X12770200Y5389700D01*
X12760300Y5405700D01*
X12742400Y5416300D01*
X12718600Y5421700D01*
X12704700Y5432300D01*
X12698800Y5451000D01*
X12702800Y5469700D01*
X12712700Y5483000D01*
X12726500Y5491000D01*
X12740400D01*
X12754300Y5485700D01*
X12766200Y5472300D01*
G01X12917100Y5477700D02*
X12905200Y5485700D01*
X12891400Y5491000D01*
X12875500D01*
X12857600Y5483000D01*
X12843800Y5469700D01*
X12833800Y5453700D01*
X12825900Y5427000D01*
X12823900Y5403000D01*
X12827900Y5379000D01*
X12833800Y5363000D01*
X12845700Y5347000D01*
X12859600Y5336300D01*
X12873500Y5331000D01*
X12887400D01*
X12901300Y5336300D01*
X12913200Y5344300D01*
X12923100Y5355000D01*
G01X12974800Y5331000D02*
Y5491000D01*
X13024400D01*
X13040300Y5483000D01*
X13050200Y5472300D01*
X13054200Y5451000D01*
X13050200Y5429700D01*
X13038300Y5416300D01*
X13024400Y5408300D01*
X12974800D01*
G01X13024400D02*
X13054200Y5331000D01*
G01X13195200D02*
X13115800D01*
Y5491000D01*
X13195200D01*
G01X13163400Y5413700D02*
X13115800D01*
G01X13336200Y5331000D02*
X13256800D01*
Y5491000D01*
X13336200D01*
G01X13304400Y5413700D02*
X13256800D01*
G01X13391900Y5331000D02*
Y5491000D01*
X13483100Y5331000D01*
Y5491000D01*
G01X13578500D02*
Y5331000D01*
G01X13532900Y5491000D02*
X13624100D01*
G01X13719500Y5331000D02*
X13703600Y5333700D01*
X13689800Y5344300D01*
X13677800Y5360300D01*
X13669900Y5379000D01*
X13665900Y5400300D01*
Y5421700D01*
X13669900Y5443000D01*
X13677800Y5461700D01*
X13689800Y5477700D01*
X13703600Y5488300D01*
X13719500Y5491000D01*
X13735400Y5488300D01*
X13749200Y5477700D01*
X13761200Y5461700D01*
X13769100Y5443000D01*
X13773100Y5421700D01*
Y5400300D01*
X13769100Y5379000D01*
X13761200Y5360300D01*
X13749200Y5344300D01*
X13735400Y5333700D01*
X13719500Y5331000D01*
G01X13820800D02*
Y5491000D01*
X13868400D01*
X13884300Y5483000D01*
X13896200Y5464300D01*
X13900200Y5443000D01*
X13896200Y5421700D01*
X13886300Y5405700D01*
X13868400Y5397700D01*
X13820800D01*
G54D12*
G01X7136700Y5032000D02*
Y5117000D01*
X7184300D01*
G01X7166700Y5075900D02*
X7136700D01*
G01X7245500Y5032000D02*
X7235500Y5033400D01*
X7226800Y5039100D01*
X7219200Y5047600D01*
X7214200Y5057500D01*
X7211700Y5068800D01*
Y5080200D01*
X7214200Y5091500D01*
X7219200Y5101400D01*
X7226800Y5109900D01*
X7235500Y5115600D01*
X7245500Y5117000D01*
X7255500Y5115600D01*
X7264200Y5109900D01*
X7271800Y5101400D01*
X7276800Y5091500D01*
X7279300Y5080200D01*
Y5068800D01*
X7276800Y5057500D01*
X7271800Y5047600D01*
X7264200Y5039100D01*
X7255500Y5033400D01*
X7245500Y5032000D01*
G01X7305500D02*
Y5117000D01*
X7336700D01*
X7346700Y5112700D01*
X7353000Y5107100D01*
X7355500Y5095700D01*
X7353000Y5084400D01*
X7345500Y5077300D01*
X7336700Y5073100D01*
X7305500D01*
G01X7336700D02*
X7355500Y5032000D01*
G01X7525500D02*
X7475500D01*
Y5117000D01*
X7525500D01*
G01X7505500Y5075900D02*
X7475500D01*
G01X7554200Y5117000D02*
X7585500Y5032000D01*
X7616800Y5117000D01*
G01X7639200Y5032000D02*
X7670500Y5117000D01*
X7701800Y5032000D01*
G01X7690500Y5061700D02*
X7650500D01*
G01X7730500Y5117000D02*
Y5032000D01*
X7780500D01*
G01X7813000Y5117000D02*
Y5056100D01*
X7818000Y5043300D01*
X7828000Y5034800D01*
X7840500Y5032000D01*
X7853000Y5034800D01*
X7863000Y5043300D01*
X7868000Y5056100D01*
Y5117000D01*
G01X7894200Y5032000D02*
X7925500Y5117000D01*
X7956800Y5032000D01*
G01X7945500Y5061700D02*
X7905500D01*
G01X8010500Y5117000D02*
Y5032000D01*
G01X7981800Y5117000D02*
X8039200D01*
G01X8080500D02*
X8110500D01*
G01X8095500D02*
Y5032000D01*
G01X8080500D02*
X8110500D01*
G01X8180500D02*
X8170500Y5033400D01*
X8161800Y5039100D01*
X8154200Y5047600D01*
X8149200Y5057500D01*
X8146700Y5068800D01*
Y5080200D01*
X8149200Y5091500D01*
X8154200Y5101400D01*
X8161800Y5109900D01*
X8170500Y5115600D01*
X8180500Y5117000D01*
X8190500Y5115600D01*
X8199200Y5109900D01*
X8206800Y5101400D01*
X8211800Y5091500D01*
X8214300Y5080200D01*
Y5068800D01*
X8211800Y5057500D01*
X8206800Y5047600D01*
X8199200Y5039100D01*
X8190500Y5033400D01*
X8180500Y5032000D01*
G01X8236800D02*
Y5117000D01*
X8294200Y5032000D01*
Y5117000D01*
G01X7197500Y4920000D02*
Y5005000D01*
X7227500D01*
X7237500Y5000700D01*
X7245000Y4990800D01*
X7247500Y4979500D01*
X7245000Y4968200D01*
X7238700Y4959700D01*
X7227500Y4955400D01*
X7197500D01*
G01X7280000Y5005000D02*
Y4944100D01*
X7285000Y4931300D01*
X7295000Y4922800D01*
X7307500Y4920000D01*
X7320000Y4922800D01*
X7330000Y4931300D01*
X7335000Y4944100D01*
Y5005000D01*
G01X7367500Y4920000D02*
Y5005000D01*
X7398700D01*
X7408700Y5000700D01*
X7415000Y4995100D01*
X7417500Y4983700D01*
X7415000Y4972400D01*
X7407500Y4965300D01*
X7398700Y4961100D01*
X7367500D01*
G01X7398700D02*
X7417500Y4920000D01*
G01X7452500D02*
Y5005000D01*
X7482500D01*
X7492500Y5000700D01*
X7500000Y4990800D01*
X7502500Y4979500D01*
X7500000Y4968200D01*
X7493700Y4959700D01*
X7482500Y4955400D01*
X7452500D01*
G01X7562500Y4920000D02*
X7552500Y4921400D01*
X7543800Y4927100D01*
X7536200Y4935600D01*
X7531200Y4945500D01*
X7528700Y4956800D01*
Y4968200D01*
X7531200Y4979500D01*
X7536200Y4989400D01*
X7543800Y4997900D01*
X7552500Y5003600D01*
X7562500Y5005000D01*
X7572500Y5003600D01*
X7581200Y4997900D01*
X7588800Y4989400D01*
X7593800Y4979500D01*
X7596300Y4968200D01*
Y4956800D01*
X7593800Y4945500D01*
X7588800Y4935600D01*
X7581200Y4927100D01*
X7572500Y4921400D01*
X7562500Y4920000D01*
G01X7621200Y4931300D02*
X7631300Y4924200D01*
X7642500Y4920000D01*
X7652500D01*
X7662500Y4924200D01*
X7670000Y4931300D01*
X7673800Y4941300D01*
X7671300Y4951200D01*
X7665000Y4959700D01*
X7653700Y4965300D01*
X7638800Y4968200D01*
X7630000Y4973800D01*
X7626200Y4983700D01*
X7628800Y4993700D01*
X7635000Y5000700D01*
X7643700Y5005000D01*
X7652500D01*
X7661300Y5002200D01*
X7668800Y4995100D01*
G01X7757500Y4920000D02*
X7707500D01*
Y5005000D01*
X7757500D01*
G01X7737500Y4963900D02*
X7707500D01*
G01X7791200Y4931300D02*
X7801300Y4924200D01*
X7812500Y4920000D01*
X7822500D01*
X7832500Y4924200D01*
X7840000Y4931300D01*
X7843800Y4941300D01*
X7841300Y4951200D01*
X7835000Y4959700D01*
X7823700Y4965300D01*
X7808800Y4968200D01*
X7800000Y4973800D01*
X7796200Y4983700D01*
X7798800Y4993700D01*
X7805000Y5000700D01*
X7813700Y5005000D01*
X7822500D01*
X7831300Y5002200D01*
X7838800Y4995100D01*
G01X7987500Y4920000D02*
X7977500Y4921400D01*
X7968800Y4927100D01*
X7961200Y4935600D01*
X7956200Y4945500D01*
X7953700Y4956800D01*
Y4968200D01*
X7956200Y4979500D01*
X7961200Y4989400D01*
X7968800Y4997900D01*
X7977500Y5003600D01*
X7987500Y5005000D01*
X7997500Y5003600D01*
X8006200Y4997900D01*
X8013800Y4989400D01*
X8018800Y4979500D01*
X8021300Y4968200D01*
Y4956800D01*
X8018800Y4945500D01*
X8013800Y4935600D01*
X8006200Y4927100D01*
X7997500Y4921400D01*
X7987500Y4920000D01*
G01X8043800D02*
Y5005000D01*
X8101200Y4920000D01*
Y5005000D01*
G01X8132500D02*
Y4920000D01*
X8182500D01*
G01X8242500D02*
Y4958200D01*
X8217500Y5005000D01*
G01X8267500D02*
X8242500Y4958200D01*
G54D13*
G01X3797000Y4616000D02*
X1917000D01*
Y3416000D01*
X3797000D01*
Y4616000D01*
G01X3377000D02*
Y3416000D01*
G01X3822300Y4879300D02*
X3835000Y4892000D01*
G01D02*
Y5146000D01*
G01X5390800Y4892000D02*
X3835000D01*
G01Y5146000D02*
X5390800D01*
G01X4375000Y3108000D02*
X4144000D01*
Y2986000D01*
X4375000D01*
Y3108000D01*
G01X3854000Y2986000D02*
X4104000D01*
G01D02*
Y3372000D01*
X4015000D01*
X3976000Y3409000D01*
X3940000Y3372000D01*
X3854000D01*
Y2986000D01*
G01X4143000Y3148000D02*
X4463000D01*
Y3468000D01*
X4143000D01*
Y3148000D01*
G01X4071000Y3742000D02*
X4302000D01*
Y3864000D01*
X4071000D01*
Y3742000D01*
G01X4075000Y4086000D02*
X4055000D01*
Y3956000D01*
X4070000D01*
G01X4207000Y4086000D02*
X4225000D01*
Y3956000D01*
X4210000D01*
G01X4819000Y3189000D02*
X4588000D01*
Y3067000D01*
X4819000D01*
Y3189000D01*
G01X4792000Y3049000D02*
X4561000D01*
Y2927000D01*
X4792000D01*
Y3049000D01*
G01X4532000Y3124000D02*
Y3054000D01*
X4482000D01*
Y3124000D01*
X4498000D01*
X4502000Y3129000D01*
X4507000Y3135000D01*
X4509000Y3133000D01*
G01D02*
X4508000Y3134000D01*
X4517000Y3124000D01*
X4532000D01*
G01X4228000Y3486000D02*
X4459000D01*
Y3608000D01*
X4228000D01*
Y3486000D01*
G01X4819000Y3327200D02*
X4588000D01*
Y3205200D01*
X4819000D01*
Y3327200D01*
G01X4588000Y3343000D02*
X4819000D01*
Y3465000D01*
X4588000D01*
Y3343000D01*
G01X4817000Y3605000D02*
X4586000D01*
Y3483000D01*
X4817000D01*
Y3605000D01*
G01X4549000Y3932000D02*
Y3701000D01*
X4671000D01*
Y3932000D01*
X4549000D01*
G01X4407000D02*
Y3701000D01*
X4529000D01*
Y3932000D01*
X4407000D01*
G01X4634000Y4272000D02*
Y3952000D01*
X4414000D01*
Y4272000D01*
X4634000D01*
G01X4687000Y4478000D02*
Y4525000D01*
X4649000Y4563000D01*
X4228000D01*
G01X4608000Y4304000D02*
Y4535000D01*
X4486000D01*
Y4304000D01*
X4608000D01*
G01X4345000Y4537000D02*
Y4306000D01*
X4467000D01*
Y4537000D01*
X4345000D01*
G01X4685000Y4721000D02*
X4454000D01*
Y4599000D01*
X4685000D01*
Y4721000D01*
G01X5081000Y3040000D02*
X4832000D01*
Y3007000D01*
X4805000Y2986000D01*
X4832000Y2975000D01*
Y2938000D01*
X5081000D01*
Y3040000D01*
G01X5073000Y3326200D02*
X4842000D01*
Y3204200D01*
X5073000D01*
Y3326200D01*
G01X5072000Y3464000D02*
X4841000D01*
Y3342000D01*
X5072000D01*
Y3464000D01*
G01X5071000Y3604000D02*
X4840000D01*
Y3482000D01*
X5071000D01*
Y3604000D01*
G01X4707000Y3637000D02*
X5459000D01*
Y4388000D01*
X4783000D01*
X4707000Y4313000D01*
Y3635000D01*
G01Y3637000D02*
X5459000D01*
Y4388000D01*
X4783000D01*
X4707000Y4313000D01*
Y3635000D01*
G01X4713000Y4461000D02*
X4944000D01*
Y4583000D01*
X4713000D01*
Y4461000D01*
G01Y4601000D02*
X4944000D01*
Y4723000D01*
X4713000D01*
Y4601000D01*
G01X5193000Y4583000D02*
X4962000D01*
Y4461000D01*
X5193000D01*
Y4583000D01*
G01X4963000Y4602000D02*
X5194000D01*
Y4724000D01*
X4963000D01*
Y4602000D01*
G01X5217000Y3069000D02*
X5448000D01*
Y3191000D01*
X5217000D01*
Y3069000D01*
G01X5140000Y2938000D02*
X5389000D01*
Y2971000D01*
X5416000Y2992000D01*
X5389000Y3003000D01*
Y3040000D01*
X5140000D01*
Y2938000D01*
G01X5449000Y3607000D02*
X5218000D01*
Y3485000D01*
X5449000D01*
Y3607000D01*
G01X5217000Y3345000D02*
X5448000D01*
Y3467000D01*
X5217000D01*
Y3345000D01*
G01X5447000Y3329000D02*
X5216000D01*
Y3207000D01*
X5447000D01*
Y3329000D01*
G01X5381000Y4722000D02*
X5255000D01*
X5232000Y4699000D01*
Y4622000D01*
X5193000Y4583000D01*
G01X5232000Y4459000D02*
X5463000D01*
Y4581000D01*
X5232000D01*
Y4459000D01*
G01X6180000Y2900000D02*
X5660000D01*
Y3180000D01*
X6190000D01*
Y2900000D01*
X6180000D01*
G01X5516000Y3668000D02*
Y3437000D01*
X5638000D01*
Y3668000D01*
X5516000D01*
G01X5891000Y3356000D02*
X5660000D01*
Y3234000D01*
X5891000D01*
Y3356000D01*
G01X5876000Y3375000D02*
X5701000D01*
X5676000Y3400000D01*
Y3675000D01*
X5876000D01*
Y3375000D01*
G01X5718000Y3972000D02*
Y3741000D01*
X5840000D01*
Y3972000D01*
X5718000D01*
G01X5488000Y4416000D02*
Y4185000D01*
X5610000D01*
Y4416000D01*
X5488000D01*
G01X5627000Y4415000D02*
Y4184000D01*
X5749000D01*
Y4415000D01*
X5627000D01*
G01X5481000Y4459000D02*
X5712000D01*
Y4581000D01*
X5481000D01*
Y4459000D01*
G01X5712000Y4723000D02*
X5481000D01*
Y4601000D01*
X5712000D01*
Y4723000D01*
G01X5390800Y5146000D02*
Y4892000D01*
G01X5669000Y5117000D02*
X6189000D01*
Y4837000D01*
X5659000D01*
Y5117000D01*
X5669000D01*
G01X6005000Y2955000D02*
Y3115000D01*
X5845000D01*
Y2955000D01*
X6005000D01*
G01X6078000Y3413000D02*
X6309000D01*
Y3535000D01*
X6078000D01*
Y3413000D01*
G01X6308000Y3674000D02*
X6077000D01*
Y3552000D01*
X6308000D01*
Y3674000D01*
G01X5858000Y3972000D02*
Y3741000D01*
X5980000D01*
Y3972000D01*
X5858000D01*
G01X6041000Y3760000D02*
X6541000D01*
Y4260000D01*
X6101000D01*
X6041000Y4200000D01*
Y3760000D01*
G01X6261000Y4486000D02*
X6030000D01*
Y4364000D01*
X6261000D01*
Y4486000D01*
G01X6262000Y4626000D02*
X6031000D01*
Y4504000D01*
X6262000D01*
Y4626000D01*
G01X5844000Y5062000D02*
Y4902000D01*
X6004000D01*
Y5062000D01*
X5844000D01*
G01X6435000Y3472000D02*
Y3241000D01*
X6557000D01*
Y3472000D01*
X6435000D01*
G01X6512000Y4626000D02*
X6281000D01*
Y4504000D01*
X6512000D01*
Y4626000D01*
G01X6511000Y4486000D02*
X6280000D01*
Y4364000D01*
X6511000D01*
Y4486000D01*
G01X6612600Y4659400D02*
X6231600D01*
G01D02*
Y4862600D01*
G01D02*
X6612600D01*
G01X6580000Y3459000D02*
X6940000D01*
Y3209000D01*
X6620000D01*
X6580000Y3249000D01*
Y3459000D01*
G01X6613000Y3833000D02*
Y3602000D01*
X6735000D01*
Y3833000D01*
X6613000D01*
G01X6754000Y3832000D02*
Y3601000D01*
X6876000D01*
Y3832000D01*
X6754000D01*
G01X6841000Y3885000D02*
Y4116000D01*
X6719000D01*
Y3885000D01*
X6841000D01*
G01X6654000Y4541000D02*
X6885000D01*
Y4663000D01*
X6654000D01*
Y4541000D01*
G01X6811000Y4287000D02*
Y4518000D01*
X6689000D01*
Y4287000D01*
X6811000D01*
G01X6669000Y4286000D02*
Y4517000D01*
X6547000D01*
Y4286000D01*
X6669000D01*
G01X6702000Y4816000D02*
Y4887000D01*
X7074000D01*
Y4684000D01*
X6702000D01*
Y4816000D01*
G01X6612600Y4862600D02*
Y4659400D01*
G01X7088000Y3242000D02*
Y3473000D01*
X6966000D01*
Y3242000D01*
X7088000D01*
G01X7127000Y3817000D02*
X6896000D01*
Y3695000D01*
X7127000D01*
Y3817000D01*
G01X7096000Y3990000D02*
X6865000D01*
Y3868000D01*
X7096000D01*
Y3990000D01*
G01Y4130000D02*
X6865000D01*
Y4008000D01*
X7096000D01*
Y4130000D01*
G01X7073000Y4385000D02*
Y4154000D01*
X7195000D01*
Y4385000D01*
X7073000D01*
G01X7346000Y4063000D02*
X7115000D01*
Y3941000D01*
X7346000D01*
Y4063000D01*
G01X6930000Y4385000D02*
Y4154000D01*
X7052000D01*
Y4385000D01*
X6930000D01*
G01X7131000Y4665000D02*
X6900000D01*
Y4543000D01*
X7131000D01*
Y4665000D01*
G01X7599000Y3687000D02*
Y3918000D01*
X7477000D01*
Y3687000D01*
X7599000D01*
G01X7347000Y3688000D02*
Y3919000D01*
X7225000D01*
Y3688000D01*
X7347000D01*
G01X7346000Y4063000D02*
X7353000D01*
X7381000Y4091000D01*
Y4178000D01*
X7567000D01*
Y4183000D01*
G01X7597000Y4062000D02*
X7366000D01*
Y3940000D01*
X7597000D01*
Y4062000D01*
G01X7348000Y4084000D02*
Y4315000D01*
X7226000D01*
Y4084000D01*
X7348000D01*
G01X7572000Y4592000D02*
G03I-100000J0D01*
G01D02*
G03I-100000J0D01*
G01X7342000Y4722000D02*
Y4462000D01*
X7602000D01*
Y4722000D01*
X7342000D01*
G01X7853000Y3689000D02*
Y3920000D01*
X7731000D01*
Y3689000D01*
X7853000D01*
G01X7852000Y4060000D02*
X7621000D01*
Y3938000D01*
X7852000D01*
Y4060000D01*
G01X8211000Y4050000D02*
X8027000D01*
Y3439000D01*
X8247000D01*
Y4050000D01*
X8211000D01*
G54D14*
G01X7290000Y3499000D02*
X7586000D01*
X7491000Y3252000D01*
X7184000D01*
X7278000Y3499000D01*
X7290000D01*
G01X7140000Y5151000D02*
X8324000D01*
Y4883000D01*
X7098000D01*
Y5151000D01*
X7140000D01*
M02*
