G04 ================== begin FILE IDENTIFICATION RECORD ==================*
G04 Layout Name:  C:/Vss09/EAP/0021.13/BLUE_NRG_Dongle/BLUE_NRG_Dongle.brd*
G04 Film Name:    BLUE_NRG_DONGLE_ASSBOT*
G04 File Format:  Gerber RS274X*
G04 File Origin:  Cadence Allegro 16.6-S018*
G04 Origin Date:  Mon Mar 17 13:59:26 2014*
G04 *
G04 Layer:  REF DES/ASSEMBLY_BOTTOM*
G04 Layer:  PACKAGE GEOMETRY/ASSEMBLY_TOP*
G04 Layer:  PACKAGE GEOMETRY/ASSEMBLY_BOTTOM*
G04 *
G04 Offset:    (0.000 0.000)*
G04 Mirror:    No*
G04 Mode:      Positive*
G04 Rotation:  0*
G04 FullContactRelief:  No*
G04 UndefLineWidth:     0.000*
G04 ================== end FILE IDENTIFICATION RECORD ====================*
%FSLAX25Y25*MOMM*%
%IR0*IPPOS*OFA0.00000B0.00000*MIA0B0*SFA1.00000B1.00000*%
%ADD10C,.1*%
%ADD11C,.12*%
%ADD12C,.22*%
%ADD13C,.14*%
%ADD14C,.203*%
%ADD15C,.15*%
%ADD16C,.16*%
%ADD17C,.152*%
%ADD18C,.17*%
G75*
%LPD*%
G75*
G36*
G01X4207000Y3224000D02*
X4242000Y3301000D01*
X4176000D01*
X4207000Y3224000D01*
G37*
G36*
G01X4220000Y4041000D02*
X4180000D01*
Y4001000D01*
X4220000D01*
Y4041000D01*
G37*
G36*
G01X4698000Y4335000D02*
G03I-29000J0D01*
G37*
G36*
G01X5666800Y3390200D02*
G03I-25400J0D01*
G37*
G36*
G01X8207300Y4124000D02*
G03I-60300J0D01*
G37*
G54D10*
G01X4532000Y3124000D02*
Y3054000D01*
X4482000D01*
Y3124000D01*
X4498000D01*
X4502000Y3129000D01*
X4507000Y3135000D01*
X4509000Y3133000D01*
G01D02*
X4508000Y3134000D01*
X4517000Y3124000D01*
X4532000D01*
G54D11*
G01X4104000Y2986000D02*
Y3372000D01*
X4015000D01*
X3976000Y3409000D01*
X3940000Y3372000D01*
X3854000D01*
Y2986000D01*
X4104000D01*
G01X4143000Y3148000D02*
X4463000D01*
Y3468000D01*
X4143000D01*
Y3148000D01*
G01X4075000Y3433700D02*
X4005000D01*
G01Y3465300D02*
X4048200Y3433700D01*
G01X4075000Y3470300D02*
X4028300Y3447800D01*
G01X4075000Y4086000D02*
X4055000D01*
Y3956000D01*
X4070000D01*
G01X4207000Y4086000D02*
X4225000D01*
Y3956000D01*
X4210000D01*
G01X4467000Y3176300D02*
X4537000D01*
G01Y3144700D02*
X4493800Y3176300D01*
G01X4467000Y3139700D02*
X4513700Y3162200D01*
G01X4634000Y4272000D02*
Y3952000D01*
X4414000D01*
Y4272000D01*
X4634000D01*
G01X4871700Y3060000D02*
Y3130000D01*
G01X4903300D02*
X4871700Y3086800D01*
G01X4908300Y3060000D02*
X4885800Y3106700D01*
G01X5432700Y2944000D02*
Y3014000D01*
G01X5464300D02*
X5432700Y2970800D01*
G01X5469300Y2944000D02*
X5446800Y2990700D01*
G01X5876000Y3375000D02*
X5701000D01*
X5676000Y3400000D01*
Y3675000D01*
X5876000D01*
Y3375000D01*
G01X6041000Y3760000D02*
X6541000D01*
Y4260000D01*
X6101000D01*
X6041000Y4200000D01*
Y3760000D01*
G01X6702000Y4816000D02*
Y4887000D01*
X7074000D01*
Y4684000D01*
X6702000D01*
Y4816000D01*
G01X7572000Y4592000D02*
G03I-100000J0D01*
G01X7342000Y4722000D02*
Y4462000D01*
X7602000D01*
Y4722000D01*
X7342000D01*
G54D12*
G01X11404900Y5542000D02*
Y5702000D01*
X11496100Y5542000D01*
Y5702000D01*
G01X11541900Y5542000D02*
X11591500Y5702000D01*
X11641100Y5542000D01*
G01X11623200Y5598000D02*
X11559800D01*
G01X11680900Y5542000D02*
Y5702000D01*
X11732500Y5568700D01*
X11784100Y5702000D01*
Y5542000D01*
G01X11913200D02*
X11833800D01*
Y5702000D01*
X11913200D01*
G01X11881400Y5624700D02*
X11833800D01*
G01X11955000Y5488700D02*
X12074000D01*
G01X12105900Y5542000D02*
X12155500Y5702000D01*
X12205100Y5542000D01*
G01X12187200Y5598000D02*
X12123800D01*
G01X12254800Y5563300D02*
X12270700Y5550000D01*
X12288600Y5542000D01*
X12304400D01*
X12320300Y5550000D01*
X12332200Y5563300D01*
X12338200Y5582000D01*
X12334200Y5600700D01*
X12324300Y5616700D01*
X12306400Y5627300D01*
X12282600Y5632700D01*
X12268700Y5643300D01*
X12262800Y5662000D01*
X12266800Y5680700D01*
X12276700Y5694000D01*
X12290500Y5702000D01*
X12304400D01*
X12318300Y5696700D01*
X12330200Y5683300D01*
G01X12395800Y5563300D02*
X12411700Y5550000D01*
X12429600Y5542000D01*
X12445400D01*
X12461300Y5550000D01*
X12473200Y5563300D01*
X12479200Y5582000D01*
X12475200Y5600700D01*
X12465300Y5616700D01*
X12447400Y5627300D01*
X12423600Y5632700D01*
X12409700Y5643300D01*
X12403800Y5662000D01*
X12407800Y5680700D01*
X12417700Y5694000D01*
X12431500Y5702000D01*
X12445400D01*
X12459300Y5696700D01*
X12471200Y5683300D01*
G01X12618200Y5542000D02*
X12538800D01*
Y5702000D01*
X12618200D01*
G01X12586400Y5624700D02*
X12538800D01*
G01X12667900Y5542000D02*
Y5702000D01*
X12719500Y5568700D01*
X12771100Y5702000D01*
Y5542000D01*
G01X12876400Y5627300D02*
X12884300Y5635300D01*
X12890200Y5648700D01*
X12894200Y5667300D01*
X12890200Y5683300D01*
X12882300Y5694000D01*
X12868400Y5702000D01*
X12814900D01*
Y5542000D01*
X12880300D01*
X12894200Y5552700D01*
X12902200Y5568700D01*
X12906100Y5587300D01*
X12902200Y5606000D01*
X12890200Y5622000D01*
X12876400Y5627300D01*
X12814900D01*
G01X12961800Y5702000D02*
Y5542000D01*
X13041200D01*
G01X13142500D02*
Y5614000D01*
X13102800Y5702000D01*
G01X13182200D02*
X13142500Y5614000D01*
G01X13283500Y5702000D02*
Y5542000D01*
G01X13237900Y5702000D02*
X13329100D01*
G01X13424500Y5542000D02*
X13408600Y5544700D01*
X13394800Y5555300D01*
X13382800Y5571300D01*
X13374900Y5590000D01*
X13370900Y5611300D01*
Y5632700D01*
X13374900Y5654000D01*
X13382800Y5672700D01*
X13394800Y5688700D01*
X13408600Y5699300D01*
X13424500Y5702000D01*
X13440400Y5699300D01*
X13454200Y5688700D01*
X13466200Y5672700D01*
X13474100Y5654000D01*
X13478100Y5632700D01*
Y5611300D01*
X13474100Y5590000D01*
X13466200Y5571300D01*
X13454200Y5555300D01*
X13440400Y5544700D01*
X13424500Y5542000D01*
G01X13525800D02*
Y5702000D01*
X13573400D01*
X13589300Y5694000D01*
X13601200Y5675300D01*
X13605200Y5654000D01*
X13601200Y5632700D01*
X13591300Y5616700D01*
X13573400Y5608700D01*
X13525800D01*
G54D13*
G01X6580000Y3459000D02*
X6940000D01*
Y3209000D01*
X6620000D01*
X6580000Y3249000D01*
Y3459000D01*
G54D14*
G01X3822300Y4879300D02*
X3835000Y4892000D01*
G01D02*
Y5146000D01*
G01X5390800Y4892000D02*
X3835000D01*
G01Y5146000D02*
X5390800D01*
G01D02*
Y4892000D01*
G54D15*
G01X4375000Y3108000D02*
X4144000D01*
Y2986000D01*
X4375000D01*
Y3108000D01*
G01X4071000Y3742000D02*
X4302000D01*
Y3864000D01*
X4071000D01*
Y3742000D01*
G01X4819000Y3189000D02*
X4588000D01*
Y3067000D01*
X4819000D01*
Y3189000D01*
G01X4792000Y3049000D02*
X4561000D01*
Y2927000D01*
X4792000D01*
Y3049000D01*
G01X4228000Y3486000D02*
X4459000D01*
Y3608000D01*
X4228000D01*
Y3486000D01*
G01X4819000Y3327200D02*
X4588000D01*
Y3205200D01*
X4819000D01*
Y3327200D01*
G01X4588000Y3343000D02*
X4819000D01*
Y3465000D01*
X4588000D01*
Y3343000D01*
G01X4817000Y3605000D02*
X4586000D01*
Y3483000D01*
X4817000D01*
Y3605000D01*
G01X4549000Y3932000D02*
Y3701000D01*
X4671000D01*
Y3932000D01*
X4549000D01*
G01X4407000D02*
Y3701000D01*
X4529000D01*
Y3932000D01*
X4407000D01*
G01X4608000Y4304000D02*
Y4535000D01*
X4486000D01*
Y4304000D01*
X4608000D01*
G01X4345000Y4537000D02*
Y4306000D01*
X4467000D01*
Y4537000D01*
X4345000D01*
G01X4685000Y4721000D02*
X4454000D01*
Y4599000D01*
X4685000D01*
Y4721000D01*
G01X5081000Y3040000D02*
X4832000D01*
Y3007000D01*
X4805000Y2986000D01*
X4832000Y2975000D01*
Y2938000D01*
X5081000D01*
Y3040000D01*
G01X5073000Y3326200D02*
X4842000D01*
Y3204200D01*
X5073000D01*
Y3326200D01*
G01X5072000Y3464000D02*
X4841000D01*
Y3342000D01*
X5072000D01*
Y3464000D01*
G01X5071000Y3604000D02*
X4840000D01*
Y3482000D01*
X5071000D01*
Y3604000D01*
G01X4707000Y3637000D02*
X5459000D01*
Y4388000D01*
X4783000D01*
X4707000Y4313000D01*
Y3635000D01*
G01X4713000Y4461000D02*
X4944000D01*
Y4583000D01*
X4713000D01*
Y4461000D01*
G01Y4601000D02*
X4944000D01*
Y4723000D01*
X4713000D01*
Y4601000D01*
G01X5193000Y4583000D02*
X4962000D01*
Y4461000D01*
X5193000D01*
Y4583000D01*
G01X4963000Y4602000D02*
X5194000D01*
Y4724000D01*
X4963000D01*
Y4602000D01*
G01X5217000Y3069000D02*
X5448000D01*
Y3191000D01*
X5217000D01*
Y3069000D01*
G01X5140000Y2938000D02*
X5389000D01*
Y2971000D01*
X5416000Y2992000D01*
X5389000Y3003000D01*
Y3040000D01*
X5140000D01*
Y2938000D01*
G01X5449000Y3607000D02*
X5218000D01*
Y3485000D01*
X5449000D01*
Y3607000D01*
G01X5217000Y3345000D02*
X5448000D01*
Y3467000D01*
X5217000D01*
Y3345000D01*
G01X5447000Y3329000D02*
X5216000D01*
Y3207000D01*
X5447000D01*
Y3329000D01*
G01X5232000Y4459000D02*
X5463000D01*
Y4581000D01*
X5232000D01*
Y4459000D01*
G01X5516000Y3668000D02*
Y3437000D01*
X5638000D01*
Y3668000D01*
X5516000D01*
G01X5891000Y3356000D02*
X5660000D01*
Y3234000D01*
X5891000D01*
Y3356000D01*
G01X5718000Y3972000D02*
Y3741000D01*
X5840000D01*
Y3972000D01*
X5718000D01*
G01X5488000Y4416000D02*
Y4185000D01*
X5610000D01*
Y4416000D01*
X5488000D01*
G01X5627000Y4415000D02*
Y4184000D01*
X5749000D01*
Y4415000D01*
X5627000D01*
G01X5481000Y4459000D02*
X5712000D01*
Y4581000D01*
X5481000D01*
Y4459000D01*
G01X5712000Y4723000D02*
X5481000D01*
Y4601000D01*
X5712000D01*
Y4723000D01*
G01X6078000Y3413000D02*
X6309000D01*
Y3535000D01*
X6078000D01*
Y3413000D01*
G01X6308000Y3674000D02*
X6077000D01*
Y3552000D01*
X6308000D01*
Y3674000D01*
G01X5858000Y3972000D02*
Y3741000D01*
X5980000D01*
Y3972000D01*
X5858000D01*
G01X6261000Y4486000D02*
X6030000D01*
Y4364000D01*
X6261000D01*
Y4486000D01*
G01X6262000Y4626000D02*
X6031000D01*
Y4504000D01*
X6262000D01*
Y4626000D01*
G01X6435000Y3472000D02*
Y3241000D01*
X6557000D01*
Y3472000D01*
X6435000D01*
G01X6512000Y4626000D02*
X6281000D01*
Y4504000D01*
X6512000D01*
Y4626000D01*
G01X6511000Y4486000D02*
X6280000D01*
Y4364000D01*
X6511000D01*
Y4486000D01*
G01X6613000Y3833000D02*
Y3602000D01*
X6735000D01*
Y3833000D01*
X6613000D01*
G01X6754000Y3832000D02*
Y3601000D01*
X6876000D01*
Y3832000D01*
X6754000D01*
G01X6841000Y3885000D02*
Y4116000D01*
X6719000D01*
Y3885000D01*
X6841000D01*
G01X6654000Y4541000D02*
X6885000D01*
Y4663000D01*
X6654000D01*
Y4541000D01*
G01X6811000Y4287000D02*
Y4518000D01*
X6689000D01*
Y4287000D01*
X6811000D01*
G01X6669000Y4286000D02*
Y4517000D01*
X6547000D01*
Y4286000D01*
X6669000D01*
G01X7088000Y3242000D02*
Y3473000D01*
X6966000D01*
Y3242000D01*
X7088000D01*
G01X7127000Y3817000D02*
X6896000D01*
Y3695000D01*
X7127000D01*
Y3817000D01*
G01X7096000Y3990000D02*
X6865000D01*
Y3868000D01*
X7096000D01*
Y3990000D01*
G01Y4130000D02*
X6865000D01*
Y4008000D01*
X7096000D01*
Y4130000D01*
G01X7073000Y4385000D02*
Y4154000D01*
X7195000D01*
Y4385000D01*
X7073000D01*
G01X7346000Y4063000D02*
X7115000D01*
Y3941000D01*
X7346000D01*
Y4063000D01*
G01X6930000Y4385000D02*
Y4154000D01*
X7052000D01*
Y4385000D01*
X6930000D01*
G01X7131000Y4665000D02*
X6900000D01*
Y4543000D01*
X7131000D01*
Y4665000D01*
G01X7599000Y3687000D02*
Y3918000D01*
X7477000D01*
Y3687000D01*
X7599000D01*
G01X7347000Y3688000D02*
Y3919000D01*
X7225000D01*
Y3688000D01*
X7347000D01*
G01X7597000Y4062000D02*
X7366000D01*
Y3940000D01*
X7597000D01*
Y4062000D01*
G01X7348000Y4084000D02*
Y4315000D01*
X7226000D01*
Y4084000D01*
X7348000D01*
G01X7853000Y3689000D02*
Y3920000D01*
X7731000D01*
Y3689000D01*
X7853000D01*
G01X7852000Y4060000D02*
X7621000D01*
Y3938000D01*
X7852000D01*
Y4060000D01*
G54D16*
G01X3792000Y4616000D02*
X1912000D01*
Y3416000D01*
X3792000D01*
Y4616000D01*
G01D02*
X1912000D01*
Y3416000D01*
X3792000D01*
Y4616000D01*
G01X3377000Y4596000D02*
Y3436000D01*
G01Y4616000D02*
Y3421000D01*
G01X6005000Y2955000D02*
Y3115000D01*
X5845000D01*
Y2955000D01*
X6005000D01*
G01D02*
Y3115000D01*
X5845000D01*
Y2955000D01*
X6005000D01*
G01X5844000Y5062000D02*
Y4902000D01*
X6004000D01*
Y5062000D01*
X5844000D01*
G01D02*
Y4902000D01*
X6004000D01*
Y5062000D01*
X5844000D01*
G01X8211000Y4050000D02*
X8027000D01*
Y3439000D01*
X8247000D01*
Y4050000D01*
X8211000D01*
G54D17*
G01X6612600Y4659400D02*
X6231600D01*
G01D02*
Y4862600D01*
G01D02*
X6612600D01*
G01D02*
Y4659400D01*
G54D18*
G01X6180000Y2900000D02*
X5660000D01*
Y3180000D01*
X6190000D01*
Y2900000D01*
X6180000D01*
G01D02*
X5660000D01*
Y3180000D01*
X6190000D01*
Y2900000D01*
X6180000D01*
G01X5669000Y5117000D02*
X6189000D01*
Y4837000D01*
X5659000D01*
Y5117000D01*
X5669000D01*
G01D02*
X6189000D01*
Y4837000D01*
X5659000D01*
Y5117000D01*
X5669000D01*
M02*
