G04 ================== begin FILE IDENTIFICATION RECORD ==================*
G04 Layout Name:  C:/Vss09/EAP/0021.13/BLUE_NRG_Dongle/BLUE_NRG_Dongle.brd*
G04 Film Name:    BLUE_NRG_DONGLE_TOP*
G04 File Format:  Gerber RS274X*
G04 File Origin:  Cadence Allegro 16.6-S018*
G04 Origin Date:  Mon Mar 17 13:59:26 2014*
G04 *
G04 Layer:  ETCH/TOP*
G04 Layer:  PIN/TOP*
G04 Layer:  VIA CLASS/TOP*
G04 *
G04 Offset:    (0.000 0.000)*
G04 Mirror:    No*
G04 Mode:      Positive*
G04 Rotation:  0*
G04 FullContactRelief:  No*
G04 UndefLineWidth:     0.000*
G04 ================== end FILE IDENTIFICATION RECORD ====================*
%FSLAX25Y25*MOMM*%
%IR0*IPPOS*OFA0.00000B0.00000*MIA0B0*SFA1.00000B1.00000*%
%ADD19R,.3X1.*%
%ADD24R,2.1X.6*%
%ADD40R,2.X.8*%
%ADD12C,1.016*%
%ADD33R,3.1X3.1*%
%ADD21C,1.575*%
%ADD20R,1.575X1.575*%
%ADD35R,.991X1.194*%
%ADD38R,1.05X1.*%
%ADD30R,1.2X1.2*%
%ADD29R,1.X1.4*%
%ADD37R,1.X1.6*%
%ADD36R,1.4X1.2*%
%ADD13R,2.2X1.4*%
%ADD39R,2.2X1.05*%
%ADD11O,3.4X1.8*%
%ADD31R,.3X.5*%
%ADD28R,.6X.3*%
%ADD27R,.3X.6*%
%ADD32R,.8X.3*%
%ADD34R,.3X.8*%
%ADD18R,.5X.6*%
%ADD26R,5.6X5.5*%
%ADD22O,.37X.18*%
%ADD17R,2.48X1.6*%
%ADD10C,.45*%
%ADD23R,.37X.18*%
%ADD15R,1.95X2.65*%
%ADD16R,.65X.85*%
%ADD14R,.56X.56*%
%ADD25R,.79X.79*%
%ADD41C,.2*%
%ADD42C,.3*%
%ADD43C,.22*%
%ADD44C,.4*%
%ADD45C,.5*%
%ADD46C,.6*%
%ADD47C,.508*%
%ADD48C,2.14*%
G75*
%LPD*%
G75*
G36*
G01X3389000Y5146000D02*
X3805100D01*
X3819900Y5131200D01*
Y4543100D01*
X3733100Y4456300D01*
Y3570000D01*
X3812200Y3490900D01*
Y2924700D01*
X3771500Y2884000D01*
X3389000D01*
Y5146000D01*
G37*
G36*
G01X3863200Y2883000D02*
Y3063300D01*
X3918300D01*
Y2915300D01*
X4039700D01*
Y3063300D01*
X4054900D01*
X4080100Y3036700D01*
X4123000Y2993800D01*
X4148800D01*
Y2991800D01*
X4371200D01*
Y3052900D01*
G02X4388600Y3060200I10205J62D01*
G01X4446000Y3002800D01*
X4565800D01*
Y2932800D01*
X4788200D01*
Y2945800D01*
X4813300D01*
Y2921300D01*
X4948700D01*
Y3056700D01*
X4813300D01*
Y3032200D01*
X4788200D01*
Y3045200D01*
X4659800D01*
G02X4652600Y3062600I7J10192D01*
G01X4662800Y3072800D01*
X4815200D01*
Y3148100D01*
G02X4825200Y3158300I10192J10D01*
G03X4874600Y3205300I-1181J50703D01*
G01X4874900Y3210000D01*
X5069200D01*
Y3322400D01*
X4846800D01*
Y3320400D01*
X4815200D01*
Y3323400D01*
X4708200D01*
Y3346800D01*
X4814200D01*
Y3349800D01*
X4827000D01*
G03X4839500Y3351300I-43J53195D01*
G01X4840100Y3351400D01*
X4845800D01*
Y3347800D01*
X5068200D01*
Y3363500D01*
G02X5076900Y3367100I5104J-22D01*
G01X5080800Y3363200D01*
Y3092800D01*
X5044700Y3056700D01*
X4963300D01*
Y2921300D01*
X5098700D01*
Y3002700D01*
X5104900Y3008900D01*
G02X5122300Y3001700I7198J-7231D01*
G01Y2921300D01*
X5257700D01*
Y3036000D01*
G02X5266400Y3039600I5104J-22D01*
G01X5272300Y3033700D01*
Y2921300D01*
X5407700D01*
Y3056700D01*
X5357300D01*
X5349900Y3064100D01*
G02X5353500Y3072800I3622J3596D01*
G01X5443200D01*
Y3162800D01*
X5514200D01*
X5595200Y3081800D01*
X5641800D01*
Y2883000D01*
X3863200D01*
G37*
G36*
G01X4001200Y3384700D02*
Y3567800D01*
X4050200D01*
Y3622800D01*
X4086900D01*
X4182200Y3718100D01*
Y3745800D01*
X4273800D01*
Y3647200D01*
X4301400Y3619600D01*
G02X4294200Y3602200I-7231J-7198D01*
G01X4231800D01*
Y3496200D01*
X4154800D01*
Y3491200D01*
X4148200D01*
X4077300Y3420300D01*
Y3384700D01*
X4001200D01*
G37*
G36*
G01X4050200Y3732900D02*
Y3764200D01*
X3863200D01*
Y3817800D01*
X4050200D01*
Y3862800D01*
X4074800D01*
Y3745800D01*
X4075400D01*
G02X4079000Y3737100I-5J-5097D01*
G01X4067600Y3725700D01*
G02X4050200Y3732900I-7205J7214D01*
G37*
G36*
G01X4208700Y4698100D02*
G03X4229100Y4603900I25593J-43767D01*
G01X4230900Y4603700D01*
X4238400Y4596200D01*
X4234400Y4592200D01*
X4233900Y4591900D01*
G03X4210400Y4552400I27107J-42867D01*
G01X4210300Y4551100D01*
X4209800Y4550300D01*
Y4292200D01*
X4224800Y4277200D01*
Y4252600D01*
G02X4213700Y4242500I-10191J50D01*
G03X4158400Y4194300I-4661J-50475D01*
G01X4158300Y4192400D01*
X4145100Y4179200D01*
X4128200D01*
Y4179900D01*
X4119100Y4189000D01*
X4118800Y4190000D01*
G03X4081000Y4222700I-47768J-17020D01*
G03X4034100Y4214200I-17024J-39704D01*
G01X3863200D01*
Y4267800D01*
X4050200D01*
Y4464200D01*
X3863200D01*
Y4912000D01*
X4069000D01*
Y5126000D01*
X3863200D01*
Y5148300D01*
X5640800D01*
Y4930200D01*
X5617200D01*
X5503800Y4816800D01*
Y4719200D01*
X5485800D01*
Y4606800D01*
X5502800D01*
Y4575200D01*
X5484800D01*
Y4462800D01*
X5512800D01*
X5521000Y4454600D01*
X5521200Y4452800D01*
G03X5530500Y4428400I50401J5238D01*
G02X5522200Y4412200I-8276J-5986D01*
G01X5491800D01*
Y4372900D01*
X5450100Y4331200D01*
X5401200D01*
Y4412900D01*
X5368700Y4445400D01*
G02X5375900Y4462800I7214J7205D01*
G01X5458200D01*
Y4575200D01*
X5335200D01*
Y4976900D01*
X5331800Y4980300D01*
G03X5238000Y4912200I-99745J38738D01*
G02X5248800Y4902000I593J-10190D01*
G01Y4631900D01*
G02X5231400Y4624700I-10195J14D01*
G01X5189200Y4666900D01*
Y4718200D01*
X5176200D01*
Y4881900D01*
X5077800Y4980300D01*
G03X5013700Y4918100I-99781J38700D01*
G01X5016700Y4919200D01*
X5089800Y4846100D01*
Y4718200D01*
X5068500D01*
Y4733700D01*
X5069100Y4734800D01*
G03X4977500Y4778200I-45126J23123D01*
G01X4786100D01*
X4729800Y4721900D01*
Y4717200D01*
X4716800D01*
Y4604800D01*
X4731000D01*
X4731400Y4587600D01*
G02X4721200Y4577200I-10196J-202D01*
G01X4716800D01*
Y4464800D01*
X4729800D01*
Y4435100D01*
X4764800Y4400100D01*
Y4371900D01*
G02X4747400Y4364700I-10195J14D01*
G01X4697900Y4414200D01*
X4604200D01*
Y4530200D01*
X4491800D01*
Y4475900D01*
G02X4474400Y4468700I-10195J14D01*
G01X4461200Y4481900D01*
Y4533200D01*
X4442200D01*
Y4611200D01*
X4445900Y4612200D01*
G03X4451700Y4614300I-14332J48644D01*
G01X4452700Y4614700D01*
X4458800D01*
Y4604800D01*
X4681200D01*
Y4717200D01*
X4665200D01*
Y4798900D01*
X4540300Y4923800D01*
G02X4540700Y4938700I7160J7263D01*
G03X4423900Y4922400I-70742J80289D01*
G01X4426800Y4921100D01*
Y4915100D01*
X4578800Y4763100D01*
Y4717200D01*
X4458500D01*
G02X4445800Y4709800I-9902J2395D01*
G03X4385500Y4681300I-13822J-48798D01*
G02X4369000Y4678100I-9345J4045D01*
G01X4259200Y4787900D01*
Y4921100D01*
G03X4172800I-43200J97900D01*
G01Y4752100D01*
X4210800Y4714100D01*
G02X4208700Y4698100I-7212J-7191D01*
G37*
G36*
G01X4613000Y3573000D02*
Y3574000D01*
X4617000Y3578000D01*
X4677000D01*
X4680000Y3575000D01*
Y3242000D01*
X4675000Y3237000D01*
X4557000D01*
X4542000Y3222000D01*
Y3116000D01*
X4526000Y3100000D01*
X4490000D01*
X4477000Y3113000D01*
Y3322500D01*
X4557900Y3403400D01*
X4556400D01*
X4614000Y3461000D01*
Y3572000D01*
X4613000Y3573000D01*
G37*
G36*
G01X4621000Y3160000D02*
X4675000D01*
X4678000Y3157000D01*
Y3127900D01*
X4581100Y3031000D01*
X4459000D01*
X4369000Y3121000D01*
Y3207000D01*
X4370000Y3208000D01*
X4423000D01*
X4424000Y3207000D01*
Y3140000D01*
X4423000Y3139000D01*
X4478000Y3084000D01*
X4545000D01*
X4621000Y3160000D01*
G37*
G36*
G01X4570200Y3173700D02*
Y3208800D01*
X4686700D01*
X4688900Y3211000D01*
X4773100D01*
X4773400Y3206200D01*
G03X4774600Y3197700I50607J2810D01*
G02X4764600Y3185200I-9943J-2295D01*
G01X4689700D01*
X4686700Y3188200D01*
X4609300D01*
X4606300Y3185200D01*
X4592800D01*
Y3171700D01*
X4587600Y3166500D01*
G02X4570200Y3173700I-7208J7207D01*
G37*
G36*
G01X4455200Y3365200D02*
Y3416200D01*
X4451200D01*
Y3489800D01*
X4454200D01*
Y3593800D01*
X4584000D01*
X4586600Y3587500D01*
X4584800Y3585700D01*
Y3561300D01*
X4585800Y3560300D01*
Y3472700D01*
X4488300Y3375200D01*
X4489800D01*
X4472600Y3358000D01*
G02X4455200Y3365200I-7208J7207D01*
G37*
G36*
G01X4382100Y4020300D02*
X4372200Y4030200D01*
Y4280200D01*
X4382100Y4290100D01*
G02X4390800Y4286500I3596J-3622D01*
G01Y4023900D01*
G02X4382100Y4020300I-5104J22D01*
G37*
G36*
G01X4399600Y4307600D02*
X4402800Y4310800D01*
X4461200D01*
Y4335100D01*
G02X4478600Y4342300I10195J-14D01*
G01X4491800Y4329100D01*
Y4307800D01*
X4601600D01*
X4602500Y4303800D01*
G03X4602800Y4302800I48645J14049D01*
G02X4592900Y4290200I-9914J-2400D01*
G01X4406800D01*
G02X4399600Y4307600I31J10202D01*
G37*
G36*
G01X4845800Y3454600D02*
X4840100D01*
X4839500Y3454700D01*
G03X4827000Y3456200I-12543J-51695D01*
G01X4814200D01*
Y3459200D01*
X4708200D01*
Y3488800D01*
X4813200D01*
Y3491800D01*
X4844800D01*
Y3487800D01*
X5030800D01*
Y3460200D01*
X4845800D01*
Y3454600D01*
G37*
G36*
G01X4851200Y4408200D02*
Y4435900D01*
X4839700Y4447400D01*
G02X4846900Y4464800I7214J7205D01*
G01X4939200D01*
Y4577200D01*
X4818000D01*
X4817700Y4594400D01*
G02X4827900Y4604800I10184J214D01*
G01X4939200D01*
Y4691800D01*
X4966800D01*
Y4605800D01*
X5128100D01*
X5137300Y4596600D01*
G02X5130100Y4579200I-7214J-7205D01*
G01X4966800D01*
Y4465600D01*
G02X4969300Y4449400I-4721J-9021D01*
G01X4964500Y4444600D01*
Y4408200D01*
X4851200D01*
G37*
G36*
G01X5626800Y3158200D02*
X5545800Y3239200D01*
X5532700D01*
G02X5523000Y3252700I-49J10199D01*
G03X5457000Y3316400I-48006J16303D01*
G02X5443200Y3325200I-3622J9540D01*
G01X5315200D01*
Y3348800D01*
X5443200D01*
Y3462900D01*
G03X5471800Y3499600I-21238J46045D01*
G01X5472600Y3503800D01*
X5492900D01*
X5502400Y3513300D01*
G02X5519800Y3506100I7205J-7214D01*
G01Y3441800D01*
X5603500D01*
G02X5612900Y3427800I-55J-10192D01*
G03X5654200Y3358600I47095J-18817D01*
G03X5661600Y3354600I21761J31413D01*
G01X5664800Y3353300D01*
Y3239800D01*
X5744600D01*
X5748800Y3235600D01*
G02X5741600Y3218200I-7231J-7198D01*
G01X5641800D01*
Y3158200D01*
X5626800D01*
G37*
G36*
G01X5222800Y3521300D02*
Y3490800D01*
X5374600D01*
X5375900Y3487800D01*
G03X5382100Y3477700I46027J21302D01*
G02X5374100Y3461200I-8007J-6307D01*
G01X5220800D01*
Y3427800D01*
G02X5203400Y3420600I-10202J31D01*
G01X5145200Y3478800D01*
Y3499400D01*
G02X5157000Y3509500I10208J17D01*
G03X5204700Y3527700I8237J50019D01*
G02X5222800Y3521300I7906J-6434D01*
G37*
G36*
G01X5657800Y3468200D02*
Y3459800D01*
X5653400Y3459300D01*
G03X5645300Y3457500I6912J-50231D01*
G02X5632200Y3467300I-2896J9784D01*
G01Y3596800D01*
X5657800D01*
Y3581800D01*
X5687800D01*
Y3468200D01*
X5657800D01*
G37*
G36*
G01X5445200Y3590200D02*
Y3603200D01*
X5401200D01*
Y3694800D01*
X5433600D01*
X5434900Y3691800D01*
G03X5504800Y3668200I46087J21186D01*
G02X5519800Y3659200I4813J-8978D01*
G01Y3648200D01*
X5515100D01*
X5457100Y3590200D01*
X5445200D01*
G37*
G36*
G01X5600800Y4021600D02*
G03X5542300Y4078000I-50288J6378D01*
G03X5538900Y4087500I-49206J-12252D01*
G02X5543500Y4094800I4606J2197D01*
G01X5585900D01*
G03X5681700Y4116800I45103J23179D01*
G01X5681800Y4121800D01*
X5702200D01*
G02X5709400Y4104400I-31J-10202D01*
G01X5618100Y4013100D01*
G02X5600800Y4021600I-7176J7249D01*
G37*
G36*
G01X5604200Y4399200D02*
Y4419200D01*
G03X5622300Y4457700I-32592J38827D01*
G01Y4462800D01*
X5707200D01*
Y4575200D01*
X5579200D01*
Y4606800D01*
X5708200D01*
Y4619800D01*
X5721900D01*
X5755000Y4652900D01*
X5766800Y4641100D01*
Y4464900D01*
X5713100Y4411200D01*
X5630800D01*
Y4399200D01*
X5604200D01*
G37*
G36*
G01X5808100Y4722000D02*
X5804300Y4725800D01*
X5804000Y4727100D01*
G03X5706000I-49000J-13100D01*
G01X5705700Y4725800D01*
X5699100Y4719200D01*
X5580200D01*
Y4785200D01*
X5623400Y4828400D01*
G02X5640800Y4821200I7198J-7231D01*
G01Y4798800D01*
X5797200D01*
Y4858800D01*
X5825300D01*
G02X5833500Y4842500I31J-10197D01*
G03X5825000Y4825100I40473J-30547D01*
G01X5824700Y4823800D01*
X5816800Y4815900D01*
Y4725600D01*
G02X5808100Y4722000I-5097J5D01*
G37*
G36*
G01X5798200Y2883000D02*
Y3081800D01*
X6051800D01*
Y2883000D01*
X5798200D01*
G37*
G36*
G01X5915800Y3206800D02*
X5974200Y3265200D01*
Y3632800D01*
X5968600Y3638400D01*
X5968400Y3640200D01*
G03X5901000Y3682800I-50435J-5178D01*
G01X5900200Y3682500D01*
X5894200D01*
Y3688200D01*
X5889200D01*
Y3706100D01*
X5889600Y3707100D01*
G03X5893200Y3734200I-46592J19978D01*
G02X5903300Y3745800I10095J1408D01*
G01X5974200D01*
Y3791800D01*
X6072800D01*
Y3701800D01*
X6227800D01*
Y3670200D01*
X6081800D01*
Y3557800D01*
X6209800D01*
Y3529200D01*
X6081800D01*
Y3416800D01*
X6304200D01*
Y3529200D01*
X6286200D01*
Y3557800D01*
X6304200D01*
Y3701800D01*
X6463200D01*
G02X6470400Y3684400I-31J-10202D01*
G01X6381800Y3595800D01*
Y3346200D01*
X6438800Y3289200D01*
Y3245800D01*
X6497300D01*
X6547400Y3210800D01*
X6551800D01*
Y3165800D01*
X6748200D01*
Y3457200D01*
G02X6765600Y3464400I10202J-31D01*
G01X6771800Y3458200D01*
Y3165800D01*
X6968200D01*
Y3245800D01*
X7084200D01*
Y3468200D01*
X6968200D01*
Y3502200D01*
X6835800D01*
X6746800Y3591200D01*
X6660800D01*
X6653900Y3598100D01*
G02X6657500Y3606800I3622J3596D01*
G01X6729200D01*
Y3729800D01*
X6757800D01*
Y3605800D01*
X6870200D01*
Y3828200D01*
X6797100D01*
G03X6708900Y3831600I-45060J-23213D01*
G01X6707400Y3829200D01*
X6698200D01*
Y3926900D01*
X6692000Y3933100D01*
G02X6695600Y3941800I3605J3603D01*
G01X6723100D01*
X6724800Y3940100D01*
Y3888800D01*
X6837200D01*
Y3891400D01*
X6869800D01*
Y3873800D01*
X6903400D01*
Y3813200D01*
X6900800D01*
Y3700800D01*
X7123200D01*
Y3813200D01*
X7010600D01*
Y3873800D01*
X7092200D01*
Y3949400D01*
X7119800D01*
Y3946800D01*
X7232400D01*
Y3914200D01*
X7230800D01*
Y3691800D01*
X7343200D01*
Y3914200D01*
X7339600D01*
Y3946800D01*
X7342200D01*
Y3948400D01*
X7370800D01*
Y3945800D01*
X7483400D01*
Y3913200D01*
X7482800D01*
Y3690800D01*
X7595200D01*
Y3913200D01*
X7590600D01*
Y3945800D01*
X7593200D01*
Y3948400D01*
X7625800D01*
Y3943800D01*
X7739400D01*
Y3915200D01*
X7736800D01*
Y3692800D01*
X7828000D01*
Y2883000D01*
X6208200D01*
Y3218200D01*
X6051800D01*
Y3158200D01*
X5798200D01*
Y3206800D01*
X5915800D01*
G37*
G36*
G01X5903200Y4388300D02*
Y4770600D01*
G03X5914500Y4842500I-29205J41428D01*
G02X5922700Y4858800I8169J6103D01*
G01X6050800D01*
Y4798800D01*
X6207200D01*
Y5148300D01*
X7828000D01*
Y4056200D01*
X7625800D01*
Y4055600D01*
X7593200D01*
Y4058200D01*
X7370800D01*
Y4055600D01*
X7342200D01*
Y4059200D01*
X7339600D01*
Y4087800D01*
X7344200D01*
Y4310200D01*
X7341600D01*
Y4363800D01*
X7610200D01*
Y4525200D01*
X7400200D01*
Y4658800D01*
X7610200D01*
Y4820200D01*
X7333800D01*
Y4670200D01*
X7238800D01*
Y4587100D01*
X7234400Y4582700D01*
Y4310200D01*
X7231800D01*
Y4087800D01*
X7232400D01*
Y4059200D01*
X7119800D01*
Y4056600D01*
X7092200D01*
Y4126200D01*
X6978100D01*
Y4157300D01*
X6979600Y4158800D01*
X7046200D01*
Y4271800D01*
X7076800D01*
Y4158800D01*
X7189200D01*
Y4381200D01*
X7076800D01*
Y4378200D01*
X7046200D01*
Y4381200D01*
X6933800D01*
Y4264600D01*
X6870900Y4201700D01*
Y4126200D01*
X6869800D01*
Y4123600D01*
X6773800D01*
X6761400Y4111200D01*
X6724800D01*
Y4078200D01*
X6697800D01*
G02X6687800Y4090300I3J10185D01*
G03X6662600Y4144300I-49776J9651D01*
G03X6647300Y4205800I-46083J21189D01*
G02X6646300Y4221100I6206J8088D01*
G01X6647200Y4222000D01*
Y4250700D01*
G02X6665700Y4256600I10198J-24D01*
G03X6756000Y4272900I41315J29396D01*
G01X6756300Y4274200D01*
X6761500Y4279400D01*
X6768200Y4290800D01*
X6807200D01*
Y4513200D01*
X6694800D01*
Y4375200D01*
X6686200D01*
X6665200Y4375500D01*
Y4512200D01*
X6555200D01*
Y4673100D01*
X6601400D01*
Y4848900D01*
X6446000D01*
Y4673100D01*
X6468800D01*
Y4622200D01*
X6385200D01*
Y4661900D01*
X6382700Y4664400D01*
G02X6386300Y4673100I3605J3603D01*
G01X6400800D01*
Y4848900D01*
X6245200D01*
Y4673100D01*
X6279800D01*
Y4645100D01*
X6294000Y4630900D01*
G02X6290400Y4622200I-3605J-3603D01*
G01X6285800D01*
Y4509800D01*
X6298800D01*
Y4482200D01*
X6284800D01*
Y4437400D01*
G02X6268500Y4429200I-10201J-23D01*
G01X6257200Y4437700D01*
Y4482200D01*
X6245200D01*
Y4509800D01*
X6258200D01*
Y4622200D01*
X6035800D01*
Y4509800D01*
X6158800D01*
Y4482200D01*
X6034800D01*
Y4369800D01*
X6203800D01*
X6222800Y4355500D01*
Y4318200D01*
X6189400D01*
X6156400Y4351200D01*
X6155800D01*
X6152800Y4354200D01*
X5949800D01*
G03X5928300Y4255500I-6676J-50237D01*
G02X5932500Y4238500I-2998J-9759D01*
G01X5926900Y4232900D01*
X5923700Y4234300D01*
G03X5869700Y4226200I-20663J-46296D01*
G01X5831200D01*
X5825200Y4220200D01*
X5743200D01*
Y4238400D01*
X5903200Y4388300D01*
G37*
G36*
G01X5797200Y4935200D02*
Y5065000D01*
G03X5808600Y5132600I-31177J40019D01*
G02X5817100Y5148300I8548J5523D01*
G01X6050800D01*
Y4935200D01*
X5797200D01*
G37*
G36*
G01X6551800Y3468200D02*
X6458200D01*
Y3564200D01*
X6547500Y3653500D01*
G02X6564900Y3646300I7198J-7231D01*
G01Y3579100D01*
X6629200Y3514800D01*
X6715200D01*
X6719100Y3510900D01*
G02X6715500Y3502200I-3622J-3596D01*
G01X6551800D01*
Y3468200D01*
G37*
%LPC*%
G75*
G36*
G01X7127200Y4653100D02*
Y4548800D01*
X6904800D01*
Y4661200D01*
X6969800D01*
Y4676800D01*
X6934800D01*
Y4893200D01*
X7091200D01*
Y4760500D01*
G03X7102500Y4750400I10197J37D01*
G02X7127200Y4653100I5471J-50396D01*
G37*
G36*
G01X6880200Y4657200D02*
Y4544800D01*
X6657800D01*
Y4650200D01*
X6654700Y4651500D01*
G02X6666600Y4748000I20275J46483D01*
G01X6670800Y4748700D01*
Y4753900D01*
X6684800Y4767900D01*
Y4893200D01*
X6841200D01*
Y4676800D01*
X6757200D01*
Y4657200D01*
X6880200D01*
G37*
G54D48*
X4724000Y5019000D03*
%LPD*%
G75*
G54D10*
X3501000Y3040000D03*
X3701000D03*
Y3240000D03*
X3501000Y3440000D03*
Y3240000D03*
Y3640000D03*
Y3840000D03*
Y4040000D03*
Y4240000D03*
Y4440000D03*
Y4640000D03*
X3701000Y4840000D03*
X3501000D03*
X3701000Y5040000D03*
X3501000D03*
X4085000Y2947000D03*
X4022000Y2955000D03*
X4023000Y3428000D03*
X4210000Y3308000D03*
X4058000Y3816000D03*
X4025000Y3535000D03*
X4223000Y3706000D03*
X4209000Y4192000D03*
X4071000Y4173000D03*
X4060000Y4543000D03*
X4146000Y4614000D03*
X4101000Y4286200D03*
X4234300Y4654300D03*
X4059000Y4819000D03*
X3977000Y4731000D03*
X3902000Y4819000D03*
X3899000Y4665000D03*
X4330000Y2949000D03*
X4375000Y2915000D03*
X4313000Y3308000D03*
X4399000D03*
X4504000Y3549000D03*
X4540000Y3723000D03*
X4252000Y3895000D03*
X4402400Y3872500D03*
X4391100Y4112000D03*
X4301000Y4346000D03*
X4261000Y4549000D03*
X4355000Y4846000D03*
X4432000Y4661000D03*
X4599000Y5098000D03*
X4342000Y5096000D03*
X4813000Y3105000D03*
X4808000Y2917000D03*
X4852000Y3476000D03*
X4827000Y3403000D03*
X4824000Y3209000D03*
X4851000Y3769000D03*
X4815000Y3573000D03*
X4677500Y3787000D03*
X4838000Y4137000D03*
X4867000Y3938000D03*
X4835000Y4266000D03*
X4688000Y4582000D03*
X4949000Y4575000D03*
X4652000Y4315000D03*
X4673000Y4849000D03*
X4851000Y5101000D03*
X5107000Y2918000D03*
X5045000Y3330000D03*
X5237200Y3480400D03*
X5009000Y3467000D03*
X5240000Y3339000D03*
X5049000Y3781000D03*
X5310000Y3772200D03*
X5211000Y3611000D03*
X5165200Y3559500D03*
X5328000Y4134000D03*
X5312000Y4266000D03*
X5079000Y4136000D03*
X5087000Y3943000D03*
X5215000Y4785000D03*
X5024000Y4758000D03*
X5101000Y5100000D03*
X5366000Y5105000D03*
X5596000Y2931000D03*
X5493000Y3041800D03*
X5445000Y3429000D03*
X5603000Y3234000D03*
X5475000Y3269000D03*
X5422000Y3509000D03*
X5660000Y3409000D03*
X5419000Y3673000D03*
X5637000Y3740000D03*
X5709000Y3745000D03*
X5481000Y3713000D03*
X5534000Y3888000D03*
X5550500Y4028000D03*
X5631000Y4118000D03*
X5493000Y4066000D03*
X5402000Y4599000D03*
X5571600Y4458000D03*
X5445000Y4933000D03*
X5567000Y4929000D03*
X5388000Y4787000D03*
X5566000Y5105000D03*
X5925000Y3037000D03*
X5796000Y2931000D03*
X5996000D03*
X5995000Y3191000D03*
X6044000Y3506000D03*
X5776000Y3525000D03*
X6046300Y3419000D03*
X5883000Y3337000D03*
X6044000Y3686000D03*
X5843000Y3727000D03*
X5918000Y3635000D03*
X5863000Y4128000D03*
X5903000Y4188000D03*
X5967000Y4590000D03*
X6003000Y4492000D03*
X5748200Y4556000D03*
X5943000Y4304000D03*
X5967000Y4774000D03*
X5920000Y4991000D03*
X5874000Y4812000D03*
X5755000Y4714000D03*
X5966000Y5105000D03*
X5766000D03*
X6396000Y2931000D03*
X6196000D03*
X6483000Y3028000D03*
X6338000Y3157000D03*
X6341000Y3282000D03*
X6345000Y3394000D03*
Y3515000D03*
X6438000Y3157000D03*
X6135000Y3255000D03*
X6165000Y3885000D03*
X6215000D03*
X6265000D03*
X6315000D03*
X6365000D03*
X6415000D03*
X6369000Y3675000D03*
X6315000Y3935000D03*
X6265000D03*
X6215000D03*
X6165000D03*
Y3985000D03*
X6215000D03*
X6265000D03*
X6315000D03*
Y4035000D03*
X6265000D03*
X6215000D03*
X6165000D03*
Y4085000D03*
X6215000D03*
X6265000D03*
X6315000D03*
X6365000D03*
Y4035000D03*
Y3985000D03*
Y3935000D03*
X6415000D03*
Y3985000D03*
Y4035000D03*
Y4085000D03*
Y4135000D03*
X6365000D03*
X6315000D03*
X6265000D03*
X6215000D03*
X6165000D03*
X6185000Y4352000D03*
X6452000Y4635000D03*
X6177000Y4772000D03*
X6484000Y5023000D03*
X6384000Y4923000D03*
X6284000D03*
X6384000Y5023000D03*
X6380000Y5118000D03*
X6484000Y5115000D03*
X6796000Y3031000D03*
X6596000D03*
X6840000Y3104000D03*
X6596000Y2931000D03*
X6796000D03*
X6593000Y3128000D03*
X6760000Y3332000D03*
X6840000Y3857000D03*
X6752000Y3805000D03*
X6832000Y4159000D03*
X6638000Y4100000D03*
X6616500Y4165500D03*
X6653000Y4534000D03*
X6510800Y4294000D03*
X6707000Y4286000D03*
X6781000Y4922000D03*
X6681000D03*
X6784000Y5023000D03*
X6584000D03*
X6684000D03*
X6581000Y4922000D03*
X6675000Y4698000D03*
X6683000Y5113000D03*
X6583000D03*
X6785000Y5109000D03*
X7196000Y3031000D03*
X6996000D03*
Y2931000D03*
X7196000D03*
X7140000Y3475000D03*
X7138000Y3157000D03*
X7140000Y3275000D03*
Y3375000D03*
X7199000Y3530000D03*
X7169000Y3896000D03*
X6996000Y3631000D03*
X7094000Y3563000D03*
X7196000Y3631000D03*
X7164000Y3816000D03*
X6914000Y3620200D03*
X6885000Y4269000D03*
X7164000Y4123000D03*
X7208000Y4407000D03*
X7202000Y4503000D03*
X7206000Y4603000D03*
X6893000Y4606000D03*
X7057000Y4463000D03*
X7081000Y4922000D03*
X6981000D03*
X6881000D03*
X6984000Y5023000D03*
X6884000D03*
X7084000D03*
X7108000Y4700000D03*
X6885000Y5109000D03*
X7083000Y5107000D03*
X6983000D03*
X7596000Y3031000D03*
X7396000D03*
Y3131000D03*
X7596000D03*
Y2931000D03*
X7396000D03*
Y3231000D03*
X7596000D03*
Y3331000D03*
Y3431000D03*
X7275000Y3157000D03*
X7299000Y3530000D03*
X7396000Y3531000D03*
X7596000D03*
X7496000Y3530000D03*
X7397000Y3708000D03*
X7296000Y3631000D03*
X7396000D03*
X7496000D03*
X7596000D03*
X7397000Y4222000D03*
X7387000Y4120000D03*
X7597000Y4122000D03*
Y4222000D03*
X7580000Y4594000D03*
X7497000Y4322000D03*
X7397000D03*
X7597000D03*
X7469000Y4591000D03*
X7487000Y4825000D03*
X7283000Y4821000D03*
X7587000Y4825000D03*
X7387000D03*
X7796000Y2931000D03*
Y3031000D03*
Y3131000D03*
Y3231000D03*
Y3331000D03*
Y3431000D03*
X7701000Y3529000D03*
X7661000Y3707000D03*
X7796000Y3531000D03*
Y3631000D03*
X7696000D03*
X7697000Y4222000D03*
X7797000D03*
Y4122000D03*
X7697000Y4622000D03*
X7797000Y4422000D03*
Y4522000D03*
X7697000D03*
Y4322000D03*
X7797000Y4622000D03*
Y4322000D03*
X7701000Y4821000D03*
X7797000Y4722000D03*
X7697000D03*
X7797000Y4822000D03*
G54D11*
X3652000Y3446000D03*
Y4586000D03*
G54D20*
X3962000Y5019000D03*
G54D30*
X5776000Y3525000D03*
G54D21*
X4216000Y5019000D03*
X4470000D03*
X4724000D03*
X4978000D03*
X5232000D03*
G54D12*
X3652000Y3791000D03*
Y4241000D03*
G54D22*
X4507000Y3069000D03*
G54D31*
X5701000Y3415000D03*
Y3635000D03*
X5751000Y3415000D03*
X5801000D03*
X5851000D03*
X5751000Y3635000D03*
X5801000D03*
X5851000D03*
G54D13*
X3912000Y3666000D03*
Y3916000D03*
Y4116000D03*
Y4366000D03*
G54D40*
X8136000Y3489000D03*
Y3999000D03*
G54D41*
G01X4030000Y3788000D02*
X4058000Y3816000D01*
G01X4342000Y5096000D02*
X4317200Y5120800D01*
X4173800D01*
G01D02*
X4166000Y5113000D01*
X4105000D01*
G01X4507000Y3126000D02*
Y3109000D01*
G01X4485000Y3450000D02*
Y3430000D01*
G01D02*
X4436000Y3381000D01*
X4376000D01*
X4303000Y3308000D01*
G01X4301000Y4346000D02*
Y3986100D01*
X4351000Y3936100D01*
Y3708000D01*
X4393000Y3666000D01*
X4674000D01*
X4746000Y3738000D01*
G01X4261000Y4549000D02*
X4248000Y4536000D01*
Y4308000D01*
X4263000Y4293000D01*
Y3971000D01*
X4312000Y3922000D01*
Y3663000D01*
X4343000Y3632000D01*
X4763000D01*
X4807000Y3676000D01*
X4808000D01*
G01X4380000Y4167000D02*
Y4123100D01*
G01D02*
X4391100Y4112000D01*
G01X4746000Y3988000D02*
X4712000D01*
X4653000Y3929000D01*
X4419400D01*
X4334000Y4014400D01*
Y4296000D01*
X4405000Y4367000D01*
G01X4234300Y4654300D02*
X4326000Y4562600D01*
Y4446000D01*
X4405000Y4367000D01*
G01X4515000Y4661000D02*
X4432000D01*
G01X4427800Y5120800D02*
X4403000Y5096000D01*
X4342000D01*
G01X4547000Y5126000D02*
X4541800Y5120800D01*
X4427800D01*
G01X4746000Y3788000D02*
X4691000D01*
X4690000Y3787000D01*
X4677500D01*
G01X4896000Y5119000D02*
X4934000D01*
X4935800Y5120800D01*
X5080200D01*
X5101000Y5100000D01*
G01X4628000Y5115000D02*
X4676000D01*
X4681800Y5120800D01*
X4831200D01*
X4851000Y5101000D01*
G01X5277000Y3129000D02*
Y3083000D01*
X5340000Y3020000D01*
Y2989000D01*
G01X5031000D02*
X5119000Y3077000D01*
Y3379000D01*
X5069000Y3429000D01*
Y3605000D01*
X5058000Y3616000D01*
Y3676000D01*
G01X5190000Y2989000D02*
X5174000Y3005000D01*
Y3396000D01*
X5107000Y3463000D01*
Y3498900D01*
X5106400Y3499500D01*
Y3674400D01*
X5108000Y3676000D01*
G01X5277000Y3269000D02*
Y3225000D01*
X5301000Y3201000D01*
X5530000D01*
X5611000Y3120000D01*
X5720000D01*
G01X5277000Y3269000D02*
Y3351000D01*
G01D02*
Y3405000D01*
G01X5240000Y3339000D02*
X5265000D01*
X5277000Y3351000D01*
G01X5211000Y3611000D02*
Y3673000D01*
X5208000Y3676000D01*
G01X5158000D02*
Y3579000D01*
X5165200Y3571800D01*
Y3559500D01*
G01X5141000Y5117000D02*
X5186000D01*
X5189800Y5120800D01*
X5304200D01*
X5321000Y5104000D01*
G01X6130000Y3120000D02*
X5720000D01*
G01X5718000Y3230000D02*
X5761700D01*
X5779700Y3212000D01*
X5781000D01*
X5784000Y3209000D01*
X5800000D01*
X5829000Y3180000D01*
G01X5660000Y3409000D02*
X5676000Y3390000D01*
X5701000Y3415000D01*
G01D02*
X5706000Y3410000D01*
Y3331000D01*
X5721000Y3316000D01*
Y3296000D01*
G01X5663000Y3542000D02*
X5759000D01*
X5776000Y3525000D01*
G01X6051000Y4085000D02*
X6013000D01*
X5962000Y4034000D01*
X5801000D01*
X5658000Y3891000D01*
Y3761000D01*
X5637000Y3740000D01*
G01X5751000Y3635000D02*
X5701000D01*
G01D02*
X5603000D01*
X5576000Y3608000D01*
G01X5778000Y3912000D02*
X5774000Y3908000D01*
X5732000D01*
X5709000Y3885000D01*
Y3745000D01*
G01X5420000Y3738000D02*
X5456000D01*
X5481000Y3713000D01*
G01X5903000Y4188000D02*
X5847000D01*
X5585000Y3926000D01*
Y3862100D01*
X5559900Y3837000D01*
X5479900D01*
X5478900Y3838000D01*
X5420000D01*
G01X5801000Y3635000D02*
Y3667000D01*
X5782000Y3686000D01*
X5591000D01*
X5482000Y3795000D01*
G01D02*
X5427000D01*
X5420000Y3788000D01*
G01X6051000Y4135000D02*
X6008100D01*
X5946100Y4073000D01*
X5787000D01*
X5618000Y3904000D01*
Y3830000D01*
X5583000Y3795000D01*
X5482000D01*
G01X5627000Y4056000D02*
X5640000D01*
G01D02*
X5823000Y4239000D01*
G01X5420000Y3888000D02*
X5534000D01*
G01X5550500Y4028000D02*
X5543000D01*
X5503000Y3988000D01*
X5420000D01*
G01X5650000Y4429000D02*
X5630000Y4409000D01*
G01D02*
X5594700D01*
X5592700Y4407000D01*
X5462000D01*
G01D02*
X5460000Y4409000D01*
G01X5571600Y4458000D02*
X5545000Y4484600D01*
Y4515000D01*
X5541000Y4519000D01*
G01D02*
Y4662000D01*
X5542000Y4663000D01*
G01X6129000Y4897000D02*
X5719000D01*
G01D02*
X5714000Y4892000D01*
X5633000D01*
X5542000Y4801000D01*
Y4663000D01*
G01X5831000Y3296000D02*
Y3344900D01*
X5801000Y3374900D01*
Y3415000D01*
G01X5883000Y3337000D02*
X5843000Y3297000D01*
X5832000D01*
X5831000Y3296000D01*
G01X5918000Y3635000D02*
X5936000Y3617000D01*
Y3281000D01*
X5900000Y3245000D01*
X5793400D01*
X5780000Y3258400D01*
Y3341000D01*
X5751000Y3370000D01*
Y3415000D01*
G01X5843000Y3727000D02*
Y3717000D01*
X5851000Y3709000D01*
Y3635000D01*
G01X6051000Y4185000D02*
X6005000D01*
X5950000Y4130000D01*
X5865000D01*
X5863000Y4128000D01*
G01X6116000Y4250000D02*
X5998000D01*
X5936000Y4188000D01*
X5903000D01*
G01X5943000Y4304000D02*
X5955000Y4316000D01*
X6137000D01*
X6140000Y4313000D01*
X6140600D01*
X6154000Y4299600D01*
Y4299000D01*
X6168000Y4285000D01*
Y4252000D01*
X6166000Y4250000D01*
G01X5812000Y4838000D02*
X5813000D01*
G01D02*
X5838000Y4863000D01*
X5895100D01*
X5898100Y4860000D01*
X5907000D01*
X5938000Y4829000D01*
G01X6495000Y3302000D02*
X6474700Y3307300D01*
X6420000Y3362000D01*
Y3580000D01*
X6531000Y3691000D01*
Y3835000D01*
G01X6248000Y3473000D02*
Y3614000D01*
G01X6266000Y3770000D02*
Y3632000D01*
X6248000Y3614000D01*
G01X6495000Y3412000D02*
X6650000D01*
Y3414000D01*
G01X6531000Y3885000D02*
X6581000D01*
X6603100Y3862900D01*
Y3594900D01*
X6645000Y3553000D01*
X6731000D01*
X6870000Y3414000D01*
G01X6535000Y3601000D02*
Y3639000D01*
G01D02*
X6570000Y3674000D01*
Y3792000D01*
G01X6752000Y3773000D02*
Y3805000D01*
G01X6609000Y4346000D02*
Y4237800D01*
X6602900Y4231700D01*
X6602800D01*
X6556100Y4185000D01*
X6531000D01*
G01X6638000Y4100000D02*
X6623000Y4085000D01*
X6531000D01*
G01X6616500Y4165500D02*
Y4163500D01*
X6611000Y4158000D01*
Y4152000D01*
X6594000Y4135000D01*
X6531000D01*
G01X6751000Y4347000D02*
X6749400D01*
X6739400Y4337000D01*
X6685900D01*
X6620000Y4338000D01*
X6612000Y4346000D01*
X6609000D01*
G01X6714000Y4659000D02*
X6675000Y4698000D01*
G01X7028000Y3412000D02*
X6870000D01*
Y3414000D01*
G01X7063000Y4613000D02*
Y4652000D01*
X7108000Y4697000D01*
Y4700000D01*
G54D14*
X4205000Y3048000D03*
X4131000Y3802000D03*
X4241000D03*
X4315000Y3048000D03*
X4609000Y3872000D03*
Y3762000D03*
X4467000Y3872000D03*
Y3762000D03*
X4288000Y3546000D03*
X4398000D03*
X4548000Y4364000D03*
Y4474000D03*
X4405000Y4477000D03*
Y4367000D03*
X4515000Y4661000D03*
X4759000Y3129000D03*
X4649000D03*
X4732000Y2989000D03*
X4622000D03*
X4759000Y3267200D03*
X4649000D03*
X4903000Y3266200D03*
X4648000Y3403000D03*
X4758000D03*
X4902000Y3404000D03*
X4757000Y3545000D03*
X4647000D03*
X4901000Y3544000D03*
X4773000Y4521000D03*
X4883000D03*
X4773000Y4661000D03*
X4883000D03*
X4625000D03*
X5277000Y3129000D03*
X5013000Y3266200D03*
X5012000Y3404000D03*
X5277000Y3405000D03*
Y3269000D03*
X5279000Y3547000D03*
X5011000Y3544000D03*
X5133000Y4523000D03*
X5023000D03*
X5292000Y4519000D03*
X5023000Y4662000D03*
X5133000D03*
X5387000Y3129000D03*
X5576000Y3498000D03*
X5387000Y3405000D03*
X5721000Y3296000D03*
X5387000Y3269000D03*
X5389000Y3547000D03*
X5576000Y3608000D03*
X5548000Y4246000D03*
X5687000Y4245000D03*
X5548000Y4356000D03*
X5541000Y4519000D03*
X5651000D03*
X5687000Y4355000D03*
X5402000Y4519000D03*
X5652000Y4663000D03*
X5542000D03*
X5831000Y3296000D03*
X5778000Y3802000D03*
X5918000D03*
X5778000Y3912000D03*
X5918000D03*
X6091000Y4426000D03*
X6092000Y4566000D03*
X6138000Y3473000D03*
X6248000D03*
Y3614000D03*
X6138000D03*
X6201000Y4426000D03*
X6202000Y4566000D03*
X6452000D03*
X6342000D03*
X6451000Y4426000D03*
X6341000D03*
X6495000Y3412000D03*
Y3302000D03*
X6673000Y3773000D03*
Y3663000D03*
X6814000Y3772000D03*
Y3662000D03*
X6781000Y3945000D03*
Y4055000D03*
X6714000Y4601000D03*
X6824000D03*
X6751000Y4347000D03*
Y4457000D03*
X6609000Y4346000D03*
Y4456000D03*
X7028000Y3302000D03*
Y3412000D03*
X7067000Y3757000D03*
X6957000D03*
X7036000Y4070000D03*
X6926000D03*
X7133000Y4215000D03*
X7176000Y4003000D03*
X6990000Y4215000D03*
X7036000Y3930000D03*
X6926000D03*
X7133000Y4325000D03*
X7071000Y4605000D03*
X6961000D03*
X6990000Y4325000D03*
X7539000Y3747000D03*
Y3857000D03*
X7287000Y3748000D03*
Y3858000D03*
X7537000Y4002000D03*
X7427000D03*
X7288000Y4144000D03*
Y4254000D03*
X7286000Y4003000D03*
X7793000Y3749000D03*
Y3859000D03*
X7792000Y4000000D03*
X7682000D03*
G54D23*
X4507000Y3109000D03*
G54D32*
X6051000Y3835000D03*
Y3885000D03*
Y3935000D03*
Y3985000D03*
Y4035000D03*
Y4085000D03*
Y4135000D03*
Y4185000D03*
X6531000Y3835000D03*
Y3885000D03*
Y3935000D03*
Y3985000D03*
Y4035000D03*
Y4085000D03*
Y4135000D03*
Y4185000D03*
G54D42*
G01X3895000Y3001000D02*
X3841000Y3055000D01*
Y3388100D01*
X3866000Y3413100D01*
Y3491900D01*
X3770000Y3587900D01*
Y3828000D01*
G01D02*
Y4303000D01*
X3833000Y4366000D01*
X3912000D01*
G01X3770000Y3828000D02*
X3810000Y3788000D01*
X4030000D01*
G01X3979000Y2986000D02*
X3991000D01*
X4022000Y2955000D01*
G01X4303000Y3308000D02*
X4210000D01*
G01X4223000Y3706000D02*
X4252000Y3735000D01*
G01X3912000Y3666000D02*
X4069000D01*
X4139000Y3736000D01*
Y3799000D01*
X4131000Y3802000D01*
G01D02*
X4140000Y3804000D01*
Y3941000D01*
G01Y4101000D02*
Y4218000D01*
G01D02*
X4101000Y4257000D01*
Y4286200D01*
G01X4209000Y4192000D02*
Y4182000D01*
X4190000Y4163000D01*
Y4101000D01*
G01X4071000Y4173000D02*
X4064000Y4183000D01*
X4085000Y4162000D01*
Y4106000D01*
X4090000Y4101000D01*
G01X3912000Y4116000D02*
X4008000Y4020000D01*
X4175000D01*
X4190000Y4005000D01*
Y3941000D01*
G01X3912000Y3916000D02*
X3918000Y3910000D01*
X4059000D01*
X4090000Y3941000D01*
G01X4216000Y5019000D02*
Y4770000D01*
X4399000Y4587000D01*
Y4483000D01*
X4405000Y4477000D01*
G01X4560700Y2989000D02*
X4375000Y2915000D01*
G01X4303000Y3438000D02*
Y3308000D01*
G01D02*
X4313000D01*
G01X4288000Y3546000D02*
Y3453000D01*
X4303000Y3438000D01*
G01X4313000Y3308000D02*
X4399000D01*
G01X4398000Y3438000D02*
Y3546000D01*
G01X4241000Y3802000D02*
X4252000Y3895000D01*
G01X4540000Y3723000D02*
Y3740000D01*
X4535000Y3745000D01*
G01X4467000Y3762000D02*
X4501000D01*
X4540000Y3723000D01*
G01X4609000Y3762000D02*
X4579000D01*
X4540000Y3723000D01*
G01X4252000Y3735000D02*
X4241000Y3802000D01*
G01X4609000Y3872000D02*
X4633000Y3888000D01*
X4746000D01*
G01X4609000Y3872000D02*
X4467000D01*
G01D02*
X4457500Y3872500D01*
X4402400D01*
G01X4524000Y4112000D02*
X4391100D01*
G01X4746000Y4088000D02*
X4699000D01*
X4669000Y4118000D01*
Y4193000D01*
X4639000Y4223000D01*
X4533000D01*
X4524000Y4232000D01*
G01Y3992000D02*
X4560500Y3983000D01*
X4651200Y4038000D01*
X4746000D01*
G01X4548000Y4474000D02*
Y4532000D01*
G01X4475000Y4306000D02*
X4415000D01*
G01D02*
X4383000Y4274000D01*
G01X4548000Y4532000D02*
X4580000Y4564000D01*
X4670000D01*
X4688000Y4582000D01*
G01X4746000Y4288000D02*
Y4305000D01*
X4680000Y4371000D01*
X4555000D01*
X4548000Y4364000D01*
G01D02*
X4518000D01*
X4405000Y4477000D01*
G01X4625000Y4661000D02*
X4622000Y4664000D01*
Y4781000D01*
X4470000Y4933000D01*
Y5019000D01*
G01X4759000Y3129000D02*
X4733000Y3100000D01*
G01D02*
X4622000Y2989000D01*
G01X4732000D02*
X4881000D01*
G01X4902000Y3404000D02*
X4828000D01*
X4827000Y3403000D01*
G01X4824000Y3209000D02*
Y3267200D01*
G01X4815000Y3573000D02*
Y3550000D01*
X4820000Y3545000D01*
G01X4858000Y4350000D02*
Y4238000D01*
X5083000Y4013000D01*
G01X4746000Y3938000D02*
X4867000D01*
G01D02*
X5008000D01*
X5083000Y4013000D01*
G01X4746000Y4238000D02*
X4693000D01*
X4652000Y4279000D01*
Y4315000D01*
G01X4883000Y4521000D02*
X4895000D01*
X4949000Y4575000D01*
G01X4883000Y4661000D02*
Y4521000D01*
G01X5023000Y4523000D02*
X4885000D01*
X4883000Y4521000D01*
G01X4858000Y4350000D02*
Y4496000D01*
X4883000Y4521000D01*
G01X4808000Y4350000D02*
Y4418000D01*
X4773000Y4453000D01*
Y4521000D01*
G01Y4661000D02*
X4776000Y4524000D01*
X4773000Y4521000D01*
G01X5024000Y4663000D02*
X5025300Y4664300D01*
Y4713700D01*
X5004000Y4735000D01*
X4804000D01*
X4773000Y4704000D01*
Y4661000D01*
G01X5133000Y4662000D02*
Y4864000D01*
X4978000Y5019000D01*
G01X5237200Y3480400D02*
Y3510200D01*
X5274000Y3547000D01*
X5279000D01*
G01X5387000Y3405000D02*
Y3439000D01*
X5279000Y3547000D01*
G01X5308000Y3676000D02*
Y3576000D01*
X5279000Y3547000D01*
G01X5083000Y4013000D02*
X5102000Y3994000D01*
X5106200D01*
X5310000Y3772200D01*
G01D02*
X5308000Y3676000D01*
G01X5358000D02*
Y3578000D01*
X5389000Y3547000D01*
G01X5420000Y4238000D02*
X5308000D01*
X5083000Y4013000D01*
G01D02*
X5087000Y3943000D01*
G01X5008000Y4350000D02*
X5007700Y4350300D01*
Y4426700D01*
X5029000Y4448000D01*
X5105000D01*
X5133000Y4476000D01*
Y4523000D01*
G01X5292000Y4519000D02*
Y4959000D01*
X5232000Y5019000D01*
G01X5292000Y4519000D02*
X5291000Y4518000D01*
Y4462000D01*
X5358000Y4395000D01*
Y4350000D01*
G01X5133000Y4662000D02*
X5221000Y4574000D01*
Y4436000D01*
X5258000Y4399000D01*
Y4350000D01*
G01X5024000Y4663000D02*
X5023000Y4662000D01*
G01X5024000Y4758000D02*
Y4663000D01*
G01X5387000Y3129000D02*
X5446000D01*
G01D02*
X5492000Y3083000D01*
Y3042800D01*
X5493000Y3041800D01*
G01X5576000Y3498000D02*
X5749000D01*
X5776000Y3525000D01*
G01X5576000Y3498000D02*
Y3437000D01*
G01D02*
X5544000Y3405000D01*
X5448300D01*
G01X5389000Y3547000D02*
Y3542000D01*
X5422000Y3509000D01*
G01X5387000Y3269000D02*
X5475000D01*
G01X5576000Y3608000D02*
X5573000Y3605000D01*
X5533000D01*
X5475000Y3547000D01*
X5389000D01*
G01X5420000Y4238000D02*
X5540000D01*
X5548000Y4246000D01*
G01X5874000Y4812000D02*
X5860000Y4798000D01*
Y4407000D01*
X5687000Y4245000D01*
G01X5420000Y4188000D02*
X5630000D01*
X5687000Y4245000D01*
G01X5420000Y4138000D02*
X5611000D01*
X5631000Y4118000D01*
G01X5493000Y4066000D02*
X5491000D01*
X5469000Y4088000D01*
X5420000D01*
G01X5402000Y4519000D02*
Y4599000D01*
G01X5548000Y4356000D02*
X5536000D01*
X5468000Y4288000D01*
X5420000D01*
G01X5548000Y4356000D02*
X5697000D01*
X5687000Y4355000D01*
G01D02*
X5718000D01*
X5810000Y4447000D01*
Y4659000D01*
X5755000Y4714000D01*
G01X5687000Y4355000D02*
X5700800Y4352100D01*
G01X5652000Y4663000D02*
X5704000D01*
X5755000Y4714000D01*
G01X5851000Y3415000D02*
Y3450000D01*
X5776000Y3525000D01*
G01X6046300Y3419000D02*
X6059000D01*
X6090000Y3388000D01*
X6138000D01*
G01X6051000Y3835000D02*
X6116000Y3770000D01*
G01X6051000Y3885000D02*
Y3835000D01*
G01Y3885000D02*
Y3935000D01*
G01X5778000Y3802000D02*
X5918000D01*
G01D02*
X6018000D01*
X6051000Y3835000D01*
G01X6165000Y3935000D02*
X6051000D01*
G01X6165000Y4035000D02*
X6051000D01*
G01X5778000Y3912000D02*
X5918000D01*
G01D02*
X5991000Y3985000D01*
X6051000D01*
G01X6092000Y4566000D02*
Y4427000D01*
X6091000Y4426000D01*
G01X6216000Y4250000D02*
X6211000Y4255000D01*
Y4306000D01*
X6091000Y4426000D01*
G01X6138000Y3614000D02*
Y3473000D01*
G01Y3388000D02*
Y3473000D01*
G01X6166000Y3770000D02*
X6216000D01*
G01X6116000D02*
X6166000D01*
G01X6116000D02*
X6123000Y3763000D01*
Y3718400D01*
X6138000Y3703400D01*
Y3614000D01*
G01X6341000Y4426000D02*
X6316000Y4383000D01*
Y4250000D01*
G01X6366000D02*
Y4085000D01*
X6291000Y4010000D01*
G01X6451000Y4426000D02*
X6366000Y4323000D01*
Y4250000D01*
G01X6216000D02*
Y4085000D01*
X6266000Y4035000D01*
G01X6291000Y4010000D02*
X6216000Y3935000D01*
X6215000D01*
G01X6266000Y4035000D02*
X6265000D01*
G01X6266000D02*
X6291000Y4010000D01*
G01X6215000Y4035000D02*
X6165000D01*
G01X6265000D02*
X6215000D01*
G01Y3935000D02*
X6165000D01*
G01X6523700Y4761000D02*
X6512000Y4749300D01*
Y4381000D01*
X6482000Y4351000D01*
X6468100D01*
X6416000Y4298900D01*
Y4250000D01*
G01X6510800Y4294000D02*
X6466800Y4250000D01*
X6466000D01*
G01X6201000Y4426000D02*
X6266000Y4377000D01*
Y4250000D01*
G01X6342000Y4566000D02*
Y4427000D01*
X6341000Y4426000D01*
G01X6342000Y4566000D02*
Y4644000D01*
X6323000Y4663000D01*
Y4761000D01*
G01X6452000Y4566000D02*
Y4427000D01*
X6451000Y4426000D01*
G01X6452000Y4635000D02*
Y4566000D01*
G01X6202000D02*
Y4427000D01*
X6201000Y4426000D01*
G01X6524000Y3499000D02*
X6495000Y3470000D01*
G01D02*
Y3412000D01*
G01X6650000Y3254000D02*
X6561000D01*
X6495400Y3299800D01*
X6495000Y3302000D01*
G01X6673000Y3663000D02*
X6813000D01*
X6814000Y3662000D01*
G01D02*
X6892000Y3584000D01*
G01X6814000Y3662000D02*
X6972000D01*
G01X6673000Y3773000D02*
X6752000D01*
G01X6673000D02*
X6655000Y3791000D01*
Y3909000D01*
X6629000Y3935000D01*
X6531000D01*
G01X6752000Y3773000D02*
X6813000D01*
X6814000Y3772000D01*
G01X6531000Y3985000D02*
X6741000D01*
X6781000Y3945000D01*
G01X6531000Y4035000D02*
X6761000D01*
X6781000Y4055000D01*
G01X6824000Y4601000D02*
X6957000D01*
X6961000Y4605000D01*
G01X6751000Y4457000D02*
X6610000D01*
X6609000Y4456000D01*
G01X6824000Y4601000D02*
X6857000Y4634000D01*
Y4893000D01*
G01D02*
X6826000Y4924000D01*
X6695000D01*
X6604000Y4833000D01*
Y4564200D01*
X6597000Y4557200D01*
Y4517300D01*
G01X6751000Y4347000D02*
X6727000Y4306000D01*
X6707000Y4286000D01*
G01X6714000Y4601000D02*
Y4659000D01*
G01D02*
Y4736000D01*
X6763000Y4785000D01*
G01X7164000Y3816000D02*
X7134000Y3786000D01*
Y3379000D01*
X7113000Y3358000D01*
G01D02*
X7028000Y3302000D01*
G01X7067000Y3757000D02*
X7126000Y3816000D01*
G01X6892000Y3584000D02*
X6906000Y3598000D01*
X6914000Y3620200D01*
G01X6972000Y3662000D02*
X7067000Y3757000D01*
G01X7126000Y3816000D02*
X7164000D01*
G01Y4123000D02*
X7133000Y4154000D01*
G01D02*
Y4215000D01*
G01X7137000Y4508000D02*
X7057000Y4463000D01*
G01X6961000Y4605000D02*
X6954000D01*
X6922000Y4637000D01*
Y4878000D01*
G01X7013000Y4785000D02*
Y4663000D01*
X7063000Y4613000D01*
G01D02*
X7071000Y4605000D01*
G01X7472000Y4739500D02*
X7189500D01*
G01X6922000Y4878000D02*
X6962000Y4918000D01*
X7105000D01*
X7137000Y4886000D01*
G54D15*
X3979000Y3224000D03*
G54D33*
X6291000Y4010000D03*
G54D24*
X4524000Y3992000D03*
Y4112000D03*
Y4232000D03*
G54D43*
G01X11445900Y4711000D02*
Y4871000D01*
X11537100Y4711000D01*
Y4871000D01*
G01X11582900Y4711000D02*
X11632500Y4871000D01*
X11682100Y4711000D01*
G01X11664200Y4767000D02*
X11600800D01*
G01X11721900Y4711000D02*
Y4871000D01*
X11773500Y4737700D01*
X11825100Y4871000D01*
Y4711000D01*
G01X11954200D02*
X11874800D01*
Y4871000D01*
X11954200D01*
G01X11922400Y4793700D02*
X11874800D01*
G01X11996000Y4657700D02*
X12115000D01*
G01X12196500Y4871000D02*
Y4711000D01*
G01X12150900Y4871000D02*
X12242100D01*
G01X12337500Y4711000D02*
X12321600Y4713700D01*
X12307800Y4724300D01*
X12295800Y4740300D01*
X12287900Y4759000D01*
X12283900Y4780300D01*
Y4801700D01*
X12287900Y4823000D01*
X12295800Y4841700D01*
X12307800Y4857700D01*
X12321600Y4868300D01*
X12337500Y4871000D01*
X12353400Y4868300D01*
X12367200Y4857700D01*
X12379200Y4841700D01*
X12387100Y4823000D01*
X12391100Y4801700D01*
Y4780300D01*
X12387100Y4759000D01*
X12379200Y4740300D01*
X12367200Y4724300D01*
X12353400Y4713700D01*
X12337500Y4711000D01*
G01X12438800D02*
Y4871000D01*
X12486400D01*
X12502300Y4863000D01*
X12514200Y4844300D01*
X12518200Y4823000D01*
X12514200Y4801700D01*
X12504300Y4785700D01*
X12486400Y4777700D01*
X12438800D01*
G54D25*
X4881000Y2989000D03*
X5031000D03*
X5190000D03*
X5340000D03*
G54D16*
X3979000Y2986000D03*
G54D34*
X6466000Y3770000D03*
X6416000D03*
X6366000D03*
X6316000D03*
X6266000D03*
X6216000D03*
X6166000D03*
X6116000D03*
X6466000Y4250000D03*
X6416000D03*
X6366000D03*
X6316000D03*
X6266000D03*
X6216000D03*
X6166000D03*
X6116000D03*
G54D44*
G01X3979000Y2910200D02*
Y2986000D01*
G01X3913200D02*
X3979000D01*
G01X4210400Y3740700D02*
X4241000Y3802000D01*
G01X4226700Y3546000D02*
X4288000D01*
G01X3912000Y4262700D02*
Y4366000D01*
G01D02*
X4055300D01*
G01X3962000Y4906900D02*
Y5019000D01*
G01D02*
Y5131100D01*
G01Y5019000D02*
X4074100D01*
G01X4315000Y2986700D02*
Y3048000D01*
G01D02*
X4376300D01*
G01X4560700Y2989000D02*
X4622000D01*
G01X4241000Y3740700D02*
Y3802000D01*
G01X4288000Y3546000D02*
Y3607300D01*
G01X4385700Y4072400D02*
X4524000Y4112000D01*
G01X4385700Y4151600D02*
X4524000Y4112000D01*
G01X4486700Y4474000D02*
X4548000D01*
G01D02*
X4609300D01*
G01X4759000Y3067700D02*
Y3129000D01*
G01D02*
Y3190300D01*
G01Y3129000D02*
X4820300D01*
G01X4622000Y2927700D02*
Y2989000D01*
G01X4950700Y3342700D02*
X5012000Y3404000D01*
G01X4949700Y3482700D02*
X5011000Y3544000D01*
G01X4980400Y3482700D02*
X5011000Y3544000D01*
G01X4883000Y4459700D02*
Y4521000D01*
G01D02*
X4944300Y4459700D01*
G01X4883000Y4661000D02*
X4944300Y4599700D01*
G01X4961700Y4461700D02*
X5023000Y4523000D01*
G01X4883000Y4661000D02*
X4944300D01*
G01X5279000Y3485700D02*
Y3547000D01*
G01X5217700Y3485700D02*
X5279000Y3547000D01*
G01X5013000Y3204900D02*
Y3266200D01*
G01D02*
Y3327500D01*
G01Y3266200D02*
X5074300D01*
G01X5012000Y3342700D02*
Y3404000D01*
G01X5023000Y4523000D02*
Y4584300D01*
G01X5636700Y2960000D02*
X5720000D01*
G01D02*
X5803300D01*
G01X5387000Y3067700D02*
Y3129000D01*
G01D02*
X5448300Y3067700D01*
G01X5682700Y3478400D02*
X5776000Y3525000D01*
G01X5514700Y3498000D02*
X5576000D01*
G01X5514700Y3436700D02*
X5576000Y3498000D01*
G01X5387000Y3343700D02*
Y3405000D01*
G01D02*
X5448300D01*
G01X5682700Y3525000D02*
X5776000D01*
G01X5651000Y4457700D02*
Y4519000D01*
G01D02*
Y4580300D01*
G01Y4519000D02*
X5712300D01*
G01X5402000Y4457700D02*
Y4519000D01*
G01D02*
X5463300D01*
G01X5635700Y5057000D02*
X5719000D01*
G01D02*
X5802300D01*
G01X6046700Y2960000D02*
X6130000D01*
G01X6076700Y3473000D02*
X6138000D01*
G01X6076700Y3411700D02*
X6138000Y3473000D01*
G01X5918000Y3740700D02*
Y3802000D01*
G01D02*
X5979300Y3740700D01*
G01X6076700Y3614000D02*
X6138000D01*
G01X6076700Y3552700D02*
X6138000Y3614000D01*
G01X6067700Y3770000D02*
X6116000D01*
G01X6091000Y4364700D02*
Y4426000D01*
G01D02*
Y4487300D01*
G01X6029700Y4426000D02*
X6091000D01*
G01X6092000Y4566000D02*
Y4627300D01*
G01X6030700Y4566000D02*
X6092000D01*
G01X6045700Y5057000D02*
X6129000D01*
G01X6130000Y2960000D02*
X6213300D01*
G01X6464400Y3473300D02*
X6495000Y3412000D01*
G01X6216000Y3696700D02*
Y3770000D01*
G01X6188500Y3696700D02*
X6216000Y3770000D01*
G01X6166000Y3696700D02*
Y3770000D01*
G01X6138500Y3696700D02*
X6166000Y3770000D01*
G01X6116000Y3696700D02*
Y3770000D01*
G01X6390700Y4627300D02*
X6452000Y4566000D01*
G01X6421400Y4627300D02*
X6452000Y4566000D01*
G01X6129000Y5057000D02*
X6212300D01*
G01X6495000Y3412000D02*
X6525600Y3473300D01*
G01X6766700Y3254000D02*
X6870000D01*
G01X6650000Y3414000D02*
Y3507300D01*
G01Y3414000D02*
X6753300D01*
G01X6673000Y3601700D02*
Y3663000D01*
G01D02*
X6734300Y3724300D01*
G01X6814000Y3600700D02*
Y3662000D01*
G01X6752700D02*
X6814000D01*
G01X6751000Y4457000D02*
Y4518300D01*
G01Y4457000D02*
X6812300D01*
G01X6609000Y4456000D02*
Y4517300D01*
G01Y4456000D02*
X6670300D01*
G01X6824000Y4539700D02*
Y4601000D01*
G01D02*
Y4662300D01*
G01X7028000Y3240700D02*
Y3302000D01*
G01D02*
X7089300D01*
G01X6870000Y3160700D02*
Y3254000D01*
G01X7225700Y3748000D02*
X7287000D01*
G01X7067000Y3695700D02*
Y3757000D01*
G01D02*
Y3818300D01*
G01X7071700Y4215000D02*
X7133000D01*
G01D02*
X7194300D01*
G01X6961000Y4543700D02*
Y4605000D01*
G01D02*
Y4666300D01*
G01X7539000Y3685700D02*
Y3747000D01*
G01X7477700D02*
X7539000D01*
G01D02*
X7600300D01*
G01X7287000Y3686700D02*
Y3748000D01*
G01X7472000Y4358700D02*
Y4444500D01*
G01D02*
X7615300D01*
G01X7472000Y4739500D02*
Y4825300D01*
G01Y4739500D02*
X7615300D01*
G01X7793000Y3687700D02*
Y3749000D01*
G01X7731700Y3687700D02*
X7793000Y3749000D01*
G54D17*
X4303000Y3308000D03*
G54D26*
X5083000Y4013000D03*
G54D35*
X6323000Y4761000D03*
X6523700D03*
G54D45*
G01X3652000Y4586000D02*
X3572000D01*
X3481400Y4495400D01*
Y3607600D01*
X3643000Y3446000D01*
X3652000D01*
G01X4205800Y3052000D02*
X4205000Y3048000D01*
G01X4208000Y3178000D02*
X4174000D01*
X4130500Y3221500D01*
Y3398300D01*
X4170200Y3438000D01*
X4208000D01*
G01X3912000Y4366000D02*
Y4476000D01*
G01X4330000Y2949000D02*
X4324000Y2953400D01*
G01X4310600Y3042000D02*
X4315000Y3048000D01*
G01X4507000Y3287000D02*
Y3126000D01*
G01X4597000Y3103000D02*
X4649000Y3129000D01*
G01X4597000Y3103000D02*
X4550000Y3056000D01*
X4468000D01*
X4398000Y3126000D01*
Y3178000D01*
G01X4621000Y3401000D02*
X4507000Y3287000D01*
G01X4827000Y3403000D02*
X4758000D01*
G01X4759000Y3267200D02*
X4824000D01*
G01D02*
X4902000D01*
X4903000Y3266200D01*
G01X4648000Y3403000D02*
Y3544000D01*
X4647000Y3545000D01*
G01X4648000Y3403000D02*
X4646000Y3401000D01*
G01X4649000Y3267200D02*
Y3402000D01*
X4648000Y3403000D01*
G01X4646000Y3401000D02*
X4621000D01*
G01X4757000Y3545000D02*
X4820000D01*
G01D02*
X4900000D01*
X4901000Y3544000D01*
G01X5013000Y3332500D02*
Y3403000D01*
X5012000Y3404000D01*
G01X5011000Y3544000D02*
Y3469000D01*
G01X5009000Y3467000D02*
X5012000Y3464000D01*
G01X5011000Y3469000D02*
X5009000Y3467000D01*
G01X5012000Y3464000D02*
Y3404000D01*
G01X7067000Y3757000D02*
X7278000D01*
X7287000Y3748000D01*
G01X6990000Y4325000D02*
X7133000D01*
G01X7793000Y3749000D02*
X7541000D01*
X7539000Y3747000D01*
G01X7287000Y3748000D02*
X7538000D01*
X7539000Y3747000D01*
G01X7472000Y4739500D02*
Y4444500D01*
G54D18*
X4208000Y3438000D03*
Y3178000D03*
X4303000Y3438000D03*
X4398000D03*
Y3178000D03*
X4303000D03*
G54D27*
X4958000Y3676000D03*
X4908000D03*
X4858000D03*
X4808000D03*
Y4350000D03*
X4858000D03*
X4908000D03*
X4958000D03*
X5308000Y3676000D03*
X5258000D03*
X5208000D03*
X5158000D03*
X5108000D03*
X5058000D03*
X5008000D03*
Y4350000D03*
X5058000D03*
X5108000D03*
X5158000D03*
X5208000D03*
X5258000D03*
X5308000D03*
X5358000Y3676000D03*
Y4350000D03*
G54D36*
X6870000Y3254000D03*
X6650000D03*
X6870000Y3414000D03*
X6650000D03*
G54D46*
G01X3979000Y3224000D02*
X4052100Y3150900D01*
X4121800Y3077300D01*
X4147100Y3052000D01*
X4205800D01*
G01D02*
Y3175800D01*
X4208000Y3178000D01*
G01X3979000Y3224000D02*
X3943000Y3260000D01*
Y3635000D01*
X3912000Y3666000D01*
G54D28*
X4746000Y3738000D03*
Y3788000D03*
Y3838000D03*
Y3888000D03*
Y3938000D03*
Y3988000D03*
Y4038000D03*
Y4088000D03*
Y4138000D03*
Y4188000D03*
Y4238000D03*
Y4288000D03*
X5420000Y3888000D03*
Y3838000D03*
Y3788000D03*
Y3738000D03*
Y4238000D03*
Y4188000D03*
Y4138000D03*
Y4088000D03*
Y4038000D03*
Y3988000D03*
Y3938000D03*
Y4288000D03*
G54D37*
X6763000Y4785000D03*
X7013000D03*
G54D19*
X4090000Y3941000D03*
Y4101000D03*
X4140000Y3941000D03*
Y4101000D03*
X4190000Y3941000D03*
Y4101000D03*
G54D47*
G01X6781000Y3945000D02*
X6911000D01*
X6926000Y3930000D01*
G01Y4070000D02*
X6796000D01*
X6781000Y4055000D01*
G01X6957000Y3757000D02*
Y3899000D01*
X6926000Y3930000D01*
G01Y4070000D02*
X6924500Y4071500D01*
Y4179500D01*
X6960000Y4215000D01*
X6990000D01*
G01X7036000Y3930000D02*
Y4001000D01*
G01D02*
Y4070000D01*
G01X7176000Y4003000D02*
X7038000D01*
X7036000Y4001000D01*
G01X7537000Y4002000D02*
Y3859000D01*
X7539000Y3857000D01*
G01X7286000Y4003000D02*
Y3859000D01*
X7287000Y3858000D01*
G01X7537000Y4002000D02*
X7680000D01*
X7682000Y4000000D01*
G01X7286000Y4003000D02*
Y4142000D01*
X7288000Y4144000D01*
G01X7427000Y4002000D02*
X7287000D01*
X7286000Y4003000D01*
G01X7319500Y4592000D02*
X7288000Y4560500D01*
Y4254000D01*
G01X7793000Y3859000D02*
Y3999000D01*
X7792000Y4000000D01*
G01X8136000Y3999000D02*
X8144000Y4000000D01*
X7792000D01*
G54D29*
X5720000Y3120000D03*
Y2960000D03*
X5719000Y4897000D03*
Y5057000D03*
X6130000Y3120000D03*
Y2960000D03*
X6129000Y4897000D03*
Y5057000D03*
G54D38*
X7319500Y4592000D03*
G54D39*
X7472000Y4444500D03*
Y4739500D03*
M02*
