G04 ================== begin FILE IDENTIFICATION RECORD ==================*
G04 Layout Name:  C:/Vss09/EAP/0021.13/BLUE_NRG_Dongle/BLUE_NRG_Dongle.brd*
G04 Film Name:    BLUE_NRG_DONGLE_SSBOT*
G04 File Format:  Gerber RS274X*
G04 File Origin:  Cadence Allegro 16.6-S018*
G04 Origin Date:  Mon Mar 17 13:59:26 2014*
G04 *
G04 Layer:  REF DES/SILKSCREEN_BOTTOM*
G04 Layer:  PACKAGE GEOMETRY/SILKSCREEN_BOTTOM*
G04 *
G04 Offset:    (0.000 0.000)*
G04 Mirror:    No*
G04 Mode:      Positive*
G04 Rotation:  0*
G04 FullContactRelief:  No*
G04 UndefLineWidth:     0.000*
G04 ================== end FILE IDENTIFICATION RECORD ====================*
%FSLAX25Y25*MOMM*%
%IR0*IPPOS*OFA0.00000B0.00000*MIA0B0*SFA1.00000B1.00000*%
%ADD10C,.12*%
%ADD11C,.22*%
%ADD12C,.15*%
G75*
%LPD*%
G75*
G36*
G01X7229000Y3847900D02*
X7243300D01*
Y3770200D01*
X7214300D01*
Y3847900D01*
X7229000D01*
G37*
G36*
G01X7503100Y3769900D02*
Y3848100D01*
X7480000D01*
X7464000Y3832100D01*
X7448200Y3847900D01*
X7422800D01*
Y3770400D01*
X7449500D01*
Y3808800D01*
X7462700Y3795300D01*
X7475400Y3808000D01*
Y3769900D01*
X7503100D01*
G37*
G36*
G01X7321700Y3847600D02*
Y3770700D01*
X7264100D01*
Y3793800D01*
X7297900D01*
Y3847600D01*
X7321700D01*
G37*
G54D10*
G01X4493000Y4246000D02*
Y4176000D01*
G01X4512200Y4246000D02*
X4473800D01*
G01X4456500Y4176000D02*
X4421500Y4246000D01*
G01X4456500D02*
X4421500Y4176000D01*
G01X4410000Y4152700D02*
X4360000D01*
G01X4331000Y4176000D02*
X4337700Y4177200D01*
X4343500Y4181800D01*
X4348500Y4188800D01*
X4351800Y4197000D01*
X4353500Y4206300D01*
Y4215700D01*
X4351800Y4225000D01*
X4348500Y4233200D01*
X4343500Y4240200D01*
X4337700Y4244800D01*
X4331000Y4246000D01*
X4324300Y4244800D01*
X4318500Y4240200D01*
X4313500Y4233200D01*
X4310200Y4225000D01*
X4308500Y4215700D01*
Y4206300D01*
X4310200Y4197000D01*
X4313500Y4188800D01*
X4318500Y4181800D01*
X4324300Y4177200D01*
X4331000Y4176000D01*
G01X4295300Y4246000D02*
Y4195800D01*
X4292000Y4185300D01*
X4285300Y4178300D01*
X4277000Y4176000D01*
X4268700Y4178300D01*
X4262000Y4185300D01*
X4258700Y4195800D01*
Y4246000D01*
G01X4223000D02*
Y4176000D01*
G01X4242200Y4246000D02*
X4203800D01*
G01X3963000Y4777000D02*
Y4793700D01*
X3942000D01*
X3935000Y4788700D01*
X3930300Y4782800D01*
X3928000Y4774500D01*
X3930300Y4766200D01*
X3935000Y4760300D01*
X3942000Y4755300D01*
X3950200Y4752000D01*
X3959500Y4750300D01*
X3967700D01*
X3974700Y4752000D01*
X3982800Y4755300D01*
X3989800Y4760300D01*
X3994500Y4765300D01*
X3998000Y4772000D01*
Y4777800D01*
X3995700Y4784500D01*
X3991000Y4789500D01*
G01X3928000Y4806800D02*
X3998000D01*
X3928000Y4845200D01*
X3998000D01*
G01X3928000Y4861700D02*
X3998000D01*
Y4878300D01*
X3994500Y4885000D01*
X3989800Y4890000D01*
X3982800Y4894200D01*
X3974700Y4897500D01*
X3963000Y4898300D01*
X3951300Y4897500D01*
X3943200Y4894200D01*
X3936200Y4890000D01*
X3931500Y4885000D01*
X3928000Y4878300D01*
Y4861700D01*
G01X4254000Y4754200D02*
X4184000Y4775000D01*
X4254000Y4795800D01*
G01X4184000Y4810700D02*
X4254000D01*
Y4827300D01*
X4250500Y4834000D01*
X4245800Y4839000D01*
X4238800Y4843200D01*
X4230700Y4846500D01*
X4219000Y4847300D01*
X4207300Y4846500D01*
X4199200Y4843200D01*
X4192200Y4839000D01*
X4187500Y4834000D01*
X4184000Y4827300D01*
Y4810700D01*
G01Y4864700D02*
X4254000D01*
Y4881300D01*
X4250500Y4888000D01*
X4245800Y4893000D01*
X4238800Y4897200D01*
X4230700Y4900500D01*
X4219000Y4901300D01*
X4207300Y4900500D01*
X4199200Y4897200D01*
X4192200Y4893000D01*
X4187500Y4888000D01*
X4184000Y4881300D01*
Y4864700D01*
G01X4874700Y4344000D02*
Y4414000D01*
X4853800D01*
X4847200Y4410500D01*
X4843000Y4405800D01*
X4841300Y4396500D01*
X4843000Y4387200D01*
X4848000Y4381300D01*
X4853800Y4377800D01*
X4874700D01*
G01X4853800D02*
X4841300Y4344000D01*
G01X4821500D02*
X4786500Y4414000D01*
G01X4821500D02*
X4786500Y4344000D01*
G01X4775000Y4320700D02*
X4725000D01*
G01X4696000Y4344000D02*
X4702700Y4345200D01*
X4708500Y4349800D01*
X4713500Y4356800D01*
X4716800Y4365000D01*
X4718500Y4374300D01*
Y4383700D01*
X4716800Y4393000D01*
X4713500Y4401200D01*
X4708500Y4408200D01*
X4702700Y4412800D01*
X4696000Y4414000D01*
X4689300Y4412800D01*
X4683500Y4408200D01*
X4678500Y4401200D01*
X4675200Y4393000D01*
X4673500Y4383700D01*
Y4374300D01*
X4675200Y4365000D01*
X4678500Y4356800D01*
X4683500Y4349800D01*
X4689300Y4345200D01*
X4696000Y4344000D01*
G01X4660300Y4414000D02*
Y4363800D01*
X4657000Y4353300D01*
X4650300Y4346300D01*
X4642000Y4344000D01*
X4633700Y4346300D01*
X4627000Y4353300D01*
X4623700Y4363800D01*
Y4414000D01*
G01X4588000D02*
Y4344000D01*
G01X4607200Y4414000D02*
X4568800D01*
G01X4430000Y4708800D02*
X4500000D01*
X4430000Y4747200D01*
X4500000D01*
G01X4430000Y4765300D02*
X4500000D01*
Y4786200D01*
X4496500Y4792800D01*
X4491800Y4797000D01*
X4482500Y4798700D01*
X4473200Y4797000D01*
X4467300Y4792000D01*
X4463800Y4786200D01*
Y4765300D01*
G01Y4786200D02*
X4430000Y4798700D01*
G01X4439300Y4818500D02*
X4433500Y4825200D01*
X4430000Y4832700D01*
Y4839300D01*
X4433500Y4846000D01*
X4439300Y4851000D01*
X4447500Y4853500D01*
X4455700Y4851800D01*
X4462700Y4847700D01*
X4467300Y4840200D01*
X4469700Y4830200D01*
X4474300Y4824300D01*
X4482500Y4821800D01*
X4490700Y4823500D01*
X4496500Y4827700D01*
X4500000Y4833500D01*
Y4839300D01*
X4497700Y4845200D01*
X4491800Y4850200D01*
G01X4500000Y4890000D02*
X4430000D01*
G01X4500000Y4870800D02*
Y4909200D01*
G01X4700300Y4651500D02*
X4694500Y4658200D01*
X4691000Y4665700D01*
Y4672300D01*
X4694500Y4679000D01*
X4700300Y4684000D01*
X4708500Y4686500D01*
X4716700Y4684800D01*
X4723700Y4680700D01*
X4728300Y4673200D01*
X4730700Y4663200D01*
X4735300Y4657300D01*
X4743500Y4654800D01*
X4751700Y4656500D01*
X4757500Y4660700D01*
X4761000Y4666500D01*
Y4672300D01*
X4758700Y4678200D01*
X4752800Y4683200D01*
G01X4761000Y4698000D02*
X4691000Y4709700D01*
X4761000Y4723000D01*
X4691000Y4736300D01*
X4761000Y4748000D01*
G01X4691000Y4758700D02*
X4761000D01*
Y4775300D01*
X4757500Y4782000D01*
X4752800Y4787000D01*
X4745800Y4791200D01*
X4737700Y4794500D01*
X4726000Y4795300D01*
X4714300Y4794500D01*
X4706200Y4791200D01*
X4699200Y4787000D01*
X4694500Y4782000D01*
X4691000Y4775300D01*
Y4758700D01*
G01X4761000Y4821000D02*
Y4841000D01*
G01Y4831000D02*
X4691000D01*
G01Y4821000D02*
Y4841000D01*
G01Y4885000D02*
X4692200Y4878300D01*
X4696800Y4872500D01*
X4703800Y4867500D01*
X4712000Y4864200D01*
X4721300Y4862500D01*
X4730700D01*
X4740000Y4864200D01*
X4748200Y4867500D01*
X4755200Y4872500D01*
X4759800Y4878300D01*
X4761000Y4885000D01*
X4759800Y4891700D01*
X4755200Y4897500D01*
X4748200Y4902500D01*
X4740000Y4905800D01*
X4730700Y4907500D01*
X4721300D01*
X4712000Y4905800D01*
X4703800Y4902500D01*
X4696800Y4897500D01*
X4692200Y4891700D01*
X4691000Y4885000D01*
G01X4951300Y4759500D02*
X4945500Y4766200D01*
X4942000Y4773700D01*
Y4780300D01*
X4945500Y4787000D01*
X4951300Y4792000D01*
X4959500Y4794500D01*
X4967700Y4792800D01*
X4974700Y4788700D01*
X4979300Y4781200D01*
X4981700Y4771200D01*
X4986300Y4765300D01*
X4994500Y4762800D01*
X5002700Y4764500D01*
X5008500Y4768700D01*
X5012000Y4774500D01*
Y4780300D01*
X5009700Y4786200D01*
X5003800Y4791200D01*
G01X5012000Y4806000D02*
X4942000Y4817700D01*
X5012000Y4831000D01*
X4942000Y4844300D01*
X5012000Y4856000D01*
G01X4942000Y4885000D02*
X4943200Y4878300D01*
X4947800Y4872500D01*
X4954800Y4867500D01*
X4963000Y4864200D01*
X4972300Y4862500D01*
X4981700D01*
X4991000Y4864200D01*
X4999200Y4867500D01*
X5006200Y4872500D01*
X5010800Y4878300D01*
X5012000Y4885000D01*
X5010800Y4891700D01*
X5006200Y4897500D01*
X4999200Y4902500D01*
X4991000Y4905800D01*
X4981700Y4907500D01*
X4972300D01*
X4963000Y4905800D01*
X4954800Y4902500D01*
X4947800Y4897500D01*
X4943200Y4891700D01*
X4942000Y4885000D01*
G01X5209300Y4663500D02*
X5203500Y4670200D01*
X5200000Y4677700D01*
Y4684300D01*
X5203500Y4691000D01*
X5209300Y4696000D01*
X5217500Y4698500D01*
X5225700Y4696800D01*
X5232700Y4692700D01*
X5237300Y4685200D01*
X5239700Y4675200D01*
X5244300Y4669300D01*
X5252500Y4666800D01*
X5260700Y4668500D01*
X5266500Y4672700D01*
X5270000Y4678500D01*
Y4684300D01*
X5267700Y4690200D01*
X5261800Y4695200D01*
G01X5270000Y4710000D02*
X5200000Y4721700D01*
X5270000Y4735000D01*
X5200000Y4748300D01*
X5270000Y4760000D01*
G01X5264200Y4807300D02*
X5267700Y4802300D01*
X5270000Y4796500D01*
Y4789800D01*
X5266500Y4782300D01*
X5260700Y4776500D01*
X5253700Y4772300D01*
X5242000Y4769000D01*
X5231500Y4768200D01*
X5221000Y4769800D01*
X5214000Y4772300D01*
X5207000Y4777300D01*
X5202300Y4783200D01*
X5200000Y4789000D01*
Y4794800D01*
X5202300Y4800700D01*
X5205800Y4805700D01*
X5210500Y4809800D01*
G01X5270000Y4826300D02*
X5200000D01*
Y4859700D01*
G01Y4878700D02*
X5270000D01*
G01Y4910300D02*
X5226800Y4878700D01*
G01X5200000Y4915300D02*
X5246700Y4892800D01*
G54D11*
G01X14751100Y3735000D02*
Y3895000D01*
X14659900Y3735000D01*
Y3895000D01*
G01X14614100Y3735000D02*
X14564500Y3895000D01*
X14514900Y3735000D01*
G01X14532800Y3791000D02*
X14596200D01*
G01X14475100Y3735000D02*
Y3895000D01*
X14423500Y3761700D01*
X14371900Y3895000D01*
Y3735000D01*
G01X14242800D02*
X14322200D01*
Y3895000D01*
X14242800D01*
G01X14274600Y3817700D02*
X14322200D01*
G01X14201000Y3681700D02*
X14082000D01*
G01X14042200Y3756300D02*
X14026300Y3743000D01*
X14008400Y3735000D01*
X13992600D01*
X13976700Y3743000D01*
X13964800Y3756300D01*
X13958800Y3775000D01*
X13962800Y3793700D01*
X13972700Y3809700D01*
X13990600Y3820300D01*
X14014400Y3825700D01*
X14028300Y3836300D01*
X14034200Y3855000D01*
X14030200Y3873700D01*
X14020300Y3887000D01*
X14006500Y3895000D01*
X13992600D01*
X13978700Y3889700D01*
X13966800Y3876300D01*
G01X13883300Y3895000D02*
X13835700D01*
G01X13859500D02*
Y3735000D01*
G01X13883300D02*
X13835700D01*
G01X13758200Y3895000D02*
Y3735000D01*
X13678800D01*
G01X13621100D02*
Y3895000D01*
G01X13545800D02*
X13621100Y3796300D01*
G01X13533900Y3735000D02*
X13587400Y3841700D01*
G01X13478200Y3756300D02*
X13462300Y3743000D01*
X13444400Y3735000D01*
X13428600D01*
X13412700Y3743000D01*
X13400800Y3756300D01*
X13394800Y3775000D01*
X13398800Y3793700D01*
X13408700Y3809700D01*
X13426600Y3820300D01*
X13450400Y3825700D01*
X13464300Y3836300D01*
X13470200Y3855000D01*
X13466200Y3873700D01*
X13456300Y3887000D01*
X13442500Y3895000D01*
X13428600D01*
X13414700Y3889700D01*
X13402800Y3876300D01*
G01X13251900Y3881700D02*
X13263800Y3889700D01*
X13277600Y3895000D01*
X13293500D01*
X13311400Y3887000D01*
X13325200Y3873700D01*
X13335200Y3857700D01*
X13343100Y3831000D01*
X13345100Y3807000D01*
X13341100Y3783000D01*
X13335200Y3767000D01*
X13323300Y3751000D01*
X13309400Y3740300D01*
X13295500Y3735000D01*
X13281600D01*
X13267700Y3740300D01*
X13255800Y3748300D01*
X13245900Y3759000D01*
G01X13194200Y3735000D02*
Y3895000D01*
X13144600D01*
X13128700Y3887000D01*
X13118800Y3876300D01*
X13114800Y3855000D01*
X13118800Y3833700D01*
X13130700Y3820300D01*
X13144600Y3812300D01*
X13194200D01*
G01X13144600D02*
X13114800Y3735000D01*
G01X12973800D02*
X13053200D01*
Y3895000D01*
X12973800D01*
G01X13005600Y3817700D02*
X13053200D01*
G01X12832800Y3735000D02*
X12912200D01*
Y3895000D01*
X12832800D01*
G01X12864600Y3817700D02*
X12912200D01*
G01X12777100Y3735000D02*
Y3895000D01*
X12685900Y3735000D01*
Y3895000D01*
G01X12574600Y3820300D02*
X12566700Y3828300D01*
X12560800Y3841700D01*
X12556800Y3860300D01*
X12560800Y3876300D01*
X12568700Y3887000D01*
X12582600Y3895000D01*
X12636100D01*
Y3735000D01*
X12570700D01*
X12556800Y3745700D01*
X12548800Y3761700D01*
X12544900Y3780300D01*
X12548800Y3799000D01*
X12560800Y3815000D01*
X12574600Y3820300D01*
X12636100D01*
G01X12449500Y3735000D02*
X12465400Y3737700D01*
X12479200Y3748300D01*
X12491200Y3764300D01*
X12499100Y3783000D01*
X12503100Y3804300D01*
Y3825700D01*
X12499100Y3847000D01*
X12491200Y3865700D01*
X12479200Y3881700D01*
X12465400Y3892300D01*
X12449500Y3895000D01*
X12433600Y3892300D01*
X12419800Y3881700D01*
X12407800Y3865700D01*
X12399900Y3847000D01*
X12395900Y3825700D01*
Y3804300D01*
X12399900Y3783000D01*
X12407800Y3764300D01*
X12419800Y3748300D01*
X12433600Y3737700D01*
X12449500Y3735000D01*
G01X12308500Y3895000D02*
Y3735000D01*
G01X12354100Y3895000D02*
X12262900D01*
G01X12167500D02*
Y3735000D01*
G01X12213100Y3895000D02*
X12121900D01*
G01X12026500Y3735000D02*
X12042400Y3737700D01*
X12056200Y3748300D01*
X12068200Y3764300D01*
X12076100Y3783000D01*
X12080100Y3804300D01*
Y3825700D01*
X12076100Y3847000D01*
X12068200Y3865700D01*
X12056200Y3881700D01*
X12042400Y3892300D01*
X12026500Y3895000D01*
X12010600Y3892300D01*
X11996800Y3881700D01*
X11984800Y3865700D01*
X11976900Y3847000D01*
X11972900Y3825700D01*
Y3804300D01*
X11976900Y3783000D01*
X11984800Y3764300D01*
X11996800Y3748300D01*
X12010600Y3737700D01*
X12026500Y3735000D01*
G01X11937100D02*
Y3895000D01*
X11885500Y3761700D01*
X11833900Y3895000D01*
Y3735000D01*
G54D12*
G01X7199700Y3032400D02*
X7077800D01*
G01X7199700Y3035000D02*
X7077800D01*
G01X7199700Y3037500D02*
X7077800D01*
G01X7192100Y3040000D02*
X7070200D01*
G01X7192100Y3042600D02*
X7070200D01*
G01X7192100Y3045100D02*
X7070200D01*
G01X7184500Y3047700D02*
X7062500D01*
G01X7184500Y3050200D02*
X7062500D01*
G01X7184500Y3052700D02*
X7062500D01*
G01X7176800Y3055300D02*
X7062500D01*
G01X7176800Y3057800D02*
X7062500D01*
G01X7176800Y3060400D02*
X7062500D01*
G01X7169200Y3062900D02*
X7054900D01*
G01X7169200Y3065400D02*
X7054900D01*
G01X7169200Y3068000D02*
X7054900D01*
G01X7161600Y3070500D02*
X7054900D01*
G01X7161600Y3073100D02*
X7054900D01*
G01X7161600Y3075600D02*
X7054900D01*
G01X7154000Y3078100D02*
X7047300D01*
G01X7154000Y3080700D02*
X7047300D01*
G01X7154000Y3083200D02*
X7047300D01*
G01X7146400Y3085800D02*
X7047300D01*
G01X7146400Y3088300D02*
X7047300D01*
G01X7146400Y3090800D02*
X7047300D01*
G01X7138700Y3093400D02*
X7039700D01*
G01X7138700Y3095900D02*
X7039700D01*
G01X7138700Y3098500D02*
X7039700D01*
G01X7138700Y3101000D02*
X7039700D01*
G01X7138700Y3103500D02*
X7039700D01*
G01X7138700Y3106100D02*
X7039700D01*
G01X7131100Y3108600D02*
X7032100D01*
G01X7131100Y3111200D02*
X7032100D01*
G01X7131100Y3113700D02*
X7032100D01*
G01X7131100Y3116200D02*
X7032100D01*
G01X7131100Y3118800D02*
X7032100D01*
G01X7131100Y3121300D02*
X7032100D01*
G01X7123500Y3123900D02*
X7032100D01*
G01X7123500Y3126400D02*
X7032100D01*
G01X7123500Y3128900D02*
X7032100D01*
G01X7123500Y3131500D02*
X7032100D01*
G01X7123500Y3134000D02*
X7032100D01*
G01X7466400Y2953700D02*
X7169200D01*
G01X7481600Y2956200D02*
X7154000D01*
G01X7481600Y2958800D02*
X7154000D01*
G01X7481600Y2961300D02*
X7154000D01*
G01X7489300Y2963800D02*
X7146400D01*
G01X7489300Y2966400D02*
X7146400D01*
G01X7489300Y2968900D02*
X7146400D01*
G01X7496900Y2971500D02*
X7131100D01*
G01X7496900Y2974000D02*
X7131100D01*
G01X7496900Y2976500D02*
X7131100D01*
G01X7512100Y2979100D02*
X7123500D01*
G01X7512100Y2981600D02*
X7123500D01*
G01X7512100Y2984200D02*
X7123500D01*
G01X7519700Y2986700D02*
X7115900D01*
G01X7519700Y2989200D02*
X7115900D01*
G01X7519700Y2991800D02*
X7115900D01*
G01X7527400Y2994300D02*
X7108300D01*
G01X7527400Y2996900D02*
X7108300D01*
G01X7527400Y2999400D02*
X7108300D01*
G01X7268300Y3001900D02*
X7100600D01*
G01X7268300Y3004500D02*
X7100600D01*
G01X7268300Y3007000D02*
X7100600D01*
G01X7245400Y3009600D02*
X7093000D01*
G01X7245400Y3012100D02*
X7093000D01*
G01X7245400Y3014600D02*
X7093000D01*
G01X7230200Y3017200D02*
X7085400D01*
G01X7230200Y3019700D02*
X7085400D01*
G01X7230200Y3022300D02*
X7085400D01*
G01X7214900Y3024800D02*
X7077800D01*
G01X7214900Y3027300D02*
X7077800D01*
G01X7214900Y3029900D02*
X7077800D01*
G01X7428300Y3108600D02*
X7214900D01*
G01X7428300Y3111200D02*
X7214900D01*
G01X7428300Y3113700D02*
X7214900D01*
G01X7268300Y3116200D02*
X7207300D01*
G01X7268300Y3118800D02*
X7207300D01*
G01X7268300Y3121300D02*
X7207300D01*
G01X7245400Y3123900D02*
X7199700D01*
G01X7245400Y3126400D02*
X7199700D01*
G01X7245400Y3128900D02*
X7199700D01*
G01X7230200Y3131500D02*
X7199700D01*
G01X7230200Y3134000D02*
X7199700D01*
G01X7420700Y2925700D02*
X7214900D01*
G01X7420700Y2928300D02*
X7214900D01*
G01X7420700Y2930800D02*
X7214900D01*
G01X7435900Y2933400D02*
X7192100D01*
G01X7435900Y2935900D02*
X7192100D01*
G01X7435900Y2938400D02*
X7192100D01*
G01X7451200Y2941000D02*
X7176800D01*
G01X7451200Y2943500D02*
X7176800D01*
G01X7451200Y2946100D02*
X7176800D01*
G01X7466400Y2948600D02*
X7169200D01*
G01X7466400Y2951100D02*
X7169200D01*
G01X7154000Y3215300D02*
X6978700D01*
G01X7154000Y3217800D02*
X6978700D01*
G01X7154000Y3220400D02*
X6978700D01*
G01X7154000Y3222900D02*
X6978700D01*
G01X7154000Y3225500D02*
X6978700D01*
G01X7154000Y3228000D02*
X6978700D01*
G01X7146400Y3230500D02*
X6986300D01*
G01X7146400Y3233100D02*
X6986300D01*
G01X7146400Y3235600D02*
X6986300D01*
G01X7138700Y3238200D02*
X6994000D01*
G01X7138700Y3240700D02*
X6994000D01*
G01X7138700Y3243200D02*
X6994000D01*
G01X7131100Y3245800D02*
X7001600D01*
G01X7131100Y3248300D02*
X7001600D01*
G01X7131100Y3250900D02*
X7001600D01*
G01X7123500Y3253400D02*
X7009200D01*
G01X7123500Y3255900D02*
X7009200D01*
G01X7123500Y3258500D02*
X7009200D01*
G01X7115900Y3261000D02*
X7016800D01*
G01X7115900Y3263600D02*
X7016800D01*
G01X7115900Y3266100D02*
X7016800D01*
G01X7108300Y3268600D02*
X7024400D01*
G01X7108300Y3271200D02*
X7024400D01*
G01X7108300Y3273700D02*
X7024400D01*
G01X7100600Y3276300D02*
X7024400D01*
G01X7100600Y3278800D02*
X7024400D01*
G01X7100600Y3281300D02*
X7024400D01*
G01X7093000Y3283900D02*
X7032100D01*
G01X7093000Y3286400D02*
X7032100D01*
G01X7093000Y3289000D02*
X7032100D01*
G01X7085400Y3291500D02*
X7039700D01*
G01X7123500D02*
X7115900D01*
G01X7085400Y3294000D02*
X7039700D01*
G01X7123500D02*
X7115900D01*
G01X7085400Y3296600D02*
X7039700D01*
G01X7123500D02*
X7115900D01*
G01X7077800Y3299100D02*
X7047300D01*
G01X7123500D02*
X7108300D01*
G01X7077800Y3301700D02*
X7047300D01*
G01X7123500D02*
X7108300D01*
G01X7077800Y3304200D02*
X7047300D01*
G01X7123500D02*
X7108300D01*
G01X7070200Y3306700D02*
X7054900D01*
G01X7131100D02*
X7100600D01*
G01X7070200Y3309300D02*
X7054900D01*
G01X7131100D02*
X7100600D01*
G01X7070200Y3311800D02*
X7054900D01*
G01X7131100D02*
X7100600D01*
G01X7131100Y3314400D02*
X7093000D01*
G01X7131100Y3316900D02*
X7093000D01*
G01X7131100Y3319400D02*
X7093000D01*
G01X7039700Y3322000D02*
X7032100D01*
G01X7138700D02*
X7085400D01*
G01X7039700Y3324500D02*
X7032100D01*
G01X7138700D02*
X7085400D01*
G01X7039700Y3327100D02*
X7032100D01*
G01X7138700D02*
X7085400D01*
G01X7047300Y3329600D02*
X7032100D01*
G01X7138700D02*
X7077800D01*
G01X7047300Y3332100D02*
X7032100D01*
G01X7138700D02*
X7077800D01*
G01X7047300Y3334700D02*
X7032100D01*
G01X7138700D02*
X7077800D01*
G01X7054900Y3337200D02*
X7039700D01*
G01X7146400D02*
X7070200D01*
G01X7054900Y3339800D02*
X7039700D01*
G01X7146400D02*
X7070200D01*
G01X7054900Y3342300D02*
X7039700D01*
G01X7146400D02*
X7070200D01*
G01X7154000Y3344800D02*
X7039700D01*
G01X7154000Y3347400D02*
X7039700D01*
G01X7154000Y3349900D02*
X7039700D01*
G01X7161600Y3352500D02*
X7047300D01*
G01X7161600Y3355000D02*
X7047300D01*
G01X7161600Y3357500D02*
X7047300D01*
G01X7169200Y3360100D02*
X7054900D01*
G01X7169200Y3362600D02*
X7054900D01*
G01X7169200Y3365200D02*
X7054900D01*
G01X7176800Y3367700D02*
X7054900D01*
G01X7176800Y3370200D02*
X7054900D01*
G01X7176800Y3372800D02*
X7054900D01*
G01X7184500Y3375300D02*
X7062500D01*
G01X7184500Y3377900D02*
X7062500D01*
G01X7184500Y3380400D02*
X7062500D01*
G01X7192100Y3382900D02*
X7070200D01*
G01X7192100Y3385500D02*
X7070200D01*
G01X7192100Y3388000D02*
X7070200D01*
G01X7123500Y3136600D02*
X7032100D01*
G01X7123500Y3139100D02*
X7024400D01*
G01X7123500Y3141600D02*
X7024400D01*
G01X7123500Y3144200D02*
X7024400D01*
G01X7115900Y3146700D02*
X7024400D01*
G01X7115900Y3149300D02*
X7024400D01*
G01X7115900Y3151800D02*
X7024400D01*
G01X7115900Y3154300D02*
X7024400D01*
G01X7115900Y3156900D02*
X7024400D01*
G01X7115900Y3159400D02*
X7024400D01*
G01X7115900Y3162000D02*
X7024400D01*
G01X7115900Y3164500D02*
X7024400D01*
G01X7115900Y3167000D02*
X7024400D01*
G01X7108300Y3169600D02*
X7024400D01*
G01X7108300Y3172100D02*
X7024400D01*
G01X7108300Y3174700D02*
X7024400D01*
G01X7108300Y3177200D02*
X7016800D01*
G01X7108300Y3179700D02*
X7016800D01*
G01X7108300Y3182300D02*
X7016800D01*
G01X7108300Y3184800D02*
X7016800D01*
G01X7108300Y3187400D02*
X7016800D01*
G01X7108300Y3189900D02*
X7016800D01*
G01X7108300Y3192400D02*
X7016800D01*
G01X7108300Y3195000D02*
X7016800D01*
G01X7108300Y3197500D02*
X7016800D01*
G01X7108300Y3200100D02*
X7016800D01*
G01X7108300Y3202600D02*
X7016800D01*
G01X7108300Y3205100D02*
X7016800D01*
G01X7108300Y3207700D02*
X7016800D01*
G01X7108300Y3210200D02*
X7016800D01*
G01X7108300Y3212800D02*
X7016800D01*
G01X7466400Y3215300D02*
X7176800D01*
G01X7466400Y3217800D02*
X7176800D01*
G01X7466400Y3220400D02*
X7176800D01*
G01X7466400Y3222900D02*
X7176800D01*
G01X7466400Y3225500D02*
X7176800D01*
G01X7466400Y3228000D02*
X7176800D01*
G01X7466400Y3230500D02*
X7176800D01*
G01X7466400Y3233100D02*
X7176800D01*
G01X7466400Y3235600D02*
X7176800D01*
G01X7237800Y3238200D02*
X7176800D01*
G01X7237800Y3240700D02*
X7176800D01*
G01X7237800Y3243200D02*
X7176800D01*
G01X7245400Y3245800D02*
X7176800D01*
G01X7245400Y3248300D02*
X7176800D01*
G01X7245400Y3250900D02*
X7176800D01*
G01X7245400Y3253400D02*
X7176800D01*
G01X7245400Y3255900D02*
X7176800D01*
G01X7245400Y3258500D02*
X7176800D01*
G01X7253000Y3261000D02*
X7184500D01*
G01X7253000Y3263600D02*
X7184500D01*
G01X7253000Y3266100D02*
X7184500D01*
G01X7253000Y3268600D02*
X7184500D01*
G01X7253000Y3271200D02*
X7184500D01*
G01X7253000Y3273700D02*
X7184500D01*
G01X7260700Y3276300D02*
X7184500D01*
G01X7260700Y3278800D02*
X7184500D01*
G01X7260700Y3281300D02*
X7184500D01*
G01X7275900Y3283900D02*
X7192100D01*
G01X7275900Y3286400D02*
X7192100D01*
G01X7275900Y3289000D02*
X7192100D01*
G01X7291100Y3291500D02*
X7192100D01*
G01X7291100Y3294000D02*
X7192100D01*
G01X7291100Y3296600D02*
X7192100D01*
G01X7435900Y3299100D02*
X7199700D01*
G01X7435900Y3301700D02*
X7199700D01*
G01X7435900Y3304200D02*
X7199700D01*
G01X7428300Y3306700D02*
X7207300D01*
G01X7428300Y3309300D02*
X7207300D01*
G01X7428300Y3311800D02*
X7207300D01*
G01X7420700Y3314400D02*
X7214900D01*
G01X7420700Y3316900D02*
X7214900D01*
G01X7420700Y3319400D02*
X7214900D01*
G01X7207300Y3390600D02*
X7077800D01*
G01X7207300Y3393100D02*
X7077800D01*
G01X7207300Y3395600D02*
X7077800D01*
G01X7214900Y3398200D02*
X7077800D01*
G01X7214900Y3400700D02*
X7077800D01*
G01X7214900Y3403300D02*
X7077800D01*
G01X7230200Y3405800D02*
X7085400D01*
G01X7230200Y3408300D02*
X7085400D01*
G01X7230200Y3410900D02*
X7085400D01*
G01X7245400Y3413400D02*
X7093000D01*
G01X7245400Y3416000D02*
X7093000D01*
G01X7245400Y3418500D02*
X7093000D01*
G01X7275900Y3421000D02*
X7100600D01*
G01X7275900Y3423600D02*
X7100600D01*
G01X7275900Y3426100D02*
X7100600D01*
G01X7527400Y3428700D02*
X7108300D01*
G01X7527400Y3431200D02*
X7108300D01*
G01X7527400Y3433700D02*
X7108300D01*
G01X7519700Y3436300D02*
X7123500D01*
G01X7519700Y3438800D02*
X7123500D01*
G01X7519700Y3441400D02*
X7123500D01*
G01X7512100Y3443900D02*
X7131100D01*
G01X7512100Y3446400D02*
X7131100D01*
G01X7512100Y3449000D02*
X7131100D01*
G01X7504500Y3451500D02*
X7138700D01*
G01X7504500Y3454100D02*
X7138700D01*
G01X7504500Y3456600D02*
X7138700D01*
G01X7489300Y3459100D02*
X7146400D01*
G01X7489300Y3461700D02*
X7146400D01*
G01X7489300Y3464200D02*
X7146400D01*
G01X7481600Y3466800D02*
X7161600D01*
G01X7481600Y3469300D02*
X7161600D01*
G01X7481600Y3471800D02*
X7161600D01*
G01X7466400Y3474400D02*
X7176800D01*
G01X7466400Y3476900D02*
X7176800D01*
G01X7466400Y3479500D02*
X7176800D01*
G01X7451200Y3482000D02*
X7184500D01*
G01X7451200Y3484500D02*
X7184500D01*
G01X7451200Y3487100D02*
X7184500D01*
G01X7435900Y3489600D02*
X7199700D01*
G01X7435900Y3492200D02*
X7199700D01*
G01X7435900Y3494700D02*
X7199700D01*
G01X7230200Y3136600D02*
X7199700D01*
G01X7214900Y3139100D02*
X7192100D01*
G01X7214900Y3141600D02*
X7192100D01*
G01X7214900Y3144200D02*
X7192100D01*
G01X7207300Y3146700D02*
X7192100D01*
G01X7207300Y3149300D02*
X7192100D01*
G01X7207300Y3151800D02*
X7192100D01*
G01X7207300Y3154300D02*
X7184500D01*
G01X7207300Y3156900D02*
X7184500D01*
G01X7207300Y3159400D02*
X7184500D01*
G01X7466400Y3192400D02*
X7176800D01*
G01X7466400Y3195000D02*
X7176800D01*
G01X7466400Y3197500D02*
X7176800D01*
G01X7466400Y3200100D02*
X7176800D01*
G01X7466400Y3202600D02*
X7176800D01*
G01X7466400Y3205100D02*
X7176800D01*
G01X7466400Y3207700D02*
X7176800D01*
G01X7466400Y3210200D02*
X7176800D01*
G01X7466400Y3212800D02*
X7176800D01*
G01X7751000Y3556000D02*
X6872200D01*
G01X7751000Y3558600D02*
X6872200D01*
G01X7751000Y3561100D02*
X6872200D01*
G01X7751000Y3563700D02*
X6872200D01*
G01X7751000Y3566200D02*
X6872200D01*
G01X7751000Y3568700D02*
X6872200D01*
G01X7751000Y3571300D02*
X6872200D01*
G01X7751000Y3573800D02*
X6872200D01*
G01X7751000Y3576400D02*
X6872200D01*
G01X7751000Y3578900D02*
X6872200D01*
G01X7751000Y3581400D02*
X6872200D01*
G01X7751000Y3584000D02*
X6872200D01*
G01X6900100Y3586500D02*
X6872200D01*
G01X6900100Y3589100D02*
X6872200D01*
G01X6900100Y3591600D02*
X6872200D01*
G01X6900100Y3652600D02*
X6872200D01*
G01X7062700D02*
X7019500D01*
G01X7146500D02*
X7088100D01*
G01X7179500D02*
X7171900D01*
G01X7237900D02*
X7199800D01*
G01X6900100Y3655100D02*
X6872200D01*
G01X7065200D02*
X7016900D01*
G01X7146500D02*
X7088100D01*
G01X7179500D02*
X7169300D01*
G01X7240500D02*
X7197300D01*
G01X6900100Y3657600D02*
X6872200D01*
G01X7067700D02*
X7016900D01*
G01X7146500D02*
X7088100D01*
G01X7179500D02*
X7169300D01*
G01X7240500D02*
X7194700D01*
G01X6900100Y3660200D02*
X6872200D01*
G01X7067700D02*
X7014400D01*
G01X7146500D02*
X7088100D01*
G01X7177000D02*
X7169300D01*
G01X7212500D02*
X7194700D01*
G01X6900100Y3662700D02*
X6872200D01*
G01X7070300D02*
X7011900D01*
G01X7146500D02*
X7088100D01*
G01X7177000D02*
X7169300D01*
G01X7210000D02*
X7192200D01*
G01X6900100Y3665300D02*
X6872200D01*
G01X7037300D02*
X7011900D01*
G01X7070300D02*
X7047400D01*
G01X7146500D02*
X7123600D01*
G01X7177000D02*
X7166800D01*
G01X7210000D02*
X7192200D01*
G01X6900100Y3667800D02*
X6872200D01*
G01X7034700D02*
X7011900D01*
G01X7072800D02*
X7050000D01*
G01X7146500D02*
X7123600D01*
G01X7177000D02*
X7166800D01*
G01X7210000D02*
X7192200D01*
G01X6900100Y3670300D02*
X6872200D01*
G01X7032200D02*
X7009300D01*
G01X7072800D02*
X7052500D01*
G01X7146500D02*
X7123600D01*
G01X7174400D02*
X7166800D01*
G01X7210000D02*
X7189700D01*
G01X6900100Y3672900D02*
X6872200D01*
G01X7032200D02*
X7019500D01*
G01X7072800D02*
X7052500D01*
G01X7146500D02*
X7123600D01*
G01X7174400D02*
X7166800D01*
G01X7210000D02*
X7189700D01*
G01X6900100Y3675400D02*
X6872200D01*
G01X7032200D02*
X7029600D01*
G01X7072800D02*
X7052500D01*
G01X7146500D02*
X7123600D01*
G01X7174400D02*
X7164300D01*
G01X7210000D02*
X7189700D01*
G01X6900100Y3678000D02*
X6872200D01*
G01X7075400D02*
X7052500D01*
G01X7146500D02*
X7090600D01*
G01X7174400D02*
X7164300D01*
G01X7210000D02*
X7189700D01*
G01X6900100Y3680500D02*
X6872200D01*
G01X7075400D02*
X7052500D01*
G01X7146500D02*
X7090600D01*
G01X7171900D02*
X7164300D01*
G01X7210000D02*
X7192200D01*
G01X6900100Y3683000D02*
X6872200D01*
G01X7075400D02*
X7052500D01*
G01X7146500D02*
X7090600D01*
G01X7171900D02*
X7164300D01*
G01X7212500D02*
X7192200D01*
G01X6900100Y3685600D02*
X6872200D01*
G01X7075400D02*
X7052500D01*
G01X7146500D02*
X7090600D01*
G01X7171900D02*
X7164300D01*
G01X7240500D02*
X7192200D01*
G01X6900100Y3688100D02*
X6872200D01*
G01X7075400D02*
X7052500D01*
G01X7146500D02*
X7090600D01*
G01X7171900D02*
X7161700D01*
G01X7240500D02*
X7194700D01*
G01X6900100Y3690700D02*
X6872200D01*
G01X7072800D02*
X7052500D01*
G01X7146500D02*
X7090600D01*
G01X7171900D02*
X7161700D01*
G01X7240500D02*
X7197300D01*
G01X6900100Y3693200D02*
X6872200D01*
G01X7032200D02*
X7029600D01*
G01X7072800D02*
X7052500D01*
G01X7146500D02*
X7090600D01*
G01X7169300D02*
X7161700D01*
G01X7240500D02*
X7199800D01*
G01X6900100Y3695700D02*
X6872200D01*
G01X7032200D02*
X7016900D01*
G01X7072800D02*
X7052500D01*
G01X7146500D02*
X7123600D01*
G01X7169300D02*
X7161700D01*
G01X7215100D02*
X7207400D01*
G01X6900100Y3698300D02*
X6872200D01*
G01X7034700D02*
X7011900D01*
G01X7072800D02*
X7050000D01*
G01X7146500D02*
X7123600D01*
G01X7169300D02*
X7159200D01*
G01X6900100Y3700800D02*
X6872200D01*
G01X7037300D02*
X7011900D01*
G01X7072800D02*
X7047400D01*
G01X7146500D02*
X7123600D01*
G01X7169300D02*
X7159200D01*
G01X6900100Y3703400D02*
X6872200D01*
G01X7070300D02*
X7011900D01*
G01X7146500D02*
X7088100D01*
G01X7166800D02*
X7159200D01*
G01X7237900D02*
X7220100D01*
G01X6900100Y3705900D02*
X6872200D01*
G01X7070300D02*
X7014400D01*
G01X7146500D02*
X7088100D01*
G01X7166800D02*
X7159200D01*
G01X7237900D02*
X7192200D01*
G01X6900100Y3708400D02*
X6872200D01*
G01X7067700D02*
X7016900D01*
G01X7146500D02*
X7088100D01*
G01X7166800D02*
X7156600D01*
G01X7237900D02*
X7192200D01*
G01X6900100Y3711000D02*
X6872200D01*
G01X7065200D02*
X7016900D01*
G01X7146500D02*
X7088100D01*
G01X7166800D02*
X7156600D01*
G01X7235400D02*
X7192200D01*
G01X6900100Y3713500D02*
X6872200D01*
G01X7062700D02*
X7019500D01*
G01X7146500D02*
X7088100D01*
G01X7164300D02*
X7156600D01*
G01X7235400D02*
X7192200D01*
G01X6900100Y3716100D02*
X6872200D01*
G01X7057600D02*
X7024600D01*
G01X7146500D02*
X7088100D01*
G01X7164300D02*
X7156600D01*
G01X7235400D02*
X7192200D01*
G01X6900100Y3718600D02*
X6872200D01*
G01X7047400D02*
X7034700D01*
G01X7146500D02*
X7088100D01*
G01X7164300D02*
X7154100D01*
G01X7235400D02*
X7192200D01*
G01X6900100Y3721100D02*
X6872200D01*
G01X6900100Y3723700D02*
X6872200D01*
G01X6900100Y3726200D02*
X6872200D01*
G01X6900100Y3728800D02*
X6872200D01*
G01X6900100Y3731300D02*
X6872200D01*
G01X6900100Y3733800D02*
X6872200D01*
G01X6900100Y3736400D02*
X6872200D01*
G01X6900100Y3738900D02*
X6872200D01*
G01X6900100Y3741500D02*
X6872200D01*
G01X6900100Y3744000D02*
X6872200D01*
G01X6900100Y3746500D02*
X6872200D01*
G01X6900100Y3749100D02*
X6872200D01*
G01X6900100Y3751600D02*
X6872200D01*
G01X6900100Y3754200D02*
X6872200D01*
G01X6900100Y3756700D02*
X6872200D01*
G01X6900100Y3759200D02*
X6872200D01*
G01X6900100Y3761800D02*
X6872200D01*
G01X6900100Y3764300D02*
X6872200D01*
G01X6900100Y3766900D02*
X6872200D01*
G01X6900100Y3769400D02*
X6872200D01*
G01X6982900Y3772700D02*
X6955000D01*
G01X7044400D02*
X7021500D01*
G01X7097700D02*
X7074900D01*
G01X7137600Y3771700D02*
X7112200D01*
G01X7198600D02*
X7173200D01*
G01X6900100Y3771900D02*
X6872200D01*
G01X6982900Y3775200D02*
X6955000D01*
G01X7046900D02*
X7021500D01*
G01X7097700D02*
X7074900D01*
G01X7140100Y3774200D02*
X7114700D01*
G01X7196000D02*
X7170600D01*
G01X6900100Y3632200D02*
X6872200D01*
G01X6900100Y3594100D02*
X6872200D01*
G01X6900100Y3774500D02*
X6872200D01*
G01X6982900Y3777800D02*
X6955000D01*
G01X7049500D02*
X7021500D01*
G01X7097700D02*
X7074900D01*
G01X7140100Y3776800D02*
X7114700D01*
G01X7196000D02*
X7170600D01*
G01X6900100Y3777000D02*
X6872200D01*
G01X6982900Y3780300D02*
X6955000D01*
G01X7049500D02*
X7021500D01*
G01X7097700D02*
X7074900D01*
G01X7140100Y3779300D02*
X7117300D01*
G01X7193500D02*
X7170600D01*
G01X6900100Y3634800D02*
X6872200D01*
G01X6900100Y3596700D02*
X6872200D01*
G01X6900100Y3779600D02*
X6872200D01*
G01X6982900Y3782900D02*
X6955000D01*
G01X7052000D02*
X7021500D01*
G01X7097700D02*
X7074900D01*
G01X7142700Y3781800D02*
X7117300D01*
G01X7193500D02*
X7168100D01*
G01X6900100Y3782100D02*
X6872200D01*
G01X6982900Y3785400D02*
X6955000D01*
G01X7054500D02*
X7021500D01*
G01X7097700D02*
X7074900D01*
G01X7193500Y3784400D02*
X7117300D01*
G01X6900100Y3637300D02*
X6872200D01*
G01X6900100Y3599200D02*
X6872200D01*
G01X6900100Y3784600D02*
X6872200D01*
G01X6982900Y3787900D02*
X6955000D01*
G01X7054500D02*
X7021500D01*
G01X7097700D02*
X7074900D01*
G01X7190900Y3786900D02*
X7119800D01*
G01X6900100Y3787200D02*
X6872200D01*
G01X6982900Y3790500D02*
X6955000D01*
G01X7057100D02*
X7021500D01*
G01X7097700D02*
X7074900D01*
G01X7190900Y3789500D02*
X7119800D01*
G01X6900100Y3639900D02*
X6872200D01*
G01X6900100Y3601800D02*
X6872200D01*
G01X6900100Y3789700D02*
X6872200D01*
G01X6982900Y3793000D02*
X6955000D01*
G01X7059600D02*
X7021500D01*
G01X7097700D02*
X7074900D01*
G01X7190900Y3792000D02*
X7119800D01*
G01X6900100Y3792300D02*
X6872200D01*
G01X6982900Y3795600D02*
X6955000D01*
G01X7062200D02*
X7021500D01*
G01X7097700D02*
X7074900D01*
G01X7188400Y3794500D02*
X7122400D01*
G01X6900100Y3642400D02*
X6872200D01*
G01X6900100Y3604300D02*
X6872200D01*
G01X6900100Y3794800D02*
X6872200D01*
G01X6982900Y3798100D02*
X6955000D01*
G01X7062200D02*
X7021500D01*
G01X7097700D02*
X7074900D01*
G01X7188400Y3797100D02*
X7122400D01*
G01X6900100Y3797300D02*
X6872200D01*
G01X6982900Y3800600D02*
X6955000D01*
G01X7064700D02*
X7021500D01*
G01X7097700D02*
X7074900D01*
G01X7188400Y3799600D02*
X7122400D01*
G01X6900100Y3644900D02*
X6872200D01*
G01X6900100Y3606800D02*
X6872200D01*
G01X6900100Y3799900D02*
X6872200D01*
G01X6982900Y3803200D02*
X6955000D01*
G01X7067200D02*
X7021500D01*
G01X7097700D02*
X7074900D01*
G01X7185800Y3802200D02*
X7124900D01*
G01X6900100Y3802400D02*
X6872200D01*
G01X6982900Y3805700D02*
X6955000D01*
G01X7067200D02*
X7021500D01*
G01X7097700D02*
X7074900D01*
G01X7147800Y3804700D02*
X7124900D01*
G01X7185800D02*
X7163000D01*
G01X6900100Y3647500D02*
X6872200D01*
G01X6900100Y3609400D02*
X6872200D01*
G01X6900100Y3805000D02*
X6872200D01*
G01X6982900Y3808300D02*
X6955000D01*
G01X7069800D02*
X7021500D01*
G01X7097700D02*
X7074900D01*
G01X7147800Y3807200D02*
X7127400D01*
G01X7183300D02*
X7160500D01*
G01X7047400Y3647500D02*
X7032200D01*
G01X6900100Y3807500D02*
X6872200D01*
G01X6982900Y3810800D02*
X6955000D01*
G01X7044400D02*
X7021500D01*
G01X7072300D02*
X7046900D01*
G01X7097700D02*
X7074900D01*
G01X7150300Y3809800D02*
X7127400D01*
G01X7183300D02*
X7160500D01*
G01X7146500Y3647500D02*
X7088100D01*
G01X6900100Y3611900D02*
X6872200D01*
G01X6900100Y3810000D02*
X6872200D01*
G01X6982900Y3813300D02*
X6955000D01*
G01X7044400D02*
X7021500D01*
G01X7097700D02*
X7049500D01*
G01X7150300Y3812300D02*
X7127400D01*
G01X7183300D02*
X7160500D01*
G01X7182000Y3647500D02*
X7171900D01*
G01X6900100Y3812600D02*
X6872200D01*
G01X6982900Y3815900D02*
X6955000D01*
G01X7044400D02*
X7021500D01*
G01X7097700D02*
X7052000D01*
G01X7150300Y3814900D02*
X7130000D01*
G01X7180800D02*
X7160500D01*
G01X7225200Y3647500D02*
X7210000D01*
G01X6900100Y3614500D02*
X6872200D01*
G01X6900100Y3815100D02*
X6872200D01*
G01X6982900Y3818400D02*
X6955000D01*
G01X7044400D02*
X7021500D01*
G01X7097700D02*
X7052000D01*
G01X7152800Y3817400D02*
X7130000D01*
G01X7180800D02*
X7157900D01*
G01X6900100Y3817700D02*
X6872200D01*
G01X6982900Y3821000D02*
X6955000D01*
G01X7044400D02*
X7021500D01*
G01X7097700D02*
X7054500D01*
G01X7152800Y3819900D02*
X7130000D01*
G01X7180800D02*
X7157900D01*
G01X6900100Y3617000D02*
X6872200D01*
G01X6900100Y3820200D02*
X6872200D01*
G01X6982900Y3823500D02*
X6955000D01*
G01X7044400D02*
X7021500D01*
G01X7097700D02*
X7057100D01*
G01X7152800Y3822500D02*
X7132500D01*
G01X7178200D02*
X7157900D01*
G01X6900100Y3822700D02*
X6872200D01*
G01X6982900Y3826000D02*
X6955000D01*
G01X7044400D02*
X7021500D01*
G01X7097700D02*
X7059600D01*
G01X7178200Y3825000D02*
X7132500D01*
G01X6900100Y3619500D02*
X6872200D01*
G01X6900100Y3825300D02*
X6872200D01*
G01X6982900Y3828600D02*
X6955000D01*
G01X7044400D02*
X7021500D01*
G01X7097700D02*
X7059600D01*
G01X7178200Y3827600D02*
X7132500D01*
G01X6900100Y3827800D02*
X6872200D01*
G01X6982900Y3831100D02*
X6955000D01*
G01X7044400D02*
X7021500D01*
G01X7097700D02*
X7062200D01*
G01X7175700Y3830100D02*
X7135000D01*
G01X6900100Y3622100D02*
X6872200D01*
G01X6900100Y3830400D02*
X6872200D01*
G01X7008300Y3833700D02*
X6929600D01*
G01X7044400D02*
X7021500D01*
G01X7097700D02*
X7064700D01*
G01X7175700Y3832600D02*
X7135000D01*
G01X6900100Y3832900D02*
X6872200D01*
G01X7008300Y3836200D02*
X6929600D01*
G01X7044400D02*
X7021500D01*
G01X7097700D02*
X7064700D01*
G01X7173200Y3835200D02*
X7137600D01*
G01X6900100Y3650000D02*
X6872200D01*
G01X6900100Y3624600D02*
X6872200D01*
G01X6900100Y3835400D02*
X6872200D01*
G01X7008300Y3838700D02*
X6929600D01*
G01X7044400D02*
X7021500D01*
G01X7097700D02*
X7067200D01*
G01X7173200Y3837700D02*
X7137600D01*
G01X7057600Y3650000D02*
X7024600D01*
G01X6900100Y3838000D02*
X6872200D01*
G01X7008300Y3841300D02*
X6929600D01*
G01X7044400D02*
X7021500D01*
G01X7097700D02*
X7069800D01*
G01X7173200Y3840300D02*
X7137600D01*
G01X7146500Y3650000D02*
X7088100D01*
G01X6900100Y3627200D02*
X6872200D01*
G01X6900100Y3840500D02*
X6872200D01*
G01X7008300Y3843800D02*
X6929600D01*
G01X7044400D02*
X7021500D01*
G01X7097700D02*
X7072300D01*
G01X7170600Y3842800D02*
X7140100D01*
G01X7179500Y3650000D02*
X7171900D01*
G01X6900100Y3843100D02*
X6872200D01*
G01X7008300Y3846400D02*
X6929600D01*
G01X7044400D02*
X7021500D01*
G01X7097700D02*
X7072300D01*
G01X7170600Y3845300D02*
X7140100D01*
G01X7232800Y3650000D02*
X7202400D01*
G01X6900100Y3629700D02*
X6872200D01*
G01X6900100Y3845600D02*
X6872200D01*
G01X7008300Y3848900D02*
X6929600D01*
G01X7044400D02*
X7021500D01*
G01X7097700D02*
X7074900D01*
G01X7170600Y3847900D02*
X7140100D01*
G01X6900100Y3848100D02*
X6872200D01*
G01X6900100Y3850700D02*
X6872200D01*
G01X6900100Y3853200D02*
X6872200D01*
G01X6900100Y3855800D02*
X6872200D01*
G01X6900100Y3858300D02*
X6872200D01*
G01X6900100Y3860800D02*
X6872200D01*
G01X6900100Y3863400D02*
X6872200D01*
G01X6900100Y3865900D02*
X6872200D01*
G01X6900100Y3868500D02*
X6872200D01*
G01X6900100Y3871000D02*
X6872200D01*
G01X6900100Y3873500D02*
X6872200D01*
G01X6900100Y3876100D02*
X6872200D01*
G01X6900100Y3878600D02*
X6872200D01*
G01X6900100Y3881200D02*
X6872200D01*
G01X6900100Y3883700D02*
X6872200D01*
G01X7309000Y3998000D02*
X7156600D01*
G01X6900100Y4000500D02*
X6872200D01*
G01X7098200D02*
X6994100D01*
G01X7309000D02*
X7156600D01*
G01X6900100Y4003100D02*
X6872200D01*
G01X7105800D02*
X6996600D01*
G01X7309000D02*
X7156600D01*
G01X6900100Y4005600D02*
X6872200D01*
G01X7108400D02*
X6996600D01*
G01X7309000D02*
X7156600D01*
G01X6900100Y4008200D02*
X6872200D01*
G01X7113500D02*
X6999200D01*
G01X7309000D02*
X7156600D01*
G01X6900100Y4010700D02*
X6872200D01*
G01X7116000D02*
X7001700D01*
G01X7309000D02*
X7156600D01*
G01X6900100Y4013200D02*
X6872200D01*
G01X7118500D02*
X7004200D01*
G01X7309000D02*
X7156600D01*
G01X6900100Y4015800D02*
X6872200D01*
G01X7121100D02*
X7009300D01*
G01X7309000D02*
X7156600D01*
G01X6900100Y4018300D02*
X6872200D01*
G01X7123600D02*
X7011900D01*
G01X7309000D02*
X7156600D01*
G01X6900100Y4020900D02*
X6872200D01*
G01X7123600D02*
X7016900D01*
G01X7309000D02*
X7156600D01*
G01X6900100Y4023400D02*
X6872200D01*
G01X7126200D02*
X7022000D01*
G01X7309000D02*
X7156600D01*
G01X6900100Y4025900D02*
X6872200D01*
G01X7126200D02*
X7029600D01*
G01X7309000D02*
X7156600D01*
G01X6900100Y4028500D02*
X6872200D01*
G01X7126200D02*
X7039800D01*
G01X7309000D02*
X7156600D01*
G01X6900100Y4031000D02*
X6872200D01*
G01X7128700D02*
X7047400D01*
G01X7210000D02*
X7156600D01*
G01X6900100Y4033600D02*
X6872200D01*
G01X7128700D02*
X7060100D01*
G01X7210000D02*
X7156600D01*
G01X6900100Y4036100D02*
X6872200D01*
G01X7047400D02*
X7011900D01*
G01X7128700D02*
X7070300D01*
G01X7210000D02*
X7156600D01*
G01X6900100Y4038600D02*
X6872200D01*
G01X7047400D02*
X6994100D01*
G01X7128700D02*
X7072800D01*
G01X7210000D02*
X7156600D01*
G01X6900100Y4041200D02*
X6872200D01*
G01X7050000D02*
X6994100D01*
G01X7128700D02*
X7075400D01*
G01X7210000D02*
X7156600D01*
G01X6900100Y4043700D02*
X6872200D01*
G01X7050000D02*
X6994100D01*
G01X7128700D02*
X7075400D01*
G01X7210000D02*
X7156600D01*
G01X6900100Y4046300D02*
X6872200D01*
G01X7050000D02*
X6994100D01*
G01X7128700D02*
X7075400D01*
G01X7210000D02*
X7156600D01*
G01X6900100Y4048800D02*
X6872200D01*
G01X7052500D02*
X6996600D01*
G01X7128700D02*
X7075400D01*
G01X7210000D02*
X7156600D01*
G01X6900100Y4051300D02*
X6872200D01*
G01X7055000D02*
X6996600D01*
G01X7126200D02*
X7072800D01*
G01X7210000D02*
X7156600D01*
G01X6900100Y4053900D02*
X6872200D01*
G01X7060100D02*
X6996600D01*
G01X7126200D02*
X7067700D01*
G01X7210000D02*
X7156600D01*
G01X6900100Y4056400D02*
X6872200D01*
G01X7126200D02*
X6999200D01*
G01X7210000D02*
X7156600D01*
G01X6900100Y4059000D02*
X6872200D01*
G01X7123600D02*
X6999200D01*
G01X7210000D02*
X7156600D01*
G01X6900100Y4061500D02*
X6872200D01*
G01X7123600D02*
X7001700D01*
G01X7210000D02*
X7156600D01*
G01X6900100Y4064000D02*
X6872200D01*
G01X7121100D02*
X7001700D01*
G01X7210000D02*
X7156600D01*
G01X6900100Y4066600D02*
X6872200D01*
G01X7118500D02*
X7004200D01*
G01X7210000D02*
X7156600D01*
G01X6900100Y4069100D02*
X6872200D01*
G01X7116000D02*
X7006800D01*
G01X7210000D02*
X7156600D01*
G01X6900100Y4071700D02*
X6872200D01*
G01X7113500D02*
X7009300D01*
G01X7210000D02*
X7156600D01*
G01X6900100Y4074200D02*
X6872200D01*
G01X7110900D02*
X7011900D01*
G01X7210000D02*
X7156600D01*
G01X6900100Y4076700D02*
X6872200D01*
G01X7105800D02*
X7016900D01*
G01X7210000D02*
X7156600D01*
G01X6900100Y4079300D02*
X6872200D01*
G01X7100800D02*
X7022000D01*
G01X7210000D02*
X7156600D01*
G01X6900100Y4081800D02*
X6872200D01*
G01X7095700D02*
X7027100D01*
G01X7210000D02*
X7156600D01*
G01X6900100Y4084400D02*
X6872200D01*
G01X7083000D02*
X7037300D01*
G01X6900100Y4086900D02*
X6872200D01*
G01X6900100Y4089400D02*
X6872200D01*
G01X6900100Y4092000D02*
X6872200D01*
G01X6900100Y4094500D02*
X6872200D01*
G01X6900100Y4097100D02*
X6872200D01*
G01X6900100Y4099600D02*
X6872200D01*
G01X6900100Y4102100D02*
X6872200D01*
G01X6900100Y4104700D02*
X6872200D01*
G01X6900100Y4107200D02*
X6872200D01*
G01X6900100Y4109800D02*
X6872200D01*
G01X6900100Y4112300D02*
X6872200D01*
G01X6900100Y4114800D02*
X6872200D01*
G01X6900100Y4117400D02*
X6872200D01*
G01X6900100Y4119900D02*
X6872200D01*
G01X6900100Y4122500D02*
X6872200D01*
G01X6900100Y4125000D02*
X6872200D01*
G01X6900100Y4127500D02*
X6872200D01*
G01X6900100Y4130100D02*
X6872200D01*
G01X6900100Y4132600D02*
X6872200D01*
G01X6900100Y4135200D02*
X6872200D01*
G01X6900100Y4137700D02*
X6872200D01*
G01X6900100Y4140200D02*
X6872200D01*
G01X6900100Y4142800D02*
X6872200D01*
G01X6900100Y4145300D02*
X6872200D01*
G01X6900100Y4147900D02*
X6872200D01*
G01X6900100Y4150400D02*
X6872200D01*
G01X6900100Y4152900D02*
X6872200D01*
G01X6900100Y4155500D02*
X6872200D01*
G01X6900100Y4158000D02*
X6872200D01*
G01X6900100Y4160600D02*
X6872200D01*
G01X6900100Y4163100D02*
X6872200D01*
G01X7751000Y4165600D02*
X6872200D01*
G01X7751000Y4168200D02*
X6872200D01*
G01X7751000Y4170700D02*
X6872200D01*
G01X7751000Y4173300D02*
X6872200D01*
G01X7751000Y4175800D02*
X6872200D01*
G01X7751000Y4178300D02*
X6872200D01*
G01X7751000Y4180900D02*
X6872200D01*
G01X7751000Y4183400D02*
X6872200D01*
G01X7751000Y4186000D02*
X6872200D01*
G01X7751000Y4188500D02*
X6872200D01*
G01X7751000Y4191000D02*
X6872200D01*
G01X7751000Y4193600D02*
X6872200D01*
G01X6900100Y3886200D02*
X6872200D01*
G01X6900100Y3888800D02*
X6872200D01*
G01X6900100Y3891300D02*
X6872200D01*
G01X6900100Y3893900D02*
X6872200D01*
G01X6900100Y3896400D02*
X6872200D01*
G01X6900100Y3898900D02*
X6872200D01*
G01X6900100Y3901500D02*
X6872200D01*
G01X6900100Y3904000D02*
X6872200D01*
G01X6900100Y3906600D02*
X6872200D01*
G01X6900100Y3909100D02*
X6872200D01*
G01X6900100Y3911600D02*
X6872200D01*
G01X6900100Y3914200D02*
X6872200D01*
G01X6900100Y3916700D02*
X6872200D01*
G01X6900100Y3919300D02*
X6872200D01*
G01X6900100Y3921800D02*
X6872200D01*
G01X6900100Y3924300D02*
X6872200D01*
G01X6900100Y3926900D02*
X6872200D01*
G01X7085500D02*
X7037300D01*
G01X6900100Y3929400D02*
X6872200D01*
G01X7095700D02*
X7027100D01*
G01X7210000D02*
X7156600D01*
G01X6900100Y3932000D02*
X6872200D01*
G01X7103300D02*
X7022000D01*
G01X7210000D02*
X7156600D01*
G01X6900100Y3934500D02*
X6872200D01*
G01X7108400D02*
X7016900D01*
G01X7210000D02*
X7156600D01*
G01X6900100Y3937000D02*
X6872200D01*
G01X7110900D02*
X7011900D01*
G01X7210000D02*
X7156600D01*
G01X6900100Y3939600D02*
X6872200D01*
G01X7116000D02*
X7009300D01*
G01X7210000D02*
X7156600D01*
G01X6900100Y3942100D02*
X6872200D01*
G01X7118500D02*
X7004200D01*
G01X7210000D02*
X7156600D01*
G01X6900100Y3944700D02*
X6872200D01*
G01X7118500D02*
X7001700D01*
G01X7210000D02*
X7156600D01*
G01X6900100Y3947200D02*
X6872200D01*
G01X7121100D02*
X6999200D01*
G01X7210000D02*
X7156600D01*
G01X6900100Y3949700D02*
X6872200D01*
G01X7123600D02*
X6999200D01*
G01X7210000D02*
X7156600D01*
G01X6900100Y3952300D02*
X6872200D01*
G01X7126200D02*
X6996600D01*
G01X7210000D02*
X7156600D01*
G01X6900100Y3954800D02*
X6872200D01*
G01X7126200D02*
X6994100D01*
G01X7210000D02*
X7156600D01*
G01X6900100Y3957400D02*
X6872200D01*
G01X7128700D02*
X6994100D01*
G01X7210000D02*
X7156600D01*
G01X6900100Y3959900D02*
X6872200D01*
G01X7052500D02*
X6991500D01*
G01X7128700D02*
X7065200D01*
G01X7210000D02*
X7156600D01*
G01X6900100Y3962400D02*
X6872200D01*
G01X7047400D02*
X6991500D01*
G01X7131200D02*
X7070300D01*
G01X7210000D02*
X7156600D01*
G01X6900100Y3965000D02*
X6872200D01*
G01X7044900D02*
X6991500D01*
G01X7131200D02*
X7072800D01*
G01X7210000D02*
X7156600D01*
G01X6900100Y3967500D02*
X6872200D01*
G01X7044900D02*
X6989000D01*
G01X7131200D02*
X7075400D01*
G01X7210000D02*
X7156600D01*
G01X6900100Y3970100D02*
X6872200D01*
G01X7042300D02*
X6989000D01*
G01X7131200D02*
X7077900D01*
G01X7210000D02*
X7156600D01*
G01X6900100Y3972600D02*
X6872200D01*
G01X7042300D02*
X6989000D01*
G01X7133800D02*
X7077900D01*
G01X7210000D02*
X7156600D01*
G01X6900100Y3975100D02*
X6872200D01*
G01X7042300D02*
X6989000D01*
G01X7133800D02*
X7077900D01*
G01X7210000D02*
X7156600D01*
G01X6900100Y3977700D02*
X6872200D01*
G01X7042300D02*
X6989000D01*
G01X7133800D02*
X7080400D01*
G01X7210000D02*
X7156600D01*
G01X6900100Y3980200D02*
X6872200D01*
G01X7044900D02*
X6989000D01*
G01X7133800D02*
X7080400D01*
G01X7210000D02*
X7156600D01*
G01X6900100Y3982800D02*
X6872200D01*
G01X7047400D02*
X6989000D01*
G01X7113500D02*
X7080400D01*
G01X7210000D02*
X7156600D01*
G01X6900100Y3985300D02*
X6872200D01*
G01X7050000D02*
X6989000D01*
G01X7210000D02*
X7156600D01*
G01X6900100Y3987800D02*
X6872200D01*
G01X7057600D02*
X6989000D01*
G01X7210000D02*
X7156600D01*
G01X6900100Y3990400D02*
X6872200D01*
G01X7067700D02*
X6989000D01*
G01X7309000D02*
X7156600D01*
G01X6900100Y3992900D02*
X6872200D01*
G01X7077900D02*
X6991500D01*
G01X7309000D02*
X7156600D01*
G01X6900100Y3995500D02*
X6872200D01*
G01X7085500D02*
X6991500D01*
G01X7309000D02*
X7156600D01*
G01X6900100Y3998000D02*
X6872200D01*
G01X7093100D02*
X6994100D01*
G01X7535000Y3001900D02*
X7367300D01*
G01X7535000Y3004500D02*
X7367300D01*
G01X7535000Y3007000D02*
X7367300D01*
G01X7542600Y3009600D02*
X7390200D01*
G01X7542600Y3012100D02*
X7390200D01*
G01X7542600Y3014600D02*
X7390200D01*
G01X7550200Y3017200D02*
X7405400D01*
G01X7550200Y3019700D02*
X7405400D01*
G01X7550200Y3022300D02*
X7405400D01*
G01X7352100Y3070500D02*
X7283500D01*
G01X7352100Y3073100D02*
X7283500D01*
G01X7352100Y3075600D02*
X7283500D01*
G01X7375000Y3078100D02*
X7260700D01*
G01X7375000Y3080700D02*
X7260700D01*
G01X7375000Y3083200D02*
X7260700D01*
G01X7390200Y3085800D02*
X7245400D01*
G01X7390200Y3088300D02*
X7245400D01*
G01X7390200Y3090800D02*
X7245400D01*
G01X7405400Y3093400D02*
X7230200D01*
G01X7405400Y3095900D02*
X7230200D01*
G01X7405400Y3098500D02*
X7230200D01*
G01X7413100Y3101000D02*
X7222600D01*
G01X7550200D02*
X7504500D01*
G01X7413100Y3103500D02*
X7222600D01*
G01X7550200D02*
X7504500D01*
G01X7413100Y3106100D02*
X7222600D01*
G01X7550200D02*
X7504500D01*
G01X7542600Y3108600D02*
X7504500D01*
G01X7542600Y3111200D02*
X7504500D01*
G01X7542600Y3113700D02*
X7504500D01*
G01X7428300Y3116200D02*
X7344500D01*
G01X7535000D02*
X7512100D01*
G01X7428300Y3118800D02*
X7344500D01*
G01X7535000D02*
X7512100D01*
G01X7428300Y3121300D02*
X7344500D01*
G01X7535000D02*
X7512100D01*
G01X7435900Y3123900D02*
X7359700D01*
G01X7527400D02*
X7512100D01*
G01X7435900Y3126400D02*
X7359700D01*
G01X7527400D02*
X7512100D01*
G01X7435900Y3128900D02*
X7359700D01*
G01X7527400D02*
X7512100D01*
G01X7443500Y3131500D02*
X7367300D01*
G01X7443500Y3134000D02*
X7367300D01*
G01Y2910500D02*
X7268300D01*
G01X7367300Y2913000D02*
X7268300D01*
G01X7367300Y2915600D02*
X7268300D01*
G01X7397800Y2918100D02*
X7237800D01*
G01X7397800Y2920700D02*
X7237800D01*
G01X7397800Y2923200D02*
X7237800D01*
G01X7557800Y3024800D02*
X7420700D01*
G01X7557800Y3027300D02*
X7420700D01*
G01X7557800Y3029900D02*
X7420700D01*
G01X7565500Y3032400D02*
X7435900D01*
G01X7565500Y3035000D02*
X7435900D01*
G01X7565500Y3037500D02*
X7435900D01*
G01X7573100Y3040000D02*
X7443500D01*
G01X7573100Y3042600D02*
X7443500D01*
G01X7573100Y3045100D02*
X7443500D01*
G01X7573100Y3047700D02*
X7451200D01*
G01X7573100Y3050200D02*
X7451200D01*
G01X7573100Y3052700D02*
X7451200D01*
G01X7580700Y3055300D02*
X7466400D01*
G01X7580700Y3057800D02*
X7466400D01*
G01X7580700Y3060400D02*
X7466400D01*
G01X7588300Y3062900D02*
X7474000D01*
G01X7588300Y3065400D02*
X7474000D01*
G01X7588300Y3068000D02*
X7474000D01*
G01X7588300Y3070500D02*
X7481600D01*
G01X7588300Y3073100D02*
X7481600D01*
G01X7588300Y3075600D02*
X7481600D01*
G01X7595900Y3078100D02*
X7481600D01*
G01X7595900Y3080700D02*
X7481600D01*
G01X7595900Y3083200D02*
X7481600D01*
G01X7565500Y3085800D02*
X7489300D01*
G01X7595900D02*
X7580700D01*
G01X7565500Y3088300D02*
X7489300D01*
G01X7595900D02*
X7580700D01*
G01X7565500Y3090800D02*
X7489300D01*
G01X7595900D02*
X7580700D01*
G01X7557800Y3093400D02*
X7496900D01*
G01X7603600D02*
X7588300D01*
G01X7557800Y3095900D02*
X7496900D01*
G01X7603600D02*
X7588300D01*
G01X7557800Y3098500D02*
X7496900D01*
G01X7603600D02*
X7588300D01*
G01X7603600Y3101000D02*
X7595900D01*
G01X7603600Y3103500D02*
X7595900D01*
G01X7603600Y3106100D02*
X7595900D01*
G01X7580700Y3116200D02*
X7565500D01*
G01X7580700Y3118800D02*
X7565500D01*
G01X7580700Y3121300D02*
X7565500D01*
G01X7588300Y3123900D02*
X7557800D01*
G01X7588300Y3126400D02*
X7557800D01*
G01X7588300Y3128900D02*
X7557800D01*
G01X7595900Y3131500D02*
X7550200D01*
G01X7595900Y3134000D02*
X7550200D01*
G01X7458800Y3238200D02*
X7397800D01*
G01X7458800Y3240700D02*
X7397800D01*
G01X7458800Y3243200D02*
X7397800D01*
G01X7458800Y3245800D02*
X7390200D01*
G01X7458800Y3248300D02*
X7390200D01*
G01X7458800Y3250900D02*
X7390200D01*
G01X7458800Y3253400D02*
X7390200D01*
G01X7458800Y3255900D02*
X7390200D01*
G01X7458800Y3258500D02*
X7390200D01*
G01X7458800Y3261000D02*
X7382600D01*
G01X7458800Y3263600D02*
X7382600D01*
G01X7458800Y3266100D02*
X7382600D01*
G01X7451200Y3268600D02*
X7375000D01*
G01X7451200Y3271200D02*
X7375000D01*
G01X7451200Y3273700D02*
X7375000D01*
G01X7451200Y3276300D02*
X7375000D01*
G01X7451200Y3278800D02*
X7375000D01*
G01X7451200Y3281300D02*
X7375000D01*
G01X7443500Y3283900D02*
X7359700D01*
G01X7443500Y3286400D02*
X7359700D01*
G01X7443500Y3289000D02*
X7359700D01*
G01X7435900Y3291500D02*
X7352100D01*
G01X7435900Y3294000D02*
X7352100D01*
G01X7435900Y3296600D02*
X7352100D01*
G01X7413100Y3322000D02*
X7222600D01*
G01X7413100Y3324500D02*
X7222600D01*
G01X7413100Y3327100D02*
X7222600D01*
G01X7397800Y3329600D02*
X7230200D01*
G01X7397800Y3332100D02*
X7230200D01*
G01X7397800Y3334700D02*
X7230200D01*
G01X7390200Y3337200D02*
X7245400D01*
G01X7390200Y3339800D02*
X7245400D01*
G01X7390200Y3342300D02*
X7245400D01*
G01X7375000Y3344800D02*
X7260700D01*
G01X7375000Y3347400D02*
X7260700D01*
G01X7375000Y3349900D02*
X7260700D01*
G01X7344500Y3352500D02*
X7291100D01*
G01X7344500Y3355000D02*
X7291100D01*
G01X7344500Y3357500D02*
X7291100D01*
G01X7550200Y3405800D02*
X7405400D01*
G01X7550200Y3408300D02*
X7405400D01*
G01X7550200Y3410900D02*
X7405400D01*
G01X7542600Y3413400D02*
X7390200D01*
G01X7542600Y3416000D02*
X7390200D01*
G01X7542600Y3418500D02*
X7390200D01*
G01X7535000Y3421000D02*
X7359700D01*
G01X7535000Y3423600D02*
X7359700D01*
G01X7535000Y3426100D02*
X7359700D01*
G01X7420700Y3497200D02*
X7222600D01*
G01X7420700Y3499800D02*
X7222600D01*
G01X7420700Y3502300D02*
X7222600D01*
G01X7397800Y3504900D02*
X7245400D01*
G01X7397800Y3507400D02*
X7245400D01*
G01X7443500Y3136600D02*
X7367300D01*
G01X7451200Y3139100D02*
X7375000D01*
G01X7451200Y3141600D02*
X7375000D01*
G01X7451200Y3144200D02*
X7375000D01*
G01X7451200Y3146700D02*
X7382600D01*
G01X7451200Y3149300D02*
X7382600D01*
G01X7451200Y3151800D02*
X7382600D01*
G01X7458800Y3154300D02*
X7382600D01*
G01X7458800Y3156900D02*
X7382600D01*
G01X7458800Y3159400D02*
X7382600D01*
G01X7458800Y3162000D02*
X7390200D01*
G01X7458800Y3164500D02*
X7390200D01*
G01X7458800Y3167000D02*
X7390200D01*
G01X7458800Y3169600D02*
X7390200D01*
G01X7458800Y3172100D02*
X7390200D01*
G01X7458800Y3174700D02*
X7390200D01*
G01X7466400Y3177200D02*
X7390200D01*
G01X7466400Y3179700D02*
X7390200D01*
G01X7466400Y3182300D02*
X7390200D01*
G01X7466400Y3184800D02*
X7390200D01*
G01X7466400Y3187400D02*
X7390200D01*
G01X7466400Y3189900D02*
X7390200D01*
G01X7618800Y3215300D02*
X7527400D01*
G01X7618800Y3217800D02*
X7527400D01*
G01X7618800Y3220400D02*
X7527400D01*
G01X7618800Y3222900D02*
X7527400D01*
G01X7618800Y3225500D02*
X7527400D01*
G01X7618800Y3228000D02*
X7527400D01*
G01X7618800Y3230500D02*
X7527400D01*
G01X7618800Y3233100D02*
X7527400D01*
G01X7618800Y3235600D02*
X7527400D01*
G01X7618800Y3238200D02*
X7527400D01*
G01X7618800Y3240700D02*
X7527400D01*
G01X7618800Y3243200D02*
X7527400D01*
G01X7618800Y3245800D02*
X7527400D01*
G01X7618800Y3248300D02*
X7527400D01*
G01X7618800Y3250900D02*
X7527400D01*
G01X7618800Y3253400D02*
X7527400D01*
G01X7618800Y3255900D02*
X7527400D01*
G01X7618800Y3258500D02*
X7527400D01*
G01X7611200Y3261000D02*
X7519700D01*
G01X7611200Y3263600D02*
X7519700D01*
G01X7611200Y3266100D02*
X7519700D01*
G01X7611200Y3268600D02*
X7519700D01*
G01X7611200Y3271200D02*
X7519700D01*
G01X7611200Y3273700D02*
X7519700D01*
G01X7611200Y3276300D02*
X7519700D01*
G01X7611200Y3278800D02*
X7519700D01*
G01X7611200Y3281300D02*
X7519700D01*
G01X7611200Y3283900D02*
X7519700D01*
G01X7611200Y3286400D02*
X7519700D01*
G01X7611200Y3289000D02*
X7519700D01*
G01X7611200Y3291500D02*
X7512100D01*
G01X7611200Y3294000D02*
X7512100D01*
G01X7611200Y3296600D02*
X7512100D01*
G01X7603600Y3299100D02*
X7512100D01*
G01X7603600Y3301700D02*
X7512100D01*
G01X7603600Y3304200D02*
X7512100D01*
G01X7603600Y3306700D02*
X7504500D01*
G01X7603600Y3309300D02*
X7504500D01*
G01X7603600Y3311800D02*
X7504500D01*
G01X7603600Y3314400D02*
X7504500D01*
G01X7603600Y3316900D02*
X7504500D01*
G01X7603600Y3319400D02*
X7504500D01*
G01X7595900Y3322000D02*
X7496900D01*
G01X7595900Y3324500D02*
X7496900D01*
G01X7595900Y3327100D02*
X7496900D01*
G01X7595900Y3329600D02*
X7496900D01*
G01X7595900Y3332100D02*
X7496900D01*
G01X7595900Y3334700D02*
X7496900D01*
G01X7588300Y3337200D02*
X7489300D01*
G01X7588300Y3339800D02*
X7489300D01*
G01X7588300Y3342300D02*
X7489300D01*
G01X7588300Y3344800D02*
X7481600D01*
G01X7588300Y3347400D02*
X7481600D01*
G01X7588300Y3349900D02*
X7481600D01*
G01X7580700Y3352500D02*
X7474000D01*
G01X7580700Y3355000D02*
X7474000D01*
G01X7580700Y3357500D02*
X7474000D01*
G01X7580700Y3360100D02*
X7466400D01*
G01X7580700Y3362600D02*
X7466400D01*
G01X7580700Y3365200D02*
X7466400D01*
G01X7573100Y3367700D02*
X7458800D01*
G01X7573100Y3370200D02*
X7458800D01*
G01X7573100Y3372800D02*
X7458800D01*
G01X7573100Y3375300D02*
X7451200D01*
G01X7573100Y3377900D02*
X7451200D01*
G01X7573100Y3380400D02*
X7451200D01*
G01X7565500Y3382900D02*
X7443500D01*
G01X7565500Y3385500D02*
X7443500D01*
G01X7565500Y3388000D02*
X7443500D01*
G01X7557800Y3390600D02*
X7435900D01*
G01X7557800Y3393100D02*
X7435900D01*
G01X7557800Y3395600D02*
X7435900D01*
G01X7557800Y3398200D02*
X7420700D01*
G01X7557800Y3400700D02*
X7420700D01*
G01X7557800Y3403300D02*
X7420700D01*
G01X7595900Y3136600D02*
X7550200D01*
G01X7603600Y3139100D02*
X7542600D01*
G01X7603600Y3141600D02*
X7542600D01*
G01X7603600Y3144200D02*
X7542600D01*
G01X7611200Y3146700D02*
X7535000D01*
G01X7611200Y3149300D02*
X7535000D01*
G01X7611200Y3151800D02*
X7535000D01*
G01X7618800Y3154300D02*
X7527400D01*
G01X7618800Y3156900D02*
X7527400D01*
G01X7618800Y3159400D02*
X7527400D01*
G01X7626400Y3162000D02*
X7519700D01*
G01X7626400Y3164500D02*
X7519700D01*
G01X7626400Y3167000D02*
X7519700D01*
G01X7634000Y3169600D02*
X7512100D01*
G01X7634000Y3172100D02*
X7512100D01*
G01X7634000Y3174700D02*
X7512100D01*
G01X7641700Y3177200D02*
X7504500D01*
G01X7641700Y3179700D02*
X7504500D01*
G01X7641700Y3182300D02*
X7504500D01*
G01X7649300Y3184800D02*
X7496900D01*
G01X7649300Y3187400D02*
X7496900D01*
G01X7649300Y3189900D02*
X7496900D01*
G01X7656900Y3192400D02*
X7489300D01*
G01X7656900Y3195000D02*
X7489300D01*
G01X7656900Y3197500D02*
X7489300D01*
G01X7664500Y3200100D02*
X7481600D01*
G01X7664500Y3202600D02*
X7481600D01*
G01X7664500Y3205100D02*
X7481600D01*
G01X7618800Y3207700D02*
X7527400D01*
G01X7618800Y3210200D02*
X7527400D01*
G01X7618800Y3212800D02*
X7527400D01*
G01X7342100Y3650000D02*
X7334400D01*
G01X7405600D02*
X7352200D01*
G01X7464000D02*
X7433500D01*
G01X7532600D02*
X7502100D01*
G01X7611300D02*
X7558000D01*
G01X7304000Y3652600D02*
X7268400D01*
G01X7342100D02*
X7334400D01*
G01X7405600D02*
X7352200D01*
G01X7466500D02*
X7431000D01*
G01X7535100D02*
X7499500D01*
G01X7611300D02*
X7558000D01*
G01X7306500Y3655100D02*
X7265900D01*
G01X7342100D02*
X7331900D01*
G01X7405600D02*
X7352200D01*
G01X7469100D02*
X7428400D01*
G01X7537600D02*
X7497000D01*
G01X7611300D02*
X7558000D01*
G01X7309000Y3657600D02*
X7265900D01*
G01X7342100D02*
X7331900D01*
G01X7403000D02*
X7352200D01*
G01X7471600D02*
X7425900D01*
G01X7540200D02*
X7494500D01*
G01X7608800D02*
X7558000D01*
G01X7243000Y3660200D02*
X7222700D01*
G01X7281100D02*
X7263300D01*
G01X7309000D02*
X7288700D01*
G01X7339500D02*
X7331900D01*
G01X7403000D02*
X7352200D01*
G01X7443700D02*
X7425900D01*
G01X7471600D02*
X7453800D01*
G01X7512200D02*
X7494500D01*
G01X7540200D02*
X7522400D01*
G01X7608800D02*
X7558000D01*
G01X7243000Y3662700D02*
X7225200D01*
G01X7281100D02*
X7263300D01*
G01X7311600D02*
X7291300D01*
G01X7339500D02*
X7331900D01*
G01X7400500D02*
X7380200D01*
G01X7443700D02*
X7423300D01*
G01X7474100D02*
X7453800D01*
G01X7512200D02*
X7491900D01*
G01X7542700D02*
X7522400D01*
G01X7606200D02*
X7585900D01*
G01X7245500Y3665300D02*
X7225200D01*
G01X7278600D02*
X7260800D01*
G01X7293800D02*
X7291300D01*
G01X7339500D02*
X7329400D01*
G01X7400500D02*
X7377600D01*
G01X7441100D02*
X7423300D01*
G01X7474100D02*
X7456400D01*
G01X7509700D02*
X7491900D01*
G01X7542700D02*
X7524900D01*
G01X7606200D02*
X7583400D01*
G01X7227800Y3667800D02*
X7225200D01*
G01X7278600D02*
X7260800D01*
G01X7339500D02*
X7329400D01*
G01X7397900D02*
X7375100D01*
G01X7441100D02*
X7423300D01*
G01X7474100D02*
X7456400D01*
G01X7509700D02*
X7491900D01*
G01X7542700D02*
X7524900D01*
G01X7603700D02*
X7580800D01*
G01X7278600Y3670300D02*
X7260800D01*
G01X7337000D02*
X7329400D01*
G01X7395400D02*
X7372500D01*
G01X7441100D02*
X7423300D01*
G01X7474100D02*
X7456400D01*
G01X7509700D02*
X7491900D01*
G01X7542700D02*
X7524900D01*
G01X7601100D02*
X7578300D01*
G01X7278600Y3672900D02*
X7260800D01*
G01X7298900D02*
X7288700D01*
G01X7337000D02*
X7329400D01*
G01X7392900D02*
X7370000D01*
G01X7441100D02*
X7423300D01*
G01X7474100D02*
X7456400D01*
G01X7509700D02*
X7491900D01*
G01X7542700D02*
X7524900D01*
G01X7598600D02*
X7575700D01*
G01X7278600Y3675400D02*
X7258200D01*
G01X7304000D02*
X7283600D01*
G01X7337000D02*
X7326800D01*
G01X7390300D02*
X7364900D01*
G01X7441100D02*
X7420800D01*
G01X7476700D02*
X7456400D01*
G01X7509700D02*
X7489400D01*
G01X7545300D02*
X7524900D01*
G01X7596100D02*
X7570700D01*
G01X7278600Y3678000D02*
X7258200D01*
G01X7306500D02*
X7281100D01*
G01X7337000D02*
X7326800D01*
G01X7387800D02*
X7362400D01*
G01X7441100D02*
X7420800D01*
G01X7476700D02*
X7456400D01*
G01X7509700D02*
X7489400D01*
G01X7545300D02*
X7524900D01*
G01X7593500D02*
X7568100D01*
G01X7230300Y3680500D02*
X7225200D01*
G01X7309000D02*
X7258200D01*
G01X7334400D02*
X7326800D01*
G01X7385200D02*
X7359800D01*
G01X7441100D02*
X7420800D01*
G01X7476700D02*
X7456400D01*
G01X7509700D02*
X7489400D01*
G01X7545300D02*
X7524900D01*
G01X7591000D02*
X7565600D01*
G01X7243000Y3683000D02*
X7222700D01*
G01X7311600D02*
X7258200D01*
G01X7334400D02*
X7326800D01*
G01X7380200D02*
X7357300D01*
G01X7441100D02*
X7420800D01*
G01X7476700D02*
X7456400D01*
G01X7509700D02*
X7489400D01*
G01X7545300D02*
X7524900D01*
G01X7585900D02*
X7563000D01*
G01X7281100Y3685600D02*
X7258200D01*
G01X7311600D02*
X7291300D01*
G01X7334400D02*
X7326800D01*
G01X7377600D02*
X7357300D01*
G01X7441100D02*
X7420800D01*
G01X7476700D02*
X7456400D01*
G01X7509700D02*
X7489400D01*
G01X7545300D02*
X7524900D01*
G01X7583400D02*
X7563000D01*
G01X7281100Y3688100D02*
X7258200D01*
G01X7311600D02*
X7293800D01*
G01X7334400D02*
X7324300D01*
G01X7375100D02*
X7354800D01*
G01X7441100D02*
X7420800D01*
G01X7476700D02*
X7456400D01*
G01X7509700D02*
X7489400D01*
G01X7545300D02*
X7524900D01*
G01X7580800D02*
X7560500D01*
G01X7278600Y3690700D02*
X7258200D01*
G01X7314100D02*
X7293800D01*
G01X7334400D02*
X7324300D01*
G01X7375100D02*
X7354800D01*
G01X7441100D02*
X7420800D01*
G01X7476700D02*
X7456400D01*
G01X7509700D02*
X7489400D01*
G01X7545300D02*
X7524900D01*
G01X7580800D02*
X7560500D01*
G01X7278600Y3693200D02*
X7260800D01*
G01X7314100D02*
X7293800D01*
G01X7331900D02*
X7324300D01*
G01X7372500D02*
X7354800D01*
G01X7441100D02*
X7423300D01*
G01X7474100D02*
X7456400D01*
G01X7509700D02*
X7491900D01*
G01X7542700D02*
X7524900D01*
G01X7578300D02*
X7560500D01*
G01X7240500Y3695700D02*
X7222700D01*
G01X7278600D02*
X7260800D01*
G01X7314100D02*
X7293800D01*
G01X7331900D02*
X7324300D01*
G01X7372500D02*
X7352200D01*
G01X7390300D02*
X7385200D01*
G01X7441100D02*
X7423300D01*
G01X7474100D02*
X7456400D01*
G01X7509700D02*
X7491900D01*
G01X7542700D02*
X7524900D01*
G01X7578300D02*
X7558000D01*
G01X7596100D02*
X7591000D01*
G01X7237900Y3698300D02*
X7222700D01*
G01X7278600D02*
X7260800D01*
G01X7314100D02*
X7293800D01*
G01X7331900D02*
X7321700D01*
G01X7372500D02*
X7352200D01*
G01X7405600D02*
X7385200D01*
G01X7441100D02*
X7423300D01*
G01X7474100D02*
X7456400D01*
G01X7509700D02*
X7491900D01*
G01X7542700D02*
X7524900D01*
G01X7578300D02*
X7558000D01*
G01X7611300D02*
X7591000D01*
G01X7237900Y3700800D02*
X7222700D01*
G01X7278600D02*
X7260800D01*
G01X7311600D02*
X7293800D01*
G01X7331900D02*
X7321700D01*
G01X7372500D02*
X7352200D01*
G01X7403000D02*
X7385200D01*
G01X7441100D02*
X7423300D01*
G01X7474100D02*
X7456400D01*
G01X7509700D02*
X7491900D01*
G01X7542700D02*
X7524900D01*
G01X7578300D02*
X7558000D01*
G01X7608800D02*
X7591000D01*
G01X7281100Y3703400D02*
X7263300D01*
G01X7311600D02*
X7293800D01*
G01X7329400D02*
X7321700D01*
G01X7372500D02*
X7352200D01*
G01X7403000D02*
X7385200D01*
G01X7443700D02*
X7423300D01*
G01X7474100D02*
X7453800D01*
G01X7512200D02*
X7491900D01*
G01X7542700D02*
X7522400D01*
G01X7578300D02*
X7558000D01*
G01X7608800D02*
X7591000D01*
G01X7283600Y3705900D02*
X7263300D01*
G01X7311600D02*
X7291300D01*
G01X7329400D02*
X7321700D01*
G01X7375100D02*
X7354800D01*
G01X7403000D02*
X7382700D01*
G01X7443700D02*
X7425900D01*
G01X7471600D02*
X7453800D01*
G01X7512200D02*
X7494500D01*
G01X7540200D02*
X7522400D01*
G01X7580800D02*
X7560500D01*
G01X7608800D02*
X7588400D01*
G01X7309000Y3708400D02*
X7265900D01*
G01X7329400D02*
X7319200D01*
G01X7400500D02*
X7354800D01*
G01X7471600D02*
X7425900D01*
G01X7540200D02*
X7494500D01*
G01X7606200D02*
X7560500D01*
G01X7309000Y3711000D02*
X7265900D01*
G01X7329400D02*
X7319200D01*
G01X7400500D02*
X7357300D01*
G01X7469100D02*
X7428400D01*
G01X7537600D02*
X7497000D01*
G01X7606200D02*
X7563000D01*
G01X7306500Y3713500D02*
X7268400D01*
G01X7326800D02*
X7319200D01*
G01X7397900D02*
X7359800D01*
G01X7466500D02*
X7431000D01*
G01X7535100D02*
X7499500D01*
G01X7603700D02*
X7565600D01*
G01X7301400Y3716100D02*
X7273500D01*
G01X7326800D02*
X7319200D01*
G01X7395400D02*
X7362400D01*
G01X7464000D02*
X7433500D01*
G01X7532600D02*
X7502100D01*
G01X7601100D02*
X7568100D01*
G01X7293800Y3718600D02*
X7281100D01*
G01X7326800D02*
X7316700D01*
G01X7385200D02*
X7372500D01*
G01X7453800D02*
X7441100D01*
G01X7522400D02*
X7509700D01*
G01X7591000D02*
X7578300D01*
G01X7572400Y3770400D02*
X7547000D01*
G01X7403000Y3770700D02*
X7375100D01*
G01X7580100Y3773000D02*
X7539400D01*
G01X7403000Y3773200D02*
X7375100D01*
G01X7585100Y3775500D02*
X7534300D01*
G01X7403000Y3775800D02*
X7375100D01*
G01X7587700Y3778000D02*
X7531800D01*
G01X7403000Y3778300D02*
X7375100D01*
G01X7590200Y3780600D02*
X7529300D01*
G01X7403000Y3780800D02*
X7375100D01*
G01X7592800Y3783100D02*
X7526700D01*
G01X7403000Y3783400D02*
X7375100D01*
G01X7592800Y3785700D02*
X7526700D01*
G01X7403000Y3785900D02*
X7375100D01*
G01X7554700Y3788200D02*
X7524200D01*
G01X7595300D02*
X7564800D01*
G01X7403000Y3788400D02*
X7375100D01*
G01X7552100Y3790700D02*
X7524200D01*
G01X7595300D02*
X7567400D01*
G01X7403000Y3791000D02*
X7375100D01*
G01X7549600Y3793300D02*
X7521600D01*
G01X7597800D02*
X7569900D01*
G01X7403000Y3793500D02*
X7375100D01*
G01X7549600Y3795800D02*
X7521600D01*
G01X7597800D02*
X7569900D01*
G01X7403000Y3796100D02*
X7354800D01*
G01X7547000Y3798400D02*
X7521600D01*
G01X7597800D02*
X7572400D01*
G01X7403000Y3798600D02*
X7347100D01*
G01X7547000Y3800900D02*
X7521600D01*
G01X7597800D02*
X7572400D01*
G01X7403000Y3801200D02*
X7344600D01*
G01X7547000Y3803400D02*
X7521600D01*
G01X7600400D02*
X7572400D01*
G01X7403000Y3803700D02*
X7342100D01*
G01X7547000Y3806000D02*
X7519100D01*
G01X7600400D02*
X7572400D01*
G01X7403000Y3806200D02*
X7342100D01*
G01X7547000Y3808500D02*
X7519100D01*
G01X7600400D02*
X7572400D01*
G01X7403000Y3808800D02*
X7339500D01*
G01X7547000Y3811100D02*
X7519100D01*
G01X7600400D02*
X7572400D01*
G01X7403000Y3811300D02*
X7339500D01*
G01X7547000Y3813600D02*
X7519100D01*
G01X7600400D02*
X7572400D01*
G01X7367500Y3813800D02*
X7339500D01*
G01X7403000D02*
X7375100D01*
G01X7547000Y3816100D02*
X7519100D01*
G01X7600400D02*
X7572400D01*
G01X7293800Y3647500D02*
X7281100D01*
G01X7364900Y3816400D02*
X7337000D01*
G01X7403000D02*
X7375100D01*
G01X7547000Y3818700D02*
X7519100D01*
G01X7597800D02*
X7572400D01*
G01X7344600Y3647500D02*
X7334400D01*
G01X7364900Y3818900D02*
X7337000D01*
G01X7403000D02*
X7375100D01*
G01X7547000Y3821200D02*
X7521600D01*
G01X7597800D02*
X7572400D01*
G01X7408100Y3647500D02*
X7352200D01*
G01X7364900Y3821500D02*
X7337000D01*
G01X7403000D02*
X7375100D01*
G01X7547000Y3823800D02*
X7521600D01*
G01X7597800D02*
X7572400D01*
G01X7456400Y3647500D02*
X7441100D01*
G01X7364900Y3824000D02*
X7337000D01*
G01X7403000D02*
X7375100D01*
G01X7549600Y3826300D02*
X7521600D01*
G01X7597800D02*
X7569900D01*
G01X7524900Y3647500D02*
X7509700D01*
G01X7364900Y3826600D02*
X7337000D01*
G01X7403000D02*
X7375100D01*
G01X7549600Y3828800D02*
X7521600D01*
G01X7597800D02*
X7569900D01*
G01X7613800Y3647500D02*
X7558000D01*
G01X7367500Y3829100D02*
X7339500D01*
G01X7403000D02*
X7375100D01*
G01X7552100Y3831400D02*
X7524200D01*
G01X7595300D02*
X7567400D01*
G01X7403000Y3831600D02*
X7339500D01*
G01X7554700Y3833900D02*
X7524200D01*
G01X7595300D02*
X7564800D01*
G01X7403000Y3834200D02*
X7339500D01*
G01X7592800Y3836500D02*
X7526700D01*
G01X7403000Y3836700D02*
X7342100D01*
G01X7592800Y3839000D02*
X7526700D01*
G01X7403000Y3839200D02*
X7342100D01*
G01X7590200Y3841500D02*
X7529300D01*
G01X7403000Y3841800D02*
X7344600D01*
G01X7587700Y3844100D02*
X7531800D01*
G01X7403000Y3844300D02*
X7347100D01*
G01X7582600Y3846600D02*
X7534300D01*
G01X7301400Y3650000D02*
X7273500D01*
G01X7403000Y3846900D02*
X7352200D01*
G01X7580100Y3849200D02*
X7539400D01*
G01X7572400Y3851700D02*
X7547000D01*
G01X7397800Y3509900D02*
X7245400D01*
G01X7359700Y3512500D02*
X7275900D01*
G01X7359700Y3515000D02*
X7275900D01*
G01X7359700Y3517600D02*
X7275900D01*
G01X7380200Y3998000D02*
X7329400D01*
G01X7461400D02*
X7410600D01*
G01X7621500D02*
X7504600D01*
G01X7380200Y4000500D02*
X7331900D01*
G01X7458900D02*
X7410600D01*
G01X7621500D02*
X7499500D01*
G01X7380200Y4003100D02*
X7331900D01*
G01X7458900D02*
X7410600D01*
G01X7621500D02*
X7497000D01*
G01X7382700Y4005600D02*
X7331900D01*
G01X7458900D02*
X7408100D01*
G01X7621500D02*
X7494500D01*
G01X7382700Y4008200D02*
X7331900D01*
G01X7456400D02*
X7408100D01*
G01X7621500D02*
X7491900D01*
G01X7385200Y4010700D02*
X7334400D01*
G01X7456400D02*
X7405600D01*
G01X7621500D02*
X7489400D01*
G01X7390300Y4013200D02*
X7334400D01*
G01X7453800D02*
X7400500D01*
G01X7621500D02*
X7486800D01*
G01X7453800Y4015800D02*
X7337000D01*
G01X7621500D02*
X7484300D01*
G01X7451300Y4018300D02*
X7337000D01*
G01X7621500D02*
X7484300D01*
G01X7451300Y4020900D02*
X7339500D01*
G01X7547800D02*
X7481800D01*
G01X7621500D02*
X7568100D01*
G01X7448700Y4023400D02*
X7342100D01*
G01X7537600D02*
X7481800D01*
G01X7621500D02*
X7568100D01*
G01X7446200Y4025900D02*
X7344600D01*
G01X7535100D02*
X7481800D01*
G01X7621500D02*
X7568100D01*
G01X7443700Y4028500D02*
X7347100D01*
G01X7535100D02*
X7479200D01*
G01X7621500D02*
X7568100D01*
G01X7309000Y4031000D02*
X7255700D01*
G01X7441100D02*
X7349700D01*
G01X7532600D02*
X7479200D01*
G01X7621500D02*
X7568100D01*
G01X7309000Y4033600D02*
X7255700D01*
G01X7438600D02*
X7352200D01*
G01X7532600D02*
X7479200D01*
G01X7621500D02*
X7568100D01*
G01X7309000Y4036100D02*
X7255700D01*
G01X7433500D02*
X7357300D01*
G01X7532600D02*
X7479200D01*
G01X7621500D02*
X7568100D01*
G01X7309000Y4038600D02*
X7255700D01*
G01X7428400D02*
X7362400D01*
G01X7532600D02*
X7479200D01*
G01X7621500D02*
X7568100D01*
G01X7309000Y4041200D02*
X7255700D01*
G01X7423300D02*
X7367500D01*
G01X7532600D02*
X7479200D01*
G01X7621500D02*
X7568100D01*
G01X7309000Y4043700D02*
X7255700D01*
G01X7413200D02*
X7377600D01*
G01X7535100D02*
X7479200D01*
G01X7621500D02*
X7568100D01*
G01X7309000Y4046300D02*
X7255700D01*
G01X7537600D02*
X7479200D01*
G01X7621500D02*
X7568100D01*
G01X7309000Y4048800D02*
X7255700D01*
G01X7542700D02*
X7479200D01*
G01X7621500D02*
X7568100D01*
G01X7309000Y4051300D02*
X7255700D01*
G01X7621500D02*
X7479200D01*
G01X7309000Y4053900D02*
X7255700D01*
G01X7621500D02*
X7481800D01*
G01X7309000Y4056400D02*
X7255700D01*
G01X7621500D02*
X7481800D01*
G01X7309000Y4059000D02*
X7255700D01*
G01X7621500D02*
X7484300D01*
G01X7309000Y4061500D02*
X7255700D01*
G01X7621500D02*
X7484300D01*
G01X7309000Y4064000D02*
X7255700D01*
G01X7621500D02*
X7486800D01*
G01X7309000Y4066600D02*
X7255700D01*
G01X7621500D02*
X7486800D01*
G01X7309000Y4069100D02*
X7255700D01*
G01X7621500D02*
X7489400D01*
G01X7309000Y4071700D02*
X7255700D01*
G01X7621500D02*
X7491900D01*
G01X7309000Y4074200D02*
X7255700D01*
G01X7621500D02*
X7494500D01*
G01X7309000Y4076700D02*
X7255700D01*
G01X7621500D02*
X7499500D01*
G01X7309000Y4079300D02*
X7255700D01*
G01X7621500D02*
X7504600D01*
G01X7309000Y4081800D02*
X7255700D01*
G01X7621500D02*
X7514800D01*
G01X7413200Y3926900D02*
X7377600D01*
G01X7309000Y3929400D02*
X7255700D01*
G01X7423300D02*
X7367500D01*
G01X7522400D02*
X7469100D01*
G01X7621500D02*
X7568100D01*
G01X7309000Y3932000D02*
X7255700D01*
G01X7428400D02*
X7362400D01*
G01X7524900D02*
X7466500D01*
G01X7621500D02*
X7568100D01*
G01X7309000Y3934500D02*
X7255700D01*
G01X7433500D02*
X7357300D01*
G01X7524900D02*
X7469100D01*
G01X7621500D02*
X7568100D01*
G01X7309000Y3937000D02*
X7255700D01*
G01X7438600D02*
X7352200D01*
G01X7527500D02*
X7471600D01*
G01X7621500D02*
X7568100D01*
G01X7309000Y3939600D02*
X7255700D01*
G01X7441100D02*
X7349700D01*
G01X7530000D02*
X7471600D01*
G01X7621500D02*
X7568100D01*
G01X7309000Y3942100D02*
X7255700D01*
G01X7443700D02*
X7347100D01*
G01X7530000D02*
X7474100D01*
G01X7621500D02*
X7568100D01*
G01X7309000Y3944700D02*
X7255700D01*
G01X7446200D02*
X7344600D01*
G01X7532600D02*
X7474100D01*
G01X7621500D02*
X7568100D01*
G01X7309000Y3947200D02*
X7255700D01*
G01X7448700D02*
X7342100D01*
G01X7532600D02*
X7476700D01*
G01X7621500D02*
X7568100D01*
G01X7309000Y3949700D02*
X7255700D01*
G01X7451300D02*
X7339500D01*
G01X7535100D02*
X7479200D01*
G01X7621500D02*
X7568100D01*
G01X7309000Y3952300D02*
X7255700D01*
G01X7451300D02*
X7339500D01*
G01X7537600D02*
X7479200D01*
G01X7621500D02*
X7568100D01*
G01X7309000Y3954800D02*
X7255700D01*
G01X7453800D02*
X7337000D01*
G01X7537600D02*
X7481800D01*
G01X7621500D02*
X7568100D01*
G01X7309000Y3957400D02*
X7255700D01*
G01X7390300D02*
X7334400D01*
G01X7456400D02*
X7400500D01*
G01X7540200D02*
X7481800D01*
G01X7621500D02*
X7568100D01*
G01X7309000Y3959900D02*
X7255700D01*
G01X7385200D02*
X7334400D01*
G01X7456400D02*
X7405600D01*
G01X7540200D02*
X7484300D01*
G01X7621500D02*
X7568100D01*
G01X7309000Y3962400D02*
X7255700D01*
G01X7382700D02*
X7334400D01*
G01X7458900D02*
X7408100D01*
G01X7542700D02*
X7484300D01*
G01X7621500D02*
X7568100D01*
G01X7309000Y3965000D02*
X7255700D01*
G01X7382700D02*
X7331900D01*
G01X7458900D02*
X7408100D01*
G01X7542700D02*
X7486800D01*
G01X7621500D02*
X7568100D01*
G01X7309000Y3967500D02*
X7255700D01*
G01X7380200D02*
X7331900D01*
G01X7458900D02*
X7410600D01*
G01X7545300D02*
X7489400D01*
G01X7621500D02*
X7568100D01*
G01X7309000Y3970100D02*
X7255700D01*
G01X7380200D02*
X7331900D01*
G01X7458900D02*
X7410600D01*
G01X7547800D02*
X7489400D01*
G01X7621500D02*
X7568100D01*
G01X7309000Y3972600D02*
X7255700D01*
G01X7380200D02*
X7329400D01*
G01X7461400D02*
X7410600D01*
G01X7547800D02*
X7491900D01*
G01X7621500D02*
X7568100D01*
G01X7309000Y3975100D02*
X7255700D01*
G01X7377600D02*
X7329400D01*
G01X7461400D02*
X7413200D01*
G01X7550300D02*
X7491900D01*
G01X7621500D02*
X7568100D01*
G01X7309000Y3977700D02*
X7255700D01*
G01X7377600D02*
X7329400D01*
G01X7461400D02*
X7413200D01*
G01X7550300D02*
X7494500D01*
G01X7621500D02*
X7568100D01*
G01X7309000Y3980200D02*
X7255700D01*
G01X7377600D02*
X7329400D01*
G01X7461400D02*
X7413200D01*
G01X7552900D02*
X7497000D01*
G01X7621500D02*
X7568100D01*
G01X7309000Y3982800D02*
X7255700D01*
G01X7377600D02*
X7329400D01*
G01X7461400D02*
X7413200D01*
G01X7555400D02*
X7497000D01*
G01X7621500D02*
X7568100D01*
G01X7309000Y3985300D02*
X7255700D01*
G01X7377600D02*
X7329400D01*
G01X7461400D02*
X7413200D01*
G01X7558000D02*
X7499500D01*
G01X7621500D02*
X7568100D01*
G01X7309000Y3987800D02*
X7255700D01*
G01X7377600D02*
X7329400D01*
G01X7461400D02*
X7413200D01*
G01X7563000D02*
X7502100D01*
G01X7621500D02*
X7568100D01*
G01X7377600Y3990400D02*
X7329400D01*
G01X7461400D02*
X7413200D01*
G01X7621500D02*
X7504600D01*
G01X7377600Y3992900D02*
X7329400D01*
G01X7461400D02*
X7413200D01*
G01X7621500D02*
X7507200D01*
G01X7377600Y3995500D02*
X7329400D01*
G01X7461400D02*
X7413200D01*
G01X7621500D02*
X7512200D01*
G01X7751000Y3586500D02*
X7723100D01*
G01X7751000Y3589100D02*
X7723100D01*
G01X7751000Y3650000D02*
X7723100D01*
G01X7751000Y3652600D02*
X7723100D01*
G01X7751000Y3655100D02*
X7723100D01*
G01X7751000Y3657600D02*
X7723100D01*
G01X7751000Y3660200D02*
X7723100D01*
G01X7751000Y3662700D02*
X7723100D01*
G01X7751000Y3665300D02*
X7723100D01*
G01X7751000Y3667800D02*
X7723100D01*
G01X7751000Y3670300D02*
X7723100D01*
G01X7751000Y3672900D02*
X7723100D01*
G01X7751000Y3675400D02*
X7723100D01*
G01X7751000Y3678000D02*
X7723100D01*
G01X7751000Y3680500D02*
X7723100D01*
G01X7751000Y3683000D02*
X7723100D01*
G01X7751000Y3685600D02*
X7723100D01*
G01X7751000Y3688100D02*
X7723100D01*
G01X7751000Y3690700D02*
X7723100D01*
G01X7751000Y3693200D02*
X7723100D01*
G01X7751000Y3695700D02*
X7723100D01*
G01X7751000Y3698300D02*
X7723100D01*
G01X7751000Y3700800D02*
X7723100D01*
G01X7751000Y3703400D02*
X7723100D01*
G01X7751000Y3705900D02*
X7723100D01*
G01X7751000Y3708400D02*
X7723100D01*
G01X7751000Y3711000D02*
X7723100D01*
G01X7751000Y3713500D02*
X7723100D01*
G01X7751000Y3716100D02*
X7723100D01*
G01X7751000Y3718600D02*
X7723100D01*
G01X7751000Y3721100D02*
X7723100D01*
G01X7751000Y3723700D02*
X7723100D01*
G01X7751000Y3726200D02*
X7723100D01*
G01X7751000Y3728800D02*
X7723100D01*
G01X7751000Y3731300D02*
X7723100D01*
G01X7751000Y3733800D02*
X7723100D01*
G01X7751000Y3736400D02*
X7723100D01*
G01X7751000Y3738900D02*
X7723100D01*
G01X7751000Y3741500D02*
X7723100D01*
G01X7751000Y3744000D02*
X7723100D01*
G01X7751000Y3746500D02*
X7723100D01*
G01X7751000Y3749100D02*
X7723100D01*
G01X7751000Y3751600D02*
X7723100D01*
G01X7751000Y3754200D02*
X7723100D01*
G01X7751000Y3756700D02*
X7723100D01*
G01X7751000Y3759200D02*
X7723100D01*
G01X7751000Y3761800D02*
X7723100D01*
G01X7751000Y3764300D02*
X7723100D01*
G01X7658800Y3770400D02*
X7633400D01*
G01X7751000Y3766900D02*
X7723100D01*
G01X7751000Y3591600D02*
X7723100D01*
G01X7663900Y3773000D02*
X7625800D01*
G01X7751000Y3769400D02*
X7723100D01*
G01X7669000Y3775500D02*
X7623200D01*
G01X7751000Y3771900D02*
X7723100D01*
G01X7751000Y3632200D02*
X7723100D01*
G01X7751000Y3594100D02*
X7723100D01*
G01X7671500Y3778000D02*
X7620700D01*
G01X7751000Y3774500D02*
X7723100D01*
G01X7674000Y3780600D02*
X7618200D01*
G01X7751000Y3777000D02*
X7723100D01*
G01X7751000Y3634800D02*
X7723100D01*
G01X7751000Y3596700D02*
X7723100D01*
G01X7676600Y3783100D02*
X7615600D01*
G01X7751000Y3779600D02*
X7723100D01*
G01X7676600Y3785700D02*
X7615600D01*
G01X7751000Y3782100D02*
X7723100D01*
G01X7751000Y3637300D02*
X7723100D01*
G01X7751000Y3599200D02*
X7723100D01*
G01X7643600Y3788200D02*
X7613100D01*
G01X7679100D02*
X7651200D01*
G01X7751000Y3784600D02*
X7723100D01*
G01X7641000Y3790700D02*
X7613100D01*
G01X7679100D02*
X7653700D01*
G01X7751000Y3787200D02*
X7723100D01*
G01X7751000Y3639900D02*
X7723100D01*
G01X7751000Y3601800D02*
X7723100D01*
G01X7641000Y3793300D02*
X7613100D01*
G01X7681700D02*
X7653700D01*
G01X7751000Y3789700D02*
X7723100D01*
G01X7638500Y3795800D02*
X7613100D01*
G01X7681700D02*
X7656300D01*
G01X7751000Y3792300D02*
X7723100D01*
G01X7751000Y3642400D02*
X7723100D01*
G01X7751000Y3604300D02*
X7723100D01*
G01X7638500Y3798400D02*
X7620700D01*
G01X7681700D02*
X7656300D01*
G01X7751000Y3794800D02*
X7723100D01*
G01X7638500Y3800900D02*
X7630900D01*
G01X7681700D02*
X7656300D01*
G01X7751000Y3797300D02*
X7723100D01*
G01X7751000Y3644900D02*
X7723100D01*
G01X7751000Y3606800D02*
X7723100D01*
G01X7684200Y3803400D02*
X7656300D01*
G01X7751000Y3799900D02*
X7723100D01*
G01X7684200Y3806000D02*
X7656300D01*
G01X7751000Y3802400D02*
X7723100D01*
G01X7751000Y3609400D02*
X7723100D01*
G01X7684200Y3808500D02*
X7656300D01*
G01X7751000Y3805000D02*
X7723100D01*
G01X7684200Y3811100D02*
X7656300D01*
G01X7751000Y3807500D02*
X7723100D01*
G01X7751000Y3611900D02*
X7723100D01*
G01X7684200Y3813600D02*
X7656300D01*
G01X7751000Y3810000D02*
X7723100D01*
G01X7684200Y3816100D02*
X7656300D01*
G01X7751000Y3812600D02*
X7723100D01*
G01X7751000Y3614500D02*
X7723100D01*
G01X7684200Y3818700D02*
X7656300D01*
G01X7751000Y3815100D02*
X7723100D01*
G01X7681700Y3821200D02*
X7656300D01*
G01X7751000Y3817700D02*
X7723100D01*
G01X7751000Y3617000D02*
X7723100D01*
G01X7681700Y3823800D02*
X7656300D01*
G01X7751000Y3820200D02*
X7723100D01*
G01X7638500Y3826300D02*
X7628300D01*
G01X7681700D02*
X7656300D01*
G01X7751000Y3822700D02*
X7723100D01*
G01X7751000Y3619500D02*
X7723100D01*
G01X7638500Y3828800D02*
X7613100D01*
G01X7681700D02*
X7653700D01*
G01X7751000Y3825300D02*
X7723100D01*
G01X7641000Y3831400D02*
X7613100D01*
G01X7679100D02*
X7653700D01*
G01X7751000Y3827800D02*
X7723100D01*
G01X7751000Y3647500D02*
X7723100D01*
G01X7751000Y3622100D02*
X7723100D01*
G01X7643600Y3833900D02*
X7613100D01*
G01X7679100D02*
X7651200D01*
G01X7751000Y3830400D02*
X7723100D01*
G01X7676600Y3836500D02*
X7613100D01*
G01X7751000Y3832900D02*
X7723100D01*
G01X7751000Y3624600D02*
X7723100D01*
G01X7676600Y3839000D02*
X7615600D01*
G01X7751000Y3835400D02*
X7723100D01*
G01X7674000Y3841500D02*
X7618200D01*
G01X7751000Y3838000D02*
X7723100D01*
G01X7751000Y3627200D02*
X7723100D01*
G01X7671500Y3844100D02*
X7620700D01*
G01X7751000Y3840500D02*
X7723100D01*
G01X7669000Y3846600D02*
X7623200D01*
G01X7751000Y3843100D02*
X7723100D01*
G01X7751000Y3629700D02*
X7723100D01*
G01X7663900Y3849200D02*
X7625800D01*
G01X7751000Y3845600D02*
X7723100D01*
G01X7658800Y3851700D02*
X7633400D01*
G01X7751000Y3848100D02*
X7723100D01*
G01X7751000Y3850700D02*
X7723100D01*
G01X7751000Y3853200D02*
X7723100D01*
G01X7751000Y3855800D02*
X7723100D01*
G01X7751000Y3858300D02*
X7723100D01*
G01X7751000Y3860800D02*
X7723100D01*
G01X7751000Y3863400D02*
X7723100D01*
G01X7751000Y3865900D02*
X7723100D01*
G01X7751000Y3868500D02*
X7723100D01*
G01X7751000Y3871000D02*
X7723100D01*
G01X7751000Y3873500D02*
X7723100D01*
G01X7751000Y3876100D02*
X7723100D01*
G01X7751000Y3878600D02*
X7723100D01*
G01X7751000Y3881200D02*
X7723100D01*
G01X7751000Y3883700D02*
X7723100D01*
G01X7751000Y3998000D02*
X7723100D01*
G01X7751000Y4000500D02*
X7723100D01*
G01X7751000Y4003100D02*
X7723100D01*
G01X7751000Y4005600D02*
X7723100D01*
G01X7751000Y4008200D02*
X7723100D01*
G01X7751000Y4010700D02*
X7723100D01*
G01X7751000Y4013200D02*
X7723100D01*
G01X7751000Y4015800D02*
X7723100D01*
G01X7751000Y4018300D02*
X7723100D01*
G01X7751000Y4020900D02*
X7723100D01*
G01X7751000Y4023400D02*
X7723100D01*
G01X7751000Y4025900D02*
X7723100D01*
G01X7751000Y4028500D02*
X7723100D01*
G01X7751000Y4031000D02*
X7723100D01*
G01X7751000Y4033600D02*
X7723100D01*
G01X7751000Y4036100D02*
X7723100D01*
G01X7751000Y4038600D02*
X7723100D01*
G01X7751000Y4041200D02*
X7723100D01*
G01X7751000Y4043700D02*
X7723100D01*
G01X7751000Y4046300D02*
X7723100D01*
G01X7751000Y4048800D02*
X7723100D01*
G01X7751000Y4051300D02*
X7723100D01*
G01X7751000Y4053900D02*
X7723100D01*
G01X7751000Y4056400D02*
X7723100D01*
G01X7751000Y4059000D02*
X7723100D01*
G01X7751000Y4061500D02*
X7723100D01*
G01X7751000Y4064000D02*
X7723100D01*
G01X7751000Y4066600D02*
X7723100D01*
G01X7751000Y4069100D02*
X7723100D01*
G01X7751000Y4071700D02*
X7723100D01*
G01X7751000Y4074200D02*
X7723100D01*
G01X7751000Y4076700D02*
X7723100D01*
G01X7751000Y4079300D02*
X7723100D01*
G01X7751000Y4081800D02*
X7723100D01*
G01X7751000Y4084400D02*
X7723100D01*
G01X7751000Y4086900D02*
X7723100D01*
G01X7751000Y4089400D02*
X7723100D01*
G01X7751000Y4092000D02*
X7723100D01*
G01X7751000Y4094500D02*
X7723100D01*
G01X7751000Y4097100D02*
X7723100D01*
G01X7751000Y4099600D02*
X7723100D01*
G01X7751000Y4102100D02*
X7723100D01*
G01X7751000Y4104700D02*
X7723100D01*
G01X7751000Y4107200D02*
X7723100D01*
G01X7751000Y4109800D02*
X7723100D01*
G01X7751000Y4112300D02*
X7723100D01*
G01X7751000Y4114800D02*
X7723100D01*
G01X7751000Y4117400D02*
X7723100D01*
G01X7751000Y4119900D02*
X7723100D01*
G01X7751000Y4122500D02*
X7723100D01*
G01X7751000Y4125000D02*
X7723100D01*
G01X7751000Y4127500D02*
X7723100D01*
G01X7751000Y4130100D02*
X7723100D01*
G01X7751000Y4132600D02*
X7723100D01*
G01X7751000Y4135200D02*
X7723100D01*
G01X7751000Y4137700D02*
X7723100D01*
G01X7751000Y4140200D02*
X7723100D01*
G01X7751000Y4142800D02*
X7723100D01*
G01X7751000Y4145300D02*
X7723100D01*
G01X7751000Y4147900D02*
X7723100D01*
G01X7751000Y4150400D02*
X7723100D01*
G01X7751000Y4152900D02*
X7723100D01*
G01X7751000Y4155500D02*
X7723100D01*
G01X7751000Y4158000D02*
X7723100D01*
G01X7751000Y4160600D02*
X7723100D01*
G01X7751000Y4163100D02*
X7723100D01*
G01X7751000Y3886200D02*
X7723100D01*
G01X7751000Y3888800D02*
X7723100D01*
G01X7751000Y3891300D02*
X7723100D01*
G01X7751000Y3893900D02*
X7723100D01*
G01X7751000Y3896400D02*
X7723100D01*
G01X7751000Y3898900D02*
X7723100D01*
G01X7751000Y3901500D02*
X7723100D01*
G01X7751000Y3904000D02*
X7723100D01*
G01X7751000Y3906600D02*
X7723100D01*
G01X7751000Y3909100D02*
X7723100D01*
G01X7751000Y3911600D02*
X7723100D01*
G01X7751000Y3914200D02*
X7723100D01*
G01X7751000Y3916700D02*
X7723100D01*
G01X7751000Y3919300D02*
X7723100D01*
G01X7751000Y3921800D02*
X7723100D01*
G01X7751000Y3924300D02*
X7723100D01*
G01X7751000Y3926900D02*
X7723100D01*
G01X7751000Y3929400D02*
X7723100D01*
G01X7751000Y3932000D02*
X7723100D01*
G01X7751000Y3934500D02*
X7723100D01*
G01X7751000Y3937000D02*
X7723100D01*
G01X7751000Y3939600D02*
X7723100D01*
G01X7751000Y3942100D02*
X7723100D01*
G01X7751000Y3944700D02*
X7723100D01*
G01X7751000Y3947200D02*
X7723100D01*
G01X7751000Y3949700D02*
X7723100D01*
G01X7751000Y3952300D02*
X7723100D01*
G01X7751000Y3954800D02*
X7723100D01*
G01X7751000Y3957400D02*
X7723100D01*
G01X7751000Y3959900D02*
X7723100D01*
G01X7751000Y3962400D02*
X7723100D01*
G01X7751000Y3965000D02*
X7723100D01*
G01X7751000Y3967500D02*
X7723100D01*
G01X7751000Y3970100D02*
X7723100D01*
G01X7751000Y3972600D02*
X7723100D01*
G01X7751000Y3975100D02*
X7723100D01*
G01X7751000Y3977700D02*
X7723100D01*
G01X7751000Y3980200D02*
X7723100D01*
G01X7751000Y3982800D02*
X7723100D01*
G01X7751000Y3985300D02*
X7723100D01*
G01X7751000Y3987800D02*
X7723100D01*
G01X7751000Y3990400D02*
X7723100D01*
G01X7751000Y3992900D02*
X7723100D01*
G01X7751000Y3995500D02*
X7723100D01*
M02*
