G04 ================== begin FILE IDENTIFICATION RECORD ==================*
G04 Layout Name:  C:/Vss09/EAP/0021.13/BLUE_NRG_Dongle/BLUE_NRG_Dongle.brd*
G04 Film Name:    BLUE_NRG_DONGLE_ASSTOP*
G04 File Format:  Gerber RS274X*
G04 File Origin:  Cadence Allegro 16.6-S018*
G04 Origin Date:  Mon Mar 17 13:59:26 2014*
G04 *
G04 Layer:  REF DES/ASSEMBLY_TOP*
G04 Layer:  PACKAGE GEOMETRY/ASSEMBLY_TOP*
G04 *
G04 Offset:    (0.000 0.000)*
G04 Mirror:    No*
G04 Mode:      Positive*
G04 Rotation:  0*
G04 FullContactRelief:  No*
G04 UndefLineWidth:     0.000*
G04 ================== end FILE IDENTIFICATION RECORD ====================*
%FSLAX25Y25*MOMM*%
%IR0*IPPOS*OFA0.00000B0.00000*MIA0B0*SFA1.00000B1.00000*%
%ADD10C,.1*%
%ADD11C,.12*%
%ADD12C,.22*%
%ADD13C,.14*%
%ADD14C,.203*%
%ADD15C,.15*%
%ADD16C,.16*%
%ADD17C,.152*%
%ADD18C,.17*%
G75*
%LPD*%
G75*
G36*
G01X4207000Y3224000D02*
X4242000Y3301000D01*
X4176000D01*
X4207000Y3224000D01*
G37*
G36*
G01X4220000Y4041000D02*
X4180000D01*
Y4001000D01*
X4220000D01*
Y4041000D01*
G37*
G36*
G01X4698000Y4335000D02*
G03I-29000J0D01*
G37*
G36*
G01X5666800Y3390200D02*
G03I-25400J0D01*
G37*
G36*
G01X8207300Y4124000D02*
G03I-60300J0D01*
G37*
G54D10*
G01X4532000Y3124000D02*
Y3054000D01*
X4482000D01*
Y3124000D01*
X4498000D01*
X4502000Y3129000D01*
X4507000Y3135000D01*
X4509000Y3133000D01*
G01D02*
X4508000Y3134000D01*
X4517000Y3124000D01*
X4532000D01*
G54D11*
G01X3862000Y4544700D02*
X3855000Y4540500D01*
X3850300Y4535500D01*
X3848000Y4529700D01*
X3850300Y4523000D01*
X3855000Y4518000D01*
X3862000Y4513000D01*
X3871300Y4511300D01*
X3918000D01*
G01X3848000Y4474000D02*
X3918000D01*
X3904000Y4484000D01*
G01X3848000D02*
Y4464000D01*
G01X4219300Y3076200D02*
X4214300Y3079700D01*
X4208500Y3082000D01*
X4201800D01*
X4194300Y3078500D01*
X4188500Y3072700D01*
X4184300Y3065700D01*
X4181000Y3054000D01*
X4180200Y3043500D01*
X4181800Y3033000D01*
X4184300Y3026000D01*
X4189300Y3019000D01*
X4195200Y3014300D01*
X4201000Y3012000D01*
X4206800D01*
X4212700Y3014300D01*
X4217700Y3017800D01*
X4221800Y3022500D01*
G01X4236700Y3026000D02*
X4241700Y3017800D01*
X4248300Y3013200D01*
X4255800Y3012000D01*
X4262500Y3013200D01*
X4269200Y3019000D01*
X4273300Y3026000D01*
X4274200Y3033000D01*
X4272500Y3041200D01*
X4266700Y3047000D01*
X4260800Y3049300D01*
X4253300D01*
G01X4260800D02*
X4265800Y3052800D01*
X4270000Y3058700D01*
X4271700Y3065700D01*
X4270000Y3072700D01*
X4265800Y3078500D01*
X4258300Y3082000D01*
X4250800Y3080800D01*
X4243300Y3076200D01*
G01X4290700Y3026000D02*
X4295700Y3017800D01*
X4302300Y3013200D01*
X4309800Y3012000D01*
X4316500Y3013200D01*
X4323200Y3019000D01*
X4327300Y3026000D01*
X4328200Y3033000D01*
X4326500Y3041200D01*
X4320700Y3047000D01*
X4314800Y3049300D01*
X4307300D01*
G01X4314800D02*
X4319800Y3052800D01*
X4324000Y3058700D01*
X4325700Y3065700D01*
X4324000Y3072700D01*
X4319800Y3078500D01*
X4312300Y3082000D01*
X4304800Y3080800D01*
X4297300Y3076200D01*
G01X4104000Y2986000D02*
Y3372000D01*
X4015000D01*
X3976000Y3409000D01*
X3940000Y3372000D01*
X3854000D01*
Y2986000D01*
X4104000D01*
G01X4143000Y3148000D02*
X4463000D01*
Y3468000D01*
X4143000D01*
Y3148000D01*
G01X4075000Y3433700D02*
X4005000D01*
G01Y3465300D02*
X4048200Y3433700D01*
G01X4075000Y3470300D02*
X4028300Y3447800D01*
G01X3932000Y3174700D02*
X3982200D01*
X3992700Y3178000D01*
X3999700Y3184700D01*
X4002000Y3193000D01*
X3999700Y3201300D01*
X3992700Y3208000D01*
X3982200Y3211300D01*
X3932000D01*
G01X3991500Y3228700D02*
X3997300Y3233700D01*
X4000800Y3239500D01*
X4002000Y3247000D01*
X3999700Y3254500D01*
X3995000Y3260300D01*
X3986800Y3264500D01*
X3977500Y3265300D01*
X3968200Y3263700D01*
X3962300Y3259500D01*
X3957700Y3253700D01*
X3956500Y3247800D01*
X3957700Y3242000D01*
X3962300Y3234500D01*
X3932000Y3237000D01*
Y3259500D01*
G01X4145300Y3831200D02*
X4140300Y3834700D01*
X4134500Y3837000D01*
X4127800D01*
X4120300Y3833500D01*
X4114500Y3827700D01*
X4110300Y3820700D01*
X4107000Y3809000D01*
X4106200Y3798500D01*
X4107800Y3788000D01*
X4110300Y3781000D01*
X4115300Y3774000D01*
X4121200Y3769300D01*
X4127000Y3767000D01*
X4132800D01*
X4138700Y3769300D01*
X4143700Y3772800D01*
X4147800Y3777500D01*
G01X4162700Y3781000D02*
X4167700Y3772800D01*
X4174300Y3768200D01*
X4181800Y3767000D01*
X4188500Y3768200D01*
X4195200Y3774000D01*
X4199300Y3781000D01*
X4200200Y3788000D01*
X4198500Y3796200D01*
X4192700Y3802000D01*
X4186800Y3804300D01*
X4179300D01*
G01X4186800D02*
X4191800Y3807800D01*
X4196000Y3813700D01*
X4197700Y3820700D01*
X4196000Y3827700D01*
X4191800Y3833500D01*
X4184300Y3837000D01*
X4176800Y3835800D01*
X4169300Y3831200D01*
G01X4219200Y3825300D02*
X4224200Y3832300D01*
X4230000Y3835800D01*
X4236700Y3837000D01*
X4245000Y3834700D01*
X4250800Y3828800D01*
X4252500Y3821800D01*
X4251700Y3814800D01*
X4248300Y3809000D01*
X4231700Y3797300D01*
X4224200Y3789200D01*
X4219200Y3777500D01*
X4217500Y3767000D01*
X4252500D01*
G01X4154000Y4065300D02*
X4103800D01*
X4093300Y4062000D01*
X4086300Y4055300D01*
X4084000Y4047000D01*
X4086300Y4038700D01*
X4093300Y4032000D01*
X4103800Y4028700D01*
X4154000D01*
G01X4098000Y4011300D02*
X4089800Y4006300D01*
X4085200Y3999700D01*
X4084000Y3992200D01*
X4085200Y3985500D01*
X4091000Y3978800D01*
X4098000Y3974700D01*
X4105000Y3973800D01*
X4113200Y3975500D01*
X4119000Y3981300D01*
X4121300Y3987200D01*
Y3994700D01*
G01Y3987200D02*
X4124800Y3982200D01*
X4130700Y3978000D01*
X4137700Y3976300D01*
X4144700Y3978000D01*
X4150500Y3982200D01*
X4154000Y3989700D01*
X4152800Y3997200D01*
X4148200Y4004700D01*
G01X4075000Y4086000D02*
X4055000D01*
Y3956000D01*
X4070000D01*
G01X4207000Y4086000D02*
X4225000D01*
Y3956000D01*
X4210000D01*
G01X3934300Y4809000D02*
X3938500Y4802000D01*
X3943500Y4797300D01*
X3949300Y4795000D01*
X3956000Y4797300D01*
X3961000Y4802000D01*
X3966000Y4809000D01*
X3967700Y4818300D01*
Y4865000D01*
G01X3989200Y4853300D02*
X3994200Y4860300D01*
X4000000Y4863800D01*
X4006700Y4865000D01*
X4015000Y4862700D01*
X4020800Y4856800D01*
X4022500Y4849800D01*
X4021700Y4842800D01*
X4018300Y4837000D01*
X4001700Y4825300D01*
X3994200Y4817200D01*
X3989200Y4805500D01*
X3987500Y4795000D01*
X4022500D01*
G01X4435000Y3033300D02*
X4505000D01*
Y3016700D01*
X4501500Y3010000D01*
X4496800Y3005000D01*
X4489800Y3000800D01*
X4481700Y2997500D01*
X4470000Y2996700D01*
X4458300Y2997500D01*
X4450200Y3000800D01*
X4443200Y3005000D01*
X4438500Y3010000D01*
X4435000Y3016700D01*
Y3033300D01*
G01Y2961000D02*
X4505000D01*
X4491000Y2971000D01*
G01X4435000D02*
Y2951000D01*
G01X4306300Y3578200D02*
X4301300Y3581700D01*
X4295500Y3584000D01*
X4288800D01*
X4281300Y3580500D01*
X4275500Y3574700D01*
X4271300Y3567700D01*
X4268000Y3556000D01*
X4267200Y3545500D01*
X4268800Y3535000D01*
X4271300Y3528000D01*
X4276300Y3521000D01*
X4282200Y3516300D01*
X4288000Y3514000D01*
X4293800D01*
X4299700Y3516300D01*
X4304700Y3519800D01*
X4308800Y3524500D01*
G01X4323700Y3528000D02*
X4328700Y3519800D01*
X4335300Y3515200D01*
X4342800Y3514000D01*
X4349500Y3515200D01*
X4356200Y3521000D01*
X4360300Y3528000D01*
X4361200Y3535000D01*
X4359500Y3543200D01*
X4353700Y3549000D01*
X4347800Y3551300D01*
X4340300D01*
G01X4347800D02*
X4352800Y3554800D01*
X4357000Y3560700D01*
X4358700Y3567700D01*
X4357000Y3574700D01*
X4352800Y3580500D01*
X4345300Y3584000D01*
X4337800Y3582800D01*
X4330300Y3578200D01*
G01X4394300Y3514000D02*
X4396000Y3529200D01*
X4398500Y3542000D01*
X4401800Y3553700D01*
X4406000Y3566500D01*
X4412700Y3584000D01*
X4379300D01*
G01X4279000Y3264700D02*
X4329200D01*
X4339700Y3268000D01*
X4346700Y3274700D01*
X4349000Y3283000D01*
X4346700Y3291300D01*
X4339700Y3298000D01*
X4329200Y3301300D01*
X4279000D01*
G01X4349000Y3347000D02*
X4279000D01*
X4329200Y3316200D01*
Y3357800D01*
G01X4467000Y3176300D02*
X4537000D01*
G01Y3144700D02*
X4493800Y3176300D01*
G01X4467000Y3139700D02*
X4513700Y3162200D01*
G01X4634200Y3857700D02*
X4637700Y3862700D01*
X4640000Y3868500D01*
Y3875200D01*
X4636500Y3882700D01*
X4630700Y3888500D01*
X4623700Y3892700D01*
X4612000Y3896000D01*
X4601500Y3896800D01*
X4591000Y3895200D01*
X4584000Y3892700D01*
X4577000Y3887700D01*
X4572300Y3881800D01*
X4570000Y3876000D01*
Y3870200D01*
X4572300Y3864300D01*
X4575800Y3859300D01*
X4580500Y3855200D01*
G01X4628300Y3837800D02*
X4635300Y3832800D01*
X4638800Y3827000D01*
X4640000Y3820300D01*
X4637700Y3812000D01*
X4631800Y3806200D01*
X4624800Y3804500D01*
X4617800Y3805300D01*
X4612000Y3808700D01*
X4600300Y3825300D01*
X4592200Y3832800D01*
X4580500Y3837800D01*
X4570000Y3839500D01*
Y3804500D01*
G01Y3758000D02*
X4640000D01*
X4589800Y3788800D01*
Y3747200D01*
G01X4499200Y3857700D02*
X4502700Y3862700D01*
X4505000Y3868500D01*
Y3875200D01*
X4501500Y3882700D01*
X4495700Y3888500D01*
X4488700Y3892700D01*
X4477000Y3896000D01*
X4466500Y3896800D01*
X4456000Y3895200D01*
X4449000Y3892700D01*
X4442000Y3887700D01*
X4437300Y3881800D01*
X4435000Y3876000D01*
Y3870200D01*
X4437300Y3864300D01*
X4440800Y3859300D01*
X4445500Y3855200D01*
G01X4493300Y3837800D02*
X4500300Y3832800D01*
X4503800Y3827000D01*
X4505000Y3820300D01*
X4502700Y3812000D01*
X4496800Y3806200D01*
X4489800Y3804500D01*
X4482800Y3805300D01*
X4477000Y3808700D01*
X4465300Y3825300D01*
X4457200Y3832800D01*
X4445500Y3837800D01*
X4435000Y3839500D01*
Y3804500D01*
G01X4445500Y3786300D02*
X4439700Y3781300D01*
X4436200Y3775500D01*
X4435000Y3768000D01*
X4437300Y3760500D01*
X4442000Y3754700D01*
X4450200Y3750500D01*
X4459500Y3749700D01*
X4468800Y3751300D01*
X4474700Y3755500D01*
X4479300Y3761300D01*
X4480500Y3767200D01*
X4479300Y3773000D01*
X4474700Y3780500D01*
X4505000Y3778000D01*
Y3755500D01*
G01X4491000Y4134000D02*
X4522500D01*
X4561000Y4150700D01*
G01Y4117300D02*
X4522500Y4134000D01*
G01X4505000Y4098300D02*
X4496800Y4093300D01*
X4492200Y4086700D01*
X4491000Y4079200D01*
X4492200Y4072500D01*
X4498000Y4065800D01*
X4505000Y4061700D01*
X4512000Y4060800D01*
X4520200Y4062500D01*
X4526000Y4068300D01*
X4528300Y4074200D01*
Y4081700D01*
G01Y4074200D02*
X4531800Y4069200D01*
X4537700Y4065000D01*
X4544700Y4063300D01*
X4551700Y4065000D01*
X4557500Y4069200D01*
X4561000Y4076700D01*
X4559800Y4084200D01*
X4555200Y4091700D01*
G01X4634000Y4272000D02*
Y3952000D01*
X4414000D01*
Y4272000D01*
X4634000D01*
G01X4569200Y4464700D02*
X4572700Y4469700D01*
X4575000Y4475500D01*
Y4482200D01*
X4571500Y4489700D01*
X4565700Y4495500D01*
X4558700Y4499700D01*
X4547000Y4503000D01*
X4536500Y4503800D01*
X4526000Y4502200D01*
X4519000Y4499700D01*
X4512000Y4494700D01*
X4507300Y4488800D01*
X4505000Y4483000D01*
Y4477200D01*
X4507300Y4471300D01*
X4510800Y4466300D01*
X4515500Y4462200D01*
G01X4505000Y4429000D02*
X4575000D01*
X4561000Y4439000D01*
G01X4505000D02*
Y4419000D01*
G01Y4376700D02*
X4520200Y4375000D01*
X4533000Y4372500D01*
X4544700Y4369200D01*
X4557500Y4365000D01*
X4575000Y4358300D01*
Y4391700D01*
G01X4368000Y4450700D02*
X4438000D01*
Y4429800D01*
X4434500Y4423200D01*
X4429800Y4419000D01*
X4420500Y4417300D01*
X4411200Y4419000D01*
X4405300Y4424000D01*
X4401800Y4429800D01*
Y4450700D01*
G01Y4429800D02*
X4368000Y4417300D01*
G01Y4380000D02*
X4438000D01*
X4424000Y4390000D01*
G01X4368000D02*
Y4370000D01*
G01X4499300Y4635000D02*
Y4705000D01*
X4520200D01*
X4526800Y4701500D01*
X4531000Y4696800D01*
X4532700Y4687500D01*
X4531000Y4678200D01*
X4526000Y4672300D01*
X4520200Y4668800D01*
X4499300D01*
G01X4520200D02*
X4532700Y4635000D01*
G01X4570000D02*
Y4705000D01*
X4560000Y4691000D01*
G01Y4635000D02*
X4580000D01*
G01X4624000Y4705000D02*
X4617300Y4702700D01*
X4612300Y4696800D01*
X4609000Y4689800D01*
X4606500Y4680500D01*
X4605700Y4670000D01*
X4606500Y4659500D01*
X4609000Y4650200D01*
X4612300Y4643200D01*
X4617300Y4637300D01*
X4624000Y4635000D01*
X4630700Y4637300D01*
X4635700Y4643200D01*
X4639000Y4650200D01*
X4641500Y4659500D01*
X4642300Y4670000D01*
X4641500Y4680500D01*
X4639000Y4689800D01*
X4635700Y4696800D01*
X4630700Y4702700D01*
X4624000Y4705000D01*
G01X4871700Y3060000D02*
Y3130000D01*
G01X4903300D02*
X4871700Y3086800D01*
G01X4908300Y3060000D02*
X4885800Y3106700D01*
G01X4665300Y3155200D02*
X4660300Y3158700D01*
X4654500Y3161000D01*
X4647800D01*
X4640300Y3157500D01*
X4634500Y3151700D01*
X4630300Y3144700D01*
X4627000Y3133000D01*
X4626200Y3122500D01*
X4627800Y3112000D01*
X4630300Y3105000D01*
X4635300Y3098000D01*
X4641200Y3093300D01*
X4647000Y3091000D01*
X4652800D01*
X4658700Y3093300D01*
X4663700Y3096800D01*
X4667800Y3101500D01*
G01X4682700Y3105000D02*
X4687700Y3096800D01*
X4694300Y3092200D01*
X4701800Y3091000D01*
X4708500Y3092200D01*
X4715200Y3098000D01*
X4719300Y3105000D01*
X4720200Y3112000D01*
X4718500Y3120200D01*
X4712700Y3126000D01*
X4706800Y3128300D01*
X4699300D01*
G01X4706800D02*
X4711800Y3131800D01*
X4716000Y3137700D01*
X4717700Y3144700D01*
X4716000Y3151700D01*
X4711800Y3157500D01*
X4704300Y3161000D01*
X4696800Y3159800D01*
X4689300Y3155200D01*
G01X4765000Y3091000D02*
Y3161000D01*
X4734200Y3110800D01*
X4775800D01*
G01X4645300Y2953000D02*
Y3023000D01*
X4666200D01*
X4672800Y3019500D01*
X4677000Y3014800D01*
X4678700Y3005500D01*
X4677000Y2996200D01*
X4672000Y2990300D01*
X4666200Y2986800D01*
X4645300D01*
G01X4666200D02*
X4678700Y2953000D01*
G01X4716000D02*
X4721800Y2954200D01*
X4728500Y2957700D01*
X4732700Y2963500D01*
X4734300Y2971700D01*
X4732700Y2979800D01*
X4727700Y2986800D01*
X4720200Y2990300D01*
X4711800D01*
X4706800Y2992700D01*
X4702700Y2998500D01*
X4701000Y3006700D01*
X4703500Y3014800D01*
X4709300Y3020700D01*
X4716000Y3023000D01*
X4722700Y3020700D01*
X4728500Y3014800D01*
X4731000Y3006700D01*
X4729300Y2998500D01*
X4725200Y2992700D01*
X4720200Y2990300D01*
X4711800D01*
X4704300Y2986800D01*
X4699300Y2979800D01*
X4697700Y2971700D01*
X4699300Y2963500D01*
X4703500Y2957700D01*
X4710200Y2954200D01*
X4716000Y2953000D01*
G01X4925700Y2955000D02*
Y3025000D01*
X4942300D01*
X4949000Y3021500D01*
X4954000Y3016800D01*
X4958200Y3009800D01*
X4961500Y3001700D01*
X4962300Y2990000D01*
X4961500Y2978300D01*
X4958200Y2970200D01*
X4954000Y2963200D01*
X4949000Y2958500D01*
X4942300Y2955000D01*
X4925700D01*
G01X4982200Y3013300D02*
X4987200Y3020300D01*
X4993000Y3023800D01*
X4999700Y3025000D01*
X5008000Y3022700D01*
X5013800Y3016800D01*
X5015500Y3009800D01*
X5014700Y3002800D01*
X5011300Y2997000D01*
X4994700Y2985300D01*
X4987200Y2977200D01*
X4982200Y2965500D01*
X4980500Y2955000D01*
X5015500D01*
G01X4658300Y3302000D02*
Y3232000D01*
X4691700D01*
G01X4729000D02*
X4734800Y3233200D01*
X4741500Y3236700D01*
X4745700Y3242500D01*
X4747300Y3250700D01*
X4745700Y3258800D01*
X4740700Y3265800D01*
X4733200Y3269300D01*
X4724800D01*
X4719800Y3271700D01*
X4715700Y3277500D01*
X4714000Y3285700D01*
X4716500Y3293800D01*
X4722300Y3299700D01*
X4729000Y3302000D01*
X4735700Y3299700D01*
X4741500Y3293800D01*
X4744000Y3285700D01*
X4742300Y3277500D01*
X4738200Y3271700D01*
X4733200Y3269300D01*
X4724800D01*
X4717300Y3265800D01*
X4712300Y3258800D01*
X4710700Y3250700D01*
X4712300Y3242500D01*
X4716500Y3236700D01*
X4723200Y3233200D01*
X4729000Y3232000D01*
G01X4931300Y3294200D02*
X4926300Y3297700D01*
X4920500Y3300000D01*
X4913800D01*
X4906300Y3296500D01*
X4900500Y3290700D01*
X4896300Y3283700D01*
X4893000Y3272000D01*
X4892200Y3261500D01*
X4893800Y3251000D01*
X4896300Y3244000D01*
X4901300Y3237000D01*
X4907200Y3232300D01*
X4913000Y3230000D01*
X4918800D01*
X4924700Y3232300D01*
X4929700Y3235800D01*
X4933800Y3240500D01*
G01X4977000Y3230000D02*
Y3300000D01*
X4946200Y3249800D01*
X4987800D01*
G01X5021000Y3230000D02*
Y3300000D01*
X5011000Y3286000D01*
G01Y3230000D02*
X5031000D01*
G01X4658300Y3576000D02*
Y3506000D01*
X4691700D01*
G01X4727300D02*
X4729000Y3521200D01*
X4731500Y3534000D01*
X4734800Y3545700D01*
X4739000Y3558500D01*
X4745700Y3576000D01*
X4712300D01*
G01X4916300Y3432200D02*
X4911300Y3435700D01*
X4905500Y3438000D01*
X4898800D01*
X4891300Y3434500D01*
X4885500Y3428700D01*
X4881300Y3421700D01*
X4878000Y3410000D01*
X4877200Y3399500D01*
X4878800Y3389000D01*
X4881300Y3382000D01*
X4886300Y3375000D01*
X4892200Y3370300D01*
X4898000Y3368000D01*
X4903800D01*
X4909700Y3370300D01*
X4914700Y3373800D01*
X4918800Y3378500D01*
G01X4962000Y3368000D02*
Y3438000D01*
X4931200Y3387800D01*
X4972800D01*
G01X5006000Y3438000D02*
X4999300Y3435700D01*
X4994300Y3429800D01*
X4991000Y3422800D01*
X4988500Y3413500D01*
X4987700Y3403000D01*
X4988500Y3392500D01*
X4991000Y3383200D01*
X4994300Y3376200D01*
X4999300Y3370300D01*
X5006000Y3368000D01*
X5012700Y3370300D01*
X5017700Y3376200D01*
X5021000Y3383200D01*
X5023500Y3392500D01*
X5024300Y3403000D01*
X5023500Y3413500D01*
X5021000Y3422800D01*
X5017700Y3429800D01*
X5012700Y3435700D01*
X5006000Y3438000D01*
G01X4660300Y3446000D02*
Y3376000D01*
X4693700D01*
G01X4715200Y3405200D02*
X4721000Y3413300D01*
X4726000Y3418000D01*
X4732700Y3420300D01*
X4738500Y3418000D01*
X4742700Y3413300D01*
X4746000Y3406300D01*
X4746800Y3398200D01*
X4746000Y3391200D01*
X4742700Y3384200D01*
X4737700Y3378300D01*
X4731800Y3376000D01*
X4725200Y3378300D01*
X4719300Y3385300D01*
X4716000Y3395800D01*
X4715200Y3407500D01*
X4716800Y3422700D01*
X4719300Y3430800D01*
X4723500Y3439000D01*
X4729300Y3444800D01*
X4735200Y3446000D01*
X4741000Y3443700D01*
X4745200Y3437800D01*
G01X4916300Y3562200D02*
X4911300Y3565700D01*
X4905500Y3568000D01*
X4898800D01*
X4891300Y3564500D01*
X4885500Y3558700D01*
X4881300Y3551700D01*
X4878000Y3540000D01*
X4877200Y3529500D01*
X4878800Y3519000D01*
X4881300Y3512000D01*
X4886300Y3505000D01*
X4892200Y3500300D01*
X4898000Y3498000D01*
X4903800D01*
X4909700Y3500300D01*
X4914700Y3503800D01*
X4918800Y3508500D01*
G01X4933700Y3512000D02*
X4938700Y3503800D01*
X4945300Y3499200D01*
X4952800Y3498000D01*
X4959500Y3499200D01*
X4966200Y3505000D01*
X4970300Y3512000D01*
X4971200Y3519000D01*
X4969500Y3527200D01*
X4963700Y3533000D01*
X4957800Y3535300D01*
X4950300D01*
G01X4957800D02*
X4962800Y3538800D01*
X4967000Y3544700D01*
X4968700Y3551700D01*
X4967000Y3558700D01*
X4962800Y3564500D01*
X4955300Y3568000D01*
X4947800Y3566800D01*
X4940300Y3562200D01*
G01X4991800Y3506200D02*
X4997700Y3500300D01*
X5004300Y3498000D01*
X5011000Y3500300D01*
X5016800Y3507300D01*
X5021000Y3517800D01*
X5022700Y3528300D01*
Y3541200D01*
X5021000Y3551700D01*
X5016800Y3561000D01*
X5011800Y3565700D01*
X5006000Y3568000D01*
X4999300Y3565700D01*
X4994300Y3561000D01*
X4991000Y3554000D01*
X4989300Y3544700D01*
X4991000Y3536500D01*
X4995200Y3528300D01*
X5000200Y3523700D01*
X5006000Y3522500D01*
X5012700Y3524800D01*
X5017700Y3530700D01*
X5022700Y3541200D01*
G01X4798300Y4564200D02*
X4793300Y4567700D01*
X4787500Y4570000D01*
X4780800D01*
X4773300Y4566500D01*
X4767500Y4560700D01*
X4763300Y4553700D01*
X4760000Y4542000D01*
X4759200Y4531500D01*
X4760800Y4521000D01*
X4763300Y4514000D01*
X4768300Y4507000D01*
X4774200Y4502300D01*
X4780000Y4500000D01*
X4785800D01*
X4791700Y4502300D01*
X4796700Y4505800D01*
X4800800Y4510500D01*
G01X4818200Y4558300D02*
X4823200Y4565300D01*
X4829000Y4568800D01*
X4835700Y4570000D01*
X4844000Y4567700D01*
X4849800Y4561800D01*
X4851500Y4554800D01*
X4850700Y4547800D01*
X4847300Y4542000D01*
X4830700Y4530300D01*
X4823200Y4522200D01*
X4818200Y4510500D01*
X4816500Y4500000D01*
X4851500D01*
G01X4888000D02*
Y4570000D01*
X4878000Y4556000D01*
G01Y4500000D02*
X4898000D01*
G01X4792300Y4697200D02*
X4787300Y4700700D01*
X4781500Y4703000D01*
X4774800D01*
X4767300Y4699500D01*
X4761500Y4693700D01*
X4757300Y4686700D01*
X4754000Y4675000D01*
X4753200Y4664500D01*
X4754800Y4654000D01*
X4757300Y4647000D01*
X4762300Y4640000D01*
X4768200Y4635300D01*
X4774000Y4633000D01*
X4779800D01*
X4785700Y4635300D01*
X4790700Y4638800D01*
X4794800Y4643500D01*
G01X4812200Y4691300D02*
X4817200Y4698300D01*
X4823000Y4701800D01*
X4829700Y4703000D01*
X4838000Y4700700D01*
X4843800Y4694800D01*
X4845500Y4687800D01*
X4844700Y4680800D01*
X4841300Y4675000D01*
X4824700Y4663300D01*
X4817200Y4655200D01*
X4812200Y4643500D01*
X4810500Y4633000D01*
X4845500D01*
G01X4882000Y4703000D02*
X4875300Y4700700D01*
X4870300Y4694800D01*
X4867000Y4687800D01*
X4864500Y4678500D01*
X4863700Y4668000D01*
X4864500Y4657500D01*
X4867000Y4648200D01*
X4870300Y4641200D01*
X4875300Y4635300D01*
X4882000Y4633000D01*
X4888700Y4635300D01*
X4893700Y4641200D01*
X4897000Y4648200D01*
X4899500Y4657500D01*
X4900300Y4668000D01*
X4899500Y4678500D01*
X4897000Y4687800D01*
X4893700Y4694800D01*
X4888700Y4700700D01*
X4882000Y4703000D01*
G01X5293300Y3101000D02*
Y3171000D01*
X5314200D01*
X5320800Y3167500D01*
X5325000Y3162800D01*
X5326700Y3153500D01*
X5325000Y3144200D01*
X5320000Y3138300D01*
X5314200Y3134800D01*
X5293300D01*
G01X5314200D02*
X5326700Y3101000D01*
G01X5349800Y3109200D02*
X5355700Y3103300D01*
X5362300Y3101000D01*
X5369000Y3103300D01*
X5374800Y3110300D01*
X5379000Y3120800D01*
X5380700Y3131300D01*
Y3144200D01*
X5379000Y3154700D01*
X5374800Y3164000D01*
X5369800Y3168700D01*
X5364000Y3171000D01*
X5357300Y3168700D01*
X5352300Y3164000D01*
X5349000Y3157000D01*
X5347300Y3147700D01*
X5349000Y3139500D01*
X5353200Y3131300D01*
X5358200Y3126700D01*
X5364000Y3125500D01*
X5370700Y3127800D01*
X5375700Y3133700D01*
X5380700Y3144200D01*
G01X5214700Y2958000D02*
Y3028000D01*
X5231300D01*
X5238000Y3024500D01*
X5243000Y3019800D01*
X5247200Y3012800D01*
X5250500Y3004700D01*
X5251300Y2993000D01*
X5250500Y2981300D01*
X5247200Y2973200D01*
X5243000Y2966200D01*
X5238000Y2961500D01*
X5231300Y2958000D01*
X5214700D01*
G01X5268700Y2972000D02*
X5273700Y2963800D01*
X5280300Y2959200D01*
X5287800Y2958000D01*
X5294500Y2959200D01*
X5301200Y2965000D01*
X5305300Y2972000D01*
X5306200Y2979000D01*
X5304500Y2987200D01*
X5298700Y2993000D01*
X5292800Y2995300D01*
X5285300D01*
G01X5292800D02*
X5297800Y2998800D01*
X5302000Y3004700D01*
X5303700Y3011700D01*
X5302000Y3018700D01*
X5297800Y3024500D01*
X5290300Y3028000D01*
X5282800Y3026800D01*
X5275300Y3022200D01*
G01X5290300Y3570200D02*
X5285300Y3573700D01*
X5279500Y3576000D01*
X5272800D01*
X5265300Y3572500D01*
X5259500Y3566700D01*
X5255300Y3559700D01*
X5252000Y3548000D01*
X5251200Y3537500D01*
X5252800Y3527000D01*
X5255300Y3520000D01*
X5260300Y3513000D01*
X5266200Y3508300D01*
X5272000Y3506000D01*
X5277800D01*
X5283700Y3508300D01*
X5288700Y3511800D01*
X5292800Y3516500D01*
G01X5326000Y3506000D02*
Y3576000D01*
X5316000Y3562000D01*
G01Y3506000D02*
X5336000D01*
G01X5380000D02*
X5385800Y3507200D01*
X5392500Y3510700D01*
X5396700Y3516500D01*
X5398300Y3524700D01*
X5396700Y3532800D01*
X5391700Y3539800D01*
X5384200Y3543300D01*
X5375800D01*
X5370800Y3545700D01*
X5366700Y3551500D01*
X5365000Y3559700D01*
X5367500Y3567800D01*
X5373300Y3573700D01*
X5380000Y3576000D01*
X5386700Y3573700D01*
X5392500Y3567800D01*
X5395000Y3559700D01*
X5393300Y3551500D01*
X5389200Y3545700D01*
X5384200Y3543300D01*
X5375800D01*
X5368300Y3539800D01*
X5363300Y3532800D01*
X5361700Y3524700D01*
X5363300Y3516500D01*
X5367500Y3510700D01*
X5374200Y3507200D01*
X5380000Y3506000D01*
G01X5295300Y3440200D02*
X5290300Y3443700D01*
X5284500Y3446000D01*
X5277800D01*
X5270300Y3442500D01*
X5264500Y3436700D01*
X5260300Y3429700D01*
X5257000Y3418000D01*
X5256200Y3407500D01*
X5257800Y3397000D01*
X5260300Y3390000D01*
X5265300Y3383000D01*
X5271200Y3378300D01*
X5277000Y3376000D01*
X5282800D01*
X5288700Y3378300D01*
X5293700Y3381800D01*
X5297800Y3386500D01*
G01X5312700Y3390000D02*
X5317700Y3381800D01*
X5324300Y3377200D01*
X5331800Y3376000D01*
X5338500Y3377200D01*
X5345200Y3383000D01*
X5349300Y3390000D01*
X5350200Y3397000D01*
X5348500Y3405200D01*
X5342700Y3411000D01*
X5336800Y3413300D01*
X5329300D01*
G01X5336800D02*
X5341800Y3416800D01*
X5346000Y3422700D01*
X5347700Y3429700D01*
X5346000Y3436700D01*
X5341800Y3442500D01*
X5334300Y3446000D01*
X5326800Y3444800D01*
X5319300Y3440200D01*
G01X5369200Y3405200D02*
X5375000Y3413300D01*
X5380000Y3418000D01*
X5386700Y3420300D01*
X5392500Y3418000D01*
X5396700Y3413300D01*
X5400000Y3406300D01*
X5400800Y3398200D01*
X5400000Y3391200D01*
X5396700Y3384200D01*
X5391700Y3378300D01*
X5385800Y3376000D01*
X5379200Y3378300D01*
X5373300Y3385300D01*
X5370000Y3395800D01*
X5369200Y3407500D01*
X5370800Y3422700D01*
X5373300Y3430800D01*
X5377500Y3439000D01*
X5383300Y3444800D01*
X5389200Y3446000D01*
X5395000Y3443700D01*
X5399200Y3437800D01*
G01X5296300Y3230000D02*
Y3300000D01*
X5317200D01*
X5323800Y3296500D01*
X5328000Y3291800D01*
X5329700Y3282500D01*
X5328000Y3273200D01*
X5323000Y3267300D01*
X5317200Y3263800D01*
X5296300D01*
G01X5317200D02*
X5329700Y3230000D01*
G01X5348700Y3244000D02*
X5353700Y3235800D01*
X5360300Y3231200D01*
X5367800Y3230000D01*
X5374500Y3231200D01*
X5381200Y3237000D01*
X5385300Y3244000D01*
X5386200Y3251000D01*
X5384500Y3259200D01*
X5378700Y3265000D01*
X5372800Y3267300D01*
X5365300D01*
G01X5372800D02*
X5377800Y3270800D01*
X5382000Y3276700D01*
X5383700Y3283700D01*
X5382000Y3290700D01*
X5377800Y3296500D01*
X5370300Y3300000D01*
X5362800Y3298800D01*
X5355300Y3294200D01*
G01X5037700Y4083000D02*
Y4032800D01*
X5041000Y4022300D01*
X5047700Y4015300D01*
X5056000Y4013000D01*
X5064300Y4015300D01*
X5071000Y4022300D01*
X5074300Y4032800D01*
Y4083000D01*
G01X5110000Y4013000D02*
Y4083000D01*
X5100000Y4069000D01*
G01Y4013000D02*
X5120000D01*
G01X5034300Y4480000D02*
Y4550000D01*
X5055200D01*
X5061800Y4546500D01*
X5066000Y4541800D01*
X5067700Y4532500D01*
X5066000Y4523200D01*
X5061000Y4517300D01*
X5055200Y4513800D01*
X5034300D01*
G01X5055200D02*
X5067700Y4480000D01*
G01X5115000D02*
Y4550000D01*
X5084200Y4499800D01*
X5125800D01*
G01X5036300Y4629000D02*
Y4699000D01*
X5057200D01*
X5063800Y4695500D01*
X5068000Y4690800D01*
X5069700Y4681500D01*
X5068000Y4672200D01*
X5063000Y4666300D01*
X5057200Y4662800D01*
X5036300D01*
G01X5057200D02*
X5069700Y4629000D01*
G01X5088700Y4639500D02*
X5093700Y4633700D01*
X5099500Y4630200D01*
X5107000Y4629000D01*
X5114500Y4631300D01*
X5120300Y4636000D01*
X5124500Y4644200D01*
X5125300Y4653500D01*
X5123700Y4662800D01*
X5119500Y4668700D01*
X5113700Y4673300D01*
X5107800Y4674500D01*
X5102000Y4673300D01*
X5094500Y4668700D01*
X5097000Y4699000D01*
X5119500D01*
G01X5278300Y4490000D02*
Y4560000D01*
X5299200D01*
X5305800Y4556500D01*
X5310000Y4551800D01*
X5311700Y4542500D01*
X5310000Y4533200D01*
X5305000Y4527300D01*
X5299200Y4523800D01*
X5278300D01*
G01X5299200D02*
X5311700Y4490000D01*
G01X5349000D02*
Y4560000D01*
X5339000Y4546000D01*
G01Y4490000D02*
X5359000D01*
G01X5403000D02*
Y4560000D01*
X5393000Y4546000D01*
G01Y4490000D02*
X5413000D01*
G01X5432700Y2944000D02*
Y3014000D01*
G01X5464300D02*
X5432700Y2970800D01*
G01X5469300Y2944000D02*
X5446800Y2990700D01*
G01X5613200Y3590700D02*
X5616700Y3595700D01*
X5619000Y3601500D01*
Y3608200D01*
X5615500Y3615700D01*
X5609700Y3621500D01*
X5602700Y3625700D01*
X5591000Y3629000D01*
X5580500Y3629800D01*
X5570000Y3628200D01*
X5563000Y3625700D01*
X5556000Y3620700D01*
X5551300Y3614800D01*
X5549000Y3609000D01*
Y3603200D01*
X5551300Y3597300D01*
X5554800Y3592300D01*
X5559500Y3588200D01*
G01X5563000Y3573300D02*
X5554800Y3568300D01*
X5550200Y3561700D01*
X5549000Y3554200D01*
X5550200Y3547500D01*
X5556000Y3540800D01*
X5563000Y3536700D01*
X5570000Y3535800D01*
X5578200Y3537500D01*
X5584000Y3543300D01*
X5586300Y3549200D01*
Y3556700D01*
G01Y3549200D02*
X5589800Y3544200D01*
X5595700Y3540000D01*
X5602700Y3538300D01*
X5609700Y3540000D01*
X5615500Y3544200D01*
X5619000Y3551700D01*
X5617800Y3559200D01*
X5613200Y3566700D01*
G01X5549000Y3501000D02*
X5550200Y3495200D01*
X5553700Y3488500D01*
X5559500Y3484300D01*
X5567700Y3482700D01*
X5575800Y3484300D01*
X5582800Y3489300D01*
X5586300Y3496800D01*
Y3505200D01*
X5588700Y3510200D01*
X5594500Y3514300D01*
X5602700Y3516000D01*
X5610800Y3513500D01*
X5616700Y3507700D01*
X5619000Y3501000D01*
X5616700Y3494300D01*
X5610800Y3488500D01*
X5602700Y3486000D01*
X5594500Y3487700D01*
X5588700Y3491800D01*
X5586300Y3496800D01*
Y3505200D01*
X5582800Y3512700D01*
X5575800Y3517700D01*
X5567700Y3519300D01*
X5559500Y3517700D01*
X5553700Y3513500D01*
X5550200Y3506800D01*
X5549000Y3501000D01*
G01X5876000Y3375000D02*
X5701000D01*
X5676000Y3400000D01*
Y3675000D01*
X5876000D01*
Y3375000D01*
G01X5582200Y4333700D02*
X5585700Y4338700D01*
X5588000Y4344500D01*
Y4351200D01*
X5584500Y4358700D01*
X5578700Y4364500D01*
X5571700Y4368700D01*
X5560000Y4372000D01*
X5549500Y4372800D01*
X5539000Y4371200D01*
X5532000Y4368700D01*
X5525000Y4363700D01*
X5520300Y4357800D01*
X5518000Y4352000D01*
Y4346200D01*
X5520300Y4340300D01*
X5523800Y4335300D01*
X5528500Y4331200D01*
G01X5518000Y4298000D02*
X5588000D01*
X5574000Y4308000D01*
G01X5518000D02*
Y4288000D01*
G01X5526200Y4258200D02*
X5520300Y4252300D01*
X5518000Y4245700D01*
X5520300Y4239000D01*
X5527300Y4233200D01*
X5537800Y4229000D01*
X5548300Y4227300D01*
X5561200D01*
X5571700Y4229000D01*
X5581000Y4233200D01*
X5585700Y4238200D01*
X5588000Y4244000D01*
X5585700Y4250700D01*
X5581000Y4255700D01*
X5574000Y4259000D01*
X5564700Y4260700D01*
X5556500Y4259000D01*
X5548300Y4254800D01*
X5543700Y4249800D01*
X5542500Y4244000D01*
X5544800Y4237300D01*
X5550700Y4232300D01*
X5561200Y4227300D01*
G01X5646000Y4348700D02*
X5716000D01*
Y4327800D01*
X5712500Y4321200D01*
X5707800Y4317000D01*
X5698500Y4315300D01*
X5689200Y4317000D01*
X5683300Y4322000D01*
X5679800Y4327800D01*
Y4348700D01*
G01Y4327800D02*
X5646000Y4315300D01*
G01X5675200Y4293800D02*
X5683300Y4288000D01*
X5688000Y4283000D01*
X5690300Y4276300D01*
X5688000Y4270500D01*
X5683300Y4266300D01*
X5676300Y4263000D01*
X5668200Y4262200D01*
X5661200Y4263000D01*
X5654200Y4266300D01*
X5648300Y4271300D01*
X5646000Y4277200D01*
X5648300Y4283800D01*
X5655300Y4289700D01*
X5665800Y4293000D01*
X5677500Y4293800D01*
X5692700Y4292200D01*
X5700800Y4289700D01*
X5709000Y4285500D01*
X5714800Y4279700D01*
X5716000Y4273800D01*
X5713700Y4268000D01*
X5707800Y4263800D01*
G01X5546300Y4554200D02*
X5541300Y4557700D01*
X5535500Y4560000D01*
X5528800D01*
X5521300Y4556500D01*
X5515500Y4550700D01*
X5511300Y4543700D01*
X5508000Y4532000D01*
X5507200Y4521500D01*
X5508800Y4511000D01*
X5511300Y4504000D01*
X5516300Y4497000D01*
X5522200Y4492300D01*
X5528000Y4490000D01*
X5533800D01*
X5539700Y4492300D01*
X5544700Y4495800D01*
X5548800Y4500500D01*
G01X5563700Y4504000D02*
X5568700Y4495800D01*
X5575300Y4491200D01*
X5582800Y4490000D01*
X5589500Y4491200D01*
X5596200Y4497000D01*
X5600300Y4504000D01*
X5601200Y4511000D01*
X5599500Y4519200D01*
X5593700Y4525000D01*
X5587800Y4527300D01*
X5580300D01*
G01X5587800D02*
X5592800Y4530800D01*
X5597000Y4536700D01*
X5598700Y4543700D01*
X5597000Y4550700D01*
X5592800Y4556500D01*
X5585300Y4560000D01*
X5577800Y4558800D01*
X5570300Y4554200D01*
G01X5617700Y4500500D02*
X5622700Y4494700D01*
X5628500Y4491200D01*
X5636000Y4490000D01*
X5643500Y4492300D01*
X5649300Y4497000D01*
X5653500Y4505200D01*
X5654300Y4514500D01*
X5652700Y4523800D01*
X5648500Y4529700D01*
X5642700Y4534300D01*
X5636800Y4535500D01*
X5631000Y4534300D01*
X5623500Y4529700D01*
X5626000Y4560000D01*
X5648500D01*
G01X5554300Y4626000D02*
Y4696000D01*
X5575200D01*
X5581800Y4692500D01*
X5586000Y4687800D01*
X5587700Y4678500D01*
X5586000Y4669200D01*
X5581000Y4663300D01*
X5575200Y4659800D01*
X5554300D01*
G01X5575200D02*
X5587700Y4626000D01*
G01X5609200Y4684300D02*
X5614200Y4691300D01*
X5620000Y4694800D01*
X5626700Y4696000D01*
X5635000Y4693700D01*
X5640800Y4687800D01*
X5642500Y4680800D01*
X5641700Y4673800D01*
X5638300Y4668000D01*
X5621700Y4656300D01*
X5614200Y4648200D01*
X5609200Y4636500D01*
X5607500Y4626000D01*
X5642500D01*
G01X5849500Y3017300D02*
X5856200Y3011500D01*
X5863700Y3008000D01*
X5870300D01*
X5877000Y3011500D01*
X5882000Y3017300D01*
X5884500Y3025500D01*
X5882800Y3033700D01*
X5878700Y3040700D01*
X5871200Y3045300D01*
X5861200Y3047700D01*
X5855300Y3052300D01*
X5852800Y3060500D01*
X5854500Y3068700D01*
X5858700Y3074500D01*
X5864500Y3078000D01*
X5870300D01*
X5876200Y3075700D01*
X5881200Y3069800D01*
G01X5896000Y3078000D02*
X5907700Y3008000D01*
X5921000Y3078000D01*
X5934300Y3008000D01*
X5946000Y3078000D01*
G01X5959200Y3066300D02*
X5964200Y3073300D01*
X5970000Y3076800D01*
X5976700Y3078000D01*
X5985000Y3075700D01*
X5990800Y3069800D01*
X5992500Y3062800D01*
X5991700Y3055800D01*
X5988300Y3050000D01*
X5971700Y3038300D01*
X5964200Y3030200D01*
X5959200Y3018500D01*
X5957500Y3008000D01*
X5992500D01*
G01X5730300Y3255000D02*
Y3325000D01*
X5751200D01*
X5757800Y3321500D01*
X5762000Y3316800D01*
X5763700Y3307500D01*
X5762000Y3298200D01*
X5757000Y3292300D01*
X5751200Y3288800D01*
X5730300D01*
G01X5751200D02*
X5763700Y3255000D01*
G01X5799300D02*
X5801000Y3270200D01*
X5803500Y3283000D01*
X5806800Y3294700D01*
X5811000Y3307500D01*
X5817700Y3325000D01*
X5784300D01*
G01X5740000Y3487700D02*
X5790200D01*
X5800700Y3491000D01*
X5807700Y3497700D01*
X5810000Y3506000D01*
X5807700Y3514300D01*
X5800700Y3521000D01*
X5790200Y3524300D01*
X5740000D01*
G01X5780800Y3544200D02*
X5772700Y3550000D01*
X5768000Y3555000D01*
X5765700Y3561700D01*
X5768000Y3567500D01*
X5772700Y3571700D01*
X5779700Y3575000D01*
X5787800Y3575800D01*
X5794800Y3575000D01*
X5801800Y3571700D01*
X5807700Y3566700D01*
X5810000Y3560800D01*
X5807700Y3554200D01*
X5800700Y3548300D01*
X5790200Y3545000D01*
X5778500Y3544200D01*
X5763300Y3545800D01*
X5755200Y3548300D01*
X5747000Y3552500D01*
X5741200Y3558300D01*
X5740000Y3564200D01*
X5742300Y3570000D01*
X5748200Y3574200D01*
G01X5810200Y3884700D02*
X5813700Y3889700D01*
X5816000Y3895500D01*
Y3902200D01*
X5812500Y3909700D01*
X5806700Y3915500D01*
X5799700Y3919700D01*
X5788000Y3923000D01*
X5777500Y3923800D01*
X5767000Y3922200D01*
X5760000Y3919700D01*
X5753000Y3914700D01*
X5748300Y3908800D01*
X5746000Y3903000D01*
Y3897200D01*
X5748300Y3891300D01*
X5751800Y3886300D01*
X5756500Y3882200D01*
G01X5760000Y3867300D02*
X5751800Y3862300D01*
X5747200Y3855700D01*
X5746000Y3848200D01*
X5747200Y3841500D01*
X5753000Y3834800D01*
X5760000Y3830700D01*
X5767000Y3829800D01*
X5775200Y3831500D01*
X5781000Y3837300D01*
X5783300Y3843200D01*
Y3850700D01*
G01Y3843200D02*
X5786800Y3838200D01*
X5792700Y3834000D01*
X5799700Y3832300D01*
X5806700Y3834000D01*
X5812500Y3838200D01*
X5816000Y3845700D01*
X5814800Y3853200D01*
X5810200Y3860700D01*
G01X5816000Y3795000D02*
X5813700Y3801700D01*
X5807800Y3806700D01*
X5800800Y3810000D01*
X5791500Y3812500D01*
X5781000Y3813300D01*
X5770500Y3812500D01*
X5761200Y3810000D01*
X5754200Y3806700D01*
X5748300Y3801700D01*
X5746000Y3795000D01*
X5748300Y3788300D01*
X5754200Y3783300D01*
X5761200Y3780000D01*
X5770500Y3777500D01*
X5781000Y3776700D01*
X5791500Y3777500D01*
X5800800Y3780000D01*
X5807800Y3783300D01*
X5813700Y3788300D01*
X5816000Y3795000D01*
G01X5946200Y3879700D02*
X5949700Y3884700D01*
X5952000Y3890500D01*
Y3897200D01*
X5948500Y3904700D01*
X5942700Y3910500D01*
X5935700Y3914700D01*
X5924000Y3918000D01*
X5913500Y3918800D01*
X5903000Y3917200D01*
X5896000Y3914700D01*
X5889000Y3909700D01*
X5884300Y3903800D01*
X5882000Y3898000D01*
Y3892200D01*
X5884300Y3886300D01*
X5887800Y3881300D01*
X5892500Y3877200D01*
G01X5896000Y3862300D02*
X5887800Y3857300D01*
X5883200Y3850700D01*
X5882000Y3843200D01*
X5883200Y3836500D01*
X5889000Y3829800D01*
X5896000Y3825700D01*
X5903000Y3824800D01*
X5911200Y3826500D01*
X5917000Y3832300D01*
X5919300Y3838200D01*
Y3845700D01*
G01Y3838200D02*
X5922800Y3833200D01*
X5928700Y3829000D01*
X5935700Y3827300D01*
X5942700Y3829000D01*
X5948500Y3833200D01*
X5952000Y3840700D01*
X5950800Y3848200D01*
X5946200Y3855700D01*
G01X5882000Y3790000D02*
X5952000D01*
X5938000Y3800000D01*
G01X5882000D02*
Y3780000D01*
G01X6041000Y3760000D02*
X6541000D01*
Y4260000D01*
X6101000D01*
X6041000Y4200000D01*
Y3760000D01*
G01X6138300Y4598200D02*
X6133300Y4601700D01*
X6127500Y4604000D01*
X6120800D01*
X6113300Y4600500D01*
X6107500Y4594700D01*
X6103300Y4587700D01*
X6100000Y4576000D01*
X6099200Y4565500D01*
X6100800Y4555000D01*
X6103300Y4548000D01*
X6108300Y4541000D01*
X6114200Y4536300D01*
X6120000Y4534000D01*
X6125800D01*
X6131700Y4536300D01*
X6136700Y4539800D01*
X6140800Y4544500D01*
G01X6158200Y4592300D02*
X6163200Y4599300D01*
X6169000Y4602800D01*
X6175700Y4604000D01*
X6184000Y4601700D01*
X6189800Y4595800D01*
X6191500Y4588800D01*
X6190700Y4581800D01*
X6187300Y4576000D01*
X6170700Y4564300D01*
X6163200Y4556200D01*
X6158200Y4544500D01*
X6156500Y4534000D01*
X6191500D01*
G01X5859500Y4960300D02*
X5866200Y4954500D01*
X5873700Y4951000D01*
X5880300D01*
X5887000Y4954500D01*
X5892000Y4960300D01*
X5894500Y4968500D01*
X5892800Y4976700D01*
X5888700Y4983700D01*
X5881200Y4988300D01*
X5871200Y4990700D01*
X5865300Y4995300D01*
X5862800Y5003500D01*
X5864500Y5011700D01*
X5868700Y5017500D01*
X5874500Y5021000D01*
X5880300D01*
X5886200Y5018700D01*
X5891200Y5012800D01*
G01X5906000Y5021000D02*
X5917700Y4951000D01*
X5931000Y5021000D01*
X5944300Y4951000D01*
X5956000Y5021000D01*
G01X5985000Y4951000D02*
Y5021000D01*
X5975000Y5007000D01*
G01Y4951000D02*
X5995000D01*
G01X6522200Y3394700D02*
X6525700Y3399700D01*
X6528000Y3405500D01*
Y3412200D01*
X6524500Y3419700D01*
X6518700Y3425500D01*
X6511700Y3429700D01*
X6500000Y3433000D01*
X6489500Y3433800D01*
X6479000Y3432200D01*
X6472000Y3429700D01*
X6465000Y3424700D01*
X6460300Y3418800D01*
X6458000Y3413000D01*
Y3407200D01*
X6460300Y3401300D01*
X6463800Y3396300D01*
X6468500Y3392200D01*
G01X6458000Y3359000D02*
X6528000D01*
X6514000Y3369000D01*
G01X6458000D02*
Y3349000D01*
G01X6468500Y3323300D02*
X6462700Y3318300D01*
X6459200Y3312500D01*
X6458000Y3305000D01*
X6460300Y3297500D01*
X6465000Y3291700D01*
X6473200Y3287500D01*
X6482500Y3286700D01*
X6491800Y3288300D01*
X6497700Y3292500D01*
X6502300Y3298300D01*
X6503500Y3304200D01*
X6502300Y3310000D01*
X6497700Y3317500D01*
X6528000Y3315000D01*
Y3292500D01*
G01X6156300Y3510200D02*
X6151300Y3513700D01*
X6145500Y3516000D01*
X6138800D01*
X6131300Y3512500D01*
X6125500Y3506700D01*
X6121300Y3499700D01*
X6118000Y3488000D01*
X6117200Y3477500D01*
X6118800Y3467000D01*
X6121300Y3460000D01*
X6126300Y3453000D01*
X6132200Y3448300D01*
X6138000Y3446000D01*
X6143800D01*
X6149700Y3448300D01*
X6154700Y3451800D01*
X6158800Y3456500D01*
G01X6176200Y3504300D02*
X6181200Y3511300D01*
X6187000Y3514800D01*
X6193700Y3516000D01*
X6202000Y3513700D01*
X6207800Y3507800D01*
X6209500Y3500800D01*
X6208700Y3493800D01*
X6205300Y3488000D01*
X6188700Y3476300D01*
X6181200Y3468200D01*
X6176200Y3456500D01*
X6174500Y3446000D01*
X6209500D01*
G01X6230200Y3504300D02*
X6235200Y3511300D01*
X6241000Y3514800D01*
X6247700Y3516000D01*
X6256000Y3513700D01*
X6261800Y3507800D01*
X6263500Y3500800D01*
X6262700Y3493800D01*
X6259300Y3488000D01*
X6242700Y3476300D01*
X6235200Y3468200D01*
X6230200Y3456500D01*
X6228500Y3446000D01*
X6263500D01*
G01X6148300Y3643200D02*
X6143300Y3646700D01*
X6137500Y3649000D01*
X6130800D01*
X6123300Y3645500D01*
X6117500Y3639700D01*
X6113300Y3632700D01*
X6110000Y3621000D01*
X6109200Y3610500D01*
X6110800Y3600000D01*
X6113300Y3593000D01*
X6118300Y3586000D01*
X6124200Y3581300D01*
X6130000Y3579000D01*
X6135800D01*
X6141700Y3581300D01*
X6146700Y3584800D01*
X6150800Y3589500D01*
G01X6168200Y3637300D02*
X6173200Y3644300D01*
X6179000Y3647800D01*
X6185700Y3649000D01*
X6194000Y3646700D01*
X6199800Y3640800D01*
X6201500Y3633800D01*
X6200700Y3626800D01*
X6197300Y3621000D01*
X6180700Y3609300D01*
X6173200Y3601200D01*
X6168200Y3589500D01*
X6166500Y3579000D01*
X6201500D01*
G01X6219700Y3593000D02*
X6224700Y3584800D01*
X6231300Y3580200D01*
X6238800Y3579000D01*
X6245500Y3580200D01*
X6252200Y3586000D01*
X6256300Y3593000D01*
X6257200Y3600000D01*
X6255500Y3608200D01*
X6249700Y3614000D01*
X6243800Y3616300D01*
X6236300D01*
G01X6243800D02*
X6248800Y3619800D01*
X6253000Y3625700D01*
X6254700Y3632700D01*
X6253000Y3639700D01*
X6248800Y3645500D01*
X6241300Y3649000D01*
X6233800Y3647800D01*
X6226300Y3643200D01*
G01X6229700Y4086000D02*
Y4035800D01*
X6233000Y4025300D01*
X6239700Y4018300D01*
X6248000Y4016000D01*
X6256300Y4018300D01*
X6263000Y4025300D01*
X6266300Y4035800D01*
Y4086000D01*
G01X6286200Y4074300D02*
X6291200Y4081300D01*
X6297000Y4084800D01*
X6303700Y4086000D01*
X6312000Y4083700D01*
X6317800Y4077800D01*
X6319500Y4070800D01*
X6318700Y4063800D01*
X6315300Y4058000D01*
X6298700Y4046300D01*
X6291200Y4038200D01*
X6286200Y4026500D01*
X6284500Y4016000D01*
X6319500D01*
G01X6148300Y4457200D02*
X6143300Y4460700D01*
X6137500Y4463000D01*
X6130800D01*
X6123300Y4459500D01*
X6117500Y4453700D01*
X6113300Y4446700D01*
X6110000Y4435000D01*
X6109200Y4424500D01*
X6110800Y4414000D01*
X6113300Y4407000D01*
X6118300Y4400000D01*
X6124200Y4395300D01*
X6130000Y4393000D01*
X6135800D01*
X6141700Y4395300D01*
X6146700Y4398800D01*
X6150800Y4403500D01*
G01X6184000Y4393000D02*
Y4463000D01*
X6174000Y4449000D01*
G01Y4393000D02*
X6194000D01*
G01X6376300Y4595200D02*
X6371300Y4598700D01*
X6365500Y4601000D01*
X6358800D01*
X6351300Y4597500D01*
X6345500Y4591700D01*
X6341300Y4584700D01*
X6338000Y4573000D01*
X6337200Y4562500D01*
X6338800Y4552000D01*
X6341300Y4545000D01*
X6346300Y4538000D01*
X6352200Y4533300D01*
X6358000Y4531000D01*
X6363800D01*
X6369700Y4533300D01*
X6374700Y4536800D01*
X6378800Y4541500D01*
G01X6393700Y4545000D02*
X6398700Y4536800D01*
X6405300Y4532200D01*
X6412800Y4531000D01*
X6419500Y4532200D01*
X6426200Y4538000D01*
X6430300Y4545000D01*
X6431200Y4552000D01*
X6429500Y4560200D01*
X6423700Y4566000D01*
X6417800Y4568300D01*
X6410300D01*
G01X6417800D02*
X6422800Y4571800D01*
X6427000Y4577700D01*
X6428700Y4584700D01*
X6427000Y4591700D01*
X6422800Y4597500D01*
X6415300Y4601000D01*
X6407800Y4599800D01*
X6400300Y4595200D01*
G01X6384300Y4454200D02*
X6379300Y4457700D01*
X6373500Y4460000D01*
X6366800D01*
X6359300Y4456500D01*
X6353500Y4450700D01*
X6349300Y4443700D01*
X6346000Y4432000D01*
X6345200Y4421500D01*
X6346800Y4411000D01*
X6349300Y4404000D01*
X6354300Y4397000D01*
X6360200Y4392300D01*
X6366000Y4390000D01*
X6371800D01*
X6377700Y4392300D01*
X6382700Y4395800D01*
X6386800Y4400500D01*
G01X6430000Y4390000D02*
Y4460000D01*
X6399200Y4409800D01*
X6440800D01*
G01X6385300Y4796000D02*
Y4726000D01*
X6418700D01*
G01X6456000D02*
Y4796000D01*
X6446000Y4782000D01*
G01Y4726000D02*
X6466000D01*
G01X6739000Y3323000D02*
Y3354500D01*
X6722300Y3393000D01*
G01X6755700D02*
X6739000Y3354500D01*
G01X6777200Y3381300D02*
X6782200Y3388300D01*
X6788000Y3391800D01*
X6794700Y3393000D01*
X6803000Y3390700D01*
X6808800Y3384800D01*
X6810500Y3377800D01*
X6809700Y3370800D01*
X6806300Y3365000D01*
X6789700Y3353300D01*
X6782200Y3345200D01*
X6777200Y3333500D01*
X6775500Y3323000D01*
X6810500D01*
G01X6707200Y3745700D02*
X6710700Y3750700D01*
X6713000Y3756500D01*
Y3763200D01*
X6709500Y3770700D01*
X6703700Y3776500D01*
X6696700Y3780700D01*
X6685000Y3784000D01*
X6674500Y3784800D01*
X6664000Y3783200D01*
X6657000Y3780700D01*
X6650000Y3775700D01*
X6645300Y3769800D01*
X6643000Y3764000D01*
Y3758200D01*
X6645300Y3752300D01*
X6648800Y3747300D01*
X6653500Y3743200D01*
G01X6701300Y3725800D02*
X6708300Y3720800D01*
X6711800Y3715000D01*
X6713000Y3708300D01*
X6710700Y3700000D01*
X6704800Y3694200D01*
X6697800Y3692500D01*
X6690800Y3693300D01*
X6685000Y3696700D01*
X6673300Y3713300D01*
X6665200Y3720800D01*
X6653500Y3725800D01*
X6643000Y3727500D01*
Y3692500D01*
G01Y3656000D02*
X6644200Y3650200D01*
X6647700Y3643500D01*
X6653500Y3639300D01*
X6661700Y3637700D01*
X6669800Y3639300D01*
X6676800Y3644300D01*
X6680300Y3651800D01*
Y3660200D01*
X6682700Y3665200D01*
X6688500Y3669300D01*
X6696700Y3671000D01*
X6704800Y3668500D01*
X6710700Y3662700D01*
X6713000Y3656000D01*
X6710700Y3649300D01*
X6704800Y3643500D01*
X6696700Y3641000D01*
X6688500Y3642700D01*
X6682700Y3646800D01*
X6680300Y3651800D01*
Y3660200D01*
X6676800Y3667700D01*
X6669800Y3672700D01*
X6661700Y3674300D01*
X6653500Y3672700D01*
X6647700Y3668500D01*
X6644200Y3661800D01*
X6643000Y3656000D01*
G01X6848200Y3748700D02*
X6851700Y3753700D01*
X6854000Y3759500D01*
Y3766200D01*
X6850500Y3773700D01*
X6844700Y3779500D01*
X6837700Y3783700D01*
X6826000Y3787000D01*
X6815500Y3787800D01*
X6805000Y3786200D01*
X6798000Y3783700D01*
X6791000Y3778700D01*
X6786300Y3772800D01*
X6784000Y3767000D01*
Y3761200D01*
X6786300Y3755300D01*
X6789800Y3750300D01*
X6794500Y3746200D01*
G01X6842300Y3728800D02*
X6849300Y3723800D01*
X6852800Y3718000D01*
X6854000Y3711300D01*
X6851700Y3703000D01*
X6845800Y3697200D01*
X6838800Y3695500D01*
X6831800Y3696300D01*
X6826000Y3699700D01*
X6814300Y3716300D01*
X6806200Y3723800D01*
X6794500Y3728800D01*
X6784000Y3730500D01*
Y3695500D01*
G01X6792200Y3673200D02*
X6786300Y3667300D01*
X6784000Y3660700D01*
X6786300Y3654000D01*
X6793300Y3648200D01*
X6803800Y3644000D01*
X6814300Y3642300D01*
X6827200D01*
X6837700Y3644000D01*
X6847000Y3648200D01*
X6851700Y3653200D01*
X6854000Y3659000D01*
X6851700Y3665700D01*
X6847000Y3670700D01*
X6840000Y3674000D01*
X6830700Y3675700D01*
X6822500Y3674000D01*
X6814300Y3669800D01*
X6809700Y3664800D01*
X6808500Y3659000D01*
X6810800Y3652300D01*
X6816700Y3647300D01*
X6827200Y3642300D01*
G01X6807200Y4025700D02*
X6810700Y4030700D01*
X6813000Y4036500D01*
Y4043200D01*
X6809500Y4050700D01*
X6803700Y4056500D01*
X6796700Y4060700D01*
X6785000Y4064000D01*
X6774500Y4064800D01*
X6764000Y4063200D01*
X6757000Y4060700D01*
X6750000Y4055700D01*
X6745300Y4049800D01*
X6743000Y4044000D01*
Y4038200D01*
X6745300Y4032300D01*
X6748800Y4027300D01*
X6753500Y4023200D01*
G01X6751200Y4004200D02*
X6745300Y3998300D01*
X6743000Y3991700D01*
X6745300Y3985000D01*
X6752300Y3979200D01*
X6762800Y3975000D01*
X6773300Y3973300D01*
X6786200D01*
X6796700Y3975000D01*
X6806000Y3979200D01*
X6810700Y3984200D01*
X6813000Y3990000D01*
X6810700Y3996700D01*
X6806000Y4001700D01*
X6799000Y4005000D01*
X6789700Y4006700D01*
X6781500Y4005000D01*
X6773300Y4000800D01*
X6768700Y3995800D01*
X6767500Y3990000D01*
X6769800Y3983300D01*
X6775700Y3978300D01*
X6786200Y3973300D01*
G01X6755300Y4644200D02*
X6750300Y4647700D01*
X6744500Y4650000D01*
X6737800D01*
X6730300Y4646500D01*
X6724500Y4640700D01*
X6720300Y4633700D01*
X6717000Y4622000D01*
X6716200Y4611500D01*
X6717800Y4601000D01*
X6720300Y4594000D01*
X6725300Y4587000D01*
X6731200Y4582300D01*
X6737000Y4580000D01*
X6742800D01*
X6748700Y4582300D01*
X6753700Y4585800D01*
X6757800Y4590500D01*
G01X6775200Y4609200D02*
X6781000Y4617300D01*
X6786000Y4622000D01*
X6792700Y4624300D01*
X6798500Y4622000D01*
X6802700Y4617300D01*
X6806000Y4610300D01*
X6806800Y4602200D01*
X6806000Y4595200D01*
X6802700Y4588200D01*
X6797700Y4582300D01*
X6791800Y4580000D01*
X6785200Y4582300D01*
X6779300Y4589300D01*
X6776000Y4599800D01*
X6775200Y4611500D01*
X6776800Y4626700D01*
X6779300Y4634800D01*
X6783500Y4643000D01*
X6789300Y4648800D01*
X6795200Y4650000D01*
X6801000Y4647700D01*
X6805200Y4641800D01*
G01X6781200Y4433700D02*
X6784700Y4438700D01*
X6787000Y4444500D01*
Y4451200D01*
X6783500Y4458700D01*
X6777700Y4464500D01*
X6770700Y4468700D01*
X6759000Y4472000D01*
X6748500Y4472800D01*
X6738000Y4471200D01*
X6731000Y4468700D01*
X6724000Y4463700D01*
X6719300Y4457800D01*
X6717000Y4452000D01*
Y4446200D01*
X6719300Y4440300D01*
X6722800Y4435300D01*
X6727500Y4431200D01*
G01X6775300Y4413800D02*
X6782300Y4408800D01*
X6785800Y4403000D01*
X6787000Y4396300D01*
X6784700Y4388000D01*
X6778800Y4382200D01*
X6771800Y4380500D01*
X6764800Y4381300D01*
X6759000Y4384700D01*
X6747300Y4401300D01*
X6739200Y4408800D01*
X6727500Y4413800D01*
X6717000Y4415500D01*
Y4380500D01*
G01X6746200Y4359800D02*
X6754300Y4354000D01*
X6759000Y4349000D01*
X6761300Y4342300D01*
X6759000Y4336500D01*
X6754300Y4332300D01*
X6747300Y4329000D01*
X6739200Y4328200D01*
X6732200Y4329000D01*
X6725200Y4332300D01*
X6719300Y4337300D01*
X6717000Y4343200D01*
X6719300Y4349800D01*
X6726300Y4355700D01*
X6736800Y4359000D01*
X6748500Y4359800D01*
X6763700Y4358200D01*
X6771800Y4355700D01*
X6780000Y4351500D01*
X6785800Y4345700D01*
X6787000Y4339800D01*
X6784700Y4334000D01*
X6778800Y4329800D01*
G01X6630200Y4433700D02*
X6633700Y4438700D01*
X6636000Y4444500D01*
Y4451200D01*
X6632500Y4458700D01*
X6626700Y4464500D01*
X6619700Y4468700D01*
X6608000Y4472000D01*
X6597500Y4472800D01*
X6587000Y4471200D01*
X6580000Y4468700D01*
X6573000Y4463700D01*
X6568300Y4457800D01*
X6566000Y4452000D01*
Y4446200D01*
X6568300Y4440300D01*
X6571800Y4435300D01*
X6576500Y4431200D01*
G01X6624300Y4413800D02*
X6631300Y4408800D01*
X6634800Y4403000D01*
X6636000Y4396300D01*
X6633700Y4388000D01*
X6627800Y4382200D01*
X6620800Y4380500D01*
X6613800Y4381300D01*
X6608000Y4384700D01*
X6596300Y4401300D01*
X6588200Y4408800D01*
X6576500Y4413800D01*
X6566000Y4415500D01*
Y4380500D01*
G01Y4345700D02*
X6581200Y4344000D01*
X6594000Y4341500D01*
X6605700Y4338200D01*
X6618500Y4334000D01*
X6636000Y4327300D01*
Y4360700D01*
G01X6863000Y4769000D02*
Y4800500D01*
X6846300Y4839000D01*
G01X6879700D02*
X6863000Y4800500D01*
G01X6917000Y4769000D02*
Y4839000D01*
X6907000Y4825000D01*
G01Y4769000D02*
X6927000D01*
G01X6702000Y4816000D02*
Y4887000D01*
X7074000D01*
Y4684000D01*
X6702000D01*
Y4816000D01*
G01X7060200Y3387700D02*
X7063700Y3392700D01*
X7066000Y3398500D01*
Y3405200D01*
X7062500Y3412700D01*
X7056700Y3418500D01*
X7049700Y3422700D01*
X7038000Y3426000D01*
X7027500Y3426800D01*
X7017000Y3425200D01*
X7010000Y3422700D01*
X7003000Y3417700D01*
X6998300Y3411800D01*
X6996000Y3406000D01*
Y3400200D01*
X6998300Y3394300D01*
X7001800Y3389300D01*
X7006500Y3385200D01*
G01X6996000Y3352000D02*
X7066000D01*
X7052000Y3362000D01*
G01X6996000D02*
Y3342000D01*
G01X7025200Y3313800D02*
X7033300Y3308000D01*
X7038000Y3303000D01*
X7040300Y3296300D01*
X7038000Y3290500D01*
X7033300Y3286300D01*
X7026300Y3283000D01*
X7018200Y3282200D01*
X7011200Y3283000D01*
X7004200Y3286300D01*
X6998300Y3291300D01*
X6996000Y3297200D01*
X6998300Y3303800D01*
X7005300Y3309700D01*
X7015800Y3313000D01*
X7027500Y3313800D01*
X7042700Y3312200D01*
X7050800Y3309700D01*
X7059000Y3305500D01*
X7064800Y3299700D01*
X7066000Y3293800D01*
X7063700Y3288000D01*
X7057800Y3283800D01*
G01X6980300Y3784200D02*
X6975300Y3787700D01*
X6969500Y3790000D01*
X6962800D01*
X6955300Y3786500D01*
X6949500Y3780700D01*
X6945300Y3773700D01*
X6942000Y3762000D01*
X6941200Y3751500D01*
X6942800Y3741000D01*
X6945300Y3734000D01*
X6950300Y3727000D01*
X6956200Y3722300D01*
X6962000Y3720000D01*
X6967800D01*
X6973700Y3722300D01*
X6978700Y3725800D01*
X6982800Y3730500D01*
G01X7016000Y3720000D02*
Y3790000D01*
X7006000Y3776000D01*
G01Y3720000D02*
X7026000D01*
G01X7070000D02*
Y3790000D01*
X7060000Y3776000D01*
G01Y3720000D02*
X7080000D01*
G01X6950300Y3964000D02*
Y3894000D01*
X6983700D01*
G01X7002700Y3904500D02*
X7007700Y3898700D01*
X7013500Y3895200D01*
X7021000Y3894000D01*
X7028500Y3896300D01*
X7034300Y3901000D01*
X7038500Y3909200D01*
X7039300Y3918500D01*
X7037700Y3927800D01*
X7033500Y3933700D01*
X7027700Y3938300D01*
X7021800Y3939500D01*
X7016000Y3938300D01*
X7008500Y3933700D01*
X7011000Y3964000D01*
X7033500D01*
G01X6970300Y4097200D02*
X6965300Y4100700D01*
X6959500Y4103000D01*
X6952800D01*
X6945300Y4099500D01*
X6939500Y4093700D01*
X6935300Y4086700D01*
X6932000Y4075000D01*
X6931200Y4064500D01*
X6932800Y4054000D01*
X6935300Y4047000D01*
X6940300Y4040000D01*
X6946200Y4035300D01*
X6952000Y4033000D01*
X6957800D01*
X6963700Y4035300D01*
X6968700Y4038800D01*
X6972800Y4043500D01*
G01X7006000Y4033000D02*
X7011800Y4034200D01*
X7018500Y4037700D01*
X7022700Y4043500D01*
X7024300Y4051700D01*
X7022700Y4059800D01*
X7017700Y4066800D01*
X7010200Y4070300D01*
X7001800D01*
X6996800Y4072700D01*
X6992700Y4078500D01*
X6991000Y4086700D01*
X6993500Y4094800D01*
X6999300Y4100700D01*
X7006000Y4103000D01*
X7012700Y4100700D01*
X7018500Y4094800D01*
X7021000Y4086700D01*
X7019300Y4078500D01*
X7015200Y4072700D01*
X7010200Y4070300D01*
X7001800D01*
X6994300Y4066800D01*
X6989300Y4059800D01*
X6987700Y4051700D01*
X6989300Y4043500D01*
X6993500Y4037700D01*
X7000200Y4034200D01*
X7006000Y4033000D01*
G01X7171200Y4280700D02*
X7174700Y4285700D01*
X7177000Y4291500D01*
Y4298200D01*
X7173500Y4305700D01*
X7167700Y4311500D01*
X7160700Y4315700D01*
X7149000Y4319000D01*
X7138500Y4319800D01*
X7128000Y4318200D01*
X7121000Y4315700D01*
X7114000Y4310700D01*
X7109300Y4304800D01*
X7107000Y4299000D01*
Y4293200D01*
X7109300Y4287300D01*
X7112800Y4282300D01*
X7117500Y4278200D01*
G01Y4263300D02*
X7111700Y4258300D01*
X7108200Y4252500D01*
X7107000Y4245000D01*
X7109300Y4237500D01*
X7114000Y4231700D01*
X7122200Y4227500D01*
X7131500Y4226700D01*
X7140800Y4228300D01*
X7146700Y4232500D01*
X7151300Y4238300D01*
X7152500Y4244200D01*
X7151300Y4250000D01*
X7146700Y4257500D01*
X7177000Y4255000D01*
Y4232500D01*
G01X7181300Y4038000D02*
Y3968000D01*
X7214700D01*
G01X7233700Y3982000D02*
X7238700Y3973800D01*
X7245300Y3969200D01*
X7252800Y3968000D01*
X7259500Y3969200D01*
X7266200Y3975000D01*
X7270300Y3982000D01*
X7271200Y3989000D01*
X7269500Y3997200D01*
X7263700Y4003000D01*
X7257800Y4005300D01*
X7250300D01*
G01X7257800D02*
X7262800Y4008800D01*
X7267000Y4014700D01*
X7268700Y4021700D01*
X7267000Y4028700D01*
X7262800Y4034500D01*
X7255300Y4038000D01*
X7247800Y4036800D01*
X7240300Y4032200D01*
G01X7031000Y4317700D02*
X6961000D01*
Y4284300D01*
G01X7019300Y4262800D02*
X7026300Y4257800D01*
X7029800Y4252000D01*
X7031000Y4245300D01*
X7028700Y4237000D01*
X7022800Y4231200D01*
X7015800Y4229500D01*
X7008800Y4230300D01*
X7003000Y4233700D01*
X6991300Y4250300D01*
X6983200Y4257800D01*
X6971500Y4262800D01*
X6961000Y4264500D01*
Y4229500D01*
G01X7009300Y4631200D02*
X7004300Y4634700D01*
X6998500Y4637000D01*
X6991800D01*
X6984300Y4633500D01*
X6978500Y4627700D01*
X6974300Y4620700D01*
X6971000Y4609000D01*
X6970200Y4598500D01*
X6971800Y4588000D01*
X6974300Y4581000D01*
X6979300Y4574000D01*
X6985200Y4569300D01*
X6991000Y4567000D01*
X6996800D01*
X7002700Y4569300D01*
X7007700Y4572800D01*
X7011800Y4577500D01*
G01X7043300Y4567000D02*
X7045000Y4582200D01*
X7047500Y4595000D01*
X7050800Y4606700D01*
X7055000Y4619500D01*
X7061700Y4637000D01*
X7028300D01*
G01X7565200Y3839700D02*
X7568700Y3844700D01*
X7571000Y3850500D01*
Y3857200D01*
X7567500Y3864700D01*
X7561700Y3870500D01*
X7554700Y3874700D01*
X7543000Y3878000D01*
X7532500Y3878800D01*
X7522000Y3877200D01*
X7515000Y3874700D01*
X7508000Y3869700D01*
X7503300Y3863800D01*
X7501000Y3858000D01*
Y3852200D01*
X7503300Y3846300D01*
X7506800Y3841300D01*
X7511500Y3837200D01*
G01X7501000Y3804000D02*
X7571000D01*
X7557000Y3814000D01*
G01X7501000D02*
Y3794000D01*
G01X7515000Y3768300D02*
X7506800Y3763300D01*
X7502200Y3756700D01*
X7501000Y3749200D01*
X7502200Y3742500D01*
X7508000Y3735800D01*
X7515000Y3731700D01*
X7522000Y3730800D01*
X7530200Y3732500D01*
X7536000Y3738300D01*
X7538300Y3744200D01*
Y3751700D01*
G01Y3744200D02*
X7541800Y3739200D01*
X7547700Y3735000D01*
X7554700Y3733300D01*
X7561700Y3735000D01*
X7567500Y3739200D01*
X7571000Y3746700D01*
X7569800Y3754200D01*
X7565200Y3761700D01*
G01X7317200Y3849700D02*
X7320700Y3854700D01*
X7323000Y3860500D01*
Y3867200D01*
X7319500Y3874700D01*
X7313700Y3880500D01*
X7306700Y3884700D01*
X7295000Y3888000D01*
X7284500Y3888800D01*
X7274000Y3887200D01*
X7267000Y3884700D01*
X7260000Y3879700D01*
X7255300Y3873800D01*
X7253000Y3868000D01*
Y3862200D01*
X7255300Y3856300D01*
X7258800Y3851300D01*
X7263500Y3847200D01*
G01X7253000Y3814000D02*
X7323000D01*
X7309000Y3824000D01*
G01X7253000D02*
Y3804000D01*
G01X7311300Y3775800D02*
X7318300Y3770800D01*
X7321800Y3765000D01*
X7323000Y3758300D01*
X7320700Y3750000D01*
X7314800Y3744200D01*
X7307800Y3742500D01*
X7300800Y3743300D01*
X7295000Y3746700D01*
X7283300Y3763300D01*
X7275200Y3770800D01*
X7263500Y3775800D01*
X7253000Y3777500D01*
Y3742500D01*
G01X7452300Y4034200D02*
X7447300Y4037700D01*
X7441500Y4040000D01*
X7434800D01*
X7427300Y4036500D01*
X7421500Y4030700D01*
X7417300Y4023700D01*
X7414000Y4012000D01*
X7413200Y4001500D01*
X7414800Y3991000D01*
X7417300Y3984000D01*
X7422300Y3977000D01*
X7428200Y3972300D01*
X7434000Y3970000D01*
X7439800D01*
X7445700Y3972300D01*
X7450700Y3975800D01*
X7454800Y3980500D01*
G01X7488000Y3970000D02*
Y4040000D01*
X7478000Y4026000D01*
G01Y3970000D02*
X7498000D01*
G01X7542000Y4040000D02*
X7535300Y4037700D01*
X7530300Y4031800D01*
X7527000Y4024800D01*
X7524500Y4015500D01*
X7523700Y4005000D01*
X7524500Y3994500D01*
X7527000Y3985200D01*
X7530300Y3978200D01*
X7535300Y3972300D01*
X7542000Y3970000D01*
X7548700Y3972300D01*
X7553700Y3978200D01*
X7557000Y3985200D01*
X7559500Y3994500D01*
X7560300Y4005000D01*
X7559500Y4015500D01*
X7557000Y4024800D01*
X7553700Y4031800D01*
X7548700Y4037700D01*
X7542000Y4040000D01*
G01X7317200Y4231700D02*
X7320700Y4236700D01*
X7323000Y4242500D01*
Y4249200D01*
X7319500Y4256700D01*
X7313700Y4262500D01*
X7306700Y4266700D01*
X7295000Y4270000D01*
X7284500Y4270800D01*
X7274000Y4269200D01*
X7267000Y4266700D01*
X7260000Y4261700D01*
X7255300Y4255800D01*
X7253000Y4250000D01*
Y4244200D01*
X7255300Y4238300D01*
X7258800Y4233300D01*
X7263500Y4229200D01*
G01X7253000Y4186000D02*
X7323000D01*
X7272800Y4216800D01*
Y4175200D01*
G01X7311300Y4157800D02*
X7318300Y4152800D01*
X7321800Y4147000D01*
X7323000Y4140300D01*
X7320700Y4132000D01*
X7314800Y4126200D01*
X7307800Y4124500D01*
X7300800Y4125300D01*
X7295000Y4128700D01*
X7283300Y4145300D01*
X7275200Y4152800D01*
X7263500Y4157800D01*
X7253000Y4159500D01*
Y4124500D01*
G01X7515000Y4632300D02*
X7464800D01*
X7454300Y4629000D01*
X7447300Y4622300D01*
X7445000Y4614000D01*
X7447300Y4605700D01*
X7454300Y4599000D01*
X7464800Y4595700D01*
X7515000D01*
G01X7445000Y4561700D02*
X7460200Y4560000D01*
X7473000Y4557500D01*
X7484700Y4554200D01*
X7497500Y4550000D01*
X7515000Y4543300D01*
Y4576700D01*
G01X7572000Y4592000D02*
G03I-100000J0D01*
G01X7342000Y4722000D02*
Y4462000D01*
X7602000D01*
Y4722000D01*
X7342000D01*
G01X7821200Y3834700D02*
X7824700Y3839700D01*
X7827000Y3845500D01*
Y3852200D01*
X7823500Y3859700D01*
X7817700Y3865500D01*
X7810700Y3869700D01*
X7799000Y3873000D01*
X7788500Y3873800D01*
X7778000Y3872200D01*
X7771000Y3869700D01*
X7764000Y3864700D01*
X7759300Y3858800D01*
X7757000Y3853000D01*
Y3847200D01*
X7759300Y3841300D01*
X7762800Y3836300D01*
X7767500Y3832200D01*
G01X7757000Y3799000D02*
X7827000D01*
X7813000Y3809000D01*
G01X7757000D02*
Y3789000D01*
G01Y3735000D02*
X7827000D01*
X7776800Y3765800D01*
Y3724200D01*
G01X7688300Y4030000D02*
Y3960000D01*
X7721700D01*
G01X7769000D02*
Y4030000D01*
X7738200Y3979800D01*
X7779800D01*
G01X8093000Y3850800D02*
X8163000Y3830000D01*
X8093000Y3809200D01*
G01X8117500Y3816700D02*
Y3843300D01*
G01X8093000Y3795200D02*
X8163000D01*
X8093000Y3756800D01*
X8163000D01*
G01Y3722000D02*
X8093000D01*
G01X8163000Y3741200D02*
Y3702800D01*
G01X8093000Y3668000D02*
X8163000D01*
X8149000Y3678000D01*
G01X8093000D02*
Y3658000D01*
G54D12*
G01X11404900Y5542000D02*
Y5702000D01*
X11496100Y5542000D01*
Y5702000D01*
G01X11541900Y5542000D02*
X11591500Y5702000D01*
X11641100Y5542000D01*
G01X11623200Y5598000D02*
X11559800D01*
G01X11680900Y5542000D02*
Y5702000D01*
X11732500Y5568700D01*
X11784100Y5702000D01*
Y5542000D01*
G01X11913200D02*
X11833800D01*
Y5702000D01*
X11913200D01*
G01X11881400Y5624700D02*
X11833800D01*
G01X11955000Y5488700D02*
X12074000D01*
G01X12105900Y5542000D02*
X12155500Y5702000D01*
X12205100Y5542000D01*
G01X12187200Y5598000D02*
X12123800D01*
G01X12254800Y5563300D02*
X12270700Y5550000D01*
X12288600Y5542000D01*
X12304400D01*
X12320300Y5550000D01*
X12332200Y5563300D01*
X12338200Y5582000D01*
X12334200Y5600700D01*
X12324300Y5616700D01*
X12306400Y5627300D01*
X12282600Y5632700D01*
X12268700Y5643300D01*
X12262800Y5662000D01*
X12266800Y5680700D01*
X12276700Y5694000D01*
X12290500Y5702000D01*
X12304400D01*
X12318300Y5696700D01*
X12330200Y5683300D01*
G01X12395800Y5563300D02*
X12411700Y5550000D01*
X12429600Y5542000D01*
X12445400D01*
X12461300Y5550000D01*
X12473200Y5563300D01*
X12479200Y5582000D01*
X12475200Y5600700D01*
X12465300Y5616700D01*
X12447400Y5627300D01*
X12423600Y5632700D01*
X12409700Y5643300D01*
X12403800Y5662000D01*
X12407800Y5680700D01*
X12417700Y5694000D01*
X12431500Y5702000D01*
X12445400D01*
X12459300Y5696700D01*
X12471200Y5683300D01*
G01X12618200Y5542000D02*
X12538800D01*
Y5702000D01*
X12618200D01*
G01X12586400Y5624700D02*
X12538800D01*
G01X12667900Y5542000D02*
Y5702000D01*
X12719500Y5568700D01*
X12771100Y5702000D01*
Y5542000D01*
G01X12876400Y5627300D02*
X12884300Y5635300D01*
X12890200Y5648700D01*
X12894200Y5667300D01*
X12890200Y5683300D01*
X12882300Y5694000D01*
X12868400Y5702000D01*
X12814900D01*
Y5542000D01*
X12880300D01*
X12894200Y5552700D01*
X12902200Y5568700D01*
X12906100Y5587300D01*
X12902200Y5606000D01*
X12890200Y5622000D01*
X12876400Y5627300D01*
X12814900D01*
G01X12961800Y5702000D02*
Y5542000D01*
X13041200D01*
G01X13142500D02*
Y5614000D01*
X13102800Y5702000D01*
G01X13182200D02*
X13142500Y5614000D01*
G01X13283500Y5702000D02*
Y5542000D01*
G01X13237900Y5702000D02*
X13329100D01*
G01X13424500Y5542000D02*
X13408600Y5544700D01*
X13394800Y5555300D01*
X13382800Y5571300D01*
X13374900Y5590000D01*
X13370900Y5611300D01*
Y5632700D01*
X13374900Y5654000D01*
X13382800Y5672700D01*
X13394800Y5688700D01*
X13408600Y5699300D01*
X13424500Y5702000D01*
X13440400Y5699300D01*
X13454200Y5688700D01*
X13466200Y5672700D01*
X13474100Y5654000D01*
X13478100Y5632700D01*
Y5611300D01*
X13474100Y5590000D01*
X13466200Y5571300D01*
X13454200Y5555300D01*
X13440400Y5544700D01*
X13424500Y5542000D01*
G01X13525800D02*
Y5702000D01*
X13573400D01*
X13589300Y5694000D01*
X13601200Y5675300D01*
X13605200Y5654000D01*
X13601200Y5632700D01*
X13591300Y5616700D01*
X13573400Y5608700D01*
X13525800D01*
G54D13*
G01X6580000Y3459000D02*
X6940000D01*
Y3209000D01*
X6620000D01*
X6580000Y3249000D01*
Y3459000D01*
G54D14*
G01X3822300Y4879300D02*
X3835000Y4892000D01*
G01D02*
Y5146000D01*
G01X5390800Y4892000D02*
X3835000D01*
G01Y5146000D02*
X5390800D01*
G01D02*
Y4892000D01*
G54D15*
G01X4375000Y3108000D02*
X4144000D01*
Y2986000D01*
X4375000D01*
Y3108000D01*
G01X4071000Y3742000D02*
X4302000D01*
Y3864000D01*
X4071000D01*
Y3742000D01*
G01X4819000Y3189000D02*
X4588000D01*
Y3067000D01*
X4819000D01*
Y3189000D01*
G01X4792000Y3049000D02*
X4561000D01*
Y2927000D01*
X4792000D01*
Y3049000D01*
G01X4228000Y3486000D02*
X4459000D01*
Y3608000D01*
X4228000D01*
Y3486000D01*
G01X4819000Y3327200D02*
X4588000D01*
Y3205200D01*
X4819000D01*
Y3327200D01*
G01X4588000Y3343000D02*
X4819000D01*
Y3465000D01*
X4588000D01*
Y3343000D01*
G01X4817000Y3605000D02*
X4586000D01*
Y3483000D01*
X4817000D01*
Y3605000D01*
G01X4549000Y3932000D02*
Y3701000D01*
X4671000D01*
Y3932000D01*
X4549000D01*
G01X4407000D02*
Y3701000D01*
X4529000D01*
Y3932000D01*
X4407000D01*
G01X4608000Y4304000D02*
Y4535000D01*
X4486000D01*
Y4304000D01*
X4608000D01*
G01X4345000Y4537000D02*
Y4306000D01*
X4467000D01*
Y4537000D01*
X4345000D01*
G01X4685000Y4721000D02*
X4454000D01*
Y4599000D01*
X4685000D01*
Y4721000D01*
G01X5081000Y3040000D02*
X4832000D01*
Y3007000D01*
X4805000Y2986000D01*
X4832000Y2975000D01*
Y2938000D01*
X5081000D01*
Y3040000D01*
G01X5073000Y3326200D02*
X4842000D01*
Y3204200D01*
X5073000D01*
Y3326200D01*
G01X5072000Y3464000D02*
X4841000D01*
Y3342000D01*
X5072000D01*
Y3464000D01*
G01X5071000Y3604000D02*
X4840000D01*
Y3482000D01*
X5071000D01*
Y3604000D01*
G01X4707000Y3637000D02*
X5459000D01*
Y4388000D01*
X4783000D01*
X4707000Y4313000D01*
Y3635000D01*
G01X4713000Y4461000D02*
X4944000D01*
Y4583000D01*
X4713000D01*
Y4461000D01*
G01Y4601000D02*
X4944000D01*
Y4723000D01*
X4713000D01*
Y4601000D01*
G01X5193000Y4583000D02*
X4962000D01*
Y4461000D01*
X5193000D01*
Y4583000D01*
G01X4963000Y4602000D02*
X5194000D01*
Y4724000D01*
X4963000D01*
Y4602000D01*
G01X5217000Y3069000D02*
X5448000D01*
Y3191000D01*
X5217000D01*
Y3069000D01*
G01X5140000Y2938000D02*
X5389000D01*
Y2971000D01*
X5416000Y2992000D01*
X5389000Y3003000D01*
Y3040000D01*
X5140000D01*
Y2938000D01*
G01X5449000Y3607000D02*
X5218000D01*
Y3485000D01*
X5449000D01*
Y3607000D01*
G01X5217000Y3345000D02*
X5448000D01*
Y3467000D01*
X5217000D01*
Y3345000D01*
G01X5447000Y3329000D02*
X5216000D01*
Y3207000D01*
X5447000D01*
Y3329000D01*
G01X5232000Y4459000D02*
X5463000D01*
Y4581000D01*
X5232000D01*
Y4459000D01*
G01X5516000Y3668000D02*
Y3437000D01*
X5638000D01*
Y3668000D01*
X5516000D01*
G01X5891000Y3356000D02*
X5660000D01*
Y3234000D01*
X5891000D01*
Y3356000D01*
G01X5718000Y3972000D02*
Y3741000D01*
X5840000D01*
Y3972000D01*
X5718000D01*
G01X5488000Y4416000D02*
Y4185000D01*
X5610000D01*
Y4416000D01*
X5488000D01*
G01X5627000Y4415000D02*
Y4184000D01*
X5749000D01*
Y4415000D01*
X5627000D01*
G01X5481000Y4459000D02*
X5712000D01*
Y4581000D01*
X5481000D01*
Y4459000D01*
G01X5712000Y4723000D02*
X5481000D01*
Y4601000D01*
X5712000D01*
Y4723000D01*
G01X6078000Y3413000D02*
X6309000D01*
Y3535000D01*
X6078000D01*
Y3413000D01*
G01X6308000Y3674000D02*
X6077000D01*
Y3552000D01*
X6308000D01*
Y3674000D01*
G01X5858000Y3972000D02*
Y3741000D01*
X5980000D01*
Y3972000D01*
X5858000D01*
G01X6261000Y4486000D02*
X6030000D01*
Y4364000D01*
X6261000D01*
Y4486000D01*
G01X6262000Y4626000D02*
X6031000D01*
Y4504000D01*
X6262000D01*
Y4626000D01*
G01X6435000Y3472000D02*
Y3241000D01*
X6557000D01*
Y3472000D01*
X6435000D01*
G01X6512000Y4626000D02*
X6281000D01*
Y4504000D01*
X6512000D01*
Y4626000D01*
G01X6511000Y4486000D02*
X6280000D01*
Y4364000D01*
X6511000D01*
Y4486000D01*
G01X6613000Y3833000D02*
Y3602000D01*
X6735000D01*
Y3833000D01*
X6613000D01*
G01X6754000Y3832000D02*
Y3601000D01*
X6876000D01*
Y3832000D01*
X6754000D01*
G01X6841000Y3885000D02*
Y4116000D01*
X6719000D01*
Y3885000D01*
X6841000D01*
G01X6654000Y4541000D02*
X6885000D01*
Y4663000D01*
X6654000D01*
Y4541000D01*
G01X6811000Y4287000D02*
Y4518000D01*
X6689000D01*
Y4287000D01*
X6811000D01*
G01X6669000Y4286000D02*
Y4517000D01*
X6547000D01*
Y4286000D01*
X6669000D01*
G01X7088000Y3242000D02*
Y3473000D01*
X6966000D01*
Y3242000D01*
X7088000D01*
G01X7127000Y3817000D02*
X6896000D01*
Y3695000D01*
X7127000D01*
Y3817000D01*
G01X7096000Y3990000D02*
X6865000D01*
Y3868000D01*
X7096000D01*
Y3990000D01*
G01Y4130000D02*
X6865000D01*
Y4008000D01*
X7096000D01*
Y4130000D01*
G01X7073000Y4385000D02*
Y4154000D01*
X7195000D01*
Y4385000D01*
X7073000D01*
G01X7346000Y4063000D02*
X7115000D01*
Y3941000D01*
X7346000D01*
Y4063000D01*
G01X6930000Y4385000D02*
Y4154000D01*
X7052000D01*
Y4385000D01*
X6930000D01*
G01X7131000Y4665000D02*
X6900000D01*
Y4543000D01*
X7131000D01*
Y4665000D01*
G01X7599000Y3687000D02*
Y3918000D01*
X7477000D01*
Y3687000D01*
X7599000D01*
G01X7347000Y3688000D02*
Y3919000D01*
X7225000D01*
Y3688000D01*
X7347000D01*
G01X7597000Y4062000D02*
X7366000D01*
Y3940000D01*
X7597000D01*
Y4062000D01*
G01X7348000Y4084000D02*
Y4315000D01*
X7226000D01*
Y4084000D01*
X7348000D01*
G01X7853000Y3689000D02*
Y3920000D01*
X7731000D01*
Y3689000D01*
X7853000D01*
G01X7852000Y4060000D02*
X7621000D01*
Y3938000D01*
X7852000D01*
Y4060000D01*
G54D16*
G01X3792000Y4616000D02*
X1912000D01*
Y3416000D01*
X3792000D01*
Y4616000D01*
G01D02*
X1912000D01*
Y3416000D01*
X3792000D01*
Y4616000D01*
G01X3377000Y4596000D02*
Y3436000D01*
G01Y4616000D02*
Y3421000D01*
G01X6005000Y2955000D02*
Y3115000D01*
X5845000D01*
Y2955000D01*
X6005000D01*
G01D02*
Y3115000D01*
X5845000D01*
Y2955000D01*
X6005000D01*
G01X5844000Y5062000D02*
Y4902000D01*
X6004000D01*
Y5062000D01*
X5844000D01*
G01D02*
Y4902000D01*
X6004000D01*
Y5062000D01*
X5844000D01*
G01X8211000Y4050000D02*
X8027000D01*
Y3439000D01*
X8247000D01*
Y4050000D01*
X8211000D01*
G54D17*
G01X6612600Y4659400D02*
X6231600D01*
G01D02*
Y4862600D01*
G01D02*
X6612600D01*
G01D02*
Y4659400D01*
G54D18*
G01X6180000Y2900000D02*
X5660000D01*
Y3180000D01*
X6190000D01*
Y2900000D01*
X6180000D01*
G01D02*
X5660000D01*
Y3180000D01*
X6190000D01*
Y2900000D01*
X6180000D01*
G01X5669000Y5117000D02*
X6189000D01*
Y4837000D01*
X5659000D01*
Y5117000D01*
X5669000D01*
G01D02*
X6189000D01*
Y4837000D01*
X5659000D01*
Y5117000D01*
X5669000D01*
M02*
