M48
INCH,TZ
T01C.007913
T02C.039016
T03C.042992
;LEADER: 12 
;HEADER: 
;CODE  : ASCII 
;FILE  : BLUE_NRG_Dongle-1-2.drl for board #Taaaapy06320.tmp ... layers TOP and BOTTOM
;T01 Holesize 1. = 7.913386 Tolerance = +0.099000/-0.099000 PLATED MILS Quantity = 294
;T02 Holesize 2. = 39.015748 Tolerance = +0.000000/-0.000000 PLATED MILS Quantity = 6
;T03 Holesize 3. = 42.992126 Tolerance = +0.000000/-0.000000 PLATED MILS Quantity = 2
%
G90
T01
X137835Y119685
X145709Y119685
X158346Y116339
X160827Y116024
X170472Y116102
X172244Y114764
X189291Y114843
X201063Y114882
X216260Y119756
X220315Y115394
X228189Y115394
X233268Y119567
X236063Y115394
X243937Y115394
X251811Y115394
X255236Y119213
X259685Y115394
X259685Y119331
X267559Y115394
X267559Y119331
X275433Y115394
X275433Y119331
X283307Y115394
X283307Y119331
X291181Y115394
X291181Y119331
X299055Y115394
X299055Y119331
X306929Y115394
X306929Y119331
X306929Y139016
X306929Y135079
X306929Y131142
X306929Y127205
X306929Y123268
X303189Y138937
X299055Y139016
X299055Y135079
X299055Y131142
X299055Y127205
X299055Y123268
X295118Y138976
X291181Y139016
X291181Y127205
X291181Y123268
X287362Y138976
X286417Y124291
X283425Y138976
X281102Y136811
X281102Y132874
X281102Y128937
X281024Y124291
X269291Y122205
X266142Y131181
X259567Y123150
X253465Y124291
X249803Y138386
X249803Y133622
X249646Y129213
X249528Y124291
X241535Y128150
X237953Y138031
X238043Y134606
X236024Y125630
X231614Y131378
X227402Y138780
X222835Y134213
X220591Y127323
X215551Y128701
X214370Y135000
X213465Y138150
X206299Y131457
X206189Y137024
X198622Y131102
X197205Y136496
X191024Y136850
X190039Y133976
X189921Y126339
X189488Y122244
X177323Y139724
X173189Y130236
X169803Y130236
X165748Y130236
X158465Y139173
X158386Y134961
X145709Y127559
X137835Y135433
X137835Y127559
X137835Y143307
X137835Y151181
X137835Y159055
X159764Y150236
X166260Y145906
X167402Y153346
X173323Y152461
X178740Y146575
X184154Y149094
X189567Y140669
X190984Y148386
X191614Y155039
X198780Y148858
X200276Y155236
X203354Y140138
X205157Y142165
X209055Y148512
X213346Y144606
X215787Y146181
X217874Y153071
X218524Y158583
X221929Y147244
X224764Y147441
X230039Y146732
X232992Y143110
X237953Y145118
X242717Y152953
X242717Y154921
X242717Y156890
X242717Y158858
X244685Y152953
X244685Y154921
X244685Y156890
X244685Y158858
X246654Y152953
X246654Y154921
X246654Y156890
X246654Y158858
X248622Y152953
X248622Y154921
X248622Y156890
X248622Y158858
X250591Y152953
X250591Y154921
X250591Y156890
X250591Y158858
X250748Y144685
X252559Y152953
X252559Y154921
X252559Y156890
X252559Y158858
X265827Y149803
X269291Y151850
X272205Y142528
X275433Y142953
X279291Y140276
X282047Y150236
X282244Y153386
X283307Y142953
X287244Y142953
X291181Y142953
X291220Y145984
X295118Y142953
X299055Y142953
X301614Y145945
X302992Y142953
X306929Y142953
X306969Y178031
X306969Y174094
X306969Y170157
X306969Y166220
X306969Y162283
X303031Y178031
X303031Y170157
X303031Y166220
X299094Y170157
X299094Y166220
X299094Y162283
X295157Y170157
X291220Y170157
X291220Y166220
X290827Y162205
X283780Y173504
X283543Y177283
X282047Y162323
X277835Y175709
X271063Y168071
X268976Y163740
X264055Y168740
X261929Y178504
X261339Y161417
X260492Y163996
X256331Y169055
X252559Y162795
X252559Y160827
X250591Y162795
X250591Y160827
X248622Y162795
X248622Y160827
X246654Y162795
X246654Y160827
X244685Y162795
X244685Y160827
X243504Y171339
X242717Y162795
X242717Y160827
X236339Y176850
X233976Y169449
X232402Y164882
X230827Y162520
X226307Y179370
X221693Y162126
X219354Y175512
X216260Y160079
X209764Y162756
X209134Y167953
X199961Y162835
X190472Y162874
X190354Y167953
X183150Y169882
X172878Y161890
X169331Y171102
X167756Y179094
X165709Y165039
X161457Y168748
X160276Y164291
X159843Y178858
X137835Y174803
X137835Y166929
X137835Y182677
X137835Y190551
X137835Y198425
X145709Y190551
X145709Y198425
X153504Y183661
X153622Y189724
X156575Y186260
X159803Y189724
X163228Y181654
X166705Y183240
X171457Y190787
X174488Y183504
X183976Y190906
X184567Y180394
X194843Y180118
X197795Y187323
X205315Y188386
X212126Y188465
X212677Y181063
X214370Y194213
X219173Y194055
X226575Y185591
X231260Y189449
X233071Y196496
X234921Y180709
X234921Y187953
X243189Y187874
X247402Y193819
X251339Y193819
X251339Y197756
X254016Y182480
X255276Y197756
X259094Y193780
X259213Y197756
X262795Y184961
X263031Y193780
X263150Y197756
X266969Y193780
X267087Y197756
X270906Y193780
X271024Y197756
X271378Y181339
X274843Y193780
X274961Y197756
X278780Y193780
X278898Y197756
X279843Y185039
X283701Y181220
X286732Y189803
X290827Y189961
X294055Y180748
X294764Y189961
X298425Y180866
X298701Y189961
X303031Y181969
X303031Y185906
X303189Y189803
X306969Y181969
X306969Y185906
X306969Y189843
X278858Y201063
X274921Y201063
X271063Y201142
X267126Y201142
X263110Y201299
X259173Y201299
X255276Y201378
X251181Y201496
X234882Y200984
X227008Y200984
X219134Y200984
X211260Y200984
X200827Y200787
X190984Y200827
X181063Y200709
X170945Y200630
T02
X155984Y197598
X165984Y197598
X175984Y197598
X185984Y197598
X195984Y197598
X205984Y197598
T03
X143780Y149252
X143780Y166969
M30
