G04 ================== begin FILE IDENTIFICATION RECORD ==================*
G04 Layout Name:  C:/Vss09/EAP/0021.13/BLUE_NRG_Dongle/BLUE_NRG_Dongle.brd*
G04 Film Name:    BLUE_NRG_DONGLE_SPBOT*
G04 File Format:  Gerber RS274X*
G04 File Origin:  Cadence Allegro 16.6-S018*
G04 Origin Date:  Mon Mar 17 13:59:26 2014*
G04 *
G04 Layer:  VIA CLASS/PASTEMASK_BOTTOM*
G04 Layer:  PIN/PASTEMASK_BOTTOM*
G04 Layer:  PACKAGE GEOMETRY/PASTEMASK_BOTTOM*
G04 Layer:  DRC ERROR CLASS/PASTEMASK_BOTTOM*
G04 *
G04 Offset:    (0.000 0.000)*
G04 Mirror:    No*
G04 Mode:      Positive*
G04 Rotation:  0*
G04 FullContactRelief:  No*
G04 UndefLineWidth:     0.000*
G04 ================== end FILE IDENTIFICATION RECORD ====================*
%FSLAX25Y25*MOMM*%
%IR0*IPPOS*OFA0.00000B0.00000*MIA0B0*SFA1.00000B1.00000*%
%ADD10C,.22*%
G75*
%LPD*%
G75*
G54D10*
G01X14535100Y4047000D02*
Y4207000D01*
X14443900Y4047000D01*
Y4207000D01*
G01X14398100Y4047000D02*
X14348500Y4207000D01*
X14298900Y4047000D01*
G01X14316800Y4103000D02*
X14380200D01*
G01X14259100Y4047000D02*
Y4207000D01*
X14207500Y4073700D01*
X14155900Y4207000D01*
Y4047000D01*
G01X14026800D02*
X14106200D01*
Y4207000D01*
X14026800D01*
G01X14058600Y4129700D02*
X14106200D01*
G01X13985000Y3993700D02*
X13866000D01*
G01X13826200Y4068300D02*
X13810300Y4055000D01*
X13792400Y4047000D01*
X13776600D01*
X13760700Y4055000D01*
X13748800Y4068300D01*
X13742800Y4087000D01*
X13746800Y4105700D01*
X13756700Y4121700D01*
X13774600Y4132300D01*
X13798400Y4137700D01*
X13812300Y4148300D01*
X13818200Y4167000D01*
X13814200Y4185700D01*
X13804300Y4199000D01*
X13790500Y4207000D01*
X13776600D01*
X13762700Y4201700D01*
X13750800Y4188300D01*
G01X13643500Y4047000D02*
X13659400Y4049700D01*
X13673200Y4060300D01*
X13685200Y4076300D01*
X13693100Y4095000D01*
X13697100Y4116300D01*
Y4137700D01*
X13693100Y4159000D01*
X13685200Y4177700D01*
X13673200Y4193700D01*
X13659400Y4204300D01*
X13643500Y4207000D01*
X13627600Y4204300D01*
X13613800Y4193700D01*
X13601800Y4177700D01*
X13593900Y4159000D01*
X13589900Y4137700D01*
Y4116300D01*
X13593900Y4095000D01*
X13601800Y4076300D01*
X13613800Y4060300D01*
X13627600Y4049700D01*
X13643500Y4047000D01*
G01X13542200Y4207000D02*
Y4047000D01*
X13462800D01*
G01X13405100D02*
Y4207000D01*
X13365500D01*
X13349600Y4199000D01*
X13337700Y4188300D01*
X13327800Y4172300D01*
X13319800Y4153700D01*
X13317900Y4127000D01*
X13319800Y4100300D01*
X13327800Y4081700D01*
X13337700Y4065700D01*
X13349600Y4055000D01*
X13365500Y4047000D01*
X13405100D01*
G01X13180800D02*
X13260200D01*
Y4207000D01*
X13180800D01*
G01X13212600Y4129700D02*
X13260200D01*
G01X13119200Y4047000D02*
Y4207000D01*
X13069600D01*
X13053700Y4199000D01*
X13043800Y4188300D01*
X13039800Y4167000D01*
X13043800Y4145700D01*
X13055700Y4132300D01*
X13069600Y4124300D01*
X13119200D01*
G01X13069600D02*
X13039800Y4047000D01*
G01X12990100D02*
Y4207000D01*
X12938500Y4073700D01*
X12886900Y4207000D01*
Y4047000D01*
G01X12847100D02*
X12797500Y4207000D01*
X12747900Y4047000D01*
G01X12765800Y4103000D02*
X12829200D01*
G01X12698200Y4068300D02*
X12682300Y4055000D01*
X12664400Y4047000D01*
X12648600D01*
X12632700Y4055000D01*
X12620800Y4068300D01*
X12614800Y4087000D01*
X12618800Y4105700D01*
X12628700Y4121700D01*
X12646600Y4132300D01*
X12670400Y4137700D01*
X12684300Y4148300D01*
X12690200Y4167000D01*
X12686200Y4185700D01*
X12676300Y4199000D01*
X12662500Y4207000D01*
X12648600D01*
X12634700Y4201700D01*
X12622800Y4188300D01*
G01X12559100Y4047000D02*
Y4207000D01*
G01X12483800D02*
X12559100Y4108300D01*
G01X12471900Y4047000D02*
X12525400Y4153700D01*
G01X12358600Y4132300D02*
X12350700Y4140300D01*
X12344800Y4153700D01*
X12340800Y4172300D01*
X12344800Y4188300D01*
X12352700Y4199000D01*
X12366600Y4207000D01*
X12420100D01*
Y4047000D01*
X12354700D01*
X12340800Y4057700D01*
X12332800Y4073700D01*
X12328900Y4092300D01*
X12332800Y4111000D01*
X12344800Y4127000D01*
X12358600Y4132300D01*
X12420100D01*
G01X12233500Y4047000D02*
X12249400Y4049700D01*
X12263200Y4060300D01*
X12275200Y4076300D01*
X12283100Y4095000D01*
X12287100Y4116300D01*
Y4137700D01*
X12283100Y4159000D01*
X12275200Y4177700D01*
X12263200Y4193700D01*
X12249400Y4204300D01*
X12233500Y4207000D01*
X12217600Y4204300D01*
X12203800Y4193700D01*
X12191800Y4177700D01*
X12183900Y4159000D01*
X12179900Y4137700D01*
Y4116300D01*
X12183900Y4095000D01*
X12191800Y4076300D01*
X12203800Y4060300D01*
X12217600Y4049700D01*
X12233500Y4047000D01*
G01X12092500Y4207000D02*
Y4047000D01*
G01X12138100Y4207000D02*
X12046900D01*
G01X11951500D02*
Y4047000D01*
G01X11997100Y4207000D02*
X11905900D01*
G01X11810500Y4047000D02*
X11826400Y4049700D01*
X11840200Y4060300D01*
X11852200Y4076300D01*
X11860100Y4095000D01*
X11864100Y4116300D01*
Y4137700D01*
X11860100Y4159000D01*
X11852200Y4177700D01*
X11840200Y4193700D01*
X11826400Y4204300D01*
X11810500Y4207000D01*
X11794600Y4204300D01*
X11780800Y4193700D01*
X11768800Y4177700D01*
X11760900Y4159000D01*
X11756900Y4137700D01*
Y4116300D01*
X11760900Y4095000D01*
X11768800Y4076300D01*
X11780800Y4060300D01*
X11794600Y4049700D01*
X11810500Y4047000D01*
G01X11721100D02*
Y4207000D01*
X11669500Y4073700D01*
X11617900Y4207000D01*
Y4047000D01*
M02*
