G04 ================== begin FILE IDENTIFICATION RECORD ==================*
G04 Layout Name:  C:/Vss09/EAP/0021.13/BLUE_NRG_Dongle/BLUE_NRG_Dongle.brd*
G04 Film Name:    BLUE_NRG_DONGLE_SMTOP*
G04 File Format:  Gerber RS274X*
G04 File Origin:  Cadence Allegro 16.6-S018*
G04 Origin Date:  Mon Mar 17 13:59:26 2014*
G04 *
G04 Layer:  VIA CLASS/SOLDERMASK_TOP*
G04 Layer:  PIN/SOLDERMASK_TOP*
G04 Layer:  PACKAGE GEOMETRY/SOLDERMASK_TOP*
G04 Layer:  DRC ERROR CLASS/SOLDERMASK_TOP*
G04 *
G04 Offset:    (0.000 0.000)*
G04 Mirror:    No*
G04 Mode:      Positive*
G04 Rotation:  0*
G04 FullContactRelief:  No*
G04 UndefLineWidth:     0.000*
G04 ================== end FILE IDENTIFICATION RECORD ====================*
%FSLAX25Y25*MOMM*%
%IR0*IPPOS*OFA0.00000B0.00000*MIA0B0*SFA1.00000B1.00000*%
%ADD18R,.3X1.*%
%ADD23R,2.3X.8*%
%ADD37R,1.05X1.05*%
%ADD32R,3.3X3.3*%
%ADD20C,2.083*%
%ADD11C,2.286*%
%ADD19R,2.083X2.083*%
%ADD39R,2.2X1.*%
%ADD10O,3.6X2.*%
%ADD29R,1.3X1.3*%
%ADD38R,2.2X1.05*%
%ADD28R,1.2X1.6*%
%ADD36R,1.1X1.9*%
%ADD35R,1.6X1.4*%
%ADD12R,2.4X1.6*%
%ADD31R,.8X.3*%
%ADD33R,.3X.8*%
%ADD16R,2.7X1.6*%
%ADD30R,.32X.52*%
%ADD27R,.63X.33*%
%ADD21O,.45X.26*%
%ADD26R,.33X.63*%
%ADD14R,2.05X2.75*%
%ADD25R,5.6X5.5*%
%ADD22R,.45X.26*%
%ADD17R,.8X.9*%
%ADD15R,.65X.85*%
%ADD34R,1.372X1.575*%
%ADD13R,.56X.56*%
%ADD24R,.79X.79*%
%ADD40C,.22*%
G75*
%LPD*%
G75*
G54D10*
X3652000Y3446000D03*
Y4586000D03*
G54D11*
Y3791000D03*
Y4241000D03*
G54D20*
X4216000Y5019000D03*
X4470000D03*
X4724000D03*
X4978000D03*
X5232000D03*
G54D21*
X4507000Y3069000D03*
G54D30*
X5701000Y3415000D03*
Y3635000D03*
X5751000Y3415000D03*
X5801000D03*
X5851000D03*
X5751000Y3635000D03*
X5801000D03*
X5851000D03*
G54D12*
X3912000Y3666000D03*
Y3916000D03*
Y4116000D03*
Y4366000D03*
G54D40*
G01X11392900Y4908000D02*
Y5068000D01*
X11484100Y4908000D01*
Y5068000D01*
G01X11529900Y4908000D02*
X11579500Y5068000D01*
X11629100Y4908000D01*
G01X11611200Y4964000D02*
X11547800D01*
G01X11668900Y4908000D02*
Y5068000D01*
X11720500Y4934700D01*
X11772100Y5068000D01*
Y4908000D01*
G01X11901200D02*
X11821800D01*
Y5068000D01*
X11901200D01*
G01X11869400Y4990700D02*
X11821800D01*
G01X11943000Y4854700D02*
X12062000D01*
G01X12101800Y4929300D02*
X12117700Y4916000D01*
X12135600Y4908000D01*
X12151400D01*
X12167300Y4916000D01*
X12179200Y4929300D01*
X12185200Y4948000D01*
X12181200Y4966700D01*
X12171300Y4982700D01*
X12153400Y4993300D01*
X12129600Y4998700D01*
X12115700Y5009300D01*
X12109800Y5028000D01*
X12113800Y5046700D01*
X12123700Y5060000D01*
X12137500Y5068000D01*
X12151400D01*
X12165300Y5062700D01*
X12177200Y5049300D01*
G01X12284500Y4908000D02*
X12268600Y4910700D01*
X12254800Y4921300D01*
X12242800Y4937300D01*
X12234900Y4956000D01*
X12230900Y4977300D01*
Y4998700D01*
X12234900Y5020000D01*
X12242800Y5038700D01*
X12254800Y5054700D01*
X12268600Y5065300D01*
X12284500Y5068000D01*
X12300400Y5065300D01*
X12314200Y5054700D01*
X12326200Y5038700D01*
X12334100Y5020000D01*
X12338100Y4998700D01*
Y4977300D01*
X12334100Y4956000D01*
X12326200Y4937300D01*
X12314200Y4921300D01*
X12300400Y4910700D01*
X12284500Y4908000D01*
G01X12385800Y5068000D02*
Y4908000D01*
X12465200D01*
G01X12522900D02*
Y5068000D01*
X12562500D01*
X12578400Y5060000D01*
X12590300Y5049300D01*
X12600200Y5033300D01*
X12608200Y5014700D01*
X12610100Y4988000D01*
X12608200Y4961300D01*
X12600200Y4942700D01*
X12590300Y4926700D01*
X12578400Y4916000D01*
X12562500Y4908000D01*
X12522900D01*
G01X12747200D02*
X12667800D01*
Y5068000D01*
X12747200D01*
G01X12715400Y4990700D02*
X12667800D01*
G01X12808800Y4908000D02*
Y5068000D01*
X12858400D01*
X12874300Y5060000D01*
X12884200Y5049300D01*
X12888200Y5028000D01*
X12884200Y5006700D01*
X12872300Y4993300D01*
X12858400Y4985300D01*
X12808800D01*
G01X12858400D02*
X12888200Y4908000D01*
G01X12937900D02*
Y5068000D01*
X12989500Y4934700D01*
X13041100Y5068000D01*
Y4908000D01*
G01X13080900D02*
X13130500Y5068000D01*
X13180100Y4908000D01*
G01X13162200Y4964000D02*
X13098800D01*
G01X13229800Y4929300D02*
X13245700Y4916000D01*
X13263600Y4908000D01*
X13279400D01*
X13295300Y4916000D01*
X13307200Y4929300D01*
X13313200Y4948000D01*
X13309200Y4966700D01*
X13299300Y4982700D01*
X13281400Y4993300D01*
X13257600Y4998700D01*
X13243700Y5009300D01*
X13237800Y5028000D01*
X13241800Y5046700D01*
X13251700Y5060000D01*
X13265500Y5068000D01*
X13279400D01*
X13293300Y5062700D01*
X13305200Y5049300D01*
G01X13368900Y4908000D02*
Y5068000D01*
G01X13444200D02*
X13368900Y4969300D01*
G01X13456100Y4908000D02*
X13402600Y5014700D01*
G01X13553500Y5068000D02*
Y4908000D01*
G01X13507900Y5068000D02*
X13599100D01*
G01X13694500Y4908000D02*
X13678600Y4910700D01*
X13664800Y4921300D01*
X13652800Y4937300D01*
X13644900Y4956000D01*
X13640900Y4977300D01*
Y4998700D01*
X13644900Y5020000D01*
X13652800Y5038700D01*
X13664800Y5054700D01*
X13678600Y5065300D01*
X13694500Y5068000D01*
X13710400Y5065300D01*
X13724200Y5054700D01*
X13736200Y5038700D01*
X13744100Y5020000D01*
X13748100Y4998700D01*
Y4977300D01*
X13744100Y4956000D01*
X13736200Y4937300D01*
X13724200Y4921300D01*
X13710400Y4910700D01*
X13694500Y4908000D01*
G01X13795800D02*
Y5068000D01*
X13843400D01*
X13859300Y5060000D01*
X13871200Y5041300D01*
X13875200Y5020000D01*
X13871200Y4998700D01*
X13861300Y4982700D01*
X13843400Y4974700D01*
X13795800D01*
G54D13*
X4205000Y3048000D03*
X4131000Y3802000D03*
X4241000D03*
X4315000Y3048000D03*
X4609000Y3872000D03*
Y3762000D03*
X4467000Y3872000D03*
Y3762000D03*
X4288000Y3546000D03*
X4398000D03*
X4548000Y4364000D03*
Y4474000D03*
X4405000Y4477000D03*
Y4367000D03*
X4515000Y4661000D03*
X4759000Y3129000D03*
X4649000D03*
X4732000Y2989000D03*
X4622000D03*
X4759000Y3267200D03*
X4649000D03*
X4903000Y3266200D03*
X4648000Y3403000D03*
X4758000D03*
X4902000Y3404000D03*
X4757000Y3545000D03*
X4647000D03*
X4901000Y3544000D03*
X4773000Y4521000D03*
X4883000D03*
X4773000Y4661000D03*
X4883000D03*
X4625000D03*
X5277000Y3129000D03*
X5013000Y3266200D03*
X5012000Y3404000D03*
X5277000Y3405000D03*
Y3269000D03*
X5279000Y3547000D03*
X5011000Y3544000D03*
X5133000Y4523000D03*
X5023000D03*
X5292000Y4519000D03*
X5023000Y4662000D03*
X5133000D03*
X5387000Y3129000D03*
X5576000Y3498000D03*
X5387000Y3405000D03*
X5721000Y3296000D03*
X5387000Y3269000D03*
X5389000Y3547000D03*
X5576000Y3608000D03*
X5548000Y4246000D03*
X5687000Y4245000D03*
X5548000Y4356000D03*
X5541000Y4519000D03*
X5651000D03*
X5687000Y4355000D03*
X5402000Y4519000D03*
X5652000Y4663000D03*
X5542000D03*
X5831000Y3296000D03*
X5778000Y3802000D03*
X5918000D03*
X5778000Y3912000D03*
X5918000D03*
X6091000Y4426000D03*
X6092000Y4566000D03*
X6138000Y3473000D03*
X6248000D03*
Y3614000D03*
X6138000D03*
X6201000Y4426000D03*
X6202000Y4566000D03*
X6452000D03*
X6342000D03*
X6451000Y4426000D03*
X6341000D03*
X6495000Y3412000D03*
Y3302000D03*
X6673000Y3773000D03*
Y3663000D03*
X6814000Y3772000D03*
Y3662000D03*
X6781000Y3945000D03*
Y4055000D03*
X6714000Y4601000D03*
X6824000D03*
X6751000Y4347000D03*
Y4457000D03*
X6609000Y4346000D03*
Y4456000D03*
X7028000Y3302000D03*
Y3412000D03*
X7067000Y3757000D03*
X6957000D03*
X7036000Y4070000D03*
X6926000D03*
X7133000Y4215000D03*
X7176000Y4003000D03*
X6990000Y4215000D03*
X7036000Y3930000D03*
X6926000D03*
X7133000Y4325000D03*
X7071000Y4605000D03*
X6961000D03*
X6990000Y4325000D03*
X7539000Y3747000D03*
Y3857000D03*
X7287000Y3748000D03*
Y3858000D03*
X7537000Y4002000D03*
X7427000D03*
X7288000Y4144000D03*
Y4254000D03*
X7286000Y4003000D03*
X7793000Y3749000D03*
Y3859000D03*
X7792000Y4000000D03*
X7682000D03*
G54D22*
X4507000Y3109000D03*
G54D31*
X6051000Y3835000D03*
Y3885000D03*
Y3935000D03*
Y3985000D03*
Y4035000D03*
Y4085000D03*
Y4135000D03*
Y4185000D03*
X6531000Y3835000D03*
Y3885000D03*
Y3935000D03*
Y3985000D03*
Y4035000D03*
Y4085000D03*
Y4135000D03*
Y4185000D03*
G54D14*
X3979000Y3224000D03*
G54D32*
X6291000Y4010000D03*
G54D23*
X4524000Y3992000D03*
Y4112000D03*
Y4232000D03*
G54D24*
X4881000Y2989000D03*
X5031000D03*
X5190000D03*
X5340000D03*
G54D15*
X3979000Y2986000D03*
G54D33*
X6466000Y3770000D03*
X6416000D03*
X6366000D03*
X6316000D03*
X6266000D03*
X6216000D03*
X6166000D03*
X6116000D03*
X6466000Y4250000D03*
X6416000D03*
X6366000D03*
X6316000D03*
X6266000D03*
X6216000D03*
X6166000D03*
X6116000D03*
G54D34*
X6323000Y4761000D03*
X6523700D03*
G54D25*
X5083000Y4013000D03*
G54D16*
X4303000Y3308000D03*
G54D17*
X4208000Y3438000D03*
Y3178000D03*
X4303000Y3438000D03*
X4398000D03*
Y3178000D03*
X4303000D03*
G54D26*
X4958000Y3676000D03*
X4908000D03*
X4858000D03*
X4808000D03*
Y4350000D03*
X4858000D03*
X4908000D03*
X4958000D03*
X5308000Y3676000D03*
X5258000D03*
X5208000D03*
X5158000D03*
X5108000D03*
X5058000D03*
X5008000D03*
Y4350000D03*
X5058000D03*
X5108000D03*
X5158000D03*
X5208000D03*
X5258000D03*
X5308000D03*
X5358000Y3676000D03*
Y4350000D03*
G54D35*
X6870000Y3254000D03*
X6650000D03*
X6870000Y3414000D03*
X6650000D03*
G54D27*
X4746000Y3738000D03*
Y3788000D03*
Y3838000D03*
Y3888000D03*
Y3938000D03*
Y3988000D03*
Y4038000D03*
Y4088000D03*
Y4138000D03*
Y4188000D03*
Y4238000D03*
Y4288000D03*
X5420000Y3888000D03*
Y3838000D03*
Y3788000D03*
Y3738000D03*
Y4238000D03*
Y4188000D03*
Y4138000D03*
Y4088000D03*
Y4038000D03*
Y3988000D03*
Y3938000D03*
Y4288000D03*
G54D36*
X6763000Y4785000D03*
X7013000D03*
G54D18*
X4090000Y3941000D03*
Y4101000D03*
X4140000Y3941000D03*
Y4101000D03*
X4190000Y3941000D03*
Y4101000D03*
G54D28*
X5720000Y3120000D03*
Y2960000D03*
X5719000Y4897000D03*
Y5057000D03*
X6130000Y3120000D03*
Y2960000D03*
X6129000Y4897000D03*
Y5057000D03*
G54D19*
X3962000Y5019000D03*
G54D37*
X7319500Y4592000D03*
G54D38*
X7472000Y4444500D03*
Y4739500D03*
G54D29*
X5776000Y3525000D03*
G54D39*
X8136000Y3489000D03*
Y3999000D03*
M02*
