G04 ================== begin FILE IDENTIFICATION RECORD ==================*
G04 Layout Name:  C:/Vss09/EAP/0021.13/BLUE_NRG_Dongle/BLUE_NRG_Dongle.brd*
G04 Film Name:    BLUE_NRG_DONGLE_BOT*
G04 File Format:  Gerber RS274X*
G04 File Origin:  Cadence Allegro 16.6-S018*
G04 Origin Date:  Mon Mar 17 13:59:26 2014*
G04 *
G04 Layer:  ETCH/BOTTOM*
G04 Layer:  PIN/BOTTOM*
G04 Layer:  VIA CLASS/BOTTOM*
G04 *
G04 Offset:    (0.000 0.000)*
G04 Mirror:    No*
G04 Mode:      Positive*
G04 Rotation:  0*
G04 FullContactRelief:  No*
G04 UndefLineWidth:     0.000*
G04 ================== end FILE IDENTIFICATION RECORD ====================*
%FSLAX25Y25*MOMM*%
%IR0*IPPOS*OFA0.00000B0.00000*MIA0B0*SFA1.00000B1.00000*%
%ADD16R,2.X.8*%
%ADD15R,.8X2.*%
%ADD12C,1.016*%
%ADD14C,1.575*%
%ADD13R,1.575X1.575*%
%ADD11O,3.4X1.8*%
%ADD10C,.45*%
%ADD17C,.2*%
%ADD18C,.3*%
%ADD19C,.22*%
%ADD20C,.4*%
%ADD21C,.5*%
%ADD22C,2.14*%
G75*
%LPD*%
G75*
G36*
G01X3389000Y5146000D02*
X3825000D01*
X3830000Y5141000D01*
Y4539000D01*
X3761000Y4470000D01*
Y3582000D01*
X3832000Y3511000D01*
Y2904000D01*
X3812000Y2884000D01*
X3389000D01*
Y5146000D01*
G37*
G36*
G01X3863200Y2883000D02*
Y4912000D01*
X4069000D01*
Y5126000D01*
X3863200D01*
Y5144600D01*
X7828000D01*
Y2883000D01*
X3863200D01*
G37*
%LPC*%
G75*
G36*
G01X5486700Y3082800D02*
X4889100D01*
X4812200Y3159700D01*
X4810900Y3160000D01*
G02X4873000Y3222100I13100J49000D01*
G01X4873300Y3220800D01*
X4924900Y3169200D01*
X5450900D01*
X5451900Y3170200D01*
X5488100D01*
X5539100Y3221200D01*
X5850100D01*
X5898300Y3269400D01*
G03X5889800Y3286800I-7159J7279D01*
G02X5888200Y3286600I-7083J50165D01*
G01X5886400Y3286400D01*
X5847800Y3247800D01*
X5521100D01*
G02X5483400Y3219000I-46061J21220D01*
G01X5481800Y3218700D01*
X5467900Y3204800D01*
X4980100D01*
X4834600Y3350300D01*
X4832200Y3350100D01*
G02X4789400Y3365400I-5217J52920D01*
G01X4736000Y3418800D01*
X4266000D01*
X3890800Y3794000D01*
Y4589000D01*
X4162800Y4861000D01*
Y4926200D01*
G02X4269200I53200J92800D01*
G01Y4839000D01*
G02X4265300Y4819100I-53182J90D01*
G01X4264100Y4816000D01*
X4278900Y4801200D01*
X4997500D01*
G02X5002800Y4804100I26947J-42954D01*
G01X5005800Y4805400D01*
Y4813800D01*
X4772100D01*
X4682800Y4903100D01*
Y4920300D01*
G02X4789700Y4934600I41201J98717D01*
G03X4788800Y4919300I6285J-8046D01*
G01X4807900Y4900200D01*
X5467900D01*
X5512900Y4855200D01*
X5847500D01*
G02Y4768800I26500J-43200D01*
G01X5796500D01*
G03X5789500Y4751100I-63J-10209D01*
G02X5728500Y4670800I-34582J-37049D01*
G01X5050100D01*
X5012200Y4708700D01*
X5010900Y4709000D01*
G02X4997500Y4714800I13229J48944D01*
G01X4474500D01*
G03X4467400Y4697300I13J-10196D01*
G02X4398700Y4622800I-35474J-36213D01*
G01X4274000D01*
G02X4267600Y4616100I-39698J31513D01*
G03X4272100Y4598500I6735J-7653D01*
G02X4294300Y4587200I-11195J-49451D01*
G01X4466800D01*
X4498300Y4555700D01*
X4748200D01*
Y4415200D01*
X5441100D01*
X5448800Y4422900D01*
Y4475500D01*
X5530500Y4557200D01*
X5702900D01*
X5808900Y4451200D01*
X6426900D01*
X6535500Y4342500D01*
G02X6542400Y4333700I-30248J-30822D01*
G02X6561400Y4291000I-31618J-39646D01*
G03X6571600Y4280200I10183J-599D01*
G01X6634100D01*
X6660800Y4306900D01*
X6661200Y4307700D01*
G02X6709200Y4336700I45849J-21664D01*
G03X6719800Y4346800I419J10172D01*
G01Y4559200D01*
X6636800Y4642200D01*
Y4664700D01*
G02X6719200Y4673100I38233J33301D01*
G01X6717300Y4669700D01*
X6796200Y4590800D01*
Y4545800D01*
G03X6813600Y4538600I10202J31D01*
G01X6832200Y4557200D01*
X6911200D01*
X7057400Y4703400D01*
X7057600Y4705200D01*
G02X7113200Y4649600I50400J-5200D01*
G01X7111400Y4649400D01*
X6942800Y4480800D01*
X6863800D01*
X6839200Y4456200D01*
Y4227200D01*
X6673800Y4061800D01*
X6671400D01*
X6670000Y4060700D01*
G02X6591900Y4121200I-32034J39307D01*
G02X6568100Y4180600I24597J44323D01*
G03X6558400Y4193800I-9744J3003D01*
G01X6418100D01*
X6372100Y4239800D01*
X6079900D01*
X6019200Y4179100D01*
Y3642500D01*
G03X6027900Y3638900I5104J22D01*
G01X6034200Y3645200D01*
X6605200D01*
X6713800Y3753800D01*
Y3771600D01*
X6712700Y3773000D01*
G02X6790200Y3771700I39298J32011D01*
G01Y3722200D01*
X6636800Y3568800D01*
X6065800D01*
X6037800Y3540800D01*
X6015200D01*
Y3264100D01*
X5885900Y3134800D01*
X5574900D01*
X5523900Y3083800D01*
X5487700D01*
X5486700Y3082800D01*
G37*
G54D22*
X4470000Y5019000D03*
X4978000D03*
X5232000D03*
%LPD*%
G75*
G36*
G01X5287900Y3291200D02*
G02X5279900Y3307700I7J10193D01*
G03X5245200Y3389400I-39897J31274D01*
G01X5243400Y3389600D01*
X5188800Y3444200D01*
X4995900D01*
X4956200Y3483900D01*
Y3620800D01*
X4876800Y3700200D01*
X4510800D01*
X4506200Y3704800D01*
Y3747200D01*
X4517800Y3758800D01*
X4635400D01*
G03X4662500Y3835400I42115J28194D01*
G01X4661800Y3835200D01*
X4486200D01*
X4449600Y3798600D01*
G02X4432200Y3805800I-7198J7231D01*
G01Y3831500D01*
G03X4353400Y3885600I-29817J41008D01*
G01X4353100Y3884300D01*
X4345800Y3877000D01*
Y3625100D01*
X4401100Y3569800D01*
X4757100D01*
X4765700Y3561200D01*
X4766000Y3559900D01*
G03X4775100Y3541700I48985J13118D01*
G02X4767100Y3525200I-8007J-6307D01*
G01X4310000D01*
X3997200Y3838000D01*
Y4545000D01*
X4205100Y4752800D01*
X4243100Y4714800D01*
X4404800D01*
X4407300Y4705300D01*
G03X4398700Y4699200I24872J-44178D01*
G01X4257800D01*
G03X4223200Y4604800I-23500J-44927D01*
G02X4227700Y4587200I-2235J-9947D01*
G03X4283100Y4503400I33351J-38164D01*
G02X4297800Y4494200I4494J-9163D01*
G01Y4396800D01*
X4293500Y4396100D01*
G03Y4295900I7500J-50100D01*
G01X4297800Y4295200D01*
Y4244200D01*
X4200100D01*
X4197200Y4241300D01*
X4195900Y4241000D01*
G03X4246400Y4157800I13089J-48981D01*
G01X5499600D01*
X5565400Y4092000D01*
X5566700D01*
X5579200Y4079500D01*
X5573200Y4073500D01*
X5570000Y4074800D01*
G03X5542300Y4078000I-19443J-46812D01*
G03X5470200Y4111300I-49279J-11994D01*
G01X4815200D01*
X4733100Y4029200D01*
X4185900D01*
X4118200Y4096900D01*
Y4154500D01*
X4118500Y4155300D01*
G03X4031800Y4140800I-47521J17690D01*
G01Y4061100D01*
X4150100Y3942800D01*
X4768900D01*
X4851000Y4024900D01*
X5255300D01*
G02X5262500Y4007500I-31J-10202D01*
G01X5068800Y3813800D01*
Y3529800D01*
X5128300Y3470300D01*
X5205300D01*
X5256800Y3521800D01*
X5361200D01*
G02X5371300Y3511200I-72J-10181D01*
G03X5441300Y3462100I50673J-2205D01*
G01X5444500Y3463400D01*
X5471800Y3436100D01*
Y3330900D01*
X5457500Y3316600D01*
X5456500Y3316200D01*
G03X5429400Y3291200I18477J-47218D01*
G01X5287900D01*
G37*
G36*
G01X5672500Y4147200D02*
G03X5617600Y4166900I-41464J-29203D01*
G01X5614800Y4166100D01*
X5602500Y4178400D01*
X5601200D01*
X5535400Y4244200D01*
X4434200D01*
Y4487200D01*
G02X4451600Y4494400I10202J-31D01*
G01X4491800Y4454200D01*
Y4419300D01*
X4670600D01*
G02X4677800Y4401900I-14J-10195D01*
G01X4640200Y4364300D01*
X4638900Y4364000D01*
G03X4701000Y4301900I13100J-49000D01*
G01X4701300Y4303200D01*
X4726900Y4328800D01*
X5476900D01*
X5535200Y4387100D01*
Y4403000D01*
G02X5549800Y4412200I10189J15D01*
G03X5553800Y4410500I21819J45783D01*
G01X5554800Y4410100D01*
X5691000Y4274000D01*
Y4153000D01*
G02X5672500Y4147200I-10182J73D01*
G37*
G36*
G01X5015900Y3291200D02*
X4860900Y3446200D01*
X4859000D01*
X4799800Y3505400D01*
G02X4808400Y3522700I7219J7199D01*
G03X4861200Y3593800I6577J50271D01*
G01X4859800Y3597000D01*
X4865900Y3603100D01*
X4879800Y3589200D01*
Y3452300D01*
X4964300Y3367800D01*
X5157200D01*
X5189400Y3335600D01*
X5189600Y3333800D01*
G03X5200100Y3307700I50433J5127D01*
G02X5192100Y3291200I-8007J-6307D01*
G01X5015900D01*
G37*
G36*
G01X5244300Y3649200D02*
G03X5207200Y3661600I-33380J-38170D01*
G02X5196200Y3671700I-817J10150D01*
G01Y3767200D01*
X5367800Y3938800D01*
X5442800D01*
Y3746300D01*
G03X5491100Y3663300I38214J-33316D01*
G01X5493700Y3663900D01*
X5499300Y3658300D01*
X5490200Y3649200D01*
X5244300D01*
G37*
G36*
G01X5085900Y4757200D02*
X5073300Y4769800D01*
X5073000Y4771100D01*
G03X5057600Y4796000I-48996J-13091D01*
G02X5064400Y4813800I6774J7611D01*
G01X5432100D01*
X5477100Y4768800D01*
X5729600D01*
X5732000Y4759200D01*
G03X5728500Y4757200I23382J-44982D01*
G01X5085900D01*
G37*
G36*
G01X5670900Y3458500D02*
X5527500Y3561700D01*
G02X5526200Y3577200I5919J8301D01*
G01X5638300Y3689300D01*
X5640200Y3689400D01*
G03X5669700Y3701300I-3255J50584D01*
G01X5830200Y3540800D01*
X5905100D01*
X5928800Y3517100D01*
Y3386400D01*
G02X5912600Y3378100I-10214J-24D01*
G03X5832600Y3342200I-29598J-41129D01*
G01X5832400Y3340400D01*
X5816200Y3324200D01*
X5558200D01*
Y3425600D01*
G02X5574400Y3433900I10213J26D01*
G01X5609200Y3408800D01*
X5609400Y3406300D01*
G03X5671900Y3458300I50623J2715D01*
G01X5670900Y3458500D01*
G37*
G36*
G01X5867300Y3636100D02*
G02X5849900Y3629100I-10196J219D01*
G01X5755200Y3723800D01*
X5756400Y3726900D01*
G03X5670500Y3778000I-47364J18130D01*
G03X5586800Y3747300I-33536J-38018D01*
G01X5586600Y3745600D01*
X5549100Y3708100D01*
G02X5531700Y3714900I-7217J7194D01*
G03X5519200Y3746300I-50665J-1981D01*
G01Y3827300D01*
G02X5530200Y3837400I10183J-50D01*
G03X5567300Y3849800I3720J50570D01*
G01X5782800D01*
Y3738200D01*
X5792300Y3728700D01*
Y3726600D01*
G03X5880000Y3692300I50708J384D01*
G01X5881500Y3693900D01*
X5888800D01*
Y3676400D01*
G03X5867300Y3636100I29178J-41452D01*
G37*
G36*
G01X5690500Y3943600D02*
X5767400Y4020500D01*
G02X5784800Y4013300I7198J-7231D01*
G01Y3926200D01*
X5697700D01*
G02X5690500Y3943600I31J10202D01*
G37*
G36*
G01X5784800Y4255700D02*
G02X5767400Y4262900I-7198J7231D01*
G01Y4305600D01*
X5621900Y4451100D01*
X5622100Y4453500D01*
G03X5622300Y4460200I-50489J4860D01*
G02X5632400Y4470800I10172J419D01*
G01X5667100D01*
X5773100Y4364800D01*
X5909100D01*
G02X5914800Y4346100I41J-10206D01*
G03X5909700Y4342200I28176J-42130D01*
G01X5887500D01*
G03X5860500Y4331000I0J-38145D01*
G01X5851300Y4321800D01*
X5842100Y4313000D01*
X5784800Y4255700D01*
G37*
G36*
G01X5859200Y3775200D02*
Y3875800D01*
X5859400Y3876500D01*
G03X5861200Y3888000I-36387J11586D01*
G01Y4009200D01*
X5871400Y4019400D01*
G02X5888800Y4012200I7198J-7231D01*
G01Y3776400D01*
G02X5872600Y3768100I-10214J-24D01*
G03X5862400Y3773900I-29993J-40877D01*
G01X5859200Y3775200D01*
G37*
G36*
G01X5993600Y4300900D02*
G03X5971200Y4346100I-50595J3077D01*
G02X5976900Y4364800I5659J8494D01*
G01X6391100D01*
X6460100Y4295800D01*
Y4293700D01*
G03X6460700Y4286400I50689J492D01*
G01X6461100Y4283900D01*
X6455600Y4278500D01*
X6407900Y4326200D01*
X6044100D01*
X6011000Y4293100D01*
G02X5993600Y4300900I-7220J7201D01*
G37*
G54D10*
X3501000Y3040000D03*
X3701000D03*
Y3240000D03*
X3501000Y3440000D03*
Y3240000D03*
Y3640000D03*
Y3840000D03*
Y4040000D03*
Y4240000D03*
Y4440000D03*
Y4640000D03*
X3701000Y4840000D03*
X3501000D03*
X3701000Y5040000D03*
X3501000D03*
X4085000Y2947000D03*
X4022000Y2955000D03*
X4023000Y3428000D03*
X4210000Y3308000D03*
X4058000Y3816000D03*
X4025000Y3535000D03*
X4223000Y3706000D03*
X4209000Y4192000D03*
X4071000Y4173000D03*
X4060000Y4543000D03*
X4146000Y4614000D03*
X4101000Y4286200D03*
X4234300Y4654300D03*
X4059000Y4819000D03*
X3977000Y4731000D03*
X3902000Y4819000D03*
X3899000Y4665000D03*
X4330000Y2949000D03*
X4375000Y2915000D03*
X4313000Y3308000D03*
X4399000D03*
X4504000Y3549000D03*
X4540000Y3723000D03*
X4252000Y3895000D03*
X4402400Y3872500D03*
X4391100Y4112000D03*
X4301000Y4346000D03*
X4261000Y4549000D03*
X4355000Y4846000D03*
X4432000Y4661000D03*
X4599000Y5098000D03*
X4342000Y5096000D03*
X4813000Y3105000D03*
X4808000Y2917000D03*
X4852000Y3476000D03*
X4827000Y3403000D03*
X4824000Y3209000D03*
X4851000Y3769000D03*
X4815000Y3573000D03*
X4677500Y3787000D03*
X4838000Y4137000D03*
X4867000Y3938000D03*
X4835000Y4266000D03*
X4688000Y4582000D03*
X4949000Y4575000D03*
X4652000Y4315000D03*
X4673000Y4849000D03*
X4851000Y5101000D03*
X5107000Y2918000D03*
X5045000Y3330000D03*
X5237200Y3480400D03*
X5009000Y3467000D03*
X5240000Y3339000D03*
X5049000Y3781000D03*
X5310000Y3772200D03*
X5211000Y3611000D03*
X5165200Y3559500D03*
X5328000Y4134000D03*
X5312000Y4266000D03*
X5079000Y4136000D03*
X5087000Y3943000D03*
X5215000Y4785000D03*
X5024000Y4758000D03*
X5101000Y5100000D03*
X5366000Y5105000D03*
X5596000Y2931000D03*
X5493000Y3041800D03*
X5445000Y3429000D03*
X5603000Y3234000D03*
X5475000Y3269000D03*
X5422000Y3509000D03*
X5660000Y3409000D03*
X5419000Y3673000D03*
X5637000Y3740000D03*
X5709000Y3745000D03*
X5481000Y3713000D03*
X5534000Y3888000D03*
X5550500Y4028000D03*
X5631000Y4118000D03*
X5493000Y4066000D03*
X5402000Y4599000D03*
X5571600Y4458000D03*
X5445000Y4933000D03*
X5567000Y4929000D03*
X5388000Y4787000D03*
X5566000Y5105000D03*
X5925000Y3037000D03*
X5796000Y2931000D03*
X5996000D03*
X5995000Y3191000D03*
X6044000Y3506000D03*
X5776000Y3525000D03*
X6046300Y3419000D03*
X5883000Y3337000D03*
X6044000Y3686000D03*
X5843000Y3727000D03*
X5918000Y3635000D03*
X5863000Y4128000D03*
X5903000Y4188000D03*
X5967000Y4590000D03*
X6003000Y4492000D03*
X5748200Y4556000D03*
X5943000Y4304000D03*
X5967000Y4774000D03*
X5920000Y4991000D03*
X5874000Y4812000D03*
X5755000Y4714000D03*
X5966000Y5105000D03*
X5766000D03*
X6396000Y2931000D03*
X6196000D03*
X6483000Y3028000D03*
X6338000Y3157000D03*
X6341000Y3282000D03*
X6345000Y3394000D03*
Y3515000D03*
X6438000Y3157000D03*
X6135000Y3255000D03*
X6165000Y3885000D03*
X6215000D03*
X6265000D03*
X6315000D03*
X6365000D03*
X6415000D03*
X6369000Y3675000D03*
X6315000Y3935000D03*
X6265000D03*
X6215000D03*
X6165000D03*
Y3985000D03*
X6215000D03*
X6265000D03*
X6315000D03*
Y4035000D03*
X6265000D03*
X6215000D03*
X6165000D03*
Y4085000D03*
X6215000D03*
X6265000D03*
X6315000D03*
X6365000D03*
Y4035000D03*
Y3985000D03*
Y3935000D03*
X6415000D03*
Y3985000D03*
Y4035000D03*
Y4085000D03*
Y4135000D03*
X6365000D03*
X6315000D03*
X6265000D03*
X6215000D03*
X6165000D03*
X6185000Y4352000D03*
X6452000Y4635000D03*
X6177000Y4772000D03*
X6484000Y5023000D03*
X6384000Y4923000D03*
X6284000D03*
X6384000Y5023000D03*
X6380000Y5118000D03*
X6484000Y5115000D03*
X6796000Y3031000D03*
X6596000D03*
X6840000Y3104000D03*
X6596000Y2931000D03*
X6796000D03*
X6593000Y3128000D03*
X6760000Y3332000D03*
X6840000Y3857000D03*
X6752000Y3805000D03*
X6832000Y4159000D03*
X6638000Y4100000D03*
X6616500Y4165500D03*
X6653000Y4534000D03*
X6510800Y4294000D03*
X6707000Y4286000D03*
X6781000Y4922000D03*
X6681000D03*
X6784000Y5023000D03*
X6584000D03*
X6684000D03*
X6581000Y4922000D03*
X6675000Y4698000D03*
X6683000Y5113000D03*
X6583000D03*
X6785000Y5109000D03*
X7196000Y3031000D03*
X6996000D03*
Y2931000D03*
X7196000D03*
X7140000Y3475000D03*
X7138000Y3157000D03*
X7140000Y3275000D03*
Y3375000D03*
X7199000Y3530000D03*
X7169000Y3896000D03*
X6996000Y3631000D03*
X7094000Y3563000D03*
X7196000Y3631000D03*
X7164000Y3816000D03*
X6914000Y3620200D03*
X6885000Y4269000D03*
X7164000Y4123000D03*
X7208000Y4407000D03*
X7202000Y4503000D03*
X7206000Y4603000D03*
X6893000Y4606000D03*
X7057000Y4463000D03*
X7081000Y4922000D03*
X6981000D03*
X6881000D03*
X6984000Y5023000D03*
X6884000D03*
X7084000D03*
X7108000Y4700000D03*
X6885000Y5109000D03*
X7083000Y5107000D03*
X6983000D03*
X7596000Y3031000D03*
X7396000D03*
Y3131000D03*
X7596000D03*
Y2931000D03*
X7396000D03*
Y3231000D03*
X7596000D03*
Y3331000D03*
Y3431000D03*
X7275000Y3157000D03*
X7299000Y3530000D03*
X7396000Y3531000D03*
X7596000D03*
X7496000Y3530000D03*
X7397000Y3708000D03*
X7296000Y3631000D03*
X7396000D03*
X7496000D03*
X7596000D03*
X7397000Y4222000D03*
X7387000Y4120000D03*
X7597000Y4122000D03*
Y4222000D03*
X7580000Y4594000D03*
X7497000Y4322000D03*
X7397000D03*
X7597000D03*
X7469000Y4591000D03*
X7487000Y4825000D03*
X7283000Y4821000D03*
X7587000Y4825000D03*
X7387000D03*
X7796000Y2931000D03*
Y3031000D03*
Y3131000D03*
Y3231000D03*
Y3331000D03*
Y3431000D03*
X7701000Y3529000D03*
X7661000Y3707000D03*
X7796000Y3531000D03*
Y3631000D03*
X7696000D03*
X7697000Y4222000D03*
X7797000D03*
Y4122000D03*
X7697000Y4622000D03*
X7797000Y4422000D03*
Y4522000D03*
X7697000D03*
Y4322000D03*
X7797000Y4622000D03*
Y4322000D03*
X7701000Y4821000D03*
X7797000Y4722000D03*
X7697000D03*
X7797000Y4822000D03*
G54D20*
G01X3962000Y4906900D02*
Y5019000D01*
G01D02*
Y5131100D01*
G01Y5019000D02*
X4074100D01*
G54D11*
X3652000Y3446000D03*
Y4586000D03*
G54D21*
G01X4216000Y4839000D02*
X3944000Y4567000D01*
Y3816000D01*
X4288000Y3472000D01*
X4758000D01*
X4827000Y3403000D01*
G01X4216000Y5019000D02*
Y4839000D01*
G54D12*
X3652000Y3791000D03*
Y4241000D03*
G54D13*
X3962000Y5019000D03*
G54D14*
X4216000D03*
X4470000D03*
X4724000D03*
X4978000D03*
X5232000D03*
G54D15*
X4366000Y4381000D03*
G54D16*
X4620000Y4487500D03*
G54D17*
G01X4158000Y4251000D02*
X4195900D01*
X4201900Y4245000D01*
G01D02*
X4473000D01*
G01X4114000Y5117000D02*
X4170000D01*
X4173800Y5120800D01*
X4317200D01*
X4342000Y5096000D01*
G01X4677500Y3787000D02*
X4667500Y3797000D01*
X4502000D01*
X4468000Y3763000D01*
Y3689000D01*
X4495000Y3662000D01*
X4861000D01*
X4918000Y3605000D01*
Y3468100D01*
X4980100Y3406000D01*
X5173000D01*
X5240000Y3339000D01*
G01X4473000Y4245000D02*
X4509000Y4281000D01*
G01X4666000Y4395000D02*
X4596000D01*
G01X4301000Y4346000D02*
X4331000D01*
X4366000Y4381000D01*
G01X4620000Y4487500D02*
X4617500Y4490000D01*
X4510000D01*
X4451000Y4549000D01*
X4261000D01*
G01X4432000Y4661000D02*
X4241000D01*
X4234300Y4654300D01*
G01X4342000Y5096000D02*
X4403000D01*
X4427800Y5120800D01*
G01D02*
X4512200D01*
X4515000Y5118000D01*
X4532000D01*
G01X4970000Y3355000D02*
X4852000Y3473000D01*
Y3476000D01*
G01X4776000Y4446000D02*
X4754500Y4424500D01*
G01D02*
X4695500D01*
X4666000Y4395000D01*
G01X4690000Y4827000D02*
X4724000D01*
X4740000Y4811000D01*
G01D02*
X5072000D01*
G01X4851000Y5101000D02*
X4916000D01*
X4935800Y5120800D01*
G01X4851000Y5101000D02*
X4831200Y5120800D01*
X4681800D01*
G01D02*
X4674000Y5113000D01*
X4640000D01*
G01X4935800Y5120800D02*
X5020200D01*
X5022000Y5119000D01*
X5037000D01*
G01X5308000Y3310000D02*
X5286700Y3288700D01*
X5261800D01*
X5261100Y3288000D01*
X5199000D01*
X5184000Y3303000D01*
G01D02*
X5171000D01*
G01X5660000Y3409000D02*
X5658100Y3420700D01*
X5464400Y3560000D01*
X5241000D01*
X5189500Y3508500D01*
X5144100D01*
X5107000Y3545600D01*
Y3798000D01*
X5324000Y4015000D01*
X5530000D01*
X5543000Y4028000D01*
X5550500D01*
G01X5211000Y3611000D02*
X5506000D01*
X5635000Y3740000D01*
X5637000D01*
G01X5571600Y4458000D02*
X5575000Y4454600D01*
Y4444000D01*
X5729200Y4289800D01*
Y4092200D01*
X5614000Y3977000D01*
X5352000D01*
X5158000Y3783000D01*
Y3566700D01*
X5165200Y3559500D01*
G01X5072000Y4811000D02*
X5087000Y4796000D01*
G01X5147000Y5113000D02*
X5182000D01*
X5189800Y5120800D01*
G01D02*
X5350200D01*
X5366000Y5105000D01*
G01X5472000Y3270000D02*
X5483000D01*
X5499000Y3286000D01*
X5832000D01*
X5883000Y3337000D01*
G01X5438000Y3654000D02*
X5419000Y3673000D01*
G01X5554000Y3770000D02*
Y3709000D01*
X5499000Y3654000D01*
X5438000D01*
G01X5709000Y3745000D02*
Y3716000D01*
X5846000Y3579000D01*
X5928000D01*
G01X5943000Y4304000D02*
X5887500D01*
X5878000Y4294500D01*
X5868800Y4285700D01*
X5779000Y4195900D01*
Y4086100D01*
X5631900Y3939000D01*
X5501000D01*
X5481000Y3919000D01*
Y3713000D01*
G01X5688000Y4159000D02*
X5653000Y4194000D01*
G01X5441000Y4140000D02*
X5515000D01*
G01D02*
X5588000Y4067000D01*
X5652100D01*
X5682000Y4096900D01*
Y4097000D01*
X5688000Y4103000D01*
Y4159000D01*
G01X5534000Y3888000D02*
X5823000D01*
G01X5446000Y4775000D02*
X5464000D01*
G01X5797000Y4765000D02*
X5733900D01*
X5732900Y4764000D01*
X5709000D01*
G01X5866000Y3252000D02*
X5879000D01*
G01D02*
X5934000Y3307000D01*
Y3386000D01*
X5882000Y3438000D01*
G01X5776000Y3725000D02*
Y3709000D01*
X5817000Y3668000D01*
X5856100D01*
G01D02*
X5894000Y3705900D01*
Y3764000D01*
X5869000Y3789000D01*
G01X6752000Y3805000D02*
Y3738000D01*
X6621000Y3607000D01*
X6050000D01*
X6022000Y3579000D01*
X5949000D01*
G01X5928000D02*
X5949000D01*
G01X5823000Y3888000D02*
X5821000Y3886000D01*
Y3754000D01*
X5843000Y3732000D01*
Y3727000D01*
G01X5918000Y3635000D02*
X5927000Y3644000D01*
Y4164000D01*
X5903000Y4188000D01*
G01X5734000Y3986000D02*
X5812000Y4064000D01*
Y4171000D01*
X5890000Y4249000D01*
X5966000D01*
X6008000Y4291000D01*
Y4332000D01*
G01X5823000Y3888000D02*
Y4025000D01*
X5863000Y4065000D01*
Y4128000D01*
G01X5991000Y4355000D02*
X5998000Y4348000D01*
G01X5891000Y4353000D02*
X5919900D01*
X5921900Y4355000D01*
X5991000D01*
G01X5827000Y4735000D02*
X5797000Y4765000D01*
G01X7108000Y4700000D02*
X6927000Y4519000D01*
X6848000D01*
X6801000Y4472000D01*
Y4243000D01*
X6658000Y4100000D01*
X6638000D01*
G01X6616500Y4165500D02*
X6617000D01*
X6623500Y4159000D01*
X6662000D01*
X6758000Y4255000D01*
Y4575000D01*
X6675000Y4658000D01*
Y4698000D01*
G54D18*
G01X4391100Y4112000D02*
X4174000D01*
X4139000Y4147000D01*
Y4248200D01*
X4101000Y4286200D01*
G01X4209000Y4192000D02*
X4218000Y4201000D01*
X5517500D01*
X5583300Y4135200D01*
X5584600D01*
X5601800Y4118000D01*
X5631000D01*
G01X4071000Y4173000D02*
X4075000Y4169000D01*
Y4079000D01*
X4168000Y3986000D01*
X4751000D01*
X4833100Y4068100D01*
X5490900D01*
X5493000Y4066000D01*
G01X4216000Y4839000D02*
Y4803000D01*
X4261000Y4758000D01*
X5024000D01*
G01X5024500Y3879500D02*
X4973000Y3931000D01*
X4288000D01*
X4252000Y3895000D01*
G01X4815000Y3573000D02*
X4775000Y3613000D01*
X4419000D01*
X4389000Y3643000D01*
Y3859100D01*
X4402400Y3872500D01*
G01X5928000Y3579000D02*
X5972000Y3535000D01*
Y3282000D01*
X5868000Y3178000D01*
X5557000D01*
X5506000Y3127000D01*
X5469800D01*
X5468800Y3126000D01*
X4907000D01*
X4824000Y3209000D01*
G01X4803000Y3510000D02*
X4824000D01*
G01X4773000Y3540000D02*
X4803000Y3510000D01*
G01X5472000Y3270000D02*
X5450000Y3248000D01*
X4998000D01*
X4843000Y3403000D01*
X4827000D01*
G01X4851000Y3769000D02*
X5024500Y3879500D01*
G01X4738000Y3545000D02*
X4743000Y3540000D01*
X4773000D01*
G01X4652000Y4315000D02*
X4709000Y4372000D01*
X5459000D01*
X5492000Y4405000D01*
Y4457600D01*
X5548400Y4514000D01*
X5685000D01*
X5791000Y4408000D01*
X6409000D01*
X6505000Y4312000D01*
Y4281800D01*
X6510800Y4294000D01*
G01X4724000Y5019000D02*
X4726000Y5017000D01*
Y4921000D01*
X4790000Y4857000D01*
X5450000D01*
X5495000Y4812000D01*
X5874000D01*
G01X5228000Y3489600D02*
X5237200Y3480400D01*
G01D02*
X5223800Y3467000D01*
X5183000D01*
X5180600Y3464600D01*
X5134200D01*
X5131800Y3467000D01*
X5009000D01*
G01X5087000Y3943000D02*
X5024500Y3879500D01*
G01X5755000Y4714000D02*
X5068000D01*
X5024000Y4758000D01*
G01X5475000Y3273000D02*
X5472000Y3270000D01*
G01X5475000Y3269000D02*
Y3273000D01*
G01X5422000Y3509000D02*
X5460000D01*
X5515000Y3454000D01*
Y3313000D01*
X5475000Y3273000D01*
G01X6707000Y4286000D02*
X6701000D01*
X6652000Y4237000D01*
X6436000D01*
X6390000Y4283000D01*
X6062000D01*
X5976000Y4197000D01*
Y3606000D01*
X5949000Y3579000D01*
G01X6003000Y4492000D02*
X5975000Y4520000D01*
X5778000D01*
X5748200Y4549800D01*
Y4556000D01*
G54D19*
G01X13146100Y4455000D02*
Y4615000D01*
X13054900Y4455000D01*
Y4615000D01*
G01X13009100Y4455000D02*
X12959500Y4615000D01*
X12909900Y4455000D01*
G01X12927800Y4511000D02*
X12991200D01*
G01X12870100Y4455000D02*
Y4615000D01*
X12818500Y4481700D01*
X12766900Y4615000D01*
Y4455000D01*
G01X12637800D02*
X12717200D01*
Y4615000D01*
X12637800D01*
G01X12669600Y4537700D02*
X12717200D01*
G01X12596000Y4401700D02*
X12477000D01*
G01X12379600Y4540300D02*
X12371700Y4548300D01*
X12365800Y4561700D01*
X12361800Y4580300D01*
X12365800Y4596300D01*
X12373700Y4607000D01*
X12387600Y4615000D01*
X12441100D01*
Y4455000D01*
X12375700D01*
X12361800Y4465700D01*
X12353800Y4481700D01*
X12349900Y4500300D01*
X12353800Y4519000D01*
X12365800Y4535000D01*
X12379600Y4540300D01*
X12441100D01*
G01X12254500Y4455000D02*
X12270400Y4457700D01*
X12284200Y4468300D01*
X12296200Y4484300D01*
X12304100Y4503000D01*
X12308100Y4524300D01*
Y4545700D01*
X12304100Y4567000D01*
X12296200Y4585700D01*
X12284200Y4601700D01*
X12270400Y4612300D01*
X12254500Y4615000D01*
X12238600Y4612300D01*
X12224800Y4601700D01*
X12212800Y4585700D01*
X12204900Y4567000D01*
X12200900Y4545700D01*
Y4524300D01*
X12204900Y4503000D01*
X12212800Y4484300D01*
X12224800Y4468300D01*
X12238600Y4457700D01*
X12254500Y4455000D01*
G01X12113500Y4615000D02*
Y4455000D01*
G01X12159100Y4615000D02*
X12067900D01*
G01X11972500D02*
Y4455000D01*
G01X12018100Y4615000D02*
X11926900D01*
G01X11831500Y4455000D02*
X11847400Y4457700D01*
X11861200Y4468300D01*
X11873200Y4484300D01*
X11881100Y4503000D01*
X11885100Y4524300D01*
Y4545700D01*
X11881100Y4567000D01*
X11873200Y4585700D01*
X11861200Y4601700D01*
X11847400Y4612300D01*
X11831500Y4615000D01*
X11815600Y4612300D01*
X11801800Y4601700D01*
X11789800Y4585700D01*
X11781900Y4567000D01*
X11777900Y4545700D01*
Y4524300D01*
X11781900Y4503000D01*
X11789800Y4484300D01*
X11801800Y4468300D01*
X11815600Y4457700D01*
X11831500Y4455000D01*
G01X11742100D02*
Y4615000D01*
X11690500Y4481700D01*
X11638900Y4615000D01*
Y4455000D01*
M02*
