G04 ================== begin FILE IDENTIFICATION RECORD ==================*
G04 Layout Name:  C:/Vss09/EAP/0021.13/BLUE_NRG_Dongle/BLUE_NRG_Dongle.brd*
G04 Film Name:    BLUE_NRG_DONGLE_DRAWINGNOTICE*
G04 File Format:  Gerber RS274X*
G04 File Origin:  Cadence Allegro 16.6-S018*
G04 Origin Date:  Mon Mar 17 13:59:26 2014*
G04 *
G04 Layer:  DRAWING FORMAT/OUTLINE*
G04 Layer:  DRAWING FORMAT/TITLE_BLOCK*
G04 Layer:  DRAWING FORMAT/TITLE_DATA*
G04 Layer:  DRAWING FORMAT/REVISION_BLOCK*
G04 Layer:  DRAWING FORMAT/REVISION_DATA*
G04 Layer:  DRAWING FORMAT/CONSTRUCTION*
G04 *
G04 Offset:    (0.000 0.000)*
G04 Mirror:    No*
G04 Mode:      Positive*
G04 Rotation:  0*
G04 FullContactRelief:  No*
G04 UndefLineWidth:     0.200*
G04 ================== end FILE IDENTIFICATION RECORD ====================*
%FSLAX25Y25*MOMM*%
%IR0*IPPOS*OFA0.00000B0.00000*MIA0B0*SFA1.00000B1.00000*%
%ADD10C,.1*%
%ADD11C,.2*%
%ADD12C,.3*%
%ADD13C,.22*%
%ADD14C,.28*%
G75*
%LPD*%
G75*
G36*
G01X0Y10500000D02*
X-381000Y10373000D01*
Y10627000D01*
X0Y10500000D01*
G37*
G36*
G01X11930000Y2475000D02*
Y2525000D01*
X12240000D01*
Y2475000D01*
X12180000D01*
Y1365000D01*
X12240000D01*
Y1325000D01*
X11930000D01*
Y1365000D01*
X11990000D01*
Y2475000D01*
X11930000D01*
G37*
G36*
G01X14850000Y0D02*
X14977000Y-381000D01*
X14723000D01*
X14850000Y0D01*
G37*
G36*
G01Y21000000D02*
X14723000Y21381000D01*
X14977000D01*
X14850000Y21000000D01*
G37*
G36*
G01X19376600Y496500D02*
X19147800Y745200D01*
G02X19257300Y1021800I123517J111077D01*
G01X20249900D01*
X20288800Y1116000D01*
X19169900D01*
X18887000Y409200D01*
X19353800D01*
G03X19376600Y496500I-7833J48673D01*
G37*
G36*
G01X19489700Y254200D02*
X19753400Y873500D01*
X19310700Y874700D01*
G03X19268500Y841000I-1079J-41921D01*
G01X19519400Y592300D01*
G02X19418700Y254200I-290013J-97669D01*
G01X19489700D01*
G37*
G36*
G01X19932000Y252200D02*
X19711700D01*
X19956600Y865100D01*
X20185200D01*
X19932000Y252200D01*
G37*
G36*
G01X29700000Y10500000D02*
X30081000Y10627000D01*
Y10373000D01*
X29700000Y10500000D01*
G37*
G54D10*
G01X9419000Y1615000D02*
X15519000D01*
Y1365000D01*
X9419000D01*
Y1615000D01*
G01Y2185000D02*
X15529000D01*
Y1655000D01*
X9419000D01*
Y2185000D01*
G01Y2475000D02*
X15519000D01*
Y2225000D01*
X9419000D01*
Y2475000D01*
G54D11*
G01X0Y5250000D02*
X-762000D01*
G01X0Y10500000D02*
X-762000D01*
G01X0Y15750000D02*
X-762000D01*
G01X3762500Y-762000D02*
Y0D01*
G01X3712500Y21000000D02*
Y21762000D01*
G01X7425000Y-762000D02*
Y0D01*
G01Y21000000D02*
Y21762000D01*
G01X11137500Y-762000D02*
Y0D01*
G01Y21000000D02*
Y21762000D01*
G01X14850000Y0D02*
Y-762000D01*
G01Y21000000D02*
Y21762000D01*
G01X18569900Y-766400D02*
X18570000Y-2000D01*
G01X19148900Y1211800D02*
X18734600Y171200D01*
G01D02*
X19971600D01*
G01X19148900Y1211800D02*
X18734600Y171200D01*
G01D02*
X19971600D01*
G01X19148900Y1211800D02*
X18734600Y171200D01*
G01D02*
X19971600D01*
G01X18562500Y21000000D02*
Y21762000D01*
G01X19353800Y409200D02*
X18887000D01*
G01D02*
X19169900Y1116000D01*
G01X19353800Y409200D02*
X18887000D01*
G01D02*
X19169900Y1116000D01*
G01X19257300Y1021800D02*
G03X19147800Y745200I14017J-165523D01*
G01D02*
X19377700Y495300D01*
G01X19257300Y1021800D02*
G03X19147800Y745200I14017J-165523D01*
G01D02*
X19377700Y495300D01*
G01X20395700Y1211800D02*
X19148900D01*
G01X20395700D02*
X19148900D01*
G01X19169900Y1116000D02*
X20288800D01*
G01X20395700Y1211800D02*
X19148900D01*
G01X19169900Y1116000D02*
X20288800D01*
G01X19377700Y495300D02*
X19377500Y495500D01*
G01D02*
X19385300Y487600D01*
G01X19429000Y254200D02*
X19428300Y255000D01*
G01D02*
G02X19428000Y261800I2787J3530D01*
G01X19377700Y495300D02*
X19377500Y495500D01*
G01D02*
X19385300Y487600D01*
G01D02*
G02X19353800Y409200I-39333J-29725D01*
G01X19753400Y873500D02*
X19489700Y254200D01*
G01D02*
X19429000D01*
G01D02*
X19428300Y255000D01*
G01D02*
G02X19428000Y261800I2787J3530D01*
G01D02*
G03X19519400Y592300I-198617J232816D01*
G01X19377700Y495300D02*
X19377500Y495500D01*
G01D02*
X19385300Y487600D01*
G01D02*
G02X19353800Y409200I-39333J-29725D01*
G01X19519400Y592300D02*
X19268500Y841000D01*
G01D02*
G02X19310700Y874700I41121J-8221D01*
G01D02*
X19753400Y873500D01*
G01X20249900Y1021800D02*
X19257300D01*
G01X20249900D02*
X19257300D01*
G01X19971600Y171200D02*
X20395700Y1211800D01*
G01X19931900Y252200D02*
X19932200Y252700D01*
G01X19971600Y171200D02*
X20395700Y1211800D01*
G01X19971600Y171200D02*
X20395700Y1211800D01*
G01X19932200Y252700D02*
X20185200Y865100D01*
G01X19956600D02*
X19711700Y252200D01*
G01D02*
X19931900D01*
G01D02*
X19932200Y252700D01*
G01X20185200Y865100D02*
X19956600D01*
G01X20288800Y1116000D02*
X20249900Y1021800D01*
G01X20288800Y1116000D02*
X20249900Y1021800D01*
G01X22275000Y-762000D02*
Y0D01*
G01Y21000000D02*
Y21762000D01*
G01X25987500Y-762000D02*
Y0D01*
G01Y21000000D02*
Y21762000D01*
G01X30462000Y5250000D02*
X29700000D01*
G01Y10500000D02*
X30462000D01*
G01Y15750000D02*
X29700000D01*
G01X0Y0D02*
Y21000000D01*
X29700000D01*
Y0D01*
X0D01*
G01X18570000Y-2000D02*
X18577000Y-1000D01*
X18580000Y2270000D01*
Y2320000D01*
X29700000D01*
G01X18579000Y1400000D02*
X20540000D01*
Y10000D01*
G01X20520000Y470000D02*
X29700000D01*
G01X20540000Y1400000D02*
X29700000D01*
G01X25720000Y470000D02*
Y0D01*
G01X28410000Y1400000D02*
Y470000D01*
G54D12*
G01X-443000Y1651000D02*
X-372200Y1881000D01*
X-301400Y1651000D01*
G01X-326900Y1731500D02*
X-417500D01*
G01X-349500Y7844300D02*
X-338200Y7855800D01*
X-329700Y7874900D01*
X-324000Y7901800D01*
X-329700Y7924800D01*
X-341000Y7940100D01*
X-360900Y7951600D01*
X-437400D01*
Y7721600D01*
X-343900D01*
X-324000Y7736900D01*
X-312700Y7759900D01*
X-307000Y7786800D01*
X-312700Y7813600D01*
X-329700Y7836600D01*
X-349500Y7844300D01*
X-437400D01*
G01X-335300Y13291800D02*
X-352300Y13303300D01*
X-372100Y13311000D01*
X-394800D01*
X-420300Y13299500D01*
X-440100Y13280300D01*
X-454300Y13257300D01*
X-465600Y13219000D01*
X-468400Y13184500D01*
X-462800Y13150000D01*
X-454300Y13127000D01*
X-437300Y13104000D01*
X-417400Y13088700D01*
X-397600Y13081000D01*
X-377800D01*
X-357900Y13088700D01*
X-340900Y13100200D01*
X-326800Y13115500D01*
G01X-383700Y18059400D02*
Y18289400D01*
X-327100D01*
X-304400Y18277900D01*
X-287400Y18262600D01*
X-273200Y18239600D01*
X-261900Y18212700D01*
X-259100Y18174400D01*
X-261900Y18136100D01*
X-273200Y18109200D01*
X-287400Y18086200D01*
X-304400Y18070900D01*
X-327100Y18059400D01*
X-383700D01*
G01X1812200Y-685800D02*
X1832000Y-682000D01*
X1854700Y-670500D01*
X1868900Y-651300D01*
X1874500Y-624500D01*
X1868900Y-597600D01*
X1851900Y-574600D01*
X1826400Y-563100D01*
X1798000D01*
X1781000Y-555500D01*
X1766900Y-536300D01*
X1761200Y-509500D01*
X1769700Y-482600D01*
X1789500Y-463500D01*
X1812200Y-455800D01*
X1834900Y-463500D01*
X1854700Y-482600D01*
X1863200Y-509500D01*
X1857500Y-536300D01*
X1843400Y-555500D01*
X1826400Y-563100D01*
X1798000D01*
X1772500Y-574600D01*
X1755500Y-597600D01*
X1749900Y-624500D01*
X1755500Y-651300D01*
X1769700Y-670500D01*
X1792400Y-682000D01*
X1812200Y-685800D01*
G01Y21488400D02*
X1832000Y21492200D01*
X1854700Y21503700D01*
X1868900Y21522900D01*
X1874500Y21549700D01*
X1868900Y21576600D01*
X1851900Y21599600D01*
X1826400Y21611100D01*
X1798000D01*
X1781000Y21618700D01*
X1766900Y21637900D01*
X1761200Y21664700D01*
X1769700Y21691600D01*
X1789500Y21710700D01*
X1812200Y21718400D01*
X1834900Y21710700D01*
X1854700Y21691600D01*
X1863200Y21664700D01*
X1857500Y21637900D01*
X1843400Y21618700D01*
X1826400Y21611100D01*
X1798000D01*
X1772500Y21599600D01*
X1755500Y21576600D01*
X1749900Y21549700D01*
X1755500Y21522900D01*
X1769700Y21503700D01*
X1792400Y21492200D01*
X1812200Y21488400D01*
G01X5692700Y-584200D02*
X5698400Y-534400D01*
X5706900Y-492200D01*
X5718200Y-453900D01*
X5732400Y-411700D01*
X5755100Y-354200D01*
X5641700D01*
G01X5718100Y21463000D02*
X5723800Y21512800D01*
X5732300Y21555000D01*
X5743600Y21593300D01*
X5757800Y21635500D01*
X5780500Y21693000D01*
X5667100D01*
G01X9276800Y-513800D02*
X9296600Y-486900D01*
X9313600Y-471600D01*
X9336300Y-463900D01*
X9356100Y-471600D01*
X9370300Y-486900D01*
X9381600Y-509900D01*
X9384400Y-536800D01*
X9381600Y-559800D01*
X9370300Y-582800D01*
X9353300Y-601900D01*
X9333400Y-609600D01*
X9310800Y-601900D01*
X9290900Y-578900D01*
X9279600Y-544400D01*
X9276800Y-506100D01*
X9282400Y-456300D01*
X9290900Y-429400D01*
X9305100Y-402600D01*
X9324900Y-383400D01*
X9344800Y-379600D01*
X9364600Y-387300D01*
X9378800Y-406400D01*
G01X9403800Y21558800D02*
X9423600Y21585700D01*
X9440600Y21601000D01*
X9463300Y21608700D01*
X9483100Y21601000D01*
X9497300Y21585700D01*
X9508600Y21562700D01*
X9511400Y21535800D01*
X9508600Y21512800D01*
X9497300Y21489800D01*
X9480300Y21470700D01*
X9460400Y21463000D01*
X9437800Y21470700D01*
X9417900Y21493700D01*
X9406600Y21528200D01*
X9403800Y21566500D01*
X9409400Y21616300D01*
X9417900Y21643200D01*
X9432100Y21670000D01*
X9451900Y21689200D01*
X9471800Y21693000D01*
X9491600Y21685300D01*
X9505800Y21666200D01*
G01X13129100Y-498900D02*
X13146100Y-518100D01*
X13165900Y-529600D01*
X13191400Y-533400D01*
X13216900Y-525700D01*
X13236700Y-510400D01*
X13250900Y-483600D01*
X13253700Y-452900D01*
X13248100Y-422200D01*
X13233900Y-403100D01*
X13214100Y-387700D01*
X13194200Y-383900D01*
X13174400Y-387700D01*
X13148900Y-403100D01*
X13157400Y-303400D01*
X13233900D01*
G01X13129100Y21522900D02*
X13146100Y21503700D01*
X13165900Y21492200D01*
X13191400Y21488400D01*
X13216900Y21496100D01*
X13236700Y21511400D01*
X13250900Y21538200D01*
X13253700Y21568900D01*
X13248100Y21599600D01*
X13233900Y21618700D01*
X13214100Y21634100D01*
X13194200Y21637900D01*
X13174400Y21634100D01*
X13148900Y21618700D01*
X13157400Y21718400D01*
X13233900D01*
G01X16857600Y-584200D02*
Y-354200D01*
X16752800Y-519000D01*
X16894400D01*
G01X16857600Y21412200D02*
Y21642200D01*
X16752800Y21477400D01*
X16894400D01*
G01X20444300Y-563600D02*
X20461300Y-590400D01*
X20483900Y-605800D01*
X20509400Y-609600D01*
X20532100Y-605800D01*
X20554800Y-586600D01*
X20568900Y-563600D01*
X20571800Y-540600D01*
X20566100Y-513800D01*
X20546300Y-494600D01*
X20526400Y-486900D01*
X20500900D01*
G01X20526400D02*
X20543400Y-475400D01*
X20557600Y-456300D01*
X20563300Y-433300D01*
X20557600Y-410300D01*
X20543400Y-391100D01*
X20517900Y-379600D01*
X20492400Y-383400D01*
X20466900Y-398800D01*
G01X20495100Y21509000D02*
X20512100Y21482200D01*
X20534700Y21466800D01*
X20560200Y21463000D01*
X20582900Y21466800D01*
X20605600Y21486000D01*
X20619700Y21509000D01*
X20622600Y21532000D01*
X20616900Y21558800D01*
X20597100Y21578000D01*
X20577200Y21585700D01*
X20551700D01*
G01X20577200D02*
X20594200Y21597200D01*
X20608400Y21616300D01*
X20614100Y21639300D01*
X20608400Y21662300D01*
X20594200Y21681500D01*
X20568700Y21693000D01*
X20543200Y21689200D01*
X20517700Y21673800D01*
G01X24186600Y-417900D02*
X24203600Y-394900D01*
X24223400Y-383400D01*
X24246100Y-379600D01*
X24274400Y-387300D01*
X24294200Y-406400D01*
X24299900Y-429400D01*
X24297100Y-452400D01*
X24285700Y-471600D01*
X24229100Y-509900D01*
X24203600Y-536800D01*
X24186600Y-575100D01*
X24180900Y-609600D01*
X24299900D01*
G01X24262800Y21578500D02*
X24279800Y21601500D01*
X24299600Y21613000D01*
X24322300Y21616800D01*
X24350600Y21609100D01*
X24370400Y21590000D01*
X24376100Y21567000D01*
X24373300Y21544000D01*
X24361900Y21524800D01*
X24305300Y21486500D01*
X24279800Y21459600D01*
X24262800Y21421300D01*
X24257100Y21386800D01*
X24376100D01*
G01X28228200Y-533400D02*
Y-303400D01*
X28194200Y-349400D01*
G01Y-533400D02*
X28262200D01*
G01X28025000Y21310600D02*
Y21540600D01*
X27991000Y21494600D01*
G01Y21310600D02*
X28059000D01*
G01X30037000Y2743200D02*
X30107800Y2973200D01*
X30178600Y2743200D01*
G01X30153100Y2823700D02*
X30062500D01*
G01X30195500Y13368000D02*
X30178500Y13379500D01*
X30158700Y13387200D01*
X30136000D01*
X30110500Y13375700D01*
X30090700Y13356500D01*
X30076500Y13333500D01*
X30065200Y13295200D01*
X30062400Y13260700D01*
X30068000Y13226200D01*
X30076500Y13203200D01*
X30093500Y13180200D01*
X30113400Y13164900D01*
X30133200Y13157200D01*
X30153000D01*
X30172900Y13164900D01*
X30189900Y13176400D01*
X30204000Y13191700D01*
G01X30121700Y18465800D02*
Y18695800D01*
X30178300D01*
X30201000Y18684300D01*
X30218000Y18669000D01*
X30232200Y18646000D01*
X30243500Y18619100D01*
X30246300Y18580800D01*
X30243500Y18542500D01*
X30232200Y18515600D01*
X30218000Y18492600D01*
X30201000Y18477300D01*
X30178300Y18465800D01*
X30121700D01*
G01X30232100Y7945900D02*
X30243400Y7957400D01*
X30251900Y7976500D01*
X30257600Y8003400D01*
X30251900Y8026400D01*
X30240600Y8041700D01*
X30220700Y8053200D01*
X30144200D01*
Y7823200D01*
X30237700D01*
X30257600Y7838500D01*
X30268900Y7861500D01*
X30274600Y7888400D01*
X30268900Y7915200D01*
X30251900Y7938200D01*
X30232100Y7945900D01*
X30144200D01*
G54D13*
G01X14746100Y3527000D02*
Y3687000D01*
X14654900Y3527000D01*
Y3687000D01*
G01X14609100Y3527000D02*
X14559500Y3687000D01*
X14509900Y3527000D01*
G01X14527800Y3583000D02*
X14591200D01*
G01X14470100Y3527000D02*
Y3687000D01*
X14418500Y3553700D01*
X14366900Y3687000D01*
Y3527000D01*
G01X14237800D02*
X14317200D01*
Y3687000D01*
X14237800D01*
G01X14269600Y3609700D02*
X14317200D01*
G01X14196000Y3473700D02*
X14077000D01*
G01X14045100Y3527000D02*
X13995500Y3687000D01*
X13945900Y3527000D01*
G01X13963800Y3583000D02*
X14027200D01*
G01X13896200Y3548300D02*
X13880300Y3535000D01*
X13862400Y3527000D01*
X13846600D01*
X13830700Y3535000D01*
X13818800Y3548300D01*
X13812800Y3567000D01*
X13816800Y3585700D01*
X13826700Y3601700D01*
X13844600Y3612300D01*
X13868400Y3617700D01*
X13882300Y3628300D01*
X13888200Y3647000D01*
X13884200Y3665700D01*
X13874300Y3679000D01*
X13860500Y3687000D01*
X13846600D01*
X13832700Y3681700D01*
X13820800Y3668300D01*
G01X13755200Y3548300D02*
X13739300Y3535000D01*
X13721400Y3527000D01*
X13705600D01*
X13689700Y3535000D01*
X13677800Y3548300D01*
X13671800Y3567000D01*
X13675800Y3585700D01*
X13685700Y3601700D01*
X13703600Y3612300D01*
X13727400Y3617700D01*
X13741300Y3628300D01*
X13747200Y3647000D01*
X13743200Y3665700D01*
X13733300Y3679000D01*
X13719500Y3687000D01*
X13705600D01*
X13691700Y3681700D01*
X13679800Y3668300D01*
G01X13532800Y3527000D02*
X13612200D01*
Y3687000D01*
X13532800D01*
G01X13564600Y3609700D02*
X13612200D01*
G01X13483100Y3527000D02*
Y3687000D01*
X13431500Y3553700D01*
X13379900Y3687000D01*
Y3527000D01*
G01X13274600Y3612300D02*
X13266700Y3620300D01*
X13260800Y3633700D01*
X13256800Y3652300D01*
X13260800Y3668300D01*
X13268700Y3679000D01*
X13282600Y3687000D01*
X13336100D01*
Y3527000D01*
X13270700D01*
X13256800Y3537700D01*
X13248800Y3553700D01*
X13244900Y3572300D01*
X13248800Y3591000D01*
X13260800Y3607000D01*
X13274600Y3612300D01*
X13336100D01*
G01X13189200Y3687000D02*
Y3527000D01*
X13109800D01*
G01X13008500D02*
Y3599000D01*
X13048200Y3687000D01*
G01X12968800D02*
X13008500Y3599000D01*
G01X12851600Y3612300D02*
X12843700Y3620300D01*
X12837800Y3633700D01*
X12833800Y3652300D01*
X12837800Y3668300D01*
X12845700Y3679000D01*
X12859600Y3687000D01*
X12913100D01*
Y3527000D01*
X12847700D01*
X12833800Y3537700D01*
X12825800Y3553700D01*
X12821900Y3572300D01*
X12825800Y3591000D01*
X12837800Y3607000D01*
X12851600Y3612300D01*
X12913100D01*
G01X12726500Y3527000D02*
X12742400Y3529700D01*
X12756200Y3540300D01*
X12768200Y3556300D01*
X12776100Y3575000D01*
X12780100Y3596300D01*
Y3617700D01*
X12776100Y3639000D01*
X12768200Y3657700D01*
X12756200Y3673700D01*
X12742400Y3684300D01*
X12726500Y3687000D01*
X12710600Y3684300D01*
X12696800Y3673700D01*
X12684800Y3657700D01*
X12676900Y3639000D01*
X12672900Y3617700D01*
Y3596300D01*
X12676900Y3575000D01*
X12684800Y3556300D01*
X12696800Y3540300D01*
X12710600Y3529700D01*
X12726500Y3527000D01*
G01X12585500Y3687000D02*
Y3527000D01*
G01X12631100Y3687000D02*
X12539900D01*
G01X12444500D02*
Y3527000D01*
G01X12490100Y3687000D02*
X12398900D01*
G01X12303500Y3527000D02*
X12319400Y3529700D01*
X12333200Y3540300D01*
X12345200Y3556300D01*
X12353100Y3575000D01*
X12357100Y3596300D01*
Y3617700D01*
X12353100Y3639000D01*
X12345200Y3657700D01*
X12333200Y3673700D01*
X12319400Y3684300D01*
X12303500Y3687000D01*
X12287600Y3684300D01*
X12273800Y3673700D01*
X12261800Y3657700D01*
X12253900Y3639000D01*
X12249900Y3617700D01*
Y3596300D01*
X12253900Y3575000D01*
X12261800Y3556300D01*
X12273800Y3540300D01*
X12287600Y3529700D01*
X12303500Y3527000D01*
G01X12214100D02*
Y3687000D01*
X12162500Y3553700D01*
X12110900Y3687000D01*
Y3527000D01*
G01X18715500Y1952000D02*
Y1792000D01*
G01X18669900Y1952000D02*
X18761100D01*
G01X18832700D02*
X18880300D01*
G01X18856500D02*
Y1792000D01*
G01X18832700D02*
X18880300D01*
G01X18997500Y1952000D02*
Y1792000D01*
G01X18951900Y1952000D02*
X19043100D01*
G01X19098800D02*
Y1792000D01*
X19178200D01*
G01X19319200D02*
X19239800D01*
Y1952000D01*
X19319200D01*
G01X19287400Y1874700D02*
X19239800D01*
G01X19420500Y1786700D02*
X19416500Y1789300D01*
Y1794700D01*
X19420500Y1797300D01*
X19424500Y1794700D01*
Y1789300D01*
X19420500Y1786700D01*
G01Y1858700D02*
X19416500Y1861300D01*
Y1866700D01*
X19420500Y1869300D01*
X19424500Y1866700D01*
Y1861300D01*
X19420500Y1858700D01*
G01X19577400Y1877300D02*
X19585300Y1885300D01*
X19591200Y1898700D01*
X19595200Y1917300D01*
X19591200Y1933300D01*
X19583300Y1944000D01*
X19569400Y1952000D01*
X19515900D01*
Y1792000D01*
X19581300D01*
X19595200Y1802700D01*
X19603200Y1818700D01*
X19607100Y1837300D01*
X19603200Y1856000D01*
X19591200Y1872000D01*
X19577400Y1877300D01*
X19515900D01*
G01X19662800Y1952000D02*
Y1792000D01*
X19742200D01*
G01X19799900Y1952000D02*
Y1837300D01*
X19807800Y1813300D01*
X19823700Y1797300D01*
X19843500Y1792000D01*
X19863300Y1797300D01*
X19879200Y1813300D01*
X19887100Y1837300D01*
Y1952000D01*
G01X20024200Y1792000D02*
X19944800D01*
Y1952000D01*
X20024200D01*
G01X19992400Y1874700D02*
X19944800D01*
G01X20066000Y1738700D02*
X20185000D01*
G01X20220900Y1792000D02*
Y1952000D01*
X20312100Y1792000D01*
Y1952000D01*
G01X20367800Y1792000D02*
Y1952000D01*
X20417400D01*
X20433300Y1944000D01*
X20443200Y1933300D01*
X20447200Y1912000D01*
X20443200Y1890700D01*
X20431300Y1877300D01*
X20417400Y1869300D01*
X20367800D01*
G01X20417400D02*
X20447200Y1792000D01*
G01X20560400Y1872000D02*
X20600100D01*
Y1824000D01*
X20588200Y1808000D01*
X20574300Y1797300D01*
X20554500Y1792000D01*
X20534600Y1797300D01*
X20520700Y1808000D01*
X20508800Y1824000D01*
X20500900Y1842700D01*
X20496900Y1864000D01*
Y1882700D01*
X20500900Y1898700D01*
X20508800Y1917300D01*
X20520700Y1933300D01*
X20532600Y1944000D01*
X20548500Y1952000D01*
X20562400D01*
X20578200Y1946700D01*
X20590200Y1936000D01*
G01X20630000Y1738700D02*
X20749000D01*
G01X20786900Y1792000D02*
Y1952000D01*
X20826500D01*
X20842400Y1944000D01*
X20854300Y1933300D01*
X20864200Y1917300D01*
X20872200Y1898700D01*
X20874100Y1872000D01*
X20872200Y1845300D01*
X20864200Y1826700D01*
X20854300Y1810700D01*
X20842400Y1800000D01*
X20826500Y1792000D01*
X20786900D01*
G01X20971500D02*
X20955600Y1794700D01*
X20941800Y1805300D01*
X20929800Y1821300D01*
X20921900Y1840000D01*
X20917900Y1861300D01*
Y1882700D01*
X20921900Y1904000D01*
X20929800Y1922700D01*
X20941800Y1938700D01*
X20955600Y1949300D01*
X20971500Y1952000D01*
X20987400Y1949300D01*
X21001200Y1938700D01*
X21013200Y1922700D01*
X21021100Y1904000D01*
X21025100Y1882700D01*
Y1861300D01*
X21021100Y1840000D01*
X21013200Y1821300D01*
X21001200Y1805300D01*
X20987400Y1794700D01*
X20971500Y1792000D01*
G01X21066900D02*
Y1952000D01*
X21158100Y1792000D01*
Y1952000D01*
G01X21265400Y1872000D02*
X21305100D01*
Y1824000D01*
X21293200Y1808000D01*
X21279300Y1797300D01*
X21259500Y1792000D01*
X21239600Y1797300D01*
X21225700Y1808000D01*
X21213800Y1824000D01*
X21205900Y1842700D01*
X21201900Y1864000D01*
Y1882700D01*
X21205900Y1898700D01*
X21213800Y1917300D01*
X21225700Y1933300D01*
X21237600Y1944000D01*
X21253500Y1952000D01*
X21267400D01*
X21283200Y1946700D01*
X21295200Y1936000D01*
G01X21354800Y1952000D02*
Y1792000D01*
X21434200D01*
G01X21575200D02*
X21495800D01*
Y1952000D01*
X21575200D01*
G01X21543400Y1874700D02*
X21495800D01*
G01X20687900Y128000D02*
Y288000D01*
X20727500D01*
X20743400Y280000D01*
X20755300Y269300D01*
X20765200Y253300D01*
X20773200Y234700D01*
X20775100Y208000D01*
X20773200Y181300D01*
X20765200Y162700D01*
X20755300Y146700D01*
X20743400Y136000D01*
X20727500Y128000D01*
X20687900D01*
G01X20822900D02*
X20872500Y288000D01*
X20922100Y128000D01*
G01X20904200Y184000D02*
X20840800D01*
G01X21013500Y288000D02*
Y128000D01*
G01X20967900Y288000D02*
X21059100D01*
G01X21194200Y128000D02*
X21114800D01*
Y288000D01*
X21194200D01*
G01X21162400Y210700D02*
X21114800D01*
G01X21436500Y122700D02*
X21432500Y125300D01*
Y130700D01*
X21436500Y133300D01*
X21440500Y130700D01*
Y125300D01*
X21436500Y122700D01*
G01Y194700D02*
X21432500Y197300D01*
Y202700D01*
X21436500Y205300D01*
X21440500Y202700D01*
Y197300D01*
X21436500Y194700D01*
G01X21674900Y160000D02*
X21686800Y141300D01*
X21702600Y130700D01*
X21720500Y128000D01*
X21736400Y130700D01*
X21752200Y144000D01*
X21762100Y160000D01*
X21764100Y176000D01*
X21760200Y194700D01*
X21746300Y208000D01*
X21732400Y213300D01*
X21714500D01*
G01X21732400D02*
X21744300Y221300D01*
X21754200Y234700D01*
X21758200Y250700D01*
X21754200Y266700D01*
X21744300Y280000D01*
X21726400Y288000D01*
X21708600Y285300D01*
X21690700Y274700D01*
G01X21859500Y128000D02*
Y288000D01*
X21835700Y256000D01*
G01Y128000D02*
X21883300D01*
G01X22141500D02*
X22125600Y130700D01*
X22111800Y141300D01*
X22099800Y157300D01*
X22091900Y176000D01*
X22087900Y197300D01*
Y218700D01*
X22091900Y240000D01*
X22099800Y258700D01*
X22111800Y274700D01*
X22125600Y285300D01*
X22141500Y288000D01*
X22157400Y285300D01*
X22171200Y274700D01*
X22183200Y258700D01*
X22191100Y240000D01*
X22195100Y218700D01*
Y197300D01*
X22191100Y176000D01*
X22183200Y157300D01*
X22171200Y141300D01*
X22157400Y130700D01*
X22141500Y128000D01*
G01X22326100Y274700D02*
X22314200Y282700D01*
X22300400Y288000D01*
X22284500D01*
X22266600Y280000D01*
X22252800Y266700D01*
X22242800Y250700D01*
X22234900Y224000D01*
X22232900Y200000D01*
X22236900Y176000D01*
X22242800Y160000D01*
X22254700Y144000D01*
X22268600Y133300D01*
X22282500Y128000D01*
X22296400D01*
X22310300Y133300D01*
X22322200Y141300D01*
X22332100Y152000D01*
G01X22423500Y288000D02*
Y128000D01*
G01X22377900Y288000D02*
X22469100D01*
G01X22564500Y128000D02*
X22548600Y130700D01*
X22534800Y141300D01*
X22522800Y157300D01*
X22514900Y176000D01*
X22510900Y197300D01*
Y218700D01*
X22514900Y240000D01*
X22522800Y258700D01*
X22534800Y274700D01*
X22548600Y285300D01*
X22564500Y288000D01*
X22580400Y285300D01*
X22594200Y274700D01*
X22606200Y258700D01*
X22614100Y240000D01*
X22618100Y218700D01*
Y197300D01*
X22614100Y176000D01*
X22606200Y157300D01*
X22594200Y141300D01*
X22580400Y130700D01*
X22564500Y128000D01*
G01X22721400Y213300D02*
X22729300Y221300D01*
X22735200Y234700D01*
X22739200Y253300D01*
X22735200Y269300D01*
X22727300Y280000D01*
X22713400Y288000D01*
X22659900D01*
Y128000D01*
X22725300D01*
X22739200Y138700D01*
X22747200Y154700D01*
X22751100Y173300D01*
X22747200Y192000D01*
X22735200Y208000D01*
X22721400Y213300D01*
X22659900D01*
G01X22886200Y128000D02*
X22806800D01*
Y288000D01*
X22886200D01*
G01X22854400Y210700D02*
X22806800D01*
G01X22947800Y128000D02*
Y288000D01*
X22997400D01*
X23013300Y280000D01*
X23023200Y269300D01*
X23027200Y248000D01*
X23023200Y226700D01*
X23011300Y213300D01*
X22997400Y205300D01*
X22947800D01*
G01X22997400D02*
X23027200Y128000D01*
G01X23231800Y261300D02*
X23243700Y277300D01*
X23257600Y285300D01*
X23273500Y288000D01*
X23293300Y282700D01*
X23307200Y269300D01*
X23311200Y253300D01*
X23309200Y237300D01*
X23301200Y224000D01*
X23261600Y197300D01*
X23243700Y178700D01*
X23231800Y152000D01*
X23227800Y128000D01*
X23311200D01*
G01X23410500Y288000D02*
X23394600Y282700D01*
X23382700Y269300D01*
X23374800Y253300D01*
X23368800Y232000D01*
X23366900Y208000D01*
X23368800Y184000D01*
X23374800Y162700D01*
X23382700Y146700D01*
X23394600Y133300D01*
X23410500Y128000D01*
X23426400Y133300D01*
X23438300Y146700D01*
X23446200Y162700D01*
X23452200Y184000D01*
X23454100Y208000D01*
X23452200Y232000D01*
X23446200Y253300D01*
X23438300Y269300D01*
X23426400Y282700D01*
X23410500Y288000D01*
G01X23551500Y128000D02*
Y288000D01*
X23527700Y256000D01*
G01Y128000D02*
X23575300D01*
G01X23648900Y160000D02*
X23660800Y141300D01*
X23676600Y130700D01*
X23694500Y128000D01*
X23710400Y130700D01*
X23726200Y144000D01*
X23736100Y160000D01*
X23738100Y176000D01*
X23734200Y194700D01*
X23720300Y208000D01*
X23706400Y213300D01*
X23688500D01*
G01X23706400D02*
X23718300Y221300D01*
X23728200Y234700D01*
X23732200Y250700D01*
X23728200Y266700D01*
X23718300Y280000D01*
X23700400Y288000D01*
X23682600Y285300D01*
X23664700Y274700D01*
G01X20591900Y1056000D02*
Y1216000D01*
X20631500D01*
X20647400Y1208000D01*
X20659300Y1197300D01*
X20669200Y1181300D01*
X20677200Y1162700D01*
X20679100Y1136000D01*
X20677200Y1109300D01*
X20669200Y1090700D01*
X20659300Y1074700D01*
X20647400Y1064000D01*
X20631500Y1056000D01*
X20591900D01*
G01X20776500D02*
X20760600Y1058700D01*
X20746800Y1069300D01*
X20734800Y1085300D01*
X20726900Y1104000D01*
X20722900Y1125300D01*
Y1146700D01*
X20726900Y1168000D01*
X20734800Y1186700D01*
X20746800Y1202700D01*
X20760600Y1213300D01*
X20776500Y1216000D01*
X20792400Y1213300D01*
X20806200Y1202700D01*
X20818200Y1186700D01*
X20826100Y1168000D01*
X20830100Y1146700D01*
Y1125300D01*
X20826100Y1104000D01*
X20818200Y1085300D01*
X20806200Y1069300D01*
X20792400Y1058700D01*
X20776500Y1056000D01*
G01X20961100Y1202700D02*
X20949200Y1210700D01*
X20935400Y1216000D01*
X20919500D01*
X20901600Y1208000D01*
X20887800Y1194700D01*
X20877800Y1178700D01*
X20869900Y1152000D01*
X20867900Y1128000D01*
X20871900Y1104000D01*
X20877800Y1088000D01*
X20889700Y1072000D01*
X20903600Y1061300D01*
X20917500Y1056000D01*
X20931400D01*
X20945300Y1061300D01*
X20957200Y1069300D01*
X20967100Y1080000D01*
G01X21014900Y1216000D02*
Y1101300D01*
X21022800Y1077300D01*
X21038700Y1061300D01*
X21058500Y1056000D01*
X21078300Y1061300D01*
X21094200Y1077300D01*
X21102100Y1101300D01*
Y1216000D01*
G01X21147900Y1056000D02*
Y1216000D01*
X21199500Y1082700D01*
X21251100Y1216000D01*
Y1056000D01*
G01X21380200D02*
X21300800D01*
Y1216000D01*
X21380200D01*
G01X21348400Y1138700D02*
X21300800D01*
G01X21435900Y1056000D02*
Y1216000D01*
X21527100Y1056000D01*
Y1216000D01*
G01X21622500D02*
Y1056000D01*
G01X21576900Y1216000D02*
X21668100D01*
G01X21763500Y1050700D02*
X21759500Y1053300D01*
Y1058700D01*
X21763500Y1061300D01*
X21767500Y1058700D01*
Y1053300D01*
X21763500Y1050700D01*
G01Y1122700D02*
X21759500Y1125300D01*
Y1130700D01*
X21763500Y1133300D01*
X21767500Y1130700D01*
Y1125300D01*
X21763500Y1122700D01*
G01X21920400Y1141300D02*
X21928300Y1149300D01*
X21934200Y1162700D01*
X21938200Y1181300D01*
X21934200Y1197300D01*
X21926300Y1208000D01*
X21912400Y1216000D01*
X21858900D01*
Y1056000D01*
X21924300D01*
X21938200Y1066700D01*
X21946200Y1082700D01*
X21950100Y1101300D01*
X21946200Y1120000D01*
X21934200Y1136000D01*
X21920400Y1141300D01*
X21858900D01*
G01X22005800Y1216000D02*
Y1056000D01*
X22085200D01*
G01X22142900Y1216000D02*
Y1101300D01*
X22150800Y1077300D01*
X22166700Y1061300D01*
X22186500Y1056000D01*
X22206300Y1061300D01*
X22222200Y1077300D01*
X22230100Y1101300D01*
Y1216000D01*
G01X22367200Y1056000D02*
X22287800D01*
Y1216000D01*
X22367200D01*
G01X22335400Y1138700D02*
X22287800D01*
G01X22409000Y1002700D02*
X22528000D01*
G01X22563900Y1056000D02*
Y1216000D01*
X22655100Y1056000D01*
Y1216000D01*
G01X22710800Y1056000D02*
Y1216000D01*
X22760400D01*
X22776300Y1208000D01*
X22786200Y1197300D01*
X22790200Y1176000D01*
X22786200Y1154700D01*
X22774300Y1141300D01*
X22760400Y1133300D01*
X22710800D01*
G01X22760400D02*
X22790200Y1056000D01*
G01X22903400Y1136000D02*
X22943100D01*
Y1088000D01*
X22931200Y1072000D01*
X22917300Y1061300D01*
X22897500Y1056000D01*
X22877600Y1061300D01*
X22863700Y1072000D01*
X22851800Y1088000D01*
X22843900Y1106700D01*
X22839900Y1128000D01*
Y1146700D01*
X22843900Y1162700D01*
X22851800Y1181300D01*
X22863700Y1197300D01*
X22875600Y1208000D01*
X22891500Y1216000D01*
X22905400D01*
X22921200Y1210700D01*
X22933200Y1200000D01*
G01X22973000Y1002700D02*
X23092000D01*
G01X23129900Y1056000D02*
Y1216000D01*
X23169500D01*
X23185400Y1208000D01*
X23197300Y1197300D01*
X23207200Y1181300D01*
X23215200Y1162700D01*
X23217100Y1136000D01*
X23215200Y1109300D01*
X23207200Y1090700D01*
X23197300Y1074700D01*
X23185400Y1064000D01*
X23169500Y1056000D01*
X23129900D01*
G01X23314500D02*
X23298600Y1058700D01*
X23284800Y1069300D01*
X23272800Y1085300D01*
X23264900Y1104000D01*
X23260900Y1125300D01*
Y1146700D01*
X23264900Y1168000D01*
X23272800Y1186700D01*
X23284800Y1202700D01*
X23298600Y1213300D01*
X23314500Y1216000D01*
X23330400Y1213300D01*
X23344200Y1202700D01*
X23356200Y1186700D01*
X23364100Y1168000D01*
X23368100Y1146700D01*
Y1125300D01*
X23364100Y1104000D01*
X23356200Y1085300D01*
X23344200Y1069300D01*
X23330400Y1058700D01*
X23314500Y1056000D01*
G01X23409900D02*
Y1216000D01*
X23501100Y1056000D01*
Y1216000D01*
G01X23608400Y1136000D02*
X23648100D01*
Y1088000D01*
X23636200Y1072000D01*
X23622300Y1061300D01*
X23602500Y1056000D01*
X23582600Y1061300D01*
X23568700Y1072000D01*
X23556800Y1088000D01*
X23548900Y1106700D01*
X23544900Y1128000D01*
Y1146700D01*
X23548900Y1162700D01*
X23556800Y1181300D01*
X23568700Y1197300D01*
X23580600Y1208000D01*
X23596500Y1216000D01*
X23610400D01*
X23626200Y1210700D01*
X23638200Y1200000D01*
G01X23697800Y1216000D02*
Y1056000D01*
X23777200D01*
G01X23918200D02*
X23838800D01*
Y1216000D01*
X23918200D01*
G01X23886400Y1138700D02*
X23838800D01*
G01X25873800Y181300D02*
X25889700Y168000D01*
X25907600Y160000D01*
X25923400D01*
X25939300Y168000D01*
X25951200Y181300D01*
X25957200Y200000D01*
X25953200Y218700D01*
X25943300Y234700D01*
X25925400Y245300D01*
X25901600Y250700D01*
X25887700Y261300D01*
X25881800Y280000D01*
X25885800Y298700D01*
X25895700Y312000D01*
X25909500Y320000D01*
X25923400D01*
X25937300Y314700D01*
X25949200Y301300D01*
G01X26014800Y160000D02*
Y320000D01*
G01X26098200D02*
Y160000D01*
G01Y240000D02*
X26014800D01*
G01X26237200Y160000D02*
X26157800D01*
Y320000D01*
X26237200D01*
G01X26205400Y242700D02*
X26157800D01*
G01X26378200Y160000D02*
X26298800D01*
Y320000D01*
X26378200D01*
G01X26346400Y242700D02*
X26298800D01*
G01X26479500Y320000D02*
Y160000D01*
G01X26433900Y320000D02*
X26525100D01*
G01X26761500Y154700D02*
X26757500Y157300D01*
Y162700D01*
X26761500Y165300D01*
X26765500Y162700D01*
Y157300D01*
X26761500Y154700D01*
G01Y226700D02*
X26757500Y229300D01*
Y234700D01*
X26761500Y237300D01*
X26765500Y234700D01*
Y229300D01*
X26761500Y226700D01*
G01X27043500Y160000D02*
Y320000D01*
X27019700Y288000D01*
G01Y160000D02*
X27067300D01*
G01X28155500D02*
X28139600Y162700D01*
X28125800Y173300D01*
X28113800Y189300D01*
X28105900Y208000D01*
X28101900Y229300D01*
Y250700D01*
X28105900Y272000D01*
X28113800Y290700D01*
X28125800Y306700D01*
X28139600Y317300D01*
X28155500Y320000D01*
X28171400Y317300D01*
X28185200Y306700D01*
X28197200Y290700D01*
X28205100Y272000D01*
X28209100Y250700D01*
Y229300D01*
X28205100Y208000D01*
X28197200Y189300D01*
X28185200Y173300D01*
X28171400Y162700D01*
X28155500Y160000D01*
G01X28258800D02*
Y320000D01*
X28334200D01*
G01X28306400Y242700D02*
X28258800D01*
G01X28578500Y154700D02*
X28574500Y157300D01*
Y162700D01*
X28578500Y165300D01*
X28582500Y162700D01*
Y157300D01*
X28578500Y154700D01*
G01Y226700D02*
X28574500Y229300D01*
Y234700D01*
X28578500Y237300D01*
X28582500Y234700D01*
Y229300D01*
X28578500Y226700D01*
G01X28860500Y160000D02*
Y320000D01*
X28836700Y288000D01*
G01Y160000D02*
X28884300D01*
G01X28499800Y736000D02*
Y896000D01*
X28549400D01*
X28565300Y888000D01*
X28575200Y877300D01*
X28579200Y856000D01*
X28575200Y834700D01*
X28563300Y821300D01*
X28549400Y813300D01*
X28499800D01*
G01X28549400D02*
X28579200Y736000D01*
G01X28720200D02*
X28640800D01*
Y896000D01*
X28720200D01*
G01X28688400Y818700D02*
X28640800D01*
G01X28771900Y896000D02*
X28821500Y736000D01*
X28871100Y896000D01*
G01X28962500Y730700D02*
X28958500Y733300D01*
Y738700D01*
X28962500Y741300D01*
X28966500Y738700D01*
Y733300D01*
X28962500Y730700D01*
G01X29244500Y736000D02*
Y896000D01*
X29220700Y864000D01*
G01Y736000D02*
X29268300D01*
G54D14*
G01X8936900Y1485300D02*
X8946400Y1494800D01*
X8953500Y1510700D01*
X8958200Y1532800D01*
X8953500Y1551800D01*
X8944000Y1564500D01*
X8927500Y1574000D01*
X8863600D01*
Y1384000D01*
X8941700D01*
X8958200Y1396700D01*
X8967700Y1415700D01*
X8972400Y1437800D01*
X8967700Y1460000D01*
X8953500Y1479000D01*
X8936900Y1485300D01*
X8863600D01*
G01X9088000Y1384000D02*
X9069100Y1387200D01*
X9052500Y1399800D01*
X9038300Y1418800D01*
X9028800Y1441000D01*
X9024100Y1466300D01*
Y1491700D01*
X9028800Y1517000D01*
X9038300Y1539200D01*
X9052500Y1558200D01*
X9069100Y1570800D01*
X9088000Y1574000D01*
X9106900Y1570800D01*
X9123500Y1558200D01*
X9137700Y1539200D01*
X9147200Y1517000D01*
X9151900Y1491700D01*
Y1466300D01*
X9147200Y1441000D01*
X9137700Y1418800D01*
X9123500Y1399800D01*
X9106900Y1387200D01*
X9088000Y1384000D01*
G01X9258000Y1574000D02*
Y1384000D01*
G01X9203600Y1574000D02*
X9312400D01*
G01X8869000Y2441000D02*
Y2251000D01*
G01X8814600Y2441000D02*
X8923400D01*
G01X9039000Y2251000D02*
X9020100Y2254200D01*
X9003500Y2266800D01*
X8989300Y2285800D01*
X8979800Y2308000D01*
X8975100Y2333300D01*
Y2358700D01*
X8979800Y2384000D01*
X8989300Y2406200D01*
X9003500Y2425200D01*
X9020100Y2437800D01*
X9039000Y2441000D01*
X9057900Y2437800D01*
X9074500Y2425200D01*
X9088700Y2406200D01*
X9098200Y2384000D01*
X9102900Y2358700D01*
Y2333300D01*
X9098200Y2308000D01*
X9088700Y2285800D01*
X9074500Y2266800D01*
X9057900Y2254200D01*
X9039000Y2251000D01*
G01X9161700D02*
Y2441000D01*
X9218500D01*
X9237400Y2431500D01*
X9251600Y2409300D01*
X9256300Y2384000D01*
X9251600Y2358700D01*
X9239800Y2339700D01*
X9218500Y2330200D01*
X9161700D01*
G01X11556800Y2840000D02*
X11616000Y2650000D01*
X11675200Y2840000D01*
G01X11757600D02*
X11814400D01*
G01X11786000D02*
Y2650000D01*
G01X11757600D02*
X11814400D01*
G01X11896800D02*
X11956000Y2840000D01*
X12015200Y2650000D01*
G01X11993900Y2716500D02*
X11918100D01*
G01X12076300Y2675300D02*
X12095200Y2659500D01*
X12116500Y2650000D01*
X12135500D01*
X12154400Y2659500D01*
X12168600Y2675300D01*
X12175700Y2697500D01*
X12171000Y2719700D01*
X12159100Y2738700D01*
X12137800Y2751300D01*
X12109400Y2757700D01*
X12092900Y2770300D01*
X12085800Y2792500D01*
X12090500Y2814700D01*
X12102300Y2830500D01*
X12118900Y2840000D01*
X12135500D01*
X12152000Y2833700D01*
X12166200Y2817800D01*
G01X12466000Y2840000D02*
X12447100Y2833700D01*
X12432900Y2817800D01*
X12423400Y2798800D01*
X12416300Y2773500D01*
X12413900Y2745000D01*
X12416300Y2716500D01*
X12423400Y2691200D01*
X12432900Y2672200D01*
X12447100Y2656300D01*
X12466000Y2650000D01*
X12484900Y2656300D01*
X12499100Y2672200D01*
X12508600Y2691200D01*
X12515700Y2716500D01*
X12518100Y2745000D01*
X12515700Y2773500D01*
X12508600Y2798800D01*
X12499100Y2817800D01*
X12484900Y2833700D01*
X12466000Y2840000D01*
G01X12636000Y2643700D02*
X12631300Y2646800D01*
Y2653200D01*
X12636000Y2656300D01*
X12640700Y2653200D01*
Y2646800D01*
X12636000Y2643700D01*
G01X12761000Y2808300D02*
X12775200Y2827300D01*
X12791800Y2836800D01*
X12810700Y2840000D01*
X12834400Y2833700D01*
X12851000Y2817800D01*
X12855700Y2798800D01*
X12853300Y2779800D01*
X12843900Y2764000D01*
X12796500Y2732300D01*
X12775200Y2710200D01*
X12761000Y2678500D01*
X12756300Y2650000D01*
X12855700D01*
G01X12905000D02*
Y2776700D01*
G01Y2741800D02*
X12912100Y2757700D01*
X12923900Y2770300D01*
X12940500Y2776700D01*
X12957100Y2770300D01*
X12968900Y2757700D01*
X12976000Y2741800D01*
Y2650000D01*
G01Y2741800D02*
X12983100Y2757700D01*
X12994900Y2770300D01*
X13011500Y2776700D01*
X13028100Y2770300D01*
X13039900Y2757700D01*
X13047000Y2738700D01*
Y2650000D01*
G01X13075000D02*
Y2776700D01*
G01Y2741800D02*
X13082100Y2757700D01*
X13093900Y2770300D01*
X13110500Y2776700D01*
X13127100Y2770300D01*
X13138900Y2757700D01*
X13146000Y2741800D01*
Y2650000D01*
G01Y2741800D02*
X13153100Y2757700D01*
X13164900Y2770300D01*
X13181500Y2776700D01*
X13198100Y2770300D01*
X13209900Y2757700D01*
X13217000Y2738700D01*
Y2650000D01*
G01X15114500Y2743000D02*
Y2933000D01*
X15176000Y2774700D01*
X15237500Y2933000D01*
Y2743000D01*
G01X15286800D02*
X15346000Y2933000D01*
X15405200Y2743000D01*
G01X15383900Y2809500D02*
X15308100D01*
G01X15516000Y2933000D02*
Y2743000D01*
G01X15461600Y2933000D02*
X15570400D01*
G01X15733300Y2743000D02*
X15638700D01*
Y2933000D01*
X15733300D01*
G01X15695500Y2841200D02*
X15638700D01*
G01X15808700Y2743000D02*
Y2933000D01*
X15867800D01*
X15886800Y2923500D01*
X15898600Y2910800D01*
X15903300Y2885500D01*
X15898600Y2860200D01*
X15884400Y2844300D01*
X15867800Y2834800D01*
X15808700D01*
G01X15867800D02*
X15903300Y2743000D01*
G01X15997600Y2933000D02*
X16054400D01*
G01X16026000D02*
Y2743000D01*
G01X15997600D02*
X16054400D01*
G01X16136800D02*
X16196000Y2933000D01*
X16255200Y2743000D01*
G01X16233900Y2809500D02*
X16158100D01*
G01X16318700Y2933000D02*
Y2743000D01*
X16413300D01*
G01X16661000D02*
Y2933000D01*
X16751000D01*
G01X16717800Y2841200D02*
X16661000D01*
G01X16828700Y2743000D02*
Y2933000D01*
X16887800D01*
X16906800Y2923500D01*
X16918600Y2910800D01*
X16923300Y2885500D01*
X16918600Y2860200D01*
X16904400Y2844300D01*
X16887800Y2834800D01*
X16828700D01*
G01X16887800D02*
X16923300Y2743000D01*
G01X17074400D02*
Y2933000D01*
X16986800Y2796800D01*
X17105200D01*
G01X17336300Y2768300D02*
X17355200Y2752500D01*
X17376500Y2743000D01*
X17395500D01*
X17414400Y2752500D01*
X17428600Y2768300D01*
X17435700Y2790500D01*
X17431000Y2812700D01*
X17419100Y2831700D01*
X17397800Y2844300D01*
X17369400Y2850700D01*
X17352900Y2863300D01*
X17345800Y2885500D01*
X17350500Y2907700D01*
X17362300Y2923500D01*
X17378900Y2933000D01*
X17395500D01*
X17412000Y2926700D01*
X17426200Y2910800D01*
G01X17556000Y2933000D02*
Y2743000D01*
G01X17501600Y2933000D02*
X17610400D01*
G01X17666800Y2743000D02*
X17726000Y2933000D01*
X17785200Y2743000D01*
G01X17763900Y2809500D02*
X17688100D01*
G01X17841600Y2743000D02*
Y2933000D01*
X17950400Y2743000D01*
Y2933000D01*
G01X18013900Y2743000D02*
Y2933000D01*
X18061300D01*
X18080200Y2923500D01*
X18094400Y2910800D01*
X18106200Y2891800D01*
X18115700Y2869700D01*
X18118100Y2838000D01*
X18115700Y2806300D01*
X18106200Y2784200D01*
X18094400Y2765200D01*
X18080200Y2752500D01*
X18061300Y2743000D01*
X18013900D01*
G01X18176800D02*
X18236000Y2933000D01*
X18295200Y2743000D01*
G01X18273900Y2809500D02*
X18198100D01*
G01X18358700Y2743000D02*
Y2933000D01*
X18417800D01*
X18436800Y2923500D01*
X18448600Y2910800D01*
X18453300Y2885500D01*
X18448600Y2860200D01*
X18434400Y2844300D01*
X18417800Y2834800D01*
X18358700D01*
G01X18417800D02*
X18453300Y2743000D01*
G01X18523900D02*
Y2933000D01*
X18571300D01*
X18590200Y2923500D01*
X18604400Y2910800D01*
X18616200Y2891800D01*
X18625700Y2869700D01*
X18628100Y2838000D01*
X18625700Y2806300D01*
X18616200Y2784200D01*
X18604400Y2765200D01*
X18590200Y2752500D01*
X18571300Y2743000D01*
X18523900D01*
G01X15752000Y1555000D02*
Y1365000D01*
G01X15697600Y1555000D02*
X15806400D01*
G01X15922000Y1491700D02*
Y1365000D01*
G01Y1542300D02*
X15917300Y1545500D01*
Y1551800D01*
X15922000Y1555000D01*
X15926700Y1551800D01*
Y1545500D01*
X15922000Y1542300D01*
G01X16129900Y1475800D02*
X16113300Y1488500D01*
X16099100Y1491700D01*
X16080200Y1485300D01*
X16066000Y1472700D01*
X16056500Y1450500D01*
X16054100Y1428300D01*
X16056500Y1406200D01*
X16066000Y1387200D01*
X16080200Y1371300D01*
X16099100Y1365000D01*
X16115700Y1371300D01*
X16129900Y1384000D01*
G01X16221800Y1365000D02*
Y1555000D01*
G01X16297500Y1491700D02*
X16221800Y1418800D01*
G01X16252500Y1447300D02*
X16302200Y1365000D01*
G01X16391800D02*
Y1491700D01*
G01Y1460000D02*
X16401200Y1475800D01*
X16415400Y1488500D01*
X16434400Y1491700D01*
X16450900Y1488500D01*
X16465100Y1475800D01*
X16472200Y1453700D01*
Y1365000D01*
G01X16566500Y1450500D02*
X16642200D01*
X16635100Y1472700D01*
X16623300Y1485300D01*
X16606700Y1491700D01*
X16590200Y1488500D01*
X16576000Y1479000D01*
X16566500Y1456800D01*
X16561800Y1437800D01*
Y1418800D01*
X16566500Y1399800D01*
X16578300Y1380800D01*
X16592500Y1368200D01*
X16609100Y1365000D01*
X16625700Y1371300D01*
X16642200Y1390300D01*
G01X16736500Y1387200D02*
X16748300Y1374500D01*
X16764900Y1365000D01*
X16779100D01*
X16793300Y1371300D01*
X16802800Y1380800D01*
X16807500Y1393500D01*
X16805100Y1412500D01*
X16795700Y1422000D01*
X16753100Y1441000D01*
X16743600Y1463200D01*
X16748300Y1479000D01*
X16757800Y1488500D01*
X16772000Y1491700D01*
X16786200Y1488500D01*
X16800400Y1479000D01*
G01X16906500Y1387200D02*
X16918300Y1374500D01*
X16934900Y1365000D01*
X16949100D01*
X16963300Y1371300D01*
X16972800Y1380800D01*
X16977500Y1393500D01*
X16975100Y1412500D01*
X16965700Y1422000D01*
X16923100Y1441000D01*
X16913600Y1463200D01*
X16918300Y1479000D01*
X16927800Y1488500D01*
X16942000Y1491700D01*
X16956200Y1488500D01*
X16970400Y1479000D01*
G01X17282000Y1555000D02*
X17263100Y1548700D01*
X17248900Y1532800D01*
X17239400Y1513800D01*
X17232300Y1488500D01*
X17229900Y1460000D01*
X17232300Y1431500D01*
X17239400Y1406200D01*
X17248900Y1387200D01*
X17263100Y1371300D01*
X17282000Y1365000D01*
X17300900Y1371300D01*
X17315100Y1387200D01*
X17324600Y1406200D01*
X17331700Y1431500D01*
X17334100Y1460000D01*
X17331700Y1488500D01*
X17324600Y1513800D01*
X17315100Y1532800D01*
X17300900Y1548700D01*
X17282000Y1555000D01*
G01X17452000Y1358700D02*
X17447300Y1361800D01*
Y1368200D01*
X17452000Y1371300D01*
X17456700Y1368200D01*
Y1361800D01*
X17452000Y1358700D01*
G01X17569900Y1403000D02*
X17584100Y1380800D01*
X17603100Y1368200D01*
X17624400Y1365000D01*
X17643300Y1368200D01*
X17662200Y1384000D01*
X17674100Y1403000D01*
X17676400Y1422000D01*
X17671700Y1444200D01*
X17655100Y1460000D01*
X17638600Y1466300D01*
X17617300D01*
G01X17638600D02*
X17652800Y1475800D01*
X17664600Y1491700D01*
X17669300Y1510700D01*
X17664600Y1529700D01*
X17652800Y1545500D01*
X17631500Y1555000D01*
X17610200Y1551800D01*
X17588900Y1539200D01*
G01X17739900Y1393500D02*
X17754100Y1377700D01*
X17770700Y1368200D01*
X17792000Y1365000D01*
X17813300Y1371300D01*
X17829900Y1384000D01*
X17841700Y1406200D01*
X17844100Y1431500D01*
X17839300Y1456800D01*
X17827500Y1472700D01*
X17810900Y1485300D01*
X17794400Y1488500D01*
X17777800Y1485300D01*
X17756500Y1472700D01*
X17763600Y1555000D01*
X17827500D01*
G01X17921800Y1491700D02*
Y1403000D01*
X17931200Y1380800D01*
X17945400Y1368200D01*
X17962000Y1365000D01*
X17978600Y1368200D01*
X17992800Y1380800D01*
X18002200Y1403000D01*
G01Y1365000D02*
Y1491700D01*
G01X18070500Y1365000D02*
Y1555000D01*
X18132000Y1396700D01*
X18193500Y1555000D01*
Y1365000D01*
G01X15732000Y1998000D02*
Y1808000D01*
G01X15677600Y1998000D02*
X15786400D01*
G01X15902000Y1934700D02*
Y1808000D01*
G01Y1985300D02*
X15897300Y1988500D01*
Y1994800D01*
X15902000Y1998000D01*
X15906700Y1994800D01*
Y1988500D01*
X15902000Y1985300D01*
G01X16109900Y1918800D02*
X16093300Y1931500D01*
X16079100Y1934700D01*
X16060200Y1928300D01*
X16046000Y1915700D01*
X16036500Y1893500D01*
X16034100Y1871300D01*
X16036500Y1849200D01*
X16046000Y1830200D01*
X16060200Y1814300D01*
X16079100Y1808000D01*
X16095700Y1814300D01*
X16109900Y1827000D01*
G01X16201800Y1808000D02*
Y1998000D01*
G01X16277500Y1934700D02*
X16201800Y1861800D01*
G01X16232500Y1890300D02*
X16282200Y1808000D01*
G01X16371800D02*
Y1934700D01*
G01Y1903000D02*
X16381200Y1918800D01*
X16395400Y1931500D01*
X16414400Y1934700D01*
X16430900Y1931500D01*
X16445100Y1918800D01*
X16452200Y1896700D01*
Y1808000D01*
G01X16546500Y1893500D02*
X16622200D01*
X16615100Y1915700D01*
X16603300Y1928300D01*
X16586700Y1934700D01*
X16570200Y1931500D01*
X16556000Y1922000D01*
X16546500Y1899800D01*
X16541800Y1880800D01*
Y1861800D01*
X16546500Y1842800D01*
X16558300Y1823800D01*
X16572500Y1811200D01*
X16589100Y1808000D01*
X16605700Y1814300D01*
X16622200Y1833300D01*
G01X16716500Y1830200D02*
X16728300Y1817500D01*
X16744900Y1808000D01*
X16759100D01*
X16773300Y1814300D01*
X16782800Y1823800D01*
X16787500Y1836500D01*
X16785100Y1855500D01*
X16775700Y1865000D01*
X16733100Y1884000D01*
X16723600Y1906200D01*
X16728300Y1922000D01*
X16737800Y1931500D01*
X16752000Y1934700D01*
X16766200Y1931500D01*
X16780400Y1922000D01*
G01X16886500Y1830200D02*
X16898300Y1817500D01*
X16914900Y1808000D01*
X16929100D01*
X16943300Y1814300D01*
X16952800Y1823800D01*
X16957500Y1836500D01*
X16955100Y1855500D01*
X16945700Y1865000D01*
X16903100Y1884000D01*
X16893600Y1906200D01*
X16898300Y1922000D01*
X16907800Y1931500D01*
X16922000Y1934700D01*
X16936200Y1931500D01*
X16950400Y1922000D01*
G01X17262000Y1998000D02*
X17243100Y1991700D01*
X17228900Y1975800D01*
X17219400Y1956800D01*
X17212300Y1931500D01*
X17209900Y1903000D01*
X17212300Y1874500D01*
X17219400Y1849200D01*
X17228900Y1830200D01*
X17243100Y1814300D01*
X17262000Y1808000D01*
X17280900Y1814300D01*
X17295100Y1830200D01*
X17304600Y1849200D01*
X17311700Y1874500D01*
X17314100Y1903000D01*
X17311700Y1931500D01*
X17304600Y1956800D01*
X17295100Y1975800D01*
X17280900Y1991700D01*
X17262000Y1998000D01*
G01X17432000Y1801700D02*
X17427300Y1804800D01*
Y1811200D01*
X17432000Y1814300D01*
X17436700Y1811200D01*
Y1804800D01*
X17432000Y1801700D01*
G01X17597300Y1808000D02*
X17602000Y1849200D01*
X17609100Y1884000D01*
X17618600Y1915700D01*
X17630400Y1950500D01*
X17649300Y1998000D01*
X17554700D01*
G01X17719900Y1846000D02*
X17734100Y1823800D01*
X17753100Y1811200D01*
X17774400Y1808000D01*
X17793300Y1811200D01*
X17812200Y1827000D01*
X17824100Y1846000D01*
X17826400Y1865000D01*
X17821700Y1887200D01*
X17805100Y1903000D01*
X17788600Y1909300D01*
X17767300D01*
G01X17788600D02*
X17802800Y1918800D01*
X17814600Y1934700D01*
X17819300Y1953700D01*
X17814600Y1972700D01*
X17802800Y1988500D01*
X17781500Y1998000D01*
X17760200Y1994800D01*
X17738900Y1982200D01*
G01X17871000Y1808000D02*
Y1934700D01*
G01Y1899800D02*
X17878100Y1915700D01*
X17889900Y1928300D01*
X17906500Y1934700D01*
X17923100Y1928300D01*
X17934900Y1915700D01*
X17942000Y1899800D01*
Y1808000D01*
G01Y1899800D02*
X17949100Y1915700D01*
X17960900Y1928300D01*
X17977500Y1934700D01*
X17994100Y1928300D01*
X18005900Y1915700D01*
X18013000Y1896700D01*
Y1808000D01*
G01X18041000D02*
Y1934700D01*
G01Y1899800D02*
X18048100Y1915700D01*
X18059900Y1928300D01*
X18076500Y1934700D01*
X18093100Y1928300D01*
X18104900Y1915700D01*
X18112000Y1899800D01*
Y1808000D01*
G01Y1899800D02*
X18119100Y1915700D01*
X18130900Y1928300D01*
X18147500Y1934700D01*
X18164100Y1928300D01*
X18175900Y1915700D01*
X18183000Y1896700D01*
Y1808000D01*
G01X15693000Y2461000D02*
Y2271000D01*
G01X15638600Y2461000D02*
X15747400D01*
G01X15863000Y2397700D02*
Y2271000D01*
G01Y2448300D02*
X15858300Y2451500D01*
Y2457800D01*
X15863000Y2461000D01*
X15867700Y2457800D01*
Y2451500D01*
X15863000Y2448300D01*
G01X16070900Y2381800D02*
X16054300Y2394500D01*
X16040100Y2397700D01*
X16021200Y2391300D01*
X16007000Y2378700D01*
X15997500Y2356500D01*
X15995100Y2334300D01*
X15997500Y2312200D01*
X16007000Y2293200D01*
X16021200Y2277300D01*
X16040100Y2271000D01*
X16056700Y2277300D01*
X16070900Y2290000D01*
G01X16162800Y2271000D02*
Y2461000D01*
G01X16238500Y2397700D02*
X16162800Y2324800D01*
G01X16193500Y2353300D02*
X16243200Y2271000D01*
G01X16332800D02*
Y2397700D01*
G01Y2366000D02*
X16342200Y2381800D01*
X16356400Y2394500D01*
X16375400Y2397700D01*
X16391900Y2394500D01*
X16406100Y2381800D01*
X16413200Y2359700D01*
Y2271000D01*
G01X16507500Y2356500D02*
X16583200D01*
X16576100Y2378700D01*
X16564300Y2391300D01*
X16547700Y2397700D01*
X16531200Y2394500D01*
X16517000Y2385000D01*
X16507500Y2362800D01*
X16502800Y2343800D01*
Y2324800D01*
X16507500Y2305800D01*
X16519300Y2286800D01*
X16533500Y2274200D01*
X16550100Y2271000D01*
X16566700Y2277300D01*
X16583200Y2296300D01*
G01X16677500Y2293200D02*
X16689300Y2280500D01*
X16705900Y2271000D01*
X16720100D01*
X16734300Y2277300D01*
X16743800Y2286800D01*
X16748500Y2299500D01*
X16746100Y2318500D01*
X16736700Y2328000D01*
X16694100Y2347000D01*
X16684600Y2369200D01*
X16689300Y2385000D01*
X16698800Y2394500D01*
X16713000Y2397700D01*
X16727200Y2394500D01*
X16741400Y2385000D01*
G01X16847500Y2293200D02*
X16859300Y2280500D01*
X16875900Y2271000D01*
X16890100D01*
X16904300Y2277300D01*
X16913800Y2286800D01*
X16918500Y2299500D01*
X16916100Y2318500D01*
X16906700Y2328000D01*
X16864100Y2347000D01*
X16854600Y2369200D01*
X16859300Y2385000D01*
X16868800Y2394500D01*
X16883000Y2397700D01*
X16897200Y2394500D01*
X16911400Y2385000D01*
G01X17223000Y2461000D02*
X17204100Y2454700D01*
X17189900Y2438800D01*
X17180400Y2419800D01*
X17173300Y2394500D01*
X17170900Y2366000D01*
X17173300Y2337500D01*
X17180400Y2312200D01*
X17189900Y2293200D01*
X17204100Y2277300D01*
X17223000Y2271000D01*
X17241900Y2277300D01*
X17256100Y2293200D01*
X17265600Y2312200D01*
X17272700Y2337500D01*
X17275100Y2366000D01*
X17272700Y2394500D01*
X17265600Y2419800D01*
X17256100Y2438800D01*
X17241900Y2454700D01*
X17223000Y2461000D01*
G01X17393000Y2264700D02*
X17388300Y2267800D01*
Y2274200D01*
X17393000Y2277300D01*
X17397700Y2274200D01*
Y2267800D01*
X17393000Y2264700D01*
G01X17510900Y2309000D02*
X17525100Y2286800D01*
X17544100Y2274200D01*
X17565400Y2271000D01*
X17584300Y2274200D01*
X17603200Y2290000D01*
X17615100Y2309000D01*
X17617400Y2328000D01*
X17612700Y2350200D01*
X17596100Y2366000D01*
X17579600Y2372300D01*
X17558300D01*
G01X17579600D02*
X17593800Y2381800D01*
X17605600Y2397700D01*
X17610300Y2416700D01*
X17605600Y2435700D01*
X17593800Y2451500D01*
X17572500Y2461000D01*
X17551200Y2457800D01*
X17529900Y2445200D01*
G01X17680900Y2299500D02*
X17695100Y2283700D01*
X17711700Y2274200D01*
X17733000Y2271000D01*
X17754300Y2277300D01*
X17770900Y2290000D01*
X17782700Y2312200D01*
X17785100Y2337500D01*
X17780300Y2362800D01*
X17768500Y2378700D01*
X17751900Y2391300D01*
X17735400Y2394500D01*
X17718800Y2391300D01*
X17697500Y2378700D01*
X17704600Y2461000D01*
X17768500D01*
G01X17862800Y2397700D02*
Y2309000D01*
X17872200Y2286800D01*
X17886400Y2274200D01*
X17903000Y2271000D01*
X17919600Y2274200D01*
X17933800Y2286800D01*
X17943200Y2309000D01*
G01Y2271000D02*
Y2397700D01*
G01X18002000Y2271000D02*
Y2397700D01*
G01Y2362800D02*
X18009100Y2378700D01*
X18020900Y2391300D01*
X18037500Y2397700D01*
X18054100Y2391300D01*
X18065900Y2378700D01*
X18073000Y2362800D01*
Y2271000D01*
G01Y2362800D02*
X18080100Y2378700D01*
X18091900Y2391300D01*
X18108500Y2397700D01*
X18125100Y2391300D01*
X18136900Y2378700D01*
X18144000Y2359700D01*
Y2271000D01*
M02*
