  0
SECTION
  2
HEADER
  9
$ACADVER
  1
AC1014
  9
$HANDSEED
  5
FFFF
  9
$MEASUREMENT
 70
     1
  0
ENDSEC
  0
SECTION
  2
TABLES
  0
TABLE
  2
VPORT
  5
8
330
0
100
AcDbSymbolTable
 70
     4
  0
VPORT
  5
2E
330
8
100
AcDbSymbolTableRecord
100
AcDbViewportTableRecord
  2
*ACTIVE
 70
     0
 10
0.0
 20
0.0
 11
1.0
 21
1.0
 12
210.0
 22
148.5
 13
0.0
 23
0.0
 14
10.0
 24
10.0
 15
10.0
 25
10.0
 16
0.0
 26
0.0
 36
1.0
 17
0.0
 27
0.0
 37
0.0
 40
341.0
 41
1.24
 42
50.0
 43
0.0
 44
0.0
 50
0.0
 51
0.0
 71
     0
 72
   100
 73
     1
 74
     3
 75
     0
 76
     0
 77
     0
 78
     0
  0
ENDTAB
  0
TABLE
  2
LTYPE
  5
5
330
0
100
AcDbSymbolTable
 70
     1
  0
LTYPE
  5
14
330
5
100
AcDbSymbolTableRecord
100
AcDbLinetypeTableRecord
  2
BYBLOCK
 70
     0
  3

 72
    65
 73
     0
 40
0.0
  0
LTYPE
  5
15
330
5
100
AcDbSymbolTableRecord
100
AcDbLinetypeTableRecord
  2
BYLAYER
 70
     0
  3

 72
    65
 73
     0
 40
0.0
  0
LTYPE
  5
16
330
5
100
AcDbSymbolTableRecord
100
AcDbLinetypeTableRecord
  2
CONTINUOUS
 70
     0
  3
Solid line
 72
    65
 73
     0
 40
0.0
  0
ENDTAB
  0
TABLE
  2
LAYER
  5
2
100
AcDbSymbolTable
 70
1
  0
LAYER
  5
50
100
AcDbSymbolTableRecord
100
AcDbLayerTableRecord
  2
0
 70
0
  6
CONTINUOUS
  0
ENDTAB
  0
TABLE
  2
STYLE
  5
3
330
0
100
AcDbSymbolTable
 70
     1
  0
STYLE
  5
11
330
3
100
AcDbSymbolTableRecord
100
AcDbTextStyleTableRecord
  2
STANDARD
 70
     0
 40
0.0
 41
1.0
 50
0.0
 71
     0
 42
2.5
  3
txt
  4

  0
ENDTAB
  0
TABLE
  2
VIEW
  5
6
330
0
100
AcDbSymbolTable
 70
     0
  0
ENDTAB
  0
TABLE
  2
UCS
  5
7
330
0
100
AcDbSymbolTable
 70
     0
  0
ENDTAB
  0
TABLE
  2
APPID
  5
9
330
0
100
AcDbSymbolTable
 70
     2
  0
APPID
  5
12
330
9
100
AcDbSymbolTableRecord
100
AcDbRegAppTableRecord
  2
ACAD
 70
     0
  0
ENDTAB
  0
TABLE
  2
DIMSTYLE
  5
A
330
0
100
AcDbSymbolTable
 70
     1
  0
DIMSTYLE
105
27
330
A
100
AcDbSymbolTableRecord
100
AcDbDimStyleTableRecord
  2
ISO-25
 70
     0
  3

  4

  5

  6

  7

 40
1.0
 41
2.5
 42
0.625
 43
3.75
 44
1.25
 45
0.0
 46
0.0
 47
0.0
 48
0.0
140
2.5
141
2.5
142
0.0
143
0.03937007874016
144
1.0
145
0.0
146
1.0
147
0.625
 71
     0
 72
     0
 73
     0
 74
     0
 75
     0
 76
     0
 77
     1
 78
     8
170
     0
171
     3
172
     1
173
     0
174
     0
175
     0
176
     0
177
     0
178
     0
270
     2
271
     2
272
     2
273
     2
274
     3
340
11
275
     0
280
     0
281
     0
282
     0
283
     0
284
     8
285
     0
286
     0
287
     3
288
     0
  0
ENDTAB
  0
TABLE
  2
BLOCK_RECORD
  5
1
330
0
100
AcDbSymbolTable
 70
     1
  0
BLOCK_RECORD
  5
1F
330
1
100
AcDbSymbolTableRecord
100
AcDbBlockTableRecord
  2
*MODEL_SPACE
  0
BLOCK_RECORD
  5
1B
330
1
100
AcDbSymbolTableRecord
100
AcDbBlockTableRecord
  2
*PAPER_SPACE
  0
ENDTAB
  0
ENDSEC
  0
SECTION
  2
BLOCKS
  0
BLOCK
  5
20
330
1F
100
AcDbEntity
  8
0
100
AcDbBlockBegin
  2
*MODEL_SPACE
 70
     0
 10
0.0
 20
0.0
 30
0.0
  3
*MODEL_SPACE
  1

  0
ENDBLK
  5
21
330
1F
100
AcDbEntity
  8
0
100
AcDbBlockEnd
  0
BLOCK
  5
1C
330
1B
100
AcDbEntity
 67
     1
  8
0
100
AcDbBlockBegin
  2
*PAPER_SPACE
  1

  0
ENDBLK
  5
1D
330
1B
100
AcDbEntity
 67
     1
  8
0
100
AcDbBlockEnd
  0
ENDSEC
  0
SECTION
  2
ENTITIES
  0
LWPOLYLINE
  5
100
100
AcDbEntity
  8
0
 62
7
100
AcDbPolyline
 90
54
 70
1
 10
11357.454496
 20
18.805315
 30
0.0
 10
11042.710113
 20
-295.877541
 30
0.0
 10
11042.710113
 20
-2801.460033
 30
0.0
 10
11043.365433
 20
-2814.520995
 30
0.0
 10
11045.289342
 20
-2827.196724
 30
0.0
 10
11048.418622
 20
-2839.423720
 30
0.0
 10
11052.690620
 20
-2851.138764
 30
0.0
 10
11058.041836
 20
-2862.279487
 30
0.0
 10
11064.409051
 20
-2872.782104
 30
0.0
 10
11071.729896
 20
-2882.583964
 30
0.0
 10
11079.940587
 20
-2891.621567
 30
0.0
 10
11088.978471
 20
-2899.832540
 30
0.0
 10
11098.780331
 20
-2907.153102
 30
0.0
 10
11109.282949
 20
-2913.520600
 30
0.0
 10
11120.423389
 20
-2918.871533
 30
0.0
 10
11132.138716
 20
-2923.143531
 30
0.0
 10
11144.365711
 20
-2926.272811
 30
0.0
 10
11157.041440
 20
-2928.196720
 30
0.0
 10
11170.102402
 20
-2928.852040
 30
0.0
 10
12580.295162
 20
-2928.852040
 30
0.0
 10
12593.356124
 20
-2928.196720
 30
0.0
 10
12606.031853
 20
-2926.272811
 30
0.0
 10
12618.258849
 20
-2923.143531
 30
0.0
 10
12629.973893
 20
-2918.871533
 30
0.0
 10
12641.114616
 20
-2913.520600
 30
0.0
 10
12651.617233
 20
-2907.153102
 30
0.0
 10
12661.419093
 20
-2899.832540
 30
0.0
 10
12670.456696
 20
-2891.621567
 30
0.0
 10
12678.667669
 20
-2882.583964
 30
0.0
 10
12685.988231
 20
-2872.782104
 30
0.0
 10
12692.355729
 20
-2862.279487
 30
0.0
 10
12697.706662
 20
-2851.138764
 30
0.0
 10
12701.978660
 20
-2839.423720
 30
0.0
 10
12705.107940
 20
-2827.196724
 30
0.0
 10
12707.031849
 20
-2814.520995
 30
0.0
 10
12707.687169
 20
-2801.460033
 30
0.0
 10
12707.687169
 20
-108.586975
 30
0.0
 10
12707.031849
 20
-95.525731
 30
0.0
 10
12705.107940
 20
-82.850284
 30
0.0
 10
12701.978660
 20
-70.623288
 30
0.0
 10
12697.706662
 20
-58.907962
 30
0.0
 10
12692.355729
 20
-47.767522
 30
0.0
 10
12685.988231
 20
-37.264622
 30
0.0
 10
12678.667669
 20
-27.463044
 30
0.0
 10
12670.456696
 20
-18.425160
 30
0.0
 10
12661.419093
 20
-10.214186
 30
0.0
 10
12651.617233
 20
-2.893624
 30
0.0
 10
12641.114616
 20
3.473875
 30
0.0
 10
12629.973893
 20
8.824808
 30
0.0
 10
12618.258849
 20
13.096806
 30
0.0
 10
12606.031853
 20
16.226086
 30
0.0
 10
12593.356124
 20
18.149995
 30
0.0
 10
12580.295162
 20
18.805315
 30
0.0
 10
11357.454496
 20
18.805315
 30
0.0
  0
LWPOLYLINE
  5
101
100
AcDbEntity
  8
0
 62
7
100
AcDbPolyline
 90
54
 70
1
 10
5840.004124
 20
18.805315
 30
0.0
 10
5525.259742
 20
-295.877541
 30
0.0
 10
5525.259742
 20
-2801.460033
 30
0.0
 10
5525.915062
 20
-2814.520995
 30
0.0
 10
5527.838971
 20
-2827.196724
 30
0.0
 10
5530.968251
 20
-2839.423720
 30
0.0
 10
5535.240249
 20
-2851.138764
 30
0.0
 10
5540.591464
 20
-2862.279487
 30
0.0
 10
5546.958680
 20
-2872.782104
 30
0.0
 10
5554.279524
 20
-2882.583964
 30
0.0
 10
5562.490216
 20
-2891.621567
 30
0.0
 10
5571.528100
 20
-2899.832540
 30
0.0
 10
5581.329960
 20
-2907.153102
 30
0.0
 10
5591.832578
 20
-2913.520600
 30
0.0
 10
5602.973018
 20
-2918.871533
 30
0.0
 10
5614.688344
 20
-2923.143531
 30
0.0
 10
5626.915340
 20
-2926.272811
 30
0.0
 10
5639.591069
 20
-2928.196720
 30
0.0
 10
5652.652031
 20
-2928.852040
 30
0.0
 10
10899.614698
 20
-2928.852040
 30
0.0
 10
10912.675660
 20
-2928.196720
 30
0.0
 10
10925.351389
 20
-2926.272811
 30
0.0
 10
10937.578384
 20
-2923.143531
 30
0.0
 10
10949.293429
 20
-2918.871533
 30
0.0
 10
10960.434151
 20
-2913.520600
 30
0.0
 10
10970.936769
 20
-2907.153102
 30
0.0
 10
10980.738629
 20
-2899.832540
 30
0.0
 10
10989.776231
 20
-2891.621567
 30
0.0
 10
10997.987204
 20
-2882.583964
 30
0.0
 10
11005.307767
 20
-2872.782104
 30
0.0
 10
11011.675264
 20
-2862.279487
 30
0.0
 10
11017.026198
 20
-2851.138764
 30
0.0
 10
11021.298196
 20
-2839.423720
 30
0.0
 10
11024.427476
 20
-2827.196724
 30
0.0
 10
11026.351384
 20
-2814.520995
 30
0.0
 10
11027.006704
 20
-2801.460033
 30
0.0
 10
11027.006704
 20
-108.586975
 30
0.0
 10
11026.351384
 20
-95.525731
 30
0.0
 10
11024.427476
 20
-82.850284
 30
0.0
 10
11021.298196
 20
-70.623288
 30
0.0
 10
11017.026198
 20
-58.907962
 30
0.0
 10
11011.675264
 20
-47.767522
 30
0.0
 10
11005.307767
 20
-37.264622
 30
0.0
 10
10997.987204
 20
-27.463044
 30
0.0
 10
10989.776231
 20
-18.425160
 30
0.0
 10
10980.738629
 20
-10.214186
 30
0.0
 10
10970.936769
 20
-2.893624
 30
0.0
 10
10960.434151
 20
3.473875
 30
0.0
 10
10949.293429
 20
8.824808
 30
0.0
 10
10937.578384
 20
13.096806
 30
0.0
 10
10925.351389
 20
16.226086
 30
0.0
 10
10912.675660
 20
18.149995
 30
0.0
 10
10899.614698
 20
18.805315
 30
0.0
 10
5840.004124
 20
18.805315
 30
0.0
  0
LWPOLYLINE
  5
102
100
AcDbEntity
  8
0
 62
7
100
AcDbPolyline
 90
54
 70
1
 10
322.578166
 20
18.830715
 30
0.0
 10
7.833772
 20
-295.852141
 30
0.0
 10
7.833772
 20
-2801.434351
 30
0.0
 10
8.489086
 20
-2814.495313
 30
0.0
 10
10.412981
 20
-2827.171042
 30
0.0
 10
13.542377
 20
-2839.398038
 30
0.0
 10
17.814203
 20
-2851.113364
 30
0.0
 10
23.165381
 20
-2862.253804
 30
0.0
 10
29.532840
 20
-2872.756422
 30
0.0
 10
36.853495
 20
-2882.558282
 30
0.0
 10
45.064282
 20
-2891.596167
 30
0.0
 10
54.102116
 20
-2899.806858
 30
0.0
 10
63.903928
 20
-2907.127702
 30
0.0
 10
74.406639
 20
-2913.494918
 30
0.0
 10
85.547175
 20
-2918.846133
 30
0.0
 10
97.262462
 20
-2923.118131
 30
0.0
 10
109.489421
 20
-2926.247411
 30
0.0
 10
122.164980
 20
-2928.171320
 30
0.0
 10
135.226061
 20
-2928.826640
 30
0.0
 10
5382.188598
 20
-2928.826640
 30
0.0
 10
5395.249560
 20
-2928.171320
 30
0.0
 10
5407.925289
 20
-2926.247411
 30
0.0
 10
5420.152284
 20
-2923.118131
 30
0.0
 10
5431.867329
 20
-2918.846133
 30
0.0
 10
5443.008051
 20
-2913.494918
 30
0.0
 10
5453.510669
 20
-2907.127702
 30
0.0
 10
5463.312529
 20
-2899.806858
 30
0.0
 10
5472.350131
 20
-2891.596167
 30
0.0
 10
5480.561104
 20
-2882.558282
 30
0.0
 10
5487.881667
 20
-2872.756422
 30
0.0
 10
5494.249164
 20
-2862.253804
 30
0.0
 10
5499.600098
 20
-2851.113364
 30
0.0
 10
5503.872096
 20
-2839.398038
 30
0.0
 10
5507.001376
 20
-2827.171042
 30
0.0
 10
5508.925284
 20
-2814.495313
 30
0.0
 10
5509.580604
 20
-2801.434351
 30
0.0
 10
5509.580604
 20
-108.561293
 30
0.0
 10
5508.925284
 20
-95.500331
 30
0.0
 10
5507.001376
 20
-82.824602
 30
0.0
 10
5503.872096
 20
-70.597606
 30
0.0
 10
5499.600098
 20
-58.882562
 30
0.0
 10
5494.249164
 20
-47.741840
 30
0.0
 10
5487.881667
 20
-37.239222
 30
0.0
 10
5480.561104
 20
-27.437362
 30
0.0
 10
5472.350131
 20
-18.399760
 30
0.0
 10
5463.312529
 20
-10.188786
 30
0.0
 10
5453.510669
 20
-2.868224
 30
0.0
 10
5443.008051
 20
3.499275
 30
0.0
 10
5431.867329
 20
8.850208
 30
0.0
 10
5420.152284
 20
13.122206
 30
0.0
 10
5407.925289
 20
16.251486
 30
0.0
 10
5395.249560
 20
18.175395
 30
0.0
 10
5382.188598
 20
18.830715
 30
0.0
 10
322.578166
 20
18.830715
 30
0.0
  0
ENDSEC
  0
SECTION
  2
OBJECTS
  0
DICTIONARY
  5
C
330
0
100
AcDbDictionary
  3
ACAD_GROUP
350
D
  3
ACAD_MLINESTYLE
350
17
  0
DICTIONARY
  5
D
330
C
100
AcDbDictionary
  0
DICTIONARY
  5
1A
330
C
100
AcDbDictionary
  0
DICTIONARY
  5
17
330
C
100
AcDbDictionary
  3
STANDARD
350
18
  0
DICTIONARY
  5
19
330
C
100
AcDbDictionary
  0
ENDSEC
  0
EOF
